<svg xmlns="http://www.w3.org/2000/svg" viewBox="0 0 15859.73 11009.81"><defs><style>.a{fill:none;stroke:#000;stroke-width:100px;}.b{fill:#9ff;}.b,.c,.d,.e,.f,.g{fill-rule:evenodd;}.c{fill:#fff2cc;}.d{fill:#d0cece;}.e{fill:#9c9;}.f{fill:#69f;}.g{fill:#696;}</style></defs><title>Biotope_Map_REAL-SIZE</title><path class="a" d="M-2299.37-2120c791.78,0,1166.4,1019.68,563.47,1532.73C-2350-64.73-3305-627.4-3153.22-1416.34-3075.53-1820.13-2710.07-2120-2299.37-2120Z" transform="translate(7347.95 4491.21)"/><path class="a" d="M8271.48-246.89C8470.71,267,8521.13,823.94,8386.42,1360.61c-52.78,210.28-169.66,405.78-206.84,617.93-24.11,137.54-16,280.64-4.28,419,67.85,803.71,285.59,1602.2,112.19,2409.26-189.2,880.62-868.31,1468.8-1743.57,1615.82-760.39,127.73-1510.09-30.56-2241.25-230.42-244.2-66.75-512.9,25.47-753,74-464,93.72-931.87,138.36-1405.29,109.1-826-51-1732-239-2422.12-723.43-1215.83-853.36-1416.6-2478.82-1705-3818.57-46-213.58-89.13-444.47-193.21-639.1C-2304.1,954.44-2629.62,869-2872.38,801-3788.6,544.3-4762.68,662.89-5681,432.41c-436.41-109.53-866.71-325.16-1149.66-684.31-282.77-358.94-400.33-830.82-449.12-1277.31-55.9-511.4,21.23-1020.24,176-1509.52,185.56-586.49,546.11-1261.23,1215.65-1367.21,599.91-95,1264.54,15.26,1842.15,170.89,530.52,142.94,1040.19,359.35,1515.94,633.68,220.62,127.21,411.13,218.36,667.24,246.67,349.68,38.65,706.75,22,1057.67,17,252.57-3.62,509.2-21.46,761.23-1.9,223.91,17.37,445.52,57.09,669.57,73.38,207.22,15.07,377.58-1.43,569.65-78.9,175.42-70.76,354.52-123.87,543.26-143,490.47-49.66,956.92,68.19,1440,117.43,534.77,54.5,969.3-216.78,1455.36-393.14,375.13-136.11,796.22-264.75,1199.43-198.22,275.3,45.42,577,197.77,718.09,448.19,173.17,307.35,134.28,714.12,109.61,1050.77-26.57,362.61-53.18,717.19,219,998.25,204.64,211.34,488.45,326,735,478.5C7906.2-806.34,8145.84-570.93,8271.48-246.89Z" transform="translate(7347.95 4491.21)"/><path class="b" d="M5934.31,2893.22c422.1,70.38,913.42,124.2,1290,345.66,225.27,132.48,309.36,337.4,289.47,592.84-30.13,386.87-173.81,770.25-275.56,1142-87.59,320.05-229.28,860.27-651.87,852.51-360.83-6.62-720.1-277.15-1037.38-421.71-521.72-237.71-1069.64-320.68-1638.1-360.39-211.2-14.75-502.74,19.8-658.89-153.72-131.57-146.2-94.64-380.34-87.25-559.51,12.29-298.09-6.9-596.42-5.8-894.57.71-191.58-3.21-420,105-587.65,96.43-149.46,258.51-191.36,425.4-203.54,248-18.09,500.12,5.09,746.84,30C4938.53,2725.91,5436.51,2810.22,5934.31,2893.22Z" transform="translate(7347.95 4491.21)"/><path class="c" d="M4361.91-248c236.52-71.27,504.34-54.77,727.72,51.29,240.93,114.38,443.16,334.58,625.6,524.53,393.2,409.37,740.44,864.88,1054.79,1336.87,230.77,346.51,473.39,714.61,614.21,1109.31,39.23,110,109,298.6,25.93,406.28-73.93,95.87-232.85,68.61-334.8,50.68-498.47-87.64-975.87-300.45-1466-425.45-544.6-138.89-1100.62-206.3-1662.61-188.69-157,4.92-314.82,21.45-471.93,18-76.35-1.67-175.51-3.79-224.47-72.86-127.47-179.79,81.37-471.46,60.14-662.39-33.81-304.1-156.15-672.63-381.66-886.66C2784,875.45,2614.22,859.4,2425,837.79c-240.05-27.43-480.27-53.35-720.39-80.08C1240.34,706,768.77,667.14,309.57,578.88-141.78,492.13-469.14,162-664-241.6-784.9-492.07-857.5-764.48-896.31-1039.23c-37.81-267.68,8-563.61-101.59-815.36-117.44-269.72-569.56-651.66-184.38-910.33,111.81-75.09,263.44-94,393.86-108.1,205.16-22.16,413-20.05,618.9-13.19,455.18,15.17,908.17,64.3,1362.14,97.88,161.18,11.93,324.1,25.24,485.85,18.56,157.46-6.51,329.89-19.84,455.57,95.12,110.58,101.15,137.66,262.91,148.7,405,17.56,226-3.52,454.86-15.81,680.58-15.57,286.15-26,572.92-7.89,859.24,16.21,255.7,8.42,639.08,230.32,811.07,302.77,234.66,751.91,60.89,1066.31-55.4C3822.07-72.7,4089.88-166,4361.91-248Z" transform="translate(7347.95 4491.21)"/><path class="d" d="M6615.45,5714.69c490.43,0,684.6-648.76,767.13-1029.43,109.15-503.4,116.56-1021.18,36.44-1528.91C7232.52,1974.42,6306.68,1172.11,5640.49,246.17c-70.55-98-203.2-243.46-185.73-371.17,12.18-89.06,46.16-183.12,66.48-271.4,105.46-458.29,208.92-917.07,320.23-1374,46.31-190.12,92.26-380.78,147.46-568.57,53.91-183.39,137.44-282.81,348.25-277.76,59.74,1.42,212.09,8,246.22,72.57,20.46,38.7-16.35,148.74-21.79,190.23-9.61,73.22-17.92,146.65-23.37,220.3-14.72,198.77-17.33,416.17,76.76,597.89,79.94,154.4,223.14,259.14,365.93,351.36C7203-1041,7434.21-912.89,7654.07-765.9c122.8,82.1,249,156.56,333.15,280.64C8067.43-367,8123.05-231.81,8174.88-99.35c53.84,137.63,100.12,278,152.19,416.28,39.19,104.1,87.45,201.36,103.15,312.77,72.56,514.71-204.44,999.19-323.61,1483.61-19.21,78.12-17.55,111.69,11.25,184.4,51.17,129.17,69.67,269.43,80,407.14,20,266.14-12.87,532.69,3.75,798.16,36.08,575.95,99.33,1136.93-131.59,1681.9-126.92,299.54-299.78,612.44-542.27,834.67-254.86,233.56-609.36,346.12-943.83,402.16-369,61.83-743.34,52.55-1115,22.74-222.3-17.83-450.37-40.47-663-111.82-103.89-34.87-201.66-83.6-309.94-104.7-238.66-46.51-496.36-27.42-736.82-10-206.46,14.93-410.11,54.88-616.17,70.56-84.77,6.45-176.46,11.16-193.46-89.33-26.84-158.64,74.33-372.16,117.15-519.81,35.86-123.69,39.67-265,89.18-383.53,51.84-124.15,174.65-158.06,299.15-170.7,280.72-28.48,587.08,10.73,862.88,60.3,540.77,97.2,1065.24,287.85,1599.43,415.15C6143.79,5654.53,6381.16,5714.69,6615.45,5714.69Z" transform="translate(7347.95 4491.21)"/><path class="e" d="M-5143.76-4362.11c577.21,0,1168.34,193.47,1698.16,406.18,286.49,115,566.91,247.86,832.55,405.46,315.82,187.37,652.62,219.72,1002.75,306.26,158.64,39.2,331.52,10.19,493.23,2.14,343-17.08,686.68-26.78,1030.06-15.41,509,16.85,1030.38,163.68,1521.19-35.59,234.69-95.28,470.27-155.63,726.93-137.56,258,18.18,509.25,97.28,765,133.21,327,45.93,677.67,41.55,991.72-71,139.16-49.89,260.07-133.86,390.21-202,125.87-65.89,258.28-114.18,394.83-152.88,296.13-83.92,626.8-168.54,933.8-191.17,254.75-18.77,495.65,109.74,685.58,268.68,87.16,72.94,174.3,143.35,207.38,252.31,47.1,155.12,129.32,350.77,86,515-53.29,201.93-402.13,146.14-551.27,94.5-132.06-45.73-194-141.35-283.3-239-114.36-125.14-251.7-103.67-405.69-71.43-250.72,52.49-501.52,104.9-753.92,148.81-1365,237.46-2728.61,129.54-4102.6,58.41-315.43-16.33-631-28.9-946.41-45.51-182.2-9.59-377.85-23.41-554.24,34-177.87,57.86-299.3,194.74-388.9,353.86-81.84,145.36-108.91,284.29-282.73,337.43-341.5,104.4-715.58-15.61-1061,97.67-419.64,137.63-594.36,584.41-517.1,996.43,46.36,247.26,172.21,479.43,367.9,639.83,186.43,152.82,387.73,175.09,621.92,163.9,268.83-12.85,534.53-60.74,802.31-85.19,177.29-16.19,434.1-52.26,592.67,54.26,138.51,93,175.35,321.61,256,459.09,106.32,181.12,225.64,337.12,421.84,417.93C205.45,690.6,640.26,721.19,1039.58,752.82c268.66,21.29,545.15,10.26,811.79,47.36,273.94,38.1,556.88,84.46,819.1,175.09C2799.73,1020,2929.3,1080,3020.38,1185.45c189.9,219.81,273.62,596.12,243.85,877.7-18,169.89-69,335.07-99.43,502.87-51.61,284.37-60.57,572.16-50,860.48,19.09,521.95,26,1045.21-11.07,1566.6-17.05,239.92-41.79,481.22-94.05,716.34-35.48,159.65-81.06,355.63-199.17,477.58-147.24,152-463.81,130-654.55,128-414.42-4.47-830.43-72-1228.63-185.21C21.79,5872.43-784.76,5346.71-1182.09,4470.33c-379.55-837.15-578.68-1757.4-785.71-2648.86-38.52-165.87-76.18-332-117.11-497.28-20.79-84-32.83-199.11-79-274.09-24.56-39.87-60.14-55.42-101.26-81-99.93-62.1-200-128.92-306.73-179.06-133.69-62.79-294.78-79.56-438-105.74C-3614.59,573.81-4229.89,532-4842.18,488.4c-450.52-32-878.76-45.87-1290.23-252.71C-6837.41-118.69-7203.14-841-7226.34-1608.65c-24.4-807.83,120.53-1790.42,730.79-2375.35,167.23-160.28,379.25-298.83,606.05-354.85C-5649.13-4398.22-5388.32-4362.11-5143.76-4362.11Z" transform="translate(7347.95 4491.21)"/><path class="d" d="M-1357.22-1510.83c-18.54-171.91-108.29-325.83-128.8-493.86-20-163.58,162.68-197.09,290.86-218.22,537.86-88.69,543.82,477.29,530.59,866.52-6.25,183.92-41.54,356.52-76.13,536.68-27.43,142.83-48.18,299.21-125.47,425.54-83.32,136.19-192.62,138.91-329.76,83.41-85.22-34.49-207.79-51.07-275.11-117.95-115.83-115,.53-333.51,55.22-449.46C-1319.13-1083.17-1333.23-1288.22-1357.22-1510.83Z" transform="translate(7347.95 4491.21)"/><path class="f" d="M4066,3458.39c-23.41-286.27,466.21-348.64,657-362.67,385.81-28.36,821.34,33.32,1161.51,226.93C6087.09,3438,6278,3673,6020.3,3846.35c-292,196.37-739.3,171.48-1068.32,118.76C4699.66,3924.68,4093.79,3797.8,4066,3458.39Z" transform="translate(7347.95 4491.21)"/><path class="d" d="M-337.91,2442.82C-838.64,2324.94-348.68,1295,110.76,1408.77,613.13,1533.22,120.11,2550.58-337.91,2442.82Z" transform="translate(7347.95 4491.21)"/><path class="b" d="M7711.47-555.81c129.24,266.25,200.91,573.69,231.64,866.75,22.79,217.27,49.51,593.23-185.33,714.34-258.17,133.13-639.23,123.7-912.34,49.2-259.29-70.72-488.91-216.87-692.62-388.9C5952.43,516.37,5776,322.08,5591.55,136.24,5439.49-17,5276.28-180.36,5075.1-267.45c-292.94-126.82-668.39-33.54-962.56,42.09-357.66,92-698,252.89-1058.38,331.74-234.31,51.26-517.87-7.07-638.11-233.45-136.29-256.58-97.75-601-92-880.12,6.81-332.5-18.95-665.91-6.45-997.84,6.23-165.73,26.74-348.43,145.35-475,135-144.09,353.44-187.05,539.36-219,378.38-65,763.28-71.79,1144.22-113.58,418.5-45.9,830.54-145.21,1249.94-181.54,216.36-18.74,558.73-32.47,578,259,22.37,338.81-33.6,668.93,95.77,995.34,73.81,186.21,204,329.53,384.58,416.36,350.23,168.42,754.87,166.39,1043.39,458.76C7586.6-775.11,7656.6-668.85,7711.47-555.81Z" transform="translate(7347.95 4491.21)"/><path class="g" d="M-1957.62,852.19c11.11-254.61,139.61-541.58,285.23-744.34,111.48-155.22,266.86-300.33,459.14-340.17,181-37.51,415.59-1.4,543.56,142.5C-524.38,73.59-402.47,233.56-218.94,359.36-66.62,463.77,102.27,542.53,278.68,596.61c228.92,70.18,458,81,693.41,106.48,561.24,60.78,1145.41,45.29,1692.49,199.31,283.47,79.81,479.19,266.76,544.67,568.43,62,285.56-335.39,170.59-483.19,132.74-423.73-108.52-830.23-235.68-1269.46-273.79-450.35-39.08-918.18-28.35-1361.33,67.54-125.74,27.21-263.13,55.32-364.09,139.81-123.11,103-209,254.41-274,398.67-192.89,428.1-219.79,930.73-63,1374.07,267.92,757.61,812.41,1395.61,1175.38,2106.62,44.8,87.75,244.16,426.34,64.26,476.71-95,26.6-227.74-44.42-309.11-83.69-160.9-77.64-311.4-177.93-454.58-284.24-335.88-249.39-653-549.81-883.19-901.33-182.14-278.21-304.83-596.69-413.47-909.32-266.64-767.21-456.3-1584-519.23-2394.8C-1957.83,1164.39-1964.43,1008-1957.62,852.19Z" transform="translate(7347.95 4491.21)"/><path class="c" d="M1714.12,1372.54c378.41,137.84,46.76,839.48-57.21,1057.8-198.09,415.93-484.36,738-944.35,859-339.44,89.3-727.19,21-779.83-386.19-58.77-454.61,345.76-697.37,651.88-944.68,197.25-159.36,397-320.09,615.95-449.15C1341.59,1426.17,1544.63,1310.81,1714.12,1372.54Z" transform="translate(7347.95 4491.21)"/><path class="b" d="M1284.45,1839.32c224.34,81.75-42.46,566.2-117.5,675.38-115.8,168.44-424.58,355.93-632.42,241.73C441.27,2705.19,409.8,2589.3,425,2489.86c22-144.05,132.45-220.67,237.74-305.76C795.39,2076.87,1088.2,1767.86,1284.45,1839.32Z" transform="translate(7347.95 4491.21)"/><path class="d" d="M2885.2-3309.21c473.91,78.78,946-77.17,1379.41-254.68,140.36-57.49,286.45-137.69,436.74-166,121.07-22.77,128.21,26.93,124.95,132.88-4.76,154.73,181.66,451.54,16.57,557.9-164.7,106.09-433.77,125.91-622.42,154.48-537.33,81.38-1083.6,88.21-1625.86,104.16-410.32,12.08-819-7.23-1229-17.41-342.76-8.51-691.44-9.29-1030.41-66.41-173.68-29.27-494.27-115.52-247.66-310.26,116.16-91.73,204.11-78.9,339.49-49.74,332.29,71.57,678.08-1.05,1000.81-86.29,139.24-36.78,278.39-96.86,421.59-114.32,106.76-13,216.83-5.24,323.49,4.65C2412.6-3398,2648.05-3348.64,2885.2-3309.21Z" transform="translate(7347.95 4491.21)"/><path class="e" d="M4918.32-2305.64c331.22-36.79,474.06,334.42,458.31,606.31-17.12,295.48-205.47,680.69-535.95,716.68-331.29,36.07-474.1-333.88-458.31-606.3C4399.53-1884.82,4587.81-2268.95,4918.32-2305.64Z" transform="translate(7347.95 4491.21)"/><path class="f" d="M5057.59-763.62c44.79-329.21,538.13-335.33,779.47-310,398.27,41.8,831,204.69,1118.29,492.14,194.9,195,293,500.24-6.17,649.54C6604.13,240.25,6129.45,127.9,5793.7-9.58,5520.83-121.32,5007.47-395.58,5057.59-763.62Z" transform="translate(7347.95 4491.21)"/></svg>