<?xml version="1.0" encoding="UTF-8"?>
<!DOCTYPE svg PUBLIC "-//W3C//DTD SVG 1.1//EN" "http://www.w3.org/Graphics/SVG/1.1/DTD/svg11.dtd">
<!-- Creator: CorelDRAW X8 -->
<svg xmlns="http://www.w3.org/2000/svg" xml:space="preserve" width="500px" height="500px" version="1.1" style="shape-rendering:geometricPrecision; text-rendering:geometricPrecision; image-rendering:optimizeQuality; fill-rule:evenodd; clip-rule:evenodd"
viewBox="0 0 500 500"
 xmlns:xlink="http://www.w3.org/1999/xlink">
 <defs>
  <style type="text/css">
   <![CDATA[
    .str0 {stroke:black;stroke-width:1.00006}
    .fil0 {fill:none;fill-rule:nonzero}
   ]]>
  </style>
 </defs>
 <g id="Layer_x0020_1">
  <metadata id="CorelCorpID_0Corel-Layer"/>
  <path class="fil0 str0" d="M149 239c2,-21 10,-41 20,-60 3,-7 7,-14 12,-19 6,-5 13,-9 20,-12 25,-10 53,-10 78,0 7,3 15,7 17,15 4,-8 14,-12 23,-12 14,1 61,27 66,43 3,6 0,13 -4,19 -12,18 -33,29 -55,35 -20,5 -15,9 -28,17 -10,4 -21,10 -16,25"/>
  <path class="fil0 str0" d="M149 239c-1,11 4,18 10,24 -2,3 -3,5 -3,7 -13,3 -31,12 -37,20 -5,7 -7,25 -5,33 3,11 15,17 26,19 11,1 22,-1 34,-1 20,-1 39,6 57,13 12,5 16,9 25,15 4,2 10,4 14,2 -9,-3 -15,-13 -23,-18 -12,-7 -44,-16 -57,-18 -17,-3 -34,-2 -50,-7 -5,-1 -10,-3 -14,-7 -11,-11 -3,-28 9,-34 10,-4 21,-3 30,-9 2,5 7,7 12,8 -1,9 0,18 4,27 3,6 7,2 7,-3 0,-7 -1,-14 -1,-21 19,16 30,22 35,22 1,-11 -20,-26 -17,-28 7,6 20,10 26,10 -3,-8 -9,-14 -16,-18 16,0 32,0 48,0 0,4 1,9 2,14 0,4 1,4 4,5 9,3 8,18 16,24 2,-7 2,-14 -1,-19 8,2 18,2 26,1 -6,-8 -18,-9 -27,-8"/>
  <path class="fil0 str0" d="M313 169c-4,-3 -34,-2 -37,4 -9,12 18,33 28,31 4,-1 7,-3 9,-7"/>
  <path class="fil0 str0" d="M345 184c-4,0 -7,-3 -11,-2 -5,1 -7,9 -3,13 6,7 15,0 14,-8"/>
  <path class="fil0 str0" d="M355 213c-7,19 -8,47 -15,60"/>
  <line class="fil0 str0" x1="361" y1="215" x2="362" y2= "268" />
  <path class="fil0 str0" d="M371 221c-1,11 11,33 10,37"/>
 </g>
</svg>
