<?xml version="1.0" encoding="UTF-8"?>
<!DOCTYPE svg PUBLIC "-//W3C//DTD SVG 1.1//EN" "http://www.w3.org/Graphics/SVG/1.1/DTD/svg11.dtd">
<!-- Creator: CorelDRAW X8 -->
<svg xmlns="http://www.w3.org/2000/svg" xml:space="preserve" width="500px" height="500px" version="1.1" style="shape-rendering:geometricPrecision; text-rendering:geometricPrecision; image-rendering:optimizeQuality; fill-rule:evenodd; clip-rule:evenodd"
viewBox="0 0 500 500"
 xmlns:xlink="http://www.w3.org/1999/xlink">
 <defs>
  <style type="text/css">
   <![CDATA[
    .str0 {stroke:black;stroke-width:1.00006}
    .fil0 {fill:none;fill-rule:nonzero}
   ]]>
  </style>
 </defs>
 <g id="Layer_x0020_1">
  <metadata id="CorelCorpID_0Corel-Layer"/>
  <path class="fil0 str0" d="M357 213c-2,-16 -21,-47 -33,-57 -16,-15 -40,-20 -62,-22 -25,-1 -37,2 -55,17 -8,6 -16,14 -17,24 -16,4 -30,13 -40,26 -7,-8 -14,-16 -21,-24 -3,8 -7,17 -4,26 1,2 2,5 3,7 2,6 1,13 0,20 -2,12 -3,24 -5,36 -2,11 -5,63 15,59 22,-4 39,-21 55,-37 1,0 2,-1 3,-2 2,0 3,0 5,1 13,4 28,4 42,0 -19,14 -50,17 -57,29 7,-1 18,-5 31,-12 -1,3 -19,16 -23,26 5,5 22,-18 30,-22 1,13 -16,23 -11,35 17,-15 29,-36 49,-47 11,-7 37,-11 52,-18 11,-3 4,-3 15,-8 18,8 41,32 29,53 -6,9 -10,13 -25,17 -32,10 -65,16 -94,31 0,2 3,3 6,1 34,-18 113,-18 135,-53 6,-16 -15,-48 -30,-57 -10,-10 10,-17 7,-49z"/>
  <path class="fil0 str0" d="M156 266c-1,2 -1,5 0,8 1,2 5,4 8,2 3,-1 5,-3 6,-6 1,-3 1,-6 0,-9 0,-4 -2,-10 -6,-9 -3,1 -7,11 -8,14z"/>
  <path class="fil0 str0" d="M174 216c6,-4 15,-7 23,-8 7,7 11,16 13,26 1,4 -11,6 -14,10"/>
  <path class="fil0 str0" d="M146 308c9,18 19,36 30,53"/>
  <path class="fil0 str0" d="M160 304c11,17 21,35 32,52"/>
  <path class="fil0 str0" d="M169 295c3,5 7,13 10,17"/>
  <path class="fil0 str0" d="M123 300c-9,0 -21,12 -26,13"/>
  <path class="fil0 str0" d="M120 289c-6,0 -17,3 -23,9"/>
  <path class="fil0 str0" d="M122 277c-7,0 -14,1 -20,1"/>
  <path class="fil0 str0" d="M170 226c9,-4 18,-6 28,-6"/>
 </g>
</svg>
