<?xml version="1.0" encoding="UTF-8"?>
<!DOCTYPE svg PUBLIC "-//W3C//DTD SVG 1.1//EN" "http://www.w3.org/Graphics/SVG/1.1/DTD/svg11.dtd">
<!-- Creator: CorelDRAW X8 -->
<svg xmlns="http://www.w3.org/2000/svg" xml:space="preserve" width="500px" height="500px" version="1.1" style="shape-rendering:geometricPrecision; text-rendering:geometricPrecision; image-rendering:optimizeQuality; fill-rule:evenodd; clip-rule:evenodd"
viewBox="0 0 500 500"
 xmlns:xlink="http://www.w3.org/1999/xlink">
 <defs>
  <style type="text/css">
   <![CDATA[
    .str0 {stroke:black;stroke-width:1.00006}
    .fil0 {fill:none;fill-rule:nonzero}
   ]]>
  </style>
 </defs>
 <g id="Layer_x0020_1">
  <metadata id="CorelCorpID_0Corel-Layer"/>
  <path class="fil0 str0" d="M336 50c-23,20 -41,44 -54,71 -45,1 -92,1 -131,25 -45,30 -51,33 -76,77 -9,25 3,20 -18,44 -30,53 -32,80 -20,162 2,15 17,44 30,25 -6,-27 6,-62 23,-80 11,-44 -5,-116 2,-132 12,42 26,54 50,61 -7,15 -14,31 -21,47 -3,7 -3,9 1,15 14,18 27,35 40,53 5,7 9,7 16,4 7,-3 14,-6 18,-12 5,-6 4,-16 -3,-20 -4,-2 -10,0 -15,0 -18,1 -29,-18 -36,-34 -4,-7 -4,-10 1,-17 9,-13 21,-23 29,-36 9,-15 12,-33 7,-49 33,0 66,-9 95,-24 -5,29 -14,93 -30,116 -4,7 -7,11 1,16 10,7 22,9 33,6 0,-7 -10,-11 -13,-18 -5,-21 10,-74 21,-97 18,22 29,46 24,71 -2,7 -4,14 0,20 5,8 18,4 27,-1 -19,-21 -8,-19 -11,-51 -3,-16 -13,-39 -33,-67 19,1 38,-9 48,-25 7,-11 9,-23 14,-35 4,-11 11,-23 22,-28 7,-3 15,-4 23,-3 13,0 26,3 39,1 13,-1 26,-6 33,-18 -17,-5 -33,-10 -50,-15 -6,-2 -12,-4 -17,-8 -10,-8 -14,-22 -26,-27 -4,-1 -9,-2 -10,-7 0,-2 1,-4 3,-5 8,-13 16,-25 24,-38 -14,5 -26,15 -33,27"/>
  <path class="fil0 str0" d="M336 52c2,-13 10,-24 21,-31 9,26 -5,42 4,59"/>
  <path class="fil0 str0" d="M113 284c-3,27 -10,53 -20,78 -3,7 -6,14 -4,21 2,8 9,13 14,20 7,10 8,23 9,35 9,-1 18,-3 24,-9 6,-6 6,-19 -2,-22 -4,-1 -8,0 -12,-2 -4,-2 -6,-7 -7,-11 -5,-15 -11,-32 -5,-48 2,-5 6,-10 10,-15 6,-9 12,-18 19,-27"/>
  <path class="fil0 str0" d="M353 103c4,8 16,-4 21,-5 6,-1 12,1 13,7 4,-7 7,-14 -1,-15 -16,-2 -33,12 -33,13z"/>
  <path class="fil0 str0" d="M467 118c0,-2 -2,-3 -4,-3 -5,0 -11,2 -8,8 2,3 6,5 10,3 3,-1 5,-5 5,-9"/>
 </g>
</svg>
