<?xml version="1.0" encoding="utf-8"?>
<!-- Generator: Adobe Illustrator 19.0.0, SVG Export Plug-In . SVG Version: 6.00 Build 0)  -->
<svg version="1.1" id="Layer_1" xmlns="http://www.w3.org/2000/svg" xmlns:xlink="http://www.w3.org/1999/xlink" x="0px" y="0px"
	 viewBox="-55 147 500 500" style="enable-background:new -55 147 500 500;" xml:space="preserve">
<style type="text/css">
	.st0{fill:none;stroke:#000000;stroke-width:1.0001;}
</style>
<g id="Layer_x0020_1">
	<path class="st0" d="M23,226c-9-15-25-25-42-29c3,19,9,37,19,54c0,9,6,17,9,25c2,7,1,14,2,21c3,18,12,34,25,46c12,13,27,23,42,32
		c8,4,16,10,16,18c1,5-1,9-2,13c-9,23-15,47-18,72c-1,7-2,15-7,20c-4,3-9,5-13,8c-3,3-5,9-1,12c5,4,13-4,19-2c2,0,4,1,6,0
		c0,0,1-1,1-2c18-38,27-79,29-121c20-2,41-3,62-5c17-1,35-2,53-1c2,0,4.9,0,7.9,1.9c1,1,2.4,2.5,3.4,3.5
		C256.1,426.4,267,467.2,264,508c-1,17-5,34-17,47c-2,2-5,5-6,8c-1,2.9-0.1,6.7,3.5,7.9c0.3,0.1,4.3-7.5,7-10.4
		c0.2-0.2,17.5,13.3,26.3,8.6c0.1-0.1,0.2-0.2,0.2-0.3c2.9-12.9-2.1-26.9-2.1-39.8c-1-14,2-27,6-40c0,0,16.9-53.8,19.8-56.8
		c0.1-0.2,0.3-0.3,0.4-0.5c16.9-25.1,32.5-72.3,34.8-74.7"/>
	<path class="st0" d="M124,390c19,27,30,60,31,93c0,6,0,11-3,15c-1.8,3.5-5.1,6.3-5.2,10.3c0,0.6-0.7,1-1.1,0.6
		c-3-2.1-7.1-2.8-9.7-1.9c-4,1-7,3-11,2c-3-1-5-5-3-8c1.6-2.3,4.3-3.5,6.9-2.4c0.6,0.2,1.1-0.4,0.9-0.9c-0.7-2.1-0.3-4.2,1.2-5.6
		c2-3,9-10,9-11.9c0-0.1-11-28.2-17-43.1c-3-10-7-20-15-28"/>
	<path class="st0" d="M20,223c9-4,19-5,29-3c0-17,10-35,25-44c19,12,25,41,13,61c-1,1-3,3-3,6c-1,8,13,12,14,21c42,4,84,8,126,13
		c42,4,85,9,125,24c5,2,10,5,14,9c0,0,0,0,0,0.1c4,5,6,11,7,18c3,17.9,12.8,102.6,14.9,111.8c0,0.2,0.1,0.3,0.1,0.5
		C402,492.1,413,544.1,421,597c0,0,0,0,0,0.1c0,3,0,7-1,9c-2,4-9,5-13,3c-18-6-20-34-38-41c-9-4-20-2-28-7c-13-8-11-27-16-41
		c-4-11-13-21-14-33c-1-13,9-24,14-36c10-27-5.6-58.6,7.4-83.6"/>
	<path class="st0" d="M47,251c0-4,3-8,6-10c4-2,8-3,12-4c1,0,1,0,2,1c1,0,2,1,2,2c1,3,0,6-2,8s-5,4-7,5s-4,2-6,2c-3,0-5-1-6-3"/>
	<path class="st0" d="M18,251c-4-2-9-5-12-2c-3,2-3,7-1,10c3,2,7,3,11,1c1,0,2-1,2-2c2-3,0-6-2-9"/>
	<path class="st0" d="M22,247c-3,11-9,21-16,30c-4,5-9,10-8,16c0,2,1,4,2,6c2,4,5,9,10,9c1,0,2,0,4-1c18-5,36-13,51-24"/>
</g>
</svg>
