<?xml version="1.0" encoding="UTF-8"?>
<!DOCTYPE svg PUBLIC "-//W3C//DTD SVG 1.1//EN" "http://www.w3.org/Graphics/SVG/1.1/DTD/svg11.dtd">
<!-- Creator: CorelDRAW X8 -->
<svg xmlns="http://www.w3.org/2000/svg" xml:space="preserve" width="500px" height="500px" version="1.1" style="shape-rendering:geometricPrecision; text-rendering:geometricPrecision; image-rendering:optimizeQuality; fill-rule:evenodd; clip-rule:evenodd"
viewBox="0 0 500 500"
 xmlns:xlink="http://www.w3.org/1999/xlink">
 <defs>
  <style type="text/css">
   <![CDATA[
    .str0 {stroke:black;stroke-width:1.00006}
    .fil0 {fill:none;fill-rule:nonzero}
   ]]>
  </style>
 </defs>
 <g id="Layer_x0020_1">
  <metadata id="CorelCorpID_0Corel-Layer"/>
  <path class="fil0 str0" d="M334 109c-9,14 -10,32 -3,47 -2,4 -4,7 -6,11 -18,-9 -40,-8 -60,-8 -17,1 -33,1 -50,1 -43,0 -92,30 -98,64 -3,8 2,22 1,26 2,22 -10,42 -10,64 1,14 6,26 11,39 7,17 14,34 25,48 5,6 10,12 17,16 16,9 35,6 53,3 -4,-18 -10,-37 -26,-46 -5,-2 -12,-4 -16,-9 -3,-4 -3,-9 -4,-14 -5,-15 -18,-28 -21,-43 8,-53 -5,-78 -4,-78 20,39 33,33 30,42 -1,9 -8,15 -9,23 -9,34 24,26 63,36 0,-6 -4,-11 -9,-15 -10,-6 -35,-10 -33,-26 2,-11 17,-12 25,-21 11,-13 0,-41 -10,-54 0,10 10,36 20,40 29,10 61,10 89,0 4,12 6,25 5,37 0,5 -1,10 -1,15 1,7 5,13 11,17 1,-1 5,-8 5,-7 0,3 1,7 3,9 2,3 7,4 9,1 1,-2 0,-5 -1,-7 -7,-21 -11,-43 -13,-66 21,-8 37,-30 37,-52 1,0 1,7 12,11 6,0 13,-3 14,-8 2,-7 -2,-14 1,-20 1,-2 3,-4 4,-6 11,-11 19,-25 22,-40 4,-13 3,-29 -8,-36 -12,7 -23,21 -27,29 -3,-3 -29,0 -30,0 -2,-2 -4,-10 -6,-13 -3,-4 -7,-7 -12,-10z"/>
  <path class="fil0 str0" d="M341 247c0,0 -1,0 -1,0 0,15 1,29 5,43 0,2 0,3 2,4 1,1 2,1 3,2 3,0 6,1 9,3 3,2 4,5 4,8 -4,-2 -9,-3 -14,-4 2,3 4,5 6,8 1,1 1,2 1,3 0,3 -3,3 -5,3 -3,0 -6,0 -7,2"/>
  <path class="fil0 str0" d="M360 161c5,2 7,7 8,11 0,4 -3,6 -6,4 -2,0 -3,-2 -4,-3 -2,-1 -4,-1 -6,-2 -2,-2 -2,-6 1,-8 2,-2 3,-2 6,-2"/>
  <path class="fil0 str0" d="M398 164c-7,-2 -14,-3 -15,5 -1,8 13,9 15,2 1,-3 -1,-6 -5,-8"/>
 </g>
</svg>
