<?xml version="1.0" encoding="UTF-8"?>
<!DOCTYPE svg PUBLIC "-//W3C//DTD SVG 1.1//EN" "http://www.w3.org/Graphics/SVG/1.1/DTD/svg11.dtd">
<!-- Creator: CorelDRAW X8 -->
<svg xmlns="http://www.w3.org/2000/svg" xml:space="preserve" width="500px" height="500px" version="1.1" style="shape-rendering:geometricPrecision; text-rendering:geometricPrecision; image-rendering:optimizeQuality; fill-rule:evenodd; clip-rule:evenodd"
viewBox="0 0 500 500"
 xmlns:xlink="http://www.w3.org/1999/xlink">
 <defs>
  <style type="text/css">
   <![CDATA[
    .str0 {stroke:black;stroke-width:1.00006}
    .fil0 {fill:none;fill-rule:nonzero}
   ]]>
  </style>
 </defs>
 <g id="Layer_x0020_1">
  <metadata id="CorelCorpID_0Corel-Layer"/>
  <path class="fil0 str0" d="M89 27c-4,-6 -7,-15 -14,-17 -3,9 -10,17 -14,25 -5,11 -5,23 -1,33 5,11 15,18 26,19 5,0 10,0 12,3 -11,10 -10,27 -14,41 -5,15 -17,26 -23,41 -9,23 1,53 22,66 6,4 13,7 18,12 9,10 8,25 11,39 4,13 14,24 24,35 3,4 6,7 10,11 -5,40 5,82 27,116 -3,-40 -7,-80 0,-120 4,51 3,103 -5,153 5,-5 13,5 20,7 6,2 11,-2 14,-7 3,-4 4,-10 5,-16 4,-37 9,-76 -2,-111 -1,-4 -3,-8 -1,-12 4,-7 15,-1 22,3 13,7 29,7 43,4 14,-3 28,-10 42,-15 5,-2 10,-3 15,-1 7,3 10,12 15,18 4,4 9,7 13,10 16,10 31,21 45,35 -3,22 -5,45 -7,68 -1,3 -1,6 0,9 4,9 17,7 26,4 4,-25 6,-51 5,-77 0,-6 -1,-13 -3,-19 -2,-6 -6,-11 -9,-16 -14,-26 -4,-57 -6,-86 0,-6 -1,-13 1,-19 3,-10 13,-17 16,-27 4,-15 -7,-29 -18,-40 -20,-22 -41,-43 -58,-67 -8,-11 -16,-23 -27,-32 -11,-8 -25,-12 -37,-16l-79 -25c5,-12 5,-28 -5,-34 -10,-7 -24,0 -31,9 -7,10 -10,22 -15,32 -2,-15 -22,-9 -32,-11 -13,-2 -25,-13 -31,-25z"/>
  <path class="fil0 str0" d="M103 124c5,4 8,10 9,17 -5,1 -9,-1 -11,-5 -2,-4 -1,-9 3,-12"/>
  <path class="fil0 str0" d="M162 123c2,6 0,14 3,20 2,3 5,6 8,8 1,0 1,0 1,0 1,0 1,0 1,0 4,-3 6,-8 5,-12 0,-5 -1,-9 -3,-13 -4,-7 -19,-17 -15,-3z"/>
  <path class="fil0 str0" d="M104 222c2,-3 4,-6 6,-9 2,-2 4,-5 7,-6 3,-1 7,0 11,1 3,1 7,3 10,5 3,2 6,6 6,10"/>
  <path class="fil0 str0" d="M120 223c-1,-1 -2,-1 -2,-2 0,6 0,12 -1,18"/>
  <path class="fil0 str0" d="M136 225c1,5 1,10 0,14"/>
 </g>
</svg>
