<?xml version="1.0" encoding="utf-8"?>
<!-- Generator: Adobe Illustrator 19.0.0, SVG Export Plug-In . SVG Version: 6.00 Build 0)  -->
<svg version="1.1" id="Layer_1" xmlns="http://www.w3.org/2000/svg" xmlns:xlink="http://www.w3.org/1999/xlink" x="0px" y="0px"
	 viewBox="-55 147 500 500" style="enable-background:new -55 147 500 500;" xml:space="preserve">
<style type="text/css">
	.st0{fill:none;stroke:#000000;stroke-width:1.0001;}
</style>
<g id="Layer_x0020_1">
	<path class="st0" d="M34,174c-4-6-7-15-14-17c-3,9-10,17-14,25c-5,11-5,23-1,33c5,11,15,18,26,19c5,0,10,0,12,3c-11,10-10,27-14,41
		c-5,15-17,26-23,41c-9,23,1,53,22,66c6,4,13,7,18,12c9,10,8,25,11,38.9c0,0,0,0.1,0,0.1c4,13,14,23.9,24,34.9c0,0,0,0,0.1,0.1
		c2.9,3.9,5.8,6.8,9.6,10.6c0.2,0.2,0.3,0.5,0.3,0.8c-4.7,38.5,4.5,78.8,24.9,112c0.6,0.9,2,0.5,1.9-0.6c-2.7-35.7-5.9-71.3-1.1-107
		c0.2-1.2,2-1.2,2,0.1c3.2,47.4,1.9,95.4-5.3,141.8c-0.1,0.8,0.6,1.4,1.4,1.1c5-1.8,12,6.3,18.3,8.1c6,2,11-2,14-7c3-4,4-10,5-16
		c0,0,0,0,0-0.1c4-37,9-76-2-111c-1-4-3-8-1-12c4-7,15-1,22,3c13,7,29,7,43,4s28-10,42-15c5-2,10-3,15-1c7,3,10,12,15,18
		c4,4,9,7,13,10c16,10,31,21,45,35c-3,22-5,45-7,68c-1,3-1,6,0,9c4,9,17,7,26,4c4-25,6-51,5-77c0-6-1-13-3-19s-6-11-9-16
		c-14-26-4-57-6-86c0-6-1-13,1-19c3-10,13-17,16-27c4-15-7-29-18-40c-20-22-41-43-58-67c-8-11-16-23-27-32c-11-8-25-12-37-16l-79-25
		c5-12,5-28-5-34c-10-7-24,0-31,9c-7,10-10,22-15,32c-2-15-22-9-32-11C52,197,40,186,34,174z"/>
	<path class="st0" d="M48.9,270.9c4.2,0.5,8.7,16.6,8.1,17.1c-5,1-9-1-11-5s-0.9-9.1,3.1-12.1"/>
	<path class="st0" d="M107,270c2,6,0,14,3,20c2,3,5,6,8,8c1,0,1,0,1,0c1,0,1,0,1,0c4-3,6-8,5-12c0-5-1-9-3-13
		C118,266,103,256,107,270z"/>
	<path class="st0" d="M49,369c2-3,10-14,13-15s18,4,21,6s6,6,6,10"/>
	<path class="st0" d="M63,368c0,6,0,12-1,18"/>
	<path class="st0" d="M81,372c1,5,1,10,0,14"/>
</g>
</svg>
