<?xml version="1.0" encoding="UTF-8"?>
<!DOCTYPE svg PUBLIC "-//W3C//DTD SVG 1.1//EN" "http://www.w3.org/Graphics/SVG/1.1/DTD/svg11.dtd">
<!-- Creator: CorelDRAW X8 -->
<svg xmlns="http://www.w3.org/2000/svg" xml:space="preserve" width="500px" height="500px" version="1.1" style="shape-rendering:geometricPrecision; text-rendering:geometricPrecision; image-rendering:optimizeQuality; fill-rule:evenodd; clip-rule:evenodd"
viewBox="0 0 500 500"
 xmlns:xlink="http://www.w3.org/1999/xlink">
 <defs>
  <style type="text/css">
   <![CDATA[
    .str0 {stroke:black;stroke-width:1.00006}
    .fil0 {fill:none;fill-rule:nonzero}
   ]]>
  </style>
 </defs>
 <g id="Layer_x0020_1">
  <metadata id="CorelCorpID_0Corel-Layer"/>
  <path class="fil0 str0" d="M196 97c19,-11 75,-18 103,-13 28,5 51,23 70,44 4,-15 16,-23 25,-9 4,6 5,13 5,19 4,-8 9,-16 13,-24 2,-4 4,-8 7,-10 13,-6 20,11 18,23 -2,9 -8,18 -15,23 6,20 2,41 2,62 1,27 9,55 25,78 4,6 -16,18 -17,17 -13,-27 -88,-60 -103,-56 15,14 53,93 52,93 -23,-3 -32,-31 -49,-43 -17,-13 -42,-13 -58,-28 -22,36 -34,95 -59,89 -1,1 -4,-12 0,-13 2,-1 5,4 7,4 -3,-11 6,-15 28,-80 -9,3 -18,4 -27,3 -14,-1 -20,-5 -30,8 -11,7 -21,20 -23,26 -7,-1 20,42 24,65 -12,-4 -20,-15 -27,-26 -7,-12 -14,-23 -21,-35 -4,-6 -4,-8 -1,-14 5,-10 11,-20 16,-29 -36,-24 -52,71 -84,102 -2,1 -8,-16 -3,-26 -4,-1 4,-6 5,-17 1,-15 19,-41 19,-39 14,-27 3,-65 4,-89 -3,-24 -11,-42 -37,-39 -18,-1 -23,21 -25,19 -10,-24 40,-38 48,-22 8,-14 48,-38 108,-63z"/>
  <path class="fil0 str0" d="M387 193c2,-1 16,8 11,19 -11,0 -19,-12 -13,-22"/>
 </g>
</svg>
