<?xml version="1.0" encoding="UTF-8"?>
<!DOCTYPE svg PUBLIC "-//W3C//DTD SVG 1.1//EN" "http://www.w3.org/Graphics/SVG/1.1/DTD/svg11.dtd">
<!-- Creator: CorelDRAW X8 -->
<svg xmlns="http://www.w3.org/2000/svg" xml:space="preserve" width="500px" height="500px" version="1.1" style="shape-rendering:geometricPrecision; text-rendering:geometricPrecision; image-rendering:optimizeQuality; fill-rule:evenodd; clip-rule:evenodd"
viewBox="0 0 500 500"
 xmlns:xlink="http://www.w3.org/1999/xlink">
 <defs>
  <style type="text/css">
   <![CDATA[
    .str0 {stroke:black;stroke-width:1.00006}
    .fil0 {fill:none}
   ]]>
  </style>
 </defs>
 <g id="Layer_x0020_1">
  <metadata id="CorelCorpID_0Corel-Layer"/>
  <path class="fil0 str0" d="M116 104c-14,-12 -13,-53 -37,-51 2,20 -4,40 -3,44 1,14 18,25 32,19 3,27 6,54 7,80 0,26 -5,51 8,75 6,12 14,16 16,29 1,15 -1,33 -2,48 -1,33 -4,65 -10,98 17,8 15,-57 16,-65 6,-29 8,-57 7,-87 26,-6 19,53 19,65 0,33 16,65 3,98 20,-3 16,-59 16,-73 2,-32 3,-64 -4,-95 37,18 81,8 120,-6 18,18 34,44 36,69 2,28 -24,59 -36,82 10,3 16,-18 20,-24 7,-12 17,-22 25,-33 18,-24 -1,-57 -6,-84 8,16 18,24 61,55 30,35 16,75 19,96 16,-17 8,-50 7,-72 -1,-10 3,-28 -4,-37 -6,-8 -21,-13 -29,-20 -13,-12 -34,-38 -37,-56 -1,-12 5,-26 6,-38 2,-15 2,-29 0,-43 -29,-6 -56,-16 -86,-9 -33,9 -70,4 -102,-5 -10,-3 -14,-3 -20,-10 -4,-7 -10,-42 -7,-48 6,-10 16,-14 20,-27 4,-8 9,-31 4,-40 -16,14 -29,34 -37,53 -2,-1 -6,-2 -7,-1 7,-21 11,-45 12,-65 -7,7 -5,21 -10,33 0,-9 -4,-21 -7,-25 -3,18 3,36 0,56 -20,-13 -11,-52 -12,-53 -4,4 -5,18 -4,25 -5,-11 -16,-25 -16,-30 -6,5 14,37 17,62"/>
  <path class="fil0 str0" d="M120 127c15,-7 22,4 20,15 0,1 0,1 -1,1 -4,-1 -16,1 -18,-2 -3,-3 -3,-8 -2,-12"/>
  <path class="fil0 str0" d="M140 108c0,-2 -3,-2 -4,0 -3,1 -4,5 -4,10 4,0 17,-7 8,-12"/>
  <path class="fil0 str0" d="M113 108c5,1 6,5 7,8 -1,0 -13,-2 -8,-7"/>
 </g>
</svg>
