<?xml version="1.0" encoding="utf-8"?>
<!-- Generator: Adobe Illustrator 19.0.0, SVG Export Plug-In . SVG Version: 6.00 Build 0)  -->
<svg version="1.1" id="Layer_1" xmlns="http://www.w3.org/2000/svg" xmlns:xlink="http://www.w3.org/1999/xlink" x="0px" y="0px"
	 viewBox="-55 147 500 500" style="enable-background:new -55 147 500 500;" xml:space="preserve">
<style type="text/css">
	.st0{fill:none;stroke:#000000;stroke-width:1.0001;}
</style>
<g id="Layer_x0020_1">
	<path class="st0" d="M262,179c-3,11-5,22-7,33c-2,9-3,19,4,24c7,4,19,2,21,9c-1,23-3,46-9,68c-1,3-2,7-4,9c-3,2-7,1-11,1L85,296
		c-9-2-19-3-27,0c-10,3-17,12-23,20s-12,16-18,23c-2,3-4,6-4,10c-1,3,1,7,3,10c5,11,11,22,17,33c7,14,15,30,11,45s-16,26-20,40
		c-3,11,0,23,2,34c4,22,5,44,7,66c0,3,0,7-1,9c-3,6-11,9-10,14c7,2,13,3,20,4c-6-31-8-63-7-95c0-5,0-9,1-14c1-6,4-11,6-16
		c7-15,13-29,20-43c5,1,9,6,10,12c0,6-2,11-5,17c-5,11-10,23-15,35c-2,5-5,10-5,16c0,5,1,10,2,14c4,12,8,24,13,35c6,12,12,24,14,37
		c2,6,2,13,4,19c3,6,10,11,16,9c-1-7-1-13-2-20c2,3,6,6,10,5c-14-17-27-35-35-55c-8-21-8-45,3-63c32-13,51.6-51.4,55.4-50.3
		c11.7-2,94.6,18.3,135.6,13.3c-4,50-11,100-18,151c-1,8-1,20,8,23c8,2,8.7-17.4,9-16c2.4,3.2,5.3,8.4,7.1,9
		c1.8,0.6,3.6,0.3,3.4-1.5c-0.2-1.7-1-3.8-1.5-5.3c0-0.1-0.1-0.2-0.1-0.3c-8.9-16-10.9-35.9-10.9-53.9c0-34,4-69,12-102
		c4-3,10,0,12,3c2,4,3,9,3,14c1,52.8,3,105.5,4,158.3c0,0.5,0.2,1,0.6,1.4c4.2,4.1,11.6,1.2,16.4-2.7l8-6c-6-39-11-77-16-116
		c-3-22-5-46,2-66c15-1,33-4,40-17c3-5,4-10,5-15c2-14,5-29,3-43c-2-17-10-32-14-48c-9-32-2-68-14-100c22-1,37-26,36-48
		c0-6,0-12-2-18c0-2-2-4-4-4c-1,0-2,1-3,2c-18,19-29,40-41,63c-15-2-15-5-21-18C286,201,262,176,262,179z"/>
	<path class="st0" d="M290,241c-1,1-2,0-1-1c1,0,1,0,2,0c4,2,8,5,11,8c0,3-2,5-4,6c-3,1-6,1-8-1s-2-6-2-9"/>
	<path class="st0" d="M318,241c-1,0-2,1-3,3c-2,2-4,7-1,9c3,1,6-2,6-5c0-2-2-5-3-7"/>
</g>
</svg>
