<?xml version="1.0" encoding="utf-8"?>
<!-- Generator: Adobe Illustrator 19.0.0, SVG Export Plug-In . SVG Version: 6.00 Build 0)  -->
<svg version="1.1" id="Layer_1" xmlns="http://www.w3.org/2000/svg" xmlns:xlink="http://www.w3.org/1999/xlink" x="0px" y="0px"
	 viewBox="-55 147 500 500" style="enable-background:new -55 147 500 500;" xml:space="preserve">
<style type="text/css">
	.st0{fill:none;stroke:#000000;stroke-width:1.0001;}
</style>
<g id="Layer_x0020_1">
	<path class="st0" d="M128,298c-12-3-24-8-36-6c-13,4-22,15-30,26c-3,5-6,9-10,14c-1,2-3,5-4,8c-3,7-1,15,1,22c4,24,5,48,1,72
		c-2,16-6,31-9,47c-4,25.9-2,53.8-8.9,79.8c-0.1,0.3,0.2,0.6,0.5,0.5c4.4-2.2,11.9,4.7,7,3.3c-0.9-0.3-1.8,0.4-1.9,1.3
		c-0.3,5.3,2.7,9.4,7.2,12.1c0,0,0.1,0,0.1,0.1c4,4,10,6,16,8c8.5,2.8,17.1,5.7,24.8,2.6c0.8-0.3,1.3-1.1,1.3-1.9
		c-0.1-17.2-21.2-27.1-28-43.7c-3-7-3-95,20-120c13,12,13,32,13,50c-1,15.7-1,46.8-1,48c0,0,0,0,0,0.1c-1,16.7-1,35.4,7.6,50.3
		c0.3,0.4,0.7,0.8,1.2,0.9c12.3,3.5,24.6,6.2,36.2,9.6c1.6,0.5,3-1.1,2.3-2.7l-7.3-17.1c0,0,0-0.1-0.1-0.1c-1-2.9-2-4.9-4.8-6.8
		c-0.1-0.1-0.2-0.1-0.3-0.2c-1.9-0.9-3.9-0.9-5.8-1.9c-3.8-1.9-5.8-11.2-6-12c0,0,0-0.1,0-0.1c-0.2-1.7-6-49.1-4-58.9
		c2-18,15-34,16-53c32,16,69,19,102,8c-11,13-21,26-27,41c-4,12-15.8,85.2-24.6,107.9c-0.2,0.5,0.3,1.1,0.9,0.9
		c3.3-0.9,7.1-4.1,10.7-6.8c0,0,0.1,0,0.1-0.1c2-2,2.9-4.9,3-7.9c0,0,0-0.1,0-0.1c4-26,16-51,27-76c9-18,17-36,26-55c2,1,3,4,3,7
		c0,45.8,0,91.7-1,137.5c0,0.3,0.2,0.5,0.4,0.7c8.7,3.8,18.3,5.7,27.9,6.7c0.4,0,0.7-0.2,0.8-0.6c1.4-9.7-9.2-16.5-11.1-25.3
		c-2-5-1-11-1-16c0,0,0-0.1,0-0.1c5-38,7-77,6-116c1-6,9-6,14-9c4-4,5-10,6-15c2-14,8-26,16-37c4,14,6,30,4,45c9-8,2-26,10-35
		c7-9,20-7,29-12c-1-9-1-19-2-29c5,8,11,15,19,18c8,4,19,3,25-4c6-8,4-19,1-28c-2-8-5-17-10-24c-15-21-44-25-70-26c13-17,43-2,59-16
		c6-5,9-12,10-20c2-14,0-29-6-41c1,13,0,26-2,40c-1,5-6,13-11,10c0-13-3-25-9-37c-3,9-5,17-8,25c-2-1-5,0-6,1c-3-16-6-31-8-47
		c-3,10-6,19-9,29c-1,5-4,11-9,10c-5,0-7-5-9-9l-9-27c-1,11-2,22-4,32c0,4-1,8-5,8c-2,1-4-2-6-3c-7-9-14-18-22-27c7,17,15,32,26,46
		c-5-1-9,3-11,7c-2,5-2,10-2,14c-6-5-15-7-22-4c11-16,15-37,9-56c-1,18-4,36-8,53c-14-5-20-21-22-35s-3-30-13-41c-9,38,10,81,45,99
		c-12-1-25-3-37-4c-4-1-8-1-12,0c-7,2-12,9-19,12c-5,1-10,1-15,1C160,299,145,302,128,298z"/>
	<path class="st0" d="M298,294c-1,0-2-2-2-3c-4,0-7,5-8,9c0,4,1,9,5,10c2,0,4-1,5-3s1-4,2-6C300,298,300,295,298,294"/>
</g>
</svg>
