<?xml version="1.0" encoding="UTF-8"?>
<!DOCTYPE svg PUBLIC "-//W3C//DTD SVG 1.1//EN" "http://www.w3.org/Graphics/SVG/1.1/DTD/svg11.dtd">
<!-- Creator: CorelDRAW X8 -->
<svg xmlns="http://www.w3.org/2000/svg" xml:space="preserve" width="500px" height="500px" version="1.1" style="shape-rendering:geometricPrecision; text-rendering:geometricPrecision; image-rendering:optimizeQuality; fill-rule:evenodd; clip-rule:evenodd"
viewBox="0 0 500 500"
 xmlns:xlink="http://www.w3.org/1999/xlink">
 <defs>
  <style type="text/css">
   <![CDATA[
    .str0 {stroke:black;stroke-width:1.00006}
    .fil0 {fill:none;fill-rule:nonzero}
   ]]>
  </style>
 </defs>
 <g id="Layer_x0020_1">
  <metadata id="CorelCorpID_0Corel-Layer"/>
  <path class="fil0 str0" d="M183 151c-12,-3 -24,-8 -36,-6 -13,4 -22,15 -30,26 -3,5 -6,9 -10,14 -1,2 -3,5 -4,8 -3,7 -1,15 1,22 4,24 5,48 1,72 -2,16 -6,31 -9,47 -4,26 -2,54 -9,80 8,3 15,6 23,9 -5,-2 -11,-5 -17,-7 -1,6 2,12 7,15 4,4 10,6 16,8 9,3 18,6 26,2 1,-18 -21,-28 -28,-45 -3,-7 -3,-16 -3,-24 -1,-34 0,-71 23,-96 13,12 13,32 13,50 -1,16 -1,32 -1,48 -1,17 -1,36 8,51 14,4 28,7 41,11 -3,-7 -6,-14 -9,-21 -1,-3 -2,-5 -5,-7 -2,-1 -4,-1 -6,-2 -4,-2 -5,-7 -6,-12 -1,-10 -2,-20 -3,-30 -2,-10 -3,-19 -1,-29 2,-18 15,-34 16,-53 32,16 69,19 102,8 -11,13 -21,26 -27,41 -4,12 -5,24 -6,37 -3,24 -10,49 -19,72 -1,-5 8,-4 12,-7 2,-2 3,-5 3,-8 4,-26 16,-51 27,-76 9,-18 17,-36 26,-55 2,1 3,4 3,7 0,46 0,92 -1,138 9,4 19,6 29,7 2,-10 -9,-17 -11,-26 -2,-5 -1,-11 -1,-16 5,-38 7,-77 6,-116 1,-6 9,-6 14,-9 4,-4 5,-10 6,-15 2,-14 8,-26 16,-37 4,14 6,30 4,45 9,-8 2,-26 10,-35 7,-9 20,-7 29,-12 -1,-9 -1,-19 -2,-29 5,8 11,15 19,18 8,4 19,3 25,-4 6,-8 4,-19 1,-28 -2,-8 -5,-17 -10,-24 -15,-21 -44,-25 -70,-26 13,-17 43,-2 59,-16 6,-5 9,-12 10,-20 2,-14 0,-29 -6,-41 1,13 0,26 -2,40 -1,5 -6,13 -11,10 0,-13 -3,-25 -9,-37 -3,9 -5,17 -8,25 -2,-1 -5,0 -6,1 -3,-16 -6,-31 -8,-47 -3,10 -6,19 -9,29 -1,5 -4,11 -9,10 -5,0 -7,-5 -9,-9 -3,-9 -6,-18 -9,-27 -1,11 -2,22 -4,32 0,4 -1,8 -5,8 -2,1 -4,-2 -6,-3 -7,-9 -14,-18 -22,-27 7,17 15,32 26,46 -5,-1 -9,3 -11,7 -2,5 -2,10 -2,14 -6,-5 -15,-7 -22,-4 11,-16 15,-37 9,-56 -1,18 -4,36 -8,53 -14,-5 -20,-21 -22,-35 -2,-14 -3,-30 -13,-41 -9,38 10,81 45,99 -12,-1 -25,-3 -37,-4 -4,-1 -8,-1 -12,0 -7,2 -12,9 -19,12 -5,1 -10,1 -15,1 -16,0 -31,3 -48,-1z"/>
  <path class="fil0 str0" d="M353 147c-1,0 -2,-2 -2,-3 -4,0 -7,5 -8,9 0,4 1,9 5,10 2,0 4,-1 5,-3 1,-2 1,-4 2,-6 0,-3 0,-6 -2,-7"/>
 </g>
</svg>
