<?xml version="1.0" encoding="utf-8"?>
<!-- Generator: Adobe Illustrator 19.0.0, SVG Export Plug-In . SVG Version: 6.00 Build 0)  -->
<svg version="1.1" id="Layer_1" xmlns="http://www.w3.org/2000/svg" xmlns:xlink="http://www.w3.org/1999/xlink" x="0px" y="0px"
	 viewBox="-55 147 500 500" style="enable-background:new -55 147 500 500;" xml:space="preserve">
<style type="text/css">
	.st0{fill:none;stroke:#000000;stroke-width:1.0001;}
</style>
<g id="Layer_x0020_1">
	<path class="st0" d="M51,244c-5-8-11-15-16-22c-3-3-7-7-10-5c6,12-2,26-1,39c0,3,1,7,0,9s-3,3-4,5c-9,9-13,23-9,35
		c-9,10-17,21-24,31c-2,2-3,5-3,7c1,2,2,4,4,5c3,3,6,6,10,8c2,2,5,5,8,5s6-1,8-2c10-5,19-10,28-14c9,32,36,58,69,65c3,1,7,2,9,4
		c2,3,2,6,2,9c1,19,0,37-2,55c-1,12-4,26-14,31c-5,3-11,3-17,6c-5,2-9,9-6,14c-4,0-7,4-7,8c5-3,11-4,17-2c-4,5-7,11-7,18l16-8
		c0,3,0,5,0,8c6-5,13-9,20-11c4-1,8-1,11-3c3-1,6-4,7-6c4-6,3-14,2-20c-2-10-4-21-3-31c1-20,14-40,10-59c35,12,79-5,97-38
		c8,7,15,14,23,21c1,1,2,2,4,2c1,0,2-2,1-3"/>
	<path class="st0" d="M271,410c9,9,20,19,23,32c2,8,2,17,1,26l-3.9,39.2c0,0.4-0.4,0.7-0.8,0.6c-8.3-1.3-15.5,6.6-14.5,14.1
		c0.1,0.5,0.6,0.8,1.1,0.5c0.8-0.5,1.6-0.9,2.4-1.3c0.7-0.4,1.4,0.6,0.8,1.1c-3,2.8-5.9,5.9-8.5,9c-0.3,0.4-0.1,1,0.3,1.1
		c4,1.3,12,0.9,13.2,1.3c0.2,0.1,0.4,0.1,0.6,0c8.8-3.8,17.5-6.8,25.3-10.7c0,0,0,0,0.1,0c3-1,8-3,7-7c0-2-6-26-3-36c3-15,4-30,2-45
		c18,16,29,41,27,65c-1,9-4,19-13,21c-3,1-7,1-10.9,1c0,0-0.1,0-0.1,0c-7.5,1-14.2,6.4-16.6,13.7c-0.2,0.6,0.3,1.1,0.9,0.9
		c5-1.7,9.9-3.3,14.9-4.2c0.6-0.1,1.1,0.6,0.7,1.1c-3.2,4.2-5.6,8.4-7.4,13.2c-0.2,0.5,0.3,1.1,0.9,0.9c9.4-2.7,18.8-4.6,28.3-5.6
		c0.3,0,0.5-0.2,0.6-0.4c10.9-25.9,16.8-53.8,18.8-81.6c1-5,1-11-1-16c-2-4-7-8-10-11c-20-20-22-51-23-80c11,15,7,36,11,54
		c6,22,25,39,29,61c6-14,9-29,9-45c0-12-2-25-4-37c-5-26-10-52-11-78c0-7,1-14-3-20c-3-6-9-10-15-14c-12-7-23-13-36-16
		c-11-2-21-2-32-2c-42,2-84,3-125,5c-15,0-30,0-44-5c-2-13-6-26-13-38c-11,11-18,27-17,43c-4-9-13-15-23-15"/>
	<path class="st0" d="M93,533l22-17c2-1,4-2,5-4s2-4,2-6c7-24,14-49,12-75"/>
	<path class="st0" d="M54,289c2,0,4,0,6,1c3.2,0.8,5.9,2.2,8.9,3.8c0.6,0.3,0.4,1.2-0.2,1.3c-6.4,1-10.6,8.1-17.7,9
		C32,307,44,290,54,289z"/>
	<path class="st0" d="M16,299c3-4,4-8,3-12c-2,2-4,5-6,8c0,1,0,2,0,3s1,1,2,1"/>
</g>
</svg>
