<?xml version="1.0" encoding="utf-8"?>
<!-- Generator: Adobe Illustrator 19.0.0, SVG Export Plug-In . SVG Version: 6.00 Build 0)  -->
<svg version="1.1" id="Layer_1" xmlns="http://www.w3.org/2000/svg" xmlns:xlink="http://www.w3.org/1999/xlink" x="0px" y="0px"
	 viewBox="-55 147 500 500" style="enable-background:new -55 147 500 500;" xml:space="preserve">
<style type="text/css">
	.st0{fill:none;stroke:#000000;stroke-width:1.0001;}
</style>
<g id="Layer_x0020_1">
	<path class="st0" d="M105,279c-11.1,11.1-18.6,28.5-24.8,42.7c-3.2,7.3-5.8,14.8-7.2,22.6c-1.2,6.6-8.5,30.9-12.4,35.2
		c-5.4,5.9-8.4,12.8-10.9,20.3c-5,15-7.5,30.5-8.3,46.2c-0.8,15.2-0.1,30.5,1.1,45.6c1.1,13.7-0.3,35.4,7.6,47.2
		c10.9,15.3,39.2,23.7,57,21c5-1,10-3,13-7c10.3-12.8-6.2-27.7-13-37c-9.9-13.6-13.5-31-15.6-47.3c-2.4-18.3-4.9-36.6-6.9-54.9
		c-0.8-7.6-1.2-14.3,0-21.8c0.5-3.4,2.3-9.1,0.7-12.9c-0.5-1.2,0.5-2.5,1.8-2.4c9.6,0.9,19.2-0.2,28.1-3.8c1.1-0.4,2.4,0.3,2.5,1.4
		c1.2,9.4-10.6,18.2-10.7,27.6c0,1.3,0.8,2.5,2,3c4.3,1.8,14.8,5.2,17.2,5.6c8.1,1.3,16.2,3.1,24.1,5.3c15.2,4.2,30,10.1,44.1,17.2
		c0.8,0.4,1.6-0.3,1.4-1.2c-2.2-7.7-19-14.9-18.6-15.9c5.6,0,13.9,6.9,21.3,8.3c2.1,0.4,3.9-1.3,3.6-3.4c-0.1-1.1-0.2-2.3-0.1-3.2
		c0.2-1.3-0.5-2.6-1.7-3.3c-9.9-5.8-18.9-13.2-26.2-21.4c27.8-6,56.6-11.9,80.5-27.7c0.3-0.2,0.6-0.1,0.8,0.2
		c2.9,5.5,4.8,11.7,5.1,18c0.2,4.3-3.5,12.4-0.4,15.5c4.6,2.3,11.3,1,16.3,2.3c5.5,1.5,10.9,4.1,15.1,8.1c0.3,0.2,0.7,0.1,0.7-0.3
		c0.5-4.8-1.8-9-3.5-13.4c-0.2-0.4,0.4-0.8,0.7-0.5c3.4,3.4,5.9,7.7,10.3,9.6c0.2,0.1,0.5,0,0.6-0.2c1.7-3,0.7-6.7-1.2-8.7
		c-4-6.1-12.7-9-17.6-14.7c-5.1-5.8-9-12.7-11.1-20.2c-0.1-0.4,0.3-0.8,0.8-0.7c9,3.8,16.4,9.2,23.7,15.5c0.4,0.3,1,0,0.9-0.5
		c-1.8-6.5-9.3-12-11.2-16c-0.2-0.5,0.3-1,0.8-0.7c7.6,4.3,13.9,12,22.9,16c0.4,0.2,0.8-0.2,0.7-0.6c-1.2-5.8-5.7-13.1-7.3-16.7
		c-0.2-0.5,0.3-0.9,0.7-0.7c4.3,2.4,9.2,7.4,14.7,8.4c-4.9-10.7-15.4-19.5-27.1-21.8c-0.6-0.1-1-0.6-1.1-1.2
		c-0.8-4.9-0.5-11.1,4.2-13c4-2,11.5-0.1,16.2-1.7c5.5-1.8,10.6-5,14.8-8.9c8.4-8,13.6-19.7,11.9-31.4c-7-21.1-36.5-21.2-55.1-24.5
		c-8.8-1.6-18.9-3.1-27.9-2.5c-10.6,0.7-21.1,4.4-31.7,5.9c-11.1,1.5-21.6,1.9-32.5-0.8c-9.4-2.4-17.8-5-27.6-5.2
		C141,259.6,119.8,264.2,105,279z"/>
	<path class="st0" d="M297,282c2-2-3.1-4.9-5-3c-3,2-4,6-2,8c2,3,5,4,8,2c2-1,3-4,2-6c0-2-3-4-5-3"/>
	<path class="st0" d="M278,274c-4-2-9-4-13-5c-5,0-10,2-13,6c-5.1,7.7,4.3,17.1,12,12"/>
	<path class="st0" d="M326,290c-1,0-1,3,0,3c3.1,1.6,4.4-5,0-5"/>
</g>
</svg>
