<?xml version="1.0" encoding="utf-8"?>
<!-- Generator: Adobe Illustrator 19.0.0, SVG Export Plug-In . SVG Version: 6.00 Build 0)  -->
<svg version="1.1" id="Layer_1" xmlns="http://www.w3.org/2000/svg" xmlns:xlink="http://www.w3.org/1999/xlink" x="0px" y="0px"
	 viewBox="-55 147 500 500" style="enable-background:new -55 147 500 500;" xml:space="preserve">
<style type="text/css">
	.st0{fill:none;stroke:#000000;stroke-width:1.0001;}
</style>
<g id="Layer_x0020_1">
	<path class="st0" d="M-38,375c-3,2-6,5-7,9c0,2,2,5,4,6c14.3,16.7,41.9-0.8,59-2.4c23.5-2.2,46.1,7.2,67.5,15.8
		c1,0.4,1.8,1.1,2.3,2c5.3,8.8,12.9,22.4,2.3,30.5c-0.1,0.1-0.2,0.1-0.3,0.2c-1.2,0.6-0.9,3.2-0.8,4.9c0,0.5-0.4,0.8-0.8,0.7
		c-3.3-1-6.5-0.3-8.8,1.8c-1.3,1.2-0.4,3.5,1.4,3.5H89c1.1,0,3.8,5.3,5.1,4.5c10.7-7.1,9.8-27.3,19.9-36.5c9.8-7.3,29.2-9.4,41-10.1
		c13.3-0.8,26.8,2.7,37.2,11.4c0.5,0.4,0.7,1.1,0.5,1.7c-3.7,12-11.9,21.7-22.6,27.2c-1.4,0.7-1.1,2.7,0.4,3
		c2.8,0.5,5.5,0.5,8.3-0.1c1.2-0.2,2.3,1,1.7,2.2c-0.7,1.4-0.8,2.9-0.3,4.3c0.3,0.8,1.2,1.3,2,1c30.2-10.5,58.9-35.1,66.3-67.7
		c0-0.2,0.3-0.2,0.4,0c1.1,6.5,14,13.7,19,17.2c7.5,5.2,14.8,10.6,22.8,15.1c15.6,8.8,36.6,16.5,53.2,5.9
		c9.4-4.7,15.1-13.9,22.7-20.8c8.3-7.5,18.7-12.1,28.9-16.6c18.4-8.2,41.6-18.9,44.4-41.6c-22.4,12.3-43.4,27-65.8,39.4
		c-19.7,10.9-43.2,23-66.2,15.6c-56.9-15-53-117.5-119-114c-22.1,0-43,18.1-60.8,29.4c-16.5,10.5-33.2,22.4-52.4,27.4
		c-20.1,5.2-40.8,2.4-61.2,3.7C-7.1,349.8-20.8,363.5-38,375z"/>
	<path class="st0" d="M77,404L77,404c1.8,6.3,2.8,12.6,4.4,18.9c0.3,1.1-0.3,2.2-1.4,2.5c-5.1,1.4-9.6,5.3-13,9.2
		c-1.1,1.2-0.4,3.2,1.2,3.4c3.2,0.4,7.8-3.7,8.8-3.9c0.5,1.7-1.3,2.5-2.3,3.2c-0.4,0.3-0.2,0.9,0.3,0.9c3.9,0.5,7.4-2.4,11.1-5.2"/>
	<path class="st0" d="M252,397L252,397c5,6.2,10.8,24.8,1.2,29.9c-0.1,0.1-0.2,0.1-0.3,0.2c-4.5,4.4-38.7,9.5-39.9,11.9"/>
	<path class="st0" d="M-16,371c4-4,11-5,16-3c-3,4-9,5-14,2"/>
	<path class="st0" d="M10,357c-1,0,0-1,1-2c4.5,0,8.6-2.2,13,0c2,2-4,10-6,11"/>
	<path class="st0" d="M-44,383c2,0,5,0,6,3c1,1-2,4-3,3"/>
	<path class="st0" d="M-26,388c5,10,11,20,17,30"/>
	<path class="st0" d="M-20,391c7,8,14,15,20,23"/>
	<path class="st0" d="M-12,385c7,6,14,13,22,19"/>
	<path class="st0" d="M-40,394c-5.2,5.2-9,12-11,19"/>
	<path class="st0" d="M-33,399c-2,3-3,8-4,12"/>
</g>
</svg>
