<?xml version="1.0" encoding="utf-8"?>
<!-- Generator: Adobe Illustrator 19.0.0, SVG Export Plug-In . SVG Version: 6.00 Build 0)  -->
<svg version="1.1" id="Layer_1" xmlns="http://www.w3.org/2000/svg" xmlns:xlink="http://www.w3.org/1999/xlink" x="0px" y="0px"
	 viewBox="-55 147 500 500" style="enable-background:new -55 147 500 500;" xml:space="preserve">
<style type="text/css">
	.st0{fill:none;stroke:#000000;stroke-width:1.0001;}
</style>
<g id="Layer_x0020_1">
	<path class="st0" d="M230,280l-10,10c-1.6,1.6,5.9,5.7,8.6,6c0.9,0.1,1.5,0.7,1.6,1.6c2.1,18.5,16.1,34.5,14.2,53.6
		c-0.5,4.9-2.7,9.3-3.3,14.1c-0.7,4.9,1.3,8.7,2.4,13.4c2.7,11.7,1.5,23-1.3,34.6c-0.1,0.5-0.5,0.9-1,1.1c-1.5,0.5-3.3,0.5-4.4-0.4
		c-0.6-0.5-1.5-0.3-2,0.3c-0.1,0.1-0.2,0.3-0.3,0.4c-0.5,0.7-1.4,0.8-2.1,0.3c-12.5-9.3-9.5-32-23.5-39c-4-3-9-3-12-1
		c-15.7,9,6.6,31.4,6.1,43.3c0,0.4-0.3,0.7-0.7,0.8c-4.2,0.6-8.3-0.9-11.2-4.5c-0.4-0.5-1.3-0.3-1.4,0.3c-0.2,0.8-0.5,1.5-0.9,2.3
		c-0.3,0.7-1.2,0.6-1.5,0c-9.6-22.1-39.3-29.2-39.3-56.3"/>
	<path class="st0" d="M191,244c-6.8,7.8-9.1,17.9-12.9,27.2c-4,9.7-10.9,18-16.7,26.7c-12.8,19.2-16.7,38.4-18,61.1
		c-1.4,24-1.3,47.8-4.4,71.6c-1.7,12.6-2.7,25.3-0.3,37.9c2.1,11.2,7.2,23.1,3.4,34.5"/>
	<path class="st0" d="M206,224c9.1-3.9,24.1-7.2,33.8-4.2c3,0.9,5.9,2.4,8.8,3.9c1.7,0.9,3.9,0.3,4.7-1.5c0.6-1.4,1.8-2.8,3.3-3.8
		c0.3-0.2,0.6-0.4,1-0.5c1.4-0.4,2.7-0.6,4.1-0.7c2.2-0.2,4,1.8,3.6,4c-1.6,7.6-3.7,15.9,0.8,21.8c6.2,8,8.9,15.9,10,26
		c-2-1-5-1-7,1c-2.1,4.3,2.3,5.4,5.5,4.9c0.4-0.1,0.7,0.5,0.3,0.8c-18.7,13.5-46.2,1.9-65.9-2.7"/>
	<path class="st0" d="M220,230c0.5,0,1.1-0.6,1.5-1.3c0.5-0.8,0.1-1.9-0.8-2.2c-8.7-3.4-18.9-3.3-27.4,0.4c-0.2,0.1-0.3,0.1-0.5,0.1
		c-7.4,0.5-0.7,19,1.8,23.3c0.2,0.4,0.6,0.6,1,0.8"/>
	<path class="st0" d="M234,248c0-7.3-12.9-2.7-9,5c0.9,3.5,4.1,5.5,7.6,6.6c0.8,0.3,1.7-0.2,2-1c1.4-3.7,1.1-8-1.6-10.7"/>
	<path class="st0" d="M219,401c-1.7,20.2-3.1,40.4-4,60.6c-0.4,10.1-0.7,20.2-0.9,30.3c-0.1,4.5,0.7,11.8-0.4,16.1"/>
	<path class="st0" d="M214,508c-5.6,3.7-10.3,8.3-14.2,13.8c-0.4,0.6-0.1,1.4,0.6,1.6c5.7,1.2,12-1.1,16.6,1.6
		c3.4,1.7,5.3,5.5,5.3,9c0,0.8-1,1.3-1.6,0.8c-1.9-1.5-4.2-2.8-6.6-2.8c-1.5,0.5,6.1,3.9,7.4,7.2c0.3,0.7-0.2,1.4-0.9,1.4
		c-1.5-0.1-3.2,0.6-4.1,1.8c-0.3,0.3-0.7,0.5-1.1,0.3c-9.4-3-30.3-15.7-38.3-5.8c-6.9,7.9,3.8,19.8,1.1,29.7c0,0.2-0.1,0.3-0.3,0.5
		L177,568c-2,2-5-1-5-4c-0.9-6.4-1.8-12-3.5-18.3c-0.2-0.7-1.1-1-1.7-0.4c-4.2,4.2-8.5,8.3-14.1,11.8c-0.7,0.5-1.7-0.1-1.5-1
		c0.6-4.3,2.7-8,1.9-8c-2-13-5-26-9-39c-0.2,0.7,0.5,8.3,1.6,12.5c0.4,1.4-1.2,2.6-2.4,1.8c-14-8.5-33.5-5.1-47.2-14.3
		c-8.7-6.2-13.4-17.3-17.8-26.7c-4.6-10-9.6-22.6-4.2-33.3c4.6-11.6,17.4-16.9,22.8-28c5.5-11.2,6.5-24.5,15.2-34
		c13,11.1,11.5,31,11.1,46.2c-0.4,16.3,5.9,33.7,16.9,45.8"/>
</g>
</svg>
