<?xml version="1.0" encoding="UTF-8"?>
<!DOCTYPE svg PUBLIC "-//W3C//DTD SVG 1.1//EN" "http://www.w3.org/Graphics/SVG/1.1/DTD/svg11.dtd">
<!-- Creator: CorelDRAW X8 -->
<svg xmlns="http://www.w3.org/2000/svg" xml:space="preserve" width="500px" height="500px" version="1.1" style="shape-rendering:geometricPrecision; text-rendering:geometricPrecision; image-rendering:optimizeQuality; fill-rule:evenodd; clip-rule:evenodd"
viewBox="0 0 500 500"
 xmlns:xlink="http://www.w3.org/1999/xlink">
 <defs>
  <style type="text/css">
   <![CDATA[
    .str0 {stroke:black;stroke-width:1.00006}
    .fil0 {fill:none;fill-rule:nonzero}
   ]]>
  </style>
 </defs>
 <g id="Layer_x0020_1">
  <metadata id="CorelCorpID_0Corel-Layer"/>
  <path class="fil0 str0" d="M285 133l-10 10c1,-2 4,1 5,3 1,2 4,4 5,2 1,20 18,39 14,59 -1,6 -4,11 -3,17 1,2 2,4 2,6 4,12 2,25 -1,37 -2,1 -5,1 -6,-1 -1,1 -2,2 -2,3 -10,-6 -12,-20 -17,-30 -2,-4 -4,-8 -8,-10 -4,-3 -9,-3 -12,-1 -7,4 -6,15 -2,22 4,7 9,14 8,22 -5,1 -10,-1 -13,-6 0,2 -1,4 -2,6 -3,-8 -9,-15 -15,-20 -5,-5 -11,-9 -16,-14 -6,-7 -9,-15 -9,-24"/>
  <path class="fil0 str0" d="M246 97c-7,8 -10,20 -14,30 -7,13 -17,24 -24,38 -6,11 -8,25 -9,38 -2,24 -1,49 -4,73 -2,14 -4,28 -2,42 2,13 8,26 4,38"/>
  <path class="fil0 str0" d="M261 77c7,-3 16,-4 24,-5 2,0 4,-1 6,0 2,0 3,1 5,1l12 6c-1,-3 1,-6 4,-8 3,-1 6,-1 9,-1 -1,6 -2,13 -3,19 0,1 0,2 0,3 0,2 2,3 3,4 7,7 9,17 10,26 -2,-1 -5,-1 -7,1 -1,2 0,6 2,7 2,1 5,-1 6,-3 -5,5 -12,8 -20,9 -6,0 -12,-1 -18,-3l-30 -7"/>
  <path class="fil0 str0" d="M275 83c1,0 2,-2 2,-3 -9,-4 -20,-4 -29,0 -1,0 -2,1 -2,2 -1,0 -1,2 -1,3 -1,7 1,14 5,19 1,0 2,1 2,0"/>
  <path class="fil0 str0" d="M289 101c0,-2 -2,-4 -4,-4 -4,0 -7,5 -5,9 1,4 5,6 9,7 2,-4 2,-9 -1,-12"/>
  <path class="fil0 str0" d="M274 254c-3,35 -5,71 -5,106 0,1 -1,1 -1,2 -1,0 -1,1 -1,2 1,0 2,-1 1,-1"/>
  <path class="fil0 str0" d="M269 361c-6,4 -11,9 -15,15 6,2 13,-1 18,2 4,2 6,7 5,11 -2,-2 -5,-4 -8,-4 4,1 7,5 8,9 -2,-1 -5,0 -6,2 -7,-2 -13,-5 -20,-7 -6,-3 -15,-4 -19,1 -7,8 4,20 1,30 0,0 -1,1 -1,1 -2,2 -5,-1 -5,-4 -1,-7 -2,-13 -4,-20 -5,5 -10,10 -17,14 0,-5 1,-10 5,-14 0,2 -2,4 -3,4 -2,-13 -5,-26 -9,-39 0,6 1,11 3,17 -14,-12 -36,-7 -51,-17 -7,-5 -11,-13 -15,-21 -6,-12 -13,-27 -7,-39 4,-10 14,-15 20,-23 8,-12 8,-28 18,-39 7,6 10,16 11,25 1,9 0,18 0,27 2,15 7,29 17,40"/>
 </g>
</svg>
