<?xml version="1.0" encoding="utf-8"?>
<!-- Generator: Adobe Illustrator 19.0.0, SVG Export Plug-In . SVG Version: 6.00 Build 0)  -->
<svg version="1.1" id="Layer_1" xmlns="http://www.w3.org/2000/svg" xmlns:xlink="http://www.w3.org/1999/xlink" x="0px" y="0px"
	 viewBox="-55 147 500 500" style="enable-background:new -55 147 500 500;" xml:space="preserve">
<style type="text/css">
	.st0{fill:none;stroke:#000000;stroke-width:1.0001;}
</style>
<g id="Layer_x0020_1">
	<path class="st0" d="M335,423c1,4,4,7,7,11c5,6,6,15,9,22c3,9,8,16,13,23c24,40,25,90,25,137c-12-14-24-28-37-42c-6-7-14-15-24-16
		c-14-3-27,6-38,15c-2-19-6-40-21-51c-18-13-42-6-62,1c7-9-2-22-10-30s-18-16-29-15c-26,1-31,47-57,48c-9-11-10-27-10-42
		c0-24,2-49,7-73c1-5,3-11,2-16c-1-4-3-7-5-11c-11.7-21.5-35.8-39.2-60.2-35.3c-0.5,0.1-0.7-0.5-0.4-0.8C59,335.5,59.7,311.5,50,295
		c-10-17-28-28-46-36c13-23,0-57-25-66c38,0,76,4,113,13c7,2,14,4,18,10c3,5,3,11,3,16c1,30.6,1,61.1,2,91.7c0,0.4,0.6,0.6,0.8,0.3
		c2.4-3.3,4.2-5.9,6.7-9.3c0.2-0.3,0.7-0.2,0.8,0.1c2.6,6.7,2.5,14.2-1.1,20.8c-0.1,0.2,0,0.5,0.2,0.6c7.5,3.8,14.2,9.4,19.9,14.2
		c0.3,0.2,0.7,0.1,0.7-0.3c0.9-7.3,13.1-8.9,16.9-3.1c4.7,6.6,0.5,15-5,19.3c-0.3,0.2-0.2,0.7,0.1,0.8c3.4,1.2,12,9,12.9,9.9
		c4,4,8,13,12,15c7,3,20-4,28-3c13,1,27,8,39,11c14,4,28,8,41,11C304,415,320,419,335,423z"/>
	<path class="st0" d="M137,363c0.2-0.4-4,3-6,4s0,6,1,5C136,371,138,367,137,363"/>
	<path class="st0" d="M114,367L114,367c1,2,2,5,2,8c0,2.8-1.8,5.7-3.7,6.8c-0.2,0.1-8.3-5.8-10.1-8.7c-0.1-0.1-0.1-0.1-0.2-0.2
		c-0.7-0.8-4.9-6.2-4-9C102,354,110,360,114,367z"/>
</g>
</svg>
