<?xml version="1.0" encoding="utf-8"?>
<!-- Generator: Adobe Illustrator 19.0.0, SVG Export Plug-In . SVG Version: 6.00 Build 0)  -->
<svg version="1.1" id="Layer_1" xmlns="http://www.w3.org/2000/svg" xmlns:xlink="http://www.w3.org/1999/xlink" x="0px" y="0px"
	 viewBox="-55 147 500 500" style="enable-background:new -55 147 500 500;" xml:space="preserve">
<style type="text/css">
	.st0{fill:none;stroke:#000000;stroke-width:1.0001;}
</style>
<g id="Layer_x0020_1">
	<path class="st0" d="M230,258c-2-2-4-3-7-5c-18-8-38-14-58-12c-20,1-40,10-53,25c-4-4-9-2-13,1c-5,2-10,4-14,0c-12,6-23,13-33,22
		c11-1,23-2,34-3c-3,6,1,13,0,19c0,3-1,6-2,9c-8,21-15,43-23,64c10,0,20,7,24,16c2,6,2,12,2,18c-1,16-7,32-15,47c11,1,16,12,19,22
		c4,17,5,33,3,50c7,2,14,0,19-4c6-4,10-10,13-15c20-32,32-67,34-104c7,4,15,5,22,3c-5-3-10-5-15-7c-1,0-2-1-3-2s-1-3-1-5
		c2-12,4-23,3-35s-5-23-9-35c12-10,23-22,34-35"/>
	<path class="st0" d="M166,326c1-2,4-2,7-1c17,5,35,5,53,2c6-1,13-3,18-7c5-3,9-9,9-16c0-8-7-15-8-23c-1-7,1-13,2-19.9
		c0,0,0-0.1,0-0.1c0-5.6-0.9-13-6-16.4c-0.5-0.3-1.1,0-1.2,0.5c-0.8,6.2-0.8,12.3,0,18.5c0.1,0.6-0.5,1-1,0.8
		c-7-3.2-17.1-2-22.8,3.6c-5-5-11-9-17-12c-5,3-4,11-2,17c3.9,10.7,9.7,21.4,16.4,30.2c0.3,0.4,1,0.4,1.2,0c0.7-1.1,1.1-2.6,0.4-4.2
		"/>
	<path class="st0" d="M222,292c0-3-2.2-6.1-2.7-6.2c-1-1.9-6.4-0.8-6.4-0.7c-0.9,1-0.9,2.9-0.9,3.9c0,1,5.9,5,7.8,4.1
		c0.1-0.1,0.2-0.1,0.3-0.2c0.9-1.1,0.8-3.9-1.1-4.9"/>
	<path class="st0" d="M249,288c17,7,33,18,45,32c6,9,12,18,17,27c10,15,20,31,27,48c20,42,26,89,30,136c1,4,1,9-3,12c-5-2-9-6-12-11
		c-2-5-4-11-7-15c-5-8-13-14-21-17c-9-3-18-4-27-5c9-13,16-30,13-46c-1-6-4-13-8-18c-12-20-36-34-59-28c6-16,3-34-6-48
		c-10-14-26-24-43-25c-2,0-4,2-3,4"/>
	<path class="st0" d="M227,312c8.8,1,16.6-0.9,24.3-5.6c0.3-0.2,0.4-0.6,0.3-0.9c-0.3-0.8,0.5-1.7,1.3-2.5"/>
	<path class="st0" d="M244,299c-1,0,0-1,0-1l0.6,0.6c0.3,0.3,0.4,0.6,0.4,1c0.1,1.7,0.8,3.6,1.7,5.7c0.1,0.3,0,0.7-0.3,0.9
		c-0.2,0.1-0.4,0.4-0.4,0.8"/>
</g>
</svg>
