<?xml version="1.0" encoding="UTF-8"?>
<!DOCTYPE svg PUBLIC "-//W3C//DTD SVG 1.1//EN" "http://www.w3.org/Graphics/SVG/1.1/DTD/svg11.dtd">
<!-- Creator: CorelDRAW X8 -->
<svg xmlns="http://www.w3.org/2000/svg" xml:space="preserve" width="500px" height="500px" version="1.1" style="shape-rendering:geometricPrecision; text-rendering:geometricPrecision; image-rendering:optimizeQuality; fill-rule:evenodd; clip-rule:evenodd"
viewBox="0 0 500 500"
 xmlns:xlink="http://www.w3.org/1999/xlink">
 <defs>
  <style type="text/css">
   <![CDATA[
    .str0 {stroke:black;stroke-width:1.00006}
    .fil0 {fill:none;fill-rule:nonzero}
   ]]>
  </style>
 </defs>
 <g id="Layer_x0020_1">
  <metadata id="CorelCorpID_0Corel-Layer"/>
  <path class="fil0 str0" d="M163 52c11,5 20,14 29,23 33,34 59,80 51,126 8,-1 14,-6 22,-8 7,-3 18,0 18,8 3,-1 7,-2 11,-2 6,4 7,13 4,19 -2,7 -8,12 -14,15 -5,3 -10,6 -9,11 31,11 56,34 79,58 39,41 77,88 85,144 2,8 2,17 -1,25 -11,2 -20,-6 -30,-11 -20,-9 -43,-6 -65,-2 8,-16 6,-35 -4,-49 -10,-16 -29,-24 -47,-25 -19,0 -37,6 -53,16 -3,-18 -6,-36 -14,-52 -8,-16 -22,-29 -40,-32 -20,-3 -40,8 -56,21 -6,-13 -20,-21 -34,-20 8,-7 14,-16 16,-27 1,-6 1,-13 5,-17 3,-2 7,-3 10,-5 5,-4 6,-12 6,-19 -1,-15 -2,-31 -5,-47 -2,-14 -5,-28 -12,-41 -7,-12 -18,-23 -32,-27 10,-10 14,-26 11,-40 -4,-14 -13,-26 -25,-35 7,-14 -1,-31 -9,-44 1,2 11,4 13,5 5,2 10,6 14,9 6,5 12,12 19,15 19,6 38,-1 57,8z"/>
  <path class="fil0 str0" d="M145 65c2,-2 5,-1 7,0 20,7 36,22 51,37 11,10 21,22 24,36 4,26 -18,49 -20,75"/>
  <path class="fil0 str0" d="M81 135c43,-11 87,-16 132,-16 1,0 2,0 2,1 0,1 -1,2 -1,1"/>
  <path class="fil0 str0" d="M319 282c2,-1 3,-1 5,-2 -31,43 -65,83 -102,121"/>
  <path class="fil0 str0" d="M328 290c10,14 18,30 22,46 11,40 5,83 -2,123 -1,-1 -2,-2 -3,-4"/>
  <path class="fil0 str0" d="M151 294c38,0 76,-10 110,-27 5,-2 9,-5 9,-10"/>
  <path class="fil0 str0" d="M185 214c-3,-2 -8,0 -10,3 -13,11 -19,28 -24,44 -2,7 -5,15 -8,22"/>
  <path class="fil0 str0" d="M182 291c-7,13 -13,27 -17,42"/>
  <path class="fil0 str0" d="M153 272c0,0 0,-1 -1,-2 -13,-4 -27,-6 -40,-5 -7,0 -15,1 -22,-1 -1,0 -2,-1 -4,-1 -1,0 -3,1 -3,3"/>
  <path class="fil0 str0" d="M273 197c-4,-1 -9,0 -12,3 0,0 -1,0 -1,1 -1,1 0,2 1,3 2,2 6,2 8,0 2,-1 2,-5 0,-7"/>
  <path class="fil0 str0" d="M50 83c-1,-1 -2,-2 -2,-3 24,-9 49,-11 74,-12 -1,1 -1,2 -2,2"/>
 </g>
</svg>
