<?xml version="1.0" encoding="utf-8"?>
<!-- Generator: Adobe Illustrator 19.0.0, SVG Export Plug-In . SVG Version: 6.00 Build 0)  -->
<svg version="1.1" id="Layer_1" xmlns="http://www.w3.org/2000/svg" xmlns:xlink="http://www.w3.org/1999/xlink" x="0px" y="0px"
	 viewBox="-55 147 500 500" style="enable-background:new -55 147 500 500;" xml:space="preserve">
<style type="text/css">
	.st0{fill:none;stroke:#000000;stroke-width:1.0001;}
</style>
<g id="Layer_x0020_1">
	<path class="st0" d="M108,199c11,5,20,14,29,23c32.6,33.6,58.4,79,51.3,124.5c-0.1,0.8,0.5,1.4,1.3,1.3c7.2-1.4,13-5.9,20.4-7.8
		c6.6-2.8,16.8-0.3,17.9,6.7c0.1,0.7,0.7,1.1,1.4,0.9c2.7-0.8,6-1.5,9.3-1.6c0.2,0,0.5,0.1,0.7,0.2c5.7,4.1,6.6,12.8,3.7,18.7
		c0,0,0,0.1,0,0.1c-2,7-8,11.9-14,14.9c0,0,0,0-0.1,0c-4.7,2.8-9.5,5.7-9.1,10.2c0,0.4,0.3,0.8,0.7,1c30.7,11.1,55.5,33.9,78.4,57.8
		c39,41,77,88,85,144c0,0,0,0.1,0,0.1c1.9,7.8,2,16.5-0.8,24.3c-0.1,0.4-0.5,0.7-0.9,0.7c-10.7,1.6-19.5-6.2-29.3-11.1
		c-19.4-8.7-41.5-6.2-62.9-2.4c-0.9,0.2-1.6-0.7-1.2-1.5c6.9-15.6,4.7-33.7-4.9-47.1c-10-16-29-24-47-25c0,0-0.1,0-0.1,0
		c-18.4,0-35.9,5.7-51.6,15.1c-0.7,0.4-1.5,0-1.7-0.8c-2.9-17.5-6-34.9-13.7-50.4c-8-16-22-29-40-32c-19.6-2.9-39.1,7.5-54.9,20.1
		c-0.6,0.4-1.4,0.3-1.7-0.4c-5.8-11.4-17.9-18.6-30.5-18.8c-1,0-1.5-1.2-0.8-1.9c6.9-6.7,12-15,13.8-25c1-5.9,1-12.9,4.9-16.9
		c0.1-0.1,0.1-0.1,0.2-0.2c3-1.9,6.9-2.9,9.8-4.9c0,0,0.1-0.1,0.1-0.1C76,410.9,77,403,77,396c0,0,0-0.1,0-0.1c-1-15-2-31-5-47
		c-2-14-5-28-12-41c-6.4-10.9-16.1-21-28.3-25.8c-1.7-0.6-2.2-2.7-1.1-4.1c8.1-10,11.1-24.4,8.4-37.1c0,0,0-0.1,0-0.1
		c-3.9-13.7-12.6-25.5-24.3-34.4c-0.4-0.3-0.5-0.9-0.3-1.3c6.2-13.5-1.2-29.6-8.8-42.3c-0.2-0.4,0.1-0.8,0.5-0.7
		c2.9,0.9,10.2,3.9,11.9,4.8c5,2,10,6,14,9c6,5,12,12,18.9,15c0,0,0.1,0,0.2,0.1C70.1,197,89,190,108,199z"/>
	<path class="st0" d="M90,212c2-2,5-1,7,0c0,0,0.1,0,0.1,0c20,7,36,22,51,37c11,10,21,22,24,35.9c0,0,0,0.1,0,0.1
		c4,26-18,49-20,74.9"/>
	<path class="st0" d="M26,282c43-11,87-16,132-16"/>
	<path class="st0" d="M269,427c-31,43-65,83-102,121"/>
	<path class="st0" d="M273,437c10,14,18,30,22,46c11,40,5,83-2,123"/>
	<path class="st0" d="M96,441c38,0,76-10,110-27c0,0,0,0,0.1,0c5-2,9-5,9-10"/>
	<path class="st0" d="M120,364c-13,11-19,28-24,44c-2,7-5,15-8,22"/>
	<path class="st0" d="M127,438c-7,13-13,27-17,42"/>
	<path class="st0" d="M97,417c-13-4-27-6-40-5c-7,0-15,1-22-1c-1,0-2-1-4-1c-1,0-3,1-3,3"/>
	<path class="st0" d="M218,344c-3.9-1-8.8,0-11.8,2.8c-0.2,0.1-0.3,0.3-0.3,0.5c-0.2,0.8-0.7,2.9,0.1,3.7c2,2,6,2,8,0c2-1,2-5,0-7"
		/>
	<path class="st0" d="M-7,227c24-9,49-11,74-12"/>
</g>
</svg>
