<?xml version="1.0" encoding="utf-8"?>
<!-- Generator: Adobe Illustrator 19.0.0, SVG Export Plug-In . SVG Version: 6.00 Build 0)  -->
<svg version="1.1" id="Layer_1" xmlns="http://www.w3.org/2000/svg" xmlns:xlink="http://www.w3.org/1999/xlink" x="0px" y="0px"
	 viewBox="-55 147 500 500" style="enable-background:new -55 147 500 500;" xml:space="preserve">
<style type="text/css">
	.st0{fill:none;stroke:#000000;stroke-width:1.0001;}
</style>
<g id="Layer_x0020_1">
	<path class="st0" d="M199,279c2,33,6,65,13,98"/>
	<path class="st0" d="M197,282c-2-5,4-9,8-12c16-10,21-33,38-40c-2,4,1,9,4,11c4,3,8,4,13,4c18,3,37,3,56,1c-7,3-15,6-19,13
		c-1,4-1,8-1,12c0,13,3,26,8,38c-12,4-26,2-34,11c-3,3-4,8-5,12c-4,16-5,32-2,48c-5,0-8,5-8,10s3,9,5,13
		c17.2,35.3,9.8,76.4,10.5,115.8c0,2.7-3.3,3.8-4.9,1.7c-3.9-5.1-9.4-9.1-15.5-11.5c-8-3-17-3-25-7c0,0,0,0-0.1,0
		c-12.4-5.4-19-25-33-31c-7.9-4-18.4-1.6-25.3,4.5c-2.1,1.8-5.3,0.8-5.9-1.9c-1-5.4-3.8-15.6-3.9-15.6c-1.9-3.9-6-10.9-6.1-11
		c-2.9-1.9-6.8-1.9-9.7-2.8c-0.1,0-44.6,9.3-58.1,25.8c-0.7,0.9-2.2,0.5-2.3-0.7c-0.3-2.8-1.5-5.7-2.8-8.2c-5-9-11-17-19-22
		c-7.1-5.3-17.4-5.9-24.5-1.8c-0.9,0.6-2.1-0.3-1.9-1.4c2.8-15,5.5-30,7.4-45.9c1-3,1-6,3-8c3-3,6-4,9-5c10-2,19-7,26-14
		c6-4,11-10,16-14c6-4,13-6,20-5c6,2,10,6,14,10c19,18,37,39,61,49c-10.6,1.9-20.3,6.6-28.1,13.2c-0.5,0.4-1.2,0.4-1.7,0
		c-2.1-1.9-4.7-3.4-7.6-4.7c-1.2-0.5-2.3,0.8-1.7,1.9c3.8,6.1,9.3,11.2,15.5,14c0.8,0.3,1,1.3,0.5,1.9c-4.8,6.5-5.7,14.3-4.2,20.7
		c0.1,0.6,0.7,1,1.3,1c6.3-0.2,11.8-2,17.3-4.7c0.4-0.2,0.9-0.2,1.2,0.1c12.5,7.6,26.8,13.4,41.1,17.3c0.7,0.2,1.1,0.9,0.9,1.6
		c-3.9,13.5-8.8,26-15.6,36.7c0,0.1-0.1,0.1-0.1,0.2c-1,2-1.9,4.9-1,5.9c1.5,2.3,4.1,0.6,5.8-1.7c0.3-0.4,0.8-0.2,0.8,0.3
		c0,1.8,0.7,3.4,1.4,5.4c-0.5-10.6,3.6-27.3,9.2-41c0.4-0.9,1.5-1.1,2.2-0.3c5,5.7,12.2,8.1,18.5,6.3c0.1,0,0.2,0,0.2-0.1
		c6.6-2.9,12.2-9.2,12-16.6c0-0.7,0.6-1.3,1.3-1.3c7.6,0.2,24.2,4.2,34.5,7c0,0,0.1,0,0.1,0c2.5,0.8,4.3,1.7,6.1,2.5
		c0.6,0.3,1,0.8,1.3,1.3c0.9,1.9,1.9,4.2,3.6,5.1c2,1,5,0,6-2s-4.1-2.9-3-5c0.1,0,0.2-0.1,0.3-0.1c1.9-0.2,3.3-1.8,2.8-3.6
		c-0.4-1.2-0.8-2.3-1.3-3.3c-0.4-0.7-1.1-1.1-1.8-1c-10.3,0.7-32-2.5-36.9-3.8c-0.6-0.2-1.2-0.5-1.6-0.9c-3.1-3-2.2-7.6-1.3-12.3
		c0-0.1,0-0.1,0-0.2c0.9-22-19-43.9-41-42.9c0-7.4,0.8-15.6,3.3-23.1c0.2-0.7-0.3-1.3-1-1.4c-2.1-0.1-3.5-3.1-4.3-5.5c0,0,0,0,0-0.1
		c-8-29-12-59-11-90"/>
	<path class="st0" d="M185,425c-2,0-4,1-5,2c-2,2-2,4-1,6c0,1,1,2,2,2c3,2,8,0,8-3c1-4-2-8-6-8"/>
</g>
</svg>
