<?xml version="1.0" encoding="UTF-8"?>
<!DOCTYPE svg PUBLIC "-//W3C//DTD SVG 1.1//EN" "http://www.w3.org/Graphics/SVG/1.1/DTD/svg11.dtd">
<!-- Creator: CorelDRAW X8 -->
<svg xmlns="http://www.w3.org/2000/svg" xml:space="preserve" width="500px" height="500px" version="1.1" style="shape-rendering:geometricPrecision; text-rendering:geometricPrecision; image-rendering:optimizeQuality; fill-rule:evenodd; clip-rule:evenodd"
viewBox="0 0 500 500"
 xmlns:xlink="http://www.w3.org/1999/xlink">
 <defs>
  <style type="text/css">
   <![CDATA[
    .str0 {stroke:black;stroke-width:0.750048}
    .fil0 {fill:none}
   ]]>
  </style>
 </defs>
 <g id="Layer_x0020_1">
  <metadata id="CorelCorpID_0Corel-Layer"/>
  <path class="fil0 str0" d="M218 162c5,-4 1,-14 -5,-19 -6,-4 -14,-6 -17,-14 9,4 17,8 25,11 1,0 3,1 5,1 3,0 5,-2 8,-3 8,-3 16,-4 24,-1 -2,-7 1,-15 8,-18 -3,13 1,27 12,35 2,-3 7,-5 11,-3 2,-13 15,-22 27,-29 31,-17 62,-33 94,-49 11,-5 23,-10 36,-10 -4,5 -11,6 -18,8 -13,7 -23,23 -21,39 -4,-4 -11,-1 -15,4 -4,3 -5,10 -5,15 -4,26 -7,52 -6,78 -7,-3 -15,-4 -23,-4 -3,1 -8,2 -11,4 -5,3 -7,9 -9,15 -3,13 -7,28 -8,42 -1,8 -2,16 -5,24 -4,8 -11,14 -19,13 0,10 0,20 0,28 -11,-10 -24,-18 -39,-22 -3,-1 -7,-2 -10,-4 -1,-1 -2,-3 -3,-4 -4,-6 -8,-13 -12,-19 -2,6 -5,13 -8,19 -4,-3 -4,-10 -1,-15 2,-5 5,-9 4,-14 0,-3 -2,-5 -4,-7 -9,-10 -19,-19 -31,-26 -6,-4 -11,-7 -18,-7 -12,0 -24,6 -33,15 -7,9 -12,21 -18,31 -6,-20 -13,-41 -29,-55 -20,-18 -50,-21 -76,-17 -1,-1 18,-8 69,-34 9,-4 20,-4 30,-5 15,-2 28,-3 43,-3 16,-1 31,-1 48,0l0 0z"/>
  <path class="fil0 str0" d="M227 154c0,-1 0,-2 0,-3 2,2 5,2 7,3 2,2 3,6 2,8 -5,-1 -9,-4 -10,-9"/>
  <path class="fil0 str0" d="M258 147c0,0 -1,0 -1,1 -3,3 -2,8 0,11 0,0 1,1 1,1 1,0 2,-1 3,-2 1,-3 1,-7 -1,-10 0,-1 -1,-1 -1,-1"/>
  <path class="fil0 str0" d="M257 169c-1,-3 -3,-5 -6,-6 -3,-2 -6,-3 -9,-3 -2,5 -5,12 -3,18 0,1 0,1 0,1 1,0 1,-1 0,0"/>
  <path class="fil0 str0" d="M239 169c-1,0 -1,-1 0,0 1,2 2,4 3,5 0,-5 -1,-9 -3,-13"/>
  <path class="fil0 str0" d="M248 162c0,3 1,7 2,10 2,-2 3,-5 3,-7"/>
 </g>
</svg>
