<?xml version="1.0" encoding="UTF-8"?>
<!DOCTYPE svg PUBLIC "-//W3C//DTD SVG 1.1//EN" "http://www.w3.org/Graphics/SVG/1.1/DTD/svg11.dtd">
<!-- Creator: CorelDRAW X8 -->
<svg xmlns="http://www.w3.org/2000/svg" xml:space="preserve" width="500px" height="500px" version="1.1" style="shape-rendering:geometricPrecision; text-rendering:geometricPrecision; image-rendering:optimizeQuality; fill-rule:evenodd; clip-rule:evenodd"
viewBox="0 0 500 500"
 xmlns:xlink="http://www.w3.org/1999/xlink">
 <defs>
  <style type="text/css">
   <![CDATA[
    .str0 {stroke:black;stroke-width:1.00006}
    .fil0 {fill:none;fill-rule:nonzero}
   ]]>
  </style>
 </defs>
 <g id="Layer_x0020_1">
  <metadata id="CorelCorpID_0Corel-Layer"/>
  <path class="fil0 str0" d="M254 132c2,33 6,65 13,98"/>
  <path class="fil0 str0" d="M252 135c-2,-5 4,-9 8,-12 16,-10 21,-33 38,-40 -2,4 1,9 4,11 4,3 8,4 13,4 18,3 37,3 56,1 -7,3 -15,6 -19,13 -1,4 -1,8 -1,12 0,13 3,26 8,38 -12,4 -26,2 -34,11 -3,3 -4,8 -5,12 -4,16 -5,32 -2,48 -5,0 -8,5 -8,10 0,5 3,9 5,13 19,39 8,85 11,128 -3,-10 -11,-18 -21,-22 -8,-3 -17,-3 -25,-7 -13,-8 -19,-25 -33,-31 -10,-5 -24,0 -30,10 -1,-8 -3,-16 -5,-23 -2,-4 -3,-8 -6,-11 -3,-2 -7,-2 -10,-3 -24,-1 -48,11 -61,30 2,-4 0,-9 -2,-13 -5,-9 -11,-17 -19,-22 -8,-6 -20,-6 -27,0 3,-16 6,-32 8,-49 1,-3 1,-6 3,-8 3,-3 6,-4 9,-5 10,-2 19,-7 26,-14 6,-4 11,-10 16,-14 6,-4 13,-6 20,-5 6,2 10,6 14,10 19,18 37,39 61,49 -11,2 -21,7 -29,14 -3,-3 -7,-5 -12,-7 4,8 11,15 19,18 -6,7 -7,16 -5,23 7,0 13,-2 19,-5 13,8 28,14 43,18 -4,14 -9,27 -16,38 -1,2 -2,5 -1,6 2,3 6,-1 7,-4 -1,3 0,5 1,8 0,-15 4,-29 10,-43 5,7 13,10 20,8 7,-3 13,-10 12,-18 13,2 25,4 36,7 3,1 5,2 7,3 1,2 2,5 4,6 2,1 5,0 6,-2 1,-2 -1,-5 -3,-5 1,1 3,2 4,4 0,-5 -1,-9 -3,-12 -11,1 -22,0 -33,-2 -2,0 -4,-1 -6,-2 -4,-3 -3,-8 -2,-13 1,-22 -19,-44 -41,-43 0,-8 1,-17 4,-25 -3,2 -5,-2 -6,-5 -8,-29 -12,-59 -11,-90"/>
  <path class="fil0 str0" d="M240 278c-2,0 -4,1 -5,2 -2,2 -2,4 -1,6 0,1 1,2 2,2 3,2 8,0 8,-3 1,-4 -2,-8 -6,-8"/>
 </g>
</svg>
