<?xml version="1.0" encoding="UTF-8"?>
<!DOCTYPE svg PUBLIC "-//W3C//DTD SVG 1.1//EN" "http://www.w3.org/Graphics/SVG/1.1/DTD/svg11.dtd">
<!-- Creator: CorelDRAW X8 -->
<svg xmlns="http://www.w3.org/2000/svg" xml:space="preserve" width="500px" height="500px" version="1.1" style="shape-rendering:geometricPrecision; text-rendering:geometricPrecision; image-rendering:optimizeQuality; fill-rule:evenodd; clip-rule:evenodd"
viewBox="0 0 500 500"
 xmlns:xlink="http://www.w3.org/1999/xlink">
 <defs>
  <style type="text/css">
   <![CDATA[
    .str0 {stroke:black;stroke-width:1.00006}
    .fil0 {fill:none}
   ]]>
  </style>
 </defs>
 <g id="Layer_x0020_1">
  <metadata id="CorelCorpID_0Corel-Layer"/>
  <path class="fil0 str0" d="M97 138c10,-9 21,-14 35,-19 11,-3 24,-4 35,-2 10,2 17,4 28,4 30,0 59,-2 87,-5 8,-1 17,-2 24,-2 17,0 34,2 50,10 9,3 16,8 23,16 5,7 9,15 13,24 8,21 15,42 17,64 1,9 0,18 2,26 1,6 3,11 4,17 2,10 0,21 -3,31 -6,17 -28,46 -49,46 -10,0 -9,-9 -7,-13 9,-17 14,-40 10,-52 -4,-6 -10,-13 -9,-19 -2,0 -4,3 -7,2 -3,-7 -2,-19 -4,-19 -1,15 2,31 2,47 3,30 3,44 -5,52 -3,3 -5,3 -8,2 -2,-1 -4,-3 -5,-5 0,-1 -2,-1 -3,-1 -1,1 -4,3 -4,1 -1,-2 0,-7 1,-7 3,-2 7,-2 8,-4 7,-18 6,-42 3,-44 -1,13 -6,24 -11,29 -11,19 -27,32 -38,38 -7,2 -7,-1 -9,-2 -10,-1 -5,-4 -6,-4 -3,2 -9,1 -6,-4 7,-9 13,-4 18,-5 14,-4 29,-28 38,-46 -9,-8 -16,-18 -21,-31 0,-1 -2,-1 -3,-1 -27,8 -55,10 -82,6 -3,22 -6,44 -8,67 -1,2 -1,5 -3,9 -3,3 -7,6 -12,6 -3,-1 -6,-3 -2,-6 0,-1 -2,2 -6,1 -5,-1 -2,-4 2,-7 12,-18 11,-42 9,-65 0,-1 -3,-2 -3,0 -4,11 -9,23 -12,34 -4,9 -22,21 -26,21 -6,1 -16,-1 -16,-2 3,-10 14,-17 24,-16 6,-17 10,-33 13,-50 -7,-2 -15,-5 -23,-10 -19,-10 -35,-23 -46,-40 -8,-12 -12,-26 -17,-39 -2,-6 -4,-12 -2,-19 1,-5 6,-9 10,-14z"/>
  <path class="fil0 str0" d="M92 162c-3,-2 -3,-6 -1,-10 1,-2 7,-12 9,-16 0,-1 1,-1 2,-1 4,0 8,1 11,3 2,1 3,5 4,7 2,4 4,9 7,13 2,0 5,-1 4,-3"/>
  <path class="fil0 str0" d="M151 152c2,-13 13,-24 26,-26 3,0 5,0 7,1 2,2 2,7 2,10 0,4 1,9 1,12 0,5 0,9 -2,12"/>
  <path class="fil0 str0" d="M94 177c6,-1 12,-5 16,-8 6,-2 14,-3 18,-1 5,3 8,10 9,15"/>
  <path class="fil0 str0" d="M148 182c0,-4 2,-9 5,-12 4,-2 8,-3 12,-4 12,-1 27,2 34,13"/>
  <path class="fil0 str0" d="M127 204c-1,1 -1,3 -1,5 0,0 0,1 0,2 2,2 5,3 8,4 0,0 1,0 1,0 7,1 29,-7 31,-12"/>
  <path class="fil0 str0" d="M139 202c1,-1 3,-1 4,-1 2,0 3,0 5,1 2,0 3,3 1,5 0,1 -1,2 -2,3 -2,0 -4,1 -6,1 -2,0 -3,-1 -3,-2 -1,-2 -1,-4 1,-5"/>
  <path class="fil0 str0" d="M118 179c0,-1 -1,-2 -2,-2 -2,-1 -3,1 -3,3 0,2 0,3 1,4l2 2c0,1 0,1 0,1 1,-1 8,-2 8,-5 0,-3 -5,-5 -8,-5"/>
  <path class="fil0 str0" d="M166 176c-3,-2 -6,0 -7,3 0,1 -1,1 -1,2 0,3 3,6 6,4 4,-1 4,-5 1,-7"/>
  <path class="fil0 str0" d="M359 194c5,-3 4,8 2,11 -7,9 -8,27 -15,32 1,-10 8,-22 13,-43z"/>
  <path class="fil0 str0" d="M142 322c-2,-2 -6,-1 -8,-3 2,-5 10,-9 16,-7"/>
  <path class="fil0 str0" d="M183 343c-9,-6 1,-13 8,-14"/>
 </g>
</svg>
