<?xml version="1.0" encoding="UTF-8"?>
<!DOCTYPE svg PUBLIC "-//W3C//DTD SVG 1.1//EN" "http://www.w3.org/Graphics/SVG/1.1/DTD/svg11.dtd">
<!-- Creator: CorelDRAW X8 -->
<svg xmlns="http://www.w3.org/2000/svg" xml:space="preserve" width="500px" height="500px" version="1.1" style="shape-rendering:geometricPrecision; text-rendering:geometricPrecision; image-rendering:optimizeQuality; fill-rule:evenodd; clip-rule:evenodd"
viewBox="0 0 500 500"
 xmlns:xlink="http://www.w3.org/1999/xlink">
 <defs>
  <style type="text/css">
   <![CDATA[
    .str0 {stroke:black;stroke-width:0.750048}
    .fil0 {fill:none}
   ]]>
  </style>
 </defs>
 <g id="Layer_x0020_1">
  <metadata id="CorelCorpID_0Corel-Layer"/>
  <path class="fil0 str0" d="M248 138c25,-10 20,-28 44,-28 33,-7 17,58 -15,32 -5,-6 -6,-14 -9,-21 -7,-13 -28,-27 -37,-10 -5,-2 -24,42 17,27z"/>
  <path class="fil0 str0" d="M261 110c-5,0 -8,-10 2,-14 6,-1 13,1 18,4 6,6 1,12 -9,13"/>
  <path class="fil0 str0" d="M248 141c-10,7 -15,17 -15,29 -4,12 -5,31 -4,39 2,11 14,21 22,24 -10,5 -13,14 -14,21 -3,53 -13,95 -26,119 -3,14 -12,44 -3,49 12,-19 19,-47 29,-77 6,-18 14,-78 18,-84 -4,-7 -1,-22 9,-27 9,-5 19,4 25,-25 5,-21 5,-43 -4,-63"/>
  <path class="fil0 str0" d="M233 160c-39,-50 -54,-39 -103,-72 -22,-14 -40,-36 -65,-41 -11,24 38,78 56,91 21,17 48,27 75,30 12,1 24,0 36,1 37,23 -117,22 -182,81 -6,3 -12,12 -6,17 12,9 41,12 66,12 22,-1 43,-6 60,-19 30,-20 17,-30 58,-69"/>
  <path class="fil0 str0" d="M287 158c14,-9 38,-13 55,-25 33,-20 50,-43 91,-57 9,-3 21,0 16,11 -13,29 -58,63 -89,75 -21,9 -45,10 -68,3 -9,9 5,20 15,21 45,12 63,15 137,14 17,0 19,14 6,17 -27,9 -38,23 -83,29 -23,3 -60,26 -75,1 -5,-7 -9,-15 -7,-23"/>
 </g>
</svg>
