<?xml version="1.0" encoding="UTF-8"?>
<!DOCTYPE svg PUBLIC "-//W3C//DTD SVG 1.1//EN" "http://www.w3.org/Graphics/SVG/1.1/DTD/svg11.dtd">
<!-- Creator: CorelDRAW X8 -->
<svg xmlns="http://www.w3.org/2000/svg" xml:space="preserve" width="500px" height="500px" version="1.1" style="shape-rendering:geometricPrecision; text-rendering:geometricPrecision; image-rendering:optimizeQuality; fill-rule:evenodd; clip-rule:evenodd"
viewBox="0 0 500 500"
 xmlns:xlink="http://www.w3.org/1999/xlink">
 <defs>
  <style type="text/css">
   <![CDATA[
    .str0 {stroke:black;stroke-width:0.750048}
    .fil0 {fill:none}
   ]]>
  </style>
 </defs>
 <g id="Layer_x0020_1">
  <metadata id="CorelCorpID_0Corel-Layer"/>
  <path class="fil0 str0" d="M177 126c-19,0 -43,43 -29,54 18,2 28,0 42,-24 2,11 -6,21 -6,33 2,12 12,22 22,30 56,32 96,-2 123,11 16,12 22,31 57,53 24,10 32,32 66,48 10,5 12,1 12,-7 -9,-26 -28,-46 -51,-63 -13,-10 -44,-34 -84,-41 -11,-31 -62,-76 -99,-83 -10,-1 -30,12 -36,9 -8,-4 -4,-20 -17,-20z"/>
  <path class="fil0 str0" d="M211 164c-1,-31 12,-73 29,-84 14,-12 34,-5 51,-14 15,-3 42,-68 68,-55 16,30 -20,87 -42,107 -28,25 -67,48 -97,52 24,24 234,-87 265,-37 17,21 -10,42 -29,50 -23,10 -50,13 -77,13 -72,-4 -83,41 -139,-9"/>
  <path class="fil0 str0" d="M190 199c-94,13 -128,42 -169,91 -14,14 1,21 18,24 13,2 26,7 39,3 49,-8 94,-53 118,-93 7,-19 33,-9 19,19 -14,42 -38,68 -58,104 -8,20 -14,42 -11,62 4,25 17,35 43,26 65,-41 62,-146 47,-212"/>
 </g>
</svg>
