<?xml version="1.0" encoding="UTF-8"?>
<!DOCTYPE svg PUBLIC "-//W3C//DTD SVG 1.1//EN" "http://www.w3.org/Graphics/SVG/1.1/DTD/svg11.dtd">
<!-- Creator: CorelDRAW X8 -->
<svg xmlns="http://www.w3.org/2000/svg" xml:space="preserve" width="500px" height="500px" version="1.1" style="shape-rendering:geometricPrecision; text-rendering:geometricPrecision; image-rendering:optimizeQuality; fill-rule:evenodd; clip-rule:evenodd"
viewBox="0 0 500 500"
 xmlns:xlink="http://www.w3.org/1999/xlink">
 <defs>
  <style type="text/css">
   <![CDATA[
    .str0 {stroke:black;stroke-width:1.00006}
    .fil0 {fill:none;fill-rule:nonzero}
   ]]>
  </style>
 </defs>
 <g id="Layer_x0020_1">
  <metadata id="CorelCorpID_0Corel-Layer"/>
  <path class="fil0 str0" d="M182 242c-7,4 -12,11 -12,19 5,5 11,11 18,14 7,3 15,4 22,0 7,-4 10,-13 6,-20 8,5 17,0 25,-5 5,52 13,105 41,149 2,2 4,4 6,3 1,0 1,-2 2,-3 9,-18 14,-39 16,-59 2,-22 -1,-45 -10,-65 -9,-20 -25,-37 -46,-45 46,36 93,72 147,92 -14,-38 -45,-70 -83,-84 -18,-7 -37,-10 -57,-13 8,-9 16,-17 23,-26 4,-4 8,-9 13,-12 6,-5 14,-8 21,-11 29,-15 51,-45 57,-77 -39,25 -73,59 -99,97 -4,7 -9,14 -15,20 -2,1 -3,2 -5,2 -2,0 -4,-2 -5,-3 -33,-38 -65,-76 -96,-116 20,46 49,86 86,119 -50,-30 -102,-61 -160,-67 8,30 38,48 67,56 29,9 60,11 88,21 1,1 -8,9 -9,10 -4,3 -9,5 -14,5 -10,1 -17,-6 -27,-1z"/>
 </g>
</svg>
