<?xml version="1.0" encoding="UTF-8"?>
<!DOCTYPE svg PUBLIC "-//W3C//DTD SVG 1.1//EN" "http://www.w3.org/Graphics/SVG/1.1/DTD/svg11.dtd">
<!-- Creator: CorelDRAW X8 -->
<svg xmlns="http://www.w3.org/2000/svg" xml:space="preserve" width="500px" height="500px" version="1.1" style="shape-rendering:geometricPrecision; text-rendering:geometricPrecision; image-rendering:optimizeQuality; fill-rule:evenodd; clip-rule:evenodd"
viewBox="0 0 500 500"
 xmlns:xlink="http://www.w3.org/1999/xlink">
 <defs>
  <style type="text/css">
   <![CDATA[
    .str0 {stroke:black;stroke-width:0.750048}
    .fil0 {fill:none}
   ]]>
  </style>
 </defs>
 <g id="Layer_x0020_1">
  <metadata id="CorelCorpID_0Corel-Layer"/>
  <path class="fil0 str0" d="M164 126c-3,7 -2,16 -1,24 1,9 3,18 4,26 1,6 1,11 3,15 1,5 3,10 5,16 3,8 6,17 12,24 4,4 9,8 14,12 24,17 52,31 81,41 3,1 8,2 11,4 6,3 11,8 17,8 5,1 10,-2 13,-6 4,-4 5,-8 6,-13 2,-11 1,-21 4,-31 2,-5 4,-10 4,-15 1,-6 -1,-11 -3,-17 -8,-18 -16,-35 -27,-51 -12,-16 -25,-31 -43,-39 -19,-8 -40,-10 -59,-11 -15,0 -34,-4 -41,13l0 0z"/>
  <path class="fil0 str0" d="M282 259c4,-4 16,-1 19,3 18,36 -39,11 -19,-3z"/>
  <path class="fil0 str0" d="M301 286c-2,13 -27,39 -35,68 -6,15 -1,34 -11,45"/>
  <path class="fil0 str0" d="M330 282c30,0 59,37 84,26"/>
  <path class="fil0 str0" d="M325 296c13,4 22,24 25,24"/>
  <path class="fil0 str0" d="M312 299c2,9 -10,20 -1,27"/>
  <path class="fil0 str0" d="M252 268c-23,0 -33,21 -46,19 -11,0 -10,5 -6,13 8,24 6,57 -8,69"/>
  <path class="fil0 str0" d="M347 148c17,-10 34,-34 55,-48 4,3 -7,16 -12,21 -22,17 -29,33 -57,46 -5,2 -19,3 -20,-4 1,-12 14,0 34,-15z"/>
  <path class="fil0 str0" d="M134 231c-4,-5 -11,-7 -18,-8 -20,0 -20,8 -55,-1 8,17 59,30 86,24 7,-1 29,-11 24,-21 -3,-5 -8,2 -12,4 -6,3 -20,7 -25,2z"/>
  <path class="fil0 str0" d="M168 121c1,-1 14,-3 16,-3 47,4 112,41 112,95 -9,17 -25,14 -42,24 -10,4 -17,17 -28,20 -4,1 -12,-1 -13,-5"/>
  <path class="fil0 str0" d="M301 212c9,6 21,8 32,6"/>
 </g>
</svg>
