<?xml version="1.0" encoding="UTF-8"?>
<!DOCTYPE svg PUBLIC "-//W3C//DTD SVG 1.1//EN" "http://www.w3.org/Graphics/SVG/1.1/DTD/svg11.dtd">
<!-- Creator: CorelDRAW X8 -->
<svg xmlns="http://www.w3.org/2000/svg" xml:space="preserve" width="500px" height="500px" version="1.1" style="shape-rendering:geometricPrecision; text-rendering:geometricPrecision; image-rendering:optimizeQuality; fill-rule:evenodd; clip-rule:evenodd"
viewBox="0 0 500 500"
 xmlns:xlink="http://www.w3.org/1999/xlink">
 <defs>
  <style type="text/css">
   <![CDATA[
    .str0 {stroke:black;stroke-width:0.750048}
    .fil0 {fill:none}
   ]]>
  </style>
 </defs>
 <g id="Layer_x0020_1">
  <metadata id="CorelCorpID_0Corel-Layer"/>
  <path class="fil0 str0" d="M218 240c-5,-9 -7,-26 -3,-34 6,-24 75,-89 89,-84 27,14 25,64 9,91 9,2 19,8 25,15 11,17 -6,42 -22,51 -15,8 -34,12 -49,10 6,10 28,8 36,29 -30,10 -59,0 -74,-27 -1,8 7,25 5,38"/>
  <path class="fil0 str0" d="M208 279c9,-2 8,36 6,41"/>
  <path class="fil0 str0" d="M215 270c-5,-5 -25,-7 -31,-4 -8,0 -10,32 -8,34"/>
  <path class="fil0 str0" d="M218 241c-1,0 -5,-8 -10,-8 -6,-2 -8,6 -10,6 2,-14 -11,-54 -20,-62"/>
  <path class="fil0 str0" d="M193 239c0,-12 -29,-20 -39,-20 -4,0 -9,0 -12,4"/>
  <path class="fil0 str0" d="M201 245c-4,3 -6,7 -6,12 3,4 21,1 8,-11"/>
  <path class="fil0 str0" d="M237 276c-1,0 -2,-1 -2,-2 0,-5 2,-10 4,-14 11,-29 35,-51 63,-62 2,-1 3,-1 4,0"/>
  <path class="fil0 str0" d="M248 257c-2,1 -3,9 3,12 6,4 13,-5 -3,-13"/>
  <path class="fil0 str0" d="M279 250c5,-4 1,-13 -4,-16 -15,-10 -14,28 4,16z"/>
  <path class="fil0 str0" d="M271 271c10,8 23,4 8,-11 -10,-8 -15,5 -8,11z"/>
  <path class="fil0 str0" d="M304 249c-3,19 31,14 15,-9 -8,-9 -17,6 -15,9z"/>
  <path class="fil0 str0" d="M291 150c-3,0 -15,19 4,19 18,-5 1,-22 -2,-18"/>
  <path class="fil0 str0" d="M273 174c-4,-16 -22,-13 -20,3 6,19 23,12 20,-3z"/>
  <path class="fil0 str0" d="M253 222c10,0 9,-15 3,-19 -13,-6 -14,19 -3,19z"/>
  <path class="fil0 str0" d="M238 221c1,-6 -7,-18 -12,-8 -8,8 12,22 12,8z"/>
 </g>
</svg>
