<?xml version="1.0" encoding="UTF-8"?>
<!DOCTYPE svg PUBLIC "-//W3C//DTD SVG 1.1//EN" "http://www.w3.org/Graphics/SVG/1.1/DTD/svg11.dtd">
<!-- Creator: CorelDRAW X8 -->
<svg xmlns="http://www.w3.org/2000/svg" xml:space="preserve" width="500px" height="500px" version="1.1" style="shape-rendering:geometricPrecision; text-rendering:geometricPrecision; image-rendering:optimizeQuality; fill-rule:evenodd; clip-rule:evenodd"
viewBox="0 0 500 500"
 xmlns:xlink="http://www.w3.org/1999/xlink">
 <defs>
  <style type="text/css">
   <![CDATA[
    .str0 {stroke:black;stroke-width:0.750048}
    .fil0 {fill:none}
   ]]>
  </style>
 </defs>
 <g id="Layer_x0020_1">
  <metadata id="CorelCorpID_0Corel-Layer"/>
  <path class="fil0 str0" d="M176 200c0,-12 -3,-22 -8,-33 -3,-5 -7,-11 -13,-11 -4,1 -8,5 -12,8 -7,6 -14,11 -23,15 -18,3 -34,15 -22,29 2,0 1,-10 8,-12 -7,26 -6,41 -2,47 -7,-2 -7,-21 -12,-19 -4,5 -1,18 4,24 11,20 33,22 52,16 31,0 21,-45 26,-51 -3,-14 31,-27 40,-22 10,3 14,15 23,19 4,-29 56,-25 67,7 9,-9 5,-30 17,-39 20,-16 79,-14 98,1 15,11 23,49 18,67 -9,31 -62,75 -93,60 -15,-8 -35,-47 -31,-62 -9,6 -10,-3 -11,-1 -7,9 -6,17 -11,24 -44,38 -53,-21 -55,-21 -6,-6 -17,16 -24,18 -13,7 -39,-14 -47,-25"/>
  <path class="fil0 str0" d="M131 179c-31,11 -5,18 11,18 12,0 7,-4 13,-10 3,-11 -13,-20 -20,-6"/>
  <path class="fil0 str0" d="M115 252c7,4 31,9 29,-4 -1,-5 -29,-32 -29,4z"/>
  <path class="fil0 str0" d="M125 189c-11,-26 -3,-66 9,-80 -33,4 -66,42 -115,51"/>
  <path class="fil0 str0" d="M122 261c9,19 5,49 -2,68 -18,-7 -48,-17 -61,-30 -9,-10 -13,-26 -23,-35"/>
  <path class="fil0 str0" d="M235 207c-5,-8 10,-26 -5,-33 -26,-26 -99,-23 -129,-39"/>
  <path class="fil0 str0" d="M235 253c-6,1 -16,14 -17,29 -15,15 -106,26 -127,23"/>
  <path class="fil0 str0" d="M287 198c-4,-6 -2,-16 4,-21 -12,-2 -23,-7 -27,-20 7,-43 58,-78 64,-107"/>
  <path class="fil0 str0" d="M299 202c1,-16 16,-46 40,-48 35,-15 46,-48 146,-54"/>
  <path class="fil0 str0" d="M279 268c-10,27 -29,29 -31,46 0,32 25,46 41,68 13,17 21,37 22,58"/>
  <path class="fil0 str0" d="M295 268c-8,13 -5,23 0,30 14,9 33,38 46,43 47,8 104,27 138,61"/>
 </g>
</svg>
