<?xml version="1.0" encoding="UTF-8"?>
<!DOCTYPE svg PUBLIC "-//W3C//DTD SVG 1.1//EN" "http://www.w3.org/Graphics/SVG/1.1/DTD/svg11.dtd">
<!-- Creator: CorelDRAW X8 -->
<svg xmlns="http://www.w3.org/2000/svg" xml:space="preserve" width="500px" height="500px" version="1.1" style="shape-rendering:geometricPrecision; text-rendering:geometricPrecision; image-rendering:optimizeQuality; fill-rule:evenodd; clip-rule:evenodd"
viewBox="0 0 500 500"
 xmlns:xlink="http://www.w3.org/1999/xlink">
 <defs>
  <style type="text/css">
   <![CDATA[
    .str0 {stroke:black;stroke-width:0.750048}
    .fil0 {fill:none}
   ]]>
  </style>
 </defs>
 <g id="Layer_x0020_1">
  <metadata id="CorelCorpID_0Corel-Layer"/>
  <path class="fil0 str0" d="M284 172c-12,18 14,29 31,22 -6,13 -6,22 1,27 0,-1 4,-3 4,-4 0,2 3,4 4,4 2,-7 -6,-16 -5,-25 11,0 21,4 25,15 7,-12 -6,-20 -21,-20 15,-4 -14,-48 -39,-19z"/>
  <path class="fil0 str0" d="M301 180c-1,0 -1,0 -2,-1 -1,-2 -3,-4 -5,-5 -1,0 -4,0 -5,2 -1,1 -1,3 -1,4 1,2 2,4 3,5 1,1 3,2 5,2 3,-1 4,-5 4,-7"/>
  <path class="fil0 str0" d="M280 184c0,-5 -3,-7 -8,-8 -9,-2 -19,9 -18,18 -1,2 -6,-6 -13,-2 -5,2 -9,6 -6,12 -3,3 -3,-12 -20,-10 -64,4 -46,115 -28,115 30,-17 47,-52 46,-95 4,-2 7,24 28,23 13,-13 -2,-25 1,-28 4,0 1,11 16,15 6,-2 13,-16 11,-27"/>
  <path class="fil0 str0" d="M236 224c-6,-3 -14,1 -19,-2 -21,29 -19,57 -31,77 -6,19 -26,27 -30,45"/>
  <path class="fil0 str0" d="M229 218c-35,-17 -26,-36 -40,-52 -40,39 -23,112 -71,140"/>
  <path class="fil0 str0" d="M277 216c4,-6 18,-3 21,2 10,10 -5,37 -13,44"/>
  <path class="fil0 str0" d="M257 219c26,-1 28,9 25,30 -10,27 -3,77 6,82"/>
  <path class="fil0 str0" d="M277 217c21,5 31,15 43,44 10,26 36,55 66,67"/>
  <path class="fil0 str0" d="M304 173c2,-8 17,-19 26,-22 7,-1 18,-6 20,-11"/>
  <path class="fil0 str0" d="M313 174c13,-9 24,-5 38,-9 27,-3 36,-14 52,-16"/>
 </g>
</svg>
