<?xml version="1.0" encoding="UTF-8"?>
<!DOCTYPE svg PUBLIC "-//W3C//DTD SVG 1.1//EN" "http://www.w3.org/Graphics/SVG/1.1/DTD/svg11.dtd">
<!-- Creator: CorelDRAW X8 -->
<svg xmlns="http://www.w3.org/2000/svg" xml:space="preserve" width="500px" height="500px" version="1.1" style="shape-rendering:geometricPrecision; text-rendering:geometricPrecision; image-rendering:optimizeQuality; fill-rule:evenodd; clip-rule:evenodd"
viewBox="0 0 500 500"
 xmlns:xlink="http://www.w3.org/1999/xlink">
 <defs>
  <style type="text/css">
   <![CDATA[
    .str0 {stroke:black;stroke-width:0.750048}
    .fil0 {fill:none}
   ]]>
  </style>
 </defs>
 <g id="Layer_x0020_1">
  <metadata id="CorelCorpID_0Corel-Layer"/>
  <path class="fil0 str0" d="M203 156c-6,12 -8,37 -6,51 7,22 59,36 81,9 12,-12 12,-20 7,-35 -15,-42 -55,-64 -82,-25z"/>
  <path class="fil0 str0" d="M213 225c-18,-1 -24,24 -23,39 3,26 17,51 37,68 7,7 27,17 36,12 27,-13 44,-71 34,-99 -4,-11 -12,-22 -23,-24"/>
  <path class="fil0 str0" d="M224 136c-3,-8 4,-10 2,-19 5,-6 15,-6 23,-2 9,3 12,14 9,25"/>
  <path class="fil0 str0" d="M203 173c-10,-3 -16,-12 -25,-17 -6,-4 -13,-5 -19,-8 -20,-8 -46,-28 -64,-40 -6,12 2,31 25,60 4,13 11,21 22,25 9,2 24,-6 25,-2 -13,9 -18,32 17,24 14,-6 28,-15 28,-32"/>
  <path class="fil0 str0" d="M263 175c7,-11 64,-47 101,-60 14,-7 21,9 9,15 -16,13 -20,36 -37,53 7,3 11,14 4,22 -27,11 -77,8 -81,-11"/>
  <path class="fil0 str0" d="M214 145c-5,-1 -11,-16 -19,-18 -9,3 -11,10 -4,17 2,5 8,11 15,10"/>
  <path class="fil0 str0" d="M163 98c-9,10 -1,32 13,26 20,-8 -6,-40 -13,-26z"/>
  <path class="fil0 str0" d="M293 111c14,0 -10,47 -19,33 -7,-10 7,-36 19,-33z"/>
  <path class="fil0 str0" d="M293 109c0,-6 18,-19 29,-19 9,9 -11,20 -17,23"/>
  <path class="fil0 str0" d="M201 235c-45,17 -80,35 -73,48 16,16 50,-20 58,-34"/>
  <path class="fil0 str0" d="M289 228c4,-2 8,2 12,7 16,11 38,13 48,31 1,1 2,3 2,5 -1,2 -5,3 -8,3 -49,0 -36,-27 -57,-31"/>
  <path class="fil0 str0" d="M108 333c0,5 4,10 8,10 5,-24 19,-37 15,-53 -18,20 -11,21 -18,30 -5,3 -5,7 -5,13z"/>
  <path class="fil0 str0" d="M340 273c4,17 -1,40 12,58 8,8 10,-5 8,-12 -3,-44 -8,-22 -21,-61"/>
  <path class="fil0 str0" d="M166 304c-4,6 -7,14 -4,21 -7,18 -7,38 -2,56 8,-25 16,-50 21,-75 1,-4 9,-27 1,-29 -5,-1 -14,22 -16,27l0 0z"/>
  <path class="fil0 str0" d="M347 367c-12,6 -19,-29 -25,-37 -6,-6 -10,-15 -14,-23 -3,-4 -11,-19 -8,-24 6,-10 15,11 17,14 3,7 7,4 11,10 16,15 19,38 19,60z"/>
  <path class="fil0 str0" d="M193 264c7,12 77,8 107,0"/>
  <path class="fil0 str0" d="M211 315c29,2 56,20 82,-5"/>
  <path class="fil0 str0" d="M229 123c-25,-7 -3,-26 -21,-41"/>
  <path class="fil0 str0" d="M250 125c0,-5 35,-31 29,-43"/>
 </g>
</svg>
