<?xml version="1.0" encoding="UTF-8"?>
<!DOCTYPE svg PUBLIC "-//W3C//DTD SVG 1.1//EN" "http://www.w3.org/Graphics/SVG/1.1/DTD/svg11.dtd">
<!-- Creator: CorelDRAW X8 -->
<svg xmlns="http://www.w3.org/2000/svg" xml:space="preserve" width="500px" height="500px" version="1.1" style="shape-rendering:geometricPrecision; text-rendering:geometricPrecision; image-rendering:optimizeQuality; fill-rule:evenodd; clip-rule:evenodd"
viewBox="0 0 500 500"
 xmlns:xlink="http://www.w3.org/1999/xlink">
 <defs>
  <style type="text/css">
   <![CDATA[
    .str0 {stroke:black;stroke-width:0.750048}
    .fil0 {fill:none}
   ]]>
  </style>
 </defs>
 <g id="Layer_x0020_1">
  <metadata id="CorelCorpID_0Corel-Layer"/>
  <path class="fil0 str0" d="M177 182c-6,0 -13,4 -16,10 -6,14 6,44 13,56 6,10 31,-20 26,-36 1,-1 6,15 17,21 8,4 18,4 26,0 8,-5 10,-12 10,-22 10,6 23,8 32,14 5,7 14,15 23,21 7,3 16,5 24,6 8,1 18,8 22,14 3,-1 4,-14 2,-20 7,-25 10,-34 -12,-54 -10,-11 -23,-21 -38,-25 -21,-5 -45,4 -55,23 2,-13 -5,-28 -16,-35 -22,-16 -40,29 -44,31 -5,0 -8,-4 -14,-4l0 0z"/>
  <path class="fil0 str0" d="M170 220c2,5 6,9 12,9 8,-4 12,-30 4,-38 -16,-15 -17,20 -16,29z"/>
  <path class="fil0 str0" d="M165 204c-6,1 -10,-1 -13,-5 -1,-1 -5,-8 -9,-5 -11,3 -25,19 -20,19"/>
  <path class="fil0 str0" d="M165 192c-11,0 -15,-7 -26,-7 -10,3 -20,3 -29,-1"/>
  <path class="fil0 str0" d="M245 243c-12,1 -23,-1 -32,-8 -28,22 -61,99 -87,84"/>
  <path class="fil0 str0" d="M223 226c-7,-5 -18,-4 -26,-1 -13,25 -32,47 -54,61"/>
  <path class="fil0 str0" d="M163 225c-2,8 -15,29 -23,31"/>
  <path class="fil0 str0" d="M266 222c1,-12 5,-24 11,-35 19,-19 10,50 37,135"/>
  <path class="fil0 str0" d="M235 185c47,-21 98,-35 148,-49 -15,40 -35,50 -77,50 -46,-1 -59,2 -67,-3 -6,-4 -5,-13 -2,-20 16,-27 96,-48 96,-31 2,6 -3,15 -7,18"/>
 </g>
</svg>
