<?xml version="1.0" encoding="UTF-8"?>
<!DOCTYPE svg PUBLIC "-//W3C//DTD SVG 1.1//EN" "http://www.w3.org/Graphics/SVG/1.1/DTD/svg11.dtd">
<!-- Creator: CorelDRAW X8 -->
<svg xmlns="http://www.w3.org/2000/svg" xml:space="preserve" width="500px" height="500px" version="1.1" style="shape-rendering:geometricPrecision; text-rendering:geometricPrecision; image-rendering:optimizeQuality; fill-rule:evenodd; clip-rule:evenodd"
viewBox="0 0 500 500"
 xmlns:xlink="http://www.w3.org/1999/xlink">
 <defs>
  <style type="text/css">
   <![CDATA[
    .str0 {stroke:black;stroke-width:1.00006}
    .fil0 {fill:none;fill-rule:nonzero}
   ]]>
  </style>
 </defs>
 <g id="Layer_x0020_1">
  <metadata id="CorelCorpID_0Corel-Layer"/>
  <path class="fil0 str0" d="M311 147c9,2 17,6 24,11 2,1 4,2 4,3 1,2 2,4 2,5l1 17c6,-5 13,-11 20,-9 5,2 8,7 8,12 1,5 0,11 -2,15 -4,15 -8,30 -17,42 -5,8 -13,14 -16,23 -4,-13 -15,-26 -10,-40 -5,0 -8,12 -12,13 28,32 6,58 15,119 -7,-8 -12,-18 -14,-29 -7,-32 5,-50 -12,-94 -6,13 -24,20 -38,14 -7,4 -8,14 -7,22 0,16 2,32 1,49 -2,16 -7,32 -19,44 -3,-5 -3,-11 0,-16 2,-2 4,-4 4,-6 1,-2 1,-4 1,-7 0,-29 -3,-73 3,-88 -13,-4 -8,-9 -13,-12 -6,14 -27,14 -49,2 -8,4 -17,23 -20,38 -5,21 -3,45 -15,63 -8,11 -19,18 -31,22 -12,4 -25,5 -38,7 8,-9 25,-16 33,-25 19,-24 4,-58 39,-94 20,-16 46,-18 43,-20 -54,-2 -55,37 -86,41 4,-23 65,-96 89,-110 11,-5 23,-8 35,-4 8,3 15,9 21,15 5,4 15,15 22,15 8,-1 3,-20 6,-27 5,-9 19,-12 28,-11z"/>
  <path class="fil0 str0" d="M347 219c-1,-1 0,-2 1,-2 5,-1 10,-2 14,-2 4,-1 9,-2 12,0 4,2 6,5 7,9 7,12 11,24 14,38"/>
  <path class="fil0 str0" d="M366 204c2,-2 5,-3 7,-4 6,-1 11,-3 17,-4 2,0 5,0 7,1 1,1 2,2 3,4l14 22"/>
  <path class="fil0 str0" d="M326 199c-4,6 0,14 2,21 1,3 2,6 5,8 2,3 6,4 8,2 2,-1 3,-4 3,-7 2,-8 6,-22 0,-29 -5,-7 -15,-2 -18,5z"/>
  <path class="fil0 str0" d="M288 199c-4,-5 -7,-10 -9,-15 -8,-13 -16,-25 -25,-36 -8,-11 -16,-21 -27,-28 -4,-2 -7,-4 -11,-4 -6,0 -11,3 -16,5 -31,14 -66,16 -100,18 -2,0 -4,1 -5,2 0,1 0,3 1,4 2,5 8,6 13,7 33,6 66,11 96,24 15,6 28,13 43,17 10,3 19,4 29,4 2,0 5,-1 7,-2 3,-2 4,-5 4,-8 3,-15 -1,-30 -9,-42 -8,-13 -19,-23 -30,-33 -7,-6 -15,-13 -24,-16 -13,-5 -27,-4 -41,-2 1,13 14,21 23,30 9,9 16,19 25,27 13,14 30,23 49,28"/>
 </g>
</svg>
