<?xml version="1.0" encoding="UTF-8"?>
<!DOCTYPE svg PUBLIC "-//W3C//DTD SVG 1.1//EN" "http://www.w3.org/Graphics/SVG/1.1/DTD/svg11.dtd">
<!-- Creator: CorelDRAW X8 -->
<svg xmlns="http://www.w3.org/2000/svg" xml:space="preserve" width="500px" height="500px" version="1.1" style="shape-rendering:geometricPrecision; text-rendering:geometricPrecision; image-rendering:optimizeQuality; fill-rule:evenodd; clip-rule:evenodd"
viewBox="0 0 500 500"
 xmlns:xlink="http://www.w3.org/1999/xlink">
 <defs>
  <style type="text/css">
   <![CDATA[
    .str0 {stroke:black;stroke-width:1.00006}
    .fil0 {fill:none;fill-rule:nonzero}
   ]]>
  </style>
 </defs>
 <g id="Layer_x0020_1">
  <metadata id="CorelCorpID_0Corel-Layer"/>
  <path class="fil0 str0" d="M237 135c-30,1 -55,50 -57,76 -1,24 27,54 45,67 19,17 56,-2 71,-16 22,-18 32,-55 25,-83 -6,-22 -40,-75 -65,-63 -6,4 -3,14 -19,19z"/>
  <path class="fil0 str0" d="M205 262c-11,33 10,29 7,47 -4,8 -5,18 12,28 8,-2 34,-17 37,-25 6,-4 9,-23 7,-30"/>
  <path class="fil0 str0" d="M207 275c-18,3 -43,17 -44,22 -7,-20 -62,-39 -68,-67"/>
  <path class="fil0 str0" d="M202 293c-12,1 -23,7 -27,14 -21,27 -3,44 -59,96"/>
  <path class="fil0 str0" d="M211 308c-16,-5 -22,14 -19,27 2,34 -6,61 -20,83"/>
  <path class="fil0 str0" d="M258 322c9,6 28,33 -23,112"/>
  <path class="fil0 str0" d="M262 302c7,-8 15,-12 28,-10 40,46 17,76 49,116"/>
  <path class="fil0 str0" d="M266 284c22,2 38,-4 59,-26 23,-13 50,-12 67,-44"/>
  <path class="fil0 str0" d="M327 189c12,-1 20,12 31,-2 19,-25 20,-59 33,-87 8,-10 13,-22 11,-34"/>
  <path class="fil0 str0" d="M193 170c-8,1 -21,-8 -20,-18 -2,-33 43,-43 26,-116"/>
  <path class="fil0 str0" d="M265 150c5,52 -10,101 -29,132"/>
  <path class="fil0 str0" d="M221 226c8,7 51,19 71,12"/>
 </g>
</svg>
