<?xml version="1.0" encoding="UTF-8"?>
<!DOCTYPE svg PUBLIC "-//W3C//DTD SVG 1.1//EN" "http://www.w3.org/Graphics/SVG/1.1/DTD/svg11.dtd">
<!-- Creator: CorelDRAW X8 -->
<svg xmlns="http://www.w3.org/2000/svg" xml:space="preserve" width="500px" height="500px" version="1.1" style="shape-rendering:geometricPrecision; text-rendering:geometricPrecision; image-rendering:optimizeQuality; fill-rule:evenodd; clip-rule:evenodd"
viewBox="0 0 500 500"
 xmlns:xlink="http://www.w3.org/1999/xlink">
 <defs>
  <style type="text/css">
   <![CDATA[
    .str0 {stroke:black;stroke-width:0.750048}
    .fil0 {fill:none}
   ]]>
  </style>
 </defs>
 <g id="Layer_x0020_1">
  <metadata id="CorelCorpID_0Corel-Layer"/>
  <path class="fil0 str0" d="M235 184c-3,3 -6,6 -10,8 -6,4 -12,5 -18,8 -16,10 -23,30 -20,48 2,19 10,35 19,51 5,8 8,17 13,25 1,1 2,4 4,4 3,3 7,1 11,0 12,-5 25,-10 36,-16 7,-4 14,-8 20,-14 10,-11 14,-26 15,-41 1,-8 0,-16 -1,-24 -2,-10 -5,-19 -11,-27 -7,-9 -18,-14 -28,-18 -9,-4 -19,-9 -30,-4z"/>
  <path class="fil0 str0" d="M244 184c0,-11 10,-13 16,-18 9,-5 8,-9 8,-16 -3,-9 -1,-20 3,-28 2,8 3,15 3,23 -3,15 10,26 18,8 3,-8 5,-15 6,-23 5,10 3,24 -6,32 -4,4 -10,9 -9,16 4,7 3,11 0,18"/>
  <path class="fil0 str0" d="M226 199c-6,1 -12,6 -14,12 7,0 14,-1 20,-4 3,-2 8,-4 11,-2 1,2 3,4 5,5 -2,6 -11,7 -15,12 -2,3 -1,7 0,10 1,4 4,7 6,9 2,2 2,3 5,3 3,2 6,-3 7,-7 2,-8 2,-14 2,-22 6,-1 11,2 15,6 3,3 7,8 12,11 3,2 9,3 11,0 2,-3 1,-7 -2,-9 -3,-3 -6,-4 -9,-6 -9,-6 -11,-23 -21,-27 -7,-3 -6,4 -11,6 -6,3 -15,0 -22,3l0 0z"/>
  <path class="fil0 str0" d="M204 244c-2,0 -2,0 -3,1 -1,1 0,2 0,3 2,4 6,7 10,7 3,0 6,-1 9,-1 3,0 6,1 6,3 1,2 2,2 2,4 0,6 -2,12 -4,18 -1,6 -3,12 -1,18 1,6 5,11 11,13 3,-12 7,-24 10,-36 0,-2 0,-3 0,-4 3,-4 9,-2 12,-2 11,2 21,2 32,-1 1,-1 1,-1 2,-2 2,-1 2,-4 0,-6 -1,-1 -4,-2 -6,-3 -8,-2 -17,-3 -25,-3 -6,1 -11,1 -15,0 -4,-2 -7,-5 -10,-6 -9,-3 -21,-3 -30,-3l0 0z"/>
  <path class="fil0 str0" d="M158 226c-70,59 -15,117 -5,153 9,-13 -48,-93 7,-138 28,-28 52,-70 -2,-15z"/>
  <path class="fil0 str0" d="M359 275c5,17 12,53 10,70 -4,21 -28,49 -42,54 73,-128 -17,-128 -20,-154 17,-2 47,11 52,30z"/>
  <path class="fil0 str0" d="M375 208c6,0 10,0 13,7 7,8 15,15 18,25 6,15 3,33 9,47 -6,-6 -10,-14 -13,-22 -24,-64 -24,-42 -73,-36 -27,0 -11,-9 3,-12 14,-4 28,-7 43,-9l0 0z"/>
  <path class="fil0 str0" d="M162 161c-9,-6 -8,-7 -18,-4 -11,4 -21,12 -31,19 -13,11 -26,21 -40,31 2,2 5,1 7,0 13,-7 25,-14 36,-22 19,-12 34,-20 54,-6 2,2 15,14 17,14 8,-4 -23,-30 -25,-32l0 0z"/>
  <path class="fil0 str0" d="M205 72c-15,39 -14,72 -1,105 5,16 13,8 18,14 11,-31 -3,-58 22,-108 9,29 -5,80 -25,102 -37,-49 -6,-74 -14,-113z"/>
  <path class="fil0 str0" d="M319 178c14,-21 28,-42 42,-63 -7,36 -21,68 -53,88 35,-10 56,-26 87,-44 1,4 -1,9 -5,13 -16,18 -40,26 -62,33 -19,6 -38,12 -20,-12 5,-4 8,-9 11,-15z"/>
 </g>
</svg>
