<svg id="Layer_1" data-name="Layer 1" xmlns="http://www.w3.org/2000/svg" viewBox="0 0 909.14 701.24"><defs><style>.cls-1{fill:#9c9;fill-rule:evenodd;}</style></defs><title>Biotope_map_in</title><path class="cls-1" d="M184.18,91.63c43.69,0,119.17,24.25,170.56,56,19.68,12.13,41.95,11.56,64.42,18.27,5.54,1.65,46.48-3.33,96.91-1.75,47.49,1.49,63.46,10.94,98.63-1.76a96.61,96.61,0,0,1,45.1-9.79c28.28.65,64.53,19.1,113.36,6.06,15.44-4.12,22.26-11,36.81-17.74,18.22-8.44,42.84-12.94,77-19.27,33.47-6.21,62.3,29.2,62.34,29.74.27,4.21,17.33,43.71-2,45.64-54.52,5.46-34.26-30.23-68.23-23.12-55,11.51-96.39,20.54-180.46,21-57.63.34-114.39-5.91-169.24-7.62-60.24-1.87-82.74-12.63-103.2,35.25-13.44,31.42-95-14.54-115.54,52.16-6.44,20.92.05,60,32.3,78.39,24.14,13.78,88-8,116.93-.23,18.79,5.07,9.06,19.9,36.86,51.48,21.17,24,140.19,25.13,143.29,25.59,73.32,11,80.61,19.93,89.61,43.94,18.45,49.18-6.74,49.87-3.4,128.93,2.46,58.33,2.33,164.12-22.28,183.3-19,14.83-176.8,9.66-243.35-85-44.84-63.81-74.92-251.69-82-256.14-31.13-19.54-28.43-16.76-41.48-19.56-70.48-15.14-167.87-14.93-190.91-21.58-81.21-23.4-95.36-91.05-98-120.11-2.48-27.07-2.92-140.4,65.38-181C138.63,87.71,149.25,91.63,184.18,91.63Z" transform="translate(-47.38 -91.16)"/></svg>