<svg id="Layer_1" data-name="Layer 1" xmlns="http://www.w3.org/2000/svg" viewBox="0 0 1037.65 718.1"><defs><style>.cls-1,.cls-10,.cls-2,.cls-9{fill:none;}.cls-1,.cls-2,.cls-9{stroke:#000;}.cls-1,.cls-10,.cls-2{stroke-miterlimit:2.61;}.cls-1,.cls-2{stroke-width:2.83px;}.cls-10,.cls-2,.cls-3,.cls-4,.cls-5,.cls-6,.cls-7,.cls-8,.cls-9{fill-rule:evenodd;}.cls-3{fill:#9ff;}.cls-4{fill:#fff2cc;}.cls-5{fill:#d0cece;}.cls-6{fill:#9c9;}.cls-7{fill:#69f;}.cls-8{fill:#696;}.cls-9{stroke-miterlimit:10;stroke-width:0.71px;}.cls-10{stroke:#f0f;stroke-width:2.13px;}</style></defs><title>Biotope_map</title><circle class="cls-1" cx="370.87" cy="295.88" r="57.1" transform="translate(-83.36 -23.13) rotate(-9.14)"/><path class="cls-2" d="M1064.66,361.72c16.48,42.52,18.38,88-3.4,136.92-18.41,41.36,43,169.77-21.57,251.67-58.77,74.49-175.53,52.87-236.29,33.78-22.88-7.19-63.87,17.79-144.2,12C579.41,790.4,526.92,765.77,502,747.73,391.14,667.61,405,468,370.81,446.38c-49.81-31.6-140.95-26.28-206-36.82-33.86-5.48-74.53-21.51-96.66-55.65-24.41-37.63-25.6-91-25.6-102,0-29.79,18.33-157.16,98.36-163.81,22.72-1.88,116.08-6.72,223.81,58.77,24.93,15.15,51.1,12.5,144.2,11.47,23.06-.26,66,10.84,85,2.73,25.11-10.73,39.16-14.31,76.95-12.28,47.54,2.54,70.39,18.6,114-1,63.78-28.62,105.4-38.49,136.28-25.18,37.64,16.22,43.06,39.33,36.83,106.82C950.3,311.52,1037.12,290.71,1064.66,361.72Z" transform="translate(-41.08 -85.77)"/><path class="cls-3" d="M911.26,567.81c128,21.33,112.47,37.2,85,138.73S926.8,738.4,845.88,718.18C818.64,711.37,778,708.7,761.66,708c-40-1.65-32.14-27.23-31.95-53.51.4-56.88-6.67-89.23,19-100.09C773.91,543.77,878.46,562.34,911.26,567.81Z" transform="translate(-41.08 -85.77)"/><path class="cls-4" d="M808.06,361.64c12.18-3.67,38.09-6.71,60.44,11.37,57.93,46.84,126,150.63,138.7,189.23,20.78,63.31-62,4.44-163.23-9.36S720,576.3,739.63,506.7c0-.07-7.5-67.59-45.83-72.28-35-4.29-122.28-12.9-153-18.74-49-9.32-80.17-65.85-80.17-139.42,0-37.28-44.08-53.36-19.36-77.54,24.07-23.54,157.4.27,193.63-2.77,65.76-5.51,19.25,79.69,40.64,173.51,2.22,9.73,13.71,20.11,28.86,20.8C735.48,391.67,744.12,380.91,808.06,361.64Z" transform="translate(-41.08 -85.77)"/><path class="cls-5" d="M956,746.57c47.55,0,61.94-101.23,54.55-155.12-3.31-24.07-6.78-59.33-49-116.19-24.85-33.44-88.81-104.58-81.57-112.11.88-.93,30.12-135.32,38-154.4,6-14.54,37-8.31,36.22-3.19-13.86,86.92,11,72.63,84.07,125.43,15.33,11.08,26.09,53.53,33.45,69.5,16.56,35.94-23.25,109.52-18.54,118.59,11.66,22.47,5.52,72.26,7.2,84.84,3.11,23.42,2.63,66,.85,76.51-5.19,30.63-28.87,74-49.69,89.86C982.2,792.61,938,797.38,902.12,795.77c-85.19-3.82-61.56-16.36-102.94-17-86.27-1.36-94.6,28.84-75.21-37.63,7.61-26.1-6.16-40.94,76.59-30C829.54,714.92,921,746.57,956,746.57Z" transform="translate(-41.08 -85.77)"/><path class="cls-6" d="M184.18,91.63c43.69,0,119.17,24.25,170.56,56,19.68,12.13,41.95,11.56,64.42,18.27,5.54,1.65,46.48-3.33,96.91-1.75,47.49,1.49,63.46,10.94,98.63-1.76a96.61,96.61,0,0,1,45.1-9.79c28.28.65,64.53,19.1,113.36,6.06,15.44-4.12,22.26-11,36.81-17.74,18.22-8.44,42.84-12.94,77-19.27,33.47-6.21,62.3,29.2,62.34,29.74.27,4.21,17.33,43.71-2,45.64-54.52,5.46-34.26-30.23-68.23-23.12-55,11.51-96.39,20.54-180.46,21-57.63.34-114.39-5.91-169.24-7.62-60.24-1.87-82.74-12.63-103.2,35.25-13.44,31.42-95-14.54-115.54,52.16-6.44,20.92.05,60,32.3,78.39,24.14,13.78,88-8,116.93-.23,18.79,5.07,9.06,19.9,36.86,51.48,21.17,24,140.19,25.13,143.29,25.59,73.32,11,80.61,19.93,89.61,43.94,18.45,49.18-6.74,49.87-3.4,128.93,2.46,58.33,2.33,164.12-22.28,183.3-19,14.83-176.8,9.66-243.35-85-44.84-63.81-74.92-251.69-82-256.14-31.13-19.54-28.43-16.76-41.48-19.56-70.48-15.14-167.87-14.93-190.91-21.58-81.21-23.4-95.36-91.05-98-120.11-2.48-27.07-2.92-140.4,65.38-181C138.63,87.71,149.25,91.63,184.18,91.63Z" transform="translate(-41.08 -85.77)"/><path class="cls-5" d="M432.7,278.76c-3.11-28.83-20.27-39.18,4.43-45.42,17.62-4.45,26.57-1.13,31.69,4.57,7.34,8.19,10.45,22.84,9.71,40.23-.76,18,0,21.83-4.42,41.25-2.89,12.62-6,50.23-29.64,38.69-15.73-7.68-33.87-2.59-12.73-43.61C435.27,307.61,433.65,287.55,432.7,278.76Z" transform="translate(-41.08 -85.77)"/><path class="cls-7" d="M788.64,604.9c-1.32-16.13,28.26-26.71,66.06-23.63s69.51,18.66,70.83,34.79-28.25,26.71-66,23.63S790,621,788.64,604.9Z" transform="translate(-41.08 -85.77)"/><path class="cls-5" d="M499.6,538.25c-13-3.07-17-20.75-8.88-39.49s25.29-31.45,38.33-28.38,17,20.75,8.89,39.49S512.64,541.32,499.6,538.25Z" transform="translate(-41.08 -85.77)"/><path class="cls-3" d="M1027.9,341.44c12.7,26.15,28.2,96.11.58,104.76-101.91,31.92-135.21-87-187.93-89.31-49.91-2.21-106.73,29.73-127.82,29.21-51.3-1.26-35.69-50.71-38.48-115.22s3.62-68.89,106-76.3c69-5,135.8-32,133.61,7.1C906.24,338.1,991.6,266.66,1027.9,341.44Z" transform="translate(-41.08 -85.77)"/><path class="cls-8" d="M393.3,433.85c.21-4.82,7.66-49.12,38.17-67.17,16.18-9.56,40-3.68,46.87,6,38,53.68,97.77,49.72,108.62,51.58,20.24,3.47,118.46,3.41,132.92,25.48,37.49,57.19-13,34-57.22,22.9-60.77-15.29-128.28-7.71-152.25,2.14-19.6,8.06-51.11,68.71-25.44,127.92,24.94,57.53,89.55,140.93,82.55,158.89-6.3,16.18-78.71-29.76-111.81-79.54S390.48,498.29,393.3,433.85Z" transform="translate(-41.08 -85.77)"/><path class="cls-4" d="M634.28,468c22.85,8.33,5.28,55.62-13.38,87.66s-62.35,46.71-85.19,38.39-27.15-47.42.63-68.53S611.43,459.68,634.28,468Z" transform="translate(-41.08 -85.77)"/><path class="cls-3" d="M606.08,498.64c11,4,2.55,26.87-6.47,42.36s-30.12,22.57-41.16,18.54-13.11-22.91.31-33.11S595,494.62,606.08,498.64Z" transform="translate(-41.08 -85.77)"/><path class="cls-9" d="M587.73,537a2,2,0,0,0-1.58.26.76.76,0,0,0-.35.42.65.65,0,0,0,.26.64,1.47,1.47,0,0,0,.68.25,5.23,5.23,0,0,0,1.18.1C589.52,538.58,588.85,537.25,587.73,537Z" transform="translate(-41.08 -85.77)"/><path class="cls-9" d="M585.82,543.87a.53.53,0,0,0,0,.25.59.59,0,0,0,.31.38" transform="translate(-41.08 -85.77)"/><path class="cls-5" d="M711.14,160.73c64.91,10.79,131.39-47.16,127.65-21.44-2.61,18,14.24,34.22-1.14,40.08-22.08,8.4-60.52,13.34-105.7,14.73-46.85,1.44-56.79,2.7-106.87.6-32.52-1.37-130.06.12-97.56-25.13,21.63-16.8,13,15.45,109.23-15.15C653.5,149.09,694.35,157.94,711.14,160.73Z" transform="translate(-41.08 -85.77)"/><path class="cls-6" d="M844.58,226.6c18-2,31.49,15.81,30.08,39.79s-17.15,45-35.17,47-31.49-15.82-30.08-39.8S826.56,228.6,844.58,226.6Z" transform="translate(-41.08 -85.77)"/><path class="cls-7" d="M853.72,327.8c2.66-19.55,35.5-26.71,73.34-16s66.36,35.25,63.7,54.8-35.5,26.71-73.34,16S851.06,347.35,853.72,327.8Z" transform="translate(-41.08 -85.77)"/><path class="cls-10" d="M959.13,401c13.8,25.27-10.56,76.25-15.82,109.64-6.34,40.23,45.12,112.8,4,164.2-37.41,46.78-134.34,6.32-172.71-5.73-14.44-4.54-56.2,16.53-106.91,12.89-50.38-3.61-90-21.92-105.75-33.31C492,598.05,494.27,446,485.1,422.17c-15.75-40.88-77.44-48.58-55.71-89.53,16.86-31.78-5.83-64,47.24-62.37,75.59,2.27,102.66,6.57,183.68-8.21,25.9-4.73,75.55-.89,104.31-10,40.26-12.78,83.65-40.94,103.12-32.45,30.23,13.18-7,71.6,10.09,119.52C897.69,394.91,942.6,370.68,959.13,401Z" transform="translate(-41.08 -85.77)"/></svg>