<svg id="Layer_1" data-name="Layer 1" xmlns="http://www.w3.org/2000/svg" viewBox="0 0 1037.65 718.1"><defs><style>.cls-1,.cls-2,.cls-4{fill:none;stroke-miterlimit:2.61;}.cls-1,.cls-2{stroke:#000;stroke-width:2.83px;}.cls-2,.cls-3,.cls-4{fill-rule:evenodd;}.cls-3{fill:#fff2cc;}.cls-4{stroke:#f0f;stroke-width:2.13px;}</style></defs><title>Biotope_map_out</title><circle class="cls-1" cx="370.87" cy="295.88" r="57.1" transform="translate(-83.36 -23.13) rotate(-9.14)"/><path class="cls-2" d="M1064.66,361.72c16.48,42.52,18.38,88-3.4,136.92-18.41,41.36,43,169.77-21.57,251.67-58.77,74.49-175.53,52.87-236.29,33.78-22.88-7.19-63.87,17.79-144.2,12C579.41,790.4,526.92,765.77,502,747.73,391.14,667.61,405,468,370.81,446.38c-49.81-31.6-140.95-26.28-206-36.82-33.86-5.48-74.53-21.51-96.66-55.65-24.41-37.63-25.6-91-25.6-102,0-29.79,18.33-157.16,98.36-163.81,22.72-1.88,116.08-6.72,223.81,58.77,24.93,15.15,51.1,12.5,144.2,11.47,23.06-.26,66,10.84,85,2.73,25.11-10.73,39.16-14.31,76.95-12.28,47.54,2.54,70.39,18.6,114-1,63.78-28.62,105.4-38.49,136.28-25.18,37.64,16.22,43.06,39.33,36.83,106.82C950.3,311.52,1037.12,290.71,1064.66,361.72Z" transform="translate(-41.08 -85.77)"/><path class="cls-3" d="M535.71,594.05" transform="translate(-41.08 -85.77)"/><path class="cls-4" d="M562,648.64" transform="translate(-41.08 -85.77)"/></svg>