<svg id="Layer_1" data-name="Layer 1" xmlns="http://www.w3.org/2000/svg" viewBox="0 0 1037.73 718.08"><defs><style>.cls-1{fill:#f0f;}</style></defs><title>lake</title><path d="M913.51,803.86c-44.9,0-88-11.35-110.54-18.42-9.29-2.92-21.94-.28-39.46,3.38-24.37,5.09-57.74,12.06-104.41,8.72-36-2.58-69.52-9.2-99.55-19.65-22.76-7.93-43.51-18.23-58.43-29C429.67,697.22,410,597.74,395.66,525.11,387.92,486,381.81,455,370.05,447.58c-34.16-21.67-87.84-25.82-139.75-29.83-23.47-1.82-45.64-3.53-65.76-6.79C144,407.64,93.38,395.5,66.91,354.69c-24.58-37.9-25.83-92.28-25.83-102.8,0-16.63,5.23-56.07,19.27-91.11,18.29-45.63,46.09-71.26,80.39-74.11,33.77-2.8,123.26-2.68,224.67,59,21.4,13,44,12.68,111,11.69,9.83-.14,20.6-.3,32.47-.43,8.25-.1,18.9,1.24,30.17,2.65,19.84,2.48,42.32,5.28,54.24.19,26.25-11.21,40.38-14.38,77.58-12.39,14.89.8,27.58,3,38.77,4.84,25.11,4.26,44.94,7.62,74.56-5.67,68.16-30.59,108-37.88,137.42-25.19,39.22,16.9,43.81,41.85,37.69,108.26-4.11,44.59,19.84,58,47.58,73.45,21.87,12.22,46.67,26.06,59.12,58.17,18.17,46.87,17,92-3.42,138-6.48,14.56-2.69,41.06,1.69,71.74,8.12,56.77,18.22,127.42-23.45,180.24-26.07,33-65.92,50.71-118.46,52.52Q917.92,803.86,913.51,803.86ZM793.7,781.36a33.71,33.71,0,0,1,10.12,1.37c24.44,7.68,66.21,18.33,109.68,18.33,45.9,0,93.7-11.86,125.08-51.63,40.92-51.87,30.91-121.85,22.87-178.08-4.45-31.12-8.29-58-1.48-73.29,20.15-45.26,21.25-89.69,3.36-135.83-12.07-31.15-35.35-44.14-57.86-56.71-27.41-15.31-53.3-29.76-49-76.19,2.86-31,3.63-55.08-1.9-72.08-5-15.39-14.88-25.05-34.08-33.32-28.64-12.34-67.79-5.05-135.14,25.17-30.41,13.65-50.61,10.22-76.19,5.89-11.12-1.89-23.72-4-38.45-4.81-36.64-2-50.53,1.16-76.31,12.17-12.63,5.39-34.53,2.65-55.71,0-11.17-1.4-21.73-2.7-29.79-2.63-11.86.14-22.64.29-32.46.44-67.61,1-90.38,1.32-112.48-12.11C263.24,86.85,174.47,86.71,141,89.5c-23.12,1.92-55.42,16-78,72.34-13.89,34.66-19.06,73.63-19.06,90,0,10.38,1.22,64,25.37,101.25,25.85,39.86,75.54,51.76,95.7,55,20,3.23,42.12,4.94,65.53,6.75,52.26,4,106.29,8.22,141,30.26,12.78,8.11,18.69,38,26.87,79.38,14.26,72.17,33.8,171,104.34,222,52.6,38,133.1,46.45,156.52,48.13,46.28,3.32,79.43-3.61,103.63-8.66C775.35,783.45,785.39,781.36,793.7,781.36Z" transform="translate(-41.08 -85.78)"/><path d="M909.15,186.18m-71,.15.17,1,70.18-.38" transform="translate(-41.08 -85.78)"/><path class="cls-1" d="M561.34,649.5m1.24-1.73" transform="translate(-41.08 -85.78)"/></svg>