<?xml version="1.0" encoding="UTF-8"?>
<svg viewBox="0 0 1038.43 720.33" xmlns="http://www.w3.org/2000/svg">
<defs>
<style>.a{fill:none;}.a,.b,.c,.d,.e,.f,.g{stroke:#000;stroke-miterlimit:10;}.b{fill:#9ff;}.b,.c,.d,.e,.f,.g{fill-rule:evenodd;}.c{fill:#fff2cc;}.d{fill:#d0cece;}.e{fill:#9c9;}.f{fill:#69f;}.g{fill:#696;}</style>
</defs>
<title>Biotope_map_all</title>
<path class="a" transform="translate(-40.75 -84.02)" d="m370.87 354.39c-75.43 0-75.39-117 0-117s75.45 117 0 117z"/>
<path class="a" transform="translate(-40.75 -84.02)" d="m913.51 803.86c-30.38 0-60.73-4.92-90.09-12.56-9.17-2.39-18.58-6.46-28.07-7.08-12.37-0.8-25.51 3.34-37.49 5.77-56.34 11.44-113.25 10.57-169.17-3.43-55.53-13.91-104.15-40.56-135.69-89.49-26.82-41.64-40.24-90.45-50.54-138.41-5.46-25.51-9.46-51.41-16.04-76.66-6.62-25.45-14.87-36.55-40.07-45.83-58.21-21.44-122.71-14.89-183-25.4-43.22-7.54-84.88-29.27-104.35-70.34-17.21-36.35-21.31-79.81-15-119.27 7.7-47.24 26.64-110.66 76.17-129.77 32-12.32 75.12-5.49 107.55 0.61a396.75 396.75 0 0 1 80.38 24.31c23.67 10 44.93 25.82 68.7 34.93 41.79 16 93.85 3.83 137.28 5.76 26.69 1.19 55.4 11 81.44 1.79 22.53-8 41.84-12.53 66-11.83 26.49 0.76 52.24 8.41 78.61 9 30.9 0.66 57.77-16.47 86-26.61 36.13-12.95 79.11-23.52 112.64 1.61 36.44 27.33 16.86 77.63 20.25 115.24 4.35 48.32 59.55 55.27 88 85.32 20.63 21.77 29.18 54.15 31.25 83.42 2.3 32.56-8.44 57.54-17.13 87.87-7.46 26 1.64 57.45 5.17 83.5 3.67 27.05 6.57 54.48 4.43 81.8-4.17 53-31.45 100.79-81.66 122.06-23.7 10.05-49.85 13.69-75.57 13.69z"/>
<path class="b" transform="translate(-40.75 -84.02)" d="m911.26 567.81c36.23 6 107.33 10.35 103.67 61.58-1.76 24.6-10.95 49.12-17.48 72.72-5.94 21.51-14.39 57.36-42.46 58.19-23.29 0.68-47.72-17.93-68-27.2-33.7-15.41-68.77-21.17-105.54-23.9-13.71-1-33.38 1.3-44.36-8.49-9.7-8.66-8.16-22.73-7.78-34.49 0.61-19.13 0-38.2-0.17-57.33-0.09-13.77-1.15-31.26 6.54-43.47 14.09-22.38 54.25-14.18 75.68-12.08 33.5 3.29 66.71 8.94 99.9 14.47z"/>
<path class="c" transform="translate(-40.75 -84.02)" d="m808.06 361.64c36.49-11 63.85 12 87.66 36.59 25.24 26 47.53 55.07 67.81 85.1 9.61 14.22 78.85 113.41 25.77 107.14-31.5-3.73-62.4-18.57-92.93-26.74-36.42-9.73-73.58-15-111.31-14.18-11.24 0.24-40.28 7.22-49.2-2.58-9.39-10.3 3.57-31.94 3.38-43.21-0.34-19.17-10.88-45.35-24.46-58.61-17.91-17.47-54.08-14.49-77.28-17.07-31.27-3.47-63.14-5.91-94-11.92-29.58-5.76-51-25.7-64.32-52.21-7.56-15.05-12.35-31.41-15.2-48-3.18-18.5-0.08-39.08-6.41-56.73-6.73-18.78-38.94-44.11-14-62.31 17.33-12.65 48.51-9.1 68.47-8.4 29.52 1 58.89 4.25 88.34 6.39 19.26 1.41 53.68-6.14 65.71 12.61 15.34 23.91 3.82 68 3.43 94.46-0.3 21.07-1.29 47.38 6.13 67.46 6.53 17.67 23.78 22 41 20.67 30.94-2.42 61.98-19.59 91.41-28.46z"/>
<path class="d" transform="translate(-40.75 -84.02)" d="M956,746.57c32.25,0,45-42.82,50.39-67.78a270,270,0,0,0,2.52-99C996.8,502.7,937.66,450.25,893.74,390.09c-5.25-7.2-14.12-16.86-14.25-26.26-.06-4.79,3.19-11.95,4.28-16.69,6.94-30,13.7-60.13,21-90.09,4.56-18.77,5.87-55.74,30.41-57.24,23.23-1.42,17.64,10.35,16.05,28.05-1.22,13.62-2,28.67,4,41.37,11.58,24.52,46.19,36.93,67.43,51,17.45,11.58,26.4,22,34.35,41.44,6.21,15.21,14.53,32.6,17.7,48.8,6.71,34.33-13.68,66.39-20.62,98.74-2.72,12.65,4.37,24.52,5.55,37.51,1.57,17.19-.24,34.31.35,51.49,1.26,36.7,7.24,72.94-6.37,108.16-17.43,45.09-46,76-94.35,85.58-37.3,7.41-82.89,7.17-119.53-4-23.33-7.13-41.07-10.14-66.49-8.65-10.46.61-52,12.64-57.69.24-3.52-7.72,4.51-24.89,6.58-32.11,2.48-8.65,2.88-19.16,6.43-27.38,9.95-23,57.95-11.41,75.54-8.39,35.18,6.05,69.3,18.58,104,26.93C923.6,742.33,939.88,746.57,956,746.57Z"/>
<path class="e" transform="translate(-40.75 -84.02)" d="M184.18,91.63c37.24,0,75.36,12.33,109.6,25.91a437.48,437.48,0,0,1,56.37,27.28c20,11.5,40.55,14.46,62.88,19.38,11.94,2.64,23.09,1.54,35.33.94,23.64-1.16,47.34-1.86,71-.88,32.95,1.36,64.75,9.66,96.63-2.51,34-13,60.75-5.77,95.37-.62,20.43,3,41.78,3.3,61.8-2.5,19.41-5.62,35.53-18.56,55.05-24.42,35-10.51,74.21-22.19,105.59,2.09,14.47,11.2,26.17,30.31,22.61,49.93-2.49,13.7-17.41,12.53-28.85,10.76-12.55-1.94-16.95-7.84-25.26-16.16-17.22-17.25-51.76-.79-72.8,3-90.7,16.28-181.19,9.43-272.56,4.67-19.24-1-38.49-1.63-57.72-2.73-13.62-.77-28.84-2.51-42.05,2-23.7,8-22.81,38.48-44.32,45.44-21.74,7-46.09-1-68.25,6-27.88,8.82-40,37.73-35,65.23,6.31,35,32,54.9,66.44,53.15,15.94-.8,31.72-3.56,47.58-5.15,12.3-1.24,32.8-4.73,43.55,3.88,7.43,6,9.36,17.43,13.64,25.51C487.9,395.12,496.37,407,510.4,413c23.94,10.28,52.39,12.1,78,14.19,17.15,1.4,34.45,1.22,51.56,2.74,23.76,2.11,62.29,6.09,79.61,25.32,12.7,14.11,18.13,38.87,16.5,57.22-2.53,28.44-10.74,54.6-10.12,83.74.75,35.27,2,70.38-.25,105.63-1.52,23.53-1.19,62.59-18.67,81.2-9.94,10.59-29.5,9.42-42.79,9.35-27-.14-54.21-4.5-80.2-11.76-59.73-16.68-113.2-51-139.6-108.71-25.28-55.22-38.31-116.2-52-175.08-3.23-13.92-4.27-37.88-12.68-49.91-10.68-15.28-36-20.41-53.22-23.67C286.81,415.77,246.27,413,206,410.12c-29.43-2.1-57.94-2.74-85-15.89-46.57-22.66-71.38-69.49-73.44-119.94-2.14-52.7,7.24-117,46-156C120.44,91.27,148.55,91.63,184.18,91.63Z"/>
<path class="d" transform="translate(-40.75 -84.02)" d="m432.7 278.76c-1.08-10-12.17-28.43-8.17-37.93 4.73-11.23 30.7-11.82 39.66-6.66 26.55 15.27 13.09 70.46 8.17 94.3-2 9.65-4.06 25.74-14.31 30.46-7.1 3.27-21.69-2.26-28.23-6.33-10.06-6.26-8.13-14.33-4.18-24.87 6.66-17.73 9.15-29.64 7.06-48.97z"/>
<path class="f" transform="translate(-40.75 -84.02)" d="m788.64 604.9c-3.24-39.68 134.8-30.82 136.89 11.16 2.03 40.6-133.53 30.12-136.89-11.16z"/>
<path class="d" transform="translate(-40.75 -84.02)" d="m499.6 538.25c-32.84-7.73-0.57-76.11 29.45-67.87 33.03 9.08 0.43 74.9-29.45 67.87z"/>
<path class="b" transform="translate(-40.75 -84.02)" d="M1027.9,341.44c10.87,22.38,31.9,86.93,3.12,103.73-33.68,19.66-79.53-.35-105.79-22.57-22.92-19.39-42.11-50.43-70.5-62.3C812,342.43,762.35,377.94,721,385.16c-49.28,8.61-47.29-42.74-46.65-76.64.4-20.91-1.44-41.94-.46-62.81.52-11.06,2-22.86,10.08-31.13,9.15-9.35,23.82-11.94,36.14-14,25.05-4.22,50.54-4.6,75.74-7.47,27.5-3.13,54.7-10,82.32-11.85,16.17-1.08,33.85-.58,35.68,18.75,3.58,37.6-3.64,78.56,39.42,94.3C983.81,305.44,1012.11,308.9,1027.9,341.44Z"/>
<path class="g" transform="translate(-40.75 -84.02)" d="M393.3,433.85c1.52-35,43.5-98.47,82.77-63.71,10.1,8.93,16.73,20.62,27.9,28.91a118.22,118.22,0,0,0,33.21,17.09c15.55,5.17,31.22,6.32,47.37,7.83,36.31,3.38,74.22,3.15,109.64,12.51,19,5,32.84,15.6,37.65,36,4.57,19.39-16.6,14.17-28.76,11.25-27.4-6.58-53.45-15.38-81.73-18.19-30-3-61.28-2.52-90.91,3.55-21.29,4.36-32.9,12.68-42.71,32.54a122.68,122.68,0,0,0-7.28,88.76c15.43,50.8,53.08,93.83,77.39,140.44,3.41,6.54,16.58,27.34,6.9,33.45-11.57,7.31-40.68-15.94-48.73-21.75-48.27-34.84-74.8-79.26-92.57-135C406,552.88,390.77,491.68,393.3,433.85Z"/>
<path class="c" transform="translate(-40.75 -84.02)" d="m634.28 468c30.48 11.11-5.76 76.91-16 91.74-15.72 22.88-57.67 48.35-85.9 32.83-12.67-7-16.94-22.7-14.88-36.21 3-19.56 18-30 32.29-41.53 18.06-14.56 57.84-56.53 84.49-46.83z"/>
<path class="b" transform="translate(-40.75 -84.02)" d="m606.08 498.64c20.19 7.36-18 78.17-49.15 60.09-16.58-9.61-3-28.22 6.85-36.26 9.03-7.37 29-28.67 42.3-23.83z"/>
<path class="d" transform="translate(-40.75 -84.02)" d="m711.14 160.73c31.53 5.24 62.71-5.37 91.52-17.12 10.16-4.14 32-18.71 36.13-4.32 1.88 6.53 2 15.59 3.65 22.62 1 4.2 3 9.12 0.71 13.28-5.4 9.73-31.81 11.4-41.37 12.94-35.4 5.72-71.47 6.14-107.23 7.23-48.43 1.47-101.33 2.65-149.36-5.2-10.88-1.78-33.22-6.25-18.72-19.71 7.48-6.94 13.74-6 22.82-4.26 23.12 4.37 45.9-0.07 68.4-6.14 16.71-4.5 29.33-8.17 46.7-6.61 15.73 1.42 31.19 4.7 46.75 7.29z"/>
<path class="e" transform="translate(-40.75 -84.02)" d="m844.58 226.6c45.39-5 35.55 82.77-5.09 86.83-45.66 4.57-35.3-82.35 5.09-86.83z"/>
<path class="f" transform="translate(-40.75 -84.02)" d="m853.72 327.8c6.67-49 144.49-10 137 38.81-7.49 49.28-143.61 9.78-137-38.81z"/>
<path class="a" transform="translate(-40.75 -84.02)" d="m891.46 697.78c-32.57 0-64.6-10.13-95.18-20.36-11.49-3.85-21.89-8.83-34.14-7.22-16.7 2.18-32.93 7.82-49.59 10.45-50.23 8-115.5-1.4-156.1-35-46.45-38.43-56.84-110.19-64.07-166.21-3.42-26.51-2-55.49-20.91-76.39-15.59-17.22-52.6-32.23-47.11-60.24 2.86-14.55 9.89-27.33 12.1-42.47 1.19-8.17 1.91-17.13 8.15-23.27 8.16-8 21.48-7.93 32.05-7.86 16.82 0.1 33.68 1.24 50.49 1.79 26.29 0.86 52.49 0.8 78.69-1.92 31.85-3.32 62.75-9.86 94.84-11.05 35-1.29 64.38-5.89 96.73-19.84 18.3-7.9 63-36 79.48-12.42 14 20-2.64 59.76-2.7 82-0.08 28.1 10.89 57.1 38.42 68.21 11.55 4.66 24.81 5.51 35.51 12.16 14.36 8.92 17.18 24.22 15.85 40-3.16 37.68-25.45 71.61-17.63 110 6.81 33.45 22.47 66.78 17.18 101.67-5.77 38.05-35.18 57.96-72.06 57.97z"/>
</svg>
