<?xml version="1.0" encoding="UTF-8"?>
<!DOCTYPE svg PUBLIC "-//W3C//DTD SVG 1.1//EN" "http://www.w3.org/Graphics/SVG/1.1/DTD/svg11.dtd">
<!-- Creator: CorelDRAW X8 -->
<svg xmlns="http://www.w3.org/2000/svg" xml:space="preserve" width="20cm" height="20cm" version="1.1" style="shape-rendering:geometricPrecision; text-rendering:geometricPrecision; image-rendering:optimizeQuality; fill-rule:evenodd; clip-rule:evenodd"
viewBox="0 0 20000 20000"
 xmlns:xlink="http://www.w3.org/1999/xlink">
 <defs>
  <style type="text/css">
   <![CDATA[
    .str0 {stroke:black;stroke-width:35.28}
    .fil0 {fill:none;fill-rule:nonzero}
   ]]>
  </style>
 </defs>
 <g id="Layer_x0020_1">
  <metadata id="CorelCorpID_0Corel-Layer"/>
  <g id="_2614249094432">
   <path class="fil0 str0" d="M13345 9264c-304,-538 -912,-889 -1530,-883 -286,2 -582,73 -851,-23 -128,-45 -241,-127 -365,-184 -569,-264 -1225,12 -1844,112 -103,17 -217,27 -306,-27 -69,-41 -112,-113 -145,-185 -184,-400 -154,-924 -494,-1204 -158,-130 -368,-178 -571,-201 -525,-59 -1064,23 -1548,235 -227,99 -449,233 -592,436 -113,159 -171,351 -202,544 -160,991 345,1961 888,2805 108,168 219,337 271,529 62,227 35,470 -26,697 -158,583 -548,1099 -1066,1410 898,25 1755,-703 1876,-1593 81,-594 -130,-1184 -280,-1764 -66,-255 -119,-536 -4,-774 96,-198 291,-327 477,-446 57,-37 119,-75 187,-79 89,-6 171,46 242,101 151,118 287,259 461,337 175,78 407,73 528,-75l90 368c55,223 113,453 250,637 289,389 844,468 1323,396 479,-71 939,-259 1422,-279 500,-22 998,141 1417,414 167,109 355,242 549,191 239,-64 320,-378 256,-617 -64,-240 -222,-444 -299,-679 -40,-120 -62,-254 -151,-343 -89,-89 -278,-85 -309,37"/>
   <path class="fil0 str0" d="M13176 9879c41,-61 21,-148 -30,-200 -51,-52 -126,-74 -198,-82 -102,-11 -211,6 -295,66 -84,59 -137,167 -116,268 31,139 182,215 322,245 89,19 184,27 271,-1 87,-29 164,-101 177,-192 13,-91 -57,-191 -148,-193"/>
   <path class="fil0 str0" d="M11759 8804c61,-83 16,-198 -7,-299 -45,-201 12,-410 73,-608 61,-199 130,-404 274,-554 108,-113 264,-204 289,-358"/>
   <path class="fil0 str0" d="M12817 7201c4,0 8,0 12,1 47,9 71,74 53,120 -20,51 -70,82 -116,110 -109,65 -210,145 -327,60 40,-24 379,-291 378,-291z"/>
   <path class="fil0 str0" d="M12216 8065c303,-185 657,-285 1012,-286"/>
   <path class="fil0 str0" d="M11682 10247c-64,157 -64,339 0,496 137,337 522,509 701,826"/>
   <path class="fil0 str0" d="M11688 11117c109,364 519,556 688,896"/>
   <path class="fil0 str0" d="M11405 11073c-82,276 -127,563 -133,851"/>
   <path class="fil0 str0" d="M9193 8475c121,-124 154,-307 166,-479 12,-173 10,-352 80,-509 76,-172 228,-297 380,-408"/>
   <path class="fil0 str0" d="M9595 8395c29,-305 114,-605 249,-880"/>
   <path class="fil0 str0" d="M9878 8309c112,-192 249,-371 406,-529"/>
   <path class="fil0 str0" d="M9182 10273c-179,18 -327,141 -474,245 -309,218 -666,368 -1037,437"/>
   <path class="fil0 str0" d="M9206 10374c-43,120 -71,246 -82,374 -11,122 -7,246 -36,364 -29,119 -101,236 -215,279"/>
   <path class="fil0 str0" d="M9607 10442c-1,-21 -2,-41 -3,-62 166,382 137,842 -76,1200"/>
  </g>
 </g>
</svg>
