<?xml version="1.0" encoding="UTF-8"?>
<!DOCTYPE svg PUBLIC "-//W3C//DTD SVG 1.1//EN" "http://www.w3.org/Graphics/SVG/1.1/DTD/svg11.dtd">
<!-- Creator: CorelDRAW X8 -->
<svg xmlns="http://www.w3.org/2000/svg" xml:space="preserve" width="20cm" height="20cm" version="1.1" style="shape-rendering:geometricPrecision; text-rendering:geometricPrecision; image-rendering:optimizeQuality; fill-rule:evenodd; clip-rule:evenodd"
viewBox="0 0 20000 20000"
 xmlns:xlink="http://www.w3.org/1999/xlink">
 <defs>
  <style type="text/css">
   <![CDATA[
    .str0 {stroke:black;stroke-width:35.28}
    .fil0 {fill:none;fill-rule:nonzero}
   ]]>
  </style>
 </defs>
 <g id="Layer_x0020_1">
  <metadata id="CorelCorpID_0Corel-Layer"/>
  <g id="_2614249155328">
   <path class="fil0 str0" d="M5094 5287c-18,26 -36,54 -42,85 -26,120 119,205 241,225 465,76 924,-181 1395,-183 278,-1 556,91 779,257 140,104 258,235 393,344 661,534 1667,455 2388,6 282,-175 537,-401 847,-517 355,-133 752,-109 1121,-19 354,87 720,256 887,580 193,371 63,834 -162,1187 -596,932 -1870,1362 -2909,982 -512,-188 -944,-539 -1416,-812 -472,-273 -1035,-474 -1558,-319 -460,137 -800,521 -1080,911 -321,446 -603,933 -724,1469 -121,536 -66,1129 242,1584 393,581 1110,838 1788,1013 437,113 883,207 1333,191 880,-31 1703,-479 2582,-530 351,-21 782,84 876,423 69,250 -85,506 -266,691 -521,534 -1295,766 -2040,762 -746,-4 -1474,-220 -2175,-475 -541,-197 -1092,-420 -1666,-399 -574,21 -1184,368 -1300,931 -8,39 -9,89 27,108 21,11 48,5 71,-3 245,-90 343,-384 545,-549 249,-202 609,-176 924,-116 969,182 1884,570 2828,856 943,285 1955,467 2911,225 469,-118 932,-356 1194,-763 422,-655 174,-1592 -414,-2103 -589,-511 -1425,-653 -2201,-572 -636,66 -1252,265 -1888,343 -635,77 -1327,16 -1830,-380 -172,-135 -319,-309 -393,-515 -129,-362 -20,-769 166,-1104 280,-503 778,-925 1353,-946 400,-15 780,161 1141,333 470,223 940,446 1410,669 475,225 957,453 1475,548 517,94 1083,42 1515,-258 534,-371 769,-1036 938,-1664 136,-510 252,-1036 206,-1562 -46,-526 -276,-1058 -709,-1360 -339,-236 -767,-310 -1181,-316 -873,-11 -1747,262 -2457,768 -407,289 -809,670 -1308,671 -616,2 -1046,-547 -1519,-860 -213,-141 -442,-341 -688,-411 -283,-79 -591,-67 -870,19 -311,95 -595,286 -780,555z"/>
   <path class="fil0 str0" d="M5521 5212c-42,95 -21,219 62,281 76,56 181,50 271,24 114,-33 219,-96 303,-180 269,-271 -472,-499 -636,-125z"/>
  </g>
 </g>
</svg>
