<?xml version="1.0" encoding="UTF-8"?>
<!DOCTYPE svg PUBLIC "-//W3C//DTD SVG 1.1//EN" "http://www.w3.org/Graphics/SVG/1.1/DTD/svg11.dtd">
<!-- Creator: CorelDRAW X8 -->
<svg xmlns="http://www.w3.org/2000/svg" xml:space="preserve" width="500px" height="500px" version="1.1" style="shape-rendering:geometricPrecision; text-rendering:geometricPrecision; image-rendering:optimizeQuality; fill-rule:evenodd; clip-rule:evenodd"
viewBox="0 0 500 500"
 xmlns:xlink="http://www.w3.org/1999/xlink">
 <defs>
  <style type="text/css">
   <![CDATA[
    .str0 {stroke:black;stroke-width:1.00006}
    .fil0 {fill:none;fill-rule:nonzero}
   ]]>
  </style>
 </defs>
 <g id="Layer_x0020_1">
  <metadata id="CorelCorpID_0Corel-Layer"/>
  <path class="fil0 str0" d="M270 454c-5,0 -6,-6 -6,-10 2,-43 -1,-87 -4,-130 0,-7 -1,-14 -2,-20 -5,-20 -19,-36 -32,-51"/>
  <path class="fil0 str0" d="M261 260c-3,-2 -6,-5 -8,-9 -6,-10 -14,-20 -23,-29 -4,-4 -9,-8 -12,-13 0,-1 1,-3 1,-3"/>
  <path class="fil0 str0" d="M269 274c-1,1 -1,1 -2,1 7,-10 8,-23 14,-34 3,-6 8,-12 12,-18 7,-10 13,-21 19,-32"/>
  <path class="fil0 str0" d="M284 217c-3,-2 -2,-5 -1,-7 8,-16 16,-33 25,-49 2,-5 5,-11 10,-15 1,0 1,-1 1,-2 0,-1 -2,0 -1,1"/>
  <path class="fil0 str0" d="M266 228c-1,2 -3,3 -4,2 -1,0 -2,-2 -3,-3 -10,-15 -17,-30 -22,-47 -1,-6 -2,-12 -5,-17 -3,-5 -6,-9 -8,-13"/>
  <path class="fil0 str0" d="M265 159c-3,0 -3,-3 -3,-6 3,-31 15,-60 27,-89"/>
  <path class="fil0 str0" d="M256 104c0,-5 -1,-9 -3,-14 -4,-7 -9,-14 -14,-21 -4,-7 -8,-15 -8,-23"/>
  <path class="fil0 str0" d="M209 50c1,-1 3,-2 5,-2 -5,10 5,21 10,30 1,2 1,4 2,6 0,2 -1,4 -1,6 -3,12 -6,24 -8,37 -1,2 -2,5 -1,7 1,3 3,4 4,6 2,4 0,9 -3,12 -2,3 -6,5 -9,8 -7,8 -9,20 -3,28 1,3 3,5 3,8 0,4 -3,7 -6,10 -6,6 -11,15 -13,24 0,3 -1,5 0,8 3,7 13,8 20,10 9,4 16,15 15,25"/>
  <path class="fil0 str0" d="M295 266c10,-27 22,-54 37,-79 3,-5 6,-11 5,-17 0,-4 -2,-7 -4,-11 -3,-9 1,-21 -4,-30 -3,-5 -8,-8 -11,-13 -8,-11 -4,-26 -9,-39 -6,-16 -25,-24 -42,-25 -5,-1 -11,-1 -16,-3 -4,-3 -8,-7 -12,-9 -8,-4 -18,-1 -23,5"/>
 </g>
</svg>
