<?xml version="1.0" encoding="utf-8"?>
<!-- Generator: Adobe Illustrator 19.0.0, SVG Export Plug-In . SVG Version: 6.00 Build 0)  -->
<svg version="1.1" id="Layer_1" xmlns="http://www.w3.org/2000/svg" xmlns:xlink="http://www.w3.org/1999/xlink" x="0px" y="0px"
	 viewBox="-55 147 500 500" style="enable-background:new -55 147 500 500;" xml:space="preserve">
<style type="text/css">
	.st0{fill:none;stroke:#000000;stroke-width:1.0001;}
	.st1{fill:none;stroke:#000000;stroke-width:1.2761;}
</style>
<g id="Layer_x0020_1">
	<path class="st0" d="M254,165c-3.1,0.8-50.8,32.5-60,34.4c-11.1,2.3-15.5-5-23.4,6.8c-4.8,7.2-7.7,15.2-13.1,22.1
		c-14.4,18.3-23.4,31.8-22.4,56.2c1,24.7,3,48.3,0.5,73c-5.2,52.2-12,103.4-12.2,156.1c-0.1,26.4,0.6,52.8,1.6,79.1
		c0.3,9.2-2.3,24,2,32.4c4.4,8.6,16.2,7.7,24,6c-1.4-12.4,8.1-24.6,11.5-36.1c4.3-14.8,5.8-30.4,7.6-45.7c3.7-32.4,6.1-65,7.2-97.7
		c2.4-65.6-0.2-131.3-7.3-196.5c-2-10-7-23-17-22"/>
	<path class="st0" d="M253.6,590c-3.1,5.5-9.8,7.4-13.3,2.1c-12.5-19.5-18.6-47.4-22.1-68c-5.1-29-5.5-58.6-4.2-87.9
		c1.4-30.5,4.5-60.9,5.6-91.4c1.2-33.4-6-66.3-4.6-98.8C278.5,182.5,307,493.8,253.6,590z"/>
	<line class="st0" x1="146" y1="271" x2="146" y2="275"/>
	<path class="st0" d="M159,300c-2-2-5,0-5,3c2,1,5,2,8,1c2-1,1-6-2-6"/>
	<path class="st0" d="M158,357c-3-1-6,2-5,5"/>
	<path class="st0" d="M144,411c-2.1,0-2-2-2,3"/>
	<path class="st0" d="M164,424c-1-1-2,0-1,1"/>
	<path class="st0" d="M153,472c-1-1-3-2-3-4c-3,0-5,4-4,6"/>
	<path class="st0" d="M129,516c-1-1,1-3,2-2c1,0,1,2,0,2"/>
	<path class="st0" d="M155,534c-1,2-1,4-2,6"/>
	<line class="st0" x1="137" y1="571" x2="139" y2="571"/>
	<path class="st0" d="M240,543c0.1,0.6-1,1,0,2c1-1,2-3,1-4"/>
	<path class="st0" d="M239,477c0-1,0-3-1-4c-2,1-3,3-3,5"/>
	<path class="st0" d="M251,431c-1-1-4.1,0.2-4,1"/>
	<path class="st0" d="M236,497c1.4-2.9-3.6-3.9-5-3c-1.9,1.2,1.5,6.5,4,4"/>
	<path class="st0" d="M232,408c-2,2-3,5-4,7"/>
	<path class="st1" d="M251.7,350.1c-1.7-1.9-7.4,0-6.7,1"/>
	<path class="st0" d="M233,361c-1-1-2,0-2,1"/>
	<path class="st0" d="M237,320c-1,0-2,1-2,2"/>
	<path class="st0" d="M240,281c1-1-1-2-1-1"/>
	<path class="st0" d="M233,248c-0.7,0-1.4,0.5-2,1.1c-0.5,0.5-0.5,1.3,0,1.8l2.1,2.1"/>
	<path class="st0" d="M192,206c12-1,25,6,30,17"/>
</g>
</svg>
