<?xml version="1.0" encoding="utf-8"?>
<!-- Generator: Adobe Illustrator 19.0.0, SVG Export Plug-In . SVG Version: 6.00 Build 0)  -->
<svg version="1.1" id="Layer_1" xmlns="http://www.w3.org/2000/svg" xmlns:xlink="http://www.w3.org/1999/xlink" x="0px" y="0px"
	 viewBox="-55 147 500 500" style="enable-background:new -55 147 500 500;" xml:space="preserve">
<style type="text/css">
	.st0{fill:none;stroke:#000000;stroke-width:1.0001;}
</style>
<path class="st0" d="M112,178c1-2,0-5-2-6c-2.1,30,26.5,65,40.4,90c5.7,10.2,14.1,21.4,16.6,33c3.2,14.8-4.7,31.2-5.8,46
	c-2.2,28.6,6.4,56.4,13.8,83.7c4.1,15,8.2,30.2,10.2,45.7c1.7,13.1,5.8,33.1,3.6,30.8c-1.6-1.6-4.4-0.7-4.8,1.5
	c-3.5,20.4-7.4,41.1-8.3,61.8c-0.8,20.2,11.2,40.7,6.2,60.5"/>
<path class="st0" d="M189,469c4.8-9.7-2.9-20.8-4.6-30.2c-2.2-12.1,0.7-24,3.3-35.9c5.7-25.2,6.7-49,5.2-74.8
	c-2.9-52.4,11.6-106.5-1-158.2c-2,2-4,5-6,7"/>
<path class="st0" d="M170,563c-3.6,7.2-9-17.3-9.6-18.8c-4.1-10.3-10.7-19.5-14.6-29.9c-8.1-21.9-10.7-45.5-18.6-67.6
	c-8.1-22.7-15.4-44-17.4-68.2c-0.6-7-3.3-66.5,1.1-66.5"/>
<path class="st0" d="M202,480c10.8-10.8,26.3-17.6,38.1-27.6c12.5-10.6,25.7-22,36.8-34c21.8-23.7,34.8-52.2,37.1-84.4"/>
<path class="st0" d="M184,180c0-4-5-7-9-5c-9.5,2.4-2.8,19.4,7,12c1-3,0-6-2-8"/>
<path class="st0" d="M196,215c4.4-1.1,8.6-3,13-4c2.2-2.2,0.3-8.7,3.8-12.4c3.8-4,14.5-8.1,18.8-2.9c8.9,10.8-22.3,31.2-25.6,14.4"
	/>
<path class="st0" d="M192,269c-11.4-3.8-3.6-10.7-12-17c-4-2-10,1-12,6c-3.8,7.5,6.4,12.1,12,11c2.5-0.5,10.8-7,4-7"/>
<path class="st0" d="M197,248c9-2,18-5,28-8c-6.1,9.2,7.6,22.1,10,9.4c1.7-8.6-13.6-20.4-18-9.4"/>
<path class="st0" d="M191,321c-3.7-0.4-7.3-0.7-11-1c0.3-3.6-1.4-5.6-5-6c-4.5,1.2-7.3,4.2-6.6,9.5c2,16.8,21.8-0.1,11.6-3.5"/>
<path class="st0" d="M157,280c-6.4-1-14.4,3.9-19.4,4.7c-1.6-1.3-0.5-2.2,1.1-2.2c1.2,0,1.6-1.6,0.5-2.1c-7.2-3.2-19,2-19.2,9.6
	c-0.3,10.6,15.1,14.9,20,5c2-3-0.8-9.4-4.8-9.4"/>
<path class="st0" d="M231,466c-2-7.1-2.4-15.7-5-22c-1,0-1,1,0,0"/>
<path class="st0" d="M228,436c-6,2-13-1-17-6c-4.4-8.7,3.4-22,13-15.4c6.7,4.6,11.1,21.8,2,26.4"/>
<path class="st0" d="M270,429c5,2,11,2,16,1"/>
<path class="st0" d="M288,434c-3-1-7,3-7,7c3.2,9.7,24.8,10.3,23-2c0-6.4-11.9-17.6-19-14c-1,1-1,3,0,3"/>
<path class="st0" d="M288,404c-5-4-11-9-16-13"/>
<path class="st0" d="M272,390c0,1-1,1-2,1c-3.6-3.6,0.3-8.5-5-12c-8.5-6.4-14.2,6.4-12.7,12.8c2,8.6,18.3,15.3,15.7,2.2"/>
<path class="st0" d="M306,380c4-0.4,25.2-8.8,27-7l-1,1"/>
<path class="st0" d="M333,375c-6.1,8.2,11.1,15.3,13,3c1.6-10.4-16-14.8-16-6"/>
<path class="st0" d="M310,363c-3.7-1.3-14-9.1-16-9"/>
<path class="st0" d="M295,357c2-11.9-14.3-22.1-22-11.3c-9.5,13.3,12.8,23.8,19,8.3"/>
<path class="st0" d="M191,375c5.2-2.2,13.5-6,18.6-7.5c1-0.3,1.8,0.8,1.3,1.8c-1.1,1.7-1.1,3.9,0.1,5.8c3.9,7.9,21.3-5.4,10.7-14.7
	c-1.1-0.9-2.4-1.5-3.8-1.6c-3.5-0.2-7,1-7.9,4.3"/>
<path class="st0" d="M194,341c10-7,21-13,32-17"/>
<path class="st0" d="M230,322c-17.3,8.6,5.8,14.6,13.2,7.6c11.2-10.6-15.2-22.8-19.2-6.6"/>
<path class="st0" d="M191,297c11,0,21-1,31-4c-10,6.7,20,20.9,19.5,1c-0.5-19.5-18.9-6-24.5,1"/>
<path class="st0" d="M167,390c-2.4,0.2-12.1,5-14.9,5.3c-0.6,0-1.1-0.3-1.3-0.9c-2.6-8.5-17.6-27.2-22.8-11.4
	c-4.4,13.3,17.5,22,21,8"/>
<path class="st0" d="M118,431c1,0,1-1,1-3c-4,3-10.1,5.2-12.2,8c-0.6,0.7-1.6,0.7-2.2,0c-5.5-6.5-19.9-15.4-22.6-2
	c-2.2,13.3,23,16.6,23,4"/>
<path class="st0" d="M112,375c2.7-2,5.7-5.3,8.7-6.7c4.8-2.2,4.6-0.9,9-1.8c4.7-0.9,14.3-1.2,14.3-8.3c0.1-15.3-30-4.1-15.1,5.8"/>
<path class="st0" d="M110,349c-4-2-8-5-13-7"/>
<path class="st0" d="M95,343c1,1-11.7-22-15.9-8.1C74,352,101.4,359.6,97,342"/>
<path class="st0" d="M110,319c0-1.1-12-10-12-11"/>
<path class="st0" d="M99,310c-3.4,3.4-1.9-14.9-2.2-16c-2.4-7.5-11.5-12.8-17.8-5c-7.4,12.4,8.6,23.3,19,15"/>
<path class="st0" d="M135,466c3-6,8-12,13-17"/>
<path class="st0" d="M146,449c0,6.2,15-0.2,15-9c-1-7-9-12-16-10c-6,3-9,12-5,18"/>
<path class="st0" d="M146,505c-7,4-15,7-23,9"/>
<path class="st0" d="M122,518c-5.5-11.1-29.5-22.3-27.3-1c1.9,18.1,28.3,11.5,28.3-5"/>
<path class="st0" d="M179,547c-1.6-1.6,23.5-5.8,25-6c-2,2-1,6,2,8c4,2,10-3,9-8c-2-4-10-5-12,0c1,0,2,0,3,1"/>
<path class="st0" d="M212,476c0-1-1-2-3-2c3,10,8,19,15,26"/>
<path class="st0" d="M227,506c-8.2,2.7-7.9,13.8,0,17c12.4,6.2,17.6-21-3-21c0,1,0,3-1,4"/>
<path class="st0" d="M181,524c-3-1.2-14-5.1-14-9h1"/>
<path class="st0" d="M165,514c1-4,10.8-16-1-16c-7-1-15,7-13,15c3,7,13,10,19,5"/>
</svg>
