<?xml version="1.0" encoding="UTF-8"?>
<!DOCTYPE svg PUBLIC "-//W3C//DTD SVG 1.1//EN" "http://www.w3.org/Graphics/SVG/1.1/DTD/svg11.dtd">
<!-- Creator: CorelDRAW X8 -->
<svg xmlns="http://www.w3.org/2000/svg" xml:space="preserve" width="500px" height="500px" version="1.1" style="shape-rendering:geometricPrecision; text-rendering:geometricPrecision; image-rendering:optimizeQuality; fill-rule:evenodd; clip-rule:evenodd"
viewBox="0 0 500 500"
 xmlns:xlink="http://www.w3.org/1999/xlink">
 <defs>
  <style type="text/css">
   <![CDATA[
    .str0 {stroke:black;stroke-width:1.00006}
    .fil0 {fill:none}
   ]]>
  </style>
 </defs>
 <g id="Layer_x0020_1">
  <metadata id="CorelCorpID_0Corel-Layer"/>
  <path class="fil0 str0" d="M150 30c-15,4 -25,20 -21,35 -18,-1 -36,6 -48,19 -7,7 -12,18 -7,27 9,13 34,15 48,10 -2,8 2,19 8,22 5,-11 -1,-18 1,-18 2,-2 7,9 18,6 0,-9 -11,-14 -7,-14 10,2 25,0 33,-9 8,-9 5,-25 -4,-33 -9,-8 -23,-9 -35,-6 2,-12 7,-27 20,-28 12,0 31,20 38,29 4,7 7,12 4,20 -5,23 -10,51 -10,70 -17,-2 -36,-1 -50,9 -15,9 -23,29 -15,45 8,16 30,20 48,16 -1,6 3,10 8,13 1,-6 -3,-8 -1,-13 1,-1 1,8 11,10 1,-3 -5,-10 -3,-11 9,2 22,2 31,-2 10,-3 19,-10 22,-20 3,-11 -3,-23 -12,-31 -9,-7 -20,-11 -31,-14 -4,-25 -1,-51 9,-74 26,14 47,37 62,62 15,25 26,53 37,80 -25,9 -46,24 -66,40 -10,-17 -35,-23 -51,-12 -16,11 -20,37 -8,52 -4,0 -12,6 -12,10 16,-7 10,1 13,8 5,-1 8,-13 11,-12 5,9 32,20 52,19 9,0 15,-6 17,-14 1,-16 -5,-33 -18,-44 12,-6 40,-29 66,-37l27 84c-13,-2 -28,-4 -38,4 -11,8 -14,32 -12,38 -16,-5 -33,5 -42,19 -4,5 -7,10 -7,16 0,13 14,25 26,21 1,2 -3,14 -2,16 6,-4 7,-14 8,-14 1,0 -1,10 2,13 7,-3 5,-11 7,-10 3,2 14,4 22,4 22,-3 23,-23 10,-38 -6,-7 -14,-13 -18,-22 -6,-12 -1,-28 10,-35 11,-7 27,-5 36,5 2,26 14,50 14,76 0,18 -11,49 -9,51l5 -1c2,0 12,-32 12,-48 0,-31 -17,-83 -24,-114 -3,-9 0,-10 7,-15 15,-7 32,-10 49,-8 3,1 3,6 1,5 -11,0 -22,8 -24,17 -4,15 5,30 17,37 3,2 6,3 10,3 7,0 11,-13 13,-20 0,-1 2,-1 2,0 1,6 7,13 13,13 -1,-4 -1,-8 -3,-12 0,-1 1,-3 2,-3 3,1 6,0 9,-3 3,-3 4,-8 4,-13 1,-14 -1,-30 -11,-41 -9,-11 -29,-14 -38,-3 -3,3 -6,8 -10,9 -3,2 -7,1 -10,1 -9,0 -19,2 -27,6 -8,4 -10,0 -12,-9 -4,-21 -11,-42 -22,-61 -4,-7 -8,-13 -11,-21 -5,-17 5,-35 23,-29 8,3 11,13 8,20 -10,8 -15,23 -9,35 6,12 25,15 33,5 3,0 -5,13 6,15 2,-3 -4,-13 -2,-13 3,5 11,4 15,0 9,-9 9,-37 -1,-46 -9,-7 -22,-3 -32,2 -9,-9 -2,-28 -12,-35 -5,-3 -12,-2 -17,1 -10,5 -15,23 -17,22 -22,-35 -48,-67 -78,-95 13,-9 28,-14 44,-13 -4,12 -4,26 1,38 2,6 6,12 12,13 31,2 18,-21 23,-21 0,12 9,21 14,20 4,0 -6,-13 -6,-21 14,-1 46,-19 50,-34 3,-11 -5,-22 -15,-27 -24,-12 -65,10 -76,26 -17,1 -34,6 -49,14 -4,4 -7,5 -13,-1 -14,-13 -23,-38 -46,-33z"/>
 </g>
</svg>
