<?xml version="1.0" encoding="utf-8"?>
<!-- Generator: Adobe Illustrator 19.0.0, SVG Export Plug-In . SVG Version: 6.00 Build 0)  -->
<svg version="1.1" id="Layer_1" xmlns="http://www.w3.org/2000/svg" xmlns:xlink="http://www.w3.org/1999/xlink" x="0px" y="0px"
	 viewBox="-55 147 500 500" style="enable-background:new -55 147 500 500;" xml:space="preserve">
<style type="text/css">
	.st0{fill:none;stroke:#000000;stroke-width:1.0001;}
</style>
<g id="Layer_x0020_1">
	<path class="st0" d="M179,470l-3-5c-5-7-11-15-19-16c-6,0-12,4-15,8c-4,5-7,11-10,15c-7,10-17,18-29,21"/>
	<path class="st0" d="M177,456c-7-10-20-14-32-12c-16,4-26,21-39,32c-14,11-31,17-48,18c-18,2-35,0-52-3"/>
	<path class="st0" d="M-15,491c10-7,24-8,37-10c26-5,51-16,72-34c10-9,20-19,32-27s27-12,40-7c11,5,18,15,24,25
		c7.4,13.9,12.7,27.8,16.1,42.8c0.2,1,1.6,0.8,1.6-0.2c-0.2-17.8,1.6-35.9,8.3-52.6c7-20,22-37,42-45c10-4,22-5,31,0c5,3,10,7,13,12
		c14,18,19,42,16,65"/>
	<path class="st0" d="M218,493c-1-8,0-16,3-23c3-8,7-15,12-22c15-21,35-40,59-51c8-4,17-7,25-3c9,5,13,15,16,25c3,12,8,24,14,35
		c3,5,6,11,11,14"/>
	<path class="st0" d="M234,487c5-18,20-30,35-40c10-7,22-13,34-16c12-2,26-1,36,7c5,4,9,9,14,13c15,12,36,11,55,5"/>
	<path class="st0" d="M245,484c14-13,33-19,52-17c6,1,12,3,17,6c5,2,8,6,12,10c5,5,9,9,14,14"/>
	<path class="st0" d="M186,495c5-10,5-21,6-32c0-14,3-28,3-41c0-14-3-28-12-39c-12-16-36-21-54-12c-14,8-23,23-34,35
		c-11,13-25,23-40,31c-12,7-25,12-38,13c-14,1-28-1-39-9"/>
	<path class="st0" d="M165,496c10-13,13-30,16-46c5-28,12-56,28-79c14-20,35-35,59-41c8-2,16-3,24-2c7,1,14,5,20,8c5,3,10,6,13,11
		c4,4,6,11,4,16"/>
	<path class="st0" d="M225,496c1-7-1-13-2-20c-2-9-1-18-1-27c1-27-3-53-11-79c-3-11-8-22-16-30s-19-12-30-11c-11,0-21,5-29,13
		c-7,8-11,19-17,28c-9,14-23,26-38,32"/>
	<path class="st0" d="M193,494c2-7,3-13,4-19c4-30,8-59,12-88c4-26,8-53,26-72c11-12,26-20,43-21c16-2,33,4,45,14c7,5,12,11,20,13"
		/>
	<path class="st0" d="M230,492c-5-37,5-75,25-108c4-8,10-16,18-22c7-6,17-10,26-9c10,1,18,7,25,13c8,7,14,14,22,20"/>
	<path class="st0" d="M244,497c-14-37-22-76-32-115c-5-24-13-50-33-65c-16-12-40-14-57-4c-12,8-20,21-29,33c-12,17-25,34-43,46
		c-10,8-22,13-34,11c-7-1-13-5-18-10"/>
</g>
</svg>
