<?xml version="1.0" encoding="UTF-8"?>
<!DOCTYPE svg PUBLIC "-//W3C//DTD SVG 1.1//EN" "http://www.w3.org/Graphics/SVG/1.1/DTD/svg11.dtd">
<!-- Creator: CorelDRAW X8 -->
<svg xmlns="http://www.w3.org/2000/svg" xml:space="preserve" width="500px" height="500px" version="1.1" style="shape-rendering:geometricPrecision; text-rendering:geometricPrecision; image-rendering:optimizeQuality; fill-rule:evenodd; clip-rule:evenodd"
viewBox="0 0 500 500"
 xmlns:xlink="http://www.w3.org/1999/xlink">
 <defs>
  <style type="text/css">
   <![CDATA[
    .str0 {stroke:black;stroke-width:1.00006}
    .fil0 {fill:none;fill-rule:nonzero}
   ]]>
  </style>
 </defs>
 <g id="Layer_x0020_1">
  <metadata id="CorelCorpID_0Corel-Layer"/>
  <path class="fil0 str0" d="M234 323l-3 -5c-5,-7 -11,-15 -19,-16 -6,0 -12,4 -15,8 -4,5 -7,11 -10,15 -7,10 -17,18 -29,21"/>
  <path class="fil0 str0" d="M232 309c-7,-10 -20,-14 -32,-12 -16,4 -26,21 -39,32 -14,11 -31,17 -48,18 -18,2 -35,0 -52,-3"/>
  <path class="fil0 str0" d="M40 344c10,-7 24,-8 37,-10 26,-5 51,-16 72,-34 10,-9 20,-19 32,-27 12,-8 27,-12 40,-7 11,5 18,15 24,25 9,17 15,34 18,53 -1,-21 0,-43 8,-63 7,-20 22,-37 42,-45 10,-4 22,-5 31,0 5,3 10,7 13,12 14,18 19,42 16,65"/>
  <path class="fil0 str0" d="M273 346c-1,-8 0,-16 3,-23 3,-8 7,-15 12,-22 15,-21 35,-40 59,-51 8,-4 17,-7 25,-3 9,5 13,15 16,25 3,12 8,24 14,35 3,5 6,11 11,14"/>
  <path class="fil0 str0" d="M289 340c5,-18 20,-30 35,-40 10,-7 22,-13 34,-16 12,-2 26,-1 36,7 5,4 9,9 14,13 15,12 36,11 55,5"/>
  <path class="fil0 str0" d="M300 337c14,-13 33,-19 52,-17 6,1 12,3 17,6 5,2 8,6 12,10 5,5 9,9 14,14"/>
  <path class="fil0 str0" d="M241 348c5,-10 5,-21 6,-32 0,-14 3,-28 3,-41 0,-14 -3,-28 -12,-39 -12,-16 -36,-21 -54,-12 -14,8 -23,23 -34,35 -11,13 -25,23 -40,31 -12,7 -25,12 -38,13 -14,1 -28,-1 -39,-9"/>
  <path class="fil0 str0" d="M220 349c10,-13 13,-30 16,-46 5,-28 12,-56 28,-79 14,-20 35,-35 59,-41 8,-2 16,-3 24,-2 7,1 14,5 20,8 5,3 10,6 13,11 4,4 6,11 4,16"/>
  <path class="fil0 str0" d="M280 349c1,-7 -1,-13 -2,-20 -2,-9 -1,-18 -1,-27 1,-27 -3,-53 -11,-79 -3,-11 -8,-22 -16,-30 -8,-8 -19,-12 -30,-11 -11,0 -21,5 -29,13 -7,8 -11,19 -17,28 -9,14 -23,26 -38,32"/>
  <path class="fil0 str0" d="M248 347c2,-7 3,-13 4,-19 4,-30 8,-59 12,-88 4,-26 8,-53 26,-72 11,-12 26,-20 43,-21 16,-2 33,4 45,14 7,5 12,11 20,13"/>
  <path class="fil0 str0" d="M285 345c-5,-37 5,-75 25,-108 4,-8 10,-16 18,-22 7,-6 17,-10 26,-9 10,1 18,7 25,13 8,7 14,14 22,20"/>
  <path class="fil0 str0" d="M299 350c-14,-37 -22,-76 -32,-115 -5,-24 -13,-50 -33,-65 -16,-12 -40,-14 -57,-4 -12,8 -20,21 -29,33 -12,17 -25,34 -43,46 -10,8 -22,13 -34,11 -7,-1 -13,-5 -18,-10"/>
 </g>
</svg>
