<?xml version="1.0" encoding="utf-8"?>
<!-- Generator: Adobe Illustrator 19.0.0, SVG Export Plug-In . SVG Version: 6.00 Build 0)  -->
<svg version="1.1" id="Layer_1" xmlns="http://www.w3.org/2000/svg" xmlns:xlink="http://www.w3.org/1999/xlink" x="0px" y="0px"
	 viewBox="-55 147 500 500" style="enable-background:new -55 147 500 500;" xml:space="preserve">
<style type="text/css">
	.st0{fill:none;stroke:#000000;stroke-width:1.0001;}
</style>
<g id="Layer_x0020_1">
	<path class="st0" d="M6,593c1-18,2-36,6-54c2-15,7-29,7-44c1-13,0-26-1-39c-1-46,16-91,37-132c2-6,5-11,9-14c5-4,11-5,17-6
		c8-1,16-2,24,1c7,2,14,8,14,16c-11,21-16,45-16,68c3-5,7-10,12-14c-2,8,0,17,6,24c1,6,4,12,8,18c4-7,8-15,10-23c1,17,9,33,21,43
		c3-7,5-14,8-21c3,6,9,11,15,14c-4-7-6-14-8-21c0-2-1-4,0-6c2-5,11-3,17-4c12-4,10-27,23-30c-11-6-23-9-35-9c16-4,32-10,46-19
		c-9-6-19-9-29-9c4-5,8-9,10-15c1-6,0-13-5-16c-4-2-9-2-13-4c-4-1-7-5-11-5s-8,3-11,4c-4,2-10-1-9-4c-7,7-16,12-26,13
		c-4,5-7,10-11,14"/>
	<path class="st0" d="M27,388c-6-34,1-70,19-100c18-29,46-52,78-64c33-12,72-13,100,7c2,1,2-3,0-3c-2,1-3,3-3,5c-1,18,5,35,17,48
		c4-8,6-18,5-27c6,10,18,17,29,20c12,3,24,3,36,3l-4-9c13,2,26-4,34-14c-1-2-2-5-2-7c15-2,29-6,42-13c-10-2-19-5-28-10
		c4-8,4-17,2-26c-1-2-2-5-4-7c-3-4-8-6-14-6c-27-4-56,5-82-4c-2-1-5-2-8-1c-4,1-5,6-4,9c0,4,2,7,5,10c-9,1-17,3-26,5c-2,1-4,2-5,3
		c-4,4-2,9,1,13s6,8,6,13"/>
	<path class="st0" d="M312.7,461c0.4-1.4,1.1-2.7,2-3.7c0.2-0.2,0.4-0.4,0.6-0.5c3.8-2.7,7.7-2.8,12.5-3.7c0.1,0,0.3,0,0.4-0.1
		c14.9-1,29.9-2,44.8-4c6-6,9-14,11-22c3-8,5-17,4-25c-1-9-6-17-15-19c5-3,9-5,13-8c1,0,2-1,2-2s-1-2-2-2c-13-10-31-13-47-10
		c-16,2-31,10-45,17c-10,6-21,12-31,19c-5,3-10,6-10,12c0,2,1,4,1,6c6,16,14,16,27,23c10.2,5.5,16.7,16.5,25.7,24.8
		C308.8,464.7,312,463.6,312.7,461z"/>
	<path class="st0" d="M252,413c-7-2-13,2-18,6c-14,10-28,21-41,33c-13,10-25,22-32,36c-6,13-9,27-11,41c-3,27-5,54-6,81"/>
</g>
</svg>
