<?xml version="1.0" encoding="utf-8"?>
<!-- Generator: Adobe Illustrator 19.0.0, SVG Export Plug-In . SVG Version: 6.00 Build 0)  -->
<svg version="1.1" id="Layer_1" xmlns="http://www.w3.org/2000/svg" xmlns:xlink="http://www.w3.org/1999/xlink" x="0px" y="0px"
	 viewBox="-55 147 500 500" style="enable-background:new -55 147 500 500;" xml:space="preserve">
<style type="text/css">
	.st0{fill:none;stroke:#000000;stroke-width:1.0001;}
</style>
<g id="Layer_x0020_1">
	<path class="st0" d="M123,517c6-45,12-90,18-136c1-9,3-19-1-28c-3-8-9-15-14-22c-5.3-7-8.2-15.6-6.8-23.1c0.2-1.3,1.9-1.7,2.7-0.7
		l8.4,9.7c1.2,1.4,3.4,0,2.7-1.6c-10.8-25.7-13.3-54.8-5.8-82.2c0.4-1.6,2.8-1.5,3.1,0.1c3.7,19.5,7,39.1,10.2,58.6
		c0.3,2,3.2,1.7,3.1-0.3l-0.8-16.7c-0.1-1.8,2.5-2.3,3.1-0.6c1.8,5.7,3.9,11.4,6.6,16.9c0.7,1.5,3.1,0.9,3-0.8
		c-0.9-14.1,0.1-28.1,3.6-41.6c0.4-1.7,2.8-1.5,3.1,0.2l2.5,16.5c0.3,1.8,3,1.8,3.1-0.1c1.5-16.1,5.5-31.6,12.2-46.2
		c0.7-1.5,3-1,3,0.7c0,7.4,0.1,14.7,0.3,22.1c0.1,1.8,2.6,2.1,3.1,0.4c3.2-11.9,9.3-23.1,17.7-32.2c0.9-0.9,2.4-0.5,2.7,0.7
		c3.1,11.6,4.8,23.8,4.5,36.2c0,1.5,1.9,2.2,2.8,1c4.3-5.6,9.1-11.2,13.9-16.8c0,0,0.1-0.1,0.1-0.1c0.9-0.9,3.3-2.5,5.2-2.9
		c0.6-0.1,1.1,0.1,1.5,0.5c1.2,1.5,1.1,4.8,0.2,7.4c-1.8,7.9-3.5,16.5-5.9,24.6c-0.4,1.3,0.9,2.5,2.2,1.9c6.4-3,12.6-6.6,17.5-11.2
		c1.1-1,2.9,0,2.6,1.5c-1.3,7.6-4,15.1-8.2,21.7c-0.8,1.3,0.5,2.9,1.9,2.3c12.3-5.3,24.4-10.5,35.8-15.8c0.1,0,0.1,0,0.2-0.1
		c3-1,7.9-1.9,9.9,1c2,3-0.9,6.9-3.9,8.9c-0.1,0-0.1,0.1-0.2,0.2c-8.7,8.7-18,17.4-27.5,26.1c-1.3,1.2,0.1,3.3,1.7,2.6
		c9.9-4.5,19.8-8.9,29.8-12.8c0.1,0,0.1-0.1,0.2-0.1c5-3,12.9-3.9,13.9,2.1c1,4-3,6-6,8l-27.5,17.5c-1.4,0.9-0.7,3.1,1,2.9
		c11.1-1.1,22.6-2.7,33.4-4.4c0.1,0,0.1,0,0.2-0.1c2.9-0.9,6.8-0.9,8.8,1.9c0.1,0.1,0.1,0.2,0.2,0.3c1.8,3.9-2.1,7.8-5,9.8
		c0,0-0.1,0-0.1,0.1c-11.6,6.6-22.5,13.2-33.8,20.4c-1.4,0.9-0.6,3.1,1.1,2.9c11.8-1.7,24.2-0.3,35.1,4.4c1.2,0.5,1.3,2.2,0.2,2.8
		c-7.3,4.3-15,8.6-22.8,12.9c-1.5,0.8-0.8,3,0.8,3c11.9-0.6,23.1,1.3,33.9,5.9c1.3,0.6,1.2,2.5-0.2,3
		c-43.1,13.4-87.8,21.8-132.6,23.5c-1.8,0.1-2.1,2.5-0.4,3.1c8,2.7,15.7,4.9,24,7.2c3,1,7,2,7,5c0,5-4.9,6-8.9,7c-0.1,0-0.1,0-0.2,0
		c-17,2-32.9,4-49.9,6c-1.1,2.9,8.5,0.6,12.1,0.2c4.1-0.4,7.9,3.8,7.9,7.8c0,4.9-6.8,8.9-11.8,10c-0.1,0-0.2,0-0.4,0
		c-5.9,0-11.8-1-17.6,0.9c-0.1,0-0.2,0.1-0.4,0.2c-8.9,5-11.8,16.9-11.8,27.8c0,0,0,0.1,0,0.1c-3,30-5,60-8,89.9"/>
</g>
</svg>
