<?xml version="1.0" encoding="UTF-8"?>
<!DOCTYPE svg PUBLIC "-//W3C//DTD SVG 1.1//EN" "http://www.w3.org/Graphics/SVG/1.1/DTD/svg11.dtd">
<!-- Creator: CorelDRAW X8 -->
<svg xmlns="http://www.w3.org/2000/svg" xml:space="preserve" width="500px" height="500px" version="1.1" style="shape-rendering:geometricPrecision; text-rendering:geometricPrecision; image-rendering:optimizeQuality; fill-rule:evenodd; clip-rule:evenodd"
viewBox="0 0 500 500"
 xmlns:xlink="http://www.w3.org/1999/xlink">
 <defs>
  <style type="text/css">
   <![CDATA[
    .str0 {stroke:black;stroke-width:1.00006}
    .fil0 {fill:none;fill-rule:nonzero}
   ]]>
  </style>
 </defs>
 <g id="Layer_x0020_1">
  <metadata id="CorelCorpID_0Corel-Layer"/>
  <path class="fil0 str0" d="M127 472c39,-108 116,-203 131,-317"/>
  <path class="fil0 str0" d="M239 128c-1,-12 3,-26 11,-35 6,-6 13,-11 21,-9 5,2 9,6 11,10 3,5 3,11 3,16 -1,15 -8,32 -19,42 -15,12 -25,-10 -27,-24z"/>
  <path class="fil0 str0" d="M257 87c1,-24 8,-47 20,-67"/>
  <path class="fil0 str0" d="M270 93c13,-23 29,-43 48,-60"/>
  <path class="fil0 str0" d="M285 106c19,-13 39,-25 59,-35"/>
  <path class="fil0 str0" d="M282 128c15,-6 33,-5 48,1"/>
  <path class="fil0 str0" d="M251 108c-13,-11 -21,-27 -22,-44"/>
 </g>
</svg>
