<?xml version="1.0" encoding="UTF-8"?>
<!DOCTYPE svg PUBLIC "-//W3C//DTD SVG 1.1//EN" "http://www.w3.org/Graphics/SVG/1.1/DTD/svg11.dtd">
<!-- Creator: CorelDRAW X8 -->
<svg xmlns="http://www.w3.org/2000/svg" xml:space="preserve" width="500px" height="500px" version="1.1" style="shape-rendering:geometricPrecision; text-rendering:geometricPrecision; image-rendering:optimizeQuality; fill-rule:evenodd; clip-rule:evenodd"
viewBox="0 0 500 500"
 xmlns:xlink="http://www.w3.org/1999/xlink">
 <defs>
  <style type="text/css">
   <![CDATA[
    .str0 {stroke:black;stroke-width:0.422079}
    .fil0 {fill:none}
   ]]>
  </style>
 </defs>
 <g id="Layer_x0020_1">
  <metadata id="CorelCorpID_0Corel-Layer"/>
  <path class="fil0 str0" d="M222 91c-17,5 -33,22 -34,26 2,1 32,-14 34,-16 3,0 -29,32 -29,37 12,-4 27,-15 32,-23 1,1 -16,33 -14,43 4,-1 25,-41 26,-37 -14,32 -20,52 -25,80 -2,10 -2,20 3,27 7,4 14,5 19,10 7,7 8,15 6,29 -10,88 -34,189 -28,196 11,-13 38,-219 44,-223 9,0 16,-10 19,-19 6,-11 -8,-52 -8,-101 3,6 28,30 31,27 3,-1 -7,-24 -24,-35 2,-1 42,14 47,12 -11,-11 -34,-20 -40,-20 -1,-2 30,-10 39,-15 -2,-3 -53,-4 -62,-2 5,-3 38,-59 38,-68 -21,22 -45,59 -49,70 0,-16 -6,-33 -18,-45 -3,1 9,34 14,43 -3,2 -13,-19 -22,-21 11,15 -10,11 -19,13 -14,1 -41,11 -42,14 8,4 62,-4 62,-2l0 0z"/>
 </g>
</svg>
