<?xml version="1.0" encoding="UTF-8"?>
<!DOCTYPE svg PUBLIC "-//W3C//DTD SVG 1.1//EN" "http://www.w3.org/Graphics/SVG/1.1/DTD/svg11.dtd">
<!-- Creator: CorelDRAW X8 -->
<svg xmlns="http://www.w3.org/2000/svg" xml:space="preserve" width="500px" height="500px" version="1.1" style="shape-rendering:geometricPrecision; text-rendering:geometricPrecision; image-rendering:optimizeQuality; fill-rule:evenodd; clip-rule:evenodd"
viewBox="0 0 500 500"
 xmlns:xlink="http://www.w3.org/1999/xlink">
 <defs>
  <style type="text/css">
   <![CDATA[
    .str0 {stroke:black;stroke-width:1.00006}
    .fil0 {fill:none;fill-rule:nonzero}
   ]]>
  </style>
 </defs>
 <g id="Layer_x0020_1">
  <metadata id="CorelCorpID_0Corel-Layer"/>
  <path class="fil0 str0" d="M176 102c20,-1 40,-2 60,-3 -14,6 -25,16 -34,28 11,-6 23,-11 34,-17 -10,13 -20,25 -30,38 13,-4 25,-12 33,-23 -8,13 -12,29 -13,44 9,-13 18,-26 26,-39 -11,27 -20,55 -25,84 -2,9 -3,20 3,27 6,5 14,6 19,10 8,7 7,19 6,30 -9,67 -18,135 -27,203 14,-77 28,-154 43,-231 10,0 18,-9 21,-18 4,-10 3,-20 1,-30 -2,-25 -5,-50 -7,-75 10,9 20,19 29,28 -8,-12 -16,-24 -24,-36 16,4 32,8 48,12 -12,-11 -26,-18 -42,-21 14,-5 27,-11 41,-16 -21,-2 -43,-3 -64,-1 17,-21 30,-45 39,-70 -20,22 -37,46 -50,72 0,-17 -7,-34 -19,-47 5,15 10,30 15,45 -8,-8 -16,-15 -24,-22 14,15 -9,12 -19,14 -14,2 -27,7 -40,14z"/>
 </g>
</svg>
