<?xml version="1.0" encoding="utf-8"?>
<!-- Generator: Adobe Illustrator 19.0.0, SVG Export Plug-In . SVG Version: 6.00 Build 0)  -->
<svg version="1.1" id="Layer_1" xmlns="http://www.w3.org/2000/svg" xmlns:xlink="http://www.w3.org/1999/xlink" x="0px" y="0px"
	 viewBox="-55 147 500 500" style="enable-background:new -55 147 500 500;" xml:space="preserve">
<style type="text/css">
	.st0{fill:none;stroke:#000000;stroke-width:1.0001;}
</style>
<g id="Layer_x0020_1">
	<path class="st0" d="M182.6,229.1l-29,1c5.4,2.6,19,3,20,12s-6,17-14,22c-8,4-17,5-27,5c13,5,25,9,38,13c-13,3-24,12-30,23
		c7-2,16,4,16,12c-7-2-13,4-14,11c-2,7,1,14,1,21l0,0c1.9,14.3-3.4,28.5-13.5,38.5c-0.3,0.3,0.1,0.8,0.5,0.6
		c4.2-2.8,14.1-10.7,21.1-12c0.3-0.1,0.6,0.3,0.4,0.6c-7.6,11.7-12.5,25.3-15.4,38.8c-0.1,0.2,0.1,0.5,0.4,0.5c3.6,0,7.2,0,10-0.8
		c0.2-0.1,0.5,0.1,0.5,0.4c-0.1,9.4-1.9,18.9-6.4,27.4c-0.2,0.3,0.2,0.7,0.5,0.5c3.3-1.7,6.6-3.3,9.2-4.2c0.3-0.1,0.6,0.2,0.5,0.5
		c-10.7,29.8-5.6,64.5,7.3,94.3c14,30,35,56,56,81c-16-32-32-63-43-97c-8.9-24.7-15.8-53.3-6.4-78.1c0.1-0.3,0.6-0.3,0.7,0
		c2.6,7,5.3,14.1,8.7,21.8c0.2,0.4,0.8,0.2,0.7-0.2l-2.8-24.6l0,0c0-17.6-1-35.1-1-52.7c0-0.4,0.5-0.5,0.7-0.2
		c3.6,5.4,7.3,10.9,11.7,16.3c0.2,0.3,0.6,0.1,0.7-0.2c0.7-5.7-1.2-11.4-3.1-16.1l0,0c-2-6-4-12-3-17c1-5.8,7.5-10.6,12.4-8.3
		c0.3,0.1,0.5-0.1,0.5-0.4c-0.9-12.7-1-24.5-1.9-37.3c3,2,7,3,10,5c0-8,1-15,1-23c2,2,5,4,7,5c-4-8-5-16-4-25l8,2c-2-10-1-21,2-31
		c2,2,4,4,6,5c4-20,9-40,13-61c2-5-13,4-13,4c-5,1-10,1-15,3C194.6,209.1,185.6,218.1,182.6,229.1z"/>
</g>
</svg>
