<?xml version="1.0" encoding="UTF-8"?>
<!DOCTYPE svg PUBLIC "-//W3C//DTD SVG 1.1//EN" "http://www.w3.org/Graphics/SVG/1.1/DTD/svg11.dtd">
<!-- Creator: CorelDRAW X8 -->
<svg xmlns="http://www.w3.org/2000/svg" xml:space="preserve" width="500px" height="500px" version="1.1" style="shape-rendering:geometricPrecision; text-rendering:geometricPrecision; image-rendering:optimizeQuality; fill-rule:evenodd; clip-rule:evenodd"
viewBox="0 0 500 500"
 xmlns:xlink="http://www.w3.org/1999/xlink">
 <defs>
  <style type="text/css">
   <![CDATA[
    .str0 {stroke:black;stroke-width:0.750048}
    .fil0 {fill:none}
   ]]>
  </style>
 </defs>
 <g id="Layer_x0020_1">
  <metadata id="CorelCorpID_0Corel-Layer"/>
  <path class="fil0 str0" d="M208 79c-18,29 -10,68 16,90 22,-21 26,-53 43,-78 14,-22 30,-21 43,1 21,40 7,39 6,63 0,17 26,33 15,72"/>
  <path class="fil0 str0" d="M243 143c11,-2 23,6 26,18 5,20 -18,39 -13,60 8,30 41,23 69,13"/>
  <path class="fil0 str0" d="M224 172c-22,17 -34,45 -32,72 -17,1 -30,15 -37,30 -12,31 3,65 2,98"/>
  <path class="fil0 str0" d="M190 246c18,1 32,18 36,35 7,35 -14,75 8,105"/>
  <path class="fil0 str0" d="M223 358c5,-8 15,-8 24,-8 9,2 18,4 26,0 7,-3 12,-12 13,-21 0,-8 -2,-17 -3,-25 -3,-20 -3,-41 -1,-61"/>
  <path class="fil0 str0" d="M281 277c14,-4 30,1 41,11 23,18 34,50 32,81"/>
  <path class="fil0 str0" d="M196 210c-12,-9 -26,-14 -40,-15"/>
  <path class="fil0 str0" d="M322 178c12,-20 37,-26 57,-15"/>
  <path class="fil0 str0" d="M314 102c9,-15 26,-25 44,-26"/>
 </g>
</svg>
