<?xml version="1.0" encoding="utf-8"?>
<!-- Generator: Adobe Illustrator 19.0.0, SVG Export Plug-In . SVG Version: 6.00 Build 0)  -->
<svg version="1.1" id="Layer_1" xmlns="http://www.w3.org/2000/svg" xmlns:xlink="http://www.w3.org/1999/xlink" x="0px" y="0px"
	 viewBox="-55 147 500 500" style="enable-background:new -55 147 500 500;" xml:space="preserve">
<style type="text/css">
	.st0{fill:none;stroke:#000000;stroke-width:1.0001;}
</style>
<g id="Layer_x0020_1">
	<path class="st0" d="M160.9,272.6c0.8,0.9,2.2,0.9,2.9-0.1c5.6-7.9,11.7-38.4,17.3-54.9c0.7-2.1,3.8-1.7,4,0.5
		c1.4,18.8-15.4,51.9-14.6,53.9c0.2,0.6,0.5,1.2,0.8,0.7c2.1-3.5,39.8-48.1,50.8-42.7c4,4,2,11-1,15c-7.4,13.8-21.6,24.3-36.3,29
		c-0.7,0.2-1.1-0.8-0.5-1.2c15.9-10.1,38-12.4,55.8-5.8c-11.7,22-79.4,11.7-105.9,0.6c-0.6-0.2-1,0.6-0.5,0.9
		c15.2,9.4,35.5,16.2,46,19.4c0.4,0.1,0.3,0.7-0.1,0.6c-23.9-2.3-48.5,0.9-69.5,11.4c19.9,4.7,40.6,5,61.5,0.8
		c0.8-0.2,0.7-1.3,0-1.4C134.5,293.5,96,301.6,65,321c29.9,13.5,65.5,14,96.7,2.3c0.7-0.2,1.1,0.7,0.5,1
		c-9.6,5.9-41.3,20.5-52.2,35.7c-3.9,4.9-6.9,11.7-3.2,16.7c0.1,0.2,0.3,0.4,0.5,0.6c5,4.6,13.8,0.7,19.7-4.3
		c13.2-10.4,26.4-20.7,40.4-30.3c0.6-0.4,1.4,0.3,1,0.9C155.6,366.1,151.2,393,155,418c17.7-19.4,21.5-66.2,23.8-81.2
		c0.1-0.8,1.3-0.7,1.3,0.1c1.2,34.3,5.1,67.8,9.8,102.2c17.6-34.1,19.9-74.9,7-111.2c-0.2-0.5,0.6-0.9,0.8-0.4
		c5.3,10.4,17.3,51.7,25.2,73.6c2,6,5,12,11,13c8,1,12-10,12-18c-0.9-30-29.2-62.4-44.2-74.8c-0.2-0.2,0-0.4,0.2-0.3
		c27.9,17,65.2,30.9,100,25.1c-22.2-24.1-56.5-37.1-89.5-34.4c-0.5,0-0.7-0.7-0.2-0.9c14.1-4.2,59.3-11.8,84.6-21.8
		c-28-14.5-63.4-12.2-90.1,4.1c-0.4,0.2-0.8-0.3-0.5-0.6l3.5-3.5"/>
	<path class="st0" d="M127,345c-24,5-46,15-65,29c-3,2-6,5-5,9c0,4,4,6,8,6s7-1,10-3c10-6.1,19.3-13.4,28.1-21
		c0.7-0.6,1.7,0.3,1.1,1.1c-8.7,10.2-17.5,20.3-27,29.7c-0.1,0.1-5.2,6.3-6.2,10.2c-1,3,0,8,3,10c5,5.1,31.7-27.7,40.3-36.7
		c0.5-0.5,1.3,0.1,1,0.7c-7.6,13.4-12.7,28.3-14.1,43.2c-0.2,2.2,1.9,2.8,3.8,3.9c2.9,1.8,20-35.2,22-48.1"/>
	<path class="st0" d="M92.5,409.6c-2.7,1.2-20,18.1-29.5,31.4c-3,4-6,9-4,13c2,5,7,7,12,6c4-1,8-4,11-7c7.6-6.7,17.8-19.3,18.9-24.3
		c0.1-0.4,0.2-0.7,0.4-1.1c4.6-7.1-16.4-36.4-24.3-39.6c-7.5-3-15,1-21,6c-22,16-40,36-55,58c-2,2-3,5-2,8s5,4,9,4c13-1,26-7,35-17
		c3.8-3.8,6.7-8.5,9.5-13.2c0.3-0.5,0.7-1,1.1-1.4c3.9-3.8,8.7-7.4,14.3-7.4"/>
	<path class="st0" d="M117,469c0,4,2,8,5,10c4,3,10,1,13-2c4-4,5-9,6-14c2.5-10,4.9-28.7,5.1-34.9c0-0.9,1.2-1.1,1.6-0.3
		c3.3,6.6-1.6,29-0.7,42.3c0,5,0,11,4,14c4,5,11,5,16,2c6-3,9-8,12-14c8-18,8-53-19-54C136,417,118,448,117,469z"/>
	<path class="st0" d="M211,456c4,4,10,6,15,4c6-1,9-6,11-11c4-14-1-51-23-45S198,443,211,456z"/>
	<path class="st0" d="M236,383c4,16,17,29,33,33c10,2,23,0,28-9c3-5,3-12,1-17c-2-6-6-11-10-16c-9-10-20-18-33-23c-3-2-6-3-10-2
		c-3,1-5,5-3,8"/>
	<path class="st0" d="M324,295c7,3,14,9,13,17c-1,4-3,7-6,9s-6,3-9,4c-15,5-48,16-38-11C291,298,307,287,324,295z"/>
	<path class="st0" d="M282,227c7-1,13-1,19,2c5,3,10,8,10,14s-2,11-6,15c-4,3-9,6-14,8c-13,5-60,25-59-2C234,243,265,228,282,227z"
		/>
	<path class="st0" d="M243,197c6-4,12-9,18-6c4,2,6,6,6,10c1,4-1,8-3,12c-4,9-25,32-38,24C210,226,236,203,243,197z"/>
	<path class="st0" d="M97,252c-5,0-11,1-15,4c-3,3-5,6-6,9c-1,2-1,4,0,6c2,7,11,10,19,12C122,288,126,250,97,252z"/>
	<path class="st0" d="M275,483c0-15-3-48-20-54c-15-6-31,8-33,22c-1,14,9,31,18,42C254,509,275,508,275,483z"/>
	<path class="st0" d="M188,512c1,5,3,11,7,16c3,5,10,8,16,7c9-3,12-14,13-23c1-13,1-50-19-49C183,464,184,497,188,512z"/>
	<path class="st0" d="M161,568c4,7,12,13,19,9c4-2,6-7,6-12c2-11,1-44-17-42C151,524,155,558,161,568z"/>
	<path class="st0" d="M150,491c-5-4-11-2-15,1c-5,4-7,9-8,14s-2,9-1,13c1,5,4,9,8,10c6,2,13-2,16-8c3-5,3-12,2-18c0-5,0-11-3-15
		c-4-5-10-7-14-4"/>
	<path class="st0" d="M89,479c5,3,11,2,16-1c1,0,9-11,10-18C124,419,64,461,89,479z"/>
	<path class="st0" d="M34,495c25,19,49-35,25-48C35,435,16,482,34,495z"/>
	<path class="st0" d="M290,472c7,3,17,1,21-6l0,0c4-7,1-16-5-21C294,433,273,466,290,472z"/>
	<path class="st0" d="M324,412c8-1,15-7,19-14c16-27,1-76-37-59C276,354,292,417,324,412z"/>
	<path class="st0" d="M356,453c16-36-37-53-50-22C294,461,340,489,356,453z"/>
	<path class="st0" d="M269,504c-4,10-4,20,0,30c4,8,14,16,23,12c6-2,9-8,11-14c2-11,1-23-8-31c-8-7-23-7-28,3"/>
	<path class="st0" d="M157,314c-4,10,2,23,12,27c2,1,4,2,5,2c19.1,2.5,40-19,26-35C188,295,163,297,157,314z"/>
</g>
</svg>
