<?xml version="1.0" encoding="UTF-8"?>
<!DOCTYPE svg PUBLIC "-//W3C//DTD SVG 1.1//EN" "http://www.w3.org/Graphics/SVG/1.1/DTD/svg11.dtd">
<!-- Creator: CorelDRAW X8 -->
<svg xmlns="http://www.w3.org/2000/svg" xml:space="preserve" width="500px" height="500px" version="1.1" style="shape-rendering:geometricPrecision; text-rendering:geometricPrecision; image-rendering:optimizeQuality; fill-rule:evenodd; clip-rule:evenodd"
viewBox="0 0 500 500"
 xmlns:xlink="http://www.w3.org/1999/xlink">
 <defs>
  <style type="text/css">
   <![CDATA[
    .str0 {stroke:black;stroke-width:1.00006}
    .fil0 {fill:none;fill-rule:nonzero}
   ]]>
  </style>
 </defs>
 <g id="Layer_x0020_1">
  <metadata id="CorelCorpID_0Corel-Layer"/>
  <path class="fil0 str0" d="M151 124c0,18 11,35 10,53 13,-9 21,-24 23,-39 1,-11 -2,-32 -12,-39 -13,-9 -20,16 -21,25z"/>
  <path class="fil0 str0" d="M171 182c-8,19 -1,40 5,60 9,-5 19,-10 25,-18 5,-8 7,-17 7,-26 1,-9 0,-18 -1,-27 -1,-6 -4,-25 -9,-28 -6,-3 -25,32 -27,39z"/>
  <path class="fil0 str0" d="M211 140c2,23 10,45 17,67 10,-12 19,-26 23,-41 5,-14 5,-31 -1,-45 -4,-9 -19,-30 -31,-26 -14,4 -10,35 -8,45z"/>
  <path class="fil0 str0" d="M241 208c-4,9 -9,17 -11,27 -2,10 0,21 7,28 2,2 5,4 9,4 1,-1 3,-2 5,-3 14,-13 24,-31 27,-50 3,-15 1,-41 -10,-54 -11,14 -18,33 -27,48z"/>
  <path class="fil0 str0" d="M261 116c7,23 17,45 31,65 0,1 2,2 3,2 1,0 2,-1 3,-2 13,-15 16,-38 8,-57 -5,-12 -16,-22 -28,-28 -4,-2 -13,-6 -17,-3 -6,4 -1,18 0,23z"/>
  <path class="fil0 str0" d="M291 210c-3,6 -6,12 -7,18 0,7 2,14 8,17 8,3 17,-2 22,-8 15,-17 21,-40 16,-61 0,-4 -2,-14 -6,-14 -4,-1 -10,11 -12,14 -8,11 -14,22 -21,34z"/>
  <path class="fil0 str0" d="M319 128c5,13 13,24 21,35 2,2 5,5 8,5 3,0 6,-4 7,-7 7,-14 6,-32 -1,-45 -6,-11 -18,-24 -31,-26 -14,-2 -7,29 -4,38z"/>
  <path class="fil0 str0" d="M163 204c1,4 2,8 0,12 -1,4 -4,8 -8,9 -6,2 -12,-4 -15,-9 -10,-15 -15,-33 -13,-51 0,-5 2,-15 7,-18 7,-5 9,4 13,10 8,14 14,30 16,47z"/>
  <path class="fil0 str0" d="M159 269c3,9 5,18 4,28 0,4 0,9 -4,10 -4,2 -8,0 -12,-2 -21,-16 -32,-44 -30,-70 2,-13 9,-20 20,-9 10,11 18,29 22,43z"/>
  <path class="fil0 str0" d="M198 250c-7,12 -13,25 -13,39 1,6 3,13 9,15 4,1 8,-1 11,-3 3,-3 4,-7 6,-11 7,-19 12,-40 13,-60 0,-9 -2,-18 -10,-8 -6,8 -11,19 -16,28z"/>
  <path class="fil0 str0" d="M240 294c-3,5 -5,12 -1,17 2,3 6,4 10,3 3,0 7,-2 10,-4 10,-6 18,-16 23,-27 3,-6 11,-24 4,-30 -15,-13 -41,32 -46,41z"/>
  <path class="fil0 str0" d="M318 241c-7,9 -14,19 -16,31 -1,4 -1,9 2,12 3,5 10,5 15,4 11,-3 22,-10 29,-20 7,-9 10,-22 8,-33 -1,-8 -5,-19 -15,-15 -8,3 -17,15 -23,21z"/>
  <path class="fil0 str0" d="M355 173c-5,5 -11,11 -12,18 -3,11 5,22 16,25 10,3 22,-2 29,-11 7,-8 9,-20 8,-30 -1,-8 -6,-24 -16,-24 -8,1 -19,17 -25,22z"/>
  <path class="fil0 str0" d="M201 333c-2,5 -3,11 0,15 3,5 10,7 15,5 6,-2 10,-7 13,-12 6,-14 5,-30 6,-46 1,-5 3,-18 -4,-20 -7,-2 -11,9 -13,14 -7,14 -13,29 -17,44z"/>
  <path class="fil0 str0" d="M164 335c-1,5 -1,11 3,14 4,2 9,-1 12,-4 2,-4 2,-9 2,-13 1,-14 1,-27 1,-41 0,-7 3,-22 -2,-28 -7,-10 -8,5 -8,10 -3,20 -6,41 -8,62z"/>
  <path class="fil0 str0" d="M95 198c-6,6 -11,15 -12,24 0,4 0,9 2,13 3,3 7,6 11,5 5,0 8,-4 11,-8 7,-10 13,-21 17,-32 2,-5 3,-9 2,-14 -4,-20 -26,5 -31,12z"/>
  <path class="fil0 str0" d="M257 341c-4,5 -7,10 -8,16 -2,7 -1,13 4,18 6,6 17,6 25,2 12,-5 21,-14 27,-25 5,-11 12,-46 -8,-48 -17,-1 -32,25 -40,37z"/>
  <path class="fil0 str0" d="M336 287c-6,1 -12,4 -16,8 -7,9 -5,23 2,30 8,8 21,9 31,4 10,-5 17,-15 19,-25 6,-26 -21,-22 -36,-17z"/>
  <path class="fil0 str0" d="M378 227c-7,7 -11,16 -15,26 -3,5 -5,11 -2,17 2,4 7,6 12,8 6,2 11,3 16,2 7,-2 11,-9 14,-15 7,-13 13,-27 4,-41 -8,-12 -20,-6 -29,3z"/>
 </g>
</svg>
