<?xml version="1.0" encoding="UTF-8"?>
<!DOCTYPE svg PUBLIC "-//W3C//DTD SVG 1.1//EN" "http://www.w3.org/Graphics/SVG/1.1/DTD/svg11.dtd">
<!-- Creator: CorelDRAW X8 -->
<svg xmlns="http://www.w3.org/2000/svg" xml:space="preserve" width="500px" height="500px" version="1.1" style="shape-rendering:geometricPrecision; text-rendering:geometricPrecision; image-rendering:optimizeQuality; fill-rule:evenodd; clip-rule:evenodd"
viewBox="0 0 500 500"
 xmlns:xlink="http://www.w3.org/1999/xlink">
 <defs>
  <style type="text/css">
   <![CDATA[
    .str0 {stroke:black;stroke-width:1.00006}
    .fil0 {fill:none}
   ]]>
  </style>
 </defs>
 <g id="Layer_x0020_1">
  <metadata id="CorelCorpID_0Corel-Layer"/>
  <path class="fil0 str0" d="M128 118c0,8 32,-15 35,-17 -18,28 -25,63 -20,96l36 -117c34,51 -10,88 -13,117 2,9 9,-21 29,-39 15,30 0,78 11,111 9,26 35,44 41,72 -18,-8 -52,-19 -70,-7 -11,9 -13,73 -22,108 24,-20 8,-79 33,-90 23,-14 46,17 69,11 -6,33 -27,56 -32,83 4,7 16,-33 30,-15 1,1 2,-29 13,-43 14,18 15,45 15,65 9,-30 18,-29 36,-15 -12,-26 -29,-50 -50,-70 14,-5 32,4 34,19 21,-16 -11,-36 -36,-41 -11,-14 7,-26 22,-20 -12,-24 -20,-79 -10,-93 15,-25 63,18 50,67 40,-44 -40,-129 -70,-69 -8,17 7,39 6,53 -16,-6 -28,-22 -28,-40 -1,-17 10,-34 26,-41 -4,-7 -9,-14 -13,-21 15,-9 35,-10 51,-2 3,1 -4,-9 -22,-12 -30,-6 -50,24 -33,39 -6,4 -13,17 -18,15 -10,-15 -16,-68 15,-85 3,8 -1,21 -2,28 -2,4 21,-19 15,-30 -10,-15 -27,2 -32,13 -3,-12 4,-25 15,-30 47,-25 85,61 84,91 25,-58 -38,-119 -98,-97 5,-16 21,-34 39,-36 0,0 -18,-9 -37,-8 4,-16 26,-5 38,-9 0,0 -28,-10 -62,0 -7,-6 -1,-19 8,-21 7,-2 14,2 21,0 -8,-6 -19,-8 -29,-5 -29,-9 -73,63 -75,85z"/>
 </g>
</svg>
