<?xml version="1.0" encoding="UTF-8"?>
<!DOCTYPE svg PUBLIC "-//W3C//DTD SVG 1.1//EN" "http://www.w3.org/Graphics/SVG/1.1/DTD/svg11.dtd">
<!-- Creator: CorelDRAW X8 -->
<svg xmlns="http://www.w3.org/2000/svg" xml:space="preserve" width="500px" height="500px" version="1.1" style="shape-rendering:geometricPrecision; text-rendering:geometricPrecision; image-rendering:optimizeQuality; fill-rule:evenodd; clip-rule:evenodd"
viewBox="0 0 500 500"
 xmlns:xlink="http://www.w3.org/1999/xlink">
 <defs>
  <style type="text/css">
   <![CDATA[
    .str0 {stroke:black;stroke-width:0.750048}
    .fil0 {fill:none}
   ]]>
  </style>
 </defs>
 <g id="Layer_x0020_1">
  <metadata id="CorelCorpID_0Corel-Layer"/>
  <path class="fil0 str0" d="M272 42c-21,-11 -46,-9 -66,3 -20,12 -35,30 -45,51 -11,20 -29,61 -28,63 17,-24 40,-52 63,-69 1,-1 3,1 2,2 -11,28 -45,82 -46,90 46,-44 48,-81 83,-91 4,1 13,39 6,58 -8,16 -24,26 -37,38 -28,24 -45,60 -44,97 31,-47 69,-76 85,-108 31,-47 -2,-65 11,-84 5,-8 18,-8 26,-5 47,11 54,66 56,66 4,-17 -17,-72 -50,-83 -4,-2 -12,-3 -16,-1 -26,15 15,126 31,156 -2,-45 7,-75 4,-113 0,-12 -2,-26 -7,-37 -5,-10 -13,-18 -24,-20 -1,0 -2,-2 -1,-2 13,-6 27,-6 39,-1 13,7 27,36 27,27 0,-12 -10,-25 -22,-30 -14,-6 -35,-6 -42,-4 -1,0 -4,-1 -3,-2 4,-9 5,-19 5,-27 0,-4 0,-7 -3,-8 -2,-1 -5,2 -6,6 -3,5 -5,11 -7,18 0,1 -2,1 -2,0 -2,-7 -7,-12 -12,-16 -6,-2 -6,22 -2,26"/>
  <path class="fil0 str0" d="M225 89c-13,11 -18,28 -16,45 4,32 32,59 43,90 9,26 5,54 -2,80 -15,50 -45,63 -44,133 7,-22 25,-48 35,-55 19,23 31,50 50,72 12,14 28,26 46,27 -25,-21 -54,-62 -60,-79 10,2 22,28 32,18 10,-7 -5,-15 -6,-20 0,-1 26,18 27,16 -4,-31 -49,-44 -55,-75 -2,-12 3,-24 5,-37 5,-32 -7,-65 -2,-97 5,-27 20,-52 17,-78 -2,-16 -12,-33 -7,-49"/>
 </g>
</svg>
