<?xml version="1.0" encoding="UTF-8"?>
<!DOCTYPE svg PUBLIC "-//W3C//DTD SVG 1.1//EN" "http://www.w3.org/Graphics/SVG/1.1/DTD/svg11.dtd">
<!-- Creator: CorelDRAW X8 -->
<svg xmlns="http://www.w3.org/2000/svg" xml:space="preserve" width="500px" height="500px" version="1.1" style="shape-rendering:geometricPrecision; text-rendering:geometricPrecision; image-rendering:optimizeQuality; fill-rule:evenodd; clip-rule:evenodd"
viewBox="0 0 500 500"
 xmlns:xlink="http://www.w3.org/1999/xlink">
 <defs>
  <style type="text/css">
   <![CDATA[
    .str0 {stroke:black;stroke-width:0.750048}
    .fil0 {fill:none}
   ]]>
  </style>
 </defs>
 <g id="Layer_x0020_1">
  <metadata id="CorelCorpID_0Corel-Layer"/>
  <path class="fil0 str0" d="M237 157c-8,-18 -23,-33 -37,-47 0,14 3,28 7,42 3,5 6,12 10,14 5,3 13,2 15,-3 1,-10 8,-25 11,-26 -16,-14 -32,-41 -37,-67 10,9 20,19 28,30 18,18 12,37 15,38 6,-22 5,-57 -1,-84 7,11 15,22 18,35 3,13 1,29 -9,37 2,3 14,-6 14,-24 4,-24 12,-46 23,-66 9,14 11,33 6,50 -6,16 -17,31 -34,39 0,1 18,-2 23,22 2,11 -6,32 -8,33 -5,-6 -15,-6 -21,-2 -5,5 -9,12 -12,19 -4,12 -9,25 -6,37 13,-29 34,-54 60,-71 5,40 -8,82 -35,113 -18,-13 -22,-38 -27,-59 -4,-23 -12,-47 -33,-56 -3,31 -7,62 2,92 2,6 4,12 9,17 4,4 11,7 17,5 -3,-12 3,-27 13,-35 12,27 16,58 9,87 -13,-20 -31,-38 -52,-52 -8,40 -10,80 -5,121 2,12 5,27 16,32 5,-27 10,-54 21,-79 10,-24 26,-48 47,-65 4,-3 9,-5 13,-2 2,2 2,5 3,8 3,47 2,95 -7,142"/>
 </g>
</svg>
