<?xml version="1.0" encoding="UTF-8"?>
<!DOCTYPE svg PUBLIC "-//W3C//DTD SVG 1.1//EN" "http://www.w3.org/Graphics/SVG/1.1/DTD/svg11.dtd">
<!-- Creator: CorelDRAW X8 -->
<svg xmlns="http://www.w3.org/2000/svg" xml:space="preserve" width="500px" height="500px" version="1.1" style="shape-rendering:geometricPrecision; text-rendering:geometricPrecision; image-rendering:optimizeQuality; fill-rule:evenodd; clip-rule:evenodd"
viewBox="0 0 500 500"
 xmlns:xlink="http://www.w3.org/1999/xlink">
 <defs>
  <style type="text/css">
   <![CDATA[
    .str0 {stroke:black;stroke-width:1.00006}
    .fil0 {fill:none;fill-rule:nonzero}
   ]]>
  </style>
 </defs>
 <g id="Layer_x0020_1">
  <metadata id="CorelCorpID_0Corel-Layer"/>
  <path class="fil0 str0" d="M234 105c-3,13 -2,26 3,39 -18,5 -33,21 -38,39 -5,18 -2,38 6,55 3,8 8,15 15,19 10,6 22,4 34,2 3,31 8,62 13,93"/>
  <path class="fil0 str0" d="M306 365c-8,-31 -14,-63 -19,-94 -1,-5 -2,-9 0,-13 3,-7 11,-9 18,-12 15,-9 22,-27 21,-44 -1,-18 -9,-34 -19,-48 -6,-8 -12,-16 -21,-21 -9,-5 -20,-7 -29,-2 -1,-13 -3,-25 -5,-38"/>
  <path class="fil0 str0" d="M234 158c1,31 7,62 16,92"/>
  <path class="fil0 str0" d="M260 142c4,36 11,71 22,106"/>
 </g>
</svg>
