<?xml version="1.0" encoding="UTF-8"?>
<!DOCTYPE svg PUBLIC "-//W3C//DTD SVG 1.1//EN" "http://www.w3.org/Graphics/SVG/1.1/DTD/svg11.dtd">
<!-- Creator: CorelDRAW X8 -->
<svg xmlns="http://www.w3.org/2000/svg" xml:space="preserve" width="500px" height="500px" version="1.1" style="shape-rendering:geometricPrecision; text-rendering:geometricPrecision; image-rendering:optimizeQuality; fill-rule:evenodd; clip-rule:evenodd"
viewBox="0 0 500 500"
 xmlns:xlink="http://www.w3.org/1999/xlink">
 <defs>
  <style type="text/css">
   <![CDATA[
    .str0 {stroke:black;stroke-width:1.00006}
    .fil0 {fill:none}
   ]]>
  </style>
 </defs>
 <g id="Layer_x0020_1">
  <metadata id="CorelCorpID_0Corel-Layer"/>
  <path class="fil0 str0" d="M170 61c22,-4 44,-13 62,-27 10,10 27,10 36,0 4,12 22,14 33,10 12,-6 33,-22 33,-21 -28,27 -46,64 -49,103 23,-17 41,-60 42,-59 -2,12 -22,65 -41,90 -6,-6 -12,-59 -19,-77 -6,35 -7,71 -1,106 -3,-2 -29,-94 -34,-95 -1,27 11,74 9,96 -4,4 -43,-64 -53,-94 -3,3 13,57 13,73 -9,-2 -30,-60 -36,-101 -2,2 -3,62 7,91 15,43 53,59 51,62 -42,-15 -60,-33 -62,-32 13,30 38,56 68,71 4,0 16,-27 18,-50 4,0 5,37 1,54 6,0 32,-60 46,-79 -1,35 -28,99 -24,100 7,-3 46,-81 56,-156 11,72 -13,143 -38,213 -35,-25 -69,-53 -97,-87 2,39 23,78 54,102 1,1 0,2 -1,1 -20,-9 -43,-23 -66,-31 19,31 47,54 78,69 8,4 16,7 23,3 6,-3 11,-10 11,-18 1,-6 -2,-14 -4,-20 -1,15 2,29 8,43 21,-41 31,-86 41,-132 10,46 2,94 -21,135 -4,8 -9,15 -17,19 -7,2 -15,1 -23,-1 -25,-8 -51,-19 -75,-32 17,31 46,55 80,67 1,0 0,2 -1,1 -20,-1 -40,-2 -61,1 33,13 68,19 103,14"/>
 </g>
</svg>
