<?xml version="1.0" encoding="UTF-8"?>
<!DOCTYPE svg PUBLIC "-//W3C//DTD SVG 1.1//EN" "http://www.w3.org/Graphics/SVG/1.1/DTD/svg11.dtd">
<!-- Creator: CorelDRAW X8 -->
<svg xmlns="http://www.w3.org/2000/svg" xml:space="preserve" width="500px" height="500px" version="1.1" style="shape-rendering:geometricPrecision; text-rendering:geometricPrecision; image-rendering:optimizeQuality; fill-rule:evenodd; clip-rule:evenodd"
viewBox="0 0 500 500"
 xmlns:xlink="http://www.w3.org/1999/xlink">
 <defs>
  <style type="text/css">
   <![CDATA[
    .str0 {stroke:black;stroke-width:1.00006}
    .fil0 {fill:none;fill-rule:nonzero}
   ]]>
  </style>
 </defs>
 <g id="Layer_x0020_1">
  <metadata id="CorelCorpID_0Corel-Layer"/>
  <path class="fil0 str0" d="M152 73c21,-4 41,-12 58,-25 9,9 25,9 33,0 4,11 20,13 31,9 11,-5 19,-14 30,-19 -26,25 -42,59 -45,95 16,-16 29,-34 39,-54 -10,29 -23,57 -38,83 -6,-24 -12,-48 -18,-71 -6,34 -6,69 0,103 -9,-31 -19,-63 -32,-93 2,30 5,61 8,91 -21,-27 -37,-57 -49,-89 2,25 7,50 14,74 -18,-31 -30,-65 -35,-100 -2,28 -3,57 6,84 9,26 28,51 55,59 -23,-7 -44,-18 -65,-31 12,28 35,52 63,66 9,-14 15,-31 17,-47 2,18 2,36 0,55 11,-28 26,-54 43,-78 -1,34 -13,66 -24,98 28,-46 47,-97 54,-150 10,67 -12,133 -35,197 -33,-23 -64,-49 -90,-80 2,39 24,77 56,99 -21,-14 -44,-24 -68,-32 17,28 43,50 72,64 7,3 15,6 21,2 6,-2 10,-9 10,-16 1,-6 -1,-13 -3,-19 -1,14 2,27 7,40 20,-38 29,-80 38,-122 9,42 2,87 -19,125 -4,7 -9,14 -16,17 -7,2 -14,1 -21,-1 -24,-7 -48,-17 -70,-29 17,31 47,55 82,64 -21,-2 -43,-3 -65,0 30,12 63,17 95,13"/>
 </g>
</svg>
