<?xml version="1.0" encoding="utf-8"?>
<!-- Generator: Adobe Illustrator 19.0.0, SVG Export Plug-In . SVG Version: 6.00 Build 0)  -->
<svg version="1.1" id="Layer_1" xmlns="http://www.w3.org/2000/svg" xmlns:xlink="http://www.w3.org/1999/xlink" x="0px" y="0px"
	 viewBox="-55 147 500 500" style="enable-background:new -55 147 500 500;" xml:space="preserve">
<style type="text/css">
	.st0{fill:none;stroke:#000000;stroke-width:1.0001;}
</style>
<g id="Layer_x0020_1">
	<path class="st0" d="M14,413c10-5,19-9,29-13c-5-38-10-78,3-115c2-5,4-11,8-15s10-6,15-5c10,3,13,15,14,25c2,37,0,73-8,109
		c7,7,20,2,25-7s4-19,2-29c-2-18-5-36-7-54c-2-15-4-31,6-41c9-11,25-12,37-5s19,21,21,34c2,14,0,28-3,41c-4,13-8,27-9,40
		c-1,6-1,12,1,18s7,10,13,11c6,0,11-5,14-10s3-11,4-17c3-36,3-72,2-107c0-10,0-20,6-26c4-6,12-8,20-7c17,2,30,16,36,33
		c5,16,3,34-1,50c-4,17-10,33-12,50c-1,7-2,14,2,19c6,8,17,8,26,8c11-1,24-2,28-12c2-5,1-10,1-14c-3-21-6-41-8-61c-2-18-4-39,9-52
		c12-11,31-11,44-2c14,8,21,24,22,40c2,16-2,31-7,47c-5,15-11,29-16,44c-1,5-2,10-1,14c1,5,6,8,11,7"/>
	<path class="st0" d="M24,482c8-10,21-16,33-16c15-1,29,6,43,10c20,6,41,7,61,3c12-2,23-6,35-7c8-1,15-1,23,0c43,2,85,4,128,6"/>
	<path class="st0" d="M9,518c7-9,20-11,31-11c32,0,63,15,96,17c27,3,55-3,82-7c44-7,88-8,132-4"/>
</g>
</svg>
