<?xml version="1.0" encoding="UTF-8"?>
<!DOCTYPE svg PUBLIC "-//W3C//DTD SVG 1.1//EN" "http://www.w3.org/Graphics/SVG/1.1/DTD/svg11.dtd">
<!-- Creator: CorelDRAW X8 -->
<svg xmlns="http://www.w3.org/2000/svg" xml:space="preserve" width="500px" height="500px" version="1.1" style="shape-rendering:geometricPrecision; text-rendering:geometricPrecision; image-rendering:optimizeQuality; fill-rule:evenodd; clip-rule:evenodd"
viewBox="0 0 500 500"
 xmlns:xlink="http://www.w3.org/1999/xlink">
 <defs>
  <style type="text/css">
   <![CDATA[
    .str0 {stroke:black;stroke-width:1.00006}
    .fil0 {fill:none}
   ]]>
  </style>
 </defs>
 <g id="Layer_x0020_1">
  <metadata id="CorelCorpID_0Corel-Layer"/>
  <path class="fil0 str0" d="M158 132c-2,0 9,19 12,19 11,-6 26,-2 37,4 12,6 20,16 30,24 14,-20 39,-34 65,-33 3,-17 26,-17 26,-20 3,-1 -38,-2 -54,-32 -8,12 -19,24 -32,28 -30,5 -30,-21 -33,-21 -6,17 -35,41 -51,31z"/>
  <path class="fil0 str0" d="M156 137c3,41 28,78 43,115 13,29 20,61 22,93"/>
  <path class="fil0 str0" d="M171 154c4,23 24,40 36,59 22,34 23,76 23,116"/>
  <path class="fil0 str0" d="M235 180c24,60 25,129 1,189"/>
  <path class="fil0 str0" d="M298 151c16,71 1,146 -40,206"/>
  <path class="fil0 str0" d="M328 126c14,31 14,67 10,100 -4,26 -7,54 -19,79 -13,23 -34,43 -61,49"/>
 </g>
</svg>
