<?xml version="1.0" encoding="UTF-8"?>
<!DOCTYPE svg PUBLIC "-//W3C//DTD SVG 1.1//EN" "http://www.w3.org/Graphics/SVG/1.1/DTD/svg11.dtd">
<!-- Creator: CorelDRAW X8 -->
<svg xmlns="http://www.w3.org/2000/svg" xml:space="preserve" width="500px" height="500px" version="1.1" style="shape-rendering:geometricPrecision; text-rendering:geometricPrecision; image-rendering:optimizeQuality; fill-rule:evenodd; clip-rule:evenodd"
viewBox="0 0 500 500"
 xmlns:xlink="http://www.w3.org/1999/xlink">
 <defs>
  <style type="text/css">
   <![CDATA[
    .str0 {stroke:black;stroke-width:0.750048}
    .fil0 {fill:none}
   ]]>
  </style>
 </defs>
 <g id="Layer_x0020_1">
  <metadata id="CorelCorpID_0Corel-Layer"/>
  <path class="fil0 str0" d="M216 145c2,-3 5,-35 -7,-48 -4,-5 -10,-9 -14,-14 -4,-7 -1,-16 5,-17 7,-2 12,9 13,17 11,20 6,51 8,51 4,0 16,-23 27,-56 -6,-5 -9,-11 -9,-16 0,-8 7,-15 13,-11 6,2 6,9 3,16 -2,4 -5,7 -6,13 6,2 -24,58 -23,63 13,8 33,5 45,-5 13,-11 17,-29 13,-45 0,-8 -4,-14 -4,-23 0,-7 4,-16 13,-17 8,-1 16,11 13,21 -3,9 -9,15 -17,22 1,25 -5,51 -20,73 6,3 6,2 12,3 9,-29 31,-53 55,-72 -1,-8 -1,-17 4,-25 6,-8 19,-8 22,0 3,8 -4,14 -12,19 -30,24 -74,83 -72,88 6,3 28,1 50,3 4,1 9,1 13,-2 7,-4 12,-13 21,-11 5,0 11,7 7,14 -3,6 -8,9 -16,10 -19,0 -58,-12 -73,-4"/>
  <path class="fil0 str0" d="M221 177c-5,-1 -26,-21 -31,-38 -1,-4 -1,-9 -3,-11 -5,-7 -16,-6 -21,0 -5,6 -2,17 5,20 3,3 8,3 13,5 8,4 12,13 16,22 4,18 16,16 19,20 -35,8 -82,44 -86,81 29,-40 87,-77 92,-76 1,1 0,5 -12,17 -23,25 -61,87 -74,165 3,0 64,-100 74,-141 2,-11 14,-34 17,-34 9,11 -41,112 -40,166 6,-3 31,-50 41,-76 18,-37 9,-84 12,-85 19,16 25,56 22,86 -11,67 -27,83 -27,87 20,-12 27,-36 33,-58 6,-21 11,-41 11,-61 4,-27 -28,-48 -27,-55 29,10 46,36 51,65 5,29 1,57 -11,86 3,1 29,-57 30,-88 0,-42 -44,-67 -41,-70 41,8 66,68 56,122 19,-5 30,-128 -68,-140"/>
 </g>
</svg>
