<?xml version="1.0" encoding="UTF-8"?>
<!DOCTYPE svg PUBLIC "-//W3C//DTD SVG 1.1//EN" "http://www.w3.org/Graphics/SVG/1.1/DTD/svg11.dtd">
<!-- Creator: CorelDRAW X8 -->
<svg xmlns="http://www.w3.org/2000/svg" xml:space="preserve" width="500px" height="500px" version="1.1" style="shape-rendering:geometricPrecision; text-rendering:geometricPrecision; image-rendering:optimizeQuality; fill-rule:evenodd; clip-rule:evenodd"
viewBox="0 0 500 500"
 xmlns:xlink="http://www.w3.org/1999/xlink">
 <defs>
  <style type="text/css">
   <![CDATA[
    .str0 {stroke:black;stroke-width:1.00006}
    .fil0 {fill:none}
   ]]>
  </style>
 </defs>
 <g id="Layer_x0020_1">
  <metadata id="CorelCorpID_0Corel-Layer"/>
  <path class="fil0 str0" d="M227 165c2,-18 5,-37 -7,-51 -5,-5 -11,-9 -15,-15 -4,-7 -1,-17 5,-18 8,-2 13,10 14,18 6,19 9,46 8,55 2,0 18,-25 29,-60 -6,-5 -9,-11 -9,-17 0,-8 7,-16 13,-12 7,3 7,10 4,17 -3,5 -6,8 -7,14 5,0 -20,57 -24,67 14,9 35,6 48,-5 13,-12 18,-31 14,-48 -1,-8 -5,-15 -5,-24 0,-8 5,-17 14,-18 9,-2 17,11 14,22 -3,9 -10,16 -18,23 1,27 -6,55 -21,78 6,3 9,4 15,5 10,-31 30,-58 56,-78 -1,-9 -1,-19 4,-27 6,-8 20,-9 24,0 3,9 -5,15 -13,20 -32,26 -59,58 -77,94 18,1 35,3 53,3 5,1 10,1 14,-2 8,-4 13,-14 22,-12 6,0 12,8 8,15 -3,6 -9,10 -17,11 -20,0 -62,-13 -78,-5"/>
  <path class="fil0 str0" d="M233 200c-6,-2 -28,-23 -33,-41 -2,-4 -2,-9 -4,-12 -5,-7 -17,-6 -22,0 -5,7 -2,18 5,22 4,3 9,3 14,5 9,4 13,14 17,23 4,19 20,25 20,22 -38,10 -41,17 -57,31 -18,14 -32,33 -34,55 29,-32 54,-58 98,-81 3,3 -73,79 -92,194 4,0 65,-139 97,-187 7,61 -47,116 -42,177 6,-3 32,-53 43,-81 12,-28 17,-59 13,-90 21,25 27,59 23,91 -11,71 -28,88 -28,93 21,-13 28,-39 35,-62 6,-22 11,-44 11,-65 -1,-22 -10,-45 -28,-58 30,10 49,38 54,69 5,31 1,60 -12,91 4,1 31,-60 32,-93 2,-29 -25,-62 -44,-75 45,6 71,73 60,130 7,-2 24,-54 4,-95 -14,-30 -45,-50 -77,-54"/>
 </g>
</svg>
