<?xml version="1.0" encoding="UTF-8"?>
<!DOCTYPE svg PUBLIC "-//W3C//DTD SVG 1.1//EN" "http://www.w3.org/Graphics/SVG/1.1/DTD/svg11.dtd">
<!-- Creator: CorelDRAW X8 -->
<svg xmlns="http://www.w3.org/2000/svg" xml:space="preserve" width="500px" height="500px" version="1.1" style="shape-rendering:geometricPrecision; text-rendering:geometricPrecision; image-rendering:optimizeQuality; fill-rule:evenodd; clip-rule:evenodd"
viewBox="0 0 500 500"
 xmlns:xlink="http://www.w3.org/1999/xlink">
 <defs>
  <style type="text/css">
   <![CDATA[
    .str0 {stroke:black;stroke-width:0.750048}
    .fil0 {fill:none}
   ]]>
  </style>
 </defs>
 <g id="Layer_x0020_1">
  <metadata id="CorelCorpID_0Corel-Layer"/>
  <path class="fil0 str0" d="M275 31c-22,8 -12,39 -5,46 -6,3 -9,-17 -23,-14 1,10 9,27 13,29 -1,3 -7,2 -9,-1 -3,-2 -6,-6 -9,-5 -4,1 -5,7 -2,10 3,3 7,4 11,5 -1,2 -2,4 -4,7 4,0 6,4 6,8 0,3 -2,7 -2,10 -5,10 10,19 9,22 -3,2 -31,-37 -33,-11 4,16 19,31 37,33 -4,8 -2,17 -2,26 -1,9 -8,19 -16,17 -14,-4 -30,-34 -42,-36 -1,10 6,19 3,20 -11,-7 -14,-23 -28,-43 -3,4 -1,37 4,45 6,14 20,22 35,21 -14,11 -35,-5 -53,-8 -2,6 -1,14 3,20 -10,1 -19,0 -28,-4 1,16 9,30 19,41 -4,4 -12,3 -16,-2 -3,-4 -4,-10 -8,-12 -6,-3 -13,3 -13,10 0,6 4,12 7,17 -11,-2 -22,-10 -27,-21 -11,25 -9,51 -6,78 1,11 3,24 13,28 5,2 10,1 15,2 4,1 9,4 9,9 -7,1 -12,9 -10,17 1,7 7,12 14,14 7,3 14,3 21,2 41,-4 78,-25 110,-52 14,27 13,63 -2,89"/>
  <path class="fil0 str0" d="M287 448c6,-28 4,-58 -4,-86 7,-4 16,1 21,7 4,6 8,14 13,19 10,6 26,1 30,-10 20,4 41,-11 42,-31 1,-9 -1,-18 2,-27 4,-9 13,-14 20,-21 9,-10 11,-24 9,-38 -3,-13 -9,-25 -14,-38 -2,-3 -4,-7 -8,-7 -6,0 -9,6 -10,11 -11,27 -28,42 -34,42 -5,-2 19,-20 33,-57 2,-7 4,-16 0,-21 -6,-7 -17,-4 -24,0 -8,5 -17,10 -25,6 30,-15 52,-44 60,-75 2,-7 3,-16 -3,-20 -18,-10 -20,11 -25,12 -1,-2 11,-8 -7,-24 -30,-4 -19,22 -25,24 -1,-8 4,-22 -5,-31 -3,-8 -12,-16 -21,-16 -15,1 -14,17 -16,18 -5,-7 8,-29 2,-45 -9,6 -9,17 -12,19 -8,-7 -16,-19 -9,-29"/>
 </g>
</svg>
