<?xml version="1.0" encoding="UTF-8"?>
<!DOCTYPE svg PUBLIC "-//W3C//DTD SVG 1.1//EN" "http://www.w3.org/Graphics/SVG/1.1/DTD/svg11.dtd">
<!-- Creator: CorelDRAW X8 -->
<svg xmlns="http://www.w3.org/2000/svg" xml:space="preserve" width="500px" height="500px" version="1.1" style="shape-rendering:geometricPrecision; text-rendering:geometricPrecision; image-rendering:optimizeQuality; fill-rule:evenodd; clip-rule:evenodd"
viewBox="0 0 500 500"
 xmlns:xlink="http://www.w3.org/1999/xlink">
 <defs>
  <style type="text/css">
   <![CDATA[
    .str0 {stroke:black;stroke-width:1.00006}
    .fil0 {fill:none;fill-rule:nonzero}
   ]]>
  </style>
 </defs>
 <g id="Layer_x0020_1">
  <metadata id="CorelCorpID_0Corel-Layer"/>
  <path class="fil0 str0" d="M278 46c-10,12 -9,31 2,42 -4,-9 -14,-14 -23,-14 1,10 6,21 13,29 -1,3 -7,2 -9,-1 -3,-2 -6,-6 -9,-5 -4,1 -5,7 -2,10 3,3 7,4 11,5 -1,2 -2,4 -4,7 4,0 6,4 6,8 0,3 -2,7 -2,10 -1,9 4,16 9,23 -9,-6 -17,-13 -26,-19 -1,-1 -3,-2 -4,-2 -4,0 -5,5 -4,9 4,17 20,32 38,34 -4,8 -2,17 -2,26 -1,9 -8,19 -16,17 -4,-1 -7,-3 -10,-6 -11,-10 -22,-20 -33,-30 1,7 2,13 3,20 -10,-13 -20,-28 -28,-43 -1,15 -1,30 4,44 6,14 21,26 35,23 -17,-3 -35,-6 -53,-9 -2,7 -1,15 3,21 -10,1 -20,0 -29,-4 1,16 9,30 20,41 -5,4 -13,3 -17,-2 -3,-4 -4,-10 -8,-12 -6,-3 -13,3 -13,10 0,6 4,12 7,17 -11,-2 -22,-10 -27,-21 -11,25 -9,52 -6,79 1,11 3,24 13,28 5,2 10,1 15,2 4,1 9,5 9,10 -7,1 -12,9 -10,17 1,7 7,12 14,14 7,3 14,3 21,2 42,-4 80,-25 112,-53 14,28 13,64 -2,91"/>
  <path class="fil0 str0" d="M297 464c6,-29 4,-59 -4,-88 7,-4 16,1 21,7 4,7 8,15 14,20 10,6 26,1 30,-10 20,4 41,-12 43,-32 1,-9 -2,-18 2,-27 4,-9 13,-14 20,-21 9,-11 11,-25 9,-39 -3,-13 -9,-25 -14,-38 -2,-3 -4,-7 -8,-7 -6,-1 -9,6 -11,11 -7,17 -18,32 -34,42 14,-17 25,-37 33,-58 3,-7 5,-16 0,-21 -6,-7 -17,-4 -24,0 -8,5 -17,10 -25,6 30,-15 53,-44 61,-76 2,-7 3,-16 -3,-20 -4,-4 -11,-2 -16,1 -5,4 -7,10 -10,15 3,-10 -3,-22 -13,-24 -10,-3 -22,6 -22,16 0,-9 0,-18 -4,-27 -3,-8 -10,-16 -20,-16 -9,-1 -18,8 -15,17 0,-15 0,-30 1,-45 -4,6 -8,13 -12,19 -7,-8 -11,-19 -9,-29 -5,3 -10,7 -14,11"/>
 </g>
</svg>
