<?xml version="1.0" encoding="UTF-8"?>
<!DOCTYPE svg PUBLIC "-//W3C//DTD SVG 1.1//EN" "http://www.w3.org/Graphics/SVG/1.1/DTD/svg11.dtd">
<!-- Creator: CorelDRAW X8 -->
<svg xmlns="http://www.w3.org/2000/svg" xml:space="preserve" width="500px" height="500px" version="1.1" style="shape-rendering:geometricPrecision; text-rendering:geometricPrecision; image-rendering:optimizeQuality; fill-rule:evenodd; clip-rule:evenodd"
viewBox="0 0 500 500"
 xmlns:xlink="http://www.w3.org/1999/xlink">
 <defs>
  <style type="text/css">
   <![CDATA[
    .str0 {stroke:black;stroke-width:0.750048}
    .fil0 {fill:none}
   ]]>
  </style>
 </defs>
 <g id="Layer_x0020_1">
  <metadata id="CorelCorpID_0Corel-Layer"/>
  <path class="fil0 str0" d="M273 74c-1,-5 -9,-4 -11,1 -2,3 -1,9 1,13 -10,2 -19,7 -25,14 5,2 9,3 14,5 -3,4 -8,7 -12,10 -5,3 -10,6 -12,11 -2,5 1,12 6,13 2,0 4,-1 6,0 6,0 8,7 6,12 -3,6 -8,9 -13,12 -5,3 -9,6 -11,11 -2,6 2,13 7,15 5,2 12,0 16,-5 3,2 -15,24 -27,31 -1,-1 -2,-4 -4,-5 0,4 -3,7 -7,10 -4,2 -8,3 -12,4 -10,5 -15,18 -9,29 2,-4 7,-2 9,1 3,3 6,8 10,7 5,0 7,-5 8,-10 2,-8 4,-16 9,-23 5,-7 14,-11 22,-9 -3,3 -1,9 2,10 3,3 9,2 12,-1 3,-2 5,-7 8,-11 3,-3 7,-6 11,-4 6,1 7,10 6,16 -7,55 -10,110 -9,165"/>
  <path class="fil0 str0" d="M292 396c-14,-26 -14,-57 -11,-87 4,-30 10,-60 8,-90 10,7 23,10 34,8 11,-2 22,-10 28,-20 -7,3 -15,5 -22,3 -7,0 -14,-5 -17,-12 -2,-7 2,-16 9,-18 9,3 18,3 27,0 3,0 5,-1 6,-3 2,-2 3,-5 1,-6 -3,-4 -8,0 -13,3 -9,5 -21,-2 -27,-10 -2,-2 -3,-3 -3,-5 0,-5 4,-8 8,-9 4,-1 8,0 12,-2 4,-1 7,-5 6,-10 -2,-4 -9,-4 -14,-3 -6,1 -13,0 -13,-5 0,-3 1,-5 4,-7 3,-2 7,-3 11,-6 4,-2 7,-5 8,-9 1,-4 -1,-9 -6,-9 -7,-1 -9,9 -15,12 -7,4 -15,-3 -16,-11 0,-7 4,-15 7,-22 2,-3 2,-9 -1,-11 -5,-1 -8,5 -9,8 -3,-4 -7,-9 -11,-14 -2,4 -3,8 -1,13 -3,0 -6,1 -9,1"/>
 </g>
</svg>
