<?xml version="1.0" encoding="UTF-8"?>
<!DOCTYPE svg PUBLIC "-//W3C//DTD SVG 1.1//EN" "http://www.w3.org/Graphics/SVG/1.1/DTD/svg11.dtd">
<!-- Creator: CorelDRAW X8 -->
<svg xmlns="http://www.w3.org/2000/svg" xml:space="preserve" width="500px" height="500px" version="1.1" style="shape-rendering:geometricPrecision; text-rendering:geometricPrecision; image-rendering:optimizeQuality; fill-rule:evenodd; clip-rule:evenodd"
viewBox="0 0 500 500"
 xmlns:xlink="http://www.w3.org/1999/xlink">
 <defs>
  <style type="text/css">
   <![CDATA[
    .str0 {stroke:black;stroke-width:1.00006}
    .fil0 {fill:none;fill-rule:nonzero}
   ]]>
  </style>
 </defs>
 <g id="Layer_x0020_1">
  <metadata id="CorelCorpID_0Corel-Layer"/>
  <path class="fil0 str0" d="M134 40c26,79 70,152 128,212 2,68 -7,137 -28,202"/>
  <path class="fil0 str0" d="M213 189c39,-42 84,-79 132,-110"/>
  <path class="fil0 str0" d="M253 376c-20,-67 -72,-124 -136,-152"/>
  <path class="fil0 str0" d="M259 310c55,-32 110,-65 164,-97"/>
  <path class="fil0 str0" d="M308 124c-3,7 -2,16 3,22 5,6 15,8 22,4 6,-3 10,-11 8,-19 -3,-16 -25,-25 -33,-7z"/>
  <path class="fil0 str0" d="M136 160c7,3 16,3 20,-2 3,-3 4,-8 4,-12 0,-13 -16,-33 -30,-24 -14,10 -6,31 6,38z"/>
  <path class="fil0 str0" d="M148 315c6,7 16,9 24,5 19,-8 9,-37 -9,-40 -19,-3 -27,23 -15,35z"/>
  <path class="fil0 str0" d="M367 287c3,4 7,7 12,9 3,0 5,0 8,0 17,-5 13,-23 -1,-27 -13,-4 -27,3 -19,18z"/>
  <path class="fil0 str0" d="M288 205c-11,1 -19,11 -17,21 1,10 13,17 23,14 9,-3 15,-15 11,-24 -4,-10 -17,-14 -26,-9"/>
  <path class="fil0 str0" d="M69 222c-3,8 -5,17 -1,24 5,9 17,12 26,8 8,-4 13,-15 11,-24 -4,-20 -27,-28 -36,-8z"/>
  <path class="fil0 str0" d="M157 140c6,-2 12,-4 19,-6"/>
  <path class="fil0 str0" d="M296 114c2,5 7,10 12,11"/>
  <path class="fil0 str0" d="M248 235c-1,0 -3,-2 -2,-3 8,-2 15,-5 23,-7"/>
  <path class="fil0 str0" d="M358 252c4,7 9,13 14,19"/>
  <path class="fil0 str0" d="M179 292c6,-1 12,-2 18,-3"/>
  <path class="fil0 str0" d="M105 238c10,-1 19,-1 28,-2"/>
  <path class="fil0 str0" d="M189 209c0,-3 -3,-4 -6,-3 -2,1 -3,3 -5,5 -3,7 -6,14 -4,21 2,8 9,14 17,12 8,-1 12,-12 10,-21 -2,-8 -9,-14 -16,-20"/>
  <path class="fil0 str0" d="M235 111c-6,1 -11,5 -14,10 -3,6 -2,13 0,18 3,5 10,9 16,6 5,-3 5,-10 4,-15 -1,-4 -2,-8 -4,-10 -2,-3 -6,-5 -10,-5"/>
  <path class="fil0 str0" d="M237 145c2,4 5,8 8,12"/>
  <path class="fil0 str0" d="M195 216c8,-4 16,-7 24,-11"/>
  <path class="fil0 str0" d="M382 188c-7,2 -10,11 -8,18 3,7 10,11 18,11 4,0 9,-2 11,-6 3,-6 -1,-13 -7,-17 -5,-3 -12,-3 -19,-2"/>
  <path class="fil0 str0" d="M396 216c1,4 2,9 4,13"/>
 </g>
</svg>
