<?xml version="1.0" encoding="UTF-8"?>
<!DOCTYPE svg PUBLIC "-//W3C//DTD SVG 1.1//EN" "http://www.w3.org/Graphics/SVG/1.1/DTD/svg11.dtd">
<!-- Creator: CorelDRAW X8 -->
<svg xmlns="http://www.w3.org/2000/svg" xml:space="preserve" width="500px" height="500px" version="1.1" style="shape-rendering:geometricPrecision; text-rendering:geometricPrecision; image-rendering:optimizeQuality; fill-rule:evenodd; clip-rule:evenodd"
viewBox="0 0 500 500"
 xmlns:xlink="http://www.w3.org/1999/xlink">
 <defs>
  <style type="text/css">
   <![CDATA[
    .str0 {stroke:black;stroke-width:1.00006}
    .fil0 {fill:none;fill-rule:nonzero}
   ]]>
  </style>
 </defs>
 <g id="Layer_x0020_1">
  <metadata id="CorelCorpID_0Corel-Layer"/>
  <path class="fil0 str0" d="M196 342c12,-38 25,-75 37,-112 7,-22 14,-43 26,-62 26,-39 70,-62 99,-97"/>
  <path class="fil0 str0" d="M180 366c21,-10 36,-30 46,-51 10,-20 16,-43 24,-65 9,-26 22,-52 39,-73 18,-22 42,-39 69,-47"/>
  <path class="fil0 str0" d="M275 202c1,-1 2,-1 3,-1"/>
  <path class="fil0 str0" d="M278 202c9,-4 20,-5 30,-3 10,3 18,9 25,17"/>
  <path class="fil0 str0" d="M240 279c13,-9 27,-18 43,-21 4,-1 9,-1 13,1 4,2 7,7 6,11 -7,9 -9,21 -6,31 3,-5 7,-10 10,-15 -3,12 -5,24 -5,36 2,-8 4,-16 6,-23 2,14 6,28 13,41l-3 -22c6,13 12,25 20,37 -1,-7 -2,-14 -3,-20 4,3 8,7 12,10 -5,-9 -9,-18 -14,-27 -1,-2 -2,-4 -1,-6 1,-3 6,-3 9,-2 3,2 6,4 9,3 -4,-6 -10,-11 -17,-15 6,-1 11,-1 17,1 -9,-10 -21,-18 -34,-21 5,0 10,0 16,0 -8,-8 -19,-12 -30,-10"/>
  <path class="fil0 str0" d="M333 252c2,-4 5,-7 7,-10 4,10 10,20 16,29 0,-4 1,-7 4,-10 2,8 6,15 11,21 -1,-5 -2,-10 -3,-15 3,7 6,14 9,21 2,-20 -9,-40 -26,-49 3,2 5,4 8,7 -4,-4 -6,-13 -10,-17 -3,-4 -10,-10 -15,-12 -8,-2 -6,3 -6,10 1,8 2,17 5,25z"/>
  <path class="fil0 str0" d="M157 363c13,-29 14,-61 18,-92 8,-65 30,-127 64,-182 -38,85 -52,179 -83,268 -1,2 -2,4 -4,3 -1,0 -1,-2 -2,-3 -8,-52 -6,-104 -5,-156l1 -27c-11,51 -15,103 -7,153 2,7 3,14 6,20 3,6 9,12 15,13 9,2 17,-2 23,-8 6,-6 9,-14 12,-22 17,-50 24,-103 47,-149 26,-52 72,-92 126,-111"/>
 </g>
</svg>
