<?xml version="1.0" encoding="utf-8"?>
<!-- Generator: Adobe Illustrator 19.0.0, SVG Export Plug-In . SVG Version: 6.00 Build 0)  -->
<svg version="1.1" id="Layer_1" xmlns="http://www.w3.org/2000/svg" xmlns:xlink="http://www.w3.org/1999/xlink" x="0px" y="0px"
	 viewBox="-55 147 500 500" style="enable-background:new -55 147 500 500;" xml:space="preserve">
<style type="text/css">
	.st0{fill:none;stroke:#000000;stroke-width:1.0001;}
</style>
<g id="Layer_x0020_1">
	<path class="st0" d="M141,489c12-38,25-75,37-112c7-22,14-43,26-62c26-39,70-62,99-97"/>
	<path class="st0" d="M125,513c21-10,36-30,46-51c10-20,16-43,24-65c9.6-27.7,23.3-53.6,39-73c18-22,42-39,69-47"/>
	<path class="st0" d="M221.5,347.6c1-1,2-1,3-1"/>
	<path class="st0" d="M224.5,347.6c9-4,20-5,29.9-3c0,0,0.1,0,0.1,0c10,3,18,9,24.9,17"/>
	<path class="st0" d="M185,426c13-9,28.5-19.4,44.5-22.4c4-1,9-1,13,1c3.9,2,6.9,6.8,6.1,10.8c0,0.2-0.1,0.3-0.2,0.4
		c-6.9,9-8.8,20.9-5.9,30.8c2-3.3,4.4-6.6,6.7-9.9c0.6-0.9,2.1-0.3,1.8,0.8c-2.6,10.4-5.1,21.4-5.1,31.5c1.8-7.2,4.8-15.5,6.9-22.1
		c0.2-0.5,0.9-0.5,1,0.1c2,13.4,4.5,27.8,11.1,40.1l-3-22c6,13,12,25,20,37c-1-7-2-14-3-20c4,3,8,7,12,10c-5-9-9-18-14-27
		c-1-2-2-4-1-6c1-3,6-3,9-2c3,2,6,4,9,3c-4-6-8.5-12.4-15.5-16.4c6-1,11-1,17,1c-7.4-8.3-17-15.2-27.4-19c-1.1-0.4-0.8-2,0.4-2h6.4
		c0.9,0,1.4-1.2,0.7-1.8c-7.8-6.8-17.9-10-28.1-8.2"/>
	<path class="st0" d="M280.6,395.7c1.5-2.5,3.3-4.6,4.9-6.6c0.5-0.6,1.5-0.5,1.8,0.2c3.6,8.6,8.6,17.1,13.8,25
		c0.5,0.8,1.7,0.6,1.9-0.3c0.3-1.4,0.9-2.8,1.5-4.1c0.7-1.4,2.7-1.3,3.2,0.2c1.7,5.1,4.2,9.8,7.3,14c0.6,0.9,2.1,0.3,1.9-0.8v0
		c-0.3-1.3,1.6-1.9,2.2-0.7l2.7,6.3c0.5,1.1,2.1,0.7,2-0.5c-2.1-20.3-24.1-49.9-27.9-53.8c0,0,0,0-0.1-0.1c-3-4-9.9-9.9-14.9-11.9
		c-0.1,0-0.1,0-0.2-0.1c-7.9-1.9-5.9,3-5.9,10c0,0,0,0.1,0,0.1c0.9,7.3,1.8,15.4,4.2,22.8C279,396.3,280.2,396.4,280.6,395.7z"/>
	<path class="st0" d="M102,510c13-29,14-61,18-92c8-65,30-127,64-182c-38,85-52,179-83,268c-1,2-2,4-4,3c-1,0-1-2-2-3
		c-8-52-6-104-5-156l1-27c-11,51-15,103-7,153c2,7,3,14,6,20s9,12,15,13c9,2,17-2,23-8s9-14,12-22c17-50,24-103,47-149
		c26-52,72-92,126-111"/>
</g>
</svg>
