<?xml version="1.0" encoding="UTF-8"?>
<!DOCTYPE svg PUBLIC "-//W3C//DTD SVG 1.1//EN" "http://www.w3.org/Graphics/SVG/1.1/DTD/svg11.dtd">
<!-- Creator: CorelDRAW X8 -->
<svg xmlns="http://www.w3.org/2000/svg" xml:space="preserve" width="500px" height="500px" version="1.1" style="shape-rendering:geometricPrecision; text-rendering:geometricPrecision; image-rendering:optimizeQuality; fill-rule:evenodd; clip-rule:evenodd"
viewBox="0 0 500 500"
 xmlns:xlink="http://www.w3.org/1999/xlink">
 <defs>
  <style type="text/css">
   <![CDATA[
    .str0 {stroke:black;stroke-width:1.00006}
    .fil0 {fill:none;fill-rule:nonzero}
   ]]>
  </style>
 </defs>
 <g id="Layer_x0020_1">
  <metadata id="CorelCorpID_0Corel-Layer"/>
  <path class="fil0 str0" d="M307 107c-11,-2 -24,-2 -30,8 -4,6 -3,14 1,20 3,6 9,11 14,15 -13,33 -55,50 -64,84 -3,11 -3,22 -6,32 -4,14 -13,24 -23,35 -15,17 -31,35 -47,52 -11,12 -22,25 -26,41 27,-31 53,-63 80,-94 9,-11 20,-23 34,-25 15,-3 30,7 45,8 24,2 45,-16 55,-38 9,-21 9,-46 9,-69 7,-3 13,-5 18,-10 4,-4 8,-11 6,-17 -1,-9 -19,-20 -27,-25 -12,-8 -25,-14 -39,-17z"/>
 </g>
</svg>
