<?xml version="1.0" encoding="UTF-8"?>
<!DOCTYPE svg PUBLIC "-//W3C//DTD SVG 1.1//EN" "http://www.w3.org/Graphics/SVG/1.1/DTD/svg11.dtd">
<!-- Creator: CorelDRAW X8 -->
<svg xmlns="http://www.w3.org/2000/svg" xml:space="preserve" width="500px" height="500px" version="1.1" style="shape-rendering:geometricPrecision; text-rendering:geometricPrecision; image-rendering:optimizeQuality; fill-rule:evenodd; clip-rule:evenodd"
viewBox="0 0 500 500"
 xmlns:xlink="http://www.w3.org/1999/xlink">
 <defs>
  <style type="text/css">
   <![CDATA[
    .str0 {stroke:black;stroke-width:1.00006}
    .fil0 {fill:none;fill-rule:nonzero}
   ]]>
  </style>
 </defs>
 <g id="Layer_x0020_1">
  <metadata id="CorelCorpID_0Corel-Layer"/>
  <path class="fil0 str0" d="M313 105c-2,-8 -5,-15 -9,-22 -4,-7 -10,-14 -18,-14 -6,-1 -11,2 -16,6 -5,3 -9,7 -14,10 -6,2 -13,2 -17,-1"/>
  <path class="fil0 str0" d="M298 114c-2,-3 -6,-3 -9,-2 -3,1 -5,4 -7,6 -7,8 -13,17 -21,23 -9,6 -20,10 -30,5"/>
  <path class="fil0 str0" d="M305 119c3,1 6,4 8,7 2,3 3,7 4,10 5,12 12,22 22,30"/>
  <path class="fil0 str0" d="M318 117c0,0 -1,0 -2,-1 18,-8 38,-11 58,-8 6,1 11,2 17,2 6,-1 12,-4 13,-10"/>
  <path class="fil0 str0" d="M349 97c8,-9 17,-16 28,-23 2,-1 5,-3 7,-5 2,-2 3,-5 3,-8"/>
  <path class="fil0 str0" d="M357 44l-1 0c-16,19 -30,42 -39,66"/>
  <path class="fil0 str0" d="M293 131c-4,1 -6,7 -7,12 -1,10 0,21 3,31"/>
  <path class="fil0 str0" d="M332 119c7,-4 16,-2 22,3 7,5 11,12 17,18 6,5 13,10 21,9"/>
  <path class="fil0 str0" d="M310 147c-3,18 1,37 11,52"/>
  <path class="fil0 str0" d="M297 164c-2,3 0,8 0,12 2,10 -5,20 -13,26 -9,5 -20,7 -30,9"/>
  <path class="fil0 str0" d="M278 216c-34,6 -64,28 -81,57"/>
  <path class="fil0 str0" d="M275 230c-2,-1 -4,0 -6,2 -1,2 -2,3 -2,5 -3,7 -5,14 -4,20 2,9 9,16 16,21 7,7 14,13 22,20"/>
  <path class="fil0 str0" d="M250 236c-1,9 -1,18 1,27 1,3 2,7 2,11 0,4 -1,8 -3,10 -4,4 -9,4 -13,5 -15,2 -29,8 -40,17"/>
  <path class="fil0 str0" d="M240 281c-2,19 -11,38 -22,54 -11,17 -24,32 -35,49 -16,25 -29,53 -37,82"/>
  <path class="fil0 str0" d="M227 328c-2,4 -2,8 -2,12 1,4 3,8 4,12 2,11 2,22 -1,33"/>
  <path class="fil0 str0" d="M205 348c-28,2 -57,10 -80,27"/>
  <path class="fil0 str0" d="M193 378c-1,0 -1,0 -2,0 10,15 12,33 7,50"/>
  <path class="fil0 str0" d="M174 397c-9,1 -14,10 -21,16 -10,9 -23,14 -36,19"/>
  <path class="fil0 str0" d="M232 306c-6,-1 -12,3 -15,7 -4,5 -6,10 -8,16 -3,5 -6,10 -11,13"/>
 </g>
</svg>
