<?xml version="1.0" encoding="utf-8"?>
<!-- Generator: Adobe Illustrator 19.0.0, SVG Export Plug-In . SVG Version: 6.00 Build 0)  -->
<svg version="1.1" id="Layer_1" xmlns="http://www.w3.org/2000/svg" xmlns:xlink="http://www.w3.org/1999/xlink" x="0px" y="0px"
	 viewBox="-55 147 500 500" style="enable-background:new -55 147 500 500;" xml:space="preserve">
<style type="text/css">
	.st0{fill:none;stroke:#000000;stroke-width:1.0001;}
</style>
<g id="Layer_x0020_1">
	<path class="st0" d="M121,205c0-2-1-3-1-5c7,5,10,14,11,23s0,18,2,26c3,21,19,37,37,47c19,9,40,12,60,16c9,1,19,2,27-2
		c5-3,8-7,11-11c10-13,44-57,48-67c3.3-6.7,7.9-16.5,9-17.3c0.8-0.6,14.2-1.9,16.9,4.2c0,0.1,0.1,0.1,0.1,0.2c1.9,6-1,12.9-3,18.9
		c-9,27-9,56-13,84c-5,29-14,57-23,84c-7,21-14,42-24,61c-13,20-29,38-46,56c-10,10-19,20-29,30c-3,3-6,6-10,8c-11,4-22-5-31-13
		c-21-19-48-33-76-40c8-8,6-21,2-31c-4-11-9-21-8-32c2-14,15-24,22-38c8-17,5-39,14-56c5-9,14-16,16-27c2-13-8-26-17-37
		c-16-22-28-48-34-75"/>
	<path class="st0" d="M311,253c-7,10-14,20-15,32c0,4,1,9,3,12c2,4,7,6,11,6c7-1,10-9,12-16c3-14,5-28,5-42C328,223,317,245,311,253
		z"/>
	<path class="st0" d="M236,336c3,5,5,10,8,15c4,6,7,13,14,16c6,4,15,3,22-1s11-11,14-19c3-9,2-52-14-43c-6,3-12,15-18,20
		C254,330,245,334,236,336z"/>
	<path class="st0" d="M304,348c-3,11-12,19-22,26c-10,6-20,11-27,21c-7,8-9,21-1,28c6,6,17,4,24-1s11-13,14-21c7-17,12-36,16-54
		c2-6,4-15,0-20C303,332,305,341,304,348z"/>
	<path class="st0" d="M217,369c-3,5-5,10-8,16c-1,2-2,6-1,8c2,3,6,4,9,4c5,0,11,0,16,0c4,1,9,1,13-2C265,382,232,340,217,369z"/>
	<path class="st0" d="M251,442c-8,2-13,8-18,14c-6,7-13,13-19,20c-3,3-5,6-7,9c-1,4-1,8,1,11c4,4,10,4,15,3c15-4,29-14,38-27
		C268,460,275,435,251,442z"/>
	<path class="st0" d="M188,421c-5,3-10,6-12,11c-5,8,1,20,9,24c9,5,19,4,29,1c8-3,15-8,21-13c3-2,6-5,7-8c4-9-1-30-11-32
		C220,401,197,416,188,421z"/>
	<path class="st0" d="M145,474c-3,9,3,20,11,24c15,6,42-10,34-28C182,454,151,458,145,474z"/>
	<path class="st0" d="M178,510c-8,1-15-2-23-1c-3,0-6,1-7,3c-2,4,1,9,5,12s8,7,13,10c4,4,9,7,15,9c6,1,13,0,19-3s12-7,17-11
		c2-1,4-3,5-5c2-2,2-5,1-7s-3-2-4-3c-5-3-16-12-23-12C190,503,185,510,178,510z"/>
	<path class="st0" d="M113,261c1,3,3,5,5,7c3,1,6,2,8,0c0-8,0-16,0-24s-4-28-17-20C98,230,108,254,113,261z"/>
	<path class="st0" d="M166,333c3,2,6,4,10,3s6-7,5-11c-2-9-8-15-15-21c-10-8-23-19-36-22C132,302,151,322,166,333z"/>
	<path class="st0" d="M206,322c-6,2-12,3-16,8c-7,6-6,17-11,25c-3,4-7,8-10,12s-4,10-2,15c3,5,9,6,15,4c5-1,9-5,13-9
		c10-10,20-21,29-33C238,327,225,317,206,322z"/>
	<path class="st0" d="M124,360c-5,9-11,18-12,28s5,22,15,24c7,1,15-3,20-9s8-13,10-21c2-9,4-18,3-27c-1-7-7-21-16-21
		C136,333,128,353,124,360z"/>
	<path class="st0" d="M139,420c-2,3-3,6-4,10c0,3,2,7,5,9c4,2,9,0,14-2c8-5,16-9,22-16c11-11,12-23-5-21C158,402,146,410,139,420z"
		/>
	<path class="st0" d="M88,442c-4,13,1,28,12,37c7,6,19,8,26,2c6-5,7-13,7-21c-1-11-3-37-16-42C105,414,91,432,88,442z"/>
	<path class="st0" d="M131,496c-4-2-8-4-13-4c-4-1-9,1-10,6c-2,5,2,11,7,13c6,2,13,2,17-2c5-4,4-13-1-15"/>
</g>
</svg>
