<?xml version="1.0" encoding="UTF-8"?>
<!DOCTYPE svg PUBLIC "-//W3C//DTD SVG 1.1//EN" "http://www.w3.org/Graphics/SVG/1.1/DTD/svg11.dtd">
<!-- Creator: CorelDRAW X8 -->
<svg xmlns="http://www.w3.org/2000/svg" xml:space="preserve" width="500px" height="500px" version="1.1" style="shape-rendering:geometricPrecision; text-rendering:geometricPrecision; image-rendering:optimizeQuality; fill-rule:evenodd; clip-rule:evenodd"
viewBox="0 0 500 500"
 xmlns:xlink="http://www.w3.org/1999/xlink">
 <defs>
  <style type="text/css">
   <![CDATA[
    .str0 {stroke:black;stroke-width:1.00006}
    .fil0 {fill:none;fill-rule:nonzero}
   ]]>
  </style>
 </defs>
 <g id="Layer_x0020_1">
  <metadata id="CorelCorpID_0Corel-Layer"/>
  <path class="fil0 str0" d="M228 273c14,-15 31,-30 40,-49 7,-17 8,-35 8,-53 1,-18 1,-35 -3,-52 -6,-22 -21,-41 -35,-59 12,0 20,10 27,19 27,37 44,83 35,128 -2,12 -6,24 -7,36 -1,21 6,43 1,64 -5,23 -25,40 -44,55 -3,3 -7,6 -12,6 -4,0 -9,-6 -6,-9 -7,-1 -14,1 -21,4 0,-7 -1,-14 -1,-21 -8,3 -15,6 -23,9 4,-7 10,-14 12,-21 2,-6 2,-12 4,-18 4,-15 14,-28 25,-39z"/>
  <path class="fil0 str0" d="M211 361c10,-24 30,-41 44,-62 14,-23 21,-50 26,-76 5,-29 8,-58 3,-87 -4,-28 -18,-56 -41,-74"/>
 </g>
</svg>
