<?xml version="1.0" encoding="UTF-8"?>
<!DOCTYPE svg PUBLIC "-//W3C//DTD SVG 1.1//EN" "http://www.w3.org/Graphics/SVG/1.1/DTD/svg11.dtd">
<!-- Creator: CorelDRAW X8 -->
<svg xmlns="http://www.w3.org/2000/svg" xml:space="preserve" width="500px" height="500px" version="1.1" style="shape-rendering:geometricPrecision; text-rendering:geometricPrecision; image-rendering:optimizeQuality; fill-rule:evenodd; clip-rule:evenodd"
viewBox="0 0 500 500"
 xmlns:xlink="http://www.w3.org/1999/xlink">
 <defs>
  <style type="text/css">
   <![CDATA[
    .str0 {stroke:black;stroke-width:1.00006}
    .fil0 {fill:none}
   ]]>
  </style>
 </defs>
 <g id="Layer_x0020_1">
  <metadata id="CorelCorpID_0Corel-Layer"/>
  <path class="fil0 str0" d="M123 408c3,-13 7,-26 13,-38 6,-14 16,-25 28,-31 12,-7 27,-8 41,-9 15,-1 31,-2 45,-1 16,1 30,5 43,14"/>
  <path class="fil0 str0" d="M160 344c-12,-35 -33,-67 -60,-92"/>
  <path class="fil0 str0" d="M171 334c2,-19 6,-38 14,-56 8,-18 20,-34 35,-44 17,-10 36,-15 55,-16 17,-2 35,-1 52,3 17,5 34,14 44,28"/>
  <path class="fil0 str0" d="M205 247c-9,-24 -31,-43 -57,-50"/>
  <path class="fil0 str0" d="M231 227c-10,-17 -2,-39 10,-54 23,-28 58,-41 93,-50 11,-2 24,-6 36,-6 13,2 25,5 34,14"/>
  <path class="fil0 str0" d="M321 130c7,-28 23,-53 45,-71"/>
  <path class="fil0 str0" d="M134 375c20,-4 42,-2 61,7"/>
  <path class="fil0 str0" d="M156 374c0,-1 -1,-1 -1,0 2,6 3,12 7,18"/>
  <path class="fil0 str0" d="M173 375c6,-6 12,-12 18,-19"/>
  <path class="fil0 str0" d="M183 381c1,3 1,5 1,9"/>
  <path class="fil0 str0" d="M213 330c15,14 28,32 38,51"/>
  <path class="fil0 str0" d="M236 356c-6,1 -10,7 -11,14"/>
  <path class="fil0 str0" d="M236 355c0,0 -1,-1 0,-2 0,0 1,0 2,0 7,-1 12,-1 18,-1"/>
  <path class="fil0 str0" d="M245 373c-6,3 -8,10 -7,17"/>
  <path class="fil0 str0" d="M251 373c-1,-1 -2,-1 -3,-2 7,-1 13,-1 20,-1"/>
  <path class="fil0 str0" d="M227 326c16,-32 48,-55 82,-61"/>
  <path class="fil0 str0" d="M273 279c8,9 16,19 23,29"/>
  <path class="fil0 str0" d="M283 293c0,0 0,-1 0,-2l-11 19"/>
  <path class="fil0 str0" d="M290 303c6,-4 12,-7 19,-9"/>
  <path class="fil0 str0" d="M277 288c1,-5 4,-7 9,-6"/>
  <path class="fil0 str0" d="M247 296c-3,-7 -7,-13 -10,-19"/>
  <path class="fil0 str0" d="M144 356c-14,-23 -38,-39 -64,-47"/>
  <path class="fil0 str0" d="M111 291c-3,9 -6,19 -5,29"/>
  <path class="fil0 str0" d="M93 326c0,0 -1,0 -1,-1 6,-1 12,-2 18,-3"/>
  <path class="fil0 str0" d="M181 284c-8,-13 -23,-23 -38,-25"/>
  <path class="fil0 str0" d="M162 265c1,-8 3,-16 6,-24"/>
  <path class="fil0 str0" d="M161 266c-8,3 -15,7 -20,13"/>
  <path class="fil0 str0" d="M188 268c11,1 22,8 29,16"/>
  <path class="fil0 str0" d="M206 276c3,-6 9,-9 14,-9"/>
  <path class="fil0 str0" d="M206 278c-2,5 -3,11 -2,16"/>
  <path class="fil0 str0" d="M235 186c25,-12 55,-14 82,-7"/>
  <path class="fil0 str0" d="M279 178c0,8 1,16 2,25"/>
  <path class="fil0 str0" d="M257 179c-2,6 -1,11 2,16"/>
  <path class="fil0 str0" d="M269 174c3,-2 6,-6 7,-9"/>
  <path class="fil0 str0" d="M265 152c-6,-18 -24,-32 -42,-35"/>
  <path class="fil0 str0" d="M250 132c0,-4 7,-11 10,-17"/>
  <path class="fil0 str0" d="M240 123c-5,3 -11,7 -15,11"/>
  <path class="fil0 str0" d="M307 219c12,-22 30,-41 51,-54"/>
  <path class="fil0 str0" d="M329 186c10,4 19,11 26,19"/>
  <path class="fil0 str0" d="M342 179c-2,-6 -5,-14 -10,-20"/>
  <path class="fil0 str0" d="M331 105c12,-3 24,-4 38,-2"/>
  <path class="fil0 str0" d="M353 103c2,-4 3,-10 6,-15"/>
  <path class="fil0 str0" d="M342 88c-8,-6 -17,-8 -25,-7"/>
  <path class="fil0 str0" d="M325 83c-2,-3 2,-9 6,-11"/>
  <path class="fil0 str0" d="M365 117c4,23 12,45 26,63"/>
  <path class="fil0 str0" d="M379 156c4,-2 9,-2 15,-2"/>
  <path class="fil0 str0" d="M365 137c-5,1 -11,5 -15,8"/>
  <path class="fil0 str0" d="M381 116c4,-5 20,-10 31,-16"/>
  <path class="fil0 str0" d="M401 109c3,2 7,5 11,7"/>
  <path class="fil0 str0" d="M346 227l2 -2c2,17 3,34 2,51"/>
  <path class="fil0 str0" d="M349 259c-7,-1 -15,1 -20,4"/>
  <path class="fil0 str0" d="M351 244c-6,0 -10,2 -14,4"/>
  <path class="fil0 str0" d="M350 253c6,-1 15,2 20,7"/>
  <path class="fil0 str0" d="M188 220c6,-19 14,-37 21,-55"/>
  <path class="fil0 str0" d="M204 182c-6,-5 -11,-8 -18,-10"/>
  <path class="fil0 str0" d="M196 199c7,0 13,1 20,2"/>
  <path class="fil0 str0" d="M174 208c-17,3 -32,13 -43,28"/>
  <path class="fil0 str0" d="M142 224c-6,-1 -11,-6 -15,-10"/>
 </g>
</svg>
