<?xml version="1.0" encoding="UTF-8"?>
<!DOCTYPE svg PUBLIC "-//W3C//DTD SVG 1.1//EN" "http://www.w3.org/Graphics/SVG/1.1/DTD/svg11.dtd">
<!-- Creator: CorelDRAW X8 -->
<svg xmlns="http://www.w3.org/2000/svg" xml:space="preserve" width="500px" height="500px" version="1.1" style="shape-rendering:geometricPrecision; text-rendering:geometricPrecision; image-rendering:optimizeQuality; fill-rule:evenodd; clip-rule:evenodd"
viewBox="0 0 500 500"
 xmlns:xlink="http://www.w3.org/1999/xlink">
 <defs>
  <style type="text/css">
   <![CDATA[
    .str0 {stroke:black;stroke-width:0.750048}
    .fil0 {fill:none}
   ]]>
  </style>
 </defs>
 <g id="Layer_x0020_1">
  <metadata id="CorelCorpID_0Corel-Layer"/>
  <path class="fil0 str0" d="M328 245c11,-31 4,-66 -11,-96 -15,-27 -38,-51 -68,-55 -11,-2 -23,0 -34,0 -20,2 -40,-18 -43,-17 5,27 46,40 46,42 -10,1 -15,6 -18,14 -3,7 -2,16 3,22 7,7 18,9 26,15 13,12 12,33 6,50 -5,16 -14,34 -11,51 3,15 14,27 27,33 13,7 28,8 43,7 0,27 1,54 1,81 5,1 11,-3 13,-9 1,-6 0,-11 0,-17 -4,-22 -3,-45 4,-66 3,-8 3,-15 4,-23 1,-12 8,-22 12,-32l0 0z"/>
 </g>
</svg>
