<?xml version="1.0" encoding="UTF-8"?>
<!DOCTYPE svg PUBLIC "-//W3C//DTD SVG 1.1//EN" "http://www.w3.org/Graphics/SVG/1.1/DTD/svg11.dtd">
<!-- Creator: CorelDRAW X8 -->
<svg xmlns="http://www.w3.org/2000/svg" xml:space="preserve" width="500px" height="500px" version="1.1" style="shape-rendering:geometricPrecision; text-rendering:geometricPrecision; image-rendering:optimizeQuality; fill-rule:evenodd; clip-rule:evenodd"
viewBox="0 0 500 500"
 xmlns:xlink="http://www.w3.org/1999/xlink">
 <defs>
  <style type="text/css">
   <![CDATA[
    .str0 {stroke:black;stroke-width:1.00006}
    .fil0 {fill:none;fill-rule:nonzero}
   ]]>
  </style>
 </defs>
 <g id="Layer_x0020_1">
  <metadata id="CorelCorpID_0Corel-Layer"/>
  <path class="fil0 str0" d="M252 106c-14,6 -30,9 -44,16 -18,10 -31,28 -39,47 -7,19 -10,40 -13,60 -5,34 -9,69 -6,103 1,6 2,12 5,17 3,3 8,5 12,7 30,12 60,25 91,38 9,4 19,8 29,6 14,-2 24,-13 31,-24 28,-41 39,-92 34,-142 -5,-49 -24,-96 -52,-137 -4,-6 -8,-12 -13,-17 -7,-7 -7,-6 -11,1 -7,11 -12,19 -24,25z"/>
  <line class="fil0 str0" x1="202" y1="372" x2="236" y2= "238" />
  <path class="fil0 str0" d="M241 389c19,-48 30,-100 31,-152"/>
 </g>
</svg>
