<?xml version="1.0" encoding="UTF-8"?>
<!DOCTYPE svg PUBLIC "-//W3C//DTD SVG 1.1//EN" "http://www.w3.org/Graphics/SVG/1.1/DTD/svg11.dtd">
<!-- Creator: CorelDRAW X8 -->
<svg xmlns="http://www.w3.org/2000/svg" xml:space="preserve" width="500px" height="500px" version="1.1" style="shape-rendering:geometricPrecision; text-rendering:geometricPrecision; image-rendering:optimizeQuality; fill-rule:evenodd; clip-rule:evenodd"
viewBox="0 0 500 500"
 xmlns:xlink="http://www.w3.org/1999/xlink">
 <defs>
  <style type="text/css">
   <![CDATA[
    .str0 {stroke:black;stroke-width:0.750048}
    .fil0 {fill:none}
   ]]>
  </style>
 </defs>
 <g id="Layer_x0020_1">
  <metadata id="CorelCorpID_0Corel-Layer"/>
  <path class="fil0 str0" d="M213 100c-4,7 -7,15 -7,22 1,7 5,13 8,19 3,6 6,13 3,19 13,-6 18,-23 11,-35 -2,-2 -3,-6 -3,-9 -2,-12 24,-26 20,-38 -7,-14 -30,17 -32,22l0 0z"/>
  <path class="fil0 str0" d="M216 167c-29,33 -37,78 -43,122 -5,42 -7,88 -27,127"/>
  <path class="fil0 str0" d="M187 394c-1,-53 25,-103 50,-150 26,-46 53,-94 54,-148 3,0 9,49 31,33 2,-3 2,-6 1,-10 -3,-14 -17,-23 -31,-21"/>
  <path class="fil0 str0" d="M266 419c2,-27 7,-53 13,-78 6,-24 14,-46 14,-71 1,-26 -9,-52 -18,-77 6,-8 16,-13 26,-13 1,7 -2,14 -8,16 -6,3 -13,2 -18,-2"/>
  <path class="fil0 str0" d="M228 414c-18,-41 -45,-77 -67,-116 -22,-39 -40,-82 -39,-126 -5,-2 -12,-5 -18,-4 -6,2 -12,8 -11,14 1,4 6,7 10,8 4,0 9,-1 13,-2 3,-1 6,-2 8,-5 2,-1 2,-6 1,-7"/>
  <path class="fil0 str0" d="M307 413c-1,-1 -4,-2 -6,-2 8,-32 23,-61 39,-91 14,-30 30,-58 39,-90 8,-32 10,-67 -2,-98 6,1 10,4 16,7 4,3 10,5 15,5 5,-1 12,-5 11,-11 -1,-5 -8,-9 -14,-10 -11,0 -21,2 -30,7"/>
 </g>
</svg>
