<?xml version="1.0" encoding="UTF-8"?>
<!DOCTYPE svg PUBLIC "-//W3C//DTD SVG 1.1//EN" "http://www.w3.org/Graphics/SVG/1.1/DTD/svg11.dtd">
<!-- Creator: CorelDRAW X8 -->
<svg xmlns="http://www.w3.org/2000/svg" xml:space="preserve" width="500px" height="500px" version="1.1" style="shape-rendering:geometricPrecision; text-rendering:geometricPrecision; image-rendering:optimizeQuality; fill-rule:evenodd; clip-rule:evenodd"
viewBox="0 0 500 500"
 xmlns:xlink="http://www.w3.org/1999/xlink">
 <defs>
  <style type="text/css">
   <![CDATA[
    .str0 {stroke:black;stroke-width:1.00006}
    .fil0 {fill:none;fill-rule:nonzero}
   ]]>
  </style>
 </defs>
 <g id="Layer_x0020_1">
  <metadata id="CorelCorpID_0Corel-Layer"/>
  <path class="fil0 str0" d="M207 76c-4,8 -8,17 -7,25 1,8 5,15 9,22 3,7 6,15 3,22 15,-7 21,-26 13,-40 -2,-3 -4,-7 -4,-10 -2,-14 28,-31 23,-44 -8,-16 -34,19 -37,25z"/>
  <path class="fil0 str0" d="M211 153c-33,38 -43,90 -49,140 -6,49 -9,101 -31,146"/>
  <path class="fil0 str0" d="M178 414c-2,-61 28,-118 57,-172 30,-53 61,-109 62,-170 3,13 11,24 20,33 4,4 11,8 16,4 2,-3 2,-7 1,-11 -3,-16 -21,-27 -37,-24"/>
  <path class="fil0 str0" d="M269 443c2,-31 7,-61 14,-90 7,-27 17,-53 17,-81 1,-30 -11,-60 -21,-89 7,-9 18,-15 30,-15 1,8 -3,16 -9,19 -7,3 -16,2 -21,-3"/>
  <path class="fil0 str0" d="M225 437c-21,-47 -52,-89 -77,-133 -26,-45 -46,-94 -45,-145 -6,-3 -14,-6 -21,-5 -7,2 -14,9 -12,16 1,5 6,8 11,9 5,1 10,-1 15,-2 3,-1 7,-2 9,-5 2,-2 3,-7 1,-9"/>
  <path class="fil0 str0" d="M316 436c-2,-1 -5,-2 -7,-2 9,-37 26,-71 44,-105 17,-34 35,-67 45,-104 10,-36 12,-76 -2,-112 7,1 12,5 18,8 5,3 12,6 18,6 6,-1 13,-6 12,-13 -1,-6 -9,-10 -16,-11 -12,-1 -24,2 -34,8"/>
 </g>
</svg>
