<?xml version="1.0" encoding="UTF-8"?>
<!DOCTYPE svg PUBLIC "-//W3C//DTD SVG 1.1//EN" "http://www.w3.org/Graphics/SVG/1.1/DTD/svg11.dtd">
<!-- Creator: CorelDRAW X8 -->
<svg xmlns="http://www.w3.org/2000/svg" xml:space="preserve" width="500px" height="500px" version="1.1" style="shape-rendering:geometricPrecision; text-rendering:geometricPrecision; image-rendering:optimizeQuality; fill-rule:evenodd; clip-rule:evenodd"
viewBox="0 0 500 500"
 xmlns:xlink="http://www.w3.org/1999/xlink">
 <defs>
  <style type="text/css">
   <![CDATA[
    .str0 {stroke:black;stroke-width:0.750048}
    .fil0 {fill:none}
   ]]>
  </style>
 </defs>
 <g id="Layer_x0020_1">
  <metadata id="CorelCorpID_0Corel-Layer"/>
  <path class="fil0 str0" d="M244 126c-5,-8 -13,-14 -19,-20 -16,-13 -32,-25 -47,-38 1,8 4,16 8,24 12,22 26,45 41,65 9,12 18,23 25,36 -14,14 -27,27 -40,40 -10,10 -20,21 -30,32 -9,12 -15,25 -22,38 -13,26 -24,53 -34,79 34,-28 66,-59 94,-92 9,-10 18,-20 24,-31 19,-34 14,-53 18,-53 2,-2 9,66 24,102 4,13 9,26 13,39 6,17 14,36 30,45 6,-24 1,-49 -6,-73 -11,-40 -28,-79 -53,-112 43,-33 85,-70 105,-120 -26,9 -48,27 -67,47 -10,10 -19,21 -28,31 -8,10 -17,27 -22,6 -3,-15 -4,-32 -14,-45z"/>
 </g>
</svg>
