<?xml version="1.0" encoding="UTF-8"?>
<!DOCTYPE svg PUBLIC "-//W3C//DTD SVG 1.1//EN" "http://www.w3.org/Graphics/SVG/1.1/DTD/svg11.dtd">
<!-- Creator: CorelDRAW X8 -->
<svg xmlns="http://www.w3.org/2000/svg" xml:space="preserve" width="500px" height="500px" version="1.1" style="shape-rendering:geometricPrecision; text-rendering:geometricPrecision; image-rendering:optimizeQuality; fill-rule:evenodd; clip-rule:evenodd"
viewBox="0 0 500 500"
 xmlns:xlink="http://www.w3.org/1999/xlink">
 <defs>
  <style type="text/css">
   <![CDATA[
    .str0 {stroke:black;stroke-width:1.00006}
    .fil0 {fill:none;fill-rule:nonzero}
   ]]>
  </style>
 </defs>
 <g id="Layer_x0020_1">
  <metadata id="CorelCorpID_0Corel-Layer"/>
  <path class="fil0 str0" d="M278 78c-11,-15 -30,-22 -48,-22 -18,0 -36,6 -53,12l54 14c-11,11 -28,11 -43,10 -10,-1 -21,-2 -32,-3 -1,6 -2,13 -1,19 2,7 5,13 11,16 3,2 7,2 11,3 18,2 37,5 55,1 17,-3 35,-13 43,-30 3,1 6,2 8,4 -6,12 -13,24 -20,36 -4,8 -9,16 -10,25 -1,4 0,9 -1,13 -1,6 -4,11 -6,16 -18,40 -15,85 -17,128 -1,31 -4,61 -9,91"/>
  <path class="fil0 str0" d="M250 179c22,-27 40,-57 55,-88 4,-7 7,-15 12,-21 6,-7 14,-11 22,-10 6,1 12,6 10,11 -2,4 -7,8 -4,11 2,2 4,0 7,0 4,0 7,4 8,7 1,4 1,8 1,11 0,15 6,30 15,42 -2,-14 -4,-29 -6,-43 5,3 11,4 16,2 -5,-21 -26,-37 -48,-34"/>
  <path class="fil0 str0" d="M231 231c-5,-6 -7,-14 -9,-22 -2,-8 -3,-16 -7,-23 -4,-7 -11,-13 -19,-12 -3,0 -6,2 -9,1 -4,-1 -5,-5 -7,-7 -3,-5 -7,-9 -11,-12 -4,-4 -10,-7 -14,-5 -3,2 -5,5 -6,8 -3,6 -7,12 -10,19 -2,4 -4,8 -6,13 7,-1 13,-7 19,-11 8,-6 19,-7 29,-5 3,1 7,4 7,7 0,1 -1,3 -1,4 -10,14 -24,26 -31,41 4,1 8,-1 11,-4 8,-6 15,-12 21,-20 5,-8 8,-18 5,-27 4,0 7,0 11,0"/>
 </g>
</svg>
