<?xml version="1.0" encoding="UTF-8"?>
<!DOCTYPE svg PUBLIC "-//W3C//DTD SVG 1.1//EN" "http://www.w3.org/Graphics/SVG/1.1/DTD/svg11.dtd">
<!-- Creator: CorelDRAW X8 -->
<svg xmlns="http://www.w3.org/2000/svg" xml:space="preserve" width="500px" height="500px" version="1.1" style="shape-rendering:geometricPrecision; text-rendering:geometricPrecision; image-rendering:optimizeQuality; fill-rule:evenodd; clip-rule:evenodd"
viewBox="0 0 500 500"
 xmlns:xlink="http://www.w3.org/1999/xlink">
 <defs>
  <style type="text/css">
   <![CDATA[
    .str0 {stroke:black;stroke-width:1.00006}
    .fil0 {fill:none;fill-rule:nonzero}
   ]]>
  </style>
 </defs>
 <g id="Layer_x0020_1">
  <metadata id="CorelCorpID_0Corel-Layer"/>
  <path class="fil0 str0" d="M226 25c-30,-4 -61,2 -88,13 -25,9 -50,24 -62,48 -6,12 -9,25 -12,37 -15,50 -48,95 -46,147 1,19 6,37 12,55 7,20 13,41 20,61 4,12 8,24 17,32 8,9 19,14 29,21 19,13 35,33 57,37 11,1 21,-1 32,-3 48,-11 95,-22 143,-32 17,-4 36,-10 41,-27 4,-16 -9,-30 -20,-42 -67,-69 -132,-139 -197,-210 41,22 64,67 98,99 13,12 27,22 41,33 44,33 85,70 122,110 28,-9 48,-35 58,-63 10,-28 11,-59 11,-88 0,-26 0,-52 -11,-75 -10,-21 -29,-37 -48,-51 -34,-24 -71,-40 -108,-57 -32,-15 -51,-40 -89,-45z"/>
 </g>
</svg>
