<?xml version="1.0" encoding="UTF-8"?>
<!DOCTYPE svg PUBLIC "-//W3C//DTD SVG 1.1//EN" "http://www.w3.org/Graphics/SVG/1.1/DTD/svg11.dtd">
<!-- Creator: CorelDRAW X8 -->
<svg xmlns="http://www.w3.org/2000/svg" xml:space="preserve" width="500px" height="500px" version="1.1" style="shape-rendering:geometricPrecision; text-rendering:geometricPrecision; image-rendering:optimizeQuality; fill-rule:evenodd; clip-rule:evenodd"
viewBox="0 0 500 500"
 xmlns:xlink="http://www.w3.org/1999/xlink">
 <defs>
  <style type="text/css">
   <![CDATA[
    .str0 {stroke:black;stroke-width:0.750048}
    .fil0 {fill:none}
   ]]>
  </style>
 </defs>
 <g id="Layer_x0020_1">
  <metadata id="CorelCorpID_0Corel-Layer"/>
  <path class="fil0 str0" d="M234 20c-29,-4 -59,2 -85,13 -24,8 -48,23 -60,46 -6,12 -8,24 -11,36 -15,48 -47,92 -45,142 1,18 6,36 12,53 7,19 12,40 19,59 4,12 8,23 17,31 7,9 18,14 28,20 18,13 33,32 55,36 10,1 20,-1 31,-3 46,-10 92,-21 138,-31 16,-4 35,-9 40,-26 3,-15 -9,-29 -20,-40 -84,-93 -177,-169 -190,-203 7,-3 62,64 94,95 13,12 27,22 40,32 43,32 82,68 118,107 27,-9 47,-34 56,-61 10,-27 11,-57 11,-85 0,-26 0,-51 -11,-73 -9,-20 -28,-36 -46,-49 -33,-24 -69,-39 -105,-55 -31,-15 -49,-39 -86,-44l0 0z"/>
 </g>
</svg>
