<?xml version="1.0" encoding="UTF-8"?>
<!DOCTYPE svg PUBLIC "-//W3C//DTD SVG 1.1//EN" "http://www.w3.org/Graphics/SVG/1.1/DTD/svg11.dtd">
<!-- Creator: CorelDRAW X8 -->
<svg xmlns="http://www.w3.org/2000/svg" xml:space="preserve" width="500px" height="500px" version="1.1" style="shape-rendering:geometricPrecision; text-rendering:geometricPrecision; image-rendering:optimizeQuality; fill-rule:evenodd; clip-rule:evenodd"
viewBox="0 0 500 500"
 xmlns:xlink="http://www.w3.org/1999/xlink">
 <defs>
  <style type="text/css">
   <![CDATA[
    .str0 {stroke:black;stroke-width:0.750048}
    .fil0 {fill:none}
   ]]>
  </style>
 </defs>
 <g id="Layer_x0020_1">
  <metadata id="CorelCorpID_0Corel-Layer"/>
  <path class="fil0 str0" d="M213 78c7,-6 18,-10 26,-5 4,4 5,9 6,13 2,10 5,21 12,30 6,7 19,12 28,7 -12,33 -18,55 -12,59 7,-19 33,-7 48,-15 9,-4 14,-13 18,-21 1,-1 1,-1 1,-2 5,-8 10,-16 11,-26 2,-8 1,-18 -6,-25 -1,-1 -2,-2 -4,-2 -4,-2 -8,6 -13,8 -4,2 -9,0 -12,-4 -4,-3 -6,-8 -8,-11 -3,-8 -8,-14 -15,-19 -2,-3 -6,-6 -11,-7 -15,-2 -25,24 -40,19"/>
  <path class="fil0 str0" d="M212 87c-4,-6 -7,-12 -11,-16 -7,5 -15,12 -20,19 -20,27 -14,68 11,89 15,11 34,16 46,30 -6,-1 -12,-2 -18,-3 5,18 2,36 -4,53 -5,17 -14,34 -21,50 -11,26 -19,54 -25,82 0,2 -1,5 0,7 2,4 7,6 12,8 10,3 23,5 32,-1 4,-4 7,-9 9,-15 24,-52 50,-107 46,-165 -1,-4 -3,-8 -4,-13 27,13 88,28 98,2 5,-24 24,-49 20,-79 -4,-19 -20,-37 -40,-42"/>
 </g>
</svg>
