<?xml version="1.0" encoding="UTF-8"?>
<!DOCTYPE svg PUBLIC "-//W3C//DTD SVG 1.1//EN" "http://www.w3.org/Graphics/SVG/1.1/DTD/svg11.dtd">
<!-- Creator: CorelDRAW X8 -->
<svg xmlns="http://www.w3.org/2000/svg" xml:space="preserve" width="500px" height="500px" version="1.1" style="shape-rendering:geometricPrecision; text-rendering:geometricPrecision; image-rendering:optimizeQuality; fill-rule:evenodd; clip-rule:evenodd"
viewBox="0 0 500 500"
 xmlns:xlink="http://www.w3.org/1999/xlink">
 <defs>
  <style type="text/css">
   <![CDATA[
    .str0 {stroke:black;stroke-width:0.750048}
    .fil0 {fill:none}
   ]]>
  </style>
 </defs>
 <g id="Layer_x0020_1">
  <metadata id="CorelCorpID_0Corel-Layer"/>
  <path class="fil0 str0" d="M263 115c0,-2 -1,-3 -2,-4 -3,-4 -10,-1 -15,-3 1,3 -2,6 -5,7 -3,1 -6,1 -8,3 -6,4 -5,13 -4,19 2,7 4,15 9,20 7,7 18,7 28,7 3,5 -3,11 -7,16 -7,8 -10,19 -14,29 -9,20 -23,37 -34,56 -11,22 -18,47 -35,64 -3,4 -7,7 -9,11 -2,4 -2,10 1,13 4,5 11,3 16,1 14,-23 32,-41 48,-64 22,-30 50,-89 52,-118 1,-2 6,17 39,19 10,0 9,-2 15,-8 11,-15 22,-33 18,-52 -1,-6 -4,-12 -10,-15 0,3 -3,7 -7,8 -3,0 -6,-1 -9,-4 -2,-2 -4,-5 -7,-5 -2,0 -4,2 -7,2 -2,-1 -3,-3 -4,-4 -6,-7 -17,-5 -24,1 -4,4 -8,19 -13,20 -7,2 -11,-14 -12,-19l0 0z"/>
  <path class="fil0 str0" d="M266 146c11,-6 22,-16 33,-22 1,-1 2,-1 3,-1 4,-1 6,2 8,5 1,4 2,7 5,9 0,1 1,2 3,2 1,-1 2,-2 2,-3 2,-2 2,-5 4,-6 1,-2 4,-4 6,-2 2,1 2,4 4,4 1,1 1,1 2,0 4,0 7,1 10,4 3,-6 2,-13 -2,-18"/>
  <path class="fil0 str0" d="M266 152c2,-1 3,-11 0,-16 -1,-2 -3,-4 -5,-6 -2,-3 -4,-6 -7,-8 -3,-2 -7,-3 -10,-1 0,-2 0,-4 -1,-5 -1,-2 -3,-3 -4,-1"/>
 </g>
</svg>
