<?xml version="1.0" encoding="UTF-8"?>
<!DOCTYPE svg PUBLIC "-//W3C//DTD SVG 1.1//EN" "http://www.w3.org/Graphics/SVG/1.1/DTD/svg11.dtd">
<!-- Creator: CorelDRAW X8 -->
<svg xmlns="http://www.w3.org/2000/svg" xml:space="preserve" width="500px" height="500px" version="1.1" style="shape-rendering:geometricPrecision; text-rendering:geometricPrecision; image-rendering:optimizeQuality; fill-rule:evenodd; clip-rule:evenodd"
viewBox="0 0 500 500"
 xmlns:xlink="http://www.w3.org/1999/xlink">
 <defs>
  <style type="text/css">
   <![CDATA[
    .str0 {stroke:black;stroke-width:0.750048}
    .fil0 {fill:none}
   ]]>
  </style>
 </defs>
 <g id="Layer_x0020_1">
  <metadata id="CorelCorpID_0Corel-Layer"/>
  <path class="fil0 str0" d="M223 85c-9,-15 -30,-20 -48,-17 -38,13 -63,49 -94,55 41,15 112,27 138,-28 8,-16 33,-12 28,12 -6,26 -6,65 7,97 34,-39 59,-4 78,-101 13,7 -22,102 103,130 -32,-46 32,-166 -107,-137"/>
  <path class="fil0 str0" d="M245 206c-7,37 -7,55 -2,84 8,16 63,-15 99,-22 2,51 24,99 71,122 1,-26 15,-52 7,-76 -10,-29 -44,-38 -72,-42"/>
  <path class="fil0 str0" d="M241 271c-24,-20 -35,-54 -32,-85 -32,-24 -84,-38 -125,-22 40,68 130,69 121,26"/>
  <path class="fil0 str0" d="M243 328c-3,-8 -11,-10 -19,-9 -35,0 -36,-24 -62,-4 -56,39 -40,75 -113,105 65,4 105,-1 130,-11 34,-15 45,-59 20,-87"/>
  <path class="fil0 str0" d="M241 329c-3,28 8,43 10,66 3,-52 18,-104 41,-150 7,67 -26,102 46,158 -9,-49 25,-137 -40,-155"/>
 </g>
</svg>
