<?xml version="1.0" encoding="UTF-8"?>
<!DOCTYPE svg PUBLIC "-//W3C//DTD SVG 1.1//EN" "http://www.w3.org/Graphics/SVG/1.1/DTD/svg11.dtd">
<!-- Creator: CorelDRAW X8 -->
<svg xmlns="http://www.w3.org/2000/svg" xml:space="preserve" width="500px" height="500px" version="1.1" style="shape-rendering:geometricPrecision; text-rendering:geometricPrecision; image-rendering:optimizeQuality; fill-rule:evenodd; clip-rule:evenodd"
viewBox="0 0 500 500"
 xmlns:xlink="http://www.w3.org/1999/xlink">
 <defs>
  <style type="text/css">
   <![CDATA[
    .str0 {stroke:black;stroke-width:1.00006}
    .fil0 {fill:none}
   ]]>
  </style>
 </defs>
 <g id="Layer_x0020_1">
  <metadata id="CorelCorpID_0Corel-Layer"/>
  <path class="fil0 str0" d="M217 256c-15,-20 -30,-65 -18,-89 10,-19 24,-23 34,-53 36,-3 46,39 39,67 -7,33 -28,62 -56,79 -4,2 86,75 118,11 26,-62 4,-104 -33,-154 -17,18 -18,36 -31,47"/>
  <path class="fil0 str0" d="M191 184c-7,-16 -36,-52 -62,-69 0,59 13,128 79,146 0,1 -1,7 -2,7 -58,3 -71,75 -119,98 57,-1 136,-18 131,-86 11,0 27,75 54,101 20,23 49,37 77,51 -11,-22 -12,-48 -16,-73 -5,-25 -14,-51 -36,-63"/>
  <path class="fil0 str0" d="M338 261c41,-17 95,-107 88,-144 -7,3 -26,27 -42,34 -49,12 -25,38 -44,49"/>
  <path class="fil0 str0" d="M191 171c-6,-41 9,-80 27,-116 3,22 22,40 13,65"/>
 </g>
</svg>
