<?xml version="1.0" encoding="UTF-8"?>
<!DOCTYPE svg PUBLIC "-//W3C//DTD SVG 1.1//EN" "http://www.w3.org/Graphics/SVG/1.1/DTD/svg11.dtd">
<!-- Creator: CorelDRAW X8 -->
<svg xmlns="http://www.w3.org/2000/svg" xml:space="preserve" width="500px" height="500px" version="1.1" style="shape-rendering:geometricPrecision; text-rendering:geometricPrecision; image-rendering:optimizeQuality; fill-rule:evenodd; clip-rule:evenodd"
viewBox="0 0 500 500"
 xmlns:xlink="http://www.w3.org/1999/xlink">
 <defs>
  <style type="text/css">
   <![CDATA[
    .str0 {stroke:black;stroke-width:1.00006}
    .fil0 {fill:none;fill-rule:nonzero}
   ]]>
  </style>
 </defs>
 <g id="Layer_x0020_1">
  <metadata id="CorelCorpID_0Corel-Layer"/>
  <path class="fil0 str0" d="M178 258c-6,8 -12,16 -16,25 -3,9 -4,20 1,29 5,8 13,13 22,16 17,7 37,8 52,-2 10,-5 16,-15 20,-25 4,-11 5,-24 2,-35 -4,-12 -12,-22 -23,-27 -10,-4 -25,-6 -35,-3 -10,3 -16,14 -23,22z"/>
  <path class="fil0 str0" d="M222 236c-3,-11 -2,-23 4,-32 5,-8 13,-14 17,-22 9,-15 3,-34 -2,-50 -4,-12 -9,-24 -20,-30 -3,-2 -7,-3 -11,-2 -4,1 -7,6 -9,11 -1,5 -1,10 -1,15 -1,15 -12,30 -27,30 -1,0 -1,0 -2,0 0,-1 1,-2 1,-1"/>
  <path class="fil0 str0" d="M240 134c7,-15 20,-27 35,-33 5,-2 11,-3 16,0 5,2 7,8 8,13 0,5 -1,11 -3,16 -1,5 -3,11 -4,17 -2,6 -4,13 -2,20 3,9 15,14 24,11"/>
  <path class="fil0 str0" d="M238 126c-1,1 -2,-2 -2,-3 2,-7 5,-14 9,-21 3,-6 9,-11 16,-13 2,-1 5,-1 7,0 1,1 2,2 3,4 4,7 4,16 3,24 -1,8 -4,16 -5,24 0,3 0,7 2,10 2,2 5,2 8,2 9,1 17,2 25,-1 7,-3 13,-9 16,-16"/>
 </g>
</svg>
