<?xml version="1.0" encoding="UTF-8"?>
<!DOCTYPE svg PUBLIC "-//W3C//DTD SVG 1.1//EN" "http://www.w3.org/Graphics/SVG/1.1/DTD/svg11.dtd">
<!-- Creator: CorelDRAW X8 -->
<svg xmlns="http://www.w3.org/2000/svg" xml:space="preserve" width="500px" height="500px" version="1.1" style="shape-rendering:geometricPrecision; text-rendering:geometricPrecision; image-rendering:optimizeQuality; fill-rule:evenodd; clip-rule:evenodd"
viewBox="0 0 500 500"
 xmlns:xlink="http://www.w3.org/1999/xlink">
 <defs>
  <style type="text/css">
   <![CDATA[
    .str0 {stroke:black;stroke-width:1.00006}
    .fil0 {fill:none;fill-rule:nonzero}
   ]]>
  </style>
 </defs>
 <g id="Layer_x0020_1">
  <metadata id="CorelCorpID_0Corel-Layer"/>
  <path class="fil0 str0" d="M275 112c-1,8 4,16 4,24 1,10 -4,20 -10,28 -7,8 -16,14 -23,21 -35,31 -51,81 -42,126 2,8 4,15 7,21 11,19 33,29 54,27 21,-2 40,-14 53,-31 8,-11 13,-23 16,-37 2,-9 2,-19 2,-28 -1,-8 -1,-16 -3,-24 -4,-19 -14,-36 -25,-53 -5,-9 -10,-18 -17,-26 -2,-2 -4,-5 -4,-8 -1,-2 0,-4 0,-6 5,-14 15,-28 10,-42 -1,5 -4,17 -9,20 -3,1 -3,-1 -6,-4 -1,-1 -7,-7 -7,-8z"/>
  <path class="fil0 str0" d="M280 155c1,12 -4,24 -10,35 -7,11 -15,20 -23,30 -11,17 -18,35 -22,54 -2,8 -3,17 -4,26 -2,16 -3,34 8,45"/>
  <path class="fil0 str0" d="M285 163c6,28 -5,57 -14,84 -7,24 -14,47 -19,71 -3,11 -5,22 -11,32"/>
  <path class="fil0 str0" d="M294 174c3,9 7,18 9,28 7,27 9,56 2,83 -7,27 -23,52 -45,69"/>
 </g>
</svg>
