<?xml version="1.0" encoding="UTF-8"?>
<!DOCTYPE svg PUBLIC "-//W3C//DTD SVG 1.1//EN" "http://www.w3.org/Graphics/SVG/1.1/DTD/svg11.dtd">
<!-- Creator: CorelDRAW X8 -->
<svg xmlns="http://www.w3.org/2000/svg" xml:space="preserve" width="500px" height="500px" version="1.1" style="shape-rendering:geometricPrecision; text-rendering:geometricPrecision; image-rendering:optimizeQuality; fill-rule:evenodd; clip-rule:evenodd"
viewBox="0 0 500 500"
 xmlns:xlink="http://www.w3.org/1999/xlink">
 <defs>
  <style type="text/css">
   <![CDATA[
    .str0 {stroke:black;stroke-width:1.00006}
    .fil0 {fill:none;fill-rule:nonzero}
   ]]>
  </style>
 </defs>
 <g id="Layer_x0020_1">
  <metadata id="CorelCorpID_0Corel-Layer"/>
  <path class="fil0 str0" d="M222 115c-2,0 0,-2 1,0 0,1 -1,2 -1,3 -23,20 -40,47 -47,77 -4,16 -5,32 0,48 2,6 5,12 7,18 2,9 2,19 4,28 5,31 32,55 35,86 1,10 0,21 -2,31 -3,20 -6,39 -9,58"/>
  <path class="fil0 str0" d="M230 469c7,-16 1,-36 2,-54 1,-11 5,-21 8,-32 2,-5 3,-10 7,-13 4,-5 9,-7 14,-10 14,-6 27,-13 38,-24 23,-24 27,-61 28,-94 1,-17 2,-33 2,-49 1,-13 1,-26 -2,-39 -4,-20 -16,-38 -29,-54 -4,-5 -9,-10 -15,-13 -11,-4 -23,-1 -33,5 -12,7 -23,16 -32,28"/>
  <path class="fil0 str0" d="M309 116c9,-9 19,-18 30,-26 -3,-2 -6,-4 -6,-8 0,-4 5,-7 9,-9 5,-2 11,-4 15,-1 5,4 5,12 0,16 -4,4 -11,5 -17,4"/>
  <path class="fil0 str0" d="M326 154c-1,-1 1,-2 1,-2 17,-5 33,-10 49,-15 -1,1 -1,1 -2,2 -2,5 -1,12 4,15 4,4 12,2 13,-3 1,-1 1,-3 1,-5 0,-3 0,-6 0,-9 0,-3 0,-7 -2,-9 -2,-4 -8,-5 -11,-3 -4,2 -6,7 -5,11"/>
  <path class="fil0 str0" d="M274 86c-3,-5 -3,-11 -2,-16 1,-5 3,-10 3,-15 -7,1 -13,-3 -16,-9 -1,-2 -2,-4 -1,-7 1,-2 3,-3 5,-5 3,-1 6,-3 9,-4 3,-1 7,0 9,2 1,2 2,4 2,6 1,8 -5,16 -13,17"/>
  <path class="fil0 str0" d="M227 106c-4,-3 -8,-6 -12,-9 -2,-1 -4,-2 -5,-4 -1,-1 -1,-3 -2,-4 -1,-2 -3,-3 -4,-4 -7,-5 -12,-11 -16,-18 -1,-1 -1,-2 -1,-4 0,-2 2,-3 4,-4 4,-3 9,-6 14,-4 5,3 7,10 4,15 -3,4 -8,7 -14,8 0,0 0,1 0,2"/>
  <path class="fil0 str0" d="M203 135c-1,0 1,1 1,0 0,-1 -1,-1 -2,-1 -12,-2 -24,-6 -36,-11 0,-4 4,-7 4,-12 1,-4 -3,-8 -7,-9 -5,-1 -9,2 -12,5 -3,3 -5,8 -5,12 -1,3 -1,6 0,9 1,3 3,6 6,6 6,0 9,-9 15,-11"/>
  <path class="fil0 str0" d="M179 176c-11,-1 -23,-1 -34,0 1,-5 -1,-9 -4,-12 -4,-4 -12,-4 -15,1 -2,2 -2,4 -2,7 -1,7 1,16 8,19 2,1 4,1 6,0 2,-1 2,-3 3,-5 1,-3 3,-7 4,-10"/>
  <path class="fil0 str0" d="M171 219c-10,3 -19,8 -28,14 -2,-6 -9,-9 -15,-7 -6,3 -8,11 -4,16 2,2 4,3 6,4 5,2 11,1 14,-3 2,-4 0,-8 -1,-12"/>
  <path class="fil0 str0" d="M180 263c-10,3 -20,6 -30,8 -3,1 -6,2 -9,1 -5,-2 -8,-7 -12,-6 -3,0 -5,3 -7,6 -1,4 -3,8 -1,12 1,5 7,8 12,9 1,0 2,1 3,0 1,0 2,-1 3,-2 2,-3 4,-7 5,-10 0,-4 -1,-8 -4,-10"/>
  <path class="fil0 str0" d="M188 302c-10,5 -19,11 -28,17 -3,-4 -8,-6 -13,-6 -3,0 -6,1 -8,4 -1,2 -1,3 -1,5 0,5 0,11 4,14 5,3 10,1 15,-1 2,-1 5,-3 6,-5 1,-5 -3,-9 -4,-13"/>
  <path class="fil0 str0" d="M205 330c-4,3 -7,6 -9,9 -5,5 -9,10 -13,15 -5,-3 -11,-5 -17,-5 -2,0 -3,0 -4,1 -1,2 -2,4 -2,6 0,5 0,11 4,14 3,3 8,2 11,2 1,0 2,0 2,0 1,-1 1,-2 1,-2 2,-6 3,-12 4,-18"/>
  <path class="fil0 str0" d="M271 357c1,-2 2,-3 3,-4 7,5 15,10 21,16 -3,5 -6,11 -3,15 2,3 5,4 8,5 4,0 7,0 10,-2 3,-2 6,-5 6,-8 0,-5 -5,-9 -9,-10 -5,-1 -9,-1 -14,0 1,0 2,0 3,0"/>
  <path class="fil0 str0" d="M302 332c9,4 18,7 28,9 -2,3 -3,7 -3,11 0,3 2,8 6,8 5,1 8,-4 10,-9 2,-2 3,-6 3,-9 0,-3 -2,-6 -4,-8 -2,-1 -4,-1 -6,-1 -3,0 -6,0 -7,2 -2,2 -1,6 2,5"/>
  <path class="fil0 str0" d="M319 298c12,-1 23,-1 35,-2 -1,4 -1,8 1,12 2,4 6,6 10,4 6,-2 6,-9 6,-15 -1,-5 -2,-10 -7,-12 -4,-1 -8,2 -10,6 -2,3 -2,8 -3,12"/>
  <path class="fil0 str0" d="M324 258c12,1 23,0 35,-2 -4,4 -3,11 1,13 5,3 11,1 13,-4 1,-3 0,-8 -1,-11 -2,-4 -5,-9 -9,-8 -5,0 -6,6 -7,10"/>
  <path class="fil0 str0" d="M325 207c10,-3 21,-5 31,-4 -4,3 -4,11 0,14 5,4 12,2 16,-3 3,-5 3,-12 1,-18 0,-1 -1,-2 -1,-2 -1,-1 -3,-1 -4,-1 -4,0 -8,0 -12,1 -1,1 -3,1 -3,2 -1,1 0,3 1,3"/>
 </g>
</svg>
