<?xml version="1.0" encoding="UTF-8"?>
<!DOCTYPE svg PUBLIC "-//W3C//DTD SVG 1.1//EN" "http://www.w3.org/Graphics/SVG/1.1/DTD/svg11.dtd">
<!-- Creator: CorelDRAW X8 -->
<svg xmlns="http://www.w3.org/2000/svg" xml:space="preserve" width="500px" height="500px" version="1.1" style="shape-rendering:geometricPrecision; text-rendering:geometricPrecision; image-rendering:optimizeQuality; fill-rule:evenodd; clip-rule:evenodd"
viewBox="0 0 500 500"
 xmlns:xlink="http://www.w3.org/1999/xlink">
 <defs>
  <style type="text/css">
   <![CDATA[
    .str0 {stroke:black;stroke-width:1.00006}
    .fil0 {fill:none;fill-rule:nonzero}
   ]]>
  </style>
 </defs>
 <g id="Layer_x0020_1">
  <metadata id="CorelCorpID_0Corel-Layer"/>
  <path class="fil0 str0" d="M270 438c-3,8 -2,16 1,23"/>
  <path class="fil0 str0" d="M272 456c-16,-34 -22,-73 -16,-111 -21,-11 -29,-37 -33,-61 -10,-55 -10,-113 2,-169 5,-26 13,-52 28,-74 3,-4 8,-9 13,-7 -4,9 -7,19 -8,28 5,-3 11,-5 18,-4"/>
  <path class="fil0 str0" d="M254 76c8,-2 16,-4 24,-5"/>
  <path class="fil0 str0" d="M252 90c8,-1 16,0 24,3"/>
  <path class="fil0 str0" d="M232 61c-9,1 -16,-6 -25,-9 -1,0 -4,0 -3,2"/>
  <path class="fil0 str0" d="M222 76c-4,0 -7,-2 -9,-5 -3,-2 -7,-3 -9,0"/>
  <path class="fil0 str0" d="M219 94c-2,3 -6,3 -10,2 -3,-1 -8,-2 -10,0"/>
  <path class="fil0 str0" d="M214 120c-6,5 -12,10 -18,15"/>
  <path class="fil0 str0" d="M210 159c-6,4 -13,10 -19,16"/>
  <path class="fil0 str0" d="M210 189c-7,3 -12,8 -17,13"/>
  <path class="fil0 str0" d="M206 207c-4,5 -8,11 -11,16"/>
  <path class="fil0 str0" d="M245 108c8,1 15,2 23,4"/>
  <path class="fil0 str0" d="M252 128c5,4 11,7 18,7"/>
  <path class="fil0 str0" d="M247 152c0,0 -1,0 -1,1 0,1 1,1 1,1 9,4 18,8 26,12"/>
  <path class="fil0 str0" d="M247 178c-1,-1 -2,0 -2,1 1,1 2,1 3,1 7,2 13,7 17,13"/>
  <path class="fil0 str0" d="M239 200c8,3 15,7 21,13"/>
  <path class="fil0 str0" d="M237 222c-1,0 -2,0 -3,1 6,3 12,6 18,8"/>
  <path class="fil0 str0" d="M231 241c-2,0 -3,1 -4,2l16 5"/>
  <path class="fil0 str0" d="M232 264c5,3 10,5 16,6"/>
  <path class="fil0 str0" d="M210 272c-3,4 -7,8 -11,13"/>
 </g>
</svg>
