<?xml version="1.0" encoding="utf-8"?>
<!-- Generator: Adobe Illustrator 19.0.0, SVG Export Plug-In . SVG Version: 6.00 Build 0)  -->
<svg version="1.1" id="Layer_1" xmlns="http://www.w3.org/2000/svg" xmlns:xlink="http://www.w3.org/1999/xlink" x="0px" y="0px"
	 viewBox="-55 147 500 500" style="enable-background:new -55 147 500 500;" xml:space="preserve">
<style type="text/css">
	.st0{fill:none;stroke:#000000;stroke-width:1.0001;}
</style>
<g id="Layer_x0020_1">
	<path class="st0" d="M60,293c-2,7-2,16-2,24c2,22,3,43,9,64c5,20,15,39,24,57c6,10,11,20,18,29c7,8,17,14,26,21
		c51,36,105,68,162,95c1-6-9-8-15-9c-29-2-51-24-72-43c-18-15-37-29-57-41c-14-8-29-16-39-29c-10-12-15-31-5-44c3-6,9-10,12-16
		c4-8,2-18,1-27c-2-19,4-37,7-56c3-18,5-38-4-55c-4-6-10-13-18-15c-10-3-10,0-16,6C81,264,65,279,60,293z"/>
	<path class="st0" d="M96,453c-9,10-19,19-28,29"/>
	<path class="st0" d="M88,433c-9,1-18,3-27,6c-3,0-6,2-5,5"/>
	<path class="st0" d="M79,412c-14,0-27-1-40-1"/>
	<path class="st0" d="M67,380c-12,0-25,0-37,0"/>
	<path class="st0" d="M58,355c2-2-1-4-4-4c-12,0-25,4-35-2"/>
	<path class="st0" d="M58,320c1,0-22-1-33-5"/>
	<path class="st0" d="M61,291c-11-3-20-6-30-10"/>
	<path class="st0" d="M77,268c-10-4-21-8-30-14"/>
	<path class="st0" d="M92,253c-9-7-12-20-8-31"/>
	<path class="st0" d="M116,254c8-11,17-22,27-32"/>
	<path class="st0" d="M132,274c-1-1-3,0-3,1c15-8,30-15,46-22"/>
	<path class="st0" d="M136,295c13-2,26-4,39-6"/>
	<path class="st0" d="M129,327c12,1,25,3,38,5"/>
	<path class="st0" d="M129,354c10,4,21,4,31,2"/>
	<path class="st0" d="M124,385L124,385c13-1,25-1,38-2"/>
	<path class="st0" d="M123,399c8,4,16,8,24,14c3,2,8,5,11,3"/>
	<path class="st0" d="M109,418c12,5,25,8,37,11"/>
	<path class="st0" d="M118,449c10-1,20-3,31-5"/>
	<path class="st0" d="M303,463c2-51,2-102,1-152c-1-12-1-23-8-33c-3-5-9-10-12-15c-11-17-3-40,11-54c8-9,20-17,32-18
		c12-2,26,3,33,13c5,7,6,16,6,24c-1,17-8,33-22,41c-14,9-35,5-43-9c8-4,16,4,25,5c8,2,16-3,21-9c5-7,8-15,8-24c1-6,0-13-3-18
		c-5-8-15-12-25-10c-9,1-17,6-25,12c-10,9-19,23-14,36c4,10,15,15,24,21c11,7,20,18,25,31c8,19,8,42,6,63c-4,47-13,94-17,141
		c-2,26-2,53,0,79c1,7,6,19-2,24c-5,3-12-1-15-5c-12-13-8-53-9-70C300,512,302,487,303,463z"/>
</g>
</svg>
