<?xml version="1.0" encoding="UTF-8"?>
<!DOCTYPE svg PUBLIC "-//W3C//DTD SVG 1.1//EN" "http://www.w3.org/Graphics/SVG/1.1/DTD/svg11.dtd">
<!-- Creator: CorelDRAW X8 -->
<svg xmlns="http://www.w3.org/2000/svg" xml:space="preserve" width="500px" height="500px" version="1.1" style="shape-rendering:geometricPrecision; text-rendering:geometricPrecision; image-rendering:optimizeQuality; fill-rule:evenodd; clip-rule:evenodd"
viewBox="0 0 500 500"
 xmlns:xlink="http://www.w3.org/1999/xlink">
 <defs>
  <style type="text/css">
   <![CDATA[
    .str0 {stroke:black;stroke-width:0.750048}
    .fil0 {fill:none}
   ]]>
  </style>
 </defs>
 <g id="Layer_x0020_1">
  <metadata id="CorelCorpID_0Corel-Layer"/>
  <path class="fil0 str0" d="M216 426c7,-41 12,-82 26,-122 4,-15 10,-30 11,-46 1,-13 -1,-25 -5,-38 -1,-4 -2,-8 -4,-10 -6,-7 -18,-6 -27,-4 -4,10 -10,13 -10,14 4,-1 7,5 5,9 -2,4 -7,4 -11,4 -2,-1 -4,-2 -4,-4 3,-11 11,-16 17,-29 -2,-8 -10,-13 -17,-12 -14,2 -19,23 -32,20 -6,-2 -9,-12 -4,-17 4,-5 15,-1 16,5 6,-5 13,-9 22,-12 0,-6 -1,-12 -2,-16 -11,-2 -22,-4 -33,-6 -5,0 -11,-1 -16,-5 -5,-4 -6,-10 -3,-15 2,-2 6,-3 8,-1 1,0 1,2 2,3 7,13 25,15 40,16 0,-9 1,-17 5,-25 -8,-2 -16,-3 -23,-6 -7,-2 -15,-7 -16,-15 -2,-7 3,-17 11,-16 0,7 -1,13 -4,19 9,9 20,13 32,13 6,-8 12,-21 6,-29 -2,-4 -7,-6 -11,-8 -9,-4 -18,-8 -27,-12 -3,-1 -6,-3 -6,-6 0,-1 1,-3 2,-4 7,-6 14,-11 22,-15 2,4 0,9 -1,12 -2,8 2,16 8,21 7,5 13,7 21,10 5,-5 11,-8 17,-10 -5,-11 -12,-21 -23,-28 -2,-1 -4,-3 -5,-6 -3,-7 5,-12 13,-14 1,0 3,0 4,1 2,1 1,4 -1,7 -3,4 -5,9 -8,14 8,7 16,16 25,24 3,-3 7,-5 10,-7 -2,-7 0,-15 0,-23 0,-8 -2,-17 -10,-19 6,-8 16,-11 25,-8 2,5 -2,9 -5,12 -9,9 -10,24 -5,36 11,-4 23,-5 35,-3 -1,-9 -1,-18 1,-27 -6,-3 -9,-13 -4,-18 4,-6 13,-6 18,-2 0,4 -4,7 -7,10 -8,10 -1,27 -6,39 9,3 17,7 23,13 7,-10 15,-19 23,-27 -7,-4 -5,-18 2,-20 9,-2 16,10 11,17 -2,2 -5,4 -8,6 -6,2 -10,8 -15,13 -7,7 -15,17 -11,27 1,3 5,7 4,11 9,-7 19,-11 30,-14 -4,-7 4,-16 12,-14 7,2 9,14 3,19 -3,2 -6,3 -10,3 -2,0 -4,-1 -7,-1 -11,-1 -16,16 -27,16 2,7 1,16 -3,23 10,0 19,2 29,5 0,-5 5,-11 11,-11 6,0 11,6 10,12 -1,6 -8,10 -14,8 -1,-1 -1,-3 -1,-5 -12,2 -24,1 -36,-2 -4,13 -10,24 -21,32 12,2 24,3 36,7 -1,8 -7,15 -14,17 -4,-3 -6,-10 -5,-16 -6,2 -15,1 -22,-2 -2,6 -8,11 -15,13 4,4 8,9 10,16 4,-1 8,-1 13,0 1,6 -5,12 -11,12 -2,0 -4,-1 -5,-2 -1,-1 -1,-3 -2,-5 -2,-12 -14,-19 -26,-17 4,9 8,19 9,29 6,34 -13,67 -23,99 -12,35 -13,72 -16,108"/>
 </g>
</svg>
