<?xml version="1.0" encoding="UTF-8"?>
<!DOCTYPE svg PUBLIC "-//W3C//DTD SVG 1.1//EN" "http://www.w3.org/Graphics/SVG/1.1/DTD/svg11.dtd">
<!-- Creator: CorelDRAW X8 -->
<svg xmlns="http://www.w3.org/2000/svg" xml:space="preserve" width="500px" height="500px" version="1.1" style="shape-rendering:geometricPrecision; text-rendering:geometricPrecision; image-rendering:optimizeQuality; fill-rule:evenodd; clip-rule:evenodd"
viewBox="0 0 500 500"
 xmlns:xlink="http://www.w3.org/1999/xlink">
 <defs>
  <style type="text/css">
   <![CDATA[
    .str0 {stroke:black;stroke-width:0.750048}
    .fil0 {fill:none}
   ]]>
  </style>
 </defs>
 <g id="Layer_x0020_1">
  <metadata id="CorelCorpID_0Corel-Layer"/>
  <path class="fil0 str0" d="M222 462c12,-42 -45,-221 -82,-262"/>
  <path class="fil0 str0" d="M294 468c9,-39 2,-80 5,-120 3,-33 25,-100 49,-140 23,29 34,67 29,103"/>
  <path class="fil0 str0" d="M269 454c-16,-5 -3,-182 9,-212 14,-36 61,-111 94,-132"/>
  <path class="fil0 str0" d="M236 473c12,-51 -37,-246 -64,-310 -8,-20 -16,-29 -30,-36"/>
  <path class="fil0 str0" d="M259 475c-20,-69 -27,-112 -25,-217l3 -118c-5,1 -9,-1 -11,-6 -4,-7 -3,-34 -1,-57 -1,-7 0,-17 4,-24 5,-7 14,-11 21,-7 5,19 12,96 -17,92"/>
  <path class="fil0 str0" d="M240 48c-3,-11 -3,-24 -2,-37"/>
  <path class="fil0 str0" d="M217 470c-5,1 -9,-4 -11,-8 -34,-51 -35,-121 -74,-169"/>
 </g>
</svg>
