<?xml version="1.0" encoding="UTF-8"?>
<!DOCTYPE svg PUBLIC "-//W3C//DTD SVG 1.1//EN" "http://www.w3.org/Graphics/SVG/1.1/DTD/svg11.dtd">
<!-- Creator: CorelDRAW X8 -->
<svg xmlns="http://www.w3.org/2000/svg" xml:space="preserve" width="500px" height="500px" version="1.1" style="shape-rendering:geometricPrecision; text-rendering:geometricPrecision; image-rendering:optimizeQuality; fill-rule:evenodd; clip-rule:evenodd"
viewBox="0 0 500 500"
 xmlns:xlink="http://www.w3.org/1999/xlink">
 <defs>
  <style type="text/css">
   <![CDATA[
    .str0 {stroke:black;stroke-width:0.750048}
    .fil0 {fill:none}
   ]]>
  </style>
 </defs>
 <g id="Layer_x0020_1">
  <metadata id="CorelCorpID_0Corel-Layer"/>
  <path class="fil0 str0" d="M251 52c0,1 -1,3 -1,5 4,0 10,1 15,3 -3,4 -3,10 0,14 -4,5 2,13 7,11 -3,6 2,11 7,15 -7,1 -13,4 -18,9 7,3 14,4 22,4 -2,4 -5,8 -9,12 7,0 13,3 18,6 -7,3 -11,7 -16,12 8,-1 17,-1 24,1 -6,4 -14,10 -21,15 7,2 16,3 24,5 -10,5 -20,9 -31,14 1,3 6,4 10,5 9,2 18,3 29,4 -11,4 -23,8 -33,13 10,9 27,0 39,7 -15,3 -29,9 -41,17 10,13 33,1 47,10 -18,1 -35,6 -52,13 2,8 11,11 18,12 8,1 15,2 22,7 -16,0 -32,4 -46,9 -2,5 1,10 3,13 11,7 28,5 49,13 -32,13 -63,13 -61,24 2,10 27,8 48,15 -12,20 -47,6 -62,23 17,6 40,7 59,6 -15,21 -52,1 -69,19 15,6 35,7 52,5 -22,11 -50,6 -71,18 21,25 47,3 82,26 -4,0 -5,5 -4,5 27,-1 18,-3 29,-15 21,-12 54,-1 80,-23 -32,-19 -61,12 -89,-5 -6,-13 47,-6 65,-26 -32,0 -48,6 -62,4 3,-14 38,-5 62,-20 -26,-11 -75,-2 -64,-18 4,-7 48,-4 65,-24 -17,-10 -41,4 -60,-5 11,-9 68,-19 66,-37 -21,-11 -42,5 -63,-9 -2,-8 26,-20 52,-42 -8,-4 -19,-5 -28,-3 -4,-6 0,-13 5,-17 10,-8 25,-6 32,-19 -20,1 -36,-1 -45,-4 -16,0 12,-12 23,-21 -16,-7 -41,-7 -41,-14 0,-9 14,-17 28,-22 -13,-4 -30,-1 -35,-4 4,-8 14,-10 19,-17 -11,2 -21,0 -30,-4 1,-4 4,-9 8,-13 -6,-1 -11,-2 -18,-3 5,-1 3,-8 -1,-10 -4,-3 -9,-3 -12,-7 -2,-3 -2,-7 -4,-10 -5,-6 -24,-16 -31,-9 1,3 5,7 8,7l1 0z"/>
 </g>
</svg>
