<?xml version="1.0" encoding="UTF-8"?>
<!DOCTYPE svg PUBLIC "-//W3C//DTD SVG 1.1//EN" "http://www.w3.org/Graphics/SVG/1.1/DTD/svg11.dtd">
<!-- Creator: CorelDRAW X8 -->
<svg xmlns="http://www.w3.org/2000/svg" xml:space="preserve" width="500px" height="500px" version="1.1" style="shape-rendering:geometricPrecision; text-rendering:geometricPrecision; image-rendering:optimizeQuality; fill-rule:evenodd; clip-rule:evenodd"
viewBox="0 0 500 500"
 xmlns:xlink="http://www.w3.org/1999/xlink">
 <defs>
  <style type="text/css">
   <![CDATA[
    .str0 {stroke:black;stroke-width:1.00006}
    .fil0 {fill:none;fill-rule:nonzero}
   ]]>
  </style>
 </defs>
 <g id="Layer_x0020_1">
  <metadata id="CorelCorpID_0Corel-Layer"/>
  <path class="fil0 str0" d="M195 33c0,2 -1,4 -1,6 5,0 11,1 16,3 -3,4 -3,11 0,15 -4,5 2,14 8,12 -3,6 2,12 7,16 -7,1 -14,4 -19,9 7,3 15,5 23,4 -2,5 -5,9 -9,13 7,0 14,3 19,7 -7,3 -12,7 -17,12 9,-1 18,-1 26,1 -7,5 -15,11 -23,16 8,2 17,4 26,6 -11,5 -22,9 -33,14 1,4 6,5 10,6 10,2 20,3 31,4 -12,4 -24,9 -35,14 11,9 29,0 42,7 -16,4 -31,10 -44,18 11,14 35,1 50,11 -19,1 -37,6 -55,14 2,8 11,11 19,13 8,1 16,2 23,7 -17,0 -34,4 -49,10 -2,5 1,10 4,13 4,3 9,4 14,5 12,3 25,6 37,9 -17,5 -35,10 -52,15 -6,2 -13,6 -12,11 1,5 7,7 12,8l39 7c-6,10 -20,13 -32,14 -12,1 -26,2 -34,11 21,5 42,7 63,6 -8,11 -23,12 -36,11 -14,0 -29,0 -38,9 18,5 37,8 55,6 -23,11 -53,6 -75,19 10,12 27,15 43,16 15,0 32,1 44,11 -2,2 -3,4 -4,6 8,0 18,0 24,-7 2,-2 4,-6 7,-9 3,-2 7,-3 11,-4 26,-4 54,-4 74,-21 -13,-9 -30,-7 -45,-3 -16,3 -32,7 -47,1 -1,-1 -3,-2 -3,-3 -2,-4 3,-7 7,-8 21,-6 45,-5 62,-19 -22,1 -44,3 -66,4 5,-10 20,-8 31,-9 13,0 25,-5 36,-12 -18,-5 -36,-8 -54,-7 -4,0 -8,0 -12,-2 -4,-2 -6,-7 -3,-10 1,-2 3,-2 4,-3 23,-7 50,-5 65,-23 -18,-11 -43,4 -63,-5 19,-16 49,-14 68,-30 2,-3 5,-6 3,-9 -1,-3 -4,-3 -7,-4 -16,-2 -32,-3 -48,-1 -5,0 -11,0 -13,-5 -1,-4 3,-8 7,-11 16,-11 32,-23 48,-34 -9,-4 -20,-5 -30,-3 -4,-6 0,-14 5,-18 5,-4 12,-6 18,-8 7,-2 13,-6 16,-12 -16,-1 -31,-2 -47,-4 -3,0 -6,-1 -5,-3 9,-8 19,-14 29,-20l-34 -8c-4,-1 -9,-3 -9,-7 0,-3 2,-5 3,-7 8,-6 16,-12 26,-16 -13,-2 -25,-3 -37,-4 6,-7 13,-13 20,-18 -10,1 -22,0 -32,-4 2,-5 5,-10 9,-14 -6,-1 -12,-2 -19,-3 5,-1 3,-9 -1,-11 -4,-3 -10,-3 -13,-7 -2,-4 -2,-8 -4,-11 -6,-7 -26,-17 -33,-10 1,4 5,7 9,7z"/>
 </g>
</svg>
