<?xml version="1.0" encoding="UTF-8"?>
<!DOCTYPE svg PUBLIC "-//W3C//DTD SVG 1.1//EN" "http://www.w3.org/Graphics/SVG/1.1/DTD/svg11.dtd">
<!-- Creator: CorelDRAW X8 -->
<svg xmlns="http://www.w3.org/2000/svg" xml:space="preserve" width="500px" height="500px" version="1.1" style="shape-rendering:geometricPrecision; text-rendering:geometricPrecision; image-rendering:optimizeQuality; fill-rule:evenodd; clip-rule:evenodd"
viewBox="0 0 500 500"
 xmlns:xlink="http://www.w3.org/1999/xlink">
 <defs>
  <style type="text/css">
   <![CDATA[
    .str0 {stroke:black;stroke-width:1.00006}
    .fil0 {fill:none}
   ]]>
  </style>
 </defs>
 <g id="Layer_x0020_1">
  <metadata id="CorelCorpID_0Corel-Layer"/>
  <path class="fil0 str0" d="M204 194c-29,-17 -83,14 -83,49 -4,38 11,76 41,99 -12,-45 18,-75 18,-90 15,-26 27,-19 30,-3 2,14 -2,37 5,60 6,-2 5,-48 20,-62 24,-12 49,25 46,49 -1,29 -39,50 -46,68 39,5 72,-20 89,-53 16,-44 0,-83 -48,-94 28,-22 65,16 72,55 5,2 15,-74 -11,-90 -24,-19 -78,4 -97,22l2 -33 -10 4c-7,-60 5,-38 22,-68 2,-3 2,-8 -1,-12 -13,-11 -15,8 -21,10 1,-14 -3,-27 -17,-27 -16,2 -11,21 -2,30 -4,39 4,81 2,119"/>
 </g>
</svg>
