<?xml version="1.0" encoding="utf-8"?>
<!-- Generator: Adobe Illustrator 19.0.0, SVG Export Plug-In . SVG Version: 6.00 Build 0)  -->
<svg version="1.1" id="Layer_1" xmlns="http://www.w3.org/2000/svg" xmlns:xlink="http://www.w3.org/1999/xlink" x="0px" y="0px"
	 viewBox="-55 147 500 500" style="enable-background:new -55 147 500 500;" xml:space="preserve">
<style type="text/css">
	.st0{fill:none;stroke:#000000;stroke-width:1.0001;}
</style>
<g id="Layer_x0020_1">
	<path class="st0" d="M144,235c18,1,32,15,40,31c5.9,13.5,7.5,28.4,8.5,43.6c0,0.8,1.2,0.8,1.3,0c4-32.1,20.3-63.5,44.2-85.6
		c-2,19-4,37-6,56c-1.9,15.2-2.9,31.3-9,45.7c-0.3,0.6,0.5,1.1,1,0.7c34.7-27,78.9-41.4,123-41.4c-20.4,36-56.1,63.5-96.7,74.2
		c-0.7,0.2-0.6,1.1,0.1,1.2c16,2,32.7,4.9,47.6,9.6c-17.5,7.4-36.8,8.8-56.1,5.8c-0.7-0.1-1,0.9-0.4,1.2c33,15.4,60.3,42.4,77.5,75
		c-11-3-23-5-34-8c-21-5-42-9-60-20c-7.7-4.3-14.6-10-19-16.5c-0.4-0.6-1.3-0.2-1.1,0.5c4.7,20.8,9.4,42.4,14.1,64.1
		c-16-17-28-37-35-60c-5,31-12,61-21,91c-3,9-6,19-12,26c-10-24-31-43-34-68c-2.9-24.1,12.8-46.4,33.7-59.6c0.6-0.4,0.3-1.2-0.4-1.2
		c-27.7,2.7-55.3,4.3-82.1-2.2c-0.5-0.1-0.4-0.8,0.1-0.8c16.4,0.3,32.1-7.6,47.7-11.3c11.4-2.9,22.8-3,34.2-3c0.6,0,0.9-0.8,0.4-1.1
		c-36-29.2-77.8-51.7-122.4-65.8c-1.3-0.4-1-2.2,0.3-2.2c14.5,0,29-4.4,43.5-6.8c30.9-5.6,66.1,1,87.7,23.2c0.5,0.6,1.4-0.2,1-0.8
		c-5.9-8.3-18.2-24.1-27-37.7c-1-1.5,0.9-3.3,2.3-2.2c3.8,2.8,7.8,5.4,9.9,7.5c6.6,5.7,12.3,10.5,18,15.2c0.4,0.3,1,0.1,1-0.5
		c0-10-10.2-24.2-13.1-34.7C148,264,145,249,144,235z"/>
	<path class="st0" d="M178,321c-5,2-7,7-5,12c0,2,1,3,3,4c2,0,4,0,6-1c3-3,5-7,4-10c-1-4-5-7-9-6"/>
	<path class="st0" d="M207,326c-2-3-6-4-8-2c-3,2-4,5-3,8s4,5,7,6c3,0,6,0,8-3c1-2,0-5-1-7c-2-2-4-3-6-5"/>
	<path class="st0" d="M228,337c-2-2-6-1-8,1c-3,2-4,5-2,8c2,4,8,4,12,2c1-1,3-1,3-3c1-3-1-6-4-9c-1,0-1-1-2-1s-2,0-2,1"/>
	<path class="st0" d="M226,361c-5,1-9,4-12,8c-1,3-2,5,0,8c2,4,8,3,12,0c2-2,4-5,4-8s-2-6-5-6"/>
	<path class="st0" d="M218,389c-5-1-10-1-13,3s1,10,6,10c5,1,9-4,9-9c0-3-1-5-2-7"/>
	<path class="st0" d="M188,397c-4-1-7-2-10-1c-4,1-7,4-7,7c1,4,5,6,8,5c4-1,6-4,7-8c0-3-2-7-5-7"/>
	<path class="st0" d="M163,386c-3,0-5,0-7,1c-3,1-5,3-4,5c0,3,2,5,5,5c4,2,10,0,12-5c2-4-2-10-7-10"/>
	<path class="st0" d="M158,359c-1-1-4-1-5,0c-1,2-2,4-2,6s1,5,3,6c4,2,9-2,9-6s-3-7-7-9"/>
	<path class="st0" d="M160,345c0,4,0,9,3,10c4,2,8-3,7-7s-5-6-9-7"/>
	<path class="st0" d="M174,361c-2,6-2,12,2,17c0,0,6,3,9,3c4,1,9-1,12-4C204,364,180,344,174,361z"/>
</g>
</svg>
