<?xml version="1.0" encoding="UTF-8"?>
<!DOCTYPE svg PUBLIC "-//W3C//DTD SVG 1.1//EN" "http://www.w3.org/Graphics/SVG/1.1/DTD/svg11.dtd">
<!-- Creator: CorelDRAW X8 -->
<svg xmlns="http://www.w3.org/2000/svg" xml:space="preserve" width="500px" height="500px" version="1.1" style="shape-rendering:geometricPrecision; text-rendering:geometricPrecision; image-rendering:optimizeQuality; fill-rule:evenodd; clip-rule:evenodd"
viewBox="0 0 500 500"
 xmlns:xlink="http://www.w3.org/1999/xlink">
 <defs>
  <style type="text/css">
   <![CDATA[
    .str0 {stroke:black;stroke-width:1.00006}
    .fil0 {fill:none;fill-rule:nonzero}
   ]]>
  </style>
 </defs>
 <g id="Layer_x0020_1">
  <metadata id="CorelCorpID_0Corel-Layer"/>
  <path class="fil0 str0" d="M242 69c-3,7 -4,14 -4,21"/>
  <path class="fil0 str0" d="M250 67c1,1 1,0 0,0 0,0 0,0 0,1 -3,5 -5,11 -6,16"/>
  <path class="fil0 str0" d="M260 70c-5,6 -10,13 -13,20"/>
  <path class="fil0 str0" d="M225 79c0,7 2,14 5,20"/>
  <path class="fil0 str0" d="M217 92c3,8 7,15 12,22"/>
  <path class="fil0 str0" d="M240 103c-2,0 -3,2 -3,4 0,4 0,9 1,14"/>
  <path class="fil0 str0" d="M250 101c-1,-1 -2,0 -2,2 -1,3 -2,6 -3,10"/>
  <path class="fil0 str0" d="M266 96c-6,6 -10,13 -14,20"/>
  <path class="fil0 str0" d="M269 111c-5,4 -10,10 -13,17"/>
  <path class="fil0 str0" d="M274 119c-4,1 -7,5 -7,9"/>
  <path class="fil0 str0" d="M275 135c-5,2 -10,4 -14,8"/>
  <path class="fil0 str0" d="M232 131c0,5 1,10 1,15"/>
  <path class="fil0 str0" d="M217 116c-1,-1 -2,-1 -3,-1 1,7 4,14 8,20 0,0 0,-2 0,-2"/>
  <path class="fil0 str0" d="M204 116c-1,0 -1,0 -2,-1 2,7 4,13 7,19 0,0 0,1 -1,1"/>
  <path class="fil0 str0" d="M197 125c2,6 5,12 9,17"/>
  <path class="fil0 str0" d="M193 140c4,4 6,9 9,14"/>
  <path class="fil0 str0" d="M217 148c2,5 4,10 7,14"/>
  <path class="fil0 str0" d="M213 158c0,0 -1,0 -2,0 3,5 7,10 10,15"/>
  <path class="fil0 str0" d="M236 157c-4,6 -4,13 -1,20"/>
  <path class="fil0 str0" d="M251 159c-4,5 -6,12 -5,18"/>
  <path class="fil0 str0" d="M275 161c-6,2 -9,10 -14,13"/>
  <path class="fil0 str0" d="M247 139c-1,-1 -2,1 -2,2 -1,5 -2,10 -2,15"/>
  <path class="fil0 str0" d="M268 151c-2,0 -5,0 -7,0 -3,1 -5,2 -6,4"/>
  <path class="fil0 str0" d="M229 176c0,-1 -1,-1 -1,0 0,0 0,0 0,1 1,3 3,7 4,10"/>
  <path class="fil0 str0" d="M213 169c-2,0 -2,2 -1,3 1,5 4,10 7,14"/>
  <path class="fil0 str0" d="M204 163c-1,0 -1,-1 -2,-1 3,5 5,11 6,17"/>
  <path class="fil0 str0" d="M195 173c-1,0 -1,0 -2,0 3,5 7,10 11,15"/>
  <path class="fil0 str0" d="M208 201c3,2 7,4 10,6 1,0 2,0 2,0 0,0 -1,-1 -1,-1"/>
  <path class="fil0 str0" d="M199 196c0,-1 -1,0 -1,0 0,0 0,1 1,1 4,3 8,7 13,10"/>
  <path class="fil0 str0" d="M201 207c5,3 9,6 13,10"/>
  <path class="fil0 str0" d="M200 223c0,0 -1,-1 -1,0 0,0 1,0 1,1 5,2 10,5 15,8"/>
  <path class="fil0 str0" d="M202 237c-1,0 -2,0 -2,1 4,3 8,6 13,9"/>
  <path class="fil0 str0" d="M218 222c-1,4 2,9 5,11"/>
  <path class="fil0 str0" d="M222 194c-1,0 -1,0 -2,0 3,5 5,11 8,16"/>
  <path class="fil0 str0" d="M230 231c2,-6 5,-12 7,-18"/>
  <path class="fil0 str0" d="M235 192c-1,0 -2,3 -2,4 1,6 2,11 3,16"/>
  <path class="fil0 str0" d="M245 189c-2,4 -2,9 0,14"/>
  <path class="fil0 str0" d="M252 184c-2,4 -2,9 -2,13"/>
  <path class="fil0 str0" d="M263 187c-4,5 -7,10 -9,16"/>
  <path class="fil0 str0" d="M246 219c0,0 -1,1 -2,1 7,-3 13,-8 18,-13"/>
  <path class="fil0 str0" d="M249 226c-2,0 -3,1 -3,2 7,-3 13,-6 19,-11"/>
  <path class="fil0 str0" d="M241 209c0,0 -1,1 -1,2 3,-1 7,-1 10,-3"/>
  <path class="fil0 str0" d="M235 243c0,1 -1,0 -1,0 0,-1 1,-1 2,-1 2,-2 5,-3 8,-4"/>
  <path class="fil0 str0" d="M235 253c0,1 0,1 -1,2 9,-1 18,-4 26,-9"/>
  <path class="fil0 str0" d="M219 253c-1,0 -1,0 -2,0 3,1 7,0 9,-1"/>
  <path class="fil0 str0" d="M218 242c3,1 6,2 10,3"/>
  <path class="fil0 str0" d="M226 262c4,2 8,3 12,3"/>
  <path class="fil0 str0" d="M247 246c4,-4 9,-8 14,-11"/>
  <path class="fil0 str0" d="M228 265c1,10 1,20 0,30 -12,-14 -16,-32 -24,-49 -5,-8 -10,-16 -15,-24 -27,-46 -23,-106 -53,-150 1,13 7,25 10,38 4,15 4,31 6,47 9,53 43,97 78,138 -6,1 -12,1 -18,0 6,8 4,19 2,29 -4,21 -7,41 -11,62 -10,-4 -15,-15 -19,-24 -16,-43 -33,-86 -40,-131 -5,-37 -3,-74 -8,-111 0,23 1,48 -1,71 -1,22 -4,44 -4,66 0,22 2,44 12,64 13,29 38,49 61,70 4,3 8,7 10,12 4,-5 6,-12 4,-18"/>
  <path class="fil0 str0" d="M263 303c5,-11 8,-23 10,-35 13,-68 36,-134 66,-197 -8,67 -19,134 -47,195 -9,21 -21,42 -40,55 -9,6 -18,8 -27,13 9,9 34,-24 38,-31z"/>
 </g>
</svg>
