<?xml version="1.0" encoding="UTF-8"?>
<!DOCTYPE svg PUBLIC "-//W3C//DTD SVG 1.1//EN" "http://www.w3.org/Graphics/SVG/1.1/DTD/svg11.dtd">
<!-- Creator: CorelDRAW X8 -->
<svg xmlns="http://www.w3.org/2000/svg" xml:space="preserve" width="500px" height="500px" version="1.1" style="shape-rendering:geometricPrecision; text-rendering:geometricPrecision; image-rendering:optimizeQuality; fill-rule:evenodd; clip-rule:evenodd"
viewBox="0 0 500 500"
 xmlns:xlink="http://www.w3.org/1999/xlink">
 <defs>
  <style type="text/css">
   <![CDATA[
    .str0 {stroke:black;stroke-width:0.562678}
    .fil0 {fill:none}
   ]]>
  </style>
 </defs>
 <g id="Layer_x0020_1">
  <metadata id="CorelCorpID_0Corel-Layer"/>
  <path class="fil0 str0" d="M261 67c-3,8 -4,15 -4,23"/>
  <path class="fil0 str0" d="M270 65c1,1 -7,12 -7,18"/>
  <path class="fil0 str0" d="M281 68c-6,7 -11,14 -15,22"/>
  <path class="fil0 str0" d="M243 78c0,8 3,15 6,21"/>
  <path class="fil0 str0" d="M235 92c3,8 7,16 13,23"/>
  <path class="fil0 str0" d="M259 103c-2,0 -4,2 -4,5 0,4 0,10 2,15"/>
  <path class="fil0 str0" d="M270 101c-2,-2 -6,12 -6,13"/>
  <path class="fil0 str0" d="M287 96c-6,6 -11,14 -15,22"/>
  <path class="fil0 str0" d="M290 112c-5,5 -10,11 -14,18"/>
  <path class="fil0 str0" d="M295 121c-4,1 -8,5 -8,9"/>
  <path class="fil0 str0" d="M296 137c-5,3 -10,5 -14,9"/>
  <path class="fil0 str0" d="M250 133c0,6 1,11 1,17"/>
  <path class="fil0 str0" d="M231 117c-1,5 4,15 9,20"/>
  <path class="fil0 str0" d="M218 117c1,7 4,15 8,19"/>
  <path class="fil0 str0" d="M214 128c1,5 4,12 8,17"/>
  <path class="fil0 str0" d="M209 143c5,4 6,10 9,15"/>
  <path class="fil0 str0" d="M235 152c2,5 4,11 7,14"/>
  <path class="fil0 str0" d="M228 163c2,6 8,10 11,15"/>
  <path class="fil0 str0" d="M254 162c-4,5 -4,13 -1,21"/>
  <path class="fil0 str0" d="M271 164c-5,4 -7,12 -6,19"/>
  <path class="fil0 str0" d="M296 166c-6,1 -9,10 -14,13"/>
  <path class="fil0 str0" d="M266 142c-1,-1 -2,1 -2,2 -1,6 -2,11 -2,17"/>
  <path class="fil0 str0" d="M289 155c-2,0 -5,0 -7,0 -3,1 -6,2 -7,5"/>
  <path class="fil0 str0" d="M247 182c-2,4 3,8 3,12"/>
  <path class="fil0 str0" d="M230 174c-2,0 -2,2 -1,3 1,6 4,11 8,16"/>
  <path class="fil0 str0" d="M218 166c3,6 7,13 7,19"/>
  <path class="fil0 str0" d="M209 178c1,8 7,13 11,17"/>
  <path class="fil0 str0" d="M225 208c3,3 7,4 11,7 1,0 2,0 2,0"/>
  <path class="fil0 str0" d="M215 204c2,4 8,6 14,11"/>
  <path class="fil0 str0" d="M217 215c5,3 10,6 14,11"/>
  <path class="fil0 str0" d="M216 233c5,0 11,6 16,8"/>
  <path class="fil0 str0" d="M216 248c9,4 7,7 14,10"/>
  <path class="fil0 str0" d="M236 231c-1,5 2,9 5,11"/>
  <path class="fil0 str0" d="M238 201c3,5 4,13 9,17"/>
  <path class="fil0 str0" d="M249 240c1,-6 4,-12 6,-19"/>
  <path class="fil0 str0" d="M253 199c-1,0 -2,4 -2,4 1,6 2,12 3,17"/>
  <path class="fil0 str0" d="M264 196c-2,4 -2,9 0,14"/>
  <path class="fil0 str0" d="M272 190c-2,5 -2,10 -2,14"/>
  <path class="fil0 str0" d="M284 194c-5,3 -8,15 -10,16"/>
  <path class="fil0 str0" d="M263 229c8,-2 14,-8 20,-14"/>
  <path class="fil0 str0" d="M265 238c8,-2 14,-9 21,-12"/>
  <path class="fil0 str0" d="M259 219c3,-1 7,0 11,-3"/>
  <path class="fil0 str0" d="M252 254c1,-3 8,-6 11,-6"/>
  <path class="fil0 str0" d="M252 266c9,0 19,-3 29,-9"/>
  <path class="fil0 str0" d="M235 264c3,1 7,0 9,-1"/>
  <path class="fil0 str0" d="M236 252c3,1 6,2 11,3"/>
  <path class="fil0 str0" d="M244 274c4,2 9,3 13,2"/>
  <path class="fil0 str0" d="M266 257c4,-2 8,-9 16,-13"/>
  <path class="fil0 str0" d="M247 276c2,11 2,31 0,33 -14,-15 -21,-40 -30,-54 -41,-66 -37,-136 -70,-185 0,20 18,46 18,92 9,56 39,105 75,143 1,3 -11,3 -11,6 14,13 -8,57 -10,95 -26,-11 -40,-52 -63,-166 -5,-39 -3,-115 -9,-118 -5,15 0,75 -5,147 10,131 63,119 89,155 5,-5 7,-12 5,-19"/>
  <path class="fil0 str0" d="M365 69c5,10 -20,143 -50,208 -20,48 -34,98 -72,73 1,-6 19,12 28,-8 18,-41 41,-145 94,-273z"/>
 </g>
</svg>
