<?xml version="1.0" encoding="UTF-8"?>
<!DOCTYPE svg PUBLIC "-//W3C//DTD SVG 1.1//EN" "http://www.w3.org/Graphics/SVG/1.1/DTD/svg11.dtd">
<!-- Creator: CorelDRAW X8 -->
<svg xmlns="http://www.w3.org/2000/svg" xml:space="preserve" width="500px" height="500px" version="1.1" style="shape-rendering:geometricPrecision; text-rendering:geometricPrecision; image-rendering:optimizeQuality; fill-rule:evenodd; clip-rule:evenodd"
viewBox="0 0 500 500"
 xmlns:xlink="http://www.w3.org/1999/xlink">
 <defs>
  <style type="text/css">
   <![CDATA[
    .str0 {stroke:black;stroke-width:1.00006}
    .fil0 {fill:none}
   ]]>
  </style>
 </defs>
 <g id="Layer_x0020_1">
  <metadata id="CorelCorpID_0Corel-Layer"/>
  <path class="fil0 str0" d="M223 57c2,10 -1,17 -2,24 0,5 0,7 4,10 10,13 20,25 33,33 4,-24 4,-68 7,-78 2,1 2,16 -2,28 23,-4 43,-18 58,-35 1,-1 2,0 2,1 -3,4 -12,9 -15,15 -2,5 -4,10 -8,15 -8,14 -24,20 -39,25 3,5 4,11 2,16 16,0 30,-7 47,-6"/>
  <path class="fil0 str0" d="M202 109c15,16 33,31 55,34"/>
  <path class="fil0 str0" d="M267 139c11,-2 22,-5 32,-10"/>
  <path class="fil0 str0" d="M258 123c-9,102 -12,204 -9,307"/>
  <path class="fil0 str0" d="M145 125c2,6 4,21 3,30 0,7 -1,15 2,21 2,4 6,6 9,9 9,8 20,14 31,19 18,7 37,11 51,24"/>
  <path class="fil0 str0" d="M255 221c32,-21 74,-18 110,-30 3,-1 6,-2 8,-4 2,-2 3,-5 4,-8 3,-11 8,-32 8,-34"/>
  <path class="fil0 str0" d="M254 187c5,-2 45,-5 46,-7"/>
  <path class="fil0 str0" d="M248 261c21,-4 41,-7 61,-10 12,-2 26,-4 36,-12 5,-4 9,-9 13,-13 24,-30 49,-59 74,-89"/>
  <path class="fil0 str0" d="M248 315c-2,-4 -4,-6 -10,-7 -13,-7 -24,-17 -35,-27 -11,-8 -22,-16 -34,-23"/>
  <path class="fil0 str0" d="M251 341c-20,5 -38,11 -57,18 -9,4 -19,8 -28,10 -24,5 -50,1 -73,11 -1,0 -2,1 -3,0 -1,-1 -1,-3 0,-2"/>
  <path class="fil0 str0" d="M257 318c-3,-2 -8,0 -9,3 7,2 14,0 21,0 38,-5 77,5 115,15"/>
  <path class="fil0 str0" d="M245 285c15,5 21,3 38,-5 19,-8 40,-4 61,-11"/>
 </g>
</svg>
