<?xml version="1.0" encoding="UTF-8"?>
<!DOCTYPE svg PUBLIC "-//W3C//DTD SVG 1.1//EN" "http://www.w3.org/Graphics/SVG/1.1/DTD/svg11.dtd">
<!-- Creator: CorelDRAW X8 -->
<svg xmlns="http://www.w3.org/2000/svg" xml:space="preserve" width="500px" height="500px" version="1.1" style="shape-rendering:geometricPrecision; text-rendering:geometricPrecision; image-rendering:optimizeQuality; fill-rule:evenodd; clip-rule:evenodd"
viewBox="0 0 500 500"
 xmlns:xlink="http://www.w3.org/1999/xlink">
 <defs>
  <style type="text/css">
   <![CDATA[
    .str0 {stroke:black;stroke-width:1.00006}
    .fil0 {fill:none;fill-rule:nonzero}
   ]]>
  </style>
 </defs>
 <g id="Layer_x0020_1">
  <metadata id="CorelCorpID_0Corel-Layer"/>
  <path class="fil0 str0" d="M221 61c1,-1 2,-3 3,-5 0,8 -1,15 -2,22 0,2 0,4 0,6 1,2 2,4 4,6 10,13 21,24 33,35 3,-27 5,-53 8,-79 1,9 0,18 -3,27 24,-5 45,-19 60,-38 -6,5 -11,12 -15,19 -2,5 -4,10 -8,15 -8,14 -24,20 -39,25 3,5 4,11 2,16 16,-2 32,-4 47,-6 -1,1 -3,2 -4,4"/>
  <path class="fil0 str0" d="M203 108c16,15 33,31 55,34 0,0 1,0 1,1 1,0 0,1 0,1"/>
  <path class="fil0 str0" d="M268 138c11,-2 22,-5 32,-10"/>
  <path class="fil0 str0" d="M259 122c-9,102 -12,204 -9,307"/>
  <path class="fil0 str0" d="M145 124c-1,1 -1,-1 0,-1 1,0 1,1 1,2 2,9 3,19 3,29 0,7 -1,15 2,21 2,4 6,6 9,9 9,8 20,14 31,19 18,7 37,11 51,24"/>
  <path class="fil0 str0" d="M256 220c32,-21 74,-18 110,-30 3,-1 6,-2 8,-4 2,-2 3,-5 4,-8 3,-11 6,-23 8,-35 0,-1 3,0 2,1 0,2 -2,2 -2,0"/>
  <path class="fil0 str0" d="M255 186c15,-2 30,-4 45,-6 0,0 1,0 1,-1 1,0 0,-1 0,-1"/>
  <path class="fil0 str0" d="M249 260c21,-4 41,-7 61,-10 12,-2 26,-4 36,-12 5,-4 9,-9 13,-13 24,-30 49,-59 74,-89 0,-1 0,-1 0,-2 0,0 -1,0 -1,1"/>
  <path class="fil0 str0" d="M247 313c1,-1 2,0 2,1 -2,-4 -6,-5 -10,-7 -13,-7 -24,-17 -35,-27 -11,-8 -22,-16 -34,-23"/>
  <path class="fil0 str0" d="M252 340c-20,5 -38,11 -57,18 -9,4 -19,8 -28,10 -24,5 -50,1 -73,11 -1,0 -2,1 -3,0 -1,-1 -1,-3 0,-2"/>
  <path class="fil0 str0" d="M258 317c-3,-2 -8,0 -9,3 7,2 14,0 21,0 38,-5 77,5 115,15"/>
  <path class="fil0 str0" d="M246 284c7,1 14,3 22,1 5,-1 11,-4 16,-6 19,-8 41,-5 61,-11 -1,0 -2,1 -3,1"/>
 </g>
</svg>
