<?xml version="1.0" encoding="UTF-8"?>
<!DOCTYPE svg PUBLIC "-//W3C//DTD SVG 1.1//EN" "http://www.w3.org/Graphics/SVG/1.1/DTD/svg11.dtd">
<!-- Creator: CorelDRAW X8 -->
<svg xmlns="http://www.w3.org/2000/svg" xml:space="preserve" width="500px" height="500px" version="1.1" style="shape-rendering:geometricPrecision; text-rendering:geometricPrecision; image-rendering:optimizeQuality; fill-rule:evenodd; clip-rule:evenodd"
viewBox="0 0 500 500"
 xmlns:xlink="http://www.w3.org/1999/xlink">
 <defs>
  <style type="text/css">
   <![CDATA[
    .str0 {stroke:black;stroke-width:0.750048}
    .fil0 {fill:none}
   ]]>
  </style>
 </defs>
 <g id="Layer_x0020_1">
  <metadata id="CorelCorpID_0Corel-Layer"/>
  <path class="fil0 str0" d="M225 127c0,1 0,2 2,3 1,2 3,0 5,-2 9,-12 13,-27 16,-41 1,-9 9,-36 -2,-42 -8,8 -13,27 -16,38 -3,15 -5,30 -5,44l0 0z"/>
  <path class="fil0 str0" d="M194 112c0,4 -1,8 0,13 1,3 3,5 5,6 2,0 4,-1 6,-3 1,-1 2,-3 3,-6 4,-12 6,-25 8,-39 2,-8 7,-27 -1,-32 -11,15 -18,41 -21,61l0 0z"/>
  <path class="fil0 str0" d="M154 152c2,8 6,18 12,24 2,3 6,6 10,3 2,-1 2,-5 2,-7 0,-24 -6,-48 -17,-70 -2,-3 -6,-12 -9,-9 -3,1 -2,16 -2,19 -1,13 1,27 4,40l0 0z"/>
  <path class="fil0 str0" d="M227 187c39,-36 77,-71 117,-105"/>
  <path class="fil0 str0" d="M233 195c54,-34 106,-73 155,-115"/>
  <path class="fil0 str0" d="M196 205c-36,-24 -83,-32 -115,-62"/>
  <path class="fil0 str0" d="M205 229c-41,-17 -83,-34 -125,-51 -3,-1 -4,-2 -7,-4"/>
  <path class="fil0 str0" d="M227 226c74,-47 145,-95 216,-145"/>
  <path class="fil0 str0" d="M233 241c0,1 -1,0 -1,0 0,-1 1,-2 1,-2 68,-36 132,-75 196,-116"/>
  <path class="fil0 str0" d="M242 252c68,-29 135,-61 200,-95"/>
  <path class="fil0 str0" d="M247 273c62,-18 122,-43 181,-78"/>
  <path class="fil0 str0" d="M250 294c60,-18 121,-37 181,-56"/>
  <path class="fil0 str0" d="M243 314c59,-9 119,-21 177,-37"/>
  <path class="fil0 str0" d="M258 335c57,-12 112,-22 169,-29"/>
  <path class="fil0 str0" d="M252 369c58,-7 115,-16 171,-30"/>
  <path class="fil0 str0" d="M248 396c48,-5 96,-8 144,-8"/>
  <path class="fil0 str0" d="M212 244c-37,-6 -73,-18 -105,-37 -3,-2 -7,-3 -9,0"/>
  <path class="fil0 str0" d="M218 258c-45,-3 -89,-10 -133,-21"/>
  <path class="fil0 str0" d="M227 280c-44,-2 -87,-9 -129,-20"/>
  <path class="fil0 str0" d="M227 298c-49,5 -101,3 -145,-3"/>
  <path class="fil0 str0" d="M228 316c-43,8 -87,15 -130,20"/>
  <path class="fil0 str0" d="M229 339c-42,5 -83,13 -124,23"/>
  <path class="fil0 str0" d="M235 358c-43,7 -85,14 -128,24"/>
  <path class="fil0 str0" d="M233 383c-48,8 -96,17 -142,30"/>
  <path class="fil0 str0" d="M243 409c-4,-1 -10,1 -15,2 -24,6 -48,13 -73,19 -2,0 -4,-1 -3,-2"/>
  <path class="fil0 str0" d="M203 152c1,9 2,18 3,27 1,11 2,24 4,35 2,14 7,28 11,41 10,38 18,75 22,113 1,9 2,18 3,28 2,14 5,28 9,42"/>
 </g>
</svg>
