<?xml version="1.0" encoding="UTF-8"?>
<!DOCTYPE svg PUBLIC "-//W3C//DTD SVG 1.1//EN" "http://www.w3.org/Graphics/SVG/1.1/DTD/svg11.dtd">
<!-- Creator: CorelDRAW X8 -->
<svg xmlns="http://www.w3.org/2000/svg" xml:space="preserve" width="500px" height="500px" version="1.1" style="shape-rendering:geometricPrecision; text-rendering:geometricPrecision; image-rendering:optimizeQuality; fill-rule:evenodd; clip-rule:evenodd"
viewBox="0 0 500 500"
 xmlns:xlink="http://www.w3.org/1999/xlink">
 <defs>
  <style type="text/css">
   <![CDATA[
    .str0 {stroke:black;stroke-width:1.00006}
    .fil0 {fill:none}
   ]]>
  </style>
 </defs>
 <g id="Layer_x0020_1">
  <metadata id="CorelCorpID_0Corel-Layer"/>
  <path class="fil0 str0" d="M65 97c6,-4 23,50 42,68 10,1 -30,-86 -28,-103 6,-3 18,45 26,57 10,-3 -5,-53 9,-44 6,5 10,21 17,28 10,4 0,-23 1,-27 2,-9 8,1 10,14 11,-9 -18,-67 -18,-67 20,9 39,21 47,84 6,-2 1,-54 7,-61 4,-8 19,50 24,53 10,0 1,-28 2,-39 7,-10 21,35 21,41 6,4 7,-31 12,-36 7,-7 7,46 10,45 3,-19 18,-49 36,-71 13,-12 -20,92 -16,114 1,10 33,-85 41,-94 8,-5 -13,100 -25,126 -1,7 74,-89 86,-101 12,-16 -43,90 -39,94 1,2 36,-44 58,-55 -2,9 -48,58 -57,82 -5,10 44,-28 61,-34 5,15 -56,59 -59,70 -2,7 32,-10 38,-10 22,-7 -35,35 -33,37 -3,5 17,-5 30,-7 18,1 -66,52 -73,72 43,-5 86,-21 123,-44 6,-4 15,-7 18,-2 -36,39 -91,58 -144,52 -5,5 52,19 49,24 -7,7 -48,0 -61,1 -3,9 19,14 7,29 9,-1 7,3 7,7 -8,2 -12,14 -10,18 -35,-1 -59,20 -106,3 -1,-5 24,-17 22,-23 -9,-6 -45,14 -62,14 -14,-8 66,-20 56,-37 -23,8 -36,3 -55,5 5,-16 37,0 42,-17 -26,-16 -58,10 -63,-19 14,-1 27,-19 30,-34 5,-4 15,13 29,8 -4,-36 -61,-21 -62,-34 4,-16 58,12 72,13 4,-6 -51,-54 -59,-67 -22,-30 -56,-93 -63,-133z"/>
 </g>
</svg>
