<?xml version="1.0" encoding="UTF-8"?>
<!DOCTYPE svg PUBLIC "-//W3C//DTD SVG 1.1//EN" "http://www.w3.org/Graphics/SVG/1.1/DTD/svg11.dtd">
<!-- Creator: CorelDRAW X8 -->
<svg xmlns="http://www.w3.org/2000/svg" xml:space="preserve" width="500px" height="500px" version="1.1" style="shape-rendering:geometricPrecision; text-rendering:geometricPrecision; image-rendering:optimizeQuality; fill-rule:evenodd; clip-rule:evenodd"
viewBox="0 0 500 500"
 xmlns:xlink="http://www.w3.org/1999/xlink">
 <defs>
  <style type="text/css">
   <![CDATA[
    .str0 {stroke:black;stroke-width:0.750048}
    .fil0 {fill:none}
   ]]>
  </style>
 </defs>
 <g id="Layer_x0020_1">
  <metadata id="CorelCorpID_0Corel-Layer"/>
  <path class="fil0 str0" d="M302 85c-14,-17 -38,-4 -35,11 0,15 26,4 32,-2 4,-3 8,1 8,5 -5,118 15,147 -10,272 3,0 36,-56 50,-124 14,-43 18,-116 38,-143 21,-7 37,17 11,20 -6,0 -17,-6 -21,-12"/>
  <path class="fil0 str0" d="M262 405c-13,-58 -4,-145 -18,-201 -7,-29 -22,-57 -19,-87 6,-22 -30,-21 -34,-12 -4,7 4,15 11,16 7,0 14,-2 20,-8"/>
  <path class="fil0 str0" d="M281 387c-24,-43 -27,-95 -53,-137 -24,-43 -78,-96 -78,-150 2,-6 11,-13 18,-13 10,0 12,12 1,16 -4,2 -10,5 -15,6"/>
  <path class="fil0 str0" d="M215 399c-11,-12 -27,-113 -42,-141 -13,-28 -36,-50 -47,-81 -16,1 -29,7 -29,22 0,6 6,13 12,12 13,-3 14,-17 14,-29"/>
 </g>
</svg>
