<?xml version="1.0" encoding="UTF-8"?>
<!DOCTYPE svg PUBLIC "-//W3C//DTD SVG 1.1//EN" "http://www.w3.org/Graphics/SVG/1.1/DTD/svg11.dtd">
<!-- Creator: CorelDRAW X8 -->
<svg xmlns="http://www.w3.org/2000/svg" xml:space="preserve" width="500px" height="500px" version="1.1" style="shape-rendering:geometricPrecision; text-rendering:geometricPrecision; image-rendering:optimizeQuality; fill-rule:evenodd; clip-rule:evenodd"
viewBox="0 0 500 500"
 xmlns:xlink="http://www.w3.org/1999/xlink">
 <defs>
  <style type="text/css">
   <![CDATA[
    .str0 {stroke:black;stroke-width:1.00006}
    .fil0 {fill:none;fill-rule:nonzero}
   ]]>
  </style>
 </defs>
 <g id="Layer_x0020_1">
  <metadata id="CorelCorpID_0Corel-Layer"/>
  <path class="fil0 str0" d="M184 483c-5,-15 1,-30 6,-44 8,-18 17,-36 28,-52 -3,16 5,33 2,50 -3,20 -20,35 -38,44 15,-18 31,-36 43,-57 19,-34 28,-73 36,-112 -20,23 -36,50 -46,78 -14,-16 -24,-36 -29,-57 -5,-19 -6,-39 -13,-57 -15,43 -5,94 25,128 -19,-10 -35,-27 -42,-48 -1,17 -3,34 3,50 5,16 19,30 36,30"/>
  <path class="fil0 str0" d="M196 369c-3,-48 5,-97 23,-141 4,31 8,64 -4,94 12,-31 26,-62 42,-90 1,11 5,21 6,33 2,22 -9,44 -19,64"/>
  <path class="fil0 str0" d="M223 248c3,-39 19,-76 46,-105 6,31 0,65 -18,92 18,-26 33,-52 47,-80 2,9 4,17 5,25 2,7 3,13 2,20 0,5 -3,9 -5,14 -9,21 -20,42 -37,56"/>
  <path class="fil0 str0" d="M272 153c12,-35 35,-67 65,-90 -6,32 -21,62 -44,85"/>
  <path class="fil0 str0" d="M304 137c1,-5 5,-9 8,-13 21,-18 43,-34 66,-49 -4,22 -10,44 -22,63 -12,19 -29,35 -50,42"/>
  <path class="fil0 str0" d="M332 78c0,0 -1,0 0,1 0,0 1,-1 1,-1 17,-19 36,-37 60,-48 -6,20 -16,39 -30,54"/>
 </g>
</svg>
