<?xml version="1.0" encoding="UTF-8"?>
<!DOCTYPE svg PUBLIC "-//W3C//DTD SVG 1.1//EN" "http://www.w3.org/Graphics/SVG/1.1/DTD/svg11.dtd">
<!-- Creator: CorelDRAW X8 -->
<svg xmlns="http://www.w3.org/2000/svg" xml:space="preserve" width="500px" height="500px" version="1.1" style="shape-rendering:geometricPrecision; text-rendering:geometricPrecision; image-rendering:optimizeQuality; fill-rule:evenodd; clip-rule:evenodd"
viewBox="0 0 500 500"
 xmlns:xlink="http://www.w3.org/1999/xlink">
 <defs>
  <style type="text/css">
   <![CDATA[
    .str0 {stroke:black;stroke-width:1.00006}
    .fil0 {fill:none}
   ]]>
  </style>
 </defs>
 <g id="Layer_x0020_1">
  <metadata id="CorelCorpID_0Corel-Layer"/>
  <path class="fil0 str0" d="M160 484c-11,-27 28,-91 38,-97 -3,16 3,30 0,48 -3,22 -21,43 -40,47 56,-63 70,-103 84,-179 -9,6 -38,53 -49,83 -38,-44 -27,-76 -44,-121 -16,46 -6,98 26,135 -2,4 -37,-28 -44,-50 -15,30 4,85 41,85"/>
  <path class="fil0 str0" d="M173 364c-3,-51 5,-103 24,-150 3,23 -7,100 -1,98 5,0 15,-58 41,-93 14,39 2,70 -16,99"/>
  <path class="fil0 str0" d="M202 236c3,-40 18,-77 44,-107 2,-2 5,-1 5,2 5,45 -16,56 -17,83 29,-14 32,-73 47,-70 5,8 12,24 3,44 -1,20 -17,53 -40,71"/>
  <path class="fil0 str0" d="M253 135c12,-34 34,-66 62,-90 3,-2 6,0 5,3 -7,31 -22,59 -44,82"/>
  <path class="fil0 str0" d="M296 104c20,-17 41,-33 63,-48 3,-1 6,1 5,4 -4,21 -10,41 -22,59 -12,20 -30,37 -53,45"/>
  <path class="fil0 str0" d="M318 56c16,-19 34,-36 57,-48 2,-1 5,1 4,4 -6,18 -16,36 -29,50"/>
 </g>
</svg>
