<?xml version="1.0" encoding="UTF-8"?>
<!DOCTYPE svg PUBLIC "-//W3C//DTD SVG 1.1//EN" "http://www.w3.org/Graphics/SVG/1.1/DTD/svg11.dtd">
<!-- Creator: CorelDRAW X8 -->
<svg xmlns="http://www.w3.org/2000/svg" xml:space="preserve" width="500px" height="500px" version="1.1" style="shape-rendering:geometricPrecision; text-rendering:geometricPrecision; image-rendering:optimizeQuality; fill-rule:evenodd; clip-rule:evenodd"
viewBox="0 0 500 500"
 xmlns:xlink="http://www.w3.org/1999/xlink">
 <defs>
  <style type="text/css">
   <![CDATA[
    .str0 {stroke:black;stroke-width:1.00006}
    .fil0 {fill:none}
   ]]>
  </style>
 </defs>
 <g id="Layer_x0020_1">
  <metadata id="CorelCorpID_0Corel-Layer"/>
  <path class="fil0 str0" d="M158 200c-4,33 -2,41 6,49 -2,132 -11,180 -17,199 -6,-12 -2,-61 5,-117 3,-26 15,-51 16,-65 1,-17 -8,-35 5,-47 -2,-1 -3,-3 -5,-4 -3,-7 10,-13 7,-20 -8,-2 -10,-17 -3,-31 8,-22 -6,-45 -11,-68 -3,-22 3,-53 -14,-70 -15,68 19,97 11,174z"/>
  <path class="fil0 str0" d="M294 245c-12,-9 -21,-30 -25,-51 -20,72 15,78 31,112 8,26 -13,108 -5,143 11,-9 3,-63 12,-112 0,-54 33,-53 47,-92 14,-37 22,-76 23,-115 -14,44 -30,58 -39,93 -9,-23 26,-111 17,-164 -9,32 -20,65 -32,96 -8,-28 14,-54 13,-83 -60,74 -46,143 -42,173z"/>
 </g>
</svg>
