<?xml version="1.0" encoding="UTF-8"?>
<!DOCTYPE svg PUBLIC "-//W3C//DTD SVG 1.1//EN" "http://www.w3.org/Graphics/SVG/1.1/DTD/svg11.dtd">
<!-- Creator: CorelDRAW X8 -->
<svg xmlns="http://www.w3.org/2000/svg" xml:space="preserve" width="500px" height="500px" version="1.1" style="shape-rendering:geometricPrecision; text-rendering:geometricPrecision; image-rendering:optimizeQuality; fill-rule:evenodd; clip-rule:evenodd"
viewBox="0 0 500 500"
 xmlns:xlink="http://www.w3.org/1999/xlink">
 <defs>
  <style type="text/css">
   <![CDATA[
    .str0 {stroke:black;stroke-width:0.750048}
    .fil0 {fill:none}
   ]]>
  </style>
 </defs>
 <g id="Layer_x0020_1">
  <metadata id="CorelCorpID_0Corel-Layer"/>
  <path class="fil0 str0" d="M181 156c3,20 -10,41 -11,61 9,-1 16,-7 20,-14 1,-7 4,-5 5,-24 2,-21 -8,-68 -19,-61 -4,3 6,32 5,38z"/>
  <path class="fil0 str0" d="M197 138c0,17 -4,32 -5,49 -1,16 1,34 10,47 3,-5 4,-12 6,-18 2,-11 1,-23 0,-34l-2 -36c-1,-6 0,-27 -4,-31 -2,3 -5,23 -5,23l0 0z"/>
  <path class="fil0 str0" d="M247 236c-8,-27 -7,-56 -1,-83 -1,-9 2,-34 6,-34 11,15 19,66 6,95 0,5 -7,18 -11,22z"/>
  <path class="fil0 str0" d="M287 116c1,38 -18,57 -7,111 0,4 -1,9 -4,9 -6,0 -10,-12 -11,-18 -6,-37 -2,-72 22,-102z"/>
  <path class="fil0 str0" d="M313 235c25,0 24,-83 18,-100 -4,-8 -8,-11 -15,-13 -2,44 19,78 -3,113z"/>
  <path class="fil0 str0" d="M333 182c7,-21 18,-41 33,-58 2,10 -2,19 -6,28 -12,34 -4,55 -10,83 0,5 -8,6 -11,-2 -4,-9 -5,-18 -4,-27"/>
  <path class="fil0 str0" d="M190 200c-19,56 23,170 28,172 36,-53 45,-97 45,-161"/>
  <path class="fil0 str0" d="M221 374c24,-20 60,-24 78,-50 27,-38 10,-59 35,-114"/>
 </g>
</svg>
