<?xml version="1.0" encoding="UTF-8"?>
<!DOCTYPE svg PUBLIC "-//W3C//DTD SVG 1.1//EN" "http://www.w3.org/Graphics/SVG/1.1/DTD/svg11.dtd">
<!-- Creator: CorelDRAW X8 -->
<svg xmlns="http://www.w3.org/2000/svg" xml:space="preserve" width="500px" height="500px" version="1.1" style="shape-rendering:geometricPrecision; text-rendering:geometricPrecision; image-rendering:optimizeQuality; fill-rule:evenodd; clip-rule:evenodd"
viewBox="0 0 500 500"
 xmlns:xlink="http://www.w3.org/1999/xlink">
 <defs>
  <style type="text/css">
   <![CDATA[
    .str0 {stroke:black;stroke-width:1.00006}
    .fil0 {fill:none}
   ]]>
  </style>
 </defs>
 <g id="Layer_x0020_1">
  <metadata id="CorelCorpID_0Corel-Layer"/>
  <path class="fil0 str0" d="M129 143c-12,6 -25,1 -35,-8 -10,-9 -14,-22 -14,-35 6,13 16,23 28,29 2,-1 -2,-29 0,-49 10,19 14,43 15,44 2,-2 2,-24 8,-45 13,23 3,48 4,48 4,1 10,-32 21,-49 10,23 -1,54 -25,65 9,29 44,62 69,79 -10,-36 16,-74 20,-110 -11,-3 -17,-14 -18,-24 -3,-14 0,-28 6,-41 7,14 -4,32 3,45 2,2 7,-19 24,-35 0,11 -10,39 -10,41 3,0 13,-20 33,-35 -2,15 -14,40 -14,41 2,0 14,-17 42,-24 -1,14 -8,28 -20,35 -11,7 -27,8 -39,2"/>
  <path class="fil0 str0" d="M200 224c-1,12 10,36 19,44 31,-39 141,-69 151,-123 -4,-19 -6,-51 18,-69 4,2 -13,40 -11,46 3,0 15,-26 37,-40 -2,18 -22,49 -20,50 3,0 15,-20 36,-35 -5,14 -13,29 -24,38 1,2 11,-7 27,-11 15,2 -15,36 -61,29"/>
  <path class="fil0 str0" d="M274 226c1,-10 5,-20 8,-30 -7,1 -13,-3 -15,-9 -6,-17 5,-38 16,-45 -4,12 -4,24 0,36 12,-12 9,-30 25,-42 2,1 -13,39 -12,42 11,-14 13,-35 28,-45 0,7 -17,38 -8,39 3,-11 20,-34 24,-35 2,33 -14,65 -58,63"/>
  <path class="fil0 str0" d="M220 271c-4,57 -13,110 -25,166"/>
  <path class="fil0 str0" d="M204 397c18,-3 60,-25 90,-62 2,-18 -8,-47 23,-91 3,4 -19,39 -12,57 2,1 12,-24 28,-42 -4,18 -21,48 -21,49 4,0 32,-34 42,-40 -4,11 -29,45 -27,47 2,1 37,-33 44,-33 0,3 -16,24 -28,32 19,-2 66,-27 61,-7 -20,31 -88,55 -104,24"/>
  <path class="fil0 str0" d="M197 396c-39,-13 -63,-52 -72,-91 -13,-34 -58,-37 -40,-83 9,8 23,35 29,36 -3,-10 0,-26 6,-38 3,3 3,42 6,46 1,-1 8,-38 16,-48l-5 50c4,-1 18,-37 27,-42 -2,19 -11,34 -9,42 2,1 11,-20 25,-24 6,21 -36,45 -54,47"/>
 </g>
</svg>
