<?xml version="1.0" encoding="UTF-8"?>
<!DOCTYPE svg PUBLIC "-//W3C//DTD SVG 1.1//EN" "http://www.w3.org/Graphics/SVG/1.1/DTD/svg11.dtd">
<!-- Creator: CorelDRAW X8 -->
<svg xmlns="http://www.w3.org/2000/svg" xml:space="preserve" width="500px" height="500px" version="1.1" style="shape-rendering:geometricPrecision; text-rendering:geometricPrecision; image-rendering:optimizeQuality; fill-rule:evenodd; clip-rule:evenodd"
viewBox="0 0 500 500"
 xmlns:xlink="http://www.w3.org/1999/xlink">
 <defs>
  <style type="text/css">
   <![CDATA[
    .str0 {stroke:black;stroke-width:1.00006}
    .fil0 {fill:none;fill-rule:nonzero}
   ]]>
  </style>
 </defs>
 <g id="Layer_x0020_1">
  <metadata id="CorelCorpID_0Corel-Layer"/>
  <path class="fil0 str0" d="M172 309c-6,-2 -10,-7 -14,-12 -4,-7 -7,-15 -7,-23 1,-7 4,-13 7,-19 3,-6 7,-13 12,-18 8,-8 18,-11 29,-12 11,0 21,2 31,4 16,4 33,10 40,24 5,11 3,24 -1,36 -3,12 -8,24 -18,31 -10,8 -26,9 -34,-1 -5,-6 -6,-15 -5,-24 0,-3 1,-6 0,-10 -1,-6 -7,-9 -12,-5 -3,2 -3,6 -4,10 -3,10 -12,22 -24,19z"/>
  <path class="fil0 str0" d="M147 313c-3,-2 -5,-5 -6,-9 -1,-5 -1,-10 -2,-15 -1,-5 -4,-9 -6,-13 -1,-5 0,-11 5,-13 1,0 3,0 3,-1 2,-2 0,-5 -1,-7 -2,-5 0,-11 4,-14 3,-2 7,-2 9,-5 2,-4 -2,-10 0,-14 3,-5 11,-4 14,-8 1,-3 1,-6 2,-8 2,-1 4,-2 6,-3l36 -12c4,-1 7,-2 10,-4 4,-2 7,-4 11,-6 13,-9 26,-17 39,-26 7,-5 14,-9 22,-12 12,-5 25,-5 37,-5 10,0 20,-1 30,-1 3,0 7,1 7,3 -3,3 -8,3 -12,4 -38,0 -75,18 -100,46 -3,4 -6,9 -7,14 -2,5 0,11 4,14 4,2 8,2 13,2 4,1 9,3 10,7 0,4 -2,8 0,11 2,4 10,2 13,6 3,3 0,8 0,13 1,3 3,5 4,8 1,6 -1,12 -3,18 -5,11 -9,21 -14,32 -2,6 -5,12 -10,16 -6,6 -15,8 -23,5 -7,-2 -12,-7 -19,-6 -6,0 -12,5 -17,3 -1,-1 -2,-2 -3,-2 -3,0 -4,2 -5,4 -6,9 -12,19 -18,28 -3,-1 -6,-2 -9,-3 -3,-2 -5,-5 -5,-9 1,-2 2,-3 3,-5 5,-7 11,-15 15,-22 -6,-3 -12,-1 -19,-2 -3,0 -7,-1 -10,-3 -2,-1 -7,-6 -8,-6z"/>
 </g>
</svg>
