<?xml version="1.0" encoding="UTF-8"?>
<!DOCTYPE svg PUBLIC "-//W3C//DTD SVG 1.1//EN" "http://www.w3.org/Graphics/SVG/1.1/DTD/svg11.dtd">
<!-- Creator: CorelDRAW X8 -->
<svg xmlns="http://www.w3.org/2000/svg" xml:space="preserve" width="500px" height="500px" version="1.1" style="shape-rendering:geometricPrecision; text-rendering:geometricPrecision; image-rendering:optimizeQuality; fill-rule:evenodd; clip-rule:evenodd"
viewBox="0 0 500 500"
 xmlns:xlink="http://www.w3.org/1999/xlink">
 <defs>
  <style type="text/css">
   <![CDATA[
    .str0 {stroke:black;stroke-width:1.00006}
    .fil0 {fill:none}
   ]]>
  </style>
 </defs>
 <g id="Layer_x0020_1">
  <metadata id="CorelCorpID_0Corel-Layer"/>
  <path class="fil0 str0" d="M223 11c-10,10 -8,32 -3,33 0,-11 9,-14 17,-14 3,-2 -1,-14 -5,-18 -2,2 1,27 -1,29 -4,8 -48,8 -59,4 11,21 46,27 67,24 18,-4 34,-14 45,-29 4,-5 7,-11 6,-18 -28,15 -43,14 -65,24"/>
  <path class="fil0 str0" d="M171 89c5,12 21,17 56,20 11,0 41,-5 75,-21 7,-5 12,-13 12,-21 -7,-2 -45,12 -71,15 -26,2 -43,11 -72,7z"/>
  <path class="fil0 str0" d="M170 133c14,26 101,16 136,4 18,-9 44,-39 25,-33 -30,11 -58,15 -88,14 -24,0 -67,11 -73,15z"/>
  <path class="fil0 str0" d="M247 163c-28,3 -85,16 -84,20 47,-6 54,31 164,-7 12,-2 24,-9 30,-20 -42,-2 -82,2 -123,11"/>
  <path class="fil0 str0" d="M268 213c-32,-5 -112,26 -113,30 38,-11 102,37 196,-9 9,-4 18,-10 18,-18 -25,-5 -84,1 -101,-3z"/>
  <path class="fil0 str0" d="M151 319c38,-2 83,12 126,10 55,1 142,-32 117,-38 -52,-4 -61,-13 -98,-13 -60,0 -93,8 -145,41z"/>
  <path class="fil0 str0" d="M166 375c7,5 54,3 111,14 22,2 45,5 68,4 19,-2 81,-19 60,-28 -33,-8 -68,-6 -101,-12 -56,-12 -31,-5 -90,7 -25,2 -40,7 -48,15z"/>
  <path class="fil0 str0" d="M192 423c15,14 34,16 58,15 42,-3 95,9 136,-12 -36,-6 -72,-45 -194,-3z"/>
  <path class="fil0 str0" d="M230 23c5,26 15,52 22,78 33,123 -2,255 19,381"/>
 </g>
</svg>
