<?xml version="1.0" encoding="UTF-8"?>
<!DOCTYPE svg PUBLIC "-//W3C//DTD SVG 1.1//EN" "http://www.w3.org/Graphics/SVG/1.1/DTD/svg11.dtd">
<!-- Creator: CorelDRAW X8 -->
<svg xmlns="http://www.w3.org/2000/svg" xml:space="preserve" width="500px" height="500px" version="1.1" style="shape-rendering:geometricPrecision; text-rendering:geometricPrecision; image-rendering:optimizeQuality; fill-rule:evenodd; clip-rule:evenodd"
viewBox="0 0 500 500"
 xmlns:xlink="http://www.w3.org/1999/xlink">
 <defs>
  <style type="text/css">
   <![CDATA[
    .str0 {stroke:black;stroke-width:1.00006}
    .fil0 {fill:none;fill-rule:nonzero}
   ]]>
  </style>
 </defs>
 <g id="Layer_x0020_1">
  <metadata id="CorelCorpID_0Corel-Layer"/>
  <path class="fil0 str0" d="M242 79c1,0 0,-3 -1,-2 -2,0 -2,2 -2,3 -4,19 -8,37 -12,56 -17,-22 -39,-39 -60,-57 -20,-19 -40,-40 -48,-66 24,52 56,101 95,144l-67 17c17,3 35,5 53,6 -50,22 -108,21 -163,19 53,17 108,23 163,20 -3,34 -12,67 -26,98 -26,-32 -69,-44 -99,-72 30,29 60,57 90,86 -20,8 -41,16 -62,21 20,0 40,-1 59,-2 -6,13 -19,21 -30,30 -25,19 -46,41 -65,66 33,-29 68,-56 105,-80 12,13 19,29 27,45 11,23 22,45 33,67 -7,-45 -19,-89 -35,-132 23,8 47,14 70,19 -15,-20 -46,-21 -65,-38 5,2 8,-5 9,-10 6,-26 11,-53 17,-79 32,12 69,1 96,-21 27,-21 45,-52 60,-82 15,-29 30,-59 33,-92 -18,44 -38,88 -70,122 -32,33 -80,56 -126,49 8,-5 10,-16 12,-25 7,-40 15,-80 22,-120"/>
 </g>
</svg>
