<?xml version="1.0" encoding="utf-8"?>
<!-- Generator: Adobe Illustrator 19.0.0, SVG Export Plug-In . SVG Version: 6.00 Build 0)  -->
<svg version="1.1" id="Layer_1" xmlns="http://www.w3.org/2000/svg" xmlns:xlink="http://www.w3.org/1999/xlink" x="0px" y="0px"
	 viewBox="-55 147 500 500" style="enable-background:new -55 147 500 500;" xml:space="preserve">
<style type="text/css">
	.st0{fill:none;stroke:#000000;stroke-width:1.0001;}
</style>
<g id="Layer_x0020_1">
	<path class="st0" d="M187,226c1,0,0-3-1-2c-2,0-2,2-2,3c-4,19-8,37-12,56c-17-22-39-39-60-57c-18.6-17.7-26.7-39-44-61.1
		c-0.6-0.7-1.7,0-1.3,0.8c23.7,49.9,54.8,96.9,92.3,138.3l-67,17c17,3,35,5,53,6c-50,22-108,21-163,19c53,17,108,23,163,20
		c-3,34-12,67-26,98c-24.6-30.3-65.5-49.3-94.3-68.7c-0.5-0.3-1,0.3-0.6,0.7c28.6,27.6,57.2,54.3,85.8,82c-20,8-41,16-62,21
		c20,0,40-1,59-2c-6,13-19,21-30,30c-25,19-46,41-65,66c33-29,68-56,105-80c12,13,19,29,27,45c11,23,22,45,33,67c-7-45-19-89-35-132
		c23,8,47,14,70,19c-15-20-46-21-65-38c5,2,8-5,9-10c6-26,11-53,17-79c32,12,69,1,96-21c27-21,45-52,60-82c15-29,30-59,33-92
		c-18,44-38,88-70,122c-32,33-80,56-126,49c8-5,10-16,12-25c7-40,15-80,22-120"/>
</g>
</svg>
