<?xml version="1.0" encoding="UTF-8"?>
<!DOCTYPE svg PUBLIC "-//W3C//DTD SVG 1.1//EN" "http://www.w3.org/Graphics/SVG/1.1/DTD/svg11.dtd">
<!-- Creator: CorelDRAW X8 -->
<svg xmlns="http://www.w3.org/2000/svg" xml:space="preserve" width="500px" height="500px" version="1.1" style="shape-rendering:geometricPrecision; text-rendering:geometricPrecision; image-rendering:optimizeQuality; fill-rule:evenodd; clip-rule:evenodd"
viewBox="0 0 500 500"
 xmlns:xlink="http://www.w3.org/1999/xlink">
 <defs>
  <style type="text/css">
   <![CDATA[
    .str0 {stroke:black;stroke-width:0.750048}
    .fil0 {fill:none}
   ]]>
  </style>
 </defs>
 <g id="Layer_x0020_1">
  <metadata id="CorelCorpID_0Corel-Layer"/>
  <path class="fil0 str0" d="M271 192c-53,73 -117,140 -188,196 -6,4 -13,9 -19,9"/>
  <path class="fil0 str0" d="M240 90c-7,20 0,87 24,90"/>
  <path class="fil0 str0" d="M272 185c15,-4 32,-3 49,1 40,7 114,-11 105,-52"/>
  <path class="fil0 str0" d="M271 190c56,11 103,81 178,21"/>
  <path class="fil0 str0" d="M291 177c-5,-31 6,-50 29,-72"/>
  <path class="fil0 str0" d="M299 173c14,-16 35,-34 76,-45"/>
  <line class="fil0 str0" x1="232" y1="82" x2="232" y2= "85" />
  <path class="fil0 str0" d="M245 78c0,2 0,4 0,6"/>
  <path class="fil0 str0" d="M251 96c2,-2 6,-3 9,-3"/>
  <path class="fil0 str0" d="M220 99l-1 -2c-1,0 -1,1 -2,1"/>
  <path class="fil0 str0" d="M245 110c0,-1 2,-2 3,-1"/>
  <path class="fil0 str0" d="M308 87c-3,5 -1,10 2,11"/>
  <path class="fil0 str0" d="M333 85c1,0 3,0 4,0"/>
  <path class="fil0 str0" d="M329 109c2,-3 5,2 8,2"/>
  <path class="fil0 str0" d="M322 122c-1,-2 6,0 8,1"/>
  <path class="fil0 str0" d="M371 103c-5,-10 -4,8 -5,12"/>
  <path class="fil0 str0" d="M383 116c-9,0 4,-3 7,-3"/>
  <path class="fil0 str0" d="M384 129c-2,-4 8,0 9,1"/>
  <path class="fil0 str0" d="M370 145c0,0 2,-2 -1,0 1,1 5,4 6,4"/>
  <path class="fil0 str0" d="M409 123c-5,0 -2,8 0,11"/>
  <path class="fil0 str0" d="M435 119c1,0 3,0 4,1"/>
  <path class="fil0 str0" d="M437 143c-12,-5 6,-3 8,-4"/>
  <path class="fil0 str0" d="M432 160c2,1 6,2 9,3"/>
  <path class="fil0 str0" d="M448 181c-5,-9 -8,10 -9,14"/>
  <path class="fil0 str0" d="M464 193c-1,-3 6,0 7,1"/>
  <path class="fil0 str0" d="M454 215c0,-6 5,-4 9,-1"/>
  <path class="fil0 str0" d="M443 235c0,-7 10,6 11,8"/>
  <path class="fil0 str0" d="M428 253c4,2 7,6 10,8"/>
 </g>
</svg>
