<?xml version="1.0" encoding="UTF-8"?>
<!DOCTYPE svg PUBLIC "-//W3C//DTD SVG 1.1//EN" "http://www.w3.org/Graphics/SVG/1.1/DTD/svg11.dtd">
<!-- Creator: CorelDRAW X8 -->
<svg xmlns="http://www.w3.org/2000/svg" xml:space="preserve" width="500px" height="500px" version="1.1" style="shape-rendering:geometricPrecision; text-rendering:geometricPrecision; image-rendering:optimizeQuality; fill-rule:evenodd; clip-rule:evenodd"
viewBox="0 0 500 500"
 xmlns:xlink="http://www.w3.org/1999/xlink">
 <defs>
  <style type="text/css">
   <![CDATA[
    .str0 {stroke:black;stroke-width:0.750048}
    .fil0 {fill:none}
   ]]>
  </style>
 </defs>
 <g id="Layer_x0020_1">
  <metadata id="CorelCorpID_0Corel-Layer"/>
  <path class="fil0 str0" d="M184 241c17,13 32,0 33,1 3,2 -37,21 -20,52 15,-5 26,-12 34,-25 14,16 8,30 14,44 14,-10 22,-29 15,-44 13,7 29,10 44,6 1,-10 -4,-20 -12,-26 14,2 29,2 43,-2 27,-14 -18,-17 -33,-24 -1,-2 33,-9 31,-46 -15,-2 -21,18 -32,20 7,-10 10,-22 7,-34 -10,4 -10,16 -17,15l-20 -52c-11,13 -8,42 -15,49 -2,2 -22,-9 -31,-9 -3,11 2,29 0,31 -18,-7 -30,-45 -52,-35 4,18 19,37 17,40 -6,-6 -27,-6 -32,-5 3,9 13,12 15,21 0,12 1,17 11,23z"/>
  <path class="fil0 str0" d="M270 192c-4,-16 28,-55 24,-72"/>
  <path class="fil0 str0" d="M240 195c-18,-18 -16,-51 -27,-63"/>
  <path class="fil0 str0" d="M203 205c-9,-26 5,-54 0,-67 -1,-2 -3,-5 -5,-5"/>
  <path class="fil0 str0" d="M194 225c-19,-2 -26,5 -35,5 -10,0 -22,-5 -28,-13"/>
  <path class="fil0 str0" d="M283 221c32,-12 59,-37 75,-67"/>
  <path class="fil0 str0" d="M295 240c19,-11 36,-6 66,-45"/>
  <path class="fil0 str0" d="M276 260c19,0 42,24 73,16"/>
  <path class="fil0 str0" d="M257 207c1,-9 -5,-14 -8,-22 -6,-13 -12,-51 -5,-65"/>
 </g>
</svg>
