<?xml version="1.0" encoding="UTF-8"?>
<!DOCTYPE svg PUBLIC "-//W3C//DTD SVG 1.1//EN" "http://www.w3.org/Graphics/SVG/1.1/DTD/svg11.dtd">
<!-- Creator: CorelDRAW X8 -->
<svg xmlns="http://www.w3.org/2000/svg" xml:space="preserve" width="500px" height="500px" version="1.1" style="shape-rendering:geometricPrecision; text-rendering:geometricPrecision; image-rendering:optimizeQuality; fill-rule:evenodd; clip-rule:evenodd"
viewBox="0 0 500 500"
 xmlns:xlink="http://www.w3.org/1999/xlink">
 <defs>
  <style type="text/css">
   <![CDATA[
    .str0 {stroke:black;stroke-width:1.00006}
    .fil0 {fill:none;fill-rule:nonzero}
   ]]>
  </style>
 </defs>
 <g id="Layer_x0020_1">
  <metadata id="CorelCorpID_0Corel-Layer"/>
  <path class="fil0 str0" d="M183 272c10,6 22,5 33,1 -15,13 -23,33 -20,52 14,-5 26,-14 35,-25 6,7 9,16 10,25 1,6 1,13 4,19 14,-10 22,-29 15,-44 14,5 29,7 44,6 1,-10 -4,-20 -12,-26 14,2 29,2 43,-2 4,-2 8,-4 8,-8 0,-3 -4,-6 -7,-7 -11,-5 -23,-8 -34,-9 9,-3 18,-10 23,-18 5,-9 7,-19 8,-29 -6,-1 -12,3 -17,8 -4,5 -9,11 -15,12 7,-10 10,-22 7,-34 -6,5 -11,10 -17,15l-20 -52c-4,15 -9,30 -13,45 0,2 -1,3 -2,4 -1,1 -3,0 -5,0 -9,-3 -18,-6 -27,-9 0,10 0,20 0,31 -10,-4 -16,-15 -23,-23 -7,-9 -18,-17 -29,-12 6,13 12,26 17,40 -2,-6 -27,-6 -32,-5 3,9 13,12 15,21 2,10 1,18 11,24z"/>
  <path class="fil0 str0" d="M270 222c-1,0 0,-3 0,-4 3,-5 4,-11 6,-16 2,-9 7,-17 11,-25 4,-9 8,-18 7,-27"/>
  <path class="fil0 str0" d="M240 226c-3,-5 -6,-11 -10,-16 -3,-5 -6,-10 -8,-15 -4,-11 -4,-24 -10,-33"/>
  <path class="fil0 str0" d="M202 235c-1,-14 -2,-29 0,-44 0,-8 1,-15 0,-23 -1,-2 -3,-5 -5,-5"/>
  <path class="fil0 str0" d="M193 256c-5,0 -9,0 -14,1 -4,0 -9,1 -13,2 -2,1 -5,2 -8,2 -4,0 -8,-1 -12,-2 -6,-3 -12,-6 -16,-12"/>
  <path class="fil0 str0" d="M283 252c32,-13 60,-38 76,-68"/>
  <path class="fil0 str0" d="M295 271c5,-2 10,-2 15,-3 11,-3 21,-9 30,-17 8,-8 15,-17 22,-26"/>
  <path class="fil0 str0" d="M276 291c5,0 11,3 16,5 7,4 14,6 21,8 12,4 25,6 37,3"/>
  <path class="fil0 str0" d="M257 238c-1,-8 -5,-15 -8,-23 -4,-11 -5,-22 -7,-34 -2,-10 -3,-22 2,-31"/>
 </g>
</svg>
