<?xml version="1.0" encoding="UTF-8"?>
<!DOCTYPE svg PUBLIC "-//W3C//DTD SVG 1.1//EN" "http://www.w3.org/Graphics/SVG/1.1/DTD/svg11.dtd">
<!-- Creator: CorelDRAW X8 -->
<svg xmlns="http://www.w3.org/2000/svg" xml:space="preserve" width="500px" height="500px" version="1.1" style="shape-rendering:geometricPrecision; text-rendering:geometricPrecision; image-rendering:optimizeQuality; fill-rule:evenodd; clip-rule:evenodd"
viewBox="0 0 500 500"
 xmlns:xlink="http://www.w3.org/1999/xlink">
 <defs>
  <style type="text/css">
   <![CDATA[
    .str0 {stroke:black;stroke-width:0.750048}
    .fil0 {fill:none}
   ]]>
  </style>
 </defs>
 <g id="Layer_x0020_1">
  <metadata id="CorelCorpID_0Corel-Layer"/>
  <path class="fil0 str0" d="M195 330c-7,-4 -66,-112 -75,-175 -2,-17 -6,-91 14,-99 33,100 57,246 64,247 4,-1 17,-163 37,-242 3,-12 11,-30 26,-26 10,54 -56,256 -55,258 13,-4 19,-118 150,-230 3,13 -6,27 -16,38 -54,61 -134,195 -133,196 9,-1 121,-109 189,-153 11,-13 56,-43 35,2 -24,32 -59,54 -92,77 -43,33 -74,61 -123,87 5,9 114,-78 187,-69 1,3 -2,5 -5,6 -70,23 -132,72 -203,90 52,33 128,16 164,70 -61,-5 -122,-23 -176,-52"/>
 </g>
</svg>
