<?xml version="1.0" encoding="UTF-8"?>
<!DOCTYPE svg PUBLIC "-//W3C//DTD SVG 1.1//EN" "http://www.w3.org/Graphics/SVG/1.1/DTD/svg11.dtd">
<!-- Creator: CorelDRAW X8 -->
<svg xmlns="http://www.w3.org/2000/svg" xml:space="preserve" width="500px" height="500px" version="1.1" style="shape-rendering:geometricPrecision; text-rendering:geometricPrecision; image-rendering:optimizeQuality; fill-rule:evenodd; clip-rule:evenodd"
viewBox="0 0 500 500"
 xmlns:xlink="http://www.w3.org/1999/xlink">
 <defs>
  <style type="text/css">
   <![CDATA[
    .str0 {stroke:black;stroke-width:1.00006}
    .fil0 {fill:none;fill-rule:nonzero}
   ]]>
  </style>
 </defs>
 <g id="Layer_x0020_1">
  <metadata id="CorelCorpID_0Corel-Layer"/>
  <path class="fil0 str0" d="M26 59c23,36 49,71 85,94 13,8 27,15 41,22 44,26 82,66 103,113 21,47 25,102 9,151 -7,-18 -8,-38 -8,-58 0,-28 3,-57 6,-85l13 -124c4,-31 7,-63 16,-94"/>
  <path class="fil0 str0" d="M263 275c52,-69 126,-120 209,-143"/>
  <path class="fil0 str0" d="M352 213c-4,9 -4,21 2,29 4,6 9,10 15,12 13,5 29,1 39,-8 10,-10 15,-24 13,-38 0,-5 -2,-10 -6,-14 -3,-2 -7,-3 -10,-3 -23,-3 -43,-1 -53,22z"/>
  <path class="fil0 str0" d="M133 211c-6,8 -8,19 -6,29 3,10 10,18 20,21 10,3 21,0 28,-8 5,-7 6,-16 7,-25 0,-5 1,-10 -1,-14 -9,-22 -36,-20 -48,-3z"/>
  <path class="fil0 str0" d="M238 115c-4,6 -6,13 -6,20 -1,5 -1,9 1,14 4,9 17,12 26,8 9,-4 15,-13 18,-23 2,-6 3,-12 2,-18 -6,-24 -30,-18 -41,-1z"/>
  <path class="fil0 str0" d="M353 192c-1,-2 2,-4 4,-4 2,0 3,2 5,4 1,2 2,4 4,6"/>
 </g>
</svg>
