<?xml version="1.0" encoding="utf-8"?>
<!-- Generator: Adobe Illustrator 19.0.0, SVG Export Plug-In . SVG Version: 6.00 Build 0)  -->
<svg version="1.1" id="Layer_1" xmlns="http://www.w3.org/2000/svg" xmlns:xlink="http://www.w3.org/1999/xlink" x="0px" y="0px"
	 viewBox="-55 147 500 500" style="enable-background:new -55 147 500 500;" xml:space="preserve">
<style type="text/css">
	.st0{fill:none;stroke:#000000;stroke-width:1.0001;}
</style>
<g id="Layer_x0020_1">
	<path class="st0" d="M98,365c-22,4-42,14-58,30c-15,15-26,36-28,58c-3,19,2,39,13,55c5,7,11,13,18,18c14,11,31,19,49,22
		c18,2,37,0,53-9c28-15,44-47,44-79c-1-20-7-40-18-58c-9-15-21-32-39-35C120,365,110,362,98,365z"/>
	<path class="st0" d="M75,448c-12-4-25-4-36,0c-1,0-2,1-2,2c-1,1,1,2,2,3c8,7,18,12,28,15c-4,19-2,39,5,56c12-11,20-27,22-44
		c17,3,33,4,50,3c1-2,1-5-1-6c-1-2-4-3-6-4c-11-5-22-10-33-15c4-12,5-24,4-37c-1-5-2-12-6-15c-5-4-8,1-11,6C83,423,78,435,75,448z"
		/>
	<path class="st0" d="M294,356c-21,5-42,16-56,34c-5,7-10,15-14,24c-11,23-20,50-10,73c6,17,21,29,37,36c17,6,35,7,52,5
		c6-1,11-2,16-4c6-3,11-6,16-11c17-15,28-38,29-61c2-28-9-55-21-80C334,352,315,351,294,356z"/>
	<path class="st0" d="M250,252c-7-2-14-1-21-1c-13,2-26,5-37,12c-19,12-28,35-32,57c-2,12-3,25,1,36c4,12,14,23,26,26c7,2,15,0,23-1
		c19-4,38-10,55-21c16-11,29-28,32-48c0-5,0-11-1-16c-3-11-11-19-20-26C268,263,261,254,250,252z"/>
	<path class="st0" d="M314,440c-13-3-27-2-40,3c2,7,8,12,15,15c7,2,15,2,22,2c-1,15,0,29,2,43c11-11,19-25,21-40c9,1,19-2,26-8
		c-4-6-10-10-17-13c-1,0-3-1-4-2c-1-2-1-4,0-7c1-6,1-33-7-29c-5,2-9,13-11,17C318,427,316,434,314,440z"/>
	<path class="st0" d="M208,267c7,3,15,5,22,7c-4,7-6,15-6,23c8-5,16-12,21-20c8,1,16,2,23,1c-1-6-17-13-23-15c-5-1-11,0-16,0
		C224,264,210.6,265.6,208,267z"/>
</g>
</svg>
