<?xml version="1.0" encoding="UTF-8"?>
<!DOCTYPE svg PUBLIC "-//W3C//DTD SVG 1.1//EN" "http://www.w3.org/Graphics/SVG/1.1/DTD/svg11.dtd">
<!-- Creator: CorelDRAW X8 -->
<svg xmlns="http://www.w3.org/2000/svg" xml:space="preserve" width="500px" height="500px" version="1.1" style="shape-rendering:geometricPrecision; text-rendering:geometricPrecision; image-rendering:optimizeQuality; fill-rule:evenodd; clip-rule:evenodd"
viewBox="0 0 500 500"
 xmlns:xlink="http://www.w3.org/1999/xlink">
 <defs>
  <style type="text/css">
   <![CDATA[
    .str0 {stroke:black;stroke-width:1.00006}
    .fil0 {fill:none;fill-rule:nonzero}
   ]]>
  </style>
 </defs>
 <g id="Layer_x0020_1">
  <metadata id="CorelCorpID_0Corel-Layer"/>
  <path class="fil0 str0" d="M291 277c5,9 7,19 9,28 3,13 5,27 7,40 -16,-12 -32,-25 -43,-41 -12,-17 -20,-36 -21,-56 -9,1 -20,2 -28,-4 -8,-5 -12,-14 -14,-23 -3,-12 -3,-25 -1,-38 19,10 29,31 38,51 3,5 5,10 6,16 1,-26 4,-52 17,-73 12,-19 32,-31 51,-43 1,14 3,29 -1,42 -4,14 -13,24 -23,34 -8,8 -16,15 -24,22 -6,4 -23,13 -14,18 7,4 17,5 24,10 7,4 13,10 17,17z"/>
  <path class="fil0 str0" d="M121 308c77,-20 136,-80 209,-110 9,-4 20,-7 29,-3 7,2 12,9 14,17 2,7 1,15 -1,23 -9,3 -18,6 -26,10 -7,4 -14,8 -19,14 -7,10 -8,24 -2,34 6,11 18,18 29,18 -4,5 -7,11 -8,18 4,-4 9,-8 13,-12 3,5 7,9 12,12 0,-5 0,-10 0,-15l10 8c-1,-4 -1,-7 -2,-11 4,2 8,4 12,6 -2,-4 -4,-7 -6,-11 13,-1 25,-9 31,-21 6,-12 6,-26 0,-38 -3,-4 -6,-8 -10,-10 -10,-7 -24,-4 -36,0"/>
  <path class="fil0 str0" d="M184 313c0,9 0,18 2,26 4,13 12,24 20,35 5,-25 3,-52 -5,-77 -1,-5 -3,-10 -8,-13 -3,-3 -8,-3 -13,-4 -17,-4 -32,-15 -41,-29 -9,-15 -12,-34 -7,-50 7,9 17,14 25,22 13,11 20,27 26,42 2,7 5,14 5,20 -1,10 -4,19 -4,28z"/>
 </g>
</svg>
