<?xml version="1.0" encoding="UTF-8"?>
<!DOCTYPE svg PUBLIC "-//W3C//DTD SVG 1.1//EN" "http://www.w3.org/Graphics/SVG/1.1/DTD/svg11.dtd">
<!-- Creator: CorelDRAW X8 -->
<svg xmlns="http://www.w3.org/2000/svg" xml:space="preserve" width="500px" height="500px" version="1.1" style="shape-rendering:geometricPrecision; text-rendering:geometricPrecision; image-rendering:optimizeQuality; fill-rule:evenodd; clip-rule:evenodd"
viewBox="0 0 500 500"
 xmlns:xlink="http://www.w3.org/1999/xlink">
 <defs>
  <style type="text/css">
   <![CDATA[
    .str0 {stroke:black;stroke-width:0.750048}
    .fil0 {fill:none}
   ]]>
  </style>
 </defs>
 <g id="Layer_x0020_1">
  <metadata id="CorelCorpID_0Corel-Layer"/>
  <path class="fil0 str0" d="M314 328c-17,-13 -36,-26 -48,-44 -24,-28 -19,-59 -21,-61 -41,-2 -52,-32 -46,-70 37,20 40,55 47,65 3,-1 -3,-42 18,-71 13,-21 35,-34 55,-47 1,15 3,32 -1,46 -4,15 -14,25 -25,36 -8,9 -17,16 -26,24 -6,4 -24,14 -15,19 8,5 19,6 26,11 27,16 31,63 36,92z"/>
  <path class="fil0 str0" d="M113 288c83,-22 147,-86 226,-119 34,-15 55,7 45,40 -89,8 -57,82 -20,82 -5,3 -9,13 -8,19 4,-2 11,-12 14,-12 2,6 6,12 12,13 0,-1 -2,-11 1,-17l10 9c1,-1 -4,-7 -2,-12 6,5 12,8 13,6 1,-3 -4,-5 -6,-11 14,-2 27,-10 33,-23 8,-16 7,-43 -11,-52 -10,-7 -26,-4 -38,0"/>
  <path class="fil0 str0" d="M205 359c6,-9 7,-62 -5,-83 -5,-13 -14,-18 -23,-18 -37,-9 -63,-48 -52,-86 18,21 62,39 61,91 -13,32 -11,54 19,96z"/>
 </g>
</svg>
