<?xml version="1.0" encoding="UTF-8"?>
<!DOCTYPE svg PUBLIC "-//W3C//DTD SVG 1.1//EN" "http://www.w3.org/Graphics/SVG/1.1/DTD/svg11.dtd">
<!-- Creator: CorelDRAW X8 -->
<svg xmlns="http://www.w3.org/2000/svg" xml:space="preserve" width="500px" height="500px" version="1.1" style="shape-rendering:geometricPrecision; text-rendering:geometricPrecision; image-rendering:optimizeQuality; fill-rule:evenodd; clip-rule:evenodd"
viewBox="0 0 500 500"
 xmlns:xlink="http://www.w3.org/1999/xlink">
 <defs>
  <style type="text/css">
   <![CDATA[
    .str0 {stroke:black;stroke-width:1.00006}
    .fil0 {fill:none}
   ]]>
  </style>
 </defs>
 <g id="Layer_x0020_1">
  <metadata id="CorelCorpID_0Corel-Layer"/>
  <path class="fil0 str0" d="M288 160c-1,-14 20,-24 36,-24 41,3 40,48 20,74 -52,40 -58,-4 -58,-41 -6,-17 37,-31 2,-76 -20,-18 -35,-17 -56,-2 -18,12 -42,46 -13,58"/>
  <path class="fil0 str0" d="M297 115c-5,-9 19,-37 47,-9 9,7 19,32 4,40"/>
  <path class="fil0 str0" d="M202 163c-10,28 1,62 26,79 27,9 51,-3 69,-19 24,-36 -7,-65 -36,-81 -23,-15 -52,-6 -59,21z"/>
  <path class="fil0 str0" d="M211 147c-2,-5 -5,-9 -9,-13 -24,-19 -53,37 -44,64 2,6 8,11 14,9"/>
  <path class="fil0 str0" d="M202 203c-7,2 -14,4 -21,6 -7,1 -13,3 -17,9 -2,3 -2,7 -1,11 1,17 10,31 21,44 7,8 15,16 26,19 44,5 32,-35 35,-39 4,-1 -2,35 14,48 9,7 22,6 33,3 16,-2 32,-6 43,-17 10,-10 15,-25 16,-39 3,-19 -13,-26 -29,-24 -16,2 -61,21 -72,32"/>
  <path class="fil0 str0" d="M178 234c-12,-8 -44,7 -79,-15 -2,5 32,66 58,43 9,-2 10,-22 13,-23 5,2 7,7 12,8 -8,8 -11,20 -16,30 -10,25 -47,53 -39,86 8,11 20,20 34,21 25,0 47,-31 56,-51 9,-20 12,-63 15,-63 3,-2 12,52 38,74 24,24 60,32 93,38 7,2 15,3 21,-2 -13,-52 -58,-96 -111,-107"/>
 </g>
</svg>
