<?xml version="1.0" encoding="UTF-8"?>
<!DOCTYPE svg PUBLIC "-//W3C//DTD SVG 1.1//EN" "http://www.w3.org/Graphics/SVG/1.1/DTD/svg11.dtd">
<!-- Creator: CorelDRAW X8 -->
<svg xmlns="http://www.w3.org/2000/svg" xml:space="preserve" width="500px" height="500px" version="1.1" style="shape-rendering:geometricPrecision; text-rendering:geometricPrecision; image-rendering:optimizeQuality; fill-rule:evenodd; clip-rule:evenodd"
viewBox="0 0 500 500"
 xmlns:xlink="http://www.w3.org/1999/xlink">
 <defs>
  <style type="text/css">
   <![CDATA[
    .str0 {stroke:black;stroke-width:0.750048}
    .fil0 {fill:none}
   ]]>
  </style>
 </defs>
 <g id="Layer_x0020_1">
  <metadata id="CorelCorpID_0Corel-Layer"/>
  <path class="fil0 str0" d="M265 50c-5,62 28,224 16,243 -9,0 -14,-12 -18,-10 -2,5 9,27 -6,22 -11,-4 -17,-8 -12,5 -6,11 -14,1 -18,2 0,19 -9,8 -13,7 -19,6 -6,17 -46,28"/>
  <path class="fil0 str0" d="M294 160c3,72 75,129 134,159 -37,25 -92,-34 -96,-30 1,7 41,63 79,83 -58,22 -105,-48 -107,-44 14,40 11,93 -9,120 -37,-34 -26,-101 -29,-101 -4,-2 -19,60 -75,65 3,-59 63,-78 60,-83 -6,-2 -53,34 -88,22 -3,-33 35,-39 42,-71 -6,-98 57,-155 50,-242"/>
  <path class="fil0 str0" d="M289 103c-3,14 -8,222 31,170 3,2 0,7 -3,10 0,7 24,-11 34,-1 6,6 4,18 10,22 19,-14 14,14 25,11 6,0 4,-6 15,5 8,1 16,1 24,-3"/>
 </g>
</svg>
