<?xml version="1.0" encoding="UTF-8"?>
<!DOCTYPE svg PUBLIC "-//W3C//DTD SVG 1.1//EN" "http://www.w3.org/Graphics/SVG/1.1/DTD/svg11.dtd">
<!-- Creator: CorelDRAW X8 -->
<svg xmlns="http://www.w3.org/2000/svg" xml:space="preserve" width="500px" height="500px" version="1.1" style="shape-rendering:geometricPrecision; text-rendering:geometricPrecision; image-rendering:optimizeQuality; fill-rule:evenodd; clip-rule:evenodd"
viewBox="0 0 500 500"
 xmlns:xlink="http://www.w3.org/1999/xlink">
 <defs>
  <style type="text/css">
   <![CDATA[
    .str0 {stroke:black;stroke-width:1.00006}
    .fil0 {fill:none;fill-rule:nonzero}
   ]]>
  </style>
 </defs>
 <g id="Layer_x0020_1">
  <metadata id="CorelCorpID_0Corel-Layer"/>
  <path class="fil0 str0" d="M254 39c6,64 12,129 18,194 2,16 3,32 4,48 0,8 -1,17 -5,23 -6,-4 -13,-7 -19,-11 3,6 4,12 4,18 0,2 -1,4 -2,6 -3,2 -6,1 -9,0 -5,-2 -10,-3 -15,-5 0,4 1,8 2,11 0,2 0,4 -1,5 -1,0 -3,0 -4,0 -5,-1 -10,-3 -15,-4 0,3 1,5 0,8 -1,2 -3,5 -6,4 -2,0 -4,-3 -6,-3 -5,-1 -6,7 -10,11 -3,3 -8,4 -12,4 -11,2 -22,7 -30,15"/>
  <path class="fil0 str0" d="M285 159c1,18 5,35 13,51 9,19 22,35 36,50 28,30 62,54 98,72 -17,10 -39,8 -57,0 -18,-7 -33,-20 -48,-33 25,34 54,65 86,91 -44,11 -93,-9 -117,-48 16,43 13,92 -9,131 -28,-28 -31,-71 -32,-110 -14,36 -44,69 -82,71 7,-38 32,-72 66,-91 -33,7 -63,31 -96,24 -1,-10 3,-20 9,-29 6,-8 14,-14 21,-21 4,-4 9,-8 11,-13 2,-4 3,-9 4,-14 5,-37 7,-75 17,-111 9,-30 23,-58 31,-88 6,-21 8,-43 7,-65"/>
  <path class="fil0 str0" d="M280 97c-11,58 -1,116 10,174 0,4 1,8 3,11 5,6 16,6 21,0 1,4 0,8 -3,11 0,2 4,2 6,1 5,-2 10,-4 15,-5 6,-2 12,-1 16,3 6,6 4,19 11,24 4,-3 8,-6 12,-4 4,2 5,6 7,10 1,3 4,7 8,6 2,0 4,-3 7,-2 2,0 3,3 5,5 1,1 3,1 4,2 9,1 18,1 26,-3"/>
 </g>
</svg>
