<?xml version="1.0" encoding="UTF-8"?>
<!DOCTYPE svg PUBLIC "-//W3C//DTD SVG 1.1//EN" "http://www.w3.org/Graphics/SVG/1.1/DTD/svg11.dtd">
<!-- Creator: CorelDRAW X8 -->
<svg xmlns="http://www.w3.org/2000/svg" xml:space="preserve" width="500px" height="500px" version="1.1" style="shape-rendering:geometricPrecision; text-rendering:geometricPrecision; image-rendering:optimizeQuality; fill-rule:evenodd; clip-rule:evenodd"
viewBox="0 0 500 500"
 xmlns:xlink="http://www.w3.org/1999/xlink">
 <defs>
  <style type="text/css">
   <![CDATA[
    .str0 {stroke:black;stroke-width:1.00006}
    .fil0 {fill:none}
   ]]>
  </style>
 </defs>
 <g id="Layer_x0020_1">
  <metadata id="CorelCorpID_0Corel-Layer"/>
  <path class="fil0 str0" d="M206 285c-45,38 -107,59 -106,96 61,0 118,-34 157,-81 31,-36 -33,-25 -51,-15z"/>
  <path class="fil0 str0" d="M216 31c-17,51 -26,145 -17,185 9,34 48,33 44,31 -28,-15 -68,3 -98,-13 -46,-11 -49,-132 -57,-130 -14,58 -11,168 20,193 30,44 97,20 100,24 -58,34 -37,110 0,145 -4,-44 21,-63 34,-133 28,70 70,122 176,116 -11,-86 -93,-138 -91,-143 7,-10 74,-16 140,-11 -13,-32 -45,-56 -79,-64 -40,-8 -64,19 -96,-8 -55,-25 -22,-101 -76,-192z"/>
 </g>
</svg>
