<?xml version="1.0" encoding="utf-8"?>
<!-- Generator: Adobe Illustrator 19.0.0, SVG Export Plug-In . SVG Version: 6.00 Build 0)  -->
<svg version="1.1" id="Layer_1" xmlns="http://www.w3.org/2000/svg" xmlns:xlink="http://www.w3.org/1999/xlink" x="0px" y="0px"
	 viewBox="-55 147 500 500" style="enable-background:new -55 147 500 500;" xml:space="preserve">
<style type="text/css">
	.st0{fill:none;stroke:#000000;stroke-width:1.0001;}
</style>
<g id="Layer_x0020_1">
	<path class="st0" d="M126,483c-8,9-11,22-12,34c-2,10-2,22,4,31c8,13,26,16,42,17c11,0,23,0,34-3c11-4,21-12,24-23c3-10,1-22-3-32
		c-6-18-15-38-36-39C159,467,140,464,126,483z"/>
	<path class="st0" d="M160,394c-7,7-10,17-11,27c-2,11-2,24,5,32c10,11,26,12,41,12c9,0,19,0,27-6c4-4,7-9,10-15c13-25,11-43-14-58
		C201,376,173,380,160,394z"/>
	<path class="st0" d="M256,432c-12,7-24,16-32,27c-8,12-11,28-4,40c4,7,11,12,18,16c11,6,25,11,38,10s27-7,34-19c9-13,8-29,6-45
		c-1-8-2-17-6-24C297,414,274,421,256,432z"/>
	<path class="st0" d="M97,419c-5-1-11-1-16,0c-6,2-11,6-15,10c-6,7-9,15-10,24c0,9,3,17,9,24c9,8,23,11,35,8c14-4,40-20,39-37
		C138,430,111,421,97,419z"/>
	<path class="st0" d="M100,349c-12,7-22,20-19,34c1,6,5,11,8,15c8,9,17,17,29,16c9,0,17-7,24-13c11-12,28-35,13-50
		C143,337,114,342,100,349z"/>
	<path class="st0" d="M171,367c11-12,27-19,44-20c6-14,9-30,8-45c-24-4-49,11-71,1c-3-1-5-3-6-5s-1-4-2-6c0-6-2-11-5-16"/>
	<path class="st0" d="M148,305c-1-1-2-1-2-1c-4,4-8,7-12,11"/>
	<path class="st0" d="M219,304c5-15,10-30,14-45c3-9,6-17,6-26"/>
	<path class="st0" d="M216,336c6,10,19,15,27,24c3,4,6,8,8,12c4,6,8,12,10,18c3,9,5,18,4,26"/>
	<path class="st0" d="M146,509l25,23c0,0,1,1,1,0c1,0,1-1,1-1"/>
	<path class="st0" d="M150,532c6-10,12-20,18-28"/>
	<path class="st0" d="M277,481c1,9,1,19,1,28c2,0,2-3,3-5l3-21c8.3,1.7,17.9,2.6,26.6,1.2c1.4-0.2,1.4-2.2,0-2.5
		c-6.7-1.3-15.8-2.6-19.7-5.7c-4-4,0-9-6-10c-4-1-11,5-14,7c-5.6,2.4-11.1,2.6-16.8,4.3c-0.8,0.3-0.6,1.5,0.3,1.4
		C262.3,478.4,277,477.9,277,481z"/>
	<path class="st0" d="M204,407c-1,12-5,38-4,38"/>
	<path class="st0" d="M174,434c16-2,33-5,49-9"/>
	<path class="st0" d="M93,448c0-1-1-2-2-1c-3,7-6,14-9,21"/>
	<path class="st0" d="M77,453c9,2,18,4,27,6"/>
	<path class="st0" d="M103,360c-3,9-4,19-4,29"/>
	<path class="st0" d="M89,373c8,1,15,1,22,1"/>
</g>
</svg>
