<?xml version="1.0" encoding="UTF-8"?>
<!DOCTYPE svg PUBLIC "-//W3C//DTD SVG 1.1//EN" "http://www.w3.org/Graphics/SVG/1.1/DTD/svg11.dtd">
<!-- Creator: CorelDRAW X8 -->
<svg xmlns="http://www.w3.org/2000/svg" xml:space="preserve" width="500px" height="500px" version="1.1" style="shape-rendering:geometricPrecision; text-rendering:geometricPrecision; image-rendering:optimizeQuality; fill-rule:evenodd; clip-rule:evenodd"
viewBox="0 0 500 500"
 xmlns:xlink="http://www.w3.org/1999/xlink">
 <defs>
  <style type="text/css">
   <![CDATA[
    .str0 {stroke:black;stroke-width:1.00006}
    .fil0 {fill:none;fill-rule:nonzero}
   ]]>
  </style>
 </defs>
 <g id="Layer_x0020_1">
  <metadata id="CorelCorpID_0Corel-Layer"/>
  <path class="fil0 str0" d="M120 369c-18,-28 -35,-56 -43,-88 -2,-11 -4,-22 -1,-33 4,-18 19,-31 33,-42 25,-18 51,-35 79,-48 14,-7 28,-13 38,-24 15,-15 22,-37 38,-51 6,8 4,19 10,27 4,5 11,8 17,10 27,10 52,22 75,38 17,12 34,25 44,43 7,14 10,29 13,44 6,47 1,96 -24,137 -8,13 -18,24 -28,36 -14,17 -29,35 -47,49 -43,-15 -90,-20 -136,-13 -6,1 -14,2 -18,-3 -1,-1 -2,-3 -3,-5 -5,-13 -10,-26 -19,-38 -9,-12 -21,-25 -28,-39z"/>
  <path class="fil0 str0" d="M320 471c-3,-4 0,-9 1,-14 2,-7 -2,-13 -6,-19 -13,-18 -32,-33 -54,-40 5,-10 13,-17 23,-22 10,-4 22,-5 32,-10 14,-6 25,-19 32,-33 7,-15 10,-30 14,-46 1,-7 3,-14 4,-20 4,-20 9,-40 8,-60 -1,-20 -8,-41 -22,-55"/>
  <path class="fil0 str0" d="M154 364c-6,-14 -11,-29 -8,-44 1,-3 1,-5 3,-6 3,-3 7,-2 11,-1 16,5 33,11 43,24 8,10 10,23 11,36 2,12 7,68 -18,51 -19,-13 -34,-39 -42,-60z"/>
  <path class="fil0 str0" d="M228 376c-4,-20 -7,-40 -6,-61 2,-20 9,-41 23,-56 1,-1 3,-2 4,-2 3,-1 6,2 8,4 13,20 15,45 11,69 -4,23 -12,45 -15,69 -2,6 -4,36 -15,23 -8,-8 -8,-35 -10,-46z"/>
  <path class="fil0 str0" d="M293 316c-2,-26 -4,-52 -1,-77 1,-12 3,-23 9,-33 3,-6 8,-11 14,-13 6,-3 14,-1 17,5 2,3 2,7 3,11 0,30 -2,59 -8,88 -3,17 -11,54 -30,59 -3,-13 -3,-27 -4,-40z"/>
  <path class="fil0 str0" d="M163 318c-34,-12 -63,-36 -82,-66 -33,-53 -33,-120 -44,-182"/>
  <path class="fil0 str0" d="M163 321c16,-43 27,-88 33,-134 5,-41 5,-87 -21,-120 0,-1 -1,-3 -1,-4 1,-1 3,-1 3,1"/>
  <path class="fil0 str0" d="M244 298c-8,-9 -10,-21 -11,-32 -2,-15 -3,-29 -1,-44 2,-21 13,-41 20,-62 5,-17 9,-35 14,-53 8,-23 18,-46 32,-67"/>
  <path class="fil0 str0" d="M244 288c35,-49 70,-99 106,-149 12,-17 25,-35 34,-54 8,-20 13,-42 9,-63 1,-2 4,0 3,1"/>
  <path class="fil0 str0" d="M316 220c-4,-4 -3,-9 -1,-13 2,-4 6,-7 10,-9 24,-15 49,-29 71,-47 22,-18 41,-41 48,-68 1,-2 1,-4 3,-4 1,-1 3,2 2,2"/>
 </g>
</svg>
