<?xml version="1.0" encoding="UTF-8"?>
<!DOCTYPE svg PUBLIC "-//W3C//DTD SVG 1.1//EN" "http://www.w3.org/Graphics/SVG/1.1/DTD/svg11.dtd">
<!-- Creator: CorelDRAW X8 -->
<svg xmlns="http://www.w3.org/2000/svg" xml:space="preserve" width="500px" height="500px" version="1.1" style="shape-rendering:geometricPrecision; text-rendering:geometricPrecision; image-rendering:optimizeQuality; fill-rule:evenodd; clip-rule:evenodd"
viewBox="0 0 500 500"
 xmlns:xlink="http://www.w3.org/1999/xlink">
 <defs>
  <style type="text/css">
   <![CDATA[
    .str0 {stroke:black;stroke-width:1.00006}
    .fil0 {fill:none}
   ]]>
  </style>
 </defs>
 <g id="Layer_x0020_1">
  <metadata id="CorelCorpID_0Corel-Layer"/>
  <path class="fil0 str0" d="M242 39c-4,4 6,5 4,8 -6,5 -15,9 -24,6 -2,4 17,13 30,14 1,2 -18,4 -21,9 2,4 8,4 11,6 -4,5 -19,9 -37,4 -1,4 33,14 34,17 0,1 -26,0 -31,4 1,3 22,4 29,15 -2,4 -15,3 -31,8 3,4 25,9 16,17 -8,11 -17,2 -20,6 6,9 15,12 13,14 -6,4 -17,-2 -27,5l9 9c-12,1 -23,-4 -33,-4 -1,3 22,23 44,30 -1,3 -34,-2 -45,1 9,9 34,19 35,24 -20,3 -40,-2 -53,-20 -4,2 18,56 63,51 0,4 -53,9 -54,10 -3,7 60,-3 40,18 -16,18 -40,29 -64,29 21,11 45,-5 67,-3 -34,47 -101,35 -104,41 56,33 127,-13 129,-12 -4,11 -69,35 -69,36 37,-3 77,-14 102,-42 21,27 58,38 92,46 2,-2 -41,-30 -51,-48 7,-7 29,26 65,19 3,-3 -34,-37 -30,-41 25,15 74,20 80,16l-67 -39c1,-4 32,14 56,6 2,-2 -2,-5 -4,-7 -26,-14 -62,-16 -76,-47 2,-4 19,18 46,15 -19,-24 -53,-49 -52,-57 20,4 34,12 37,10 2,-1 -15,-26 -40,-37 -3,-4 16,2 14,-4 1,-16 -22,-21 -26,-36 2,-2 18,-2 17,-5 -7,-4 -8,-15 -19,-20 2,-6 0,-13 -4,-17 10,-9 -4,-14 -3,-18 11,3 9,-14 5,-21 -4,-11 -13,-43 -27,-33 -6,3 -26,17 -26,17z"/>
  <path class="fil0 str0" d="M270 81c-27,120 -2,280 -26,400"/>
 </g>
</svg>
