<?xml version="1.0" encoding="UTF-8"?>
<!DOCTYPE svg PUBLIC "-//W3C//DTD SVG 1.1//EN" "http://www.w3.org/Graphics/SVG/1.1/DTD/svg11.dtd">
<!-- Creator: CorelDRAW X8 -->
<svg xmlns="http://www.w3.org/2000/svg" xml:space="preserve" width="500px" height="500px" version="1.1" style="shape-rendering:geometricPrecision; text-rendering:geometricPrecision; image-rendering:optimizeQuality; fill-rule:evenodd; clip-rule:evenodd"
viewBox="0 0 500 500"
 xmlns:xlink="http://www.w3.org/1999/xlink">
 <defs>
  <style type="text/css">
   <![CDATA[
    .str0 {stroke:black;stroke-width:1.00006}
    .fil0 {fill:none;fill-rule:nonzero}
   ]]>
  </style>
 </defs>
 <g id="Layer_x0020_1">
  <metadata id="CorelCorpID_0Corel-Layer"/>
  <path class="fil0 str0" d="M249 106c-7,-2 -14,-4 -22,-3 -13,1 -24,9 -32,19 -8,11 -12,24 -16,36 -16,54 -25,110 -33,166 -2,10 -3,19 -3,29 -1,40 21,77 47,108 15,-9 30,-18 41,-31 24,-27 28,-65 35,-100 10,-49 27,-97 19,-146 -2,-14 -6,-26 -10,-39 -5,-16 -12,-34 -28,-37 53,-21 107,-39 161,-55"/>
  <path class="fil0 str0" d="M276 100c2,3 3,7 5,10 4,9 8,17 11,26 12,27 21,56 42,77"/>
  <path class="fil0 str0" d="M307 89c-1,-1 0,-3 1,-3 2,7 3,15 4,22 4,28 12,56 25,81"/>
  <path class="fil0 str0" d="M283 96c0,-2 0,-3 0,-4 -7,0 -13,-3 -18,-6 -26,-14 -53,-25 -81,-34"/>
  <path class="fil0 str0" d="M298 93c-20,-18 -42,-35 -64,-50"/>
  <path class="fil0 str0" d="M327 79c-18,-16 -42,-24 -63,-35 -4,-2 -7,-4 -9,-8"/>
  <path class="fil0 str0" d="M342 74c3,38 13,76 29,110"/>
  <path class="fil0 str0" d="M374 72c-1,-1 -1,-3 -1,-4 2,2 3,5 2,8 -1,35 2,70 9,105"/>
  <path class="fil0 str0" d="M368 59c-6,-2 -12,-3 -18,-4 -16,-2 -31,-11 -48,-15 -3,-1 -6,-1 -10,-1"/>
  <path class="fil0 str0" d="M391 66c0,-1 -1,-1 -2,-1 5,25 2,53 13,77"/>
  <path class="fil0 str0" d="M391 57c-9,-9 -16,-18 -23,-28"/>
 </g>
</svg>
