<?xml version="1.0" encoding="utf-8"?>
<!-- Generator: Adobe Illustrator 19.0.0, SVG Export Plug-In . SVG Version: 6.00 Build 0)  -->
<svg version="1.1" id="Layer_1" xmlns="http://www.w3.org/2000/svg" xmlns:xlink="http://www.w3.org/1999/xlink" x="0px" y="0px"
	 viewBox="-55 147 500 500" style="enable-background:new -55 147 500 500;" xml:space="preserve">
<style type="text/css">
	.st0{fill:none;stroke:#000000;stroke-width:1.0001;}
</style>
<g id="Layer_x0020_1">
	<path class="st0" d="M114,342c-11,5-17,19-16,31c0,7,2,15,7,21c5,5,13,8,20,7s13-8,13-16c-6,5-15,5-20,0s-6-14-2-20c3-4,8-6,13-7
		c3-1,7,0,10,1c6,3,10,11,10,19c-1,19-17,34-26,51c-7,14-8,31-5,47c2,12,8,25,17,34c10,8,22,13,35,15c12,1,25-1,37-4
		c10-2,20-6,27-14c4-6,6-12,7-19c4-28-8-56-23-81c-6-11-14-22-15-35c0-4,1-8,5-11s12,1,13,7c2,5,0,11-2,17c-1,2-2,4-2,6c0,1,1,2,1,3
		c2,3,4,5,7,8c2,1,4,2,6,2c2-1,3-3,4-5c3-8,6-16,8-25c3-10,3-23-4-31c-6-5-14-7-21-7c-9-1-18,0-26,3c-4,1-7,3-10,5c-6,4-9,11-11,18
		c-0.8,5.6,0,12-0.4,17.9c-0.1,0.8-1.2,0.9-1.4,0.2c-1.5-5.2-4.8-14-6.2-19c-3-7-4-10-10-14C142,340,127,335,114,342z"/>
	<path class="st0" d="M146,336c-2-34,7-69,23-98"/>
	<path class="st0" d="M155,335c-1,1-2,2-1,3c1,0,2-1,2-3c1-42,29-82,68-100c1,0,4,1,3,2"/>
	<path class="st0" d="M164,347c2-13,10-25,18-36c24-32,56-60,95-72"/>
	<path class="st0" d="M180,341c2-2,3-3,5-5c36-36,82-63,131-78"/>
	<path class="st0" d="M210,330c27-13,58-20,88-19"/>
</g>
</svg>
