<?xml version="1.0" encoding="UTF-8"?>
<!DOCTYPE svg PUBLIC "-//W3C//DTD SVG 1.1//EN" "http://www.w3.org/Graphics/SVG/1.1/DTD/svg11.dtd">
<!-- Creator: CorelDRAW X8 -->
<svg xmlns="http://www.w3.org/2000/svg" xml:space="preserve" width="500px" height="500px" version="1.1" style="shape-rendering:geometricPrecision; text-rendering:geometricPrecision; image-rendering:optimizeQuality; fill-rule:evenodd; clip-rule:evenodd"
viewBox="0 0 500 500"
 xmlns:xlink="http://www.w3.org/1999/xlink">
 <defs>
  <style type="text/css">
   <![CDATA[
    .str0 {stroke:black;stroke-width:1.00006}
    .fil0 {fill:none;fill-rule:nonzero}
   ]]>
  </style>
 </defs>
 <g id="Layer_x0020_1">
  <metadata id="CorelCorpID_0Corel-Layer"/>
  <path class="fil0 str0" d="M169 195c-11,5 -17,19 -16,31 0,7 2,15 7,21 5,5 13,8 20,7 7,-1 13,-8 13,-16 -6,5 -15,5 -20,0 -5,-5 -6,-14 -2,-20 3,-4 8,-6 13,-7 3,-1 7,0 10,1 6,3 10,11 10,19 -1,19 -17,34 -26,51 -7,14 -8,31 -5,47 2,12 8,25 17,34 10,8 22,13 35,15 12,1 25,-1 37,-4 10,-2 20,-6 27,-14 4,-6 6,-12 7,-19 4,-28 -8,-56 -23,-81 -6,-11 -14,-22 -15,-35 0,-4 1,-8 5,-11 4,-3 12,1 13,7 2,5 0,11 -2,17 -1,2 -2,4 -2,6 0,1 1,2 1,3 2,3 4,5 7,8 2,1 4,2 6,2 2,-1 3,-3 4,-5 3,-8 6,-16 8,-25 3,-10 3,-23 -4,-31 -6,-5 -14,-7 -21,-7 -9,-1 -18,0 -26,3 -4,1 -7,3 -10,5 -6,4 -9,11 -11,18 -1,7 -1,15 -1,22 0,-7 -5,-16 -7,-23 -3,-7 -4,-10 -10,-14 -11,-7 -26,-12 -39,-5z"/>
  <path class="fil0 str0" d="M201 189c-2,-34 7,-69 23,-98"/>
  <path class="fil0 str0" d="M210 188c-1,1 -2,2 -1,3 1,0 2,-1 2,-3 1,-42 29,-82 68,-100 1,0 4,1 3,2"/>
  <path class="fil0 str0" d="M219 200c2,-13 10,-25 18,-36 24,-32 56,-60 95,-72"/>
  <path class="fil0 str0" d="M235 194c2,-2 3,-3 5,-5 36,-36 82,-63 131,-78"/>
  <path class="fil0 str0" d="M265 183c27,-13 58,-20 88,-19"/>
 </g>
</svg>
