<?xml version="1.0" encoding="UTF-8"?>
<!DOCTYPE svg PUBLIC "-//W3C//DTD SVG 1.1//EN" "http://www.w3.org/Graphics/SVG/1.1/DTD/svg11.dtd">
<!-- Creator: CorelDRAW X8 -->
<svg xmlns="http://www.w3.org/2000/svg" xml:space="preserve" width="500px" height="500px" version="1.1" style="shape-rendering:geometricPrecision; text-rendering:geometricPrecision; image-rendering:optimizeQuality; fill-rule:evenodd; clip-rule:evenodd"
viewBox="0 0 500 500"
 xmlns:xlink="http://www.w3.org/1999/xlink">
 <defs>
  <style type="text/css">
   <![CDATA[
    .str0 {stroke:black;stroke-width:1.00006}
    .fil0 {fill:none;fill-rule:nonzero}
   ]]>
  </style>
 </defs>
 <g id="Layer_x0020_1">
  <metadata id="CorelCorpID_0Corel-Layer"/>
  <path class="fil0 str0" d="M135 216c-1,-11 0,-24 -7,-33 -2,-3 -5,-6 -9,-7 -4,-1 -9,0 -14,2 -12,7 -22,23 -16,36 4,8 12,14 21,17 8,4 17,6 25,11 1,1 2,2 3,4 2,4 -4,8 -8,10 -5,2 -11,5 -16,7 -3,1 -5,2 -7,2 -9,-1 -12,-12 -19,-16 -4,-2 -10,-1 -15,2 -4,3 -7,7 -10,12 -4,6 -8,14 -10,21 -2,7 -4,14 -2,21 4,15 22,22 37,17 14,-5 24,-17 31,-31 5,-9 9,-20 19,-24 7,7 8,18 5,28 -3,9 -9,18 -13,27 -5,9 -8,19 -6,28 1,9 8,17 15,21 8,4 17,6 26,5 6,0 12,-1 17,-5 8,-6 11,-18 10,-29 -1,-14 -6,-28 -15,-40 -6,-7 -14,-14 -14,-23 7,8 14,15 23,21 9,5 20,8 30,6 11,-3 20,-12 26,-22 5,-9 9,-20 3,-29 -5,-6 -14,-9 -22,-9 -14,-1 -30,3 -36,16 -1,2 -2,5 -4,6 -2,1 -3,1 -5,0 -6,-1 -12,-5 -13,-11 0,-6 5,-11 10,-14 13,-10 25,-22 36,-34 5,-6 10,-12 13,-20 2,-7 1,-16 -4,-22 -5,-6 -14,-7 -22,-7 -9,1 -19,4 -24,12 -7,11 -2,25 -2,38 0,11 -6,30 -17,35 -14,5 -19,-19 -20,-29z"/>
  <path class="fil0 str0" d="M305 184c-13,-3 -28,-2 -40,5 -11,6 -20,20 -19,33 1,5 2,9 4,12 6,8 17,11 27,10 10,-2 19,-7 27,-12 9,-5 18,-10 28,-11 2,0 5,0 6,2 3,2 3,6 1,9 -4,9 -15,13 -23,19 -12,9 -18,23 -23,37 -4,10 -7,21 -3,32 5,13 20,22 35,20 14,-2 26,-14 31,-27 6,-14 4,-29 -1,-43 -3,-7 -7,-15 -5,-22 0,-3 1,-5 3,-7 3,-2 8,-1 11,1 4,4 6,11 6,17 0,7 -1,13 0,19 2,12 12,21 24,22 11,2 23,-3 31,-12 7,-9 10,-21 9,-33 0,-6 -2,-12 -6,-16 -9,-11 -26,-10 -39,-7 -3,1 -6,1 -9,1 -3,-1 -6,-4 -6,-7 0,-5 6,-7 11,-7 9,0 17,1 25,0 8,-1 17,-4 22,-10 5,-7 6,-17 5,-26 -2,-10 -5,-19 -10,-28 -4,-9 -11,-17 -20,-18 -13,-2 -23,11 -26,24 -4,12 -3,26 -7,38 0,2 -2,5 -4,6 -3,0 -6,-2 -7,-5 -3,-7 0,-16 3,-23 4,-9 7,-19 8,-29 0,-10 -3,-21 -11,-27 -9,-8 -24,-7 -33,1 -10,7 -14,20 -13,32 2,12 9,22 18,30 4,4 17,15 3,13 -11,-1 -22,-11 -33,-13z"/>
 </g>
</svg>
