<?xml version="1.0" encoding="UTF-8"?>
<!DOCTYPE svg PUBLIC "-//W3C//DTD SVG 1.1//EN" "http://www.w3.org/Graphics/SVG/1.1/DTD/svg11.dtd">
<!-- Creator: CorelDRAW X8 -->
<svg xmlns="http://www.w3.org/2000/svg" xml:space="preserve" width="500px" height="500px" version="1.1" style="shape-rendering:geometricPrecision; text-rendering:geometricPrecision; image-rendering:optimizeQuality; fill-rule:evenodd; clip-rule:evenodd"
viewBox="0 0 500 500"
 xmlns:xlink="http://www.w3.org/1999/xlink">
 <defs>
  <style type="text/css">
   <![CDATA[
    .str0 {stroke:black;stroke-width:1.00006}
    .fil0 {fill:none}
   ]]>
  </style>
 </defs>
 <g id="Layer_x0020_1">
  <metadata id="CorelCorpID_0Corel-Layer"/>
  <path class="fil0 str0" d="M163 93c-3,33 45,47 64,12 5,-9 5,-22 -3,-29 -7,-7 -22,-9 -31,-11 -16,-3 -28,14 -30,28z"/>
  <path class="fil0 str0" d="M252 159c13,18 51,27 59,3 7,-16 14,-59 -13,-59 -28,0 -65,24 -46,56z"/>
  <path class="fil0 str0" d="M193 203c-33,24 -14,44 21,49 13,0 19,-4 19,-18 3,-25 -24,-42 -40,-31z"/>
  <path class="fil0 str0" d="M272 291c10,8 22,15 35,14 37,-3 31,-49 4,-63 -26,-13 -67,26 -39,49z"/>
  <path class="fil0 str0" d="M225 350c-13,8 -26,25 -22,41 9,25 50,32 73,29 39,-11 15,-58 10,-82 -11,-19 -49,3 -61,12z"/>
  <path class="fil0 str0" d="M237 341c24,28 40,55 42,83"/>
  <path class="fil0 str0" d="M184 213c13,-13 31,14 38,31"/>
  <path class="fil0 str0" d="M257 170c2,-8 22,-21 45,-27"/>
  <path class="fil0 str0" d="M192 93c2,13 7,23 17,30"/>
  <path class="fil0 str0" d="M279 302c-3,-5 16,-20 48,-34"/>
  <path class="fil0 str0" d="M234 15c31,108 18,225 -7,335"/>
  <path class="fil0 str0" d="M228 415c-10,12 -18,47 -14,68"/>
  <path class="fil0 str0" d="M259 92c17,-16 92,-52 138,-61"/>
  <path class="fil0 str0" d="M257 100c0,-12 53,-8 73,-14"/>
  <path class="fil0 str0" d="M259 88c12,-6 8,-29 16,-55"/>
  <path class="fil0 str0" d="M242 59c-5,6 -22,-17 -33,-14"/>
  <path class="fil0 str0" d="M245 210c-43,-32 -99,-38 -152,-41 -4,-1 -10,1 -9,5"/>
  <path class="fil0 str0" d="M231 308c-11,-13 -46,22 -69,21"/>
  <path class="fil0 str0" d="M251 251c8,-16 33,-40 79,-72"/>
  <path class="fil0 str0" d="M207 418c-15,-16 -40,-15 -60,-26"/>
 </g>
</svg>
