<?xml version="1.0" encoding="UTF-8"?>
<!DOCTYPE svg PUBLIC "-//W3C//DTD SVG 1.1//EN" "http://www.w3.org/Graphics/SVG/1.1/DTD/svg11.dtd">
<!-- Creator: CorelDRAW X8 -->
<svg xmlns="http://www.w3.org/2000/svg" xml:space="preserve" width="500px" height="500px" version="1.1" style="shape-rendering:geometricPrecision; text-rendering:geometricPrecision; image-rendering:optimizeQuality; fill-rule:evenodd; clip-rule:evenodd"
viewBox="0 0 500 500"
 xmlns:xlink="http://www.w3.org/1999/xlink">
 <defs>
  <style type="text/css">
   <![CDATA[
    .str0 {stroke:black;stroke-width:0.750048}
    .fil0 {fill:none}
   ]]>
  </style>
 </defs>
 <g id="Layer_x0020_1">
  <metadata id="CorelCorpID_0Corel-Layer"/>
  <path class="fil0 str0" d="M203 73c-13,11 -22,28 -21,46 2,12 23,47 31,32 8,9 43,-3 52,-17 17,-30 -8,-46 -15,-63 -12,-13 -34,-9 -47,2z"/>
  <path class="fil0 str0" d="M208 153c9,184 -48,142 -70,225"/>
  <path class="fil0 str0" d="M219 155c-3,26 3,51 2,78 -1,60 -46,117 -32,180"/>
  <path class="fil0 str0" d="M233 149c0,40 10,65 7,100 -5,65 -27,92 -20,166"/>
  <path class="fil0 str0" d="M253 143c-3,48 13,94 10,141 -3,40 -19,86 -5,125"/>
  <path class="fil0 str0" d="M261 142c39,71 2,118 30,179 8,20 25,37 31,58"/>
 </g>
</svg>
