<?xml version="1.0" encoding="UTF-8"?>
<!DOCTYPE svg PUBLIC "-//W3C//DTD SVG 1.1//EN" "http://www.w3.org/Graphics/SVG/1.1/DTD/svg11.dtd">
<!-- Creator: CorelDRAW X8 -->
<svg xmlns="http://www.w3.org/2000/svg" xml:space="preserve" width="500px" height="500px" version="1.1" style="shape-rendering:geometricPrecision; text-rendering:geometricPrecision; image-rendering:optimizeQuality; fill-rule:evenodd; clip-rule:evenodd"
viewBox="0 0 500 500"
 xmlns:xlink="http://www.w3.org/1999/xlink">
 <defs>
  <style type="text/css">
   <![CDATA[
    .str0 {stroke:black;stroke-width:1.00006}
    .fil1 {fill:none;fill-rule:nonzero}
    .fil0 {fill:black;fill-rule:nonzero}
   ]]>
  </style>
 </defs>
 <g id="Layer_x0020_1">
  <metadata id="CorelCorpID_0Corel-Layer"/>
  <path class="fil0" d="M209 136c0,0 0,0 0,0 -3,1 -4,4 -4,6 -2,19 0,43 9,60 3,2 5,4 8,7 1,0 3,-1 4,-2 11,-23 6,-52 -13,-69 -1,-1 -2,-2 -4,-2zm76 -1c-9,1 -17,7 -23,14 -6,7 -10,15 -15,23 -2,5 -12,28 -21,35 0,1 -1,3 -2,4 -1,-1 -2,-2 -2,-2 0,0 0,0 0,0 -3,0 -5,-2 -7,-5 0,-1 -1,-1 -1,-2 -10,-7 -22,-12 -34,-14 -16,-4 -33,-4 -50,-8 5,11 12,20 21,28 5,4 11,8 17,10 5,1 11,2 16,2 13,0 27,-4 40,-4 1,0 2,0 3,0 -38,10 -72,32 -97,62 -1,1 -2,3 0,4 0,0 0,0 1,0 0,0 0,0 1,0 19,-3 40,-6 57,-15 10,-5 18,-12 26,-19 1,-1 3,-3 4,-4 2,-4 5,-7 8,-10 -2,4 -5,7 -8,10 -6,10 -9,23 -8,35 1,16 8,31 18,45 2,-5 6,-8 9,-12 17,-18 21,-47 9,-68 -1,-1 -2,-3 -3,-4 1,1 2,3 3,4 17,24 43,40 72,43 3,-7 7,-16 4,-23 -2,-7 -7,-11 -13,-14 -13,-8 -27,-14 -42,-17 -7,0 -13,-1 -20,-2 7,0 14,1 20,2 1,0 1,0 2,0 22,0 43,-6 62,-17 2,-1 4,-3 5,-5 0,-4 -4,-5 -7,-6 -12,-3 -24,-5 -36,-5 -19,0 -39,4 -56,12 0,0 -1,0 -1,1 0,-1 1,-1 1,-1 16,-7 33,-16 41,-32 5,-8 6,-17 7,-25 0,-7 0,-13 -1,-20zm-76 2c1,0 3,1 4,2 18,16 23,45 13,67 -2,1 -3,1 -4,2 -2,-3 -4,-5 -7,-7 -10,-18 -11,-42 -9,-59 0,-1 1,-4 3,-5 0,0 0,0 0,0zm75 -1c1,6 1,12 1,18 -1,10 -3,19 -7,26 -8,15 -24,24 -41,31l0 1 1 1 0 0c17,-8 37,-12 56,-12 12,0 24,2 36,5 2,0 6,2 6,5 -1,1 -3,3 -4,4 -19,11 -40,17 -62,17 -1,0 -1,0 -2,0 -6,-1 -13,-2 -20,-2l0 2c6,1 13,2 20,2 15,3 29,9 42,16 4,4 10,8 12,14 3,7 0,14 -4,22 -28,-4 -54,-19 -70,-42 -1,-2 -2,-3 -3,-5l-1 1c0,2 1,3 2,5 12,20 8,48 -8,66 -1,1 -2,2 -3,3 -2,2 -5,5 -7,8 -9,-15 -15,-29 -16,-43 -1,-13 2,-25 8,-34 4,-4 6,-7 8,-10l4 -7 -5 5c-3,3 -6,6 -9,10 -1,1 -2,3 -4,4 -9,9 -17,15 -25,19 -18,9 -38,12 -58,15 0,0 0,0 0,0 -1,0 -1,0 -1,0 0,0 0,0 0,0 0,-1 0,-2 1,-3 25,-29 59,-51 96,-61l6 -2 -6 0c-1,0 -2,0 -3,0 -7,0 -14,1 -20,2 -7,1 -14,2 -20,2 -6,0 -11,-1 -15,-2 -6,-2 -11,-5 -17,-10 -8,-7 -15,-16 -20,-25 7,1 14,2 22,3 8,1 17,2 26,4 13,3 25,7 33,14 1,0 1,1 1,1 2,4 5,5 7,6 1,0 2,1 2,2l1 1 1 -1c1,-2 1,-3 2,-5 8,-6 15,-22 19,-30 1,-2 2,-4 2,-5 4,-8 9,-16 15,-23 6,-7 14,-11 21,-13z"/>
  <path class="fil1 str0" d="M239 228c-15,-12 -26,-28 -39,-43 -10,-12 -20,-24 -32,-34 4,1 7,-5 5,-9 -3,-3 -8,-3 -12,-1 -3,2 -5,5 -6,8 0,4 2,7 5,8 3,1 7,-1 7,-4"/>
 </g>
</svg>
