<?xml version="1.0" encoding="UTF-8"?>
<!DOCTYPE svg PUBLIC "-//W3C//DTD SVG 1.1//EN" "http://www.w3.org/Graphics/SVG/1.1/DTD/svg11.dtd">
<!-- Creator: CorelDRAW X8 -->
<svg xmlns="http://www.w3.org/2000/svg" xml:space="preserve" width="500px" height="500px" version="1.1" style="shape-rendering:geometricPrecision; text-rendering:geometricPrecision; image-rendering:optimizeQuality; fill-rule:evenodd; clip-rule:evenodd"
viewBox="0 0 500 500"
 xmlns:xlink="http://www.w3.org/1999/xlink">
 <defs>
  <style type="text/css">
   <![CDATA[
    .str0 {stroke:black;stroke-width:1.00006}
    .fil0 {fill:none}
   ]]>
  </style>
 </defs>
 <g id="Layer_x0020_1">
  <metadata id="CorelCorpID_0Corel-Layer"/>
  <path class="fil0 str0" d="M220 94c16,20 30,39 32,62 3,20 -14,51 -13,57 5,0 27,-115 131,-116 -51,101 -117,120 -117,125 6,5 62,-40 182,9 -60,20 -125,22 -185,3 -5,7 86,56 75,150 0,10 -9,16 -14,7 -36,-36 -80,-83 -74,-141 -11,4 -40,102 -79,137 -4,4 -7,1 -10,-2 -35,-96 76,-136 75,-144 -68,-2 -133,-45 -120,-78 31,14 74,14 101,33 10,5 20,21 25,22 -14,-26 -30,-74 -9,-124z"/>
 </g>
</svg>
