<?xml version="1.0" encoding="UTF-8"?>
<!DOCTYPE svg PUBLIC "-//W3C//DTD SVG 1.1//EN" "http://www.w3.org/Graphics/SVG/1.1/DTD/svg11.dtd">
<!-- Creator: CorelDRAW X8 -->
<svg xmlns="http://www.w3.org/2000/svg" xml:space="preserve" width="500px" height="500px" version="1.1" style="shape-rendering:geometricPrecision; text-rendering:geometricPrecision; image-rendering:optimizeQuality; fill-rule:evenodd; clip-rule:evenodd"
viewBox="0 0 500 500"
 xmlns:xlink="http://www.w3.org/1999/xlink">
 <defs>
  <style type="text/css">
   <![CDATA[
    .str0 {stroke:black;stroke-width:0.750048}
    .fil0 {fill:none}
   ]]>
  </style>
 </defs>
 <g id="Layer_x0020_1">
  <metadata id="CorelCorpID_0Corel-Layer"/>
  <path class="fil0 str0" d="M195 246c2,24 22,97 55,125 9,4 33,5 40,0 7,-4 14,-7 7,-20 3,-1 18,11 37,-3 8,-8 3,-15 -5,-22 -27,-24 -44,-58 -59,-91 -12,-25 -24,-52 -22,-79 1,-22 13,-44 13,-67 10,-35 -98,74 -66,157z"/>
  <path class="fil0 str0" d="M300 349c-36,4 -66,-142 -66,-161 -5,-29 -2,-41 10,-69 4,-11 7,-22 11,-33"/>
 </g>
</svg>
