<?xml version="1.0" encoding="utf-8"?>
<!-- Generator: Adobe Illustrator 19.0.0, SVG Export Plug-In . SVG Version: 6.00 Build 0)  -->
<svg version="1.1" id="Layer_1" xmlns="http://www.w3.org/2000/svg" xmlns:xlink="http://www.w3.org/1999/xlink" x="0px" y="0px"
	 viewBox="-55 147 500 500" style="enable-background:new -55 147 500 500;" xml:space="preserve">
<style type="text/css">
	.st0{fill:none;stroke:#000000;stroke-width:1.0001;}
</style>
<g id="Layer_x0020_1">
	<path class="st0" d="M91,172c0,0,0-1-1-1c-3,13-6,27-6,41"/>
	<path class="st0" d="M75,178c-1,0-2,0-3,1c0,2,0,3,0,4c0,11,1,22,2,33"/>
	<path class="st0" d="M53,199c3,12,8,24,14,35"/>
	<path class="st0" d="M104,186c-2,0-3,2-3,4c-3,13-6,26-9,40"/>
	<path class="st0" d="M120,195c-1,17-9,33-21,45"/>
	<path class="st0" d="M56,227c1,14,6,27,13,38"/>
	<path class="st0" d="M81,247c0,0-1-1-1,0c-1,0-1,1-1,1c0,10,1,19,5,28"/>
	<path class="st0" d="M109,252c-3,0-5,3-5,6c-2,10-5,19-7,29"/>
	<path class="st0" d="M121,260c-3,14-10,27-21,37"/>
	<path class="st0" d="M78,283c0,9,1,18,5,26"/>
	<path class="st0" d="M56,277c-1,0-2,1-2,1c0,1,0,2,1,3c5,9,10,18,15,26"/>
	<path class="st0" d="M45,309c7,8,16,15,25,20"/>
	<path class="st0" d="M84,325c0,0-2,0-2,1s0,2,1,3c4,7,9,13,15,18"/>
	<path class="st0" d="M122,311c-2-1-4,2-5,4c-3,6-5,12-6,18"/>
	<path class="st0" d="M132,335c-2-2-3,0-4,2c-3,8-7,16-10,24"/>
	<path class="st0" d="M74,341c-2,0-2,2-2,4c4,9,9,17,17,22"/>
	<path class="st0" d="M46,352c0-1-1,0-1,1c6,9,14,18,23,26"/>
	<path class="st0" d="M107,381c-1-1-3,0-4,1s-1,2-1,4c-1,6-1,12-2,18"/>
	<path class="st0" d="M143,377c-2,0-4,1-5,3l-25,27"/>
	<path class="st0" d="M82,393c0,9,2,17,7,24"/>
	<path class="st0" d="M57,403c4,10,11,19,21,23"/>
	<path class="st0" d="M45,433c7,7,16,13,26,17"/>
	<path class="st0" d="M89,433c-2-1-3,1-4,2c0,2,0,3,1,5c3,7,7,13,12,18"/>
	<path class="st0" d="M113,426c-1-1-4,0-5,2c-2,2-2,4-2,7c0,8,1,17,2,25"/>
	<path class="st0" d="M138,422c-2,0-2,3-3,4c-4,12-7,24-11,36"/>
	<path class="st0" d="M95,477c-2,8-3,15-3,23"/>
	<path class="st0" d="M66,470c-1-1-2,2-2,3c3,12,7,23,12,34"/>
	<path class="st0" d="M82,523c6,8,15,13,24,14"/>
	<path class="st0" d="M110,489c-2,0-2,2-2,4c-1,8,1,16,6,22"/>
	<path class="st0" d="M130,490c-1,0-2,0-3,0c0,11,1,21,4,31"/>
	<path class="st0" d="M111,541c7,6,14,11,23,15"/>
	<path class="st0" d="M110,562c10,6,21,9,33,10"/>
	<path class="st0" d="M146,540c5,5,11,11,17,16"/>
	<path class="st0" d="M151,575c-1,9-1,19-2,29"/>
	<path class="st0" d="M171,576c-3,11-6,22-8,33"/>
	<path class="st0" d="M180,578c0,11,0,22-1,33"/>
	<path class="st0" d="M196,574c6,9,14,18,23,25"/>
	<path class="st0" d="M212,559c9,7,20,12,31,15"/>
	<path class="st0" d="M185,546c-7-9-11-20-12-31"/>
	<path class="st0" d="M195,521c-1-3,1-6,3-9c4-6,9-12,13-18"/>
	<path class="st0" d="M181,503c-1-1-1-3-1-4c1-11,1-23,1-35"/>
	<path class="st0" d="M159,479c-1,1-2,2-4,2c-1-7-2-14-4-21"/>
	<path class="st0" d="M200,481c4-13,9-25,14-36"/>
	<path class="st0" d="M191,459c4-13,8-25,12-38"/>
	<path class="st0" d="M173,443c-4,0-5-5-5-8c0-6,1-13,2-19"/>
	<path class="st0" d="M221,423c-2,1-3-1-3-2s0-2,1-3l6-20"/>
	<path class="st0" d="M195,410c-1,0-2,0-3,1c3-9,4-19,3-28"/>
	<path class="st0" d="M185,388c-8-3-14-11-15-20"/>
	<path class="st0" d="M202,378c3-7,6-14,9-20"/>
	<path class="st0" d="M206,396c9-9,17-17,26-26"/>
	<path class="st0" d="M190,367c-3-2-5-6-6-10c-3-7-7-13-11-18"/>
	<path class="st0" d="M221,353c9-8,18-17,24-27"/>
	<path class="st0" d="M198,352c0,1-2,1-3,0c0-1,0-2,1-3c3-8,6-16,9-24"/>
	<path class="st0" d="M220,334c0-2,2-4,3-6c6-5,11-10,17-15"/>
	<path class="st0" d="M187,333c-2,0-3-1-5-1c6-9,6-21,2-31"/>
	<path class="st0" d="M211,309c-1,0-2-1-2-2c7-8,13-16,19-24"/>
	<path class="st0" d="M226,314c-1,1-1-1,0-2l23-18"/>
	<path class="st0" d="M193,302c-7-8-4-21-7-32"/>
	<path class="st0" d="M207,279c-1,0-3,0-4,0c0-11-1-22-2-33"/>
	<path class="st0" d="M234,275c3-10,8-18,15-25"/>
	<path class="st0" d="M247,293c-1-3,1-5,2-8l11-20"/>
	<path class="st0" d="M216,264c-2-4,1-8,3-12c5-9,11-19,16-28"/>
	<path class="st0" d="M206,224c0,0,0-1,0-2c10-10,20-21,28-32"/>
	<path class="st0" d="M244,234c-2,0-2-2-1-3c8-7,15-13,24-19"/>
	<path class="st0" d="M259,248c1-3,4-6,7-8c8-5,12-13,13-22"/>
	<path class="st0" d="M245,209l-2-1c10-6,19-14,26-23"/>
	<path class="st0" d="M277,194c0-1-1-2-2-3c6-3,11-8,14-14"/>
	<path class="st0" d="M252,183c-1-1-2-1-2-2c6-3,11-8,16-13"/>
	<path class="st0" d="M227,440c1-2,3-4,4-6c6-8,11-16,15-25"/>
	<path class="st0" d="M234,450c-2-1,0-4,1-5c8-4,15-8,23-12"/>
	<path class="st0" d="M227,463c9,2,18,5,27,8"/>
	<path class="st0" d="M263,455c7-3,15-6,22-9"/>
	<path class="st0" d="M264,440c3-8,10-14,18-15"/>
	<path class="st0" d="M249,423c-2,0-3,0-4,0c6-2,12-7,16-13"/>
	<path class="st0" d="M261,399c3-10,7-20,11-30"/>
	<path class="st0" d="M277,410c8-7,16-16,21-26"/>
	<path class="st0" d="M295,425c9-3,17-9,23-16"/>
	<path class="st0" d="M297,445c-1-1,0-2,1-3c8-4,17-9,25-13"/>
	<path class="st0" d="M276,465c-2-2,1-3,3-3c8-1,16-1,24-2"/>
	<path class="st0" d="M307,403c3-10,9-19,17-25"/>
	<path class="st0" d="M294,372c0-3,1-6,2-8c4-8,8-16,12-25"/>
	<path class="st0" d="M325,358c-1-8,1-15,5-21"/>
	<path class="st0" d="M333,392c-1-1-1-1-1-2c9-5,16-13,19-23"/>
	<path class="st0" d="M329,420c1-2,2-3,3-4c7-4,13-9,20-14"/>
	<path class="st0" d="M338,365c5-9,11-17,17-25"/>
	<path class="st0" d="M339,335c4-6,6-15,3-23"/>
	<path class="st0" d="M316,340c2-10,4-21,5-31"/>
	<path class="st0" d="M362,320c2-10-1-20-8-27"/>
	<path class="st0" d="M336,312c-2-1-2-3-2-4c0-11,4-21,10-29"/>
	<path class="st0" d="M369,297c0-9-1-18-2-27"/>
	<path class="st0" d="M355,275c-1,1-2,1-2,0c-1-1-1-2-1-3c1-3,1-7,2-10"/>
	<path class="st0" d="M323,290c-2,0-2-4-1-7c5-12,11-24,21-32"/>
	<path class="st0" d="M374,268c3-9,3-19,0-27"/>
	<path class="st0" d="M380,305c0-9,1-18,2-27"/>
	<path class="st0" d="M362,350c1,0-1,1-1,0c0,0,0-1,1-1c5-7,9-14,10-22"/>
	<path class="st0" d="M362,375c6-6,10-14,12-22"/>
	<path class="st0" d="M358,392c5,3,12-1,16-5c4-5,7-11,12-15"/>
	<path class="st0" d="M379,350c6-4,9-11,8-18c0-9-4-17-1-25"/>
	<path class="st0" d="M395,296c3-12,3-24-1-36"/>
	<path class="st0" d="M386,240c-2-7-4-14-8-20"/>
	<path class="st0" d="M355,251c-2-1-2-3-2-5c1-7,2-15,3-22"/>
	<path class="st0" d="M365,224c-1,0-2-1-2-2c0-5,0-10,0-15"/>
	<path class="st0" d="M342,233c-1-1-1-3-1-4c2-9,6-18,12-25"/>
	<path class="st0" d="M378,205c-2-10-4-20-4-29"/>
	<path class="st0" d="M195,562c-1-7,1-14,5-20s9-11,14-16"/>
</g>
</svg>
