<?xml version="1.0" encoding="UTF-8"?>
<!DOCTYPE svg PUBLIC "-//W3C//DTD SVG 1.1//EN" "http://www.w3.org/Graphics/SVG/1.1/DTD/svg11.dtd">
<!-- Creator: CorelDRAW X8 -->
<svg xmlns="http://www.w3.org/2000/svg" xml:space="preserve" width="500px" height="500px" version="1.1" style="shape-rendering:geometricPrecision; text-rendering:geometricPrecision; image-rendering:optimizeQuality; fill-rule:evenodd; clip-rule:evenodd"
viewBox="0 0 500 500"
 xmlns:xlink="http://www.w3.org/1999/xlink">
 <defs>
  <style type="text/css">
   <![CDATA[
    .str0 {stroke:black;stroke-width:1.00006}
    .fil0 {fill:none;fill-rule:nonzero}
   ]]>
  </style>
 </defs>
 <g id="Layer_x0020_1">
  <metadata id="CorelCorpID_0Corel-Layer"/>
  <path class="fil0 str0" d="M364 280c-17,-4 -26,-22 -32,-37 -6,-16 -14,-34 -31,-38 -7,-2 -14,-1 -21,-4 -12,-4 -16,-18 -19,-30 -8,-31 -15,-61 -23,-92 -3,-11 -6,-23 -14,-31 -7,-7 -16,-11 -21,-19 -2,-3 -3,-7 -6,-10 -3,-3 -8,-5 -11,-2"/>
  <path class="fil0 str0" d="M212 41c-10,-2 -20,2 -26,10 -3,3 -5,8 -8,11 -3,4 -7,6 -10,8 -5,3 -10,5 -15,4 -5,0 -10,-2 -13,-7"/>
  <path class="fil0 str0" d="M362 284c0,0 -1,-1 -2,0 -24,9 -39,36 -64,44 -20,7 -43,1 -56,-15 -18,-22 -15,-55 -27,-81 -1,-2 -3,-4 -5,-5 -2,-2 -5,-2 -8,-1l-19 1c-1,0 -3,0 -4,0 -2,-2 -2,-5 -1,-8 3,-13 9,-25 17,-36 11,-16 28,-28 37,-46 4,-7 7,-16 10,-24 5,-19 11,-39 17,-58 1,-1 1,-3 0,-5 -1,-2 -4,-2 -4,0"/>
  <path class="fil0 str0" d="M175 229c-2,0 -5,0 -8,0 -5,0 -9,-3 -12,-7 -12,-13 -13,-32 -14,-49 0,-18 -1,-37 -13,-50 0,0 -1,0 -1,1 0,1 1,1 1,0"/>
  <path class="fil0 str0" d="M231 316c-7,-4 -15,-8 -23,-10 -8,-1 -18,0 -24,6 -4,4 -6,10 -10,14 -3,3 -6,4 -10,6 -8,5 -15,10 -22,16 -5,4 -10,9 -16,12 -12,5 -28,1 -35,-11"/>
  <path class="fil0 str0" d="M359 285c-17,17 -32,37 -43,58 -9,16 -17,32 -31,43 -20,15 -48,13 -71,3 -14,-7 -27,-16 -43,-17 -10,-1 -22,1 -27,-7 -1,-3 -2,-6 -2,-9 -2,-20 2,-42 -9,-59 -8,-11 -22,-17 -36,-18 -5,0 -10,1 -10,6"/>
  <path class="fil0 str0" d="M194 383c-12,6 -23,16 -32,27 -5,6 -10,14 -16,20 -10,9 -22,14 -34,19 -12,5 -25,10 -38,9 -13,-1 -25,-8 -36,-16"/>
  <path class="fil0 str0" d="M333 322c0,-2 3,-2 5,-1 11,8 18,23 18,37 0,14 -6,28 -16,39 -8,8 -18,15 -23,25 -9,16 -3,35 -7,52"/>
  <path class="fil0 str0" d="M327 416c4,7 13,7 22,8 11,2 23,7 32,14 3,3 6,5 7,9"/>
  <path class="fil0 str0" d="M355 380c12,-4 24,-5 35,-4 8,1 15,3 22,4 4,2 8,3 13,2"/>
  <path class="fil0 str0" d="M333 252c13,-24 43,-35 52,-61 3,-9 2,-19 1,-28 -2,-19 -7,-38 -15,-55 -4,-10 -9,-19 -11,-29 -3,-10 -2,-22 5,-29"/>
  <path class="fil0 str0" d="M378 143c-1,-5 -7,-8 -12,-8 -5,-1 -10,1 -15,2 -11,1 -23,-4 -32,-11 -8,-8 -14,-19 -17,-30"/>
  <path class="fil0 str0" d="M341 137c0,-8 -1,-16 -3,-23 -1,-2 -1,-4 -3,-6 -2,-2 -5,-2 -8,-2 -17,1 -32,13 -44,27 -11,12 -20,27 -27,42 -4,8 -8,16 -15,22 -11,9 -29,6 -40,-4 -12,-9 -18,-23 -25,-36 -4,-10 -9,-20 -14,-30"/>
 </g>
</svg>
