<?xml version="1.0" encoding="UTF-8"?>
<!DOCTYPE svg PUBLIC "-//W3C//DTD SVG 1.1//EN" "http://www.w3.org/Graphics/SVG/1.1/DTD/svg11.dtd">
<!-- Creator: CorelDRAW X8 -->
<svg xmlns="http://www.w3.org/2000/svg" xml:space="preserve" width="500px" height="500px" version="1.1" style="shape-rendering:geometricPrecision; text-rendering:geometricPrecision; image-rendering:optimizeQuality; fill-rule:evenodd; clip-rule:evenodd"
viewBox="0 0 500 500"
 xmlns:xlink="http://www.w3.org/1999/xlink">
 <defs>
  <style type="text/css">
   <![CDATA[
    .str0 {stroke:black;stroke-width:1.00006}
    .fil0 {fill:none;fill-rule:nonzero}
   ]]>
  </style>
 </defs>
 <g id="Layer_x0020_1">
  <metadata id="CorelCorpID_0Corel-Layer"/>
  <path class="fil0 str0" d="M214 322c3,-19 -3,-40 -16,-55"/>
  <path class="fil0 str0" d="M228 275c1,-19 -1,-37 -5,-56"/>
  <path class="fil0 str0" d="M199 230c-1,2 -4,1 -5,-1 -1,-2 0,-4 0,-6 1,-7 2,-13 3,-20"/>
  <path class="fil0 str0" d="M239 214c6,-18 5,-38 -1,-55"/>
  <path class="fil0 str0" d="M251 291c1,-18 3,-37 4,-55"/>
  <path class="fil0 str0" d="M215 385c0,1 -2,2 -3,1 0,-2 1,-3 2,-4 10,-12 18,-28 20,-45"/>
  <path class="fil0 str0" d="M214 438c11,-14 20,-30 24,-47"/>
  <path class="fil0 str0" d="M205 474c12,4 25,-3 34,-13 9,-9 15,-21 25,-30"/>
  <path class="fil0 str0" d="M250 386c11,-10 17,-24 17,-39 -1,-17 -9,-34 -3,-50"/>
  <path class="fil0 str0" d="M283 273c6,-25 5,-50 -2,-74"/>
  <path class="fil0 str0" d="M263 157c-3,-15 -8,-29 -15,-43"/>
  <path class="fil0 str0" d="M199 179c-3,-2 -3,-7 -3,-11 2,-14 3,-29 5,-44"/>
  <path class="fil0 str0" d="M219 123c-2,1 -3,-2 -3,-4 -1,-10 -1,-20 -1,-30"/>
  <path class="fil0 str0" d="M247 83c-5,-20 -8,-40 -9,-60"/>
 </g>
</svg>
