<?xml version="1.0" encoding="UTF-8"?>
<!DOCTYPE svg PUBLIC "-//W3C//DTD SVG 1.1//EN" "http://www.w3.org/Graphics/SVG/1.1/DTD/svg11.dtd">
<!-- Creator: CorelDRAW X8 -->
<svg xmlns="http://www.w3.org/2000/svg" xml:space="preserve" width="500px" height="500px" version="1.1" style="shape-rendering:geometricPrecision; text-rendering:geometricPrecision; image-rendering:optimizeQuality; fill-rule:evenodd; clip-rule:evenodd"
viewBox="0 0 500 500"
 xmlns:xlink="http://www.w3.org/1999/xlink">
 <defs>
  <style type="text/css">
   <![CDATA[
    .str0 {stroke:black;stroke-width:0.750048}
    .fil0 {fill:none}
   ]]>
  </style>
 </defs>
 <g id="Layer_x0020_1">
  <metadata id="CorelCorpID_0Corel-Layer"/>
  <path class="fil0 str0" d="M209 75c9,13 0,51 4,54 6,-17 24,-39 42,-53 7,122 -58,126 -16,189 5,-3 7,-38 19,-60 2,-12 4,-9 -2,-21 -8,-25 7,-73 26,-105 7,4 6,24 7,35 11,28 -14,73 -10,74 8,0 12,-30 19,-43 11,-15 38,-60 58,-70 7,-4 11,0 11,7 -3,88 -112,159 -124,211 -3,14 -2,30 3,44 6,13 38,-9 36,12 -3,6 -22,3 -25,9 3,9 12,14 24,16 -12,13 -58,8 -68,-8 -21,-40 11,-88 1,-108 -60,-82 -19,-126 -5,-183z"/>
 </g>
</svg>
