<?xml version="1.0" encoding="UTF-8"?>
<!DOCTYPE svg PUBLIC "-//W3C//DTD SVG 1.1//EN" "http://www.w3.org/Graphics/SVG/1.1/DTD/svg11.dtd">
<!-- Creator: CorelDRAW X8 -->
<svg xmlns="http://www.w3.org/2000/svg" xml:space="preserve" width="500px" height="500px" version="1.1" style="shape-rendering:geometricPrecision; text-rendering:geometricPrecision; image-rendering:optimizeQuality; fill-rule:evenodd; clip-rule:evenodd"
viewBox="0 0 500 500"
 xmlns:xlink="http://www.w3.org/1999/xlink">
 <defs>
  <style type="text/css">
   <![CDATA[
    .str0 {stroke:black;stroke-width:0.750048}
    .fil0 {fill:none}
   ]]>
  </style>
 </defs>
 <g id="Layer_x0020_1">
  <metadata id="CorelCorpID_0Corel-Layer"/>
  <path class="fil0 str0" d="M264 110c-11,15 -18,35 -18,55 -3,2 -8,-8 -19,-12 -14,-5 -19,-13 -28,-15 -6,19 3,35 22,39 5,1 12,1 15,5 -1,19 -29,0 -50,25 -7,11 -10,23 -13,36 -4,21 -4,46 7,65 8,-2 33,-37 39,-37 4,37 -21,49 -11,103 13,-22 43,-32 51,-55 4,-11 1,-33 4,-34 10,9 9,25 17,36 5,6 13,11 11,18 10,-11 20,-24 24,-39 7,-33 -3,-80 -29,-100 5,-5 28,10 37,10 19,0 32,-13 40,-34 -15,-4 -14,-3 -30,4 -13,5 -29,0 -43,-4 -2,-3 15,-24 21,-44 13,-26 -15,-17 -18,-22 -10,-12 -19,-15 -29,0z"/>
  <path class="fil0 str0" d="M270 135c-3,7 -7,11 -12,18 -1,4 7,13 7,14 10,0 6,-4 14,-4 7,0 9,-3 9,-10 0,-15 -7,-38 -18,-18z"/>
  <path class="fil0 str0" d="M240 204c-18,9 -35,9 -38,37 37,-6 23,37 30,54 12,-2 14,-21 26,-28 13,-14 19,9 28,9 21,-30 -13,-43 -13,-63 -1,-11 4,-21 2,-32 0,-12 -21,10 -22,-3 -8,5 -7,26 -13,26z"/>
 </g>
</svg>
