<?xml version="1.0" encoding="UTF-8"?>
<!DOCTYPE svg PUBLIC "-//W3C//DTD SVG 1.1//EN" "http://www.w3.org/Graphics/SVG/1.1/DTD/svg11.dtd">
<!-- Creator: CorelDRAW X8 -->
<svg xmlns="http://www.w3.org/2000/svg" xml:space="preserve" width="500px" height="500px" version="1.1" style="shape-rendering:geometricPrecision; text-rendering:geometricPrecision; image-rendering:optimizeQuality; fill-rule:evenodd; clip-rule:evenodd"
viewBox="0 0 500 500"
 xmlns:xlink="http://www.w3.org/1999/xlink">
 <defs>
  <style type="text/css">
   <![CDATA[
    .str0 {stroke:black;stroke-width:0.750048}
    .fil0 {fill:none}
   ]]>
  </style>
 </defs>
 <g id="Layer_x0020_1">
  <metadata id="CorelCorpID_0Corel-Layer"/>
  <path class="fil0 str0" d="M295 209c3,10 57,-37 108,-12 20,14 24,64 5,79 -8,7 -20,8 -27,14 -5,3 -8,12 -13,15 -13,14 -29,-8 -9,-12 39,-18 60,-57 35,-79 -20,-22 -102,12 -103,20 27,7 5,48 5,65 0,43 61,60 97,47 26,-10 59,-42 52,-72 -9,-36 -54,-30 -80,-20 -21,8 -30,-5 -30,-25 3,-54 44,-104 96,-115 -9,18 -28,29 -43,43 -12,11 -43,55 -35,72 9,18 63,-9 97,27 22,22 19,62 -3,86 -20,23 -53,33 -85,33 -54,0 -70,-30 -87,-78 -8,3 -12,26 -10,40 4,17 18,36 52,56 14,8 33,12 49,6 -3,11 -15,17 -27,17 -37,-6 -72,-32 -86,-49 -9,-10 -16,-22 -19,-36 -2,-11 -6,-15 -17,-11 -11,4 -20,10 -29,18 -17,17 -26,24 -52,24 -27,0 -53,-11 -67,-11 -16,0 -25,12 -40,17 7,-18 29,-25 49,-24 19,1 38,8 57,6 36,-4 53,-37 87,-46 6,-2 22,-4 24,-10 2,-4 -4,-37 -5,-43 -3,-14 -7,-18 -23,-14 -25,10 -35,39 -55,56 -29,25 -77,19 -103,-10 -6,-9 -13,-26 -1,-32 8,12 12,25 22,35 15,14 41,11 60,1 18,-10 33,-27 48,-42 15,-14 35,-27 56,-26 17,0 12,-33 7,-43 -30,-34 -44,-8 -55,15 -13,26 -36,46 -64,57 -6,1 -27,3 -19,-11 14,5 31,-3 40,-15 11,-13 17,-27 24,-41 10,-18 26,-35 47,-37 25,-3 50,20 49,46 9,-16 9,-36 1,-52 -15,-28 -42,-42 -23,-83 8,-19 23,-38 33,-12 -11,24 -15,33 4,61 19,27 35,59 6,105z"/>
 </g>
</svg>
