<?xml version="1.0" encoding="UTF-8"?>
<!DOCTYPE svg PUBLIC "-//W3C//DTD SVG 1.1//EN" "http://www.w3.org/Graphics/SVG/1.1/DTD/svg11.dtd">
<!-- Creator: CorelDRAW X8 -->
<svg xmlns="http://www.w3.org/2000/svg" xml:space="preserve" width="500px" height="500px" version="1.1" style="shape-rendering:geometricPrecision; text-rendering:geometricPrecision; image-rendering:optimizeQuality; fill-rule:evenodd; clip-rule:evenodd"
viewBox="0 0 500 500"
 xmlns:xlink="http://www.w3.org/1999/xlink">
 <defs>
  <style type="text/css">
   <![CDATA[
    .str0 {stroke:black;stroke-width:0.750048}
    .fil0 {fill:none}
   ]]>
  </style>
 </defs>
 <g id="Layer_x0020_1">
  <metadata id="CorelCorpID_0Corel-Layer"/>
  <path class="fil0 str0" d="M221 109c3,-30 -6,-55 -19,-77 -4,-12 -18,-7 -10,0 27,43 12,49 14,90 1,18 10,36 19,53 13,26 -20,35 -14,69 -11,-4 -13,5 -16,7 -7,5 -32,-1 -41,-2 -24,-2 -28,5 -36,24 1,20 -27,49 -10,76 6,7 20,10 21,20 0,10 -3,12 1,24 4,23 18,42 48,43 22,-3 38,-2 67,9 37,9 46,9 55,-18 7,-33 38,-66 20,-116 -8,-22 -27,-42 -50,-47 -2,-4 35,-46 13,-66 -4,-3 -9,-6 -9,-9 25,-20 128,-49 150,-108 7,-16 11,-36 9,-53 -12,9 -18,23 -26,35 -46,82 -102,78 -141,116 -8,-10 27,-20 5,-32 4,-4 3,-12 -1,-16 -5,-3 -12,-1 -15,4 -3,5 1,13 6,15 -3,3 -9,17 -14,18 -11,2 -25,-41 -26,-59z"/>
  <path class="fil0 str0" d="M230 230c-9,22 -21,38 -50,48 -1,17 8,37 9,56 0,7 0,19 4,23 15,23 30,5 39,1 17,-7 57,13 48,-32 -5,-22 -28,-57 -27,-72 0,-14 17,-40 6,-50 -15,-11 -27,14 -29,26z"/>
 </g>
</svg>
