<?xml version="1.0" encoding="UTF-8"?>
<!DOCTYPE svg PUBLIC "-//W3C//DTD SVG 1.1//EN" "http://www.w3.org/Graphics/SVG/1.1/DTD/svg11.dtd">
<!-- Creator: CorelDRAW X8 -->
<svg xmlns="http://www.w3.org/2000/svg" xml:space="preserve" width="500px" height="500px" version="1.1" style="shape-rendering:geometricPrecision; text-rendering:geometricPrecision; image-rendering:optimizeQuality; fill-rule:evenodd; clip-rule:evenodd"
viewBox="0 0 500 500"
 xmlns:xlink="http://www.w3.org/1999/xlink">
 <defs>
  <style type="text/css">
   <![CDATA[
    .str0 {stroke:black;stroke-width:0.750048}
    .fil0 {fill:none}
   ]]>
  </style>
 </defs>
 <g id="Layer_x0020_1">
  <metadata id="CorelCorpID_0Corel-Layer"/>
  <path class="fil0 str0" d="M265 96c1,4 3,9 0,11 -3,2 -6,0 -10,0 -23,7 -61,38 -68,50 -12,36 36,13 47,-3 7,-1 0,16 -6,22 -26,28 -44,20 -50,71 -2,15 2,49 -12,56 -30,5 -14,-20 -23,-27 -9,7 -10,22 -3,30 8,10 21,12 31,7 8,-4 8,3 10,8 2,23 28,24 45,26 2,3 -7,6 -7,11 -2,5 6,17 17,5 3,-5 -2,-12 3,-14 34,17 40,-14 42,-14 2,15 12,22 25,22 12,0 28,-7 26,-21 -20,7 -37,3 -34,-21 8,-28 36,-62 17,-139 4,-4 7,23 24,19 6,-3 10,-12 9,-20 -5,-22 -38,-51 -55,-62 -13,-13 2,-18 -8,-27 -8,-6 -20,-2 -20,10z"/>
  <path class="fil0 str0" d="M334 205c9,19 6,32 17,46"/>
  <path class="fil0 str0" d="M342 200c9,-2 18,16 23,19 7,5 16,7 23,4"/>
  <path class="fil0 str0" d="M352 188c4,-7 36,5 47,-14"/>
  <path class="fil0 str0" d="M351 171c12,-1 15,-7 19,-13 7,-7 19,-11 24,-19"/>
  <path class="fil0 str0" d="M345 148c2,-9 40,-31 31,-46"/>
  <path class="fil0 str0" d="M334 133c8,-4 7,-29 18,-41"/>
  <path class="fil0 str0" d="M236 106c-19,0 -31,-41 -43,-35"/>
  <path class="fil0 str0" d="M218 125c-6,-15 -25,-22 -32,-38"/>
  <path class="fil0 str0" d="M183 137c-3,-5 -24,-15 -35,-13"/>
  <path class="fil0 str0" d="M173 164c-13,-2 -25,10 -35,10"/>
  <path class="fil0 str0" d="M182 181c-11,21 -32,17 -27,34"/>
  <path class="fil0 str0" d="M199 186c-9,-2 -23,17 -26,20"/>
  <path class="fil0 str0" d="M198 130c-12,-6 -22,-21 -33,-28"/>
 </g>
</svg>
