<?xml version="1.0" encoding="UTF-8"?>
<!DOCTYPE svg PUBLIC "-//W3C//DTD SVG 1.1//EN" "http://www.w3.org/Graphics/SVG/1.1/DTD/svg11.dtd">
<!-- Creator: CorelDRAW X8 -->
<svg xmlns="http://www.w3.org/2000/svg" xml:space="preserve" width="500px" height="500px" version="1.1" style="shape-rendering:geometricPrecision; text-rendering:geometricPrecision; image-rendering:optimizeQuality; fill-rule:evenodd; clip-rule:evenodd"
viewBox="0 0 500 500"
 xmlns:xlink="http://www.w3.org/1999/xlink">
 <defs>
  <style type="text/css">
   <![CDATA[
    .str0 {stroke:black;stroke-width:1.00006}
    .fil0 {fill:none;fill-rule:nonzero}
   ]]>
  </style>
 </defs>
 <g id="Layer_x0020_1">
  <metadata id="CorelCorpID_0Corel-Layer"/>
  <path class="fil0 str0" d="M270 142c-18,-1 -36,-2 -53,-2 -11,0 -23,0 -33,5 -10,4 -18,12 -26,20 -8,8 -16,17 -22,27 -6,9 -10,20 -14,30 -5,17 -11,33 -11,51 0,28 16,56 38,74 23,18 51,28 80,32 22,3 44,2 66,-3 21,-6 41,-17 55,-34 24,-29 29,-70 27,-108 -1,-21 -4,-44 -19,-59 -5,-5 -11,-9 -17,-12 -6,-4 -13,-8 -20,-11 -10,-3 -20,-4 -30,-5 -7,-1 -14,-4 -21,-5z"/>
  <path class="fil0 str0" d="M208 152c-2,8 1,16 3,23 3,9 7,17 11,25 5,13 10,25 16,37 2,6 6,13 12,13 6,-16 5,-33 4,-49 0,-11 -1,-22 -7,-31 -5,-7 -11,-10 -18,-14 -2,-1 -20,-7 -21,-4z"/>
  <path class="fil0 str0" d="M174 170c-1,6 -2,12 -6,17 -2,3 -4,5 -6,8 -2,4 -2,9 0,14 2,4 5,8 9,12 10,12 22,23 34,33 8,7 17,12 27,13 -6,-27 -15,-52 -25,-77 -5,-11 -23,-46 -33,-20z"/>
  <path class="fil0 str0" d="M126 251c-1,2 -1,4 0,6 1,2 3,4 5,5 23,14 48,24 75,27 2,1 4,1 5,-1 1,-1 1,-2 1,-3 0,-10 -11,-16 -19,-22 -16,-12 -26,-29 -40,-42 -9,-8 -14,-10 -20,1 -4,9 -6,19 -7,29z"/>
  <path class="fil0 str0" d="M140 287c-3,0 -7,-1 -11,1 -3,1 -6,4 -6,8 -1,2 1,4 2,6 8,14 18,26 30,35 5,4 11,8 17,8 5,0 9,-1 13,-3 8,-4 44,-34 27,-41 -5,-3 -13,-2 -18,-3 -6,-1 -12,-2 -18,-4 -12,-2 -24,-5 -36,-7z"/>
  <path class="fil0 str0" d="M208 347c-3,3 -8,8 -7,13 1,2 3,4 6,5 3,1 5,1 8,2 10,0 20,0 30,0 1,1 2,1 3,0 3,-1 4,-4 4,-6 0,-7 -4,-12 -6,-18 -4,-8 -4,-16 -6,-24 -1,-4 -4,-14 -8,-14 -5,-1 -6,8 -7,12 -2,11 -8,22 -17,30z"/>
  <path class="fil0 str0" d="M261 355c1,6 3,12 8,15 3,2 8,2 13,1 6,-1 12,-3 16,-7 4,-5 6,-12 3,-17 -2,-4 -5,-6 -8,-8 -7,-6 -13,-12 -18,-19 -3,-4 -25,-34 -26,-15 0,8 4,18 6,25 2,9 4,17 6,25z"/>
  <path class="fil0 str0" d="M278 300c2,4 6,8 10,12 12,12 23,23 35,35 1,1 2,3 4,3 2,1 4,1 6,0 6,-3 10,-10 11,-17 2,-7 3,-15 -1,-21 -2,-4 -6,-6 -9,-8 -13,-7 -27,-14 -41,-19 -14,-5 -23,-1 -15,15z"/>
  <path class="fil0 str0" d="M340 257c-16,0 -31,-1 -47,1 -3,0 -8,2 -9,5 -1,2 0,4 1,6 3,6 11,9 18,11l39 10c6,2 14,3 18,-1 2,-2 3,-5 4,-8 2,-8 2,-15 -5,-20 -5,-5 -13,-3 -19,-4z"/>
  <path class="fil0 str0" d="M318 222c-11,2 -24,6 -31,16 -1,1 -2,3 -2,5 0,3 3,4 5,5 2,0 5,0 7,-1 20,-3 40,0 60,-1 1,0 3,0 4,-1 2,-1 4,-3 4,-5 2,-6 2,-12 1,-17 -2,-12 -9,-9 -18,-7 -10,3 -20,4 -30,6z"/>
  <path class="fil0 str0" d="M320 181c-18,9 -35,22 -46,39 -2,2 -4,6 -2,9 7,1 15,-2 22,-4 9,-3 18,-6 26,-9 8,-3 16,-5 23,-10 2,-2 4,-4 5,-6 0,-2 0,-5 0,-7 -1,-5 0,-17 -7,-19 -5,-1 -16,5 -21,7z"/>
  <path class="fil0 str0" d="M276 155c-2,0 -4,0 -5,1 -4,3 -5,8 -6,12 -2,10 -5,20 -7,30 0,3 -1,7 1,9 2,2 3,2 5,2 6,1 11,-3 14,-7 4,-5 6,-10 10,-14 3,-4 7,-8 7,-13 1,-7 -11,-20 -19,-20z"/>
 </g>
</svg>
