<?xml version="1.0" encoding="UTF-8"?>
<!DOCTYPE svg PUBLIC "-//W3C//DTD SVG 1.1//EN" "http://www.w3.org/Graphics/SVG/1.1/DTD/svg11.dtd">
<!-- Creator: CorelDRAW X8 -->
<svg xmlns="http://www.w3.org/2000/svg" xml:space="preserve" width="500px" height="500px" version="1.1" style="shape-rendering:geometricPrecision; text-rendering:geometricPrecision; image-rendering:optimizeQuality; fill-rule:evenodd; clip-rule:evenodd"
viewBox="0 0 500 500"
 xmlns:xlink="http://www.w3.org/1999/xlink">
 <defs>
  <style type="text/css">
   <![CDATA[
    .str0 {stroke:black;stroke-width:0.750048}
    .fil0 {fill:none}
   ]]>
  </style>
 </defs>
 <g id="Layer_x0020_1">
  <metadata id="CorelCorpID_0Corel-Layer"/>
  <path class="fil0 str0" d="M171 78c-4,1 -7,6 -8,12 -3,10 -6,20 -4,31 3,15 26,35 29,35 -3,-15 27,-43 17,-72"/>
  <path class="fil0 str0" d="M226 91c-8,33 -27,44 -26,68 6,12 24,15 31,42 10,-6 28,-25 34,-43 7,-21 -1,-46 -20,-59"/>
  <path class="fil0 str0" d="M130 111c7,26 29,47 55,52 -13,20 -44,21 -58,40 -4,6 -6,13 -12,17"/>
  <path class="fil0 str0" d="M191 171c-32,25 -37,61 -64,69"/>
  <path class="fil0 str0" d="M193 174c19,16 11,50 41,74"/>
  <path class="fil0 str0" d="M238 219c14,-25 38,-23 43,-67 1,-15 -2,-31 -8,-46"/>
  <path class="fil0 str0" d="M334 85c-22,12 -30,41 -25,66 5,26 11,37 -13,53 -17,10 -37,18 -56,15"/>
  <path class="fil0 str0" d="M295 228c14,-2 26,-13 31,-26 8,-17 -12,-102 37,-110"/>
  <path class="fil0 str0" d="M402 107c-29,16 -9,67 -43,103 -16,17 -41,27 -63,23"/>
  <path class="fil0 str0" d="M297 249c29,12 97,19 100,58"/>
  <path class="fil0 str0" d="M297 271c71,25 86,38 69,108"/>
  <path class="fil0 str0" d="M233 251c-26,-4 -60,17 -66,43 -7,-20 -20,-39 -38,-51"/>
  <path class="fil0 str0" d="M230 266c-17,-17 -66,48 -61,83"/>
  <path class="fil0 str0" d="M279 241c-10,19 -5,44 10,60 11,12 43,30 32,51"/>
  <path class="fil0 str0" d="M266 241c-32,12 -32,34 -34,61 0,17 -5,43 -26,45"/>
 </g>
</svg>
