<?xml version="1.0" encoding="UTF-8"?>
<!DOCTYPE svg PUBLIC "-//W3C//DTD SVG 1.1//EN" "http://www.w3.org/Graphics/SVG/1.1/DTD/svg11.dtd">
<!-- Creator: CorelDRAW X8 -->
<svg xmlns="http://www.w3.org/2000/svg" xml:space="preserve" width="500px" height="500px" version="1.1" style="shape-rendering:geometricPrecision; text-rendering:geometricPrecision; image-rendering:optimizeQuality; fill-rule:evenodd; clip-rule:evenodd"
viewBox="0 0 500 500"
 xmlns:xlink="http://www.w3.org/1999/xlink">
 <defs>
  <style type="text/css">
   <![CDATA[
    .str0 {stroke:black;stroke-width:1.00006}
    .fil0 {fill:none}
   ]]>
  </style>
 </defs>
 <g id="Layer_x0020_1">
  <metadata id="CorelCorpID_0Corel-Layer"/>
  <path class="fil0 str0" d="M277 58c-4,5 -41,8 -63,-3 8,20 41,10 50,25 -37,0 -83,25 -76,48 19,-14 76,-27 76,-23 -38,13 -62,43 -62,45 5,3 56,4 81,-31 7,17 -59,68 -55,71 23,-5 39,-18 52,-42 4,0 -2,99 -33,77 -17,-9 -50,-18 -75,-11 -14,4 -79,58 -101,70 5,2 67,-27 102,-34 23,-4 46,-7 67,-2 8,3 15,8 9,17 -2,5 -6,8 -10,11 -25,23 -51,50 -66,81 4,2 35,-28 49,-46 12,-13 22,-27 38,-34 9,22 -8,47 -6,72 0,6 0,9 -5,12 -70,47 -139,18 -200,44 -1,4 100,3 153,-3 36,0 37,-34 50,-25 11,12 -8,34 -8,48 -37,-2 -90,29 -91,35 14,9 49,-15 83,-7 20,4 21,-25 26,-28 4,0 -1,23 1,31"/>
  <path class="fil0 str0" d="M277 62c8,-10 7,-31 25,-48 8,-5 -4,30 -2,41 -4,1 -6,6 -4,10 14,-1 34,6 46,4 5,-23 -17,-41 -6,-55 8,-8 35,3 19,16 -7,5 -8,14 -8,22 1,8 3,16 2,24 5,-4 13,-2 19,0 20,5 41,13 47,31 -5,0 -9,-4 -13,-7 -26,-5 -33,7 -56,-1 -1,2 41,16 52,43 12,18 19,41 14,64 -4,-1 -35,-77 -76,-79 2,20 13,40 28,53 -32,-3 -50,-44 -52,-42 -3,13 0,45 -1,46 -12,-10 -19,-25 -19,-40 -3,2 -6,66 -16,94 3,5 61,-8 92,-5 47,4 102,46 83,96 -54,-119 -127,-43 -178,-78 -4,2 1,24 4,26 30,12 65,38 90,67 -3,2 -71,-32 -93,-57 -3,1 -12,63 -6,70 10,10 180,12 182,14 -1,5 -57,8 -91,17 -34,4 -63,5 -89,-10 -6,9 -1,42 3,48 21,-11 51,-13 77,-8 53,10 74,10 116,-2 0,4 -87,33 -120,33 -28,3 -67,-16 -72,-14 -5,13 -1,26 -6,47"/>
 </g>
</svg>
