<?xml version="1.0" encoding="UTF-8"?>
<!DOCTYPE svg PUBLIC "-//W3C//DTD SVG 1.1//EN" "http://www.w3.org/Graphics/SVG/1.1/DTD/svg11.dtd">
<!-- Creator: CorelDRAW X8 -->
<svg xmlns="http://www.w3.org/2000/svg" xml:space="preserve" width="500px" height="500px" version="1.1" style="shape-rendering:geometricPrecision; text-rendering:geometricPrecision; image-rendering:optimizeQuality; fill-rule:evenodd; clip-rule:evenodd"
viewBox="0 0 500 500"
 xmlns:xlink="http://www.w3.org/1999/xlink">
 <defs>
  <style type="text/css">
   <![CDATA[
    .str0 {stroke:black;stroke-width:1.00006}
    .fil0 {fill:none;fill-rule:nonzero}
   ]]>
  </style>
 </defs>
 <g id="Layer_x0020_1">
  <metadata id="CorelCorpID_0Corel-Layer"/>
  <path class="fil0 str0" d="M187 281c-13,6 -24,19 -29,33 -1,5 -2,9 -1,14 1,8 5,15 11,20 16,15 41,18 61,8 14,-8 25,-25 21,-40 -3,-12 -13,-20 -23,-27 -5,-5 -11,-11 -18,-12 -6,0 -16,2 -22,4z"/>
  <path class="fil0 str0" d="M327 206c-17,3 -34,11 -45,24 -5,6 -10,13 -11,20 -1,6 0,12 2,18 6,21 26,36 48,37 22,1 43,-13 51,-33 6,-18 2,-36 -9,-50 -9,-14 -19,-19 -36,-16z"/>
  <path class="fil0 str0" d="M200 157c-12,6 -21,20 -20,34 0,14 8,27 20,35 11,7 26,9 40,7 9,-2 18,-5 25,-12 10,-11 12,-30 5,-43 -12,-24 -46,-31 -70,-21z"/>
  <path class="fil0 str0" d="M209 299c-3,0 -7,1 -10,3 -4,2 -8,5 -11,9 -5,6 -6,15 -2,23 1,2 3,5 5,6 3,2 7,3 10,3 5,0 10,0 14,-3 3,-3 5,-6 7,-9 4,-11 3,-32 -13,-32z"/>
  <path class="fil0 str0" d="M330 262c0,3 1,7 2,10 2,3 5,6 9,7 16,5 28,-23 19,-34 -11,-15 -31,3 -30,17z"/>
  <path class="fil0 str0" d="M224 160c-7,0 -13,1 -19,3 -2,0 -3,1 -5,2 -2,2 -2,5 -2,8 0,1 0,2 1,4 1,2 4,4 7,4 8,2 15,2 23,1 3,0 8,-1 10,-4 8,-10 -6,-19 -15,-18z"/>
 </g>
</svg>
