<?xml version="1.0" encoding="UTF-8"?>
<!DOCTYPE svg PUBLIC "-//W3C//DTD SVG 1.1//EN" "http://www.w3.org/Graphics/SVG/1.1/DTD/svg11.dtd">
<!-- Creator: CorelDRAW X8 -->
<svg xmlns="http://www.w3.org/2000/svg" xml:space="preserve" width="500px" height="500px" version="1.1" style="shape-rendering:geometricPrecision; text-rendering:geometricPrecision; image-rendering:optimizeQuality; fill-rule:evenodd; clip-rule:evenodd"
viewBox="0 0 500 500"
 xmlns:xlink="http://www.w3.org/1999/xlink">
 <defs>
  <style type="text/css">
   <![CDATA[
    .str0 {stroke:black;stroke-width:1.00006}
    .fil0 {fill:none;fill-rule:nonzero}
   ]]>
  </style>
 </defs>
 <g id="Layer_x0020_1">
  <metadata id="CorelCorpID_0Corel-Layer"/>
  <path class="fil0 str0" d="M256 187c-17,5 -34,11 -47,22 -13,11 -23,28 -24,45 -1,18 9,36 23,47 15,11 34,15 52,12 11,-1 23,-6 31,-14 12,-10 18,-26 21,-42 4,-18 5,-38 -6,-52 -12,-16 -30,-22 -50,-18z"/>
  <path class="fil0 str0" d="M258 195c-9,3 -17,10 -19,19 0,5 0,9 2,14 5,14 16,25 31,28 5,1 12,1 16,-3 5,-3 7,-8 8,-13 2,-10 0,-28 -5,-38 -7,-10 -23,-11 -33,-7z"/>
 </g>
</svg>
