<?xml version="1.0" encoding="UTF-8"?>
<!DOCTYPE svg PUBLIC "-//W3C//DTD SVG 1.1//EN" "http://www.w3.org/Graphics/SVG/1.1/DTD/svg11.dtd">
<!-- Creator: CorelDRAW X8 -->
<svg xmlns="http://www.w3.org/2000/svg" xml:space="preserve" width="500px" height="500px" version="1.1" style="shape-rendering:geometricPrecision; text-rendering:geometricPrecision; image-rendering:optimizeQuality; fill-rule:evenodd; clip-rule:evenodd"
viewBox="0 0 500 500"
 xmlns:xlink="http://www.w3.org/1999/xlink">
 <defs>
  <style type="text/css">
   <![CDATA[
    .str0 {stroke:black;stroke-width:1.00006}
    .fil0 {fill:none}
   ]]>
  </style>
 </defs>
 <g id="Layer_x0020_1">
  <metadata id="CorelCorpID_0Corel-Layer"/>
  <path class="fil0 str0" d="M213 135c1,3 -15,-2 -17,-2 -4,-1 6,8 7,9 2,3 -23,5 -25,6 4,3 7,6 11,9 2,2 -15,6 -20,12 3,2 10,2 13,4 3,2 -21,14 -21,16 0,3 9,6 15,5 0,2 -21,13 -21,16 0,2 5,2 7,2 8,0 6,6 4,6 -4,6 -17,10 -17,20 6,0 12,-3 20,-2 7,-4 4,4 4,4 -7,9 -20,14 -21,25 6,0 13,0 19,-2 -2,7 -15,10 -14,18l14 -4c-4,8 -6,15 -9,22 -2,4 0,11 5,5 5,-4 11,-8 17,-8 -2,8 -1,17 4,25 1,-4 4,-12 5,-12 9,5 5,30 17,30 1,-4 2,-10 4,-16 0,-6 6,-2 9,0 4,6 10,10 16,14 0,2 5,2 5,-2 3,-8 3,-19 5,-20 1,0 9,15 14,20 1,-2 1,-11 3,-14l23 17c2,-3 5,-16 5,-19 6,2 16,11 19,11 1,-3 -1,-23 2,-21 2,1 12,7 12,4l0 -11c0,-6 10,3 13,5 1,0 3,-1 2,-2 -2,-7 -5,-13 -8,-19 -3,-7 22,8 20,1 -2,-6 -5,-12 -9,-18 -5,-6 20,6 17,0 -2,-5 -4,-9 -7,-13 -4,-5 9,2 7,-3l-5 -11c-1,-4 11,-3 13,-4 6,-1 -9,-8 -12,-12 -3,-3 7,-5 9,-7 10,-12 -16,-9 -20,-11 -7,0 26,-19 11,-19 -4,-1 -11,1 -13,-2 -1,-4 10,-23 8,-23 -3,-2 -20,6 -22,4 -2,-2 2,-8 1,-11 3,-3 -3,-10 -11,-5 -12,5 -14,1 -12,-6 2,-5 3,-13 1,-19 -3,7 -10,13 -14,11 -4,0 -2,-20 -9,-25 -5,3 -13,15 -14,21 -5,-3 -8,-9 -9,-16 -7,5 -12,12 -13,18 -4,-3 -6,-14 -9,-17 -3,-5 -3,16 -13,15 -3,0 -11,-12 -15,-14 -4,-4 -1,15 -1,15z"/>
 </g>
</svg>
