<?xml version="1.0" encoding="UTF-8"?>
<!DOCTYPE svg PUBLIC "-//W3C//DTD SVG 1.1//EN" "http://www.w3.org/Graphics/SVG/1.1/DTD/svg11.dtd">
<!-- Creator: CorelDRAW X8 -->
<svg xmlns="http://www.w3.org/2000/svg" xml:space="preserve" width="500px" height="500px" version="1.1" style="shape-rendering:geometricPrecision; text-rendering:geometricPrecision; image-rendering:optimizeQuality; fill-rule:evenodd; clip-rule:evenodd"
viewBox="0 0 500 500"
 xmlns:xlink="http://www.w3.org/1999/xlink">
 <defs>
  <style type="text/css">
   <![CDATA[
    .str0 {stroke:black;stroke-width:1.00006}
    .fil0 {fill:none;fill-rule:nonzero}
   ]]>
  </style>
 </defs>
 <g id="Layer_x0020_1">
  <metadata id="CorelCorpID_0Corel-Layer"/>
  <path class="fil0 str0" d="M207 152c-1,6 0,12 1,17 -7,-1 -13,-3 -20,-4 5,2 8,6 11,10 -8,2 -16,3 -23,4 4,3 7,6 11,9 -6,3 -12,7 -19,10 5,1 9,2 13,4 -6,5 -12,10 -20,14 5,2 10,4 14,4 -6,4 -13,9 -19,14 0,2 4,2 6,2 2,0 6,1 5,3 0,1 0,2 -1,2 -2,3 -6,5 -9,8 -3,2 -6,6 -6,10 6,-1 11,-2 17,-2 2,-1 4,0 5,1 0,1 -1,2 -1,3 -6,8 -18,12 -19,22 6,0 12,0 17,-2 -2,7 -13,9 -12,16 4,-1 8,-2 12,-3 -3,7 -5,13 -8,19 -1,3 0,7 2,7 1,0 2,-1 3,-2 4,-4 9,-7 15,-7 -2,7 -1,15 3,22 1,-4 3,-7 5,-11 5,3 5,10 6,15 1,5 4,12 9,12 1,-4 2,-9 3,-14 0,-1 1,-3 2,-3 2,-1 4,1 6,3 4,5 9,9 15,12 0,1 1,1 2,1 1,0 2,-2 2,-3 1,-6 3,-11 4,-17 4,6 9,12 13,17 0,-4 1,-8 2,-12 7,5 14,10 21,15 2,-5 4,-11 4,-17 6,2 12,6 17,10 1,-7 1,-14 0,-20 5,2 9,4 13,7 0,-5 0,-10 0,-16 4,4 9,7 14,10 -2,-9 -6,-16 -10,-24 6,4 13,6 20,7 -2,-8 -6,-15 -11,-21 6,2 12,3 19,5 -3,-7 -6,-13 -11,-18 3,2 7,3 11,4l-6 -14c5,-1 10,-1 15,-2 -5,-4 -11,-8 -16,-12 4,-2 7,-3 10,-5 2,0 4,-2 3,-4 0,0 -1,-1 -2,-1 -7,-2 -15,-4 -23,-4 5,-3 10,-7 15,-11 1,-1 3,-3 2,-5 -1,-1 -2,-1 -3,-1 -4,-1 -8,-1 -12,-2 3,-5 5,-11 7,-17 0,-1 1,-3 0,-3 -1,-1 -2,-1 -3,-1 -5,2 -11,3 -16,4 0,-3 1,-6 1,-10 1,-1 1,-2 0,-3 -1,-4 -7,-3 -10,-1 -4,3 -10,4 -11,0 -1,-2 0,-3 0,-5 2,-6 2,-11 1,-17 -2,3 -5,5 -8,8 -1,1 -2,2 -4,1 0,0 -1,0 -1,-1 -4,-7 -1,-16 -7,-21 -6,6 -10,12 -13,19 -4,-3 -7,-8 -8,-14 -6,4 -10,10 -11,16 -3,-5 -6,-11 -9,-17 -2,5 -4,16 -11,15 -3,-1 -14,-12 -14,-15z"/>
 </g>
</svg>
