<?xml version="1.0" encoding="UTF-8"?>
<!DOCTYPE svg PUBLIC "-//W3C//DTD SVG 1.1//EN" "http://www.w3.org/Graphics/SVG/1.1/DTD/svg11.dtd">
<!-- Creator: CorelDRAW X8 -->
<svg xmlns="http://www.w3.org/2000/svg" xml:space="preserve" width="500px" height="500px" version="1.1" style="shape-rendering:geometricPrecision; text-rendering:geometricPrecision; image-rendering:optimizeQuality; fill-rule:evenodd; clip-rule:evenodd"
viewBox="0 0 500 500"
 xmlns:xlink="http://www.w3.org/1999/xlink">
 <defs>
  <style type="text/css">
   <![CDATA[
    .str0 {stroke:black;stroke-width:1.00006}
    .fil0 {fill:none;fill-rule:nonzero}
   ]]>
  </style>
 </defs>
 <g id="Layer_x0020_1">
  <metadata id="CorelCorpID_0Corel-Layer"/>
  <path class="fil0 str0" d="M212 172c-12,4 -17,18 -19,30 -9,38 -18,76 -27,114 -5,20 -9,40 -18,59 -8,19 -21,36 -38,47"/>
  <path class="fil0 str0" d="M213 174c3,1 5,3 6,5 13,12 20,28 25,45 5,17 7,35 10,52 6,34 15,68 26,100 -8,-45 6,-91 3,-136 -2,-47 -22,-92 -22,-139 0,-4 1,-9 5,-10 3,-2 6,0 9,1 37,20 65,54 84,91 9,19 17,38 20,58 6,32 1,64 1,96 -1,32 4,66 24,91"/>
  <path class="fil0 str0" d="M172 258c-3,-1 -7,-1 -11,-1 -21,1 -41,-8 -62,-7"/>
  <path class="fil0 str0" d="M174 240c-22,-9 -43,-19 -64,-29"/>
  <path class="fil0 str0" d="M177 207c0,-3 -1,-5 -3,-7 -15,-19 -31,-38 -39,-60"/>
  <path class="fil0 str0" d="M195 175c0,-1 -1,-2 -1,-3 -3,-10 -8,-21 -14,-30"/>
  <path class="fil0 str0" d="M227 162c-2,0 -2,-3 -1,-5 3,-8 3,-16 5,-24 2,-8 6,-17 13,-21"/>
  <path class="fil0 str0" d="M315 102c0,2 4,3 7,3 16,-1 33,-2 48,-10 10,-5 18,-14 27,-20 1,-1 4,-2 4,0"/>
  <path class="fil0 str0" d="M332 132c0,0 0,-1 1,-2 0,0 1,0 2,0 10,0 19,-6 27,-11 7,-4 14,-9 21,-13"/>
  <path class="fil0 str0" d="M289 86c2,-1 3,-3 3,-5 0,-12 -1,-24 -1,-37 0,-1 -1,-2 -2,-3"/>
  <path class="fil0 str0" d="M255 92c1,-1 4,1 3,2 -24,0 -49,-7 -70,-20 -3,-2 -6,-4 -10,-5 -4,-1 -8,0 -10,3"/>
  <path class="fil0 str0" d="M260 155c-2,-2 -5,0 -7,1 -6,4 -12,9 -18,10 -4,0 -9,-1 -11,2"/>
 </g>
</svg>
