<?xml version="1.0" encoding="UTF-8"?>
<!DOCTYPE svg PUBLIC "-//W3C//DTD SVG 1.1//EN" "http://www.w3.org/Graphics/SVG/1.1/DTD/svg11.dtd">
<!-- Creator: CorelDRAW X8 -->
<svg xmlns="http://www.w3.org/2000/svg" xml:space="preserve" width="500px" height="500px" version="1.1" style="shape-rendering:geometricPrecision; text-rendering:geometricPrecision; image-rendering:optimizeQuality; fill-rule:evenodd; clip-rule:evenodd"
viewBox="0 0 500 500"
 xmlns:xlink="http://www.w3.org/1999/xlink">
 <defs>
  <style type="text/css">
   <![CDATA[
    .str0 {stroke:black;stroke-width:0.750048}
    .fil0 {fill:none}
   ]]>
  </style>
 </defs>
 <g id="Layer_x0020_1">
  <metadata id="CorelCorpID_0Corel-Layer"/>
  <path class="fil0 str0" d="M211 162c-11,4 -15,16 -17,27 -16,56 -25,168 -76,201"/>
  <path class="fil0 str0" d="M212 164c18,6 32,43 40,85 9,44 12,92 20,99 3,-5 12,-70 6,-114 -7,-47 -21,-81 -22,-137 0,-10 5,-11 13,-8 107,64 95,133 95,223 -1,29 4,60 22,83"/>
  <path class="fil0 str0" d="M175 240c-15,2 -56,-10 -67,-7"/>
  <path class="fil0 str0" d="M177 224c-21,-11 -44,-16 -59,-26"/>
  <path class="fil0 str0" d="M179 194c1,-13 -35,-39 -38,-61"/>
  <path class="fil0 str0" d="M196 164c0,-4 -9,-27 -14,-29"/>
  <path class="fil0 str0" d="M225 153c-5,-11 -3,-34 15,-46"/>
  <path class="fil0 str0" d="M305 98c0,10 46,-4 50,-6 11,-6 24,-24 28,-19"/>
  <path class="fil0 str0" d="M322 124c15,0 26,-16 45,-22"/>
  <path class="fil0 str0" d="M281 83c7,-2 6,-36 0,-41"/>
  <path class="fil0 str0" d="M253 91c-38,3 -66,-33 -82,-20"/>
  <path class="fil0 str0" d="M255 146c-10,8 -28,6 -33,12"/>
 </g>
</svg>
