<?xml version="1.0" encoding="UTF-8"?>
<!DOCTYPE svg PUBLIC "-//W3C//DTD SVG 1.1//EN" "http://www.w3.org/Graphics/SVG/1.1/DTD/svg11.dtd">
<!-- Creator: CorelDRAW X8 -->
<svg xmlns="http://www.w3.org/2000/svg" xml:space="preserve" width="500px" height="500px" version="1.1" style="shape-rendering:geometricPrecision; text-rendering:geometricPrecision; image-rendering:optimizeQuality; fill-rule:evenodd; clip-rule:evenodd"
viewBox="0 0 500 500"
 xmlns:xlink="http://www.w3.org/1999/xlink">
 <defs>
  <style type="text/css">
   <![CDATA[
    .str0 {stroke:black;stroke-width:0.750048}
    .fil0 {fill:none}
   ]]>
  </style>
 </defs>
 <g id="Layer_x0020_1">
  <metadata id="CorelCorpID_0Corel-Layer"/>
  <path class="fil0 str0" d="M202 146c-15,-16 -17,-48 -29,-53 -2,14 2,28 9,40 -20,-3 -48,-28 -57,-27 -8,36 37,52 35,56 -23,-4 -53,7 -67,26 31,-3 53,-16 77,-16 4,4 -39,24 -40,29 7,4 16,2 24,-1 10,-3 27,-11 47,-16 4,-2 7,-8 7,-12 68,17 142,123 168,183"/>
  <path class="fil0 str0" d="M405 341c-16,-14 -22,-34 -38,-52 -34,-39 -64,-99 -96,-114 -23,-12 -49,-13 -71,-25"/>
 </g>
</svg>
