<?xml version="1.0" encoding="UTF-8"?>
<!DOCTYPE svg PUBLIC "-//W3C//DTD SVG 1.1//EN" "http://www.w3.org/Graphics/SVG/1.1/DTD/svg11.dtd">
<!-- Creator: CorelDRAW X8 -->
<svg xmlns="http://www.w3.org/2000/svg" xml:space="preserve" width="500px" height="500px" version="1.1" style="shape-rendering:geometricPrecision; text-rendering:geometricPrecision; image-rendering:optimizeQuality; fill-rule:evenodd; clip-rule:evenodd"
viewBox="0 0 500 500"
 xmlns:xlink="http://www.w3.org/1999/xlink">
 <defs>
  <style type="text/css">
   <![CDATA[
    .str0 {stroke:black;stroke-width:0.750048}
    .fil0 {fill:none}
   ]]>
  </style>
 </defs>
 <g id="Layer_x0020_1">
  <metadata id="CorelCorpID_0Corel-Layer"/>
  <path class="fil0 str0" d="M331 390c20,-11 20,-33 24,-52 0,-50 42,-129 39,-134 -22,8 -34,49 -39,51 -13,-60 60,-95 45,-190 -6,-1 -50,72 -59,97 -5,-4 12,-67 -16,-98 -61,60 -20,172 -42,197 -8,-6 -67,-162 -101,-184 -12,10 11,58 8,69 -13,-23 -49,-61 -56,-59 3,15 -1,31 -1,46 5,71 70,95 91,156 -54,-5 -142,-82 -156,-137 -5,-15 -6,-66 9,-71 24,12 44,32 56,56"/>
  <path class="fil0 str0" d="M308 93c-3,-11 -19,-27 -31,-32 -8,-5 -15,-2 -18,6 -3,18 0,47 -3,49 -4,-2 -17,-55 -28,-67 -12,17 -21,36 -25,56"/>
  <path class="fil0 str0" d="M156 274c2,-9 -55,-22 -61,-20 6,44 134,73 177,116 9,8 17,22 28,31 11,7 16,1 23,-7 3,-2 8,-4 11,-2"/>
 </g>
</svg>
