<?xml version="1.0" encoding="UTF-8"?>
<!DOCTYPE svg PUBLIC "-//W3C//DTD SVG 1.1//EN" "http://www.w3.org/Graphics/SVG/1.1/DTD/svg11.dtd">
<!-- Creator: CorelDRAW X8 -->
<svg xmlns="http://www.w3.org/2000/svg" xml:space="preserve" width="500px" height="500px" version="1.1" style="shape-rendering:geometricPrecision; text-rendering:geometricPrecision; image-rendering:optimizeQuality; fill-rule:evenodd; clip-rule:evenodd"
viewBox="0 0 500 500"
 xmlns:xlink="http://www.w3.org/1999/xlink">
 <defs>
  <style type="text/css">
   <![CDATA[
    .str0 {stroke:black;stroke-width:0.750048}
    .fil0 {fill:none}
   ]]>
  </style>
 </defs>
 <g id="Layer_x0020_1">
  <metadata id="CorelCorpID_0Corel-Layer"/>
  <path class="fil0 str0" d="M188 217c-2,3 -4,8 -2,11 4,7 20,2 15,-9 -2,-4 -7,-4 -11,-4"/>
  <path class="fil0 str0" d="M216 205c2,-4 -11,1 -12,1 -11,6 10,15 15,8 2,-2 1,-4 0,-6"/>
  <path class="fil0 str0" d="M239 198c-5,1 -9,3 -11,6 -1,1 -2,3 -2,4 1,2 2,3 4,3 1,1 3,2 5,3 3,0 5,-1 6,-3 1,-1 1,-4 0,-6 0,-2 -1,-4 -3,-5"/>
  <path class="fil0 str0" d="M260 214c-3,-6 -16,1 -16,6 0,6 5,7 9,7 14,-3 10,-15 4,-14"/>
  <path class="fil0 str0" d="M263 236c2,0 -1,-4 -3,-2 -2,1 -4,2 -6,3 -10,7 3,11 7,11 3,0 6,-1 7,-3 2,-3 0,-8 -4,-9"/>
  <path class="fil0 str0" d="M261 261c-4,-1 -8,-3 -12,-1 -5,1 -8,5 -7,9 2,7 16,6 18,1 1,-2 0,-6 -3,-6"/>
  <path class="fil0 str0" d="M230 270c0,-1 -2,-2 -4,-2 -2,0 -6,6 -8,8 -3,3 -1,3 -1,4 4,4 12,6 16,2 3,-3 -1,-10 -3,-13"/>
  <path class="fil0 str0" d="M205 261c-9,1 -14,14 -5,14 4,0 9,0 11,-3 4,-5 -2,-13 -8,-11"/>
  <path class="fil0 str0" d="M192 245c-5,-2 -9,2 -7,8 4,3 9,5 14,2 2,-1 4,-4 3,-6 0,-3 -2,-4 -3,-6 -1,-1 -3,-3 -5,-1"/>
  <path class="fil0 str0" d="M178 217c-18,-13 -46,-11 -62,5 -38,36 -4,112 51,86 12,-6 23,-13 31,-24 2,1 -6,8 -10,39 -6,17 -4,31 12,40 36,24 78,-6 62,-42 -5,-11 -21,-22 -22,-31 1,-3 8,6 17,8 20,8 24,45 73,41 29,-2 57,-33 39,-60 -20,-41 -88,-9 -90,-10 27,-24 70,-22 92,-49 11,-13 15,-34 7,-49 -20,-36 -54,-19 -72,8 -8,13 -15,26 -22,40 -3,-3 -6,-7 -8,-11 9,-5 15,-16 19,-26 25,-62 -46,-95 -96,-80 -33,10 -58,46 -37,77 6,8 18,19 11,29"/>
 </g>
</svg>
