<?xml version="1.0" encoding="UTF-8"?>
<!DOCTYPE svg PUBLIC "-//W3C//DTD SVG 1.1//EN" "http://www.w3.org/Graphics/SVG/1.1/DTD/svg11.dtd">
<!-- Creator: CorelDRAW X8 -->
<svg xmlns="http://www.w3.org/2000/svg" xml:space="preserve" width="500px" height="500px" version="1.1" style="shape-rendering:geometricPrecision; text-rendering:geometricPrecision; image-rendering:optimizeQuality; fill-rule:evenodd; clip-rule:evenodd"
viewBox="0 0 500 500"
 xmlns:xlink="http://www.w3.org/1999/xlink">
 <defs>
  <style type="text/css">
   <![CDATA[
    .str0 {stroke:black;stroke-width:0.750048}
    .fil0 {fill:none}
   ]]>
  </style>
 </defs>
 <g id="Layer_x0020_1">
  <metadata id="CorelCorpID_0Corel-Layer"/>
  <path class="fil0 str0" d="M226 196c-22,-25 -11,-71 -11,-114 1,-8 3,-17 9,-22 4,-4 7,0 9,5 5,16 0,34 -2,52 -3,16 -12,125 9,57l8 -30c3,-10 6,-21 7,-32 0,-13 -4,-25 -6,-37 -3,-7 -9,-22 -19,-15"/>
  <path class="fil0 str0" d="M244 67c12,-17 33,4 30,31 -2,28 -10,55 -24,80 -5,10 -13,20 -24,22"/>
  <path class="fil0 str0" d="M225 208c-48,-24 -72,-82 -68,-133 0,-11 4,-44 14,-52 10,15 13,35 13,52 -3,45 -4,82 30,100"/>
  <path class="fil0 str0" d="M295 183c15,-8 31,-16 45,-28 29,-12 59,-97 53,-106 -19,39 -66,82 -102,107 -26,22 -60,34 -35,44 10,4 30,-12 39,-17z"/>
  <path class="fil0 str0" d="M232 221c7,11 11,63 9,69 -2,-1 -14,-28 -40,-42 -17,-15 -32,-19 -44,-36 -19,-22 -25,-54 -38,-60 -15,30 27,85 51,108 18,17 43,29 69,30"/>
  <path class="fil0 str0" d="M248 199c-13,28 8,82 -4,134 2,0 8,-22 15,-34 27,-44 60,-85 99,-118 2,2 -27,67 -45,97 -15,24 -35,45 -58,62"/>
  <path class="fil0 str0" d="M233 306c0,0 -2,-1 -3,-1 -4,29 2,91 -9,114"/>
 </g>
</svg>
