<?xml version="1.0" encoding="utf-8"?>
<!-- Generator: Adobe Illustrator 19.0.0, SVG Export Plug-In . SVG Version: 6.00 Build 0)  -->
<svg version="1.1" id="Layer_1" xmlns="http://www.w3.org/2000/svg" xmlns:xlink="http://www.w3.org/1999/xlink" x="0px" y="0px"
	 viewBox="-55 147 500 500" style="enable-background:new -55 147 500 500;" xml:space="preserve">
<style type="text/css">
	.st0{fill:none;stroke:#000000;stroke-width:1.0001;}
</style>
<g id="Layer_x0020_1">
	<path class="st0" d="M215,510c-3-9-6-19-9-29c-4-11-7-23-13-34c-6-10-14-20-21-30c-9-12-18-25-24-39c-16-35-15-75-11-114
		c15,9,29,17,44,26c13,7,27,15,37,26c16,16,25,37,30,59c10,36,10,76-2,112c-5,12-11,23-18,34c-1,2-6,11-10,8
		C217,528,216,513,215,510z"/>
	<path class="st0" d="M219,529l5-17c2-9,4-18,5-27c4-23,5-48-3-70c-5-13-12-25-20-37c-19-29-38-57-56-86c-5-8-10-17-8-25"/>
	<path class="st0" d="M167,280c2,17,2,34,2,50"/>
	<path class="st0" d="M193,300c0-1-1,20-2,31c-1,9-2,19,0,29"/>
	<path class="st0" d="M220,318c1,1-6,44-10,65c0,2,0,6,2,7"/>
	<path class="st0" d="M245.1,365c-0.4-0.5-3.1,18-5.1,27c-2,6-3,11-5,16c-2,7-6,13-5,20"/>
	<path class="st0" d="M255,422c-1,0-7,17-10,24c-4,7-9,14-15,17c-1,1-2,1-2,2s0,2,1,2"/>
	<path class="st0" d="M136,309c3-1,5,2,8,3c7,4,16,2,22,6"/>
	<path class="st0" d="M182,343c-2,5-8,6-13,7c-6,1-11,1-17,0c-6,0-12-1-16-5"/>
	<path class="st0" d="M206,378c-1,0-1,1-1,1c-1,2-3,4-5,5c-8,3-17,3-26,4c-9,0-18,0-26-4"/>
	<path class="st0" d="M222,407l-1,1c-2,2-5,2-8,3c-14,3-29,4-43,4"/>
	<path class="st0" d="M233,441c-13,9-29,12-44,9"/>
	<path class="st0" d="M234,495c0,0,0,0-1,0c-9,2-19-1-26-6"/>
</g>
</svg>
