<?xml version="1.0" encoding="utf-8"?>
<!-- Generator: Adobe Illustrator 19.0.0, SVG Export Plug-In . SVG Version: 6.00 Build 0)  -->
<svg version="1.1" id="Layer_1" xmlns="http://www.w3.org/2000/svg" xmlns:xlink="http://www.w3.org/1999/xlink" x="0px" y="0px"
	 viewBox="-55 147 500 500" style="enable-background:new -55 147 500 500;" xml:space="preserve">
<style type="text/css">
	.st0{fill:none;stroke:#000000;stroke-width:1.0001;}
</style>
<g id="Layer_x0020_1">
	<path class="st0" d="M239,178c-7,19-8,39-9,59c0,8,0,16,3,23c6,10,18,14,29,17c7,3,14,5,21,7c4,1,8,2,12,2c4-1,7-3,9-6
		c8-8,11-20,12-32c3-21,7-42,5-64c0-5-1-10-6-12c-12,37-10,78-19,117"/>
	<path class="st0" d="M291,171c-7,33-9,68-7,101c1,5,1,10,0,14"/>
	<path class="st0" d="M271,168c1,8-2,16-4,25c-4,20-4,41-4,62c0,12,0,23,0,35"/>
	<path class="st0" d="M257,168c-8,26-11,54-14,81c-2,11-3,21-4,31"/>
	<path class="st0" d="M268,291c-2,17,1,34,0,51c0,23-6,45-12,67c-5,20-11,40-20,58c-8,15-18,28-28,41c-17,23-35,45-52,67
		c-11,15-23,30-39,39"/>
	<path class="st0" d="M282,304c0,12,0,24,0,36c0,16,0,32-4,47c-3,14-8,27-13,39c-9,20-17,40-26,60c-4,11-9,21-15,31
		c-7,12-16,22-25,33c-23,25-45,50-67,75"/>
	<path class="st0" d="M264,326c-6-2-12-3-18-3"/>
	<path class="st0" d="M259,354c-4-5-10-9-17-10"/>
	<path class="st0" d="M254,385c-3-3-7-5-12-7"/>
	<path class="st0" d="M291,342c7-2,13-5,20-7"/>
	<path class="st0" d="M283,367c3-4,9-6,13-3"/>
	<path class="st0" d="M284,387c-1,0-1-2,0-2c1-1,2-1,3-1c4,0,8,0,11,1"/>
	<path class="st0" d="M261,413c-6-2-13-1-20,2"/>
	<path class="st0" d="M264,433c8,0,16,3,22,8"/>
	<path class="st0" d="M257,464c0-1,1-2,1-2c1,0,1,1,2,2c2,2,3,4,5,7"/>
	<path class="st0" d="M231,458c-3-1-7-1-11,0"/>
	<path class="st0" d="M210,494c-3-3-6-6-10-8"/>
	<path class="st0" d="M189,516c-5-6-10-11-17-15"/>
	<path class="st0" d="M165,530c1,3,3,6,5,9"/>
	<path class="st0" d="M210,559c5,4,9,7,13,10"/>
	<path class="st0" d="M231,529c5,0,10,0,15,0"/>
	<path class="st0" d="M240,504c7,1,13,3,18,7"/>
	<path class="st0" d="M205,540c0-1,0-3,0-4c7,3,14,7,19,13"/>
	<path class="st0" d="M176,572c8,6,14,14,17,22"/>
	<path class="st0" d="M171,603c5,4,9,8,13,13"/>
	<path class="st0" d="M151,581c-5-2-10-1-15,1"/>
	<path class="st0" d="M124,605c-2-4-9-5-12-2"/>
</g>
</svg>
