<?xml version="1.0" encoding="UTF-8"?>
<!DOCTYPE svg PUBLIC "-//W3C//DTD SVG 1.1//EN" "http://www.w3.org/Graphics/SVG/1.1/DTD/svg11.dtd">
<!-- Creator: CorelDRAW X8 -->
<svg xmlns="http://www.w3.org/2000/svg" xml:space="preserve" width="500px" height="500px" version="1.1" style="shape-rendering:geometricPrecision; text-rendering:geometricPrecision; image-rendering:optimizeQuality; fill-rule:evenodd; clip-rule:evenodd"
viewBox="0 0 500 500"
 xmlns:xlink="http://www.w3.org/1999/xlink">
 <defs>
  <style type="text/css">
   <![CDATA[
    .str0 {stroke:black;stroke-width:1.00006}
    .fil0 {fill:none;fill-rule:nonzero}
   ]]>
  </style>
 </defs>
 <g id="Layer_x0020_1">
  <metadata id="CorelCorpID_0Corel-Layer"/>
  <path class="fil0 str0" d="M294 31c-7,19 -8,39 -9,59 0,8 0,16 3,23 6,10 18,14 29,17 7,3 14,5 21,7 4,1 8,2 12,2 4,-1 7,-3 9,-6 8,-8 11,-20 12,-32 3,-21 7,-42 5,-64 0,-5 -1,-10 -6,-12 -12,37 -10,78 -19,117"/>
  <path class="fil0 str0" d="M347 27c1,-1 0,-2 -1,-3 -7,33 -9,68 -7,101 1,5 1,10 0,14"/>
  <path class="fil0 str0" d="M328 26c-1,-2 -1,-4 -2,-5 1,8 -2,16 -4,25 -4,20 -4,41 -4,62 0,12 0,23 0,35"/>
  <path class="fil0 str0" d="M312 21c-8,26 -11,54 -14,81 -2,11 -3,21 -4,31"/>
  <path class="fil0 str0" d="M323 144c-2,17 1,34 0,51 0,23 -6,45 -12,67 -5,20 -11,40 -20,58 -8,15 -18,28 -28,41 -17,23 -35,45 -52,67 -11,15 -23,30 -39,39"/>
  <path class="fil0 str0" d="M337 157c0,12 0,24 0,36 0,16 0,32 -4,47 -3,14 -8,27 -13,39 -9,20 -17,40 -26,60 -4,11 -9,21 -15,31 -7,12 -16,22 -25,33 -23,25 -45,50 -67,75"/>
  <path class="fil0 str0" d="M319 179c-6,-2 -12,-3 -18,-3"/>
  <path class="fil0 str0" d="M314 207c-4,-5 -10,-9 -17,-10"/>
  <path class="fil0 str0" d="M309 238c-3,-3 -7,-5 -12,-7"/>
  <path class="fil0 str0" d="M346 195c7,-2 13,-5 20,-7"/>
  <path class="fil0 str0" d="M338 220c3,-4 9,-6 13,-3"/>
  <path class="fil0 str0" d="M339 240c-1,0 -1,-2 0,-2 1,-1 2,-1 3,-1 4,0 8,0 11,1"/>
  <path class="fil0 str0" d="M316 266c-6,-2 -13,-1 -20,2"/>
  <path class="fil0 str0" d="M319 286c8,0 16,3 22,8"/>
  <path class="fil0 str0" d="M312 317c0,-1 1,-2 1,-2 1,0 1,1 2,2 2,2 3,4 5,7"/>
  <path class="fil0 str0" d="M286 311c-3,-1 -7,-1 -11,0"/>
  <path class="fil0 str0" d="M265 347c-3,-3 -6,-6 -10,-8"/>
  <path class="fil0 str0" d="M244 369c-5,-6 -10,-11 -17,-15"/>
  <path class="fil0 str0" d="M222 385c0,-1 -1,-2 -2,-2 1,3 3,6 5,9"/>
  <path class="fil0 str0" d="M264 413c0,0 0,-1 0,-1 0,0 1,0 1,0 5,4 9,7 13,10"/>
  <path class="fil0 str0" d="M286 382c5,0 10,0 15,0"/>
  <path class="fil0 str0" d="M295 357c7,1 13,3 18,7"/>
  <path class="fil0 str0" d="M260 393c0,-1 0,-3 0,-4 7,3 14,7 19,13"/>
  <path class="fil0 str0" d="M232 428c0,-1 0,-2 -1,-3 8,6 14,14 17,22"/>
  <path class="fil0 str0" d="M225 457c0,0 -1,-1 -1,-1 1,0 1,0 2,0 5,4 9,8 13,13"/>
  <path class="fil0 str0" d="M206 434c-5,-2 -10,-1 -15,1"/>
  <path class="fil0 str0" d="M179 458c-2,-4 -9,-5 -12,-2"/>
 </g>
</svg>
