<?xml version="1.0" encoding="UTF-8"?>
<!DOCTYPE svg PUBLIC "-//W3C//DTD SVG 1.1//EN" "http://www.w3.org/Graphics/SVG/1.1/DTD/svg11.dtd">
<!-- Creator: CorelDRAW X8 -->
<svg xmlns="http://www.w3.org/2000/svg" xml:space="preserve" width="500px" height="500px" version="1.1" style="shape-rendering:geometricPrecision; text-rendering:geometricPrecision; image-rendering:optimizeQuality; fill-rule:evenodd; clip-rule:evenodd"
viewBox="0 0 500 500"
 xmlns:xlink="http://www.w3.org/1999/xlink">
 <defs>
  <style type="text/css">
   <![CDATA[
    .str0 {stroke:black;stroke-width:1.00006}
    .fil0 {fill:none;fill-rule:nonzero}
   ]]>
  </style>
 </defs>
 <g id="Layer_x0020_1">
  <metadata id="CorelCorpID_0Corel-Layer"/>
  <path class="fil0 str0" d="M219 383c3,-16 3,-34 -1,-51 -2,-9 -7,-20 -17,-23 -8,-2 -17,2 -25,6 -19,8 -42,11 -60,1 30,4 60,-3 85,-19 -25,-13 -56,-8 -85,-13 -33,-5 -64,-25 -83,-54 20,8 44,0 65,4 25,4 46,23 71,29 11,3 26,4 31,14 -21,-32 -63,-43 -95,-65 -29,-18 -52,-45 -65,-77 63,33 128,68 167,126 -16,-33 -42,-61 -62,-92 -20,-32 -32,-67 -45,-102 29,9 56,29 73,54 26,40 30,90 49,134 -5,-42 -10,-84 -15,-126 -2,-26 -5,-53 1,-78 10,42 35,80 39,123 3,28 -2,56 4,83 0,-31 7,-62 14,-93 6,-27 12,-54 18,-81 13,57 12,116 -3,172 11,-35 23,-70 48,-97 -8,34 -20,67 -35,99 20,-23 29,-53 43,-80 17,-32 41,-60 46,-95 12,13 14,32 13,50 -1,29 -10,59 -25,84 -14,24 -34,44 -46,69 27,-17 42,-49 60,-75 20,-27 44,-50 69,-72 -21,65 -99,100 -112,166 42,-31 90,-55 139,-75 -22,14 -42,30 -62,46 -16,14 -31,29 -49,40 -18,10 -40,16 -61,10 39,7 78,15 116,25 11,3 21,6 29,14 -54,12 -112,4 -161,-21 11,22 26,42 43,59 -17,-4 -32,-16 -43,-29 -12,-14 -23,-28 -36,-39 -4,-3 -9,-6 -13,-4 -3,2 -4,7 -5,11 -4,26 -8,53 -12,80"/>
  <path class="fil0 str0" d="M217 306c-4,-7 -6,-16 -5,-25 1,-4 2,-8 6,-9 4,-1 8,1 10,4 2,3 3,7 6,10 -2,-4 -2,-9 0,-13 2,-4 6,-7 10,-6 5,0 7,5 8,9 1,4 0,8 -1,12 6,-8 15,-14 25,-16 3,0 7,0 9,2 2,3 2,7 -1,10 -2,3 -6,4 -9,6 9,-4 20,-6 30,-4 3,0 6,1 8,4 2,3 0,7 -3,10 -3,2 -7,3 -11,4 -4,1 -8,3 -10,6 3,1 6,2 9,5 2,2 2,6 0,8 0,1 -2,2 -3,2 -7,3 -15,3 -22,-1"/>
 </g>
</svg>
