<?xml version="1.0" encoding="UTF-8"?>
<!DOCTYPE svg PUBLIC "-//W3C//DTD SVG 1.1//EN" "http://www.w3.org/Graphics/SVG/1.1/DTD/svg11.dtd">
<!-- Creator: CorelDRAW X8 -->
<svg xmlns="http://www.w3.org/2000/svg" xml:space="preserve" width="500px" height="500px" version="1.1" style="shape-rendering:geometricPrecision; text-rendering:geometricPrecision; image-rendering:optimizeQuality; fill-rule:evenodd; clip-rule:evenodd"
viewBox="0 0 500 500"
 xmlns:xlink="http://www.w3.org/1999/xlink">
 <defs>
  <style type="text/css">
   <![CDATA[
    .str0 {stroke:black;stroke-width:1.00006}
    .fil0 {fill:none}
   ]]>
  </style>
 </defs>
 <g id="Layer_x0020_1">
  <metadata id="CorelCorpID_0Corel-Layer"/>
  <path class="fil0 str0" d="M215 379c3,-16 3,-34 -1,-51 -2,-9 -7,-20 -17,-23 -8,-2 -17,2 -25,6 -19,8 -42,11 -60,1 30,4 60,-3 85,-19 -25,-13 -56,-8 -85,-13 -34,0 -82,-41 -83,-54 19,10 44,0 65,4 25,4 46,23 71,29 9,2 21,10 25,10 3,-2 -80,-55 -89,-61 -29,-18 -52,-45 -65,-77 109,51 165,129 167,126 2,-3 -42,-56 -62,-92 -20,-32 -32,-67 -45,-102 29,9 56,29 73,54 26,40 45,133 49,133 2,-1 -32,-154 -14,-203 5,1 30,83 39,123 3,26 -1,53 3,79 9,-2 2,-80 33,-170 28,75 -5,158 -1,163 4,1 25,-65 46,-88 -2,34 -37,97 -35,99 7,-2 30,-57 43,-80 17,-32 41,-60 46,-95 12,13 14,32 13,50 -1,29 -10,59 -25,84 -14,24 -39,48 -46,69 27,-17 42,-49 60,-75 20,-27 63,-72 69,-72 -21,65 -99,100 -112,166 27,-23 137,-80 139,-76 -43,29 -71,60 -111,87 -10,6 -56,5 -47,12 63,7 113,19 131,37 -54,12 -112,4 -161,-21 12,29 44,56 43,58 -35,-8 -52,-45 -79,-67 -11,-9 -15,-5 -18,7 -4,26 -8,53 -12,80"/>
  <path class="fil0 str0" d="M213 302c-4,-7 -6,-16 -5,-25 3,-10 11,-13 16,-5 2,2 3,5 4,8 2,2 0,-8 2,-11 7,-14 24,-1 17,15 6,-8 15,-14 25,-16 16,0 12,10 2,16 -1,4 20,-4 27,-2 9,0 12,7 5,14 -6,4 -16,3 -21,10 0,2 8,2 11,5 4,10 -14,16 -27,9"/>
 </g>
</svg>
