<?xml version="1.0" encoding="utf-8"?>
<!-- Generator: Adobe Illustrator 19.0.0, SVG Export Plug-In . SVG Version: 6.00 Build 0)  -->
<svg version="1.1" id="Layer_1" xmlns="http://www.w3.org/2000/svg" xmlns:xlink="http://www.w3.org/1999/xlink" x="0px" y="0px"
	 viewBox="-55 147 500 500" style="enable-background:new -55 147 500 500;" xml:space="preserve">
<style type="text/css">
	.st0{fill:none;stroke:#000000;stroke-width:1.0001;}
</style>
<g id="Layer_x0020_1">
	<line class="st0" x1="143" y1="437" x2="145" y2="437"/>
	<path class="st0" d="M146,432c-11,10-12,26-13,41c-1,41-1,82,3,123c0,5,2,11,7,13s11-3,14-7c27-33,39-76,37-119c0-10-1-20-5-29
		c-3-7-9-16-17-19C168,433,149,430,146,432z"/>
	<path class="st0" d="M149,431c-8,1-13-8-14-15c-7-28-2-56,0-84c4-45,1-91-6-135"/>
	<path class="st0" d="M150,433c2-33,4-65,7-98c3-46,5-91,2-136"/>
	<path class="st0" d="M164,438c4-6,7-12,10-19c5-11,8-23,11-35c7-32,15-63,17-95c3-26,1-52,8-77c-2,0-4,1-4,3"/>
	<path class="st0" d="M176,440c13-8,26-17,35-30c8-12,12-26,16-40c14-51,29-102,34-155c0-1,0-3-2-3c-1-1-1,2,0,1"/>
	<path class="st0" d="M183,454l14-4c9-1,18-3,26-8c12-6,21-18,28-30c28-44,48-93,58-143c6-25,9-50,22-72"/>
	<path class="st0" d="M139,449c-1,1-3,0-4-1c-18-13-28-35-32-58c-3-22-2-45-1-68c0-35-2-71-8-106"/>
	<path class="st0" d="M188,448c16-6,30-17,40-30c11-13,18-29,24-45c15-37,24-76,38-114c10-23,21-47,22-72c0-2-3-4-3-2"/>
	<path class="st0" d="M174,438c25-31,39-70,48-108c9-39,12-79,20-118c0-2,1-5,3-4"/>
	<path class="st0" d="M158,432c8-61,31-119,33-179c1-12,1-25,9-34"/>
</g>
</svg>
