<?xml version="1.0" encoding="UTF-8"?>
<!DOCTYPE svg PUBLIC "-//W3C//DTD SVG 1.1//EN" "http://www.w3.org/Graphics/SVG/1.1/DTD/svg11.dtd">
<!-- Creator: CorelDRAW X8 -->
<svg xmlns="http://www.w3.org/2000/svg" xml:space="preserve" width="500px" height="500px" version="1.1" style="shape-rendering:geometricPrecision; text-rendering:geometricPrecision; image-rendering:optimizeQuality; fill-rule:evenodd; clip-rule:evenodd"
viewBox="0 0 500 500"
 xmlns:xlink="http://www.w3.org/1999/xlink">
 <defs>
  <style type="text/css">
   <![CDATA[
    .str0 {stroke:black;stroke-width:1.00006}
    .fil0 {fill:none;fill-rule:nonzero}
   ]]>
  </style>
 </defs>
 <g id="Layer_x0020_1">
  <metadata id="CorelCorpID_0Corel-Layer"/>
  <path class="fil0 str0" d="M167 31c1,-2 0,-5 -2,-6 -1,14 6,27 12,39 13,23 26,47 39,70 2,4 4,9 6,14 2,11 -2,22 -4,33 -10,50 18,98 23,149 1,12 1,25 8,34 -1,-5 -5,-10 -9,-14 -3,18 -6,36 -8,54 -1,9 -2,18 -1,27 2,16 10,31 6,47"/>
  <path class="fil0 str0" d="M244 322c4,-8 -1,-18 -4,-27 -5,-19 4,-39 7,-59 4,-24 1,-49 0,-73 0,-47 11,-95 0,-140 -2,2 -4,5 -6,7"/>
  <path class="fil0 str0" d="M225 416c-1,2 -4,1 -5,0 -1,-2 -1,-4 -1,-6 -1,-11 -8,-21 -13,-31 -10,-19 -12,-41 -18,-62 -6,-21 -16,-41 -20,-62 -3,-16 -4,-31 -4,-47 0,-13 0,-26 0,-39 0,-2 0,-4 2,-4 2,0 1,3 0,2"/>
  <path class="fil0 str0" d="M257 333c3,-3 7,-5 11,-8 19,-11 36,-27 52,-43 7,-5 13,-11 18,-18 19,-21 29,-49 31,-77"/>
  <path class="fil0 str0" d="M239 33c0,-4 -5,-7 -9,-5 -4,1 -6,6 -4,10 2,4 7,5 11,2 1,-3 0,-6 -2,-8"/>
  <path class="fil0 str0" d="M251 68c4,-1 8,-3 12,-4 0,0 1,0 1,0 1,-1 0,-2 0,-3 -1,-3 0,-6 2,-8 2,-2 5,-4 8,-5 2,-1 5,-2 7,-2 3,0 6,2 7,4 1,3 -1,6 -3,9 -3,4 -6,8 -11,10 -5,1 -12,-1 -13,-6"/>
  <path class="fil0 str0" d="M247 122c-3,-1 -6,-3 -8,-4 2,-4 0,-10 -4,-13 -4,-2 -10,1 -12,6 -2,4 2,10 6,11 2,0 4,0 6,0 2,0 4,0 6,-2 1,-1 0,-5 -2,-5"/>
  <path class="fil0 str0" d="M252 101c9,-2 18,-5 28,-8 -2,3 -3,7 -1,10 1,3 5,5 8,5 1,0 2,0 2,0 1,-1 1,-2 1,-3 1,-5 -1,-11 -5,-14 -4,-3 -11,-3 -13,2"/>
  <path class="fil0 str0" d="M246 174c-3,0 -7,-1 -11,-1 1,-3 -2,-6 -5,-6 -3,0 -6,2 -6,5 -1,3 -1,6 1,9 1,1 2,3 4,3 3,2 7,0 8,-3 2,-3 1,-7 -2,-8"/>
  <path class="fil0 str0" d="M212 133c-7,1 -13,2 -20,4 2,0 4,0 4,-2 -5,-4 -13,-2 -18,2 -2,1 -3,1 -3,3 -1,2 -1,4 0,6 2,4 6,7 10,8 4,0 8,-2 10,-6 2,-3 -1,-9 -5,-9"/>
  <path class="fil0 str0" d="M286 319c-2,-7 -3,-14 -4,-21 0,-1 -1,-1 -1,-1 -1,0 -1,1 0,0"/>
  <path class="fil0 str0" d="M283 289c-6,2 -13,-1 -17,-6 -3,-6 -1,-14 5,-17 2,-1 4,-1 6,0 1,1 3,2 4,4 2,4 4,8 5,12 1,5 -1,10 -5,12"/>
  <path class="fil0 str0" d="M327 284c-1,-1 -2,-2 -2,-2 5,2 11,2 16,1"/>
  <path class="fil0 str0" d="M343 287c-3,-1 -7,3 -7,7 1,3 4,6 8,7 7,2 16,-2 15,-9 0,-8 -8,-12 -15,-14 -1,0 -2,-1 -4,0 -1,1 -1,3 0,3"/>
  <path class="fil0 str0" d="M343 257c-5,-4 -11,-9 -16,-13"/>
  <path class="fil0 str0" d="M327 243c0,1 -1,1 -2,1 -1,-1 -1,-2 -1,-3 0,-3 -1,-7 -4,-9 -4,-3 -11,0 -13,5 -1,5 0,11 4,15 1,1 3,2 5,3 4,1 8,-3 7,-8"/>
  <path class="fil0 str0" d="M361 233c9,-1 17,-4 25,-7 1,0 1,-1 2,0 0,0 -1,1 -1,1"/>
  <path class="fil0 str0" d="M388 228c-3,4 0,9 4,10 4,1 9,-2 9,-7 1,-4 -2,-8 -5,-10 -4,-2 -11,0 -11,4"/>
  <path class="fil0 str0" d="M365 216c-5,-3 -10,-6 -16,-9"/>
  <path class="fil0 str0" d="M350 210c1,-6 -3,-13 -9,-15 -3,-1 -5,-1 -7,-1 -5,1 -9,7 -8,12 0,5 4,9 9,9 5,1 10,-3 12,-8"/>
  <path class="fil0 str0" d="M246 228c7,-3 15,-6 23,-8 -4,1 -5,5 -3,8 1,2 5,3 8,2 3,-1 5,-4 6,-7 0,-4 -2,-9 -5,-11 -4,-1 -9,0 -10,4"/>
  <path class="fil0 str0" d="M249 194c10,-7 21,-13 32,-17"/>
  <path class="fil0 str0" d="M285 175c-2,1 -4,1 -6,3 -1,2 -1,5 0,6 1,0 2,1 3,1 4,0 8,0 12,-1 3,0 6,-2 7,-5 1,-3 -1,-6 -3,-8 -3,-2 -7,-4 -11,-3 -4,1 -7,4 -8,8"/>
  <path class="fil0 str0" d="M246 150c11,0 21,-1 31,-4 -3,2 -2,7 0,9 3,2 6,2 10,2 3,-1 7,-2 9,-5 2,-5 -1,-10 -5,-14 0,-1 -1,-2 -2,-2 -1,0 -2,0 -3,1 -5,2 -10,6 -14,11"/>
  <path class="fil0 str0" d="M223 246c0,-1 0,-3 -1,-3 -6,2 -13,3 -19,5 1,0 2,0 3,0 -2,-8 -8,-17 -16,-18 -2,0 -5,1 -6,3 -1,1 -1,2 -1,3 0,4 0,7 2,10 2,4 6,6 10,5 4,0 8,-3 9,-7"/>
  <path class="fil0 str0" d="M173 284c1,0 1,-1 1,-3 -4,3 -8,5 -13,8 0,0 -1,0 -1,1 0,1 1,2 1,1 -3,-5 -6,-9 -11,-10 -6,-2 -12,1 -13,6 -1,6 4,10 10,12 5,1 13,-3 13,-8"/>
  <path class="fil0 str0" d="M167 228c4,-3 9,-7 13,-10 6,3 14,2 18,-4 1,-1 2,-2 1,-4 0,-1 0,-1 -1,-2 -3,-2 -6,-5 -9,-5 -4,0 -7,2 -8,5 -1,3 0,7 3,9"/>
  <path class="fil0 str0" d="M165 202c-4,-2 -8,-5 -13,-7 0,1 1,2 2,2"/>
  <path class="fil0 str0" d="M150 196c1,1 2,1 3,1 1,-7 -4,-13 -10,-15 -2,-1 -4,-1 -5,0 -4,1 -4,6 -4,10 1,4 2,8 5,11 2,3 7,4 10,2 3,-2 4,-6 3,-10"/>
  <path class="fil0 str0" d="M165 172c0,1 1,-1 0,-1 -1,-1 -2,-1 -2,-1 -5,0 -5,-6 -9,-9 0,-1 -1,-1 -1,-1 0,1 0,2 0,1"/>
  <path class="fil0 str0" d="M154 163c-1,1 -3,0 -3,-1 1,-3 1,-6 1,-10 0,-3 0,-7 -2,-10 -4,-5 -12,-5 -16,0 -3,5 -2,12 3,16 4,3 11,3 16,-1"/>
  <path class="fil0 str0" d="M190 319c3,-6 8,-12 13,-17"/>
  <path class="fil0 str0" d="M201 302c0,-1 -1,0 -1,1 0,1 1,1 2,1 6,3 14,-4 14,-11 -1,-7 -9,-12 -16,-10 -6,3 -9,12 -5,18"/>
  <path class="fil0 str0" d="M201 358c-7,4 -15,7 -23,9"/>
  <path class="fil0 str0" d="M177 371c-2,-4 -4,-8 -8,-11 -3,-3 -8,-4 -12,-2 -6,2 -9,9 -7,14 2,6 8,10 13,9 6,0 12,-4 14,-10 0,-2 1,-4 1,-6"/>
  <path class="fil0 str0" d="M234 400c-1,-1 1,-2 2,-2 8,-2 16,-3 23,-4 -2,2 -1,6 2,8 4,2 10,-3 9,-8 -2,-4 -10,-5 -12,0 1,0 2,0 3,1"/>
  <path class="fil0 str0" d="M267 329c0,-1 -1,-2 -3,-2 3,10 8,19 15,26"/>
  <path class="fil0 str0" d="M282 359c-3,1 -5,3 -6,5 -1,5 1,10 6,12 4,2 10,-1 12,-5 1,-4 0,-9 -3,-12 -3,-3 -8,-4 -12,-4 0,1 0,3 -1,4"/>
  <path class="fil0 str0" d="M236 377c-5,-2 -9,-5 -13,-7 -1,-1 -1,-1 -1,-2 0,0 1,0 1,0"/>
  <path class="fil0 str0" d="M220 367c1,-4 6,-7 5,-11 0,-3 -3,-5 -6,-5 -7,-1 -15,7 -13,15 3,7 13,10 19,5"/>
 </g>
</svg>
