<?xml version="1.0" encoding="UTF-8"?>
<!DOCTYPE svg PUBLIC "-//W3C//DTD SVG 1.1//EN" "http://www.w3.org/Graphics/SVG/1.1/DTD/svg11.dtd">
<!-- Creator: CorelDRAW X8 -->
<svg xmlns="http://www.w3.org/2000/svg" xml:space="preserve" width="500px" height="500px" version="1.1" style="shape-rendering:geometricPrecision; text-rendering:geometricPrecision; image-rendering:optimizeQuality; fill-rule:evenodd; clip-rule:evenodd"
viewBox="0 0 500 500"
 xmlns:xlink="http://www.w3.org/1999/xlink">
 <defs>
  <style type="text/css">
   <![CDATA[
    .str0 {stroke:black;stroke-width:1.00006}
    .fil0 {fill:none;fill-rule:nonzero}
   ]]>
  </style>
 </defs>
 <g id="Layer_x0020_1">
  <metadata id="CorelCorpID_0Corel-Layer"/>
  <path class="fil0 str0" d="M189 179c1,11 8,21 19,26"/>
  <path class="fil0 str0" d="M202 166c-4,11 0,25 10,32"/>
  <path class="fil0 str0" d="M217 165c-4,10 -3,22 4,31"/>
  <path class="fil0 str0" d="M175 199c7,11 19,18 32,20"/>
  <path class="fil0 str0" d="M178 222c-1,0 -1,-1 -2,-1 12,7 26,9 39,6"/>
  <path class="fil0 str0" d="M182 241c10,4 23,2 32,-4"/>
  <path class="fil0 str0" d="M215 253c-9,9 -22,15 -36,15"/>
  <path class="fil0 str0" d="M226 255c-4,10 -12,18 -23,21"/>
  <path class="fil0 str0" d="M222 246c7,-11 20,-18 32,-17"/>
  <path class="fil0 str0" d="M233 253c0,-1 0,-2 0,-3 12,2 23,12 25,24"/>
  <path class="fil0 str0" d="M228 269c5,7 4,17 -2,23"/>
  <path class="fil0 str0" d="M252 240c7,2 14,7 18,13 4,6 5,14 4,21"/>
  <path class="fil0 str0" d="M231 225c4,-7 11,-12 19,-14 7,-1 16,1 22,6"/>
  <path class="fil0 str0" d="M222 219c6,-14 21,-22 35,-20"/>
  <path class="fil0 str0" d="M235 165c-6,8 -8,20 -4,30"/>
  <path class="fil0 str0" d="M243 188c8,-10 23,-15 36,-11"/>
  <path class="fil0 str0" d="M219 206c-1,3 -2,7 -2,11"/>
  <path class="fil0 str0" d="M273 232c10,-5 18,-14 22,-24"/>
  <path class="fil0 str0" d="M280 216c4,-9 6,-19 4,-28"/>
  <path class="fil0 str0" d="M265 197c5,-14 19,-24 34,-25"/>
  <path class="fil0 str0" d="M270 152c-6,7 -11,15 -13,23"/>
  <path class="fil0 str0" d="M247 149c-4,9 -6,20 -4,31"/>
  <path class="fil0 str0" d="M227 146c-3,9 -4,18 -5,26"/>
  <path class="fil0 str0" d="M213 147c-4,8 -5,19 -3,28"/>
  <path class="fil0 str0" d="M187 156c0,0 -1,-1 -1,-1 3,7 6,14 8,20"/>
  <path class="fil0 str0" d="M170 178c5,8 11,16 16,24"/>
  <line class="fil0 str0" x1="157" y1="202" x2="179" y2= "215" />
  <path class="fil0 str0" d="M158 231c9,0 19,2 27,5"/>
  <path class="fil0 str0" d="M163 257c11,-1 22,-2 33,-3"/>
  <path class="fil0 str0" d="M197 272c-3,1 -5,4 -7,6 -5,8 -9,16 -13,25"/>
  <path class="fil0 str0" d="M209 283c0,-1 -1,-2 -2,-1 -1,0 -2,1 -3,2 -3,7 -5,15 -6,23"/>
  <path class="fil0 str0" d="M239 274c1,-1 1,-1 1,-2 3,10 3,20 0,30"/>
  <path class="fil0 str0" d="M264 258c-1,5 0,11 1,17"/>
  <path class="fil0 str0" d="M285 244c4,13 4,26 1,38"/>
  <path class="fil0 str0" d="M297 235c-1,-1 0,-2 0,-2 5,11 5,24 1,36"/>
  <path class="fil0 str0" d="M305 226c6,-6 15,-9 23,-7"/>
  <path class="fil0 str0" d="M307 248c6,-7 17,-9 25,-4"/>
  <path class="fil0 str0" d="M309 273c0,-1 0,-1 0,-1 1,9 0,18 -4,25"/>
  <path class="fil0 str0" d="M274 285c1,10 2,19 1,28"/>
  <path class="fil0 str0" d="M258 289c-2,9 -5,19 -7,29"/>
  <path class="fil0 str0" d="M226 298c-4,3 -7,9 -7,14"/>
  <path class="fil0 str0" d="M216 290c-5,6 -8,13 -8,20"/>
  <path class="fil0 str0" d="M182 275c-1,-1 -3,-2 -4,-1 -2,0 -3,1 -4,3 -5,5 -9,12 -11,19"/>
  <path class="fil0 str0" d="M179 244c-12,0 -24,3 -34,10"/>
  <path class="fil0 str0" d="M163 221c-6,-4 -13,-3 -19,1"/>
  <path class="fil0 str0" d="M152 173c3,8 8,14 15,18"/>
  <path class="fil0 str0" d="M172 152c3,11 7,21 13,31"/>
  <path class="fil0 str0" d="M197 137c-1,7 0,15 2,22"/>
  <path class="fil0 str0" d="M241 131c-6,9 -8,20 -6,30"/>
  <path class="fil0 str0" d="M260 139c-5,8 -8,18 -8,28"/>
  <path class="fil0 str0" d="M294 149c-10,5 -18,14 -21,24"/>
  <path class="fil0 str0" d="M316 172c0,-2 -2,-3 -3,-2 -1,0 -2,1 -3,2 -6,8 -11,17 -14,27"/>
  <path class="fil0 str0" d="M328 190c-2,-1 -4,-1 -5,0 -2,0 -3,2 -4,3 -6,7 -11,16 -14,24"/>
  <path class="fil0 str0" d="M310 234c1,-2 3,-3 5,-3 11,-1 23,1 33,6"/>
  <path class="fil0 str0" d="M317 258c8,6 13,15 14,25"/>
  <path class="fil0 str0" d="M316 283c-1,9 -2,18 -3,26"/>
  <path class="fil0 str0" d="M287 291c0,9 -1,18 -1,27"/>
  <path class="fil0 str0" d="M169 267c0,-1 -1,-2 -3,-2 -1,0 -2,1 -4,2 -10,7 -19,18 -23,31"/>
  <path class="fil0 str0" d="M187 292c-3,13 -2,26 2,38"/>
  <path class="fil0 str0" d="M231 310c-2,10 2,21 11,27"/>
  <path class="fil0 str0" d="M259 308c-1,5 -1,10 2,14 2,5 6,8 11,9"/>
  <path class="fil0 str0" d="M298 307c1,9 -2,18 -8,23"/>
  <path class="fil0 str0" d="M152 261c-7,2 -13,8 -14,15"/>
 </g>
</svg>
