<?xml version="1.0" encoding="UTF-8"?>
<!DOCTYPE svg PUBLIC "-//W3C//DTD SVG 1.1//EN" "http://www.w3.org/Graphics/SVG/1.1/DTD/svg11.dtd">
<!-- Creator: CorelDRAW X8 -->
<svg xmlns="http://www.w3.org/2000/svg" xml:space="preserve" width="500px" height="500px" version="1.1" style="shape-rendering:geometricPrecision; text-rendering:geometricPrecision; image-rendering:optimizeQuality; fill-rule:evenodd; clip-rule:evenodd"
viewBox="0 0 500 500"
 xmlns:xlink="http://www.w3.org/1999/xlink">
 <defs>
  <style type="text/css">
   <![CDATA[
    .str0 {stroke:black;stroke-width:1.00006}
    .fil0 {fill:none;fill-rule:nonzero}
   ]]>
  </style>
 </defs>
 <g id="Layer_x0020_1">
  <metadata id="CorelCorpID_0Corel-Layer"/>
  <path class="fil0 str0" d="M61 446c1,-18 2,-36 6,-54 2,-15 7,-29 7,-44 1,-13 0,-26 -1,-39 -1,-46 16,-91 37,-132 2,-6 5,-11 9,-14 5,-4 11,-5 17,-6 8,-1 16,-2 24,1 7,2 14,8 14,16 -11,21 -16,45 -16,68 3,-5 7,-10 12,-14 -2,8 0,17 6,24 1,6 4,12 8,18 4,-7 8,-15 10,-23 1,17 9,33 21,43 3,-7 5,-14 8,-21 3,6 9,11 15,14 -4,-7 -6,-14 -8,-21 0,-2 -1,-4 0,-6 2,-5 11,-3 17,-4 12,-4 10,-27 23,-30 -11,-6 -23,-9 -35,-9 16,-4 32,-10 46,-19 -9,-6 -19,-9 -29,-9 4,-5 8,-9 10,-15 1,-6 0,-13 -5,-16 -4,-2 -9,-2 -13,-4 -4,-1 -7,-5 -11,-5 -4,0 -8,3 -11,4 -4,2 -10,-1 -9,-4 -7,7 -16,12 -26,13 -4,5 -7,10 -11,14"/>
  <path class="fil0 str0" d="M82 241c-6,-34 1,-70 19,-100 18,-29 46,-52 78,-64 33,-12 72,-13 100,7 2,1 2,-3 0,-3 -2,1 -3,3 -3,5 -1,18 5,35 17,48 4,-8 6,-18 5,-27 6,10 18,17 29,20 12,3 24,3 36,3l-4 -9c13,2 26,-4 34,-14 -1,-2 -2,-5 -2,-7 15,-2 29,-6 42,-13 -10,-2 -19,-5 -28,-10 4,-8 4,-17 2,-26 -1,-2 -2,-5 -4,-7 -3,-4 -8,-6 -14,-6 -27,-4 -56,5 -82,-4 -2,-1 -5,-2 -8,-1 -4,1 -5,6 -4,9 0,4 2,7 5,10 -9,1 -17,3 -26,5 -2,1 -4,2 -5,3 -4,4 -2,9 1,13 3,4 6,8 6,13"/>
  <path class="fil0 str0" d="M370 322c-4,-3 -3,-9 0,-12 4,-3 8,-3 13,-4 15,-1 30,-2 45,-4 6,-6 9,-14 11,-22 3,-8 5,-17 4,-25 -1,-9 -6,-17 -15,-19 5,-3 9,-5 13,-8 1,0 2,-1 2,-2 0,-1 -1,-2 -2,-2 -13,-10 -31,-13 -47,-10 -16,2 -31,10 -45,17 -10,6 -21,12 -31,19 -5,3 -10,6 -10,12 0,2 1,4 1,6 6,16 14,16 27,23 13,7 20,23 34,31z"/>
  <path class="fil0 str0" d="M307 266c-7,-2 -13,2 -18,6 -14,10 -28,21 -41,33 -13,10 -25,22 -32,36 -6,13 -9,27 -11,41 -3,27 -5,54 -6,81"/>
 </g>
</svg>
