<?xml version="1.0" encoding="UTF-8"?>
<!DOCTYPE svg PUBLIC "-//W3C//DTD SVG 1.1//EN" "http://www.w3.org/Graphics/SVG/1.1/DTD/svg11.dtd">
<!-- Creator: CorelDRAW X8 -->
<svg xmlns="http://www.w3.org/2000/svg" xml:space="preserve" width="500px" height="500px" version="1.1" style="shape-rendering:geometricPrecision; text-rendering:geometricPrecision; image-rendering:optimizeQuality; fill-rule:evenodd; clip-rule:evenodd"
viewBox="0 0 500 500"
 xmlns:xlink="http://www.w3.org/1999/xlink">
 <defs>
  <style type="text/css">
   <![CDATA[
    .str0 {stroke:black;stroke-width:1.00006}
    .fil0 {fill:none;fill-rule:nonzero}
   ]]>
  </style>
 </defs>
 <g id="Layer_x0020_1">
  <metadata id="CorelCorpID_0Corel-Layer"/>
  <path class="fil0 str0" d="M178 370c6,-45 12,-90 18,-136 1,-9 3,-19 -1,-28 -3,-8 -9,-15 -14,-22 -6,-8 -9,-18 -6,-26 6,7 12,14 18,21 -16,-30 -20,-66 -9,-99 6,31 11,62 16,93 -1,-20 -2,-40 -3,-60 3,13 7,26 14,38 -2,-19 -1,-38 5,-56 2,13 4,26 6,39 0,-24 5,-47 16,-68 0,15 0,29 1,44 1,-18 9,-36 22,-49 4,14 6,29 5,44 5,-7 11,-14 17,-21 1,-1 4,-3 6,-3 2,1 2,5 1,8 -2,9 -4,19 -7,28 9,-4 18,-9 24,-16 -1,11 -5,22 -12,31 14,-6 28,-12 41,-18 3,-1 8,-2 10,1 2,3 -1,7 -4,9 -11,11 -23,22 -35,33 13,-6 26,-12 39,-17 5,-3 13,-4 14,2 1,4 -3,6 -6,8l-33 21c13,-1 27,-3 40,-5 3,-1 7,-1 9,2 2,4 -2,8 -5,10 -14,8 -27,16 -41,25 15,-4 32,-3 46,4 -10,6 -21,12 -32,18 16,-2 31,0 45,7 -47,15 -96,24 -145,25 11,4 21,7 32,10 3,1 7,2 7,5 0,5 -5,6 -9,7 -17,2 -33,4 -50,6 4,-1 8,-2 12,-1 4,1 8,5 8,9 0,5 -7,9 -12,10 -6,0 -12,-1 -18,1 -9,5 -12,17 -12,28 -3,30 -5,60 -8,90"/>
 </g>
</svg>
