<?xml version="1.0" encoding="UTF-8"?>
<!DOCTYPE svg PUBLIC "-//W3C//DTD SVG 1.1//EN" "http://www.w3.org/Graphics/SVG/1.1/DTD/svg11.dtd">
<!-- Creator: CorelDRAW X8 -->
<svg xmlns="http://www.w3.org/2000/svg" xml:space="preserve" width="500px" height="500px" version="1.1" style="shape-rendering:geometricPrecision; text-rendering:geometricPrecision; image-rendering:optimizeQuality; fill-rule:evenodd; clip-rule:evenodd"
viewBox="0 0 500 500"
 xmlns:xlink="http://www.w3.org/1999/xlink">
 <defs>
  <style type="text/css">
   <![CDATA[
    .str0 {stroke:black;stroke-width:1.00006}
    .fil0 {fill:none;fill-rule:nonzero}
   ]]>
  </style>
 </defs>
 <g id="Layer_x0020_1">
  <metadata id="CorelCorpID_0Corel-Layer"/>
  <path class="fil0 str0" d="M169 40c-12,19 -16,42 -12,64 4,22 16,42 33,56 29,-28 34,-71 57,-104 8,-12 21,-24 35,-20 11,3 17,13 22,22 11,20 22,43 15,64 -2,7 -6,13 -7,21 0,9 7,18 12,26 11,20 15,45 8,68"/>
  <path class="fil0 str0" d="M215 125c15,-2 31,9 35,24 6,27 -24,53 -17,80 4,17 22,27 39,29 18,1 35,-5 52,-11"/>
  <path class="fil0 str0" d="M190 164c-29,23 -46,60 -43,96 -22,2 -40,20 -49,40 -8,21 -8,43 -5,65 2,22 7,44 8,66"/>
  <path class="fil0 str0" d="M145 263c24,1 42,24 47,47 5,24 0,48 -2,72 -3,23 -1,49 13,68"/>
  <path class="fil0 str0" d="M189 412c6,-10 20,-11 32,-10 11,2 23,5 34,0 10,-5 16,-17 17,-28 1,-11 -2,-23 -4,-34 -4,-27 -4,-54 -1,-81"/>
  <path class="fil0 str0" d="M266 304c19,-5 40,2 55,15 15,12 25,31 31,50 6,18 9,38 11,58 -1,-1 -1,-1 -2,-2"/>
  <path class="fil0 str0" d="M152 215c-15,-12 -34,-19 -53,-20"/>
  <path class="fil0 str0" d="M321 172c7,-12 20,-21 33,-25 14,-4 29,-2 42,5"/>
  <path class="fil0 str0" d="M310 71c12,-20 35,-34 59,-35"/>
 </g>
</svg>
