<?xml version="1.0" encoding="UTF-8"?>
<!DOCTYPE svg PUBLIC "-//W3C//DTD SVG 1.1//EN" "http://www.w3.org/Graphics/SVG/1.1/DTD/svg11.dtd">
<!-- Creator: CorelDRAW X8 -->
<svg xmlns="http://www.w3.org/2000/svg" xml:space="preserve" width="500px" height="500px" version="1.1" style="shape-rendering:geometricPrecision; text-rendering:geometricPrecision; image-rendering:optimizeQuality; fill-rule:evenodd; clip-rule:evenodd"
viewBox="0 0 500 500"
 xmlns:xlink="http://www.w3.org/1999/xlink">
 <defs>
  <style type="text/css">
   <![CDATA[
    .str0 {stroke:black;stroke-width:1.00006}
    .fil0 {fill:none;fill-rule:nonzero}
   ]]>
  </style>
 </defs>
 <g id="Layer_x0020_1">
  <metadata id="CorelCorpID_0Corel-Layer"/>
  <path class="fil0 str0" d="M229 119c-2,-17 -9,-33 -21,-44 -7,17 -3,39 10,53 7,-22 14,-43 21,-65 4,22 -2,46 -15,64 9,-15 21,-28 33,-40 6,-5 15,-10 20,-4 4,4 2,11 -1,15 -8,15 -24,26 -40,30 16,-12 40,-15 59,-8 -12,17 -39,23 -58,12 -18,-5 -36,-10 -55,-15 17,13 36,22 56,25 -25,-3 -51,0 -73,11 21,5 43,5 65,0 -38,-7 -78,1 -110,21 31,14 68,14 100,1 -22,6 -42,20 -55,38 -4,5 -7,12 -3,17 5,5 14,1 20,-4 14,-11 28,-22 43,-32 -14,23 -19,51 -15,77 21,-23 30,-56 25,-86 1,36 5,71 10,107 18,-35 20,-77 6,-114 9,25 18,51 27,76 2,6 5,12 11,13 8,1 12,-10 12,-18 -1,-32 -19,-62 -47,-77 29,23 67,33 103,27 -23,-25 -59,-38 -93,-34 30,-4 60,-12 88,-23 -29,-15 -66,-12 -93,6 2,-2 4,-4 6,-6"/>
  <path class="fil0 str0" d="M182 198c-24,5 -46,15 -65,29 -3,2 -6,5 -5,9 0,4 4,6 8,6 4,0 7,-1 10,-3 13,-8 25,-18 36,-28 -11,13 -22,26 -34,38 -2,3 -5,6 -6,10 -1,3 0,8 3,10 5,4 12,0 16,-5 11,-10 20,-21 27,-34 -9,15 -15,32 -16,49 2,2 6,1 8,0 3,-2 4,-5 6,-8 6,-12 10,-26 12,-39"/>
  <path class="fil0 str0" d="M156 257c-1,0 -1,-1 -2,-1 -14,11 -26,24 -36,38 -3,4 -6,9 -4,13 2,5 7,7 12,6 4,-1 8,-4 11,-7 8,-7 14,-15 19,-25 3,-5 4,-12 0,-16 -2,-3 -6,-3 -9,-5 -7,-5 -8,-15 -15,-19 -7,-4 -15,1 -21,6 -22,16 -40,36 -55,58 -2,2 -3,5 -2,8 1,3 5,4 9,4 13,-1 26,-7 35,-17 4,-4 7,-9 10,-14 4,-4 9,-8 15,-8"/>
  <path class="fil0 str0" d="M172 322c0,4 2,8 5,10 4,3 10,1 13,-2 4,-4 5,-9 6,-14 3,-12 5,-25 5,-37 0,15 0,29 1,44 0,5 0,11 4,14 4,5 11,5 16,2 6,-3 9,-8 12,-14 8,-18 8,-53 -19,-54 -24,-1 -42,30 -43,51z"/>
  <path class="fil0 str0" d="M266 309c4,4 10,6 15,4 6,-1 9,-6 11,-11 4,-14 -1,-51 -23,-45 -22,6 -16,39 -3,52z"/>
  <path class="fil0 str0" d="M291 236c4,16 17,29 33,33 10,2 23,0 28,-9 3,-5 3,-12 1,-17 -2,-6 -6,-11 -10,-16 -9,-10 -20,-18 -33,-23 -3,-2 -6,-3 -10,-2 -3,1 -5,5 -3,8"/>
  <path class="fil0 str0" d="M379 148c7,3 14,9 13,17 -1,4 -3,7 -6,9 -3,2 -6,3 -9,4 -15,5 -48,16 -38,-11 7,-16 23,-27 40,-19z"/>
  <path class="fil0 str0" d="M337 80c7,-1 13,-1 19,2 5,3 10,8 10,14 0,6 -2,11 -6,15 -4,3 -9,6 -14,8 -13,5 -60,25 -59,-2 2,-21 33,-36 50,-37z"/>
  <path class="fil0 str0" d="M298 50c6,-4 12,-9 18,-6 4,2 6,6 6,10 1,4 -1,8 -3,12 -4,9 -25,32 -38,24 -16,-11 10,-34 17,-40z"/>
  <path class="fil0 str0" d="M152 105c-5,0 -11,1 -15,4 -3,3 -5,6 -6,9 -1,2 -1,4 0,6 2,7 11,10 19,12 27,5 31,-33 2,-31z"/>
  <path class="fil0 str0" d="M330 336c0,-15 -3,-48 -20,-54 -15,-6 -31,8 -33,22 -1,14 9,31 18,42 14,16 35,15 35,-10z"/>
  <path class="fil0 str0" d="M243 365c1,5 3,11 7,16 3,5 10,8 16,7 9,-3 12,-14 13,-23 1,-13 1,-50 -19,-49 -22,1 -21,34 -17,49z"/>
  <path class="fil0 str0" d="M216 421c4,7 12,13 19,9 4,-2 6,-7 6,-12 2,-11 1,-44 -17,-42 -18,1 -14,35 -8,45z"/>
  <path class="fil0 str0" d="M205 344c-5,-4 -11,-2 -15,1 -5,4 -7,9 -8,14 -1,5 -2,9 -1,13 1,5 4,9 8,10 6,2 13,-2 16,-8 3,-5 3,-12 2,-18 0,-5 0,-11 -3,-15 -4,-5 -10,-7 -14,-4"/>
  <path class="fil0 str0" d="M144 332c5,3 11,2 16,-1 1,0 1,-1 2,-1 4,-4 7,-10 8,-17 9,-41 -51,1 -26,19z"/>
  <path class="fil0 str0" d="M89 348c25,19 49,-35 25,-48 -24,-12 -43,35 -25,48z"/>
  <path class="fil0 str0" d="M345 325c7,3 17,1 21,-6 0,0 0,0 0,0 4,-7 1,-16 -5,-21 -12,-12 -33,21 -16,27z"/>
  <path class="fil0 str0" d="M379 265c8,-1 15,-7 19,-14 16,-27 1,-76 -37,-59 -30,15 -14,78 18,73z"/>
  <path class="fil0 str0" d="M411 306c16,-36 -37,-53 -50,-22 -12,30 34,58 50,22z"/>
  <path class="fil0 str0" d="M324 357c-4,10 -4,20 0,30 4,8 14,16 23,12 6,-2 9,-8 11,-14 2,-11 1,-23 -8,-31 -8,-7 -23,-7 -28,3"/>
  <path class="fil0 str0" d="M212 167c-4,10 2,23 12,27 2,1 4,2 5,2 19,3 40,-19 26,-35 -12,-13 -37,-11 -43,6z"/>
 </g>
</svg>
