<?xml version="1.0" encoding="UTF-8"?>
<!DOCTYPE svg PUBLIC "-//W3C//DTD SVG 1.1//EN" "http://www.w3.org/Graphics/SVG/1.1/DTD/svg11.dtd">
<!-- Creator: CorelDRAW X8 -->
<svg xmlns="http://www.w3.org/2000/svg" xml:space="preserve" width="500px" height="500px" version="1.1" style="shape-rendering:geometricPrecision; text-rendering:geometricPrecision; image-rendering:optimizeQuality; fill-rule:evenodd; clip-rule:evenodd"
viewBox="0 0 500 500"
 xmlns:xlink="http://www.w3.org/1999/xlink">
 <defs>
  <style type="text/css">
   <![CDATA[
    .str0 {stroke:black;stroke-width:1.00006}
    .fil0 {fill:none;fill-rule:nonzero}
   ]]>
  </style>
 </defs>
 <g id="Layer_x0020_1">
  <metadata id="CorelCorpID_0Corel-Layer"/>
  <path class="fil0 str0" d="M258 50c-19,-10 -43,-8 -62,3 -19,11 -33,29 -43,48 -10,19 -17,40 -26,60 20,-26 42,-49 65,-71 -16,31 -31,62 -47,93 18,-22 36,-45 54,-68 7,-8 14,-17 25,-19 6,18 12,37 5,55 -7,15 -22,25 -35,36 -26,23 -42,58 -41,93l49 -59c11,-14 23,-28 31,-44 8,-16 13,-34 10,-52 -2,-9 -6,-20 0,-28 5,-7 17,-7 25,-4 28,8 49,33 53,62 1,-33 -20,-65 -50,-78 -4,-2 -9,-3 -13,-1 -5,3 -6,11 -6,17 3,45 15,90 36,131 3,-36 6,-72 4,-108 0,-12 -2,-24 -7,-34 -5,-11 -15,-19 -27,-20 12,-7 28,-8 40,-2 13,6 22,18 25,32 4,-14 -7,-30 -20,-35 -14,-6 -30,-5 -44,-4 4,-9 6,-19 6,-28 0,-3 0,-6 -3,-7 -2,-1 -5,2 -6,5 -4,8 -7,17 -8,26 1,-10 -5,-20 -13,-25 0,9 0,18 0,26"/>
  <path class="fil0 str0" d="M215 94c-13,10 -18,27 -16,43 2,16 10,30 19,44 8,13 17,27 22,42 8,24 4,51 -2,76 -7,27 -16,52 -28,77 -7,15 -12,32 -14,50 8,-20 19,-38 34,-53 17,22 28,48 46,69 12,13 27,25 44,26 -24,-20 -43,-46 -56,-75 6,1 10,7 14,12 4,5 11,9 15,5 3,-2 4,-7 2,-10 -1,-3 -4,-6 -7,-9 9,5 17,10 25,15 -3,-30 -46,-42 -52,-72 -2,-11 3,-23 5,-35 5,-31 -7,-62 -2,-93 5,-25 19,-49 16,-74 -2,-15 -11,-31 -7,-46"/>
 </g>
</svg>
