<?xml version="1.0" encoding="UTF-8"?>
<!DOCTYPE svg PUBLIC "-//W3C//DTD SVG 1.1//EN" "http://www.w3.org/Graphics/SVG/1.1/DTD/svg11.dtd">
<!-- Creator: CorelDRAW X8 -->
<svg xmlns="http://www.w3.org/2000/svg" xml:space="preserve" width="500px" height="500px" version="1.1" style="shape-rendering:geometricPrecision; text-rendering:geometricPrecision; image-rendering:optimizeQuality; fill-rule:evenodd; clip-rule:evenodd"
viewBox="0 0 500 500"
 xmlns:xlink="http://www.w3.org/1999/xlink">
 <defs>
  <style type="text/css">
   <![CDATA[
    .str0 {stroke:black;stroke-width:1.00006}
    .fil0 {fill:none;fill-rule:nonzero}
   ]]>
  </style>
 </defs>
 <g id="Layer_x0020_1">
  <metadata id="CorelCorpID_0Corel-Layer"/>
  <path class="fil0 str0" d="M241 156c-11,-20 -25,-37 -41,-53 0,16 3,32 8,47 3,6 6,13 11,16 6,3 14,2 17,-4 1,-11 5,-21 12,-29 -21,-19 -36,-45 -41,-74 11,10 22,21 31,33 9,12 16,27 16,42 6,-31 6,-63 -1,-93 8,12 17,24 21,39 3,14 1,31 -10,41 11,-3 13,-16 15,-27 4,-26 13,-51 26,-73 10,16 12,37 6,56 -6,18 -19,34 -37,43 13,-2 24,11 25,24 2,12 -4,25 -9,37 -5,-7 -16,-7 -23,-2 -6,5 -10,13 -13,21 -5,13 -11,28 -7,41 14,-32 38,-60 67,-79 5,45 -9,91 -39,126 -20,-15 -25,-42 -30,-66 -5,-25 -14,-52 -37,-62 -4,34 -8,69 2,102 2,7 5,14 10,19 5,5 12,8 19,6 -3,-14 3,-30 14,-39 14,30 18,65 11,97 -15,-23 -35,-43 -58,-58 -9,44 -11,89 -6,134 2,14 6,30 18,36 5,-30 11,-60 23,-88 11,-27 29,-53 53,-72 4,-3 10,-6 14,-2 2,2 2,5 3,8 4,53 2,106 -8,158"/>
 </g>
</svg>
