<?xml version="1.0" encoding="UTF-8"?>
<!DOCTYPE svg PUBLIC "-//W3C//DTD SVG 1.1//EN" "http://www.w3.org/Graphics/SVG/1.1/DTD/svg11.dtd">
<!-- Creator: CorelDRAW X8 -->
<svg xmlns="http://www.w3.org/2000/svg" xml:space="preserve" width="500px" height="500px" version="1.1" style="shape-rendering:geometricPrecision; text-rendering:geometricPrecision; image-rendering:optimizeQuality; fill-rule:evenodd; clip-rule:evenodd"
viewBox="0 0 500 500"
 xmlns:xlink="http://www.w3.org/1999/xlink">
 <defs>
  <style type="text/css">
   <![CDATA[
    .str0 {stroke:black;stroke-width:1.00006}
    .fil0 {fill:none;fill-rule:nonzero}
   ]]>
  </style>
 </defs>
 <g id="Layer_x0020_1">
  <metadata id="CorelCorpID_0Corel-Layer"/>
  <path class="fil0 str0" d="M69 266c10,-5 19,-9 29,-13 -5,-38 -10,-78 3,-115 2,-5 4,-11 8,-15 4,-4 10,-6 15,-5 10,3 13,15 14,25 2,37 0,73 -8,109 7,7 20,2 25,-7 5,-9 4,-19 2,-29 -2,-18 -5,-36 -7,-54 -2,-15 -4,-31 6,-41 9,-11 25,-12 37,-5 12,7 19,21 21,34 2,14 0,28 -3,41 -4,13 -8,27 -9,40 -1,6 -1,12 1,18 2,6 7,10 13,11 6,0 11,-5 14,-10 3,-5 3,-11 4,-17 3,-36 3,-72 2,-107 0,-10 0,-20 6,-26 4,-6 12,-8 20,-7 17,2 30,16 36,33 5,16 3,34 -1,50 -4,17 -10,33 -12,50 -1,7 -2,14 2,19 6,8 17,8 26,8 11,-1 24,-2 28,-12 2,-5 1,-10 1,-14 -3,-21 -6,-41 -8,-61 -2,-18 -4,-39 9,-52 12,-11 31,-11 44,-2 14,8 21,24 22,40 2,16 -2,31 -7,47 -5,15 -11,29 -16,44 -1,5 -2,10 -1,14 1,5 6,8 11,7"/>
  <path class="fil0 str0" d="M79 335c8,-10 21,-16 33,-16 15,-1 29,6 43,10 20,6 41,7 61,3 12,-2 23,-6 35,-7 8,-1 15,-1 23,0 43,2 85,4 128,6 -1,-1 -1,-2 -2,-3"/>
  <path class="fil0 str0" d="M64 371c7,-9 20,-11 31,-11 32,0 63,15 96,17 27,3 55,-3 82,-7 44,-7 88,-8 132,-4 -1,0 -2,-1 -3,-2"/>
 </g>
</svg>
