<?xml version="1.0" encoding="UTF-8"?>
<!DOCTYPE svg PUBLIC "-//W3C//DTD SVG 1.1//EN" "http://www.w3.org/Graphics/SVG/1.1/DTD/svg11.dtd">
<!-- Creator: CorelDRAW X8 -->
<svg xmlns="http://www.w3.org/2000/svg" xml:space="preserve" width="500px" height="500px" version="1.1" style="shape-rendering:geometricPrecision; text-rendering:geometricPrecision; image-rendering:optimizeQuality; fill-rule:evenodd; clip-rule:evenodd"
viewBox="0 0 500 500"
 xmlns:xlink="http://www.w3.org/1999/xlink">
 <defs>
  <style type="text/css">
   <![CDATA[
    .str0 {stroke:black;stroke-width:1.00006}
    .fil0 {fill:none;fill-rule:nonzero}
   ]]>
  </style>
 </defs>
 <g id="Layer_x0020_1">
  <metadata id="CorelCorpID_0Corel-Layer"/>
  <path class="fil0 str0" d="M194 137c3,5 6,10 10,16 9,-5 21,-2 30,3 10,5 17,13 25,20 11,-17 32,-28 53,-27 5,-8 13,-14 22,-17 -18,-2 -35,-11 -45,-26 -6,10 -15,20 -26,23 -12,2 -25,-5 -27,-17 -4,8 -6,13 -14,17 -3,2 -25,13 -28,8z"/>
  <path class="fil0 str0" d="M192 141c3,34 23,64 36,95 10,24 16,50 18,76"/>
  <path class="fil0 str0" d="M205 155c3,19 19,33 29,49 18,28 19,62 19,95"/>
  <path class="fil0 str0" d="M257 177c20,49 21,106 1,155l4 -7"/>
  <path class="fil0 str0" d="M309 153c13,58 1,120 -33,169"/>
  <path class="fil0 str0" d="M338 135c-1,-1 -3,-2 -4,-3 11,26 11,55 8,82 -3,22 -6,45 -16,65 -10,19 -28,36 -50,41"/>
 </g>
</svg>
