<?xml version="1.0" encoding="UTF-8"?>
<!DOCTYPE svg PUBLIC "-//W3C//DTD SVG 1.1//EN" "http://www.w3.org/Graphics/SVG/1.1/DTD/svg11.dtd">
<!-- Creator: CorelDRAW X8 -->
<svg xmlns="http://www.w3.org/2000/svg" xml:space="preserve" width="500px" height="500px" version="1.1" style="shape-rendering:geometricPrecision; text-rendering:geometricPrecision; image-rendering:optimizeQuality; fill-rule:evenodd; clip-rule:evenodd"
viewBox="0 0 500 500"
 xmlns:xlink="http://www.w3.org/1999/xlink">
 <defs>
  <style type="text/css">
   <![CDATA[
    .str0 {stroke:black;stroke-width:1.00006}
    .fil0 {fill:none;fill-rule:nonzero}
   ]]>
  </style>
 </defs>
 <g id="Layer_x0020_1">
  <metadata id="CorelCorpID_0Corel-Layer"/>
  <path class="fil0 str0" d="M221 175c2,-14 4,-29 -5,-40 -4,-4 -9,-7 -12,-12 -3,-5 -1,-13 4,-14 6,-1 10,8 11,14 2,14 4,28 6,43 8,-16 16,-31 24,-46 -4,-4 -8,-9 -8,-14 0,-6 5,-12 10,-9 5,2 5,8 3,13 -2,4 -6,8 -7,13l5 -3c-7,18 -15,35 -22,53 11,7 27,5 37,-4 10,-9 14,-24 11,-37 -1,-6 -4,-12 -4,-19 0,-6 4,-13 11,-14 7,-1 13,9 11,17 -2,7 -8,13 -14,18 1,21 -5,43 -16,61 4,2 7,3 11,4 8,-24 24,-45 44,-61 -1,-7 -1,-15 3,-21 5,-6 16,-7 19,0 2,7 -4,12 -10,16 -25,20 -46,45 -60,73 14,1 27,2 41,2 4,1 8,1 11,-1 6,-3 10,-11 17,-10 5,0 9,7 6,12 -2,5 -7,8 -13,9 -5,0 -11,-1 -16,-2 -15,-3 -30,-4 -45,-2 0,-2 0,-3 0,-5"/>
  <path class="fil0 str0" d="M226 202c-11,-8 -22,-18 -26,-32 -1,-3 -1,-7 -3,-9 -4,-6 -13,-5 -17,0 -4,5 -2,14 4,17 3,2 7,2 11,4 7,3 10,11 13,18 4,8 8,16 16,17 -16,7 -32,13 -45,24 -14,11 -25,26 -26,43 22,-25 48,-46 76,-63 -35,45 -59,96 -72,151 22,-50 48,-99 76,-146 5,48 -37,91 -33,138 13,-20 25,-41 34,-63 9,-22 13,-46 10,-70 16,19 21,46 18,71 -3,25 -13,49 -22,72 16,-10 22,-30 27,-48 5,-17 9,-34 9,-51 -1,-17 -8,-35 -22,-45 23,8 38,30 42,54 4,24 -1,48 -9,71 12,-23 24,-47 25,-73 1,-26 -12,-54 -37,-62 19,9 34,25 43,44 9,19 11,41 6,61 13,-22 15,-51 3,-74 -11,-23 -35,-39 -60,-42"/>
 </g>
</svg>
