<?xml version="1.0" encoding="UTF-8"?>
<!DOCTYPE svg PUBLIC "-//W3C//DTD SVG 1.1//EN" "http://www.w3.org/Graphics/SVG/1.1/DTD/svg11.dtd">
<!-- Creator: CorelDRAW X8 -->
<svg xmlns="http://www.w3.org/2000/svg" xml:space="preserve" width="500px" height="500px" version="1.1" style="shape-rendering:geometricPrecision; text-rendering:geometricPrecision; image-rendering:optimizeQuality; fill-rule:evenodd; clip-rule:evenodd"
viewBox="0 0 500 500"
 xmlns:xlink="http://www.w3.org/1999/xlink">
 <defs>
  <style type="text/css">
   <![CDATA[
    .str0 {stroke:black;stroke-width:1.00006}
    .fil0 {fill:none;fill-rule:nonzero}
   ]]>
  </style>
 </defs>
 <g id="Layer_x0020_1">
  <metadata id="CorelCorpID_0Corel-Layer"/>
  <path class="fil0 str0" d="M229 42c-1,-6 -12,-5 -14,1 -3,5 -1,12 1,18 -13,2 -25,9 -33,19 6,2 12,4 18,6 -4,6 -10,10 -16,14 -6,3 -13,8 -15,14 -3,7 1,16 8,17 2,0 5,-1 7,0 8,0 11,10 8,17 -4,7 -10,11 -17,15 -6,4 -12,8 -14,15 -3,8 2,17 9,20 7,3 16,0 21,-6 -7,17 -20,32 -36,41 -1,-2 -3,-5 -5,-7 0,6 -4,10 -10,13 -5,3 -10,4 -16,6 -13,7 -19,24 -12,38 3,-5 10,-2 13,2 4,4 8,10 13,9 6,0 9,-7 10,-13 3,-11 6,-22 13,-31 6,-9 18,-15 29,-12 -4,4 -2,12 3,14 4,3 11,2 15,-2 5,-3 7,-9 11,-14 4,-4 10,-8 15,-6 8,2 9,14 8,22 -9,73 -14,146 -12,219"/>
  <path class="fil0 str0" d="M255 472c-19,-35 -19,-77 -15,-117 5,-39 14,-79 11,-119 13,9 30,13 45,10 15,-3 29,-13 38,-26 -10,3 -20,6 -30,4 -9,-1 -19,-7 -22,-17 -3,-9 2,-21 12,-23 11,3 24,3 36,0 3,-1 6,-2 8,-4 2,-3 3,-7 1,-9 -4,-5 -11,1 -17,4 -12,7 -28,-2 -37,-13 -2,-2 -3,-4 -4,-7 0,-6 6,-10 11,-11 5,-2 11,-1 16,-3 5,-2 9,-7 8,-13 -3,-6 -12,-6 -19,-4 -7,1 -17,0 -17,-7 0,-4 2,-7 5,-9 4,-3 10,-5 15,-8 5,-3 9,-7 11,-13 1,-5 -2,-12 -8,-12 -9,-1 -12,13 -20,17 -9,5 -20,-5 -21,-15 0,-10 5,-20 9,-29 3,-5 3,-13 -2,-15 -6,-2 -10,6 -11,11 -5,-6 -10,-12 -15,-19 -3,5 -4,11 -2,17 -4,0 -8,1 -12,2"/>
 </g>
</svg>
