<?xml version="1.0" encoding="UTF-8"?>
<!DOCTYPE svg PUBLIC "-//W3C//DTD SVG 1.1//EN" "http://www.w3.org/Graphics/SVG/1.1/DTD/svg11.dtd">
<!-- Creator: CorelDRAW X8 -->
<svg xmlns="http://www.w3.org/2000/svg" xml:space="preserve" width="500px" height="500px" version="1.1" style="shape-rendering:geometricPrecision; text-rendering:geometricPrecision; image-rendering:optimizeQuality; fill-rule:evenodd; clip-rule:evenodd"
viewBox="0 0 500 500"
 xmlns:xlink="http://www.w3.org/1999/xlink">
 <defs>
  <style type="text/css">
   <![CDATA[
    .str0 {stroke:black;stroke-width:1.00006}
    .fil0 {fill:none;fill-rule:nonzero}
   ]]>
  </style>
 </defs>
 <g id="Layer_x0020_1">
  <metadata id="CorelCorpID_0Corel-Layer"/>
  <path class="fil0 str0" d="M253 118c-6,-9 -15,-16 -23,-23 -18,-15 -36,-29 -54,-44 1,10 5,19 9,28 14,26 30,52 48,75 10,14 21,27 29,42 -16,16 -31,31 -46,46 -12,12 -24,24 -35,37 -10,14 -18,29 -26,44 -15,30 -27,61 -39,91 39,-32 76,-68 109,-106 10,-11 20,-23 28,-36 11,-19 18,-40 20,-61 7,40 17,79 28,118 5,15 10,30 15,45 7,20 16,41 35,52 7,-28 1,-57 -7,-85 -13,-46 -33,-91 -62,-129 50,-38 99,-81 122,-139 -30,11 -56,32 -78,55 -11,11 -21,24 -32,36 -9,11 -20,31 -25,7 -4,-18 -5,-37 -16,-53z"/>
 </g>
</svg>
