<?xml version="1.0" encoding="UTF-8"?>
<!DOCTYPE svg PUBLIC "-//W3C//DTD SVG 1.1//EN" "http://www.w3.org/Graphics/SVG/1.1/DTD/svg11.dtd">
<!-- Creator: CorelDRAW X8 -->
<svg xmlns="http://www.w3.org/2000/svg" xml:space="preserve" width="500px" height="500px" version="1.1" style="shape-rendering:geometricPrecision; text-rendering:geometricPrecision; image-rendering:optimizeQuality; fill-rule:evenodd; clip-rule:evenodd"
viewBox="0 0 500 500"
 xmlns:xlink="http://www.w3.org/1999/xlink">
 <defs>
  <style type="text/css">
   <![CDATA[
    .str0 {stroke:black;stroke-width:1.00006}
    .fil0 {fill:none;fill-rule:nonzero}
   ]]>
  </style>
 </defs>
 <g id="Layer_x0020_1">
  <metadata id="CorelCorpID_0Corel-Layer"/>
  <path class="fil0 str0" d="M222 227c-12,-16 -18,-37 -17,-57 0,-4 1,-9 3,-13 2,-4 5,-7 8,-10 9,-9 15,-20 19,-32 12,-1 23,7 28,18 5,11 5,23 2,35 -5,26 -22,49 -44,62 17,17 40,27 64,29 5,0 11,0 16,-3 7,-3 10,-11 13,-17 7,-17 13,-34 9,-51 -2,-6 -4,-12 -7,-18 -8,-18 -17,-36 -28,-52 -8,12 -16,24 -24,37"/>
  <path class="fil0 str0" d="M202 170c-13,-21 -30,-39 -49,-54 0,24 2,49 12,71 10,22 29,42 53,47 -22,-1 -40,16 -53,33 -13,18 -26,37 -45,46 21,-4 42,-9 62,-17 12,-5 24,-10 32,-20 9,-9 14,-22 10,-34 9,30 19,61 41,83 16,18 39,29 61,40 -9,-17 -10,-38 -13,-57 -4,-20 -11,-40 -28,-50"/>
  <path class="fil0 str0" d="M317 231c17,-7 30,-20 40,-36 9,-15 15,-32 22,-49 3,-9 7,-19 7,-28 -8,11 -20,21 -33,26 -8,4 -17,6 -22,13 -5,8 -4,21 -12,26"/>
  <path class="fil0 str0" d="M205 162c0,1 -2,1 -2,0 -1,0 -1,-1 -1,-2 -1,-31 7,-63 21,-91 1,9 6,17 9,25 3,9 4,18 1,26"/>
 </g>
</svg>
