<?xml version="1.0" encoding="UTF-8"?>
<!DOCTYPE svg PUBLIC "-//W3C//DTD SVG 1.1//EN" "http://www.w3.org/Graphics/SVG/1.1/DTD/svg11.dtd">
<!-- Creator: CorelDRAW X8 -->
<svg xmlns="http://www.w3.org/2000/svg" xml:space="preserve" width="500px" height="500px" version="1.1" style="shape-rendering:geometricPrecision; text-rendering:geometricPrecision; image-rendering:optimizeQuality; fill-rule:evenodd; clip-rule:evenodd"
viewBox="0 0 500 500"
 xmlns:xlink="http://www.w3.org/1999/xlink">
 <defs>
  <style type="text/css">
   <![CDATA[
    .str0 {stroke:black;stroke-width:1.00006}
    .fil0 {fill:none;fill-rule:nonzero}
   ]]>
  </style>
 </defs>
 <g id="Layer_x0020_1">
  <metadata id="CorelCorpID_0Corel-Layer"/>
  <path class="fil0 str0" d="M206 468c5,-17 1,-35 -3,-53 -11,-49 -23,-100 -45,-146 -6,-14 -14,-27 -21,-41 -4,-7 -8,-14 -12,-21"/>
  <path class="fil0 str0" d="M278 474c9,-39 1,-80 4,-119 4,-35 17,-68 30,-100 5,-14 11,-28 20,-40 22,29 33,67 28,103"/>
  <path class="fil0 str0" d="M245 462c-3,-5 -3,-11 -3,-17 0,-26 0,-51 1,-77 1,-41 4,-82 19,-119 10,-26 25,-49 40,-71 15,-23 30,-46 53,-61"/>
  <path class="fil0 str0" d="M226 478c-1,1 -4,2 -6,1 3,-13 1,-27 0,-40 -7,-52 -16,-103 -27,-153 -9,-40 -19,-79 -37,-116 -7,-14 -16,-29 -30,-36"/>
  <path class="fil0 str0" d="M237 484c-3,-14 -5,-28 -8,-43 -3,-22 -7,-44 -9,-67 -3,-33 -2,-65 -2,-98l3 -129c-4,1 -9,-1 -11,-4 -2,-4 -2,-8 -2,-12 0,-16 0,-31 0,-47 0,-8 1,-17 5,-24 5,-7 14,-11 21,-7 3,22 3,44 2,66 -1,6 -1,12 -4,18 -3,6 -9,10 -16,9"/>
  <path class="fil0 str0" d="M228 48c1,0 1,2 0,2"/>
  <path class="fil0 str0" d="M224 55c-2,-12 -2,-25 -2,-37"/>
  <path class="fil0 str0" d="M201 476c-5,1 -9,-4 -11,-8 -34,-51 -35,-120 -74,-168"/>
 </g>
</svg>
