<?xml version="1.0" encoding="UTF-8"?>
<!DOCTYPE svg PUBLIC "-//W3C//DTD SVG 1.1//EN" "http://www.w3.org/Graphics/SVG/1.1/DTD/svg11.dtd">
<!-- Creator: CorelDRAW X8 -->
<svg xmlns="http://www.w3.org/2000/svg" xml:space="preserve" width="500px" height="500px" version="1.1" style="shape-rendering:geometricPrecision; text-rendering:geometricPrecision; image-rendering:optimizeQuality; fill-rule:evenodd; clip-rule:evenodd"
viewBox="0 0 500 500"
 xmlns:xlink="http://www.w3.org/1999/xlink">
 <defs>
  <style type="text/css">
   <![CDATA[
    .str0 {stroke:black;stroke-width:1.00006}
    .fil0 {fill:none;fill-rule:nonzero}
   ]]>
  </style>
 </defs>
 <g id="Layer_x0020_1">
  <metadata id="CorelCorpID_0Corel-Layer"/>
  <path class="fil0 str0" d="M199 88c18,1 32,15 40,31 7,16 8,34 9,52 2,-35 19,-70 45,-94 -2,19 -4,37 -6,56 -2,16 -3,33 -10,48 35,-28 80,-43 125,-43 -21,37 -58,65 -100,75 17,2 35,5 51,10 -19,8 -40,9 -61,5 35,15 64,43 82,77 -11,-3 -23,-5 -34,-8 -21,-5 -42,-9 -60,-20 -9,-5 -17,-12 -21,-20 5,22 10,45 15,68 -16,-17 -28,-37 -35,-60 -5,31 -12,61 -21,91 -3,9 -6,19 -12,26 -10,-24 -31,-43 -34,-68 -3,-25 14,-48 36,-61 -30,3 -60,5 -89,-3 18,2 35,-7 52,-11 12,-3 24,-3 36,-3 -39,-32 -85,-56 -134,-70 18,3 36,-3 54,-6 33,-6 71,2 92,28 -14,-16 -26,-34 -36,-53 3,5 14,11 18,15 7,6 13,11 19,16 1,-10 -10,-25 -13,-36 -4,-13 -7,-28 -8,-42z"/>
  <path class="fil0 str0" d="M233 174c-5,2 -7,7 -5,12 0,2 1,3 3,4 2,0 4,0 6,-1 3,-3 5,-7 4,-10 -1,-4 -5,-7 -9,-6"/>
  <path class="fil0 str0" d="M262 179c-2,-3 -6,-4 -8,-2 -3,2 -4,5 -3,8 1,3 4,5 7,6 3,0 6,0 8,-3 1,-2 0,-5 -1,-7 -2,-2 -4,-3 -6,-5"/>
  <path class="fil0 str0" d="M283 190c-2,-2 -6,-1 -8,1 -3,2 -4,5 -2,8 2,4 8,4 12,2 1,-1 3,-1 3,-3 1,-3 -1,-6 -4,-9 -1,0 -1,-1 -2,-1 -1,0 -2,0 -2,1"/>
  <path class="fil0 str0" d="M281 214c-5,1 -9,4 -12,8 -1,3 -2,5 0,8 2,4 8,3 12,0 2,-2 4,-5 4,-8 0,-3 -2,-6 -5,-6"/>
  <path class="fil0 str0" d="M273 242c-5,-1 -10,-1 -13,3 -3,4 1,10 6,10 5,1 9,-4 9,-9 0,-3 -1,-5 -2,-7"/>
  <path class="fil0 str0" d="M243 250c-4,-1 -7,-2 -10,-1 -4,1 -7,4 -7,7 1,4 5,6 8,5 4,-1 6,-4 7,-8 0,-3 -2,-7 -5,-7"/>
  <path class="fil0 str0" d="M218 239c-3,0 -5,0 -7,1 -3,1 -5,3 -4,5 0,3 2,5 5,5 4,2 10,0 12,-5 2,-4 -2,-10 -7,-10"/>
  <path class="fil0 str0" d="M213 212c-1,-1 -4,-1 -5,0 -1,2 -2,4 -2,6 0,2 1,5 3,6 4,2 9,-2 9,-6 0,-4 -3,-7 -7,-9"/>
  <path class="fil0 str0" d="M219 196c0,-1 0,-2 -1,-2 -1,0 -2,2 -3,4 0,4 0,9 3,10 4,2 8,-3 7,-7 -1,-4 -5,-6 -9,-7"/>
  <path class="fil0 str0" d="M229 214c-2,6 -2,12 2,17 0,0 1,0 1,1 2,1 5,2 8,2 4,1 9,-1 12,-4 7,-13 -17,-33 -23,-16z"/>
 </g>
</svg>
