<?xml version="1.0" encoding="UTF-8"?>
<!DOCTYPE svg PUBLIC "-//W3C//DTD SVG 1.1//EN" "http://www.w3.org/Graphics/SVG/1.1/DTD/svg11.dtd">
<!-- Creator: CorelDRAW X8 -->
<svg xmlns="http://www.w3.org/2000/svg" xml:space="preserve" width="500px" height="500px" version="1.1" style="shape-rendering:geometricPrecision; text-rendering:geometricPrecision; image-rendering:optimizeQuality; fill-rule:evenodd; clip-rule:evenodd"
viewBox="0 0 500 500"
 xmlns:xlink="http://www.w3.org/1999/xlink">
 <defs>
  <style type="text/css">
   <![CDATA[
    .str0 {stroke:black;stroke-width:1.00006}
    .fil0 {fill:none;fill-rule:nonzero}
   ]]>
  </style>
 </defs>
 <g id="Layer_x0020_1">
  <metadata id="CorelCorpID_0Corel-Layer"/>
  <path class="fil0 str0" d="M255 145c-3,5 -7,9 -11,14 -18,20 -24,48 -23,75 0,27 5,54 8,81 0,7 1,13 2,20 1,12 4,23 10,33 3,-2 4,-6 4,-10 5,-51 24,-99 35,-149 5,-19 21,-101 -18,-96 -2,11 -1,22 -7,32z"/>
  <path class="fil0 str0" d="M249 269c1,-8 1,-17 3,-25 2,-7 5,-14 5,-21 0,-2 0,-5 -1,-7 -2,-2 -5,-3 -7,-1 -1,1 -2,2 -2,4 -3,12 -6,24 -6,36 -1,9 0,17 1,26 0,9 3,19 1,27 3,-13 5,-26 6,-39z"/>
  <path class="fil0 str0" d="M245 225c2,-4 -2,-8 -5,-10 -4,-1 -8,0 -12,0 -3,30 0,60 7,88 1,2 2,4 3,6 2,1 5,1 7,0"/>
 </g>
</svg>
