<?xml version="1.0" encoding="UTF-8"?>
<!DOCTYPE svg PUBLIC "-//W3C//DTD SVG 1.1//EN" "http://www.w3.org/Graphics/SVG/1.1/DTD/svg11.dtd">
<!-- Creator: CorelDRAW X8 -->
<svg xmlns="http://www.w3.org/2000/svg" xml:space="preserve" width="500px" height="500px" version="1.1" style="shape-rendering:geometricPrecision; text-rendering:geometricPrecision; image-rendering:optimizeQuality; fill-rule:evenodd; clip-rule:evenodd"
viewBox="0 0 500 500"
 xmlns:xlink="http://www.w3.org/1999/xlink">
 <defs>
  <style type="text/css">
   <![CDATA[
    .str0 {stroke:black;stroke-width:1.00006}
    .fil0 {fill:none;fill-rule:nonzero}
   ]]>
  </style>
 </defs>
 <g id="Layer_x0020_1">
  <metadata id="CorelCorpID_0Corel-Layer"/>
  <path class="fil0 str0" d="M330 123c0,0 -1,-1 -1,0 0,0 0,1 1,1 9,9 21,15 34,19"/>
  <path class="fil0 str0" d="M339 113c-1,-9 -2,-17 -4,-25"/>
  <path class="fil0 str0" d="M344 138c6,-5 11,-11 17,-17"/>
  <path class="fil0 str0" d="M299 154c-2,-1 -2,-3 -2,-5 0,-12 1,-25 3,-37"/>
  <path class="fil0 str0" d="M297 138c0,-1 -1,-1 -2,-2 7,-4 14,-8 20,-13"/>
  <path class="fil0 str0" d="M290 162c-1,-1 -2,-2 -3,-2 5,0 9,5 12,8 8,8 18,14 29,17"/>
  <path class="fil0 str0" d="M341 226c7,4 14,7 21,10 18,5 36,6 54,7 3,0 7,0 7,-3"/>
  <path class="fil0 str0" d="M305 254c0,1 0,2 1,2 0,0 1,-1 1,-1 5,-5 7,-13 9,-20 2,-13 3,-27 2,-40 0,-1 0,-3 -1,-4 -1,0 -3,-1 -3,0"/>
  <path class="fil0 str0" d="M354 233c10,-8 18,-19 24,-30"/>
  <path class="fil0 str0" d="M364 238c-1,0 0,2 1,2 5,1 8,-4 11,-7 5,-8 12,-15 19,-20"/>
  <path class="fil0 str0" d="M366 238c-1,16 0,31 2,47"/>
  <path class="fil0 str0" d="M388 242c2,11 5,21 10,32"/>
  <path class="fil0 str0" d="M320 221c0,0 -1,1 -1,0 0,0 0,-1 1,-1 7,-5 14,-10 21,-16"/>
  <path class="fil0 str0" d="M318 203c0,0 -1,0 -1,0 0,-1 0,-1 1,-2 3,-2 7,-5 10,-7"/>
  <path class="fil0 str0" d="M320 221c-1,2 -4,1 -7,0 -11,-5 -22,-12 -32,-19"/>
  <path class="fil0 str0" d="M315 210c-7,-3 -15,-6 -22,-9"/>
  <path class="fil0 str0" d="M300 302c0,-1 -1,0 -1,0 1,1 2,1 2,0 9,-3 18,-7 25,-13"/>
  <path class="fil0 str0" d="M312 318c2,13 2,27 -1,40"/>
  <path class="fil0 str0" d="M330 322c-3,9 -1,19 4,26"/>
  <path class="fil0 str0" d="M284 243c-1,0 -2,-1 -3,-1 3,-3 5,-6 8,-9"/>
  <path class="fil0 str0" d="M224 477c-3,-62 1,-124 10,-185 3,-20 7,-40 7,-60 -1,-13 -3,-26 -3,-40 0,-10 0,-20 1,-30 1,-24 3,-49 5,-74"/>
  <path class="fil0 str0" d="M240 177c-2,1 -4,0 -4,-2 24,0 45,-12 64,-24 7,-3 13,-7 18,-12 6,-6 10,-12 15,-18 7,-11 15,-21 22,-31"/>
  <path class="fil0 str0" d="M277 170c-2,0 -2,-2 -2,-4 2,-11 1,-23 -1,-35"/>
  <path class="fil0 str0" d="M249 144c-9,-1 -17,-2 -26,-2 -9,-1 -18,-2 -27,-4 -8,-3 -16,-7 -24,-11 -4,-2 -8,-5 -12,-8 -3,-4 -5,-8 -7,-13 -5,-12 -10,-24 -15,-36 1,1 2,1 3,2"/>
  <path class="fil0 str0" d="M154 103c-10,2 -21,1 -31,-2 -1,0 -1,0 -2,-1 0,0 0,-1 1,-1"/>
  <path class="fil0 str0" d="M154 100c9,-9 16,-20 22,-32"/>
  <path class="fil0 str0" d="M172 134c-9,2 -17,3 -26,3"/>
  <path class="fil0 str0" d="M163 125c14,-5 20,-23 34,-30 -1,4 -2,7 -4,10"/>
  <path class="fil0 str0" d="M202 136c5,-12 8,-24 10,-37"/>
  <path class="fil0 str0" d="M220 150c-13,12 -28,20 -45,23"/>
  <path class="fil0 str0" d="M223 65c1,0 0,-1 0,-1 -1,0 -1,1 -1,1 4,12 12,22 22,28"/>
  <path class="fil0 str0" d="M243 98c-1,1 -2,0 -1,0 23,-8 45,-22 62,-39 -1,0 -2,0 -3,0"/>
  <path class="fil0 str0" d="M255 95c-1,0 -2,0 -3,1 8,-9 15,-19 20,-30"/>
  <path class="fil0 str0" d="M239 98c8,-15 14,-31 18,-47 0,-1 1,-2 0,-3 0,-1 -1,-2 -2,-2"/>
  <path class="fil0 str0" d="M234 90c-2,-3 -1,-7 1,-11 3,-9 6,-19 6,-29"/>
  <path class="fil0 str0" d="M238 68c-5,-1 -9,-5 -12,-9 -1,-1 -3,-3 -4,-1"/>
  <path class="fil0 str0" d="M252 72c12,-7 24,-14 37,-21"/>
  <path class="fil0 str0" d="M269 78c-1,0 -2,-1 -1,-2 7,-2 14,-5 21,-9"/>
  <path class="fil0 str0" d="M276 63c-1,-11 -2,-22 -2,-33"/>
  <path class="fil0 str0" d="M265 93c5,-2 9,2 13,5 4,4 8,6 13,7"/>
  <path class="fil0 str0" d="M238 281c-26,0 -50,-15 -68,-33 -19,-19 -34,-41 -52,-59 -7,-6 -14,-12 -18,-20 -5,-7 -8,-17 -4,-25"/>
  <path class="fil0 str0" d="M103 177c-7,-1 -13,-3 -19,-6"/>
  <path class="fil0 str0" d="M115 186c4,-7 7,-14 10,-22"/>
  <line class="fil0 str0" x1="98" y1="167" x2="117" y2= "155" />
  <path class="fil0 str0" d="M134 201c6,-7 12,-15 19,-22"/>
  <path class="fil0 str0" d="M125 205c-11,-1 -22,-2 -33,-4"/>
  <path class="fil0 str0" d="M143 231c-8,0 -16,2 -24,5"/>
  <path class="fil0 str0" d="M138 215c11,-4 22,-10 32,-17"/>
  <path class="fil0 str0" d="M172 247c-2,9 -6,18 -11,26"/>
  <path class="fil0 str0" d="M157 233c14,-6 27,-14 39,-24"/>
  <path class="fil0 str0" d="M186 262c9,-9 18,-18 25,-29"/>
  <path class="fil0 str0" d="M204 275c-4,11 -11,20 -21,27"/>
  <path class="fil0 str0" d="M238 284c19,-9 38,-17 57,-25 14,-7 28,-13 39,-24 18,-18 25,-46 47,-59 -1,-1 -2,-3 -3,-5"/>
  <path class="fil0 str0" d="M263 274c0,-1 0,-2 0,-3 12,6 20,18 29,28 10,11 22,19 36,24 2,1 4,1 5,1 2,-1 3,-4 2,-5"/>
  <path class="fil0 str0" d="M280 301c15,-7 29,-16 42,-26"/>
  <path class="fil0 str0" d="M275 268c2,-8 3,-17 4,-26 1,-1 0,-3 -1,-2"/>
  <path class="fil0 str0" d="M274 252c-8,-5 -15,-10 -23,-15"/>
  <path class="fil0 str0" d="M274 243c0,-6 -2,-12 -5,-18"/>
 </g>
</svg>
