<?xml version="1.0" encoding="UTF-8"?>
<!DOCTYPE svg PUBLIC "-//W3C//DTD SVG 1.1//EN" "http://www.w3.org/Graphics/SVG/1.1/DTD/svg11.dtd">
<!-- Creator: CorelDRAW X8 -->
<svg xmlns="http://www.w3.org/2000/svg" xml:space="preserve" width="500px" height="500px" version="1.1" style="shape-rendering:geometricPrecision; text-rendering:geometricPrecision; image-rendering:optimizeQuality; fill-rule:evenodd; clip-rule:evenodd"
viewBox="0 0 500 500"
 xmlns:xlink="http://www.w3.org/1999/xlink">
 <defs>
  <style type="text/css">
   <![CDATA[
    .str0 {stroke:black;stroke-width:1.00006}
    .fil0 {fill:none;fill-rule:nonzero}
   ]]>
  </style>
 </defs>
 <g id="Layer_x0020_1">
  <metadata id="CorelCorpID_0Corel-Layer"/>
  <path class="fil0 str0" d="M291 119c-4,-5 -10,-9 -17,-8 -6,1 -12,7 -11,13 0,2 1,4 2,5 1,1 2,1 3,1 8,1 16,-2 22,-7 1,-1 1,-1 2,-1 3,-1 4,3 4,5 0,19 0,39 0,58 -1,37 -3,75 -5,113 -1,18 -2,36 -3,55 7,-21 20,-40 27,-60 5,-14 7,-27 10,-41 3,-12 6,-25 9,-37 4,-16 8,-31 12,-47 3,-13 7,-26 15,-37 3,-1 7,-1 10,0 3,2 6,5 6,8 -1,5 -6,7 -11,6 -4,-1 -7,-5 -11,-8"/>
  <path class="fil0 str0" d="M259 381c-3,-31 -5,-63 -7,-95 -1,-24 -2,-48 -8,-72 -6,-24 -18,-47 -16,-72 0,-3 1,-5 0,-8 -2,-5 -9,-6 -14,-7 -6,0 -12,0 -14,5 -3,6 3,12 9,13 6,0 12,-4 17,-7"/>
  <path class="fil0 str0" d="M275 366c-20,-36 -23,-79 -44,-114 -11,-19 -26,-34 -38,-52 -12,-21 -19,-44 -26,-67 0,-2 -1,-3 -1,-5 1,-3 3,-5 5,-7 3,-2 6,-4 10,-4 3,0 7,3 7,6 0,3 -3,6 -6,7 -4,2 -9,4 -13,5"/>
  <path class="fil0 str0" d="M223 375c0,1 -2,1 -3,1 -1,-1 -1,-2 -2,-4 -5,-17 -10,-34 -14,-51 -5,-21 -9,-43 -19,-62 -11,-23 -30,-42 -39,-67 -5,1 -11,2 -15,5 -5,2 -9,7 -9,13 0,5 5,11 10,10 4,-1 6,-3 8,-6 4,-6 6,-13 6,-20"/>
 </g>
</svg>
