<?xml version="1.0" encoding="UTF-8"?>
<!DOCTYPE svg PUBLIC "-//W3C//DTD SVG 1.1//EN" "http://www.w3.org/Graphics/SVG/1.1/DTD/svg11.dtd">
<!-- Creator: CorelDRAW X8 -->
<svg xmlns="http://www.w3.org/2000/svg" xml:space="preserve" width="500px" height="500px" version="1.1" style="shape-rendering:geometricPrecision; text-rendering:geometricPrecision; image-rendering:optimizeQuality; fill-rule:evenodd; clip-rule:evenodd"
viewBox="0 0 500 500"
 xmlns:xlink="http://www.w3.org/1999/xlink">
 <defs>
  <style type="text/css">
   <![CDATA[
    .str0 {stroke:black;stroke-width:1.00006}
    .fil0 {fill:none;fill-rule:nonzero}
   ]]>
  </style>
 </defs>
 <g id="Layer_x0020_1">
  <metadata id="CorelCorpID_0Corel-Layer"/>
  <path class="fil0 str0" d="M166 157c3,19 6,38 3,56 -1,13 -5,27 3,37 1,2 3,4 3,6 1,2 1,4 1,6 0,49 -2,97 -6,145 -2,19 -4,37 -12,54 0,-13 0,-26 0,-39 0,-34 0,-68 9,-100 3,-14 8,-27 9,-41 1,-17 -5,-37 8,-49 -2,-1 -4,-2 -6,-3 -3,-7 11,-14 8,-21 -2,-3 -4,-4 -6,-6 -6,-6 0,-17 3,-25 8,-22 -6,-45 -11,-68 -3,-22 3,-53 -14,-70 -11,14 -6,35 -3,51 4,22 7,45 11,67z"/>
  <path class="fil0 str0" d="M307 260c-13,-15 -22,-34 -27,-53 -4,26 -7,56 7,78 8,12 20,21 24,34 2,7 2,14 2,21 -1,40 -3,81 -7,122 3,-38 6,-75 9,-112 0,-9 1,-17 3,-26 4,-11 11,-22 20,-30 5,-5 11,-9 15,-14 6,-6 9,-14 12,-22 14,-37 22,-76 23,-115 -12,32 -26,64 -41,95 13,-55 22,-110 19,-166 -9,32 -20,65 -32,96 -8,-28 14,-54 13,-83 -17,20 -27,45 -35,70 -5,17 -8,34 -9,52 -1,12 -4,44 4,53z"/>
 </g>
</svg>
