<?xml version="1.0" encoding="UTF-8"?>
<!DOCTYPE svg PUBLIC "-//W3C//DTD SVG 1.1//EN" "http://www.w3.org/Graphics/SVG/1.1/DTD/svg11.dtd">
<!-- Creator: CorelDRAW X8 -->
<svg xmlns="http://www.w3.org/2000/svg" xml:space="preserve" width="500px" height="500px" version="1.1" style="shape-rendering:geometricPrecision; text-rendering:geometricPrecision; image-rendering:optimizeQuality; fill-rule:evenodd; clip-rule:evenodd"
viewBox="0 0 500 500"
 xmlns:xlink="http://www.w3.org/1999/xlink">
 <defs>
  <style type="text/css">
   <![CDATA[
    .str0 {stroke:black;stroke-width:1.00006}
    .fil0 {fill:none;fill-rule:nonzero}
   ]]>
  </style>
 </defs>
 <g id="Layer_x0020_1">
  <metadata id="CorelCorpID_0Corel-Layer"/>
  <path class="fil0 str0" d="M78 84c-2,-2 -4,-5 -6,-7"/>
  <path class="fil0 str0" d="M135 98c2,7 4,13 5,20 3,27 -14,54 -15,81 11,-1 19,-9 24,-19 4,-10 5,-21 5,-31 1,-22 -2,-43 -9,-63 -1,-5 -6,-23 -13,-19 -4,3 2,26 3,31z"/>
  <path class="fil0 str0" d="M161 94c-1,22 -6,43 -7,65 -2,22 1,45 13,63 4,-7 6,-16 8,-24 3,-15 2,-31 0,-46l-3 -47c-1,-9 1,-37 -5,-42 -3,4 -7,31 -6,31z"/>
  <path class="fil0 str0" d="M242 196c-3,10 -7,20 -15,28 -10,-36 -6,-74 -1,-110 1,-7 3,-45 8,-45 7,1 11,33 12,39 5,29 5,60 -4,88z"/>
  <path class="fil0 str0" d="M280 65c1,22 -5,43 -9,65 -4,27 -4,55 0,83 0,5 -1,11 -5,11 -2,0 -3,0 -4,-1 -7,-4 -10,-14 -11,-22 -8,-49 -2,-96 29,-136z"/>
  <path class="fil0 str0" d="M326 126c5,33 1,67 -11,97 9,0 14,-8 18,-16 12,-25 11,-55 11,-83 0,-11 -1,-23 -5,-34 -5,-10 -11,-11 -20,-17 -2,18 4,36 7,53z"/>
  <path class="fil0 str0" d="M342 153c9,-29 24,-55 44,-78 3,13 -3,26 -8,38 -7,19 -11,39 -11,60 -1,16 1,33 -3,50 0,2 -1,4 -3,5 -4,3 -9,-2 -11,-7 -5,-12 -7,-25 -6,-37"/>
  <path class="fil0 str0" d="M152 176c1,1 1,-1 0,-1 -1,0 -1,1 -1,2 -8,38 -3,78 7,116 9,38 22,75 30,113 3,-5 6,-10 9,-14 6,-9 11,-18 16,-27 10,-20 15,-43 20,-65 4,-17 7,-33 10,-50 3,-19 4,-39 5,-59"/>
  <path class="fil0 str0" d="M196 405c-2,1 -3,3 -3,5"/>
  <path class="fil0 str0" d="M193 409c32,-27 79,-33 103,-67 7,-10 11,-21 15,-32 8,-20 16,-40 19,-61 4,-20 4,-42 13,-59"/>
 </g>
</svg>
