<?xml version="1.0" encoding="UTF-8"?>
<!DOCTYPE svg PUBLIC "-//W3C//DTD SVG 1.1//EN" "http://www.w3.org/Graphics/SVG/1.1/DTD/svg11.dtd">
<!-- Creator: CorelDRAW X8 -->
<svg xmlns="http://www.w3.org/2000/svg" xml:space="preserve" width="500px" height="500px" version="1.1" style="shape-rendering:geometricPrecision; text-rendering:geometricPrecision; image-rendering:optimizeQuality; fill-rule:evenodd; clip-rule:evenodd"
viewBox="0 0 500 500"
 xmlns:xlink="http://www.w3.org/1999/xlink">
 <defs>
  <style type="text/css">
   <![CDATA[
    .str0 {stroke:black;stroke-width:1.00006}
    .fil0 {fill:none;fill-rule:nonzero}
   ]]>
  </style>
 </defs>
 <g id="Layer_x0020_1">
  <metadata id="CorelCorpID_0Corel-Layer"/>
  <path class="fil0 str0" d="M135 164c-11,6 -25,3 -34,-5 -9,-8 -13,-20 -13,-32 6,12 15,21 26,27 0,-15 0,-31 0,-46 7,13 11,26 14,41 1,-14 4,-28 7,-42 4,14 5,30 4,45 5,-16 10,-33 19,-46 9,22 -3,50 -25,60 20,26 42,51 66,73 -5,-17 -1,-34 4,-51 5,-17 12,-33 14,-50 -10,-3 -15,-13 -16,-23 -3,-12 -1,-25 5,-37 6,13 -4,29 3,41 6,-11 13,-22 22,-32 -2,13 -5,26 -9,38 9,-12 19,-23 30,-32 -2,13 -7,26 -13,37 12,-9 24,-18 39,-22 -1,13 -8,26 -19,32 -10,7 -25,8 -36,2"/>
  <path class="fil0 str0" d="M195 241c0,-2 1,-4 3,-4 4,16 10,30 18,44 -2,0 -4,-3 -3,-5 0,-2 1,-4 3,-6 17,-20 47,-22 73,-32 25,-10 48,-29 61,-54 3,-5 5,-10 5,-16 1,-6 -1,-11 -1,-17 -2,-19 10,-36 21,-51 -8,14 -13,30 -14,47 11,-13 22,-25 34,-37 -5,16 -11,31 -18,46 11,-11 22,-22 33,-32 -4,13 -11,26 -22,35 8,-5 16,-8 25,-10 1,0 4,0 4,2 0,1 0,2 -1,2 -12,19 -37,29 -59,22"/>
  <path class="fil0 str0" d="M267 243c1,-10 4,-19 7,-28 -6,1 -12,-3 -14,-8 -2,-6 -2,-12 0,-18 2,-9 8,-17 15,-24 -4,11 -4,22 0,33 11,-11 12,-29 23,-38 -3,13 -7,26 -11,38 10,-13 12,-32 26,-41 -3,11 -6,21 -8,32 -1,2 -1,4 1,4 4,-12 12,-23 21,-32 1,15 -4,30 -13,42 -10,11 -25,18 -40,16"/>
  <path class="fil0 str0" d="M215 281c-3,52 -10,104 -21,156"/>
  <path class="fil0 str0" d="M202 400c19,-6 35,-17 52,-28 12,-8 24,-16 31,-29 1,-2 2,-4 2,-7 1,-3 0,-6 0,-9 -2,-24 5,-48 19,-68 -9,16 -12,35 -11,53 7,-14 16,-27 26,-39 -5,15 -11,31 -19,45 13,-12 25,-25 38,-37 -8,15 -17,29 -25,44 12,-12 26,-23 41,-31 -8,10 -17,20 -26,30 17,-6 35,-10 52,-13 2,0 5,0 5,2 1,1 0,3 -1,4 -15,24 -45,38 -73,34 -8,-1 -18,-4 -22,-12"/>
  <path class="fil0 str0" d="M196 399c-18,-6 -33,-18 -44,-33 -10,-15 -18,-32 -22,-50 -1,-4 -2,-9 -5,-13 -4,-8 -14,-13 -21,-20 -12,-11 -16,-29 -11,-44 9,11 18,22 27,33 -2,-12 0,-25 6,-36 0,14 2,29 4,43 4,-15 9,-30 15,-44l-4 45c6,-14 14,-26 24,-37 -3,13 -5,26 -7,39 5,-10 13,-18 22,-23 4,6 -1,14 -6,20 -13,13 -30,21 -48,23"/>
 </g>
</svg>
