<?xml version="1.0" encoding="UTF-8"?>
<!DOCTYPE svg PUBLIC "-//W3C//DTD SVG 1.1//EN" "http://www.w3.org/Graphics/SVG/1.1/DTD/svg11.dtd">
<!-- Creator: CorelDRAW X8 -->
<svg xmlns="http://www.w3.org/2000/svg" xml:space="preserve" width="500px" height="500px" version="1.1" style="shape-rendering:geometricPrecision; text-rendering:geometricPrecision; image-rendering:optimizeQuality; fill-rule:evenodd; clip-rule:evenodd"
viewBox="0 0 500 500"
 xmlns:xlink="http://www.w3.org/1999/xlink">
 <defs>
  <style type="text/css">
   <![CDATA[
    .str0 {stroke:black;stroke-width:1.00006}
    .fil0 {fill:none;fill-rule:nonzero}
   ]]>
  </style>
 </defs>
 <g id="Layer_x0020_1">
  <metadata id="CorelCorpID_0Corel-Layer"/>
  <path class="fil0 str0" d="M153 218c-22,4 -42,14 -58,30 -15,15 -26,36 -28,58 -3,19 2,39 13,55 5,7 11,13 18,18 14,11 31,19 49,22 18,2 37,0 53,-9 28,-15 44,-47 44,-79 -1,-20 -7,-40 -18,-58 -9,-15 -21,-32 -39,-35 -12,-2 -22,-5 -34,-2z"/>
  <path class="fil0 str0" d="M130 301c-12,-4 -25,-4 -36,0 -1,0 -2,1 -2,2 -1,1 1,2 2,3 8,7 18,12 28,15 -4,19 -2,39 5,56 12,-11 20,-27 22,-44 17,3 33,4 50,3 1,-2 1,-5 -1,-6 -1,-2 -4,-3 -6,-4 -11,-5 -22,-10 -33,-15 4,-12 5,-24 4,-37 -1,-5 -2,-12 -6,-15 -5,-4 -8,1 -11,6 -8,11 -13,23 -16,36z"/>
  <path class="fil0 str0" d="M349 209c-21,5 -42,16 -56,34 -5,7 -10,15 -14,24 -11,23 -20,50 -10,73 6,17 21,29 37,36 17,6 35,7 52,5 6,-1 11,-2 16,-4 6,-3 11,-6 16,-11 17,-15 28,-38 29,-61 2,-28 -9,-55 -21,-80 -9,-20 -28,-21 -49,-16z"/>
  <path class="fil0 str0" d="M305 105c-7,-2 -14,-1 -21,-1 -13,2 -26,5 -37,12 -19,12 -28,35 -32,57 -2,12 -3,25 1,36 4,12 14,23 26,26 7,2 15,0 23,-1 19,-4 38,-10 55,-21 16,-11 29,-28 32,-48 0,-5 0,-11 -1,-16 -3,-11 -11,-19 -20,-26 -8,-7 -15,-16 -26,-18z"/>
  <path class="fil0 str0" d="M369 293c-13,-3 -27,-2 -40,3 2,7 8,12 15,15 7,2 15,2 22,2 -1,15 0,29 2,43 11,-11 19,-25 21,-40 9,1 19,-2 26,-8 -4,-6 -10,-10 -17,-13 -1,0 -3,-1 -4,-2 -1,-2 -1,-4 0,-7 1,-6 1,-33 -7,-29 -5,2 -9,13 -11,17 -3,6 -5,13 -7,19z"/>
  <path class="fil0 str0" d="M263 120c7,3 15,5 22,7 -4,7 -6,15 -6,23 8,-5 16,-12 21,-20 8,1 16,2 23,1 -1,-6 -17,-13 -23,-15 -5,-1 -11,0 -16,0 -5,1 -18,5 -21,4z"/>
 </g>
</svg>
