<?xml version="1.0" encoding="UTF-8"?>
<!DOCTYPE svg PUBLIC "-//W3C//DTD SVG 1.1//EN" "http://www.w3.org/Graphics/SVG/1.1/DTD/svg11.dtd">
<!-- Creator: CorelDRAW X8 -->
<svg xmlns="http://www.w3.org/2000/svg" xml:space="preserve" width="500px" height="500px" version="1.1" style="shape-rendering:geometricPrecision; text-rendering:geometricPrecision; image-rendering:optimizeQuality; fill-rule:evenodd; clip-rule:evenodd"
viewBox="0 0 500 500"
 xmlns:xlink="http://www.w3.org/1999/xlink">
 <defs>
  <style type="text/css">
   <![CDATA[
    .str0 {stroke:black;stroke-width:1.00006}
    .fil0 {fill:none;fill-rule:nonzero}
   ]]>
  </style>
 </defs>
 <g id="Layer_x0020_1">
  <metadata id="CorelCorpID_0Corel-Layer"/>
  <path class="fil0 str0" d="M296 143c-3,-1 -2,-5 0,-7 10,-10 23,-17 36,-17 14,1 28,9 32,22 2,7 2,14 1,21 -2,11 -6,22 -13,31 -7,8 -17,15 -28,16 -4,0 -9,0 -12,-2 -6,-4 -8,-11 -10,-17 -4,-14 -8,-27 -8,-41 -1,-3 -1,-5 1,-8 1,-2 3,-3 5,-4 10,-7 14,-19 12,-31 -1,-11 -8,-22 -16,-30 -8,-7 -17,-13 -28,-13 -10,0 -19,5 -28,11 -10,7 -20,15 -24,27 -4,11 -1,26 11,31"/>
  <path class="fil0 str0" d="M305 98c2,-1 2,-5 3,-8 1,-5 6,-7 10,-8 5,-1 9,-2 13,-2 7,0 14,3 19,8 5,4 9,11 11,17 2,5 3,9 2,14 -1,4 -3,8 -7,10"/>
  <path class="fil0 str0" d="M223 126c-7,5 -11,13 -13,20 -10,28 1,62 26,79 7,4 15,7 23,8 12,0 22,-6 31,-13 6,-4 11,-8 15,-14 8,-12 9,-30 3,-43 -8,-19 -24,-27 -39,-38 -14,-9 -33,-10 -46,1z"/>
  <path class="fil0 str0" d="M219 130c-2,-5 -5,-9 -9,-13 -3,-3 -9,-5 -13,-3 -4,1 -6,4 -9,7 -9,13 -16,27 -21,43 -1,5 -3,11 -1,17 2,6 8,11 14,9"/>
  <path class="fil0 str0" d="M210 186c-7,2 -14,4 -21,6 -7,1 -13,3 -17,9 -2,3 -2,7 -1,11 1,17 10,31 21,44 7,8 15,16 26,19 11,3 24,0 29,-10 3,-4 3,-8 4,-13 1,-6 2,-12 3,-18 -4,11 -2,24 3,34 2,6 5,12 10,16 9,7 22,6 33,3 16,-2 32,-6 43,-17 10,-10 15,-25 16,-39 1,-5 0,-11 -2,-15 -6,-8 -17,-10 -27,-9 -26,3 -49,16 -72,28 -1,1 -3,2 -4,3"/>
  <path class="fil0 str0" d="M186 217c-3,-2 -8,-1 -12,-1 -23,4 -47,-1 -67,-14 5,14 14,26 25,36 9,8 23,14 33,7 8,-4 11,-14 13,-23 5,2 9,5 12,8 -8,8 -11,20 -16,30 -9,24 -27,44 -39,67 -2,3 -3,5 -3,8 -1,4 1,8 3,11 8,11 20,20 34,21 9,0 17,-4 25,-10 14,-10 24,-25 31,-41 9,-20 14,-41 15,-63 8,27 18,54 38,74 24,24 60,32 93,38 7,2 15,3 21,-2 -13,-52 -58,-96 -111,-107"/>
 </g>
</svg>
