<?xml version="1.0" encoding="UTF-8"?>
<!DOCTYPE svg PUBLIC "-//W3C//DTD SVG 1.1//EN" "http://www.w3.org/Graphics/SVG/1.1/DTD/svg11.dtd">
<!-- Creator: CorelDRAW X8 -->
<svg xmlns="http://www.w3.org/2000/svg" xml:space="preserve" width="500px" height="500px" version="1.1" style="shape-rendering:geometricPrecision; text-rendering:geometricPrecision; image-rendering:optimizeQuality; fill-rule:evenodd; clip-rule:evenodd"
viewBox="0 0 500 500"
 xmlns:xlink="http://www.w3.org/1999/xlink">
 <defs>
  <style type="text/css">
   <![CDATA[
    .str0 {stroke:black;stroke-width:1.00006}
    .fil0 {fill:none;fill-rule:nonzero}
   ]]>
  </style>
 </defs>
 <g id="Layer_x0020_1">
  <metadata id="CorelCorpID_0Corel-Layer"/>
  <path class="fil0 str0" d="M181 336c-8,9 -11,22 -12,34 -2,10 -2,22 4,31 8,13 26,16 42,17 11,0 23,0 34,-3 11,-4 21,-12 24,-23 3,-10 1,-22 -3,-32 -6,-18 -15,-38 -36,-39 -20,-1 -39,-4 -53,15z"/>
  <path class="fil0 str0" d="M215 247c-7,7 -10,17 -11,27 -2,11 -2,24 5,32 10,11 26,12 41,12 9,0 19,0 27,-6 4,-4 7,-9 10,-15 13,-25 11,-43 -14,-58 -17,-10 -45,-6 -58,8z"/>
  <path class="fil0 str0" d="M311 285c-12,7 -24,16 -32,27 -8,12 -11,28 -4,40 4,7 11,12 18,16 11,6 25,11 38,10 13,-1 27,-7 34,-19 9,-13 8,-29 6,-45 -1,-8 -2,-17 -6,-24 -13,-23 -36,-16 -54,-5z"/>
  <path class="fil0 str0" d="M152 272c-5,-1 -11,-1 -16,0 -6,2 -11,6 -15,10 -6,7 -9,15 -10,24 0,9 3,17 9,24 9,8 23,11 35,8 14,-4 40,-20 39,-37 -1,-18 -28,-27 -42,-29z"/>
  <path class="fil0 str0" d="M155 202c-12,7 -22,20 -19,34 1,6 5,11 8,15 8,9 17,17 29,16 9,0 17,-7 24,-13 11,-12 28,-35 13,-50 -12,-14 -41,-9 -55,-2z"/>
  <path class="fil0 str0" d="M226 220c11,-12 27,-19 44,-20 6,-14 9,-30 8,-45 -24,-4 -49,11 -71,1 -3,-1 -5,-3 -6,-5 -1,-2 -1,-4 -2,-6 0,-6 -2,-11 -5,-16"/>
  <path class="fil0 str0" d="M203 158c-1,-1 -2,-1 -2,-1 -4,4 -8,7 -12,11"/>
  <path class="fil0 str0" d="M274 157c5,-15 10,-30 14,-45 3,-9 6,-17 6,-26"/>
  <path class="fil0 str0" d="M271 189c6,10 19,15 27,24 3,4 6,8 8,12 4,6 8,12 10,18 3,9 5,18 4,26"/>
  <path class="fil0 str0" d="M201 362l25 23c0,0 1,1 1,0 1,0 1,-1 1,-1"/>
  <path class="fil0 str0" d="M205 385c6,-10 12,-20 18,-28"/>
  <path class="fil0 str0" d="M332 334c1,9 1,19 1,28 2,0 2,-3 3,-5 1,-7 2,-14 3,-21 10,2 22,3 32,0 -6,-2 -20,-3 -25,-7 -4,-4 0,-9 -6,-10 -4,-1 -11,5 -14,7 -7,3 -13,5 -21,6 3,0 27,-2 27,2z"/>
  <path class="fil0 str0" d="M259 260c-1,12 -2,25 -4,37 0,1 0,1 0,1 0,1 -1,0 0,0"/>
  <path class="fil0 str0" d="M232 287c-1,0 -2,0 -3,0 16,-2 33,-5 49,-9"/>
  <path class="fil0 str0" d="M148 301c0,-1 -1,-2 -2,-1 -3,7 -6,14 -9,21"/>
  <path class="fil0 str0" d="M132 306c9,2 18,4 27,6"/>
  <path class="fil0 str0" d="M158 213c-3,9 -4,19 -4,29"/>
  <path class="fil0 str0" d="M146 228c0,-1 -1,-2 -2,-2 8,1 15,1 22,1"/>
 </g>
</svg>
