<?xml version="1.0" encoding="UTF-8"?>
<!DOCTYPE svg PUBLIC "-//W3C//DTD SVG 1.1//EN" "http://www.w3.org/Graphics/SVG/1.1/DTD/svg11.dtd">
<!-- Creator: CorelDRAW X8 -->
<svg xmlns="http://www.w3.org/2000/svg" xml:space="preserve" width="500px" height="500px" version="1.1" style="shape-rendering:geometricPrecision; text-rendering:geometricPrecision; image-rendering:optimizeQuality; fill-rule:evenodd; clip-rule:evenodd"
viewBox="0 0 500 500"
 xmlns:xlink="http://www.w3.org/1999/xlink">
 <defs>
  <style type="text/css">
   <![CDATA[
    .str0 {stroke:black;stroke-width:1.00006}
    .fil0 {fill:none;fill-rule:nonzero}
   ]]>
  </style>
 </defs>
 <g id="Layer_x0020_1">
  <metadata id="CorelCorpID_0Corel-Layer"/>
  <path class="fil0 str0" d="M340 68c-5,-4 -10,-7 -15,-5 -8,2 -10,11 -10,18 -1,16 -2,31 3,46 9,23 51,50 60,12 3,-12 -6,-22 -11,-33 -7,-14 -15,-28 -27,-38z"/>
  <path class="fil0 str0" d="M312 140c-5,-3 -13,0 -16,5 -4,5 -5,12 -5,18 1,16 9,30 13,45 2,9 3,17 7,25 5,10 13,18 18,28 6,9 8,20 12,30 6,13 14,25 24,34 8,7 18,13 26,9 9,-4 11,-15 12,-24 1,-14 1,-28 -3,-41 -4,-13 -11,-26 -17,-38 -14,-24 -28,-48 -41,-72"/>
  <path class="fil0 str0" d="M191 240c3,13 5,26 6,39 1,12 1,24 5,35 4,14 13,25 22,36 3,4 7,9 12,9 9,1 14,-9 15,-18 2,-13 0,-26 -1,-39 -4,-30 -8,-63 -24,-90 -6,-10 -17,-22 -29,-14 -14,9 -9,29 -6,42z"/>
  <path class="fil0 str0" d="M28 341c13,-6 26,-12 40,-17 10,-3 21,-7 30,-11 11,-5 21,-12 31,-18 45,-29 91,-60 112,-108 16,-9 34,-13 49,-21 17,-9 30,-23 43,-36 33,-34 66,-68 99,-102"/>
  <path class="fil0 str0" d="M112 304c-2,29 -2,58 5,85 7,28 21,55 42,73 3,2 6,5 10,4 5,-1 6,-7 6,-13 4,-44 3,-89 -2,-133 -1,-7 -2,-14 -4,-20 -4,-14 -17,-39 -34,-38 -20,1 -22,28 -23,42z"/>
 </g>
</svg>
