<?xml version="1.0" encoding="UTF-8"?>
<!DOCTYPE svg PUBLIC "-//W3C//DTD SVG 1.1//EN" "http://www.w3.org/Graphics/SVG/1.1/DTD/svg11.dtd">
<!-- Creator: CorelDRAW X8 -->
<svg xmlns="http://www.w3.org/2000/svg" xml:space="preserve" width="500px" height="500px" version="1.1" style="shape-rendering:geometricPrecision; text-rendering:geometricPrecision; image-rendering:optimizeQuality; fill-rule:evenodd; clip-rule:evenodd"
viewBox="0 0 500 500"
 xmlns:xlink="http://www.w3.org/1999/xlink">
 <defs>
  <style type="text/css">
   <![CDATA[
    .str0 {stroke:black;stroke-width:1.00006}
    .fil0 {fill:none;fill-rule:nonzero}
   ]]>
  </style>
 </defs>
 <g id="Layer_x0020_1">
  <metadata id="CorelCorpID_0Corel-Layer"/>
  <path class="fil0 str0" d="M181 307c-6,21 -6,43 -2,65 1,12 5,23 11,34 6,10 16,18 27,21 4,1 9,1 13,0 9,-3 13,-13 17,-22 11,-30 20,-60 21,-92 0,-16 -2,-32 -9,-46 -8,-14 -22,-25 -36,-32 23,-8 43,-20 64,-33 10,-6 20,-13 29,-21 10,-10 18,-23 26,-35 8,-15 17,-29 25,-44 6,-10 11,-22 5,-32 -11,20 -21,40 -32,59 -5,9 -10,18 -16,26 -8,9 -18,17 -28,25 -12,9 -25,18 -38,26 -11,7 -23,15 -30,27 -10,-14 -6,-34 -1,-51 7,-26 13,-52 18,-79 2,-8 3,-17 -2,-23 -15,51 -31,102 -31,155 -12,-12 -18,-30 -21,-47 -2,-17 -4,-34 -3,-50 0,-10 1,-20 -1,-29 -2,-9 -7,-19 -15,-24 -1,0 -2,-1 -3,-1 -4,0 -6,4 -6,8 -9,35 -7,74 4,109 4,10 8,20 15,28 5,7 16,12 20,20 4,9 -3,17 -7,25 -6,11 -11,22 -14,33z"/>
 </g>
</svg>
