<?xml version="1.0" encoding="UTF-8"?>
<!DOCTYPE svg PUBLIC "-//W3C//DTD SVG 1.1//EN" "http://www.w3.org/Graphics/SVG/1.1/DTD/svg11.dtd">
<!-- Creator: CorelDRAW X8 -->
<svg xmlns="http://www.w3.org/2000/svg" xml:space="preserve" width="500px" height="500px" version="1.1" style="shape-rendering:geometricPrecision; text-rendering:geometricPrecision; image-rendering:optimizeQuality; fill-rule:evenodd; clip-rule:evenodd"
viewBox="0 0 500 500"
 xmlns:xlink="http://www.w3.org/1999/xlink">
 <defs>
  <style type="text/css">
   <![CDATA[
    .str0 {stroke:black;stroke-width:1.00006}
    .fil0 {fill:none;fill-rule:nonzero}
   ]]>
  </style>
 </defs>
 <g id="Layer_x0020_1">
  <metadata id="CorelCorpID_0Corel-Layer"/>
  <path class="fil0 str0" d="M133 68c12,-2 23,-2 35,-2 10,1 21,2 27,11 -5,14 -23,18 -32,29 -4,5 -7,12 -9,18 -5,15 -9,31 -10,47 -1,12 -1,23 -1,35 -1,27 -7,53 -10,80 -4,30 -6,60 -5,89 0,8 0,16 5,22 1,2 3,3 5,3 2,0 4,-2 5,-5 11,-18 17,-39 23,-60 11,-36 21,-71 26,-108 3,-16 4,-32 4,-48 -1,-12 -2,-24 -4,-36 -2,-17 -6,-37 -21,-45"/>
  <path class="fil0 str0" d="M194 78c15,8 29,20 40,33 1,2 2,3 2,4 1,2 -1,4 -2,6 -3,5 -5,11 -5,17"/>
  <path class="fil0 str0" d="M236 116c7,2 15,3 22,6 1,0 3,1 2,3"/>
  <path class="fil0 str0" d="M204 166c-2,21 -3,41 -3,61 0,15 1,31 0,46 -2,45 -20,91 -7,135 3,13 10,26 21,32 18,-42 35,-85 44,-129 8,-45 6,-93 -14,-133 -4,-8 -8,-16 -12,-24 -2,-3 -4,-13 -9,-15 -14,-6 -19,19 -20,27z"/>
  <path class="fil0 str0" d="M279 207c13,49 3,100 -1,150 -1,13 -2,27 3,39 2,5 6,10 11,10 6,0 9,-7 11,-12 13,-37 23,-75 26,-114 2,-39 -3,-80 -22,-114 -4,-8 -37,-55 -49,-38 -5,7 5,31 7,38 5,14 10,27 14,41z"/>
  <path class="fil0 str0" d="M164 127c-3,1 -6,4 -6,8 0,1 0,1 0,2 1,2 2,2 4,2 1,0 3,-1 4,-2 2,-1 4,-3 5,-5 0,-3 -3,-5 -5,-4"/>
  <path class="fil0 str0" d="M178 152c-3,1 -6,3 -6,6 -1,3 3,6 7,5 3,-1 5,-4 7,-7 0,-1 0,-2 0,-3 -1,-1 -2,-1 -2,-2 -4,-1 -7,0 -10,2"/>
  <path class="fil0 str0" d="M157 170c-2,0 -4,2 -5,3 -1,2 -1,4 -1,6 0,1 0,2 0,3 1,2 3,3 5,3 4,0 8,-5 7,-9 -1,-5 -7,-7 -11,-5"/>
  <path class="fil0 str0" d="M182 188c-2,-2 -4,0 -6,2 -1,1 -3,3 -4,5 0,2 1,5 3,5 3,0 4,-2 5,-4 1,-3 2,-6 1,-8 -1,-3 -5,-4 -7,-2"/>
  <path class="fil0 str0" d="M157 206c-3,-2 -6,1 -9,3 -2,2 -5,6 -3,9 1,1 3,2 5,2 4,0 8,-4 8,-7 0,-4 -4,-8 -8,-7"/>
  <path class="fil0 str0" d="M185 221c-4,-1 -9,0 -12,4 -1,2 -2,4 -1,6 0,2 2,4 4,4 3,0 5,-4 5,-7 0,-3 0,-6 -3,-7"/>
  <path class="fil0 str0" d="M150 244c-4,0 -5,6 -2,8 3,2 8,-1 8,-5 0,-3 -3,-7 -7,-6"/>
  <path class="fil0 str0" d="M172 254c-3,0 -6,3 -6,6 1,4 5,6 8,5 3,-1 5,-5 4,-8 -1,-3 -5,-5 -8,-5"/>
  <path class="fil0 str0" d="M148 270c0,-1 -2,-2 -3,-3 -1,3 -2,6 -2,8 0,3 2,6 5,7 2,0 5,-2 6,-4 2,-2 3,-5 2,-7 -1,-3 -4,-4 -6,-3"/>
  <path class="fil0 str0" d="M165 287c-1,-1 -3,-1 -4,0 -1,1 -1,3 -1,4 0,1 0,2 0,3 2,3 7,2 8,-1 1,-4 -1,-7 -4,-9"/>
  <path class="fil0 str0" d="M141 299c-1,0 -2,1 -2,2 -1,4 2,10 6,10 4,1 8,-5 6,-9 -2,-4 -7,-5 -11,-4"/>
  <path class="fil0 str0" d="M147 328c-4,-2 -8,2 -8,5 0,4 4,8 8,7 4,-1 6,-5 5,-9 -1,-4 -5,-6 -9,-5"/>
  <path class="fil0 str0" d="M159 309c-3,1 -4,5 -3,7 1,1 1,2 2,2 1,0 1,-1 2,-1 2,-3 2,-7 1,-10"/>
  <path class="fil0 str0" d="M139 354c-2,0 -4,1 -5,3 -1,2 -1,4 -1,6 0,1 1,2 1,3 1,2 3,2 5,1 1,-2 2,-3 3,-5 1,-3 2,-7 0,-9"/>
  <path class="fil0 str0" d="M221 171c-4,2 -7,3 -10,6 -2,3 -3,7 -2,11 1,3 5,6 9,4 2,-1 3,-3 4,-5 2,-7 -5,-15 -13,-15"/>
  <path class="fil0 str0" d="M220 158c-3,1 -4,5 -2,7 3,2 7,1 7,-2 1,-3 -1,-5 -3,-7 0,0 -1,-1 -2,-1 -1,0 -2,1 -1,2"/>
  <path class="fil0 str0" d="M242 202c-4,-3 -10,0 -13,4 -1,1 -1,3 -2,5 0,3 3,6 6,7 4,1 7,1 11,0 1,-1 3,-2 5,-3 1,-1 2,-3 1,-5 -1,-1 -2,-2 -4,-2 -3,-1 -7,-2 -11,-1"/>
  <path class="fil0 str0" d="M206 210c-1,2 -3,5 -2,7 0,3 4,5 7,4 3,-1 5,-5 4,-8 -1,-3 -5,-5 -8,-5"/>
  <path class="fil0 str0" d="M250 240c-9,-3 -19,1 -23,10 -1,1 -2,2 -1,4 0,2 3,4 6,4 8,1 16,-2 21,-9 0,-1 1,-2 1,-3 0,-3 -2,-5 -4,-6 -2,-1 -4,-1 -7,-1"/>
  <path class="fil0 str0" d="M218 232c1,0 0,-1 0,-2 -1,0 -1,1 -2,1 -4,2 -8,6 -10,11 0,0 -1,1 -1,2 1,2 3,4 5,4 6,2 12,-3 15,-9 1,-2 2,-5 0,-8 -1,-2 -5,-3 -7,-1"/>
  <path class="fil0 str0" d="M249 281c0,-1 -1,-2 -2,-1 -1,0 -2,0 -3,1 -5,5 -10,11 -12,18 -1,2 -1,3 0,5 0,0 1,0 2,0 7,1 14,-2 18,-8 1,-1 2,-4 1,-6 -1,-1 -2,-2 -3,-2 -3,-2 -6,-3 -10,-3"/>
  <path class="fil0 str0" d="M218 271c-5,2 -9,4 -13,7 -2,2 -3,4 -4,6 -1,6 6,10 11,10 5,-1 10,-3 13,-7 2,-2 4,-5 5,-8 0,-3 -1,-7 -3,-8 -4,-3 -9,-2 -13,1"/>
  <path class="fil0 str0" d="M217 310c-7,3 -14,7 -18,13 -1,2 -3,4 -3,6 0,4 3,8 6,9 4,1 8,0 11,-2 5,-3 7,-9 6,-15 -2,-6 -6,-10 -12,-11"/>
  <path class="fil0 str0" d="M237 329c-5,2 -8,6 -10,11 0,1 -1,3 0,4 1,2 4,3 6,3 2,-1 3,-3 5,-5 2,-3 3,-7 2,-11 -1,-3 -6,-5 -9,-3"/>
  <path class="fil0 str0" d="M209 350c-6,2 -11,6 -14,12 -3,4 -4,11 0,14 2,2 6,3 9,1 3,-1 6,-3 7,-6 4,-4 5,-10 4,-15 -2,-5 -9,-8 -13,-5"/>
  <path class="fil0 str0" d="M205 395c1,0 0,-2 0,-1 -3,5 -3,11 0,15 5,-2 6,-8 6,-13 0,-1 0,-3 -1,-4 -1,-1 -3,-1 -3,0"/>
  <path class="fil0 str0" d="M268 156c-2,1 -3,4 -2,6 1,2 4,2 6,2 3,-2 4,-7 1,-9 -2,-3 -7,-2 -10,0"/>
  <path class="fil0 str0" d="M292 171c-3,2 -6,4 -7,8 -1,3 0,7 2,10 2,1 4,2 5,1 1,-1 1,-1 2,-2 2,-5 0,-10 -4,-13"/>
  <path class="fil0 str0" d="M286 156c-3,1 -5,5 -3,8 2,3 6,4 9,2 2,-2 3,-6 1,-9 -2,-2 -6,-3 -9,-2"/>
  <path class="fil0 str0" d="M313 207c-1,-2 -4,-1 -5,0 -2,1 -3,3 -3,5 -1,2 -2,5 -3,7 0,3 1,5 3,6 3,2 7,1 8,-2 2,-3 1,-6 0,-9 -2,-3 -5,-4 -8,-6"/>
  <path class="fil0 str0" d="M285 202c-5,2 -5,9 -2,12 4,3 11,1 12,-4 2,-4 -3,-10 -8,-9"/>
  <path class="fil0 str0" d="M307 248c-6,1 -11,6 -12,12 0,2 0,4 1,6 2,3 8,3 11,-1 2,-2 3,-7 2,-10 -2,-3 -5,-6 -8,-6"/>
  <path class="fil0 str0" d="M317 230c-4,1 -7,5 -6,10 0,2 3,4 6,4 1,0 2,-2 3,-3 3,-5 0,-13 -6,-14"/>
  <path class="fil0 str0" d="M321 286c-3,-1 -6,-1 -9,1 -2,2 -4,5 -5,7 -2,3 -3,7 -1,9 2,2 5,2 7,1 2,-1 4,-4 5,-6 1,-3 2,-5 1,-8 0,-2 -3,-4 -5,-4"/>
  <path class="fil0 str0" d="M293 278c-2,1 -3,3 -4,5 0,2 0,5 1,7 0,1 0,2 1,3 2,1 5,-1 6,-2 2,-3 3,-6 2,-9 -1,-2 -5,-4 -7,-2"/>
  <path class="fil0 str0" d="M317 317c-8,-1 -16,2 -21,8 -3,3 -5,9 -2,12 2,3 6,4 9,3 4,-1 6,-4 9,-6 1,-2 3,-3 3,-5 0,-3 -1,-5 -2,-7 -2,-3 -4,-5 -6,-8"/>
  <path class="fil0 str0" d="M290 352c-3,3 -6,8 -6,13 0,5 4,10 9,9 2,0 4,-1 5,-2 3,-3 5,-7 4,-12 0,-4 -3,-8 -7,-10"/>
 </g>
</svg>
