<?xml version="1.0" encoding="UTF-8"?>
<!DOCTYPE svg PUBLIC "-//W3C//DTD SVG 1.1//EN" "http://www.w3.org/Graphics/SVG/1.1/DTD/svg11.dtd">
<!-- Creator: CorelDRAW X8 -->
<svg xmlns="http://www.w3.org/2000/svg" xml:space="preserve" width="500px" height="500px" version="1.1" style="shape-rendering:geometricPrecision; text-rendering:geometricPrecision; image-rendering:optimizeQuality; fill-rule:evenodd; clip-rule:evenodd"
viewBox="0 0 500 500"
 xmlns:xlink="http://www.w3.org/1999/xlink">
 <defs>
  <style type="text/css">
   <![CDATA[
    .str0 {stroke:black;stroke-width:1.00006}
    .fil0 {fill:none;fill-rule:nonzero}
   ]]>
  </style>
 </defs>
 <g id="Layer_x0020_1">
  <metadata id="CorelCorpID_0Corel-Layer"/>
  <path class="fil0 str0" d="M213 58c-15,13 -26,33 -24,53 2,19 16,38 36,42 -1,-1 -2,-3 -1,-5 11,1 22,2 33,0 11,-3 21,-9 27,-18 7,-14 3,-30 -2,-45 -3,-10 -7,-20 -15,-28 -14,-15 -39,-11 -54,1z"/>
  <path class="fil0 str0" d="M222 155c-1,-2 -2,-3 -3,-5 -1,31 1,62 -1,93 -2,31 -8,62 -23,89 -8,13 -17,25 -27,36 -11,13 -23,26 -30,42"/>
  <path class="fil0 str0" d="M231 153c-3,30 4,59 3,89 -1,36 -15,69 -26,103 -10,34 -19,70 -11,105"/>
  <path class="fil0 str0" d="M248 146c1,11 2,22 4,33 3,27 6,55 4,83 -4,45 -23,88 -26,134 -1,19 1,37 3,56"/>
  <path class="fil0 str0" d="M271 139c-1,14 -1,27 0,40 3,41 13,82 11,123 -2,24 -7,48 -11,72 -3,24 -3,49 5,71"/>
  <path class="fil0 str0" d="M280 138c5,9 9,19 12,28 5,18 8,36 9,55 3,41 -4,85 13,123 10,23 29,43 36,67"/>
 </g>
</svg>
