<?xml version="1.0" encoding="UTF-8"?>
<!DOCTYPE svg PUBLIC "-//W3C//DTD SVG 1.1//EN" "http://www.w3.org/Graphics/SVG/1.1/DTD/svg11.dtd">
<!-- Creator: CorelDRAW X8 -->
<svg xmlns="http://www.w3.org/2000/svg" xml:space="preserve" width="500px" height="500px" version="1.1" style="shape-rendering:geometricPrecision; text-rendering:geometricPrecision; image-rendering:optimizeQuality; fill-rule:evenodd; clip-rule:evenodd"
viewBox="0 0 500 500"
 xmlns:xlink="http://www.w3.org/1999/xlink">
 <defs>
  <style type="text/css">
   <![CDATA[
    .str0 {stroke:black;stroke-width:1.00006}
    .fil0 {fill:none;fill-rule:nonzero}
   ]]>
  </style>
 </defs>
 <g id="Layer_x0020_1">
  <metadata id="CorelCorpID_0Corel-Layer"/>
  <path class="fil0 str0" d="M213 130c12,15 23,30 25,48 2,18 -5,34 -12,50 12,-32 34,-61 62,-81 13,-8 27,-16 42,-15 -3,5 -5,10 -8,15 -5,8 -9,16 -14,23 -18,27 -45,45 -73,62 46,-20 101,-18 146,5 -47,16 -98,17 -145,2 10,7 19,15 26,24 21,26 33,60 33,94 0,4 -2,8 -5,9 -3,0 -5,-2 -6,-4 -15,-15 -29,-31 -40,-50 -12,-18 -19,-39 -18,-60 -15,29 -31,58 -47,86 -4,8 -8,15 -15,21 -1,1 -3,2 -4,2 -2,0 -3,-2 -4,-3 -5,-11 -5,-24 -2,-36 8,-33 31,-62 61,-77 -20,-1 -40,-6 -57,-16 -17,-11 -30,-26 -37,-45 18,8 36,10 55,15 8,3 17,6 24,11 8,4 13,13 20,17 -6,-16 -14,-29 -15,-47 -1,-17 1,-34 8,-50z"/>
 </g>
</svg>
