<?xml version="1.0" encoding="UTF-8"?>
<!DOCTYPE svg PUBLIC "-//W3C//DTD SVG 1.1//EN" "http://www.w3.org/Graphics/SVG/1.1/DTD/svg11.dtd">
<!-- Creator: CorelDRAW X8 -->
<svg xmlns="http://www.w3.org/2000/svg" xml:space="preserve" width="500px" height="500px" version="1.1" style="shape-rendering:geometricPrecision; text-rendering:geometricPrecision; image-rendering:optimizeQuality; fill-rule:evenodd; clip-rule:evenodd"
viewBox="0 0 500 500"
 xmlns:xlink="http://www.w3.org/1999/xlink">
 <defs>
  <style type="text/css">
   <![CDATA[
    .str0 {stroke:black;stroke-width:1.00006}
    .fil0 {fill:none;fill-rule:nonzero}
   ]]>
  </style>
 </defs>
 <g id="Layer_x0020_1">
  <metadata id="CorelCorpID_0Corel-Layer"/>
  <path class="fil0 str0" d="M207 109c28,16 59,29 91,25 5,-1 11,-3 16,-6 11,-8 13,-25 7,-37 -6,-12 -18,-20 -31,-24 -13,-5 -26,-6 -39,-9 -14,-3 -28,-8 -42,-6 -12,1 -30,11 -31,24 -1,15 19,27 29,33z"/>
  <path class="fil0 str0" d="M249 98c-4,-2 -4,-8 -2,-13 6,-23 12,-47 18,-70"/>
  <path class="fil0 str0" d="M178 81c-11,42 -4,90 21,126 4,6 8,12 10,19 3,10 0,20 -2,29 -12,48 -23,95 -35,142 -3,11 -5,21 -10,31 -7,14 -19,27 -25,42 22,-9 34,-32 43,-54 18,-42 34,-87 35,-133 0,-16 -1,-32 3,-47 1,-3 2,-6 4,-8 2,-2 5,-3 8,-5 27,-12 47,-36 67,-58 10,-12 20,-25 19,-40"/>
 </g>
</svg>
