<?xml version="1.0" encoding="UTF-8"?>
<!DOCTYPE svg PUBLIC "-//W3C//DTD SVG 1.1//EN" "http://www.w3.org/Graphics/SVG/1.1/DTD/svg11.dtd">
<!-- Creator: CorelDRAW X8 -->
<svg xmlns="http://www.w3.org/2000/svg" xml:space="preserve" width="500px" height="500px" version="1.1" style="shape-rendering:geometricPrecision; text-rendering:geometricPrecision; image-rendering:optimizeQuality; fill-rule:evenodd; clip-rule:evenodd"
viewBox="0 0 500 500"
 xmlns:xlink="http://www.w3.org/1999/xlink">
 <defs>
  <style type="text/css">
   <![CDATA[
    .str0 {stroke:black;stroke-width:1.00006}
    .fil0 {fill:none;fill-rule:nonzero}
   ]]>
  </style>
 </defs>
 <g id="Layer_x0020_1">
  <metadata id="CorelCorpID_0Corel-Layer"/>
  <path class="fil0 str0" d="M228 271c-7,6 -14,12 -21,18 -1,1 -2,3 -2,4 1,1 1,1 2,2 3,3 7,3 11,4 6,0 11,0 17,0 3,0 6,-1 9,-2 3,-2 6,-5 6,-8 1,-4 -2,-8 -5,-11 -5,-5 -11,-8 -18,-9"/>
  <path class="fil0 str0" d="M221 242c-4,1 -8,-1 -12,0 -7,0 -12,8 -12,15 0,3 0,5 1,7 3,3 8,4 12,3 4,-2 6,-6 7,-10 2,-4 1,-9 1,-13"/>
  <path class="fil0 str0" d="M242 244c-4,1 -8,2 -10,5 -3,2 -4,7 -2,10 1,2 3,3 5,3 5,2 10,3 15,4 3,1 6,1 7,-1 1,-2 1,-3 1,-5 0,-3 0,-7 -2,-9 -3,-4 -9,-4 -14,-7"/>
  <path class="fil0 str0" d="M256 217c8,0 15,5 19,12 1,1 1,3 1,4 0,2 -3,4 -5,5 -4,2 -9,4 -14,4 -5,0 -10,-3 -11,-8 -1,-4 1,-9 5,-11 3,-3 7,-4 11,-5"/>
  <path class="fil0 str0" d="M207 223c-2,1 -3,3 -3,5 0,1 0,2 1,3 0,1 1,2 1,2 5,4 12,4 18,2 14,-4 -4,-23 -17,-12z"/>
  <path class="fil0 str0" d="M243 202c3,-4 8,-6 13,-6 1,0 3,0 4,1 0,0 0,1 1,3 0,5 -3,10 -7,13 -5,4 -11,7 -17,6 -3,-6 0,-15 6,-19"/>
  <path class="fil0 str0" d="M232 184c-6,3 -12,5 -18,8 -3,1 -5,2 -7,4 -2,2 -3,5 -2,7 1,3 4,5 7,6 3,1 7,1 10,0 4,-1 6,-3 7,-7 0,-4 -4,-8 -8,-10"/>
  <path class="fil0 str0" d="M242 181c5,-4 10,-6 16,-6 2,0 5,0 7,1 2,1 4,4 3,7 -1,2 -3,3 -4,4 -4,2 -9,5 -14,5 -5,0 -10,-3 -11,-7 0,-1 1,-1 1,-2"/>
  <path class="fil0 str0" d="M241 158c-4,2 -8,3 -12,3 -4,0 -9,-2 -13,-1 -5,1 -8,7 -6,12 1,5 7,9 12,8 3,0 6,-1 9,-3 3,-1 6,-3 7,-6 2,-3 2,-7 -1,-9"/>
  <path class="fil0 str0" d="M251 161c-3,-1 -3,-6 -1,-8 4,-5 11,-6 16,-3 2,1 3,3 4,5 1,3 -2,7 -5,9 -4,2 -8,1 -11,1 -2,0 -4,0 -5,-1 -1,-1 -1,-3 0,-4"/>
  <path class="fil0 str0" d="M244 138c-3,4 -6,8 -5,12 1,4 6,6 10,4 3,-1 5,-6 3,-10 -3,-3 -8,-4 -11,-1"/>
  <path class="fil0 str0" d="M231 127c-6,2 -12,4 -17,8 -2,2 -5,5 -6,8 -1,3 0,7 2,9 2,1 4,1 7,1 6,0 13,-4 14,-10 1,-6 -3,-11 -7,-15"/>
  <path class="fil0 str0" d="M252 123c-2,-2 -5,0 -5,3 -1,2 1,4 3,6 4,4 7,7 12,9 4,1 10,-1 12,-5 1,-6 -4,-11 -9,-13 -7,-2 -16,0 -22,5"/>
  <path class="fil0 str0" d="M238 105c-3,-1 -7,2 -9,5 -2,2 -3,5 -2,8 1,4 5,6 9,5 3,-1 6,-5 5,-9 0,-4 -3,-7 -6,-9"/>
  <path class="fil0 str0" d="M218 104c-2,1 -2,3 -3,5 -1,4 -4,6 -8,7 -3,1 -7,2 -9,4 -1,1 -2,1 -2,2 0,1 0,2 1,2 2,3 6,3 8,2 3,-2 5,-4 7,-7 2,-4 3,-8 3,-13"/>
  <path class="fil0 str0" d="M264 98c0,0 0,-1 -1,-1 -1,0 -2,0 -2,1 -3,2 -5,5 -5,8 0,3 2,6 5,7 2,1 5,2 8,2 3,0 5,-1 7,-2 1,-2 1,-4 0,-6 -1,-5 -7,-9 -12,-9"/>
  <path class="fil0 str0" d="M249 82c-5,3 -10,5 -15,7 -1,1 -3,2 -3,4 0,1 1,2 2,2 5,3 11,5 16,5 2,0 3,0 4,-1 4,-2 4,-7 2,-10 -3,-4 -7,-5 -11,-6"/>
  <path class="fil0 str0" d="M221 77c-3,0 -6,1 -8,2 -2,2 -4,5 -3,7 1,3 4,5 7,6 5,1 11,2 14,-3 1,-2 0,-5 -2,-7 -1,-2 -4,-4 -6,-5"/>
  <path class="fil0 str0" d="M253 58c0,-2 -2,-2 -4,-2 -4,1 -8,2 -11,5 -4,3 -6,7 -4,11 1,3 4,5 7,5 4,1 9,-1 11,-5 3,-3 4,-8 3,-12 -1,-2 -2,-5 -4,-6 -2,-2 -6,-1 -6,2"/>
  <path class="fil0 str0" d="M222 61c-1,0 -2,0 -4,0 0,3 1,7 4,8 0,1 1,1 1,1 1,0 2,-1 2,-2 1,-5 0,-9 -2,-13"/>
  <path class="fil0 str0" d="M223 53c1,-5 0,-10 0,-15 3,-1 6,-1 8,2 2,2 2,6 0,8 -2,2 -6,2 -8,-1"/>
  <path class="fil0 str0" d="M239 44c-4,-3 -2,-11 2,-13 3,4 4,9 3,13"/>
  <path class="fil0 str0" d="M259 42c-1,-4 -2,-7 -1,-11l6 0c0,3 0,7 0,11"/>
  <path class="fil0 str0" d="M273 48c-1,6 -4,11 -8,15"/>
  <path class="fil0 str0" d="M279 65c-1,-1 -1,2 -2,3 0,3 -3,5 -5,5"/>
  <path class="fil0 str0" d="M262 275c4,1 8,2 11,5 2,2 4,7 2,10 -3,3 -7,4 -11,2 -4,-2 -6,-5 -8,-8"/>
  <path class="fil0 str0" d="M242 314c-1,11 -3,21 -4,32 -6,44 -14,88 -22,132 -2,0 -3,-2 -2,-4"/>
  <path class="fil0 str0" d="M234 311c-14,54 -19,109 -39,160 -1,2 -4,4 -4,2"/>
 </g>
</svg>
