<?xml version="1.0" encoding="UTF-8"?>
<!DOCTYPE svg PUBLIC "-//W3C//DTD SVG 1.1//EN" "http://www.w3.org/Graphics/SVG/1.1/DTD/svg11.dtd">
<!-- Creator: CorelDRAW X8 -->
<svg xmlns="http://www.w3.org/2000/svg" xml:space="preserve" width="500px" height="500px" version="1.1" style="shape-rendering:geometricPrecision; text-rendering:geometricPrecision; image-rendering:optimizeQuality; fill-rule:evenodd; clip-rule:evenodd"
viewBox="0 0 500 500"
 xmlns:xlink="http://www.w3.org/1999/xlink">
 <defs>
  <style type="text/css">
   <![CDATA[
    .str0 {stroke:black;stroke-width:1.00006}
    .fil0 {fill:none;fill-rule:nonzero}
   ]]>
  </style>
 </defs>
 <g id="Layer_x0020_1">
  <metadata id="CorelCorpID_0Corel-Layer"/>
  <path class="fil0 str0" d="M238 120c1,5 3,10 0,12 -3,2 -7,0 -11,0 -2,0 -3,1 -5,2 -20,10 -38,23 -55,37 -5,4 -9,9 -12,14 -2,6 -1,13 4,17 4,3 11,2 16,0 11,-4 21,-12 30,-20 5,7 0,17 -7,23 -10,11 -24,17 -34,28 -12,13 -17,31 -19,48 -2,17 -2,34 -6,51 0,2 0,4 -1,5 -2,2 -4,2 -6,3 -6,1 -12,3 -17,0 -5,-2 -7,-8 -8,-13 -1,-5 0,-10 1,-15 -10,7 -11,23 -3,32 8,10 22,12 33,7 2,-1 3,-1 5,-1 4,0 4,6 5,10 1,10 9,18 19,22 9,4 19,4 29,5 -2,3 -5,7 -5,12 -1,4 2,9 6,10 4,0 8,-4 10,-8 1,-4 1,-8 3,-12 8,4 18,6 27,4 9,-2 17,-10 17,-19 2,13 14,24 27,24 13,0 26,-10 28,-23 -10,4 -21,6 -30,0 -6,-5 -7,-14 -6,-22 1,-7 5,-14 9,-22 18,-39 21,-85 9,-126 4,6 8,11 12,17 1,2 3,3 4,4 3,2 6,1 9,0 7,-4 11,-13 10,-22 -2,-8 -7,-16 -12,-22 -13,-17 -29,-32 -47,-44 -2,-2 -4,-3 -5,-5 -3,-8 5,-16 -3,-23 -9,-7 -22,-1 -21,10z"/>
  <path class="fil0 str0" d="M311 236c1,4 3,8 4,12 3,13 7,26 14,37"/>
  <path class="fil0 str0" d="M320 231c2,-1 4,1 5,2 7,6 12,13 19,18 7,5 17,7 25,4"/>
  <path class="fil0 str0" d="M330 217c-1,-1 1,-2 2,-2 4,0 8,0 12,1 3,0 5,1 7,1 6,1 11,-1 16,-4 5,-2 10,-4 13,-9"/>
  <path class="fil0 str0" d="M330 200c4,-1 9,-3 12,-6 3,-2 5,-5 7,-8 4,-4 8,-7 12,-10 5,-3 10,-7 14,-10"/>
  <path class="fil0 str0" d="M323 176c2,-3 5,-5 8,-7 6,-5 10,-12 14,-19 5,-5 10,-11 12,-18 0,-2 0,-4 -1,-5"/>
  <path class="fil0 str0" d="M311 160c5,-5 6,-12 8,-19 3,-9 7,-17 11,-25"/>
  <path class="fil0 str0" d="M207 131c-5,0 -10,-3 -14,-5 -4,-3 -7,-5 -10,-8 -2,-3 -4,-6 -6,-10 -3,-5 -8,-10 -12,-14 -1,0 -1,-1 -2,-1 -1,0 -2,0 -2,1"/>
  <path class="fil0 str0" d="M188 151c-7,-16 -26,-25 -34,-40"/>
  <path class="fil0 str0" d="M151 164c-1,-2 -4,-2 -6,-2 -10,-1 -19,-9 -29,-10"/>
  <path class="fil0 str0" d="M141 194c1,0 2,-1 1,-2 -1,0 -2,0 -2,0 -13,2 -25,6 -37,11"/>
  <path class="fil0 str0" d="M150 211c-4,7 -9,14 -17,19 -3,2 -6,4 -9,6 -2,3 -4,7 -3,10"/>
  <path class="fil0 str0" d="M167 216c-2,-2 -5,0 -6,2 -7,6 -14,12 -21,19"/>
  <path class="fil0 str0" d="M167 156c-13,-9 -25,-18 -36,-29"/>
 </g>
</svg>
