<?xml version="1.0" encoding="UTF-8"?>
<!DOCTYPE svg PUBLIC "-//W3C//DTD SVG 1.1//EN" "http://www.w3.org/Graphics/SVG/1.1/DTD/svg11.dtd">
<!-- Creator: CorelDRAW X8 -->
<svg xmlns="http://www.w3.org/2000/svg" xml:space="preserve" width="500px" height="500px" version="1.1" style="shape-rendering:geometricPrecision; text-rendering:geometricPrecision; image-rendering:optimizeQuality; fill-rule:evenodd; clip-rule:evenodd"
viewBox="0 0 500 500"
 xmlns:xlink="http://www.w3.org/1999/xlink">
 <defs>
  <style type="text/css">
   <![CDATA[
    .str0 {stroke:black;stroke-width:1.00006}
    .fil0 {fill:none;fill-rule:nonzero}
   ]]>
  </style>
 </defs>
 <g id="Layer_x0020_1">
  <metadata id="CorelCorpID_0Corel-Layer"/>
  <path class="fil0 str0" d="M157 91c-5,1 -8,7 -9,13 -4,11 -7,23 -5,35 4,17 19,29 33,40 -1,-4 1,-9 2,-13 6,-11 11,-21 15,-33 4,-11 6,-23 2,-35"/>
  <path class="fil0 str0" d="M219 105c-8,19 -17,39 -26,58 -3,6 -5,13 -3,19 2,4 6,6 9,9 12,10 21,23 25,38 16,-13 32,-28 38,-48 8,-24 -1,-52 -22,-67"/>
  <path class="fil0 str0" d="M111 128c7,29 32,53 62,58 -15,23 -50,24 -66,46 -4,6 -7,14 -13,19"/>
  <path class="fil0 str0" d="M180 199c0,-1 0,-3 -1,-4 -11,13 -22,25 -31,39 -5,8 -10,16 -17,23 -6,7 -14,13 -24,16"/>
  <path class="fil0 str0" d="M180 200c0,-1 0,-2 -1,-3 9,7 16,16 19,27 2,7 3,13 5,20 4,15 15,27 25,39 -1,-2 1,-4 3,-3"/>
  <path class="fil0 str0" d="M232 250c6,-11 18,-19 27,-28 12,-13 19,-30 21,-48 2,-17 -2,-35 -8,-52"/>
  <path class="fil0 str0" d="M340 99c-25,13 -34,46 -28,74 3,15 9,31 2,44 -4,7 -11,12 -17,16 -19,11 -41,20 -63,16"/>
  <path class="fil0 str0" d="M295 260c16,-3 30,-15 36,-30 14,-30 -5,-70 13,-99 6,-10 16,-17 25,-24 1,-1 2,-1 4,-1 1,0 0,2 -1,2"/>
  <path class="fil0 str0" d="M417 124c-7,7 -12,15 -15,25 -1,6 -2,13 -3,19 -4,26 -13,52 -31,71 -18,19 -46,31 -71,26"/>
  <path class="fil0 str0" d="M299 283c19,6 37,11 56,17 12,4 25,8 36,16 11,7 19,19 20,32"/>
  <path class="fil0 str0" d="M299 308c14,5 28,12 41,19 10,5 20,11 28,19 9,7 15,18 16,29 2,8 0,16 -2,24 -2,11 -4,21 -6,31"/>
  <path class="fil0 str0" d="M227 286c-23,-4 -47,7 -62,25 -6,7 -11,15 -13,23 -7,-23 -22,-44 -43,-57"/>
  <path class="fil0 str0" d="M223 302c-4,-4 -11,-1 -16,3 -27,23 -47,56 -53,91"/>
  <path class="fil0 str0" d="M281 273c-1,-2 -3,0 -3,1 -11,22 -5,50 12,68 8,9 19,15 27,24 8,9 14,22 8,33"/>
  <path class="fil0 str0" d="M267 275c-1,0 -2,-1 -3,-1 -17,6 -30,20 -35,37 -3,11 -3,21 -4,32 0,11 -1,22 -5,32 -5,10 -14,18 -24,19"/>
 </g>
</svg>
