<?xml version="1.0" encoding="UTF-8"?>
<!DOCTYPE svg PUBLIC "-//W3C//DTD SVG 1.1//EN" "http://www.w3.org/Graphics/SVG/1.1/DTD/svg11.dtd">
<!-- Creator: CorelDRAW X8 -->
<svg xmlns="http://www.w3.org/2000/svg" xml:space="preserve" width="500px" height="500px" version="1.1" style="shape-rendering:geometricPrecision; text-rendering:geometricPrecision; image-rendering:optimizeQuality; fill-rule:evenodd; clip-rule:evenodd"
viewBox="0 0 500 500"
 xmlns:xlink="http://www.w3.org/1999/xlink">
 <defs>
  <style type="text/css">
   <![CDATA[
    .str0 {stroke:black;stroke-width:1.00006}
    .fil0 {fill:none;fill-rule:nonzero}
   ]]>
  </style>
 </defs>
 <g id="Layer_x0020_1">
  <metadata id="CorelCorpID_0Corel-Layer"/>
  <path class="fil0 str0" d="M192 211c-3,4 -6,10 -3,14 2,3 7,4 11,4 1,-1 3,-1 5,-2 4,-2 5,-9 3,-13 -3,-5 -9,-6 -14,-6"/>
  <path class="fil0 str0" d="M227 196c1,-2 -2,-2 -4,-2 -4,1 -8,2 -11,3 -2,1 -4,2 -4,4 0,1 0,2 0,3 3,5 10,6 15,6 3,0 6,0 8,-3 2,-2 1,-5 -1,-8 -1,-2 -4,-4 -7,-5"/>
  <path class="fil0 str0" d="M256 187c-6,1 -11,4 -14,8 -1,1 -3,3 -2,5 1,2 2,3 4,4 2,1 4,2 7,3 3,0 6,-1 7,-3 2,-2 2,-6 1,-8 -1,-3 -2,-5 -4,-7"/>
  <path class="fil0 str0" d="M282 207c-1,-2 -4,-3 -6,-3 -2,0 -4,1 -6,2 -4,2 -8,5 -8,9 0,3 2,5 4,7 3,1 5,1 8,1 5,-1 9,-3 11,-8 1,-4 -2,-10 -7,-9"/>
  <path class="fil0 str0" d="M286 235c2,0 1,-2 0,-3 -1,0 -3,0 -4,1 -2,1 -5,2 -7,3 -3,2 -6,4 -5,7 0,2 3,3 5,4 3,1 6,3 9,3 3,0 7,-1 8,-4 3,-4 1,-10 -4,-11"/>
  <path class="fil0 str0" d="M284 266c-6,-1 -11,-3 -16,-1 -6,1 -10,7 -8,12 1,5 8,7 14,6 3,-1 7,-2 8,-5 2,-3 0,-8 -3,-8"/>
  <path class="fil0 str0" d="M245 278c-1,-1 -3,-2 -5,-2 -1,0 -3,1 -4,2 -3,2 -5,5 -7,7 -1,1 -2,2 -2,4 0,1 1,1 1,2 3,3 7,5 11,5 3,0 7,-1 9,-3 2,-2 2,-5 1,-8 -1,-3 -2,-5 -4,-8"/>
  <path class="fil0 str0" d="M213 266c-7,1 -12,7 -12,13 0,1 0,2 1,3 1,2 3,2 5,2 5,0 11,0 13,-4 3,-3 2,-7 0,-10 -3,-3 -7,-4 -10,-3"/>
  <path class="fil0 str0" d="M196 246c-3,-1 -6,0 -8,2 -2,2 -1,6 0,8 2,2 5,4 7,5 4,0 7,0 10,-2 3,-1 5,-5 4,-8 0,-3 -2,-5 -4,-7 -1,-2 -4,-4 -6,-2"/>
  <path class="fil0 str0" d="M179 211c-23,-17 -58,-14 -78,6 -21,20 -26,53 -15,80 6,14 17,27 31,33 16,6 33,3 48,-4 15,-8 27,-19 39,-31 -4,17 -9,33 -13,50 -3,9 -5,19 -3,28 3,10 10,18 19,23 20,13 48,15 66,0 15,-13 20,-36 12,-54 -7,-14 -22,-24 -28,-39 5,6 15,6 22,10 10,4 16,15 23,23 16,20 43,31 69,29 18,-1 35,-10 46,-24 11,-15 13,-36 3,-51 -13,-20 -40,-24 -64,-22 -16,1 -33,5 -49,9 33,-31 88,-28 116,-62 14,-17 18,-43 8,-62 -11,-20 -36,-31 -57,-23 -15,6 -25,20 -34,33 -10,16 -19,33 -27,50 -4,-3 -8,-8 -11,-13 12,-7 20,-20 25,-33 6,-15 9,-31 5,-47 -7,-29 -36,-47 -65,-54 -21,-5 -42,-6 -62,0 -20,6 -39,19 -48,37 -10,19 -10,43 2,60 4,6 9,11 12,17 4,6 5,14 1,20"/>
 </g>
</svg>
