<?xml version="1.0" encoding="utf-8"?>
<!-- Generator: Adobe Illustrator 23.0.1, SVG Export Plug-In . SVG Version: 6.00 Build 0)  -->
<svg version="1.1" id="Layer_1" xmlns="http://www.w3.org/2000/svg" xmlns:xlink="http://www.w3.org/1999/xlink" x="0px" y="0px"
	 viewBox="0 0 566.9 566.9" style="enable-background:new 0 0 566.9 566.9;" xml:space="preserve">
<style type="text/css">
	.st0{fill:none;stroke:#000000;}
</style>
<g id="Layer_x0020_1">
	<g id="_2614249096256">
		<path class="st0" d="M214.4,283.7c12.9-14.1,27.2-27.9,45.1-34.4c1.5-0.5,3.2-1.2,3.7-2.7c0.4-1.2-0.1-2.6-0.7-3.7
			c-6.9-13.7-17.1-25.7-22.1-40.2c-0.8-2.4-1.5-5-0.7-7.5c1.8-5.6,9.4-6.3,15.2-5.6c17.4,2.2,34.4,7.7,49.8,16.1
			c9.3-20.2,6.6-43.7,3.7-65.8c5.4,5.8,5.6,14.6,6.6,22.5c1,7.6,2.9,15.1,5.8,22.2c0.5,1.2,1,2.4,2,3.2c1.8,1.3,4.5,0.6,6.1-1
			s2.4-3.8,3.3-5.8c5.1-12.4,13.8-23.2,24.9-30.8c-8.1,14.3-15.4,28.9-22,44c9-2.7,16.6-8.6,24.6-13.4c8-4.9,17.1-9,26.4-7.8
			c-13.3,8.8-26.5,17.5-39.7,26.3c-0.9,0.6-1.8,1.2-2,2.3c-0.4,2.4,3.4,2.9,5.7,2.2c19.3-5.5,39.3-11.8,59-8.4
			c-15.4,3.1-30.7,6.8-45.8,11.1c-2,0.6-4.2,1.2-5.7,2.7s-2.2,4.1-0.9,5.8c19.2-1.5,38.6-0.3,57.5,3.5c-24.3,4.4-49.4,5.1-73.6,0.3
			c-3.5-0.7-7.1-1.5-10.7-1c-3.6,0.4-7.2,2.5-8.4,5.8c6.3,6,16.4,4.6,24.8,7c15.2,4.4,22.9,20.9,28.7,35.6c0.5,1.2,1,2.6,0.7,3.9
			c-0.4,1.8-2.2,3-3.8,3.9c-15.7,8.2-34.3,8.3-52,7.7c-10.1-0.4-22-2-26.4-11.1c-3.3,6.5,3.7,13.4,4.5,20.6c0.3,2.8-0.3,5.6-1.2,8.3
			c-6.5,19.1-25.7,31-35.9,48.4c-3.7,6.2-6.2,13.1-10.3,19c-10.2,14.9-28.6,21.7-46.2,25.6c-5.1,1.1-10.3,2.1-15.4,1.2
			c-13.4-2.4-13.8-14-8.6-24.1c4.2-8.2,6.6-13.8,6.6-23.1C187.2,320.3,197.1,302.6,214.4,283.7z"/>
		<path class="st0" d="M284.6,236.9c0.2,1.7,0.4,3.5,1.1,5c1.4,3,4.8,4.6,8.2,5.1s6.7,0.1,10.1,0.2c5.7,0.3,11.1,2.1,16.7,3
			s11.8,0.7,16.3-2.7c0.7-0.5,1.3-1.2,1.2-2c-0.1-0.7-0.8-1.2-1.4-1.5c-5.7-3-12.4-3.7-18.2-6.7c-7.1-3.6-12.3-10.6-13.7-18.5
			c-9.5,0-19.3-5.9-27.9-5.5C275.9,220,283.6,229.6,284.6,236.9z"/>
		<path class="st0" d="M206.1,362.9c-3,3.9-5.3,9.6-2.3,13.6c1.3,1.8,3.3,2.7,5.5,2.8c2.9,0.2,6.2-0.7,8.7-2.3
			c3.1-1.9,5.8-4.4,7.3-7.7C230.7,357.3,211.9,355.3,206.1,362.9z"/>
		<path class="st0" d="M197,346.9c-4.7-0.3-7.8,4.7-9.5,9.1c-1.1,2.8-1.9,6.4,0.2,8.6c1.5,1.5,4.1,1.7,6,0.8c2-0.9,3.4-2.7,4.4-4.6
			c1.7-3.1,2.7-6.8,1.6-10.1c-1-3.4-4.5-6.1-7.9-5.5"/>
	</g>
</g>
</svg>
