<?xml version="1.0" encoding="UTF-8"?>
<!DOCTYPE svg PUBLIC "-//W3C//DTD SVG 1.1//EN" "http://www.w3.org/Graphics/SVG/1.1/DTD/svg11.dtd">
<!-- Creator: CorelDRAW X8 -->
<svg xmlns="http://www.w3.org/2000/svg" xml:space="preserve" width="20cm" height="20cm" version="1.1" style="shape-rendering:geometricPrecision; text-rendering:geometricPrecision; image-rendering:optimizeQuality; fill-rule:evenodd; clip-rule:evenodd"
viewBox="0 0 20000 20000"
 xmlns:xlink="http://www.w3.org/1999/xlink">
 <defs>
  <style type="text/css">
   <![CDATA[
    .str0 {stroke:black;stroke-width:35.28}
    .fil0 {fill:none;fill-rule:nonzero}
   ]]>
  </style>
 </defs>
 <g id="Layer_x0020_1">
  <metadata id="CorelCorpID_0Corel-Layer"/>
  <g id="_2614251538960">
   <path class="fil0 str0" d="M12805 7967c-112,34 -180,-117 -274,-188 -48,-36 -109,-51 -168,-64 -669,-148 -1371,-143 -2038,13 -169,40 -344,94 -464,219 -133,136 -178,333 -200,522 -95,798 113,1648 -203,2387 -133,309 -357,581 -644,754 -288,174 -641,244 -970,176 -185,-38 -359,-118 -522,-213 -447,-261 -830,-661 -980,-1156 -38,-126 -60,-258 -52,-389 10,-147 58,-289 114,-425 159,-388 397,-759 750,-986 584,-376 1370,-281 1991,32"/>
   <path class="fil0 str0" d="M12777 8077c437,69 708,612 542,1022 -166,411 -683,621 -1107,491 -243,-74 -447,-237 -665,-369 -217,-132 -474,-238 -721,-179 -373,87 -567,499 -642,875 -93,462 -89,947 -245,1392 -321,911 -1271,1480 -2225,1636 -970,159 -2074,-90 -2667,-874 -347,-458 -484,-1055 -442,-1627 43,-573 256,-1124 549,-1618 339,-570 798,-1082 1380,-1402 859,-474 2022,-450 2751,207"/>
   <path class="fil0 str0" d="M10605 9744c147,208 337,384 556,514 233,138 494,223 756,291 597,155 1259,227 1807,-57 451,-234 755,-674 1015,-1111 128,-216 251,-437 320,-678 155,-535 20,-1138 -322,-1578 -341,-441 -875,-718 -1428,-780 -202,-22 -413,-16 -596,70 -143,69 -259,182 -364,302 -136,157 -256,328 -358,509"/>
   <path class="fil0 str0" d="M13443 9085c221,71 487,-58 569,-276 29,-76 36,-159 40,-241 15,-297 -13,-603 -138,-873 -124,-270 -354,-502 -641,-578 -72,-19 -147,-28 -219,-14 -197,39 -317,233 -414,408"/>
   <path class="fil0 str0" d="M11188 10594c-13,11 -13,-25 3,-21 16,5 17,26 17,43 -5,221 150,411 307,567 437,436 952,794 1513,1051 385,177 805,308 1227,271 91,-8 203,-46 212,-137 6,-60 -42,-115 -98,-139 -56,-23 -119,-23 -179,-25 -740,-27 -1402,-452 -1989,-903 -186,-143 -389,-350 -319,-574"/>
   <path class="fil0 str0" d="M11881 8897c120,24 240,48 361,71 138,28 276,55 408,103 35,12 72,29 88,62 32,65 -40,133 -107,161 -150,62 -319,66 -478,34 -159,-32 -308,-99 -452,-175 -58,-31 -331,-173 -307,-269 26,-103 417,-1 487,13z"/>
   <path class="fil0 str0" d="M12774 8023c-3,-49 -67,-65 -116,-65 -102,-1 -205,5 -306,18 -49,6 -109,24 -116,73 -5,32 18,63 48,77 29,15 62,16 95,16 142,1 284,-10 424,-35 1,-23 2,-46 3,-69"/>
  </g>
 </g>
</svg>
