<?xml version="1.0" encoding="UTF-8"?>
<!DOCTYPE svg PUBLIC "-//W3C//DTD SVG 1.1//EN" "http://www.w3.org/Graphics/SVG/1.1/DTD/svg11.dtd">
<!-- Creator: CorelDRAW X8 -->
<svg xmlns="http://www.w3.org/2000/svg" xml:space="preserve" width="20cm" height="20cm" version="1.1" style="shape-rendering:geometricPrecision; text-rendering:geometricPrecision; image-rendering:optimizeQuality; fill-rule:evenodd; clip-rule:evenodd"
viewBox="0 0 20000 20000"
 xmlns:xlink="http://www.w3.org/1999/xlink">
 <defs>
  <style type="text/css">
   <![CDATA[
    .str0 {stroke:black;stroke-width:35.28}
    .fil0 {fill:none;fill-rule:nonzero}
   ]]>
  </style>
 </defs>
 <g id="Layer_x0020_1">
  <metadata id="CorelCorpID_0Corel-Layer"/>
  <g id="_2614074659344">
   <path class="fil0 str0" d="M6499 9534c-205,150 -414,342 -434,595 -18,231 137,448 333,572 197,123 430,172 657,217 293,60 586,119 879,178 -54,-55 44,-147 115,-117 70,31 96,115 113,190 53,240 91,482 114,727 -266,153 -532,306 -799,460 -90,52 -183,105 -284,133 -105,28 -215,29 -324,29 -241,0 -482,0 -723,0 -243,0 -540,33 -638,255 330,-54 661,-107 992,-160 -456,152 -881,398 -1240,719 433,-194 866,-389 1298,-584 -283,245 -566,489 -849,733 -69,60 -143,162 -83,230 579,-321 1085,-810 1733,-949 260,-56 533,-52 789,-126 159,-47 321,-136 386,-288 35,-81 39,-172 43,-260 12,-331 25,-663 38,-994 86,133 275,142 433,130 358,-28 713,-88 1060,-182 298,-80 627,-220 725,-513 67,137 11,299 -34,445 -159,515 -157,1080 6,1594 32,98 81,207 179,238 69,21 142,-2 210,-24l1038 -348c120,-40 245,-83 332,-175 189,-198 161,-577 411,-688 127,204 142,473 38,690 -24,-28 -47,-56 -70,-83 -236,594 -782,998 -1291,1386 -509,388 -1034,834 -1197,1453 393,-217 650,-608 947,-944 268,-303 577,-569 916,-788 -32,330 -314,570 -566,785 -252,215 -514,492 -485,822 430,-334 795,-751 1069,-1222l67 585c267,-291 284,-725 412,-1100 108,-317 302,-600 397,-921 104,-355 79,-747 -70,-1086 -32,-73 -73,-146 -139,-191 -73,-49 -166,-55 -254,-51 -527,29 -970,388 -1372,731 229,-354 384,-756 451,-1172 38,-237 4,-548 -226,-619 225,-247 275,-615 207,-942 -68,-327 -239,-622 -412,-908 518,36 1037,72 1556,107 51,4 107,6 149,-23 35,-24 53,-66 66,-106 118,-374 -134,-756 -388,-1055 -409,-482 -922,-958 -1554,-990 433,193 804,522 1046,929 -241,56 -440,-174 -625,-338 -255,-226 -625,-360 -943,-238 389,137 748,360 1044,649 -481,-178 -993,-358 -1494,-251 254,213 609,243 928,336 393,115 753,342 1026,647 -473,40 -945,79 -1418,119 -225,538 398,1138 225,1695 -15,47 -37,94 -75,124 -130,102 -302,-48 -412,-171 -406,-456 -1035,-703 -1643,-645 -81,8 -171,18 -235,-32 -63,-49 -75,-138 -82,-217 -20,-217 -40,-433 -60,-650 -241,13 -462,-129 -639,-292 -177,-164 -331,-356 -535,-485 -383,-243 -888,-221 -1309,-52 431,-120 923,10 1238,327 -495,156 -1084,-167 -1531,97 360,31 722,30 1082,-2 -321,78 -633,195 -926,347 326,36 659,8 974,-83 153,-45 310,-105 469,-82 113,16 215,73 315,128 216,122 699,268 697,555 -1,203 -213,429 -385,510 -176,82 -388,87 -571,159 -315,124 -615,322 -888,521z"/>
   <path class="fil0 str0" d="M6783 10173c-16,-31 34,-52 68,-51 267,13 531,81 771,200 45,52 -9,130 -60,175 -113,102 -250,205 -400,182 -173,-27 -273,-206 -347,-364 -31,-66 -63,-138 -49,-210"/>
   <path class="fil0 str0" d="M6819 9657c7,16 -31,14 -28,-4 3,-18 24,-25 42,-29 176,-34 347,-94 507,-177 75,-40 159,-121 117,-195 -261,-59 -553,47 -715,261 -28,38 -48,101 -8,125"/>
  </g>
 </g>
</svg>
