<?xml version="1.0" encoding="UTF-8"?>
<!DOCTYPE svg PUBLIC "-//W3C//DTD SVG 1.1//EN" "http://www.w3.org/Graphics/SVG/1.1/DTD/svg11.dtd">
<!-- Creator: CorelDRAW X8 -->
<svg xmlns="http://www.w3.org/2000/svg" xml:space="preserve" width="20cm" height="20cm" version="1.1" style="shape-rendering:geometricPrecision; text-rendering:geometricPrecision; image-rendering:optimizeQuality; fill-rule:evenodd; clip-rule:evenodd"
viewBox="0 0 20000 20000"
 xmlns:xlink="http://www.w3.org/1999/xlink">
 <defs>
  <style type="text/css">
   <![CDATA[
    .str0 {stroke:black;stroke-width:35.28}
    .fil0 {fill:none;fill-rule:nonzero}
   ]]>
  </style>
 </defs>
 <g id="Layer_x0020_1">
  <metadata id="CorelCorpID_0Corel-Layer"/>
  <g id="_2614247900560">
   <path class="fil0 str0" d="M8387 6411c-267,235 -330,669 -140,970 -56,-117 -204,-155 -333,-158 -459,-12 -889,239 -1220,557 -227,218 -423,477 -521,775 -98,299 -90,641 70,912 26,45 58,91 62,144 9,122 -124,199 -231,259 -166,93 -315,218 -434,366 -73,90 -137,194 -144,310 -12,208 160,377 231,573 115,319 -45,664 -176,977 -85,204 -159,412 -221,623 -36,121 -56,277 46,351 84,60 210,20 277,-59 68,-78 92,-184 113,-286 50,-230 100,-460 120,-695 17,-188 71,-438 259,-444 180,-7 259,221 280,400 29,254 59,529 232,717 174,188 547,200 643,-37 72,-179 -49,-373 -164,-528 -130,-175 -259,-350 -389,-525 -28,-38 -59,-87 -40,-131 16,-37 59,-53 98,-60 230,-40 448,100 663,190 314,132 693,158 986,-15 -275,-216 -604,-364 -949,-425 204,-95 466,-42 618,124 245,268 159,686 187,1048 5,65 17,133 60,181 41,45 103,63 162,77 780,192 1598,80 2393,-33 43,-64 -1,-157 -69,-194 -68,-37 -150,-33 -227,-29 -539,32 -1078,63 -1617,95 642,-342 1492,-221 2050,-687 -445,-9 -891,-17 -1336,-25 -97,-2 -199,-5 -282,-54 -215,-127 -172,-446 -101,-685 789,271 1658,309 2468,108 86,-22 196,-37 245,37 24,35 24,81 19,123 -29,275 -223,527 -482,626 -75,29 -159,47 -215,105 -66,69 -75,173 -109,262 -72,186 -253,303 -424,407 -338,206 -676,412 -1013,618 649,121 1299,-230 1789,-672 78,-71 182,-149 278,-107 -175,161 -350,321 -526,481 -37,34 -77,73 -81,123 -6,70 59,125 122,155 278,131 651,-6 777,-286 61,-135 68,-287 112,-429 84,-271 295,-480 439,-725 144,-244 207,-587 10,-791 -21,-21 -45,-42 -59,-69 -39,-77 19,-165 63,-240 90,-155 126,-341 99,-518 -14,-92 -44,-189 -12,-277 18,-46 51,-85 84,-122l432 -490c214,-243 438,-504 490,-824 54,-324 -95,-673 -366,-858 -119,-83 -273,-152 -304,-294 -39,-177 137,-317 239,-467 238,-353 44,-855 -278,-1135 -132,-115 -297,-212 -473,-201 -101,6 -196,46 -287,89 -339,157 -661,351 -958,578 -69,52 -717,-82 -850,-73 -313,19 -586,114 -885,192 -450,118 -877,-276 -1300,95z"/>
   <path class="fil0 str0" d="M8642 6534c-48,6 -96,15 -138,37 -73,38 -120,110 -163,178 -58,92 -119,192 -114,300 3,63 28,123 55,181 94,202 216,400 401,526 184,126 442,165 631,46 100,-63 171,-162 228,-265 104,-186 163,-433 33,-601 -249,-321 -514,-459 -933,-402z"/>
   <path class="fil0 str0" d="M12071 6537c-7,75 -10,156 29,221 48,80 147,114 239,132 153,28 314,27 460,-25 146,-51 277,-158 339,-300 22,-50 35,-105 27,-158 -7,-41 -26,-79 -45,-116 -136,-267 -222,-634 -586,-510 -314,107 -432,456 -463,756z"/>
   <path class="fil0 str0" d="M8419 9067c499,-276 1005,-539 1518,-791 441,-217 893,-426 1375,-525 759,-157 1544,-32 2309,92"/>
  </g>
 </g>
</svg>
