<?xml version="1.0" encoding="UTF-8"?>
<!DOCTYPE svg PUBLIC "-//W3C//DTD SVG 1.1//EN" "http://www.w3.org/Graphics/SVG/1.1/DTD/svg11.dtd">
<!-- Creator: CorelDRAW X8 -->
<svg xmlns="http://www.w3.org/2000/svg" xml:space="preserve" width="20cm" height="20cm" version="1.1" style="shape-rendering:geometricPrecision; text-rendering:geometricPrecision; image-rendering:optimizeQuality; fill-rule:evenodd; clip-rule:evenodd"
viewBox="0 0 20000 20000"
 xmlns:xlink="http://www.w3.org/1999/xlink">
 <defs>
  <style type="text/css">
   <![CDATA[
    .str0 {stroke:black;stroke-width:35.28}
    .fil0 {fill:none;fill-rule:nonzero}
   ]]>
  </style>
 </defs>
 <g id="Layer_x0020_1">
  <metadata id="CorelCorpID_0Corel-Layer"/>
  <g id="_2614068513136">
   <path class="fil0 str0" d="M6118 5671c313,-279 801,-344 1176,-157 118,59 226,140 354,172 324,81 622,-175 920,-325 264,-134 584,-189 858,-77 274,113 474,423 399,709 -40,156 -151,329 -57,460 38,53 100,81 157,113 356,202 520,618 764,947 355,481 920,800 1515,855"/>
   <path class="fil0 str0" d="M12473 8606c125,120 172,298 214,467 49,200 98,399 148,599 4,16 5,37 -10,42 -15,6 -12,-30 -3,-17"/>
   <path class="fil0 str0" d="M6230 5734c-161,40 -253,220 -248,385 5,166 83,318 159,465 200,383 400,767 600,1150 108,208 217,417 359,603 157,208 352,383 545,557 269,243 537,486 806,729 -316,168 -378,594 -610,866 -190,224 -481,329 -759,425 -420,145 -841,291 -1262,436 -353,123 -754,292 -858,651 359,-154 718,-308 1078,-463 140,-60 328,-111 426,7 68,81 50,208 -12,293 -61,86 -156,140 -247,192 -374,216 -737,449 -1088,699 -156,111 -326,253 -329,445 529,-285 1057,-570 1586,-855 127,-69 274,-140 411,-92 -6,237 -205,417 -359,598 -153,182 -268,465 -111,644 420,-250 706,-714 740,-1201 7,-101 5,-204 40,-298 96,-260 414,-340 659,-470 463,-247 723,-746 955,-1216 227,242 384,548 449,873 12,59 20,122 0,179 -28,82 -109,133 -158,204 -121,173 -23,431 154,548 176,117 401,129 612,124 862,-21 1718,-253 2471,-670"/>
   <path class="fil0 str0" d="M9158 12344c-612,209 -1198,495 -1739,849 -75,49 -152,103 -195,182 -43,78 -39,190 32,245 81,63 199,23 291,-25 574,-297 1041,-811 1669,-967 59,93 -9,214 -85,295 -151,160 -340,280 -499,433 -159,153 -292,357 -279,577 491,-317 965,-657 1423,-1020 94,331 -427,624 -301,944 239,23 401,-239 462,-471 60,-232 102,-502 306,-629 62,-38 133,-59 205,-76 888,-212 1816,13 2729,-4 354,-7 746,-72 967,-349 103,-130 156,-294 177,-459 68,-537 -202,-1082 -617,-1431 -414,-349 -955,-520 -1494,-576 -603,-62 -1220,12 -1792,215 -57,20 -157,-34 -103,-63"/>
   <path class="fil0 str0" d="M13245 9859c350,-155 650,-423 842,-755 70,-120 126,-251 142,-389 47,-393 -254,-763 -619,-918 -365,-154 -778,-137 -1171,-95 -103,11 -223,17 -290,-62 -33,-38 -45,-89 -56,-138 -101,-442 -202,-884 -303,-1325 -31,-134 -66,-276 -166,-369 -101,-94 -290,-103 -358,15 -75,130 37,282 129,399 263,337 411,762 414,1189 -280,-248 -560,-496 -839,-744 -64,-57 -161,-115 -226,-60 -23,18 -35,46 -41,75 -51,222 180,396 375,515 195,119 410,330 315,538"/>
   <path class="fil0 str0" d="M7417 6691c-84,138 -122,300 -140,461 -14,125 -16,253 17,374 60,216 233,389 434,486 202,97 430,126 654,121 175,-3 369,-37 473,-177 80,-108 85,-252 87,-387 2,-139 3,-283 -55,-409 -236,-509 -1039,-1178 -1470,-469z"/>
   <path class="fil0 str0" d="M8619 7742c3,41 -1322,17 -976,-651 257,-495 956,326 976,651z"/>
  </g>
 </g>
</svg>
