<?xml version="1.0" encoding="UTF-8"?>
<!DOCTYPE svg PUBLIC "-//W3C//DTD SVG 1.1//EN" "http://www.w3.org/Graphics/SVG/1.1/DTD/svg11.dtd">
<!-- Creator: CorelDRAW X8 -->
<svg xmlns="http://www.w3.org/2000/svg" xml:space="preserve" width="20cm" height="20cm" version="1.1" style="shape-rendering:geometricPrecision; text-rendering:geometricPrecision; image-rendering:optimizeQuality; fill-rule:evenodd; clip-rule:evenodd"
viewBox="0 0 20000 20000"
 xmlns:xlink="http://www.w3.org/1999/xlink">
 <defs>
  <style type="text/css">
   <![CDATA[
    .str0 {stroke:black;stroke-width:35.28}
    .fil0 {fill:none;fill-rule:nonzero}
   ]]>
  </style>
 </defs>
 <g id="Layer_x0020_1">
  <metadata id="CorelCorpID_0Corel-Layer"/>
  <g id="_2614249153760">
   <path class="fil0 str0" d="M6593 8220c682,-721 1509,-1304 2417,-1704 159,-71 326,-136 500,-133 291,5 541,199 816,294 538,184 1123,-20 1654,-223 -122,-254 -6,-589 235,-735 241,-146 572,-107 790,73 217,179 320,478 287,759 359,-110 746,-204 1106,-98 361,106 666,485 560,845 -33,113 -101,211 -169,307 -618,875 -1292,1710 -2018,2499 -67,73 -138,149 -229,192 -123,59 -267,51 -400,83 -263,62 -470,272 -729,347 -285,83 -592,-7 -887,31 -47,6 -99,19 -126,58 -21,32 -21,73 -20,111 2,99 4,198 6,297 2,73 6,151 54,205 54,61 144,69 226,74 829,49 1653,186 2454,407 17,138 -176,191 -316,181 -644,-48 -1283,-304 -1920,-193 -26,4 -52,9 -74,23 -73,46 -63,162 -4,224 60,61 148,83 230,105 497,130 966,364 1370,681 -326,145 -706,29 -1027,-126 -321,-155 -638,-353 -994,-374 -8,164 59,331 178,443 29,46 -33,95 -85,112 -441,149 -911,187 -1376,212 -761,41 -1524,53 -2287,36 -449,-10 -911,-33 -1321,-218 -409,-185 -759,-571 -772,-1020 -7,-259 96,-509 226,-732 178,-308 416,-585 712,-782 566,-374 1300,-418 1961,-264 660,153 1263,485 1850,824"/>
   <path class="fil0 str0" d="M7191 7058c18,20 47,-24 27,-43 -21,-18 -52,-9 -78,1 -697,271 -1316,738 -1770,1332 -176,232 -333,497 -343,789 -14,403 298,793 695,869"/>
   <path class="fil0 str0" d="M12254 7462c-208,163 -402,375 -438,637 -10,74 -6,152 24,220 38,85 111,147 187,200 277,192 618,290 955,274 64,-3 129,-11 187,-39 59,-30 106,-81 146,-134 227,-310 368,-1019 84,-1338 -292,-327 -871,-33 -1145,180z"/>
   <path class="fil0 str0" d="M12456 7991c-52,49 -104,101 -130,168 -25,66 -19,150 33,198 36,33 87,45 136,43 138,-4 256,-97 355,-193 102,-100 390,-394 225,-539 -177,-157 -511,220 -619,323z"/>
  </g>
 </g>
</svg>
