<?xml version="1.0" encoding="UTF-8"?>
<!DOCTYPE svg PUBLIC "-//W3C//DTD SVG 1.1//EN" "http://www.w3.org/Graphics/SVG/1.1/DTD/svg11.dtd">
<!-- Creator: CorelDRAW X8 -->
<svg xmlns="http://www.w3.org/2000/svg" xml:space="preserve" width="20cm" height="20cm" version="1.1" style="shape-rendering:geometricPrecision; text-rendering:geometricPrecision; image-rendering:optimizeQuality; fill-rule:evenodd; clip-rule:evenodd"
viewBox="0 0 20000 20000"
 xmlns:xlink="http://www.w3.org/1999/xlink">
 <defs>
  <style type="text/css">
   <![CDATA[
    .str0 {stroke:black;stroke-width:35.28}
    .fil0 {fill:none;fill-rule:nonzero}
   ]]>
  </style>
 </defs>
 <g id="Layer_x0020_1">
  <metadata id="CorelCorpID_0Corel-Layer"/>
  <g id="_2614248146416">
   <path class="fil0 str0" d="M9796 7964c705,-76 1407,135 2082,351 159,51 319,103 456,199 216,151 348,396 539,579 331,319 862,489 977,934 110,425 -234,822 -564,1110 -842,736 -1882,1392 -2996,1291 -427,-39 -836,-188 -1239,-336 -220,-81 -441,-162 -662,-243 357,143 715,303 999,561 285,257 489,631 455,1013 -15,167 -81,339 -219,433 -122,84 -279,95 -427,96 -646,8 -1292,-102 -1899,-322 -572,-207 -1117,-519 -1520,-976 -402,-456 -649,-1069 -586,-1674 16,-157 68,-332 211,-399 73,-34 156,-33 237,-31 371,9 774,28 1061,264 47,-58 153,-46 187,21 -21,-256 -415,-420 -328,-661 18,-52 59,-96 68,-151 20,-125 -131,-247 -75,-361 70,-17 141,-35 211,-53 -131,-328 113,-748 463,-797 -335,-26 -676,22 -1006,-40 -331,-61 -669,-272 -733,-602 -41,-212 40,-433 173,-602 133,-169 314,-294 496,-408 1334,-835 2944,-1217 4510,-1071 142,13 301,40 382,157 51,72 60,165 57,253 -15,423 -288,803 -631,1052 -314,228 -723,410 -1097,495 135,-43 277,-67 418,-82z"/>
   <path class="fil0 str0" d="M12151 8804c-200,-53 -421,-17 -594,97 -58,39 -113,90 -131,157 -23,89 25,184 98,240 72,56 164,79 254,96 146,26 295,38 444,34 596,-15 345,-512 -71,-624z"/>
   <path class="fil0 str0" d="M11432 11395c-7,31 -13,64 -7,95 11,62 63,108 117,140 384,226 1377,-229 1134,-760 -249,-542 -1157,152 -1244,525z"/>
  </g>
 </g>
</svg>
