<?xml version="1.0" encoding="UTF-8"?>
<!DOCTYPE svg PUBLIC "-//W3C//DTD SVG 1.1//EN" "http://www.w3.org/Graphics/SVG/1.1/DTD/svg11.dtd">
<!-- Creator: CorelDRAW X8 -->
<svg xmlns="http://www.w3.org/2000/svg" xml:space="preserve" width="20cm" height="20cm" version="1.1" style="shape-rendering:geometricPrecision; text-rendering:geometricPrecision; image-rendering:optimizeQuality; fill-rule:evenodd; clip-rule:evenodd"
viewBox="0 0 20000 20000"
 xmlns:xlink="http://www.w3.org/1999/xlink">
 <defs>
  <style type="text/css">
   <![CDATA[
    .str0 {stroke:black;stroke-width:35.28}
    .fil0 {fill:none;fill-rule:nonzero}
   ]]>
  </style>
 </defs>
 <g id="Layer_x0020_1">
  <metadata id="CorelCorpID_0Corel-Layer"/>
  <g id="_2614253123872">
   <path class="fil0 str0" d="M11761 7828c-225,-106 -464,-182 -701,-257 -257,-82 -514,-164 -772,-246 -181,-58 -363,-116 -551,-147 -719,-119 -1445,164 -2071,536 -82,-87 -208,-114 -326,-137 -248,-49 -500,-97 -752,-74 -252,23 -508,128 -657,332 -60,84 -104,184 -190,241 -89,59 -203,60 -305,92 -322,100 -446,575 -215,820 -230,122 -424,314 -548,544 -51,95 -91,199 -95,307 -7,176 82,342 187,484 475,649 1330,995 2122,860l-186 757c-176,-107 -353,-215 -529,-322 -209,-126 -421,-254 -657,-314 -236,-61 -504,-44 -699,101 -98,73 -172,226 -82,309 131,123 334,-115 508,-69 158,42 156,283 49,407 -106,124 -270,187 -380,307 -31,34 -57,73 -62,117 -12,119 139,196 255,168 116,-28 205,-117 303,-185 99,-68 233,-115 334,-51 113,73 112,246 47,364 -65,118 -174,205 -253,314 -79,109 -123,266 -43,375 83,114 263,111 384,38 121,-73 201,-196 289,-306 89,-111 201,-217 341,-234 142,-16 278,63 420,68 165,5 320,-94 418,-226 98,-133 147,-295 179,-457 65,-323 73,-658 23,-984 198,237 403,469 613,695 93,100 188,199 305,268 162,96 354,128 541,142 774,59 1565,-150 2209,-584 -26,161 -42,322 -50,485 -6,138 -3,285 70,403 84,136 244,205 398,247 272,75 564,93 834,15 271,-79 517,-262 638,-516 147,-306 100,-663 119,-1002 21,-375 116,-795 -111,-1095"/>
   <path class="fil0 str0" d="M12033 11749c-145,-284 -201,-606 -216,-925 -19,-420 40,-863 282,-1208 242,-345 705,-558 1100,-413 369,136 577,523 709,893 199,558 303,1152 304,1745 0,191 -11,385 -71,566 -81,242 -246,446 -357,676 -103,214 -159,450 -287,650 -131,206 -328,359 -532,493 -371,244 -788,440 -1231,465 -137,8 -306,-22 -351,-152 -38,-110 44,-231 149,-284 104,-52 225,-55 341,-69 235,-30 463,-111 663,-238 79,-49 161,-122 153,-214 -3,-41 -25,-79 -51,-111 -133,-162 -376,-193 -580,-143 -204,49 -386,163 -578,247 -215,93 -446,151 -680,169 -55,4 -114,6 -164,-20 -137,-71 -95,-297 33,-383 129,-86 295,-81 449,-94 154,-13 328,-65 391,-206"/>
   <path class="fil0 str0" d="M11740 7817c-138,-83 -142,-274 -178,-431 -46,-200 -168,-379 -203,-582 -61,-344 150,-700 456,-868 306,-167 684,-164 1015,-54 579,194 1033,719 1142,1320 -36,20 -79,27 -119,17"/>
   <path class="fil0 str0" d="M12050 6476c276,526 625,1014 1036,1443 130,136 269,269 441,345 173,75 384,84 540,-21 170,-116 234,-332 286,-530 38,-146 76,-291 91,-441 67,-636 -327,-1294 -921,-1535 -144,-59 -299,-95 -439,-163 -141,-68 -273,-176 -319,-326 -103,-6 -187,96 -199,199 -13,103 27,204 66,300 -382,-238 -800,-471 -1250,-451 -63,3 -135,17 -165,72 41,245 498,203 553,446 -240,98 -528,-59 -768,39 -34,14 -68,35 -87,68 -37,65 6,153 72,190 66,38 146,38 221,37"/>
   <path class="fil0 str0" d="M5470 9619c10,155 139,281 284,336 145,55 305,53 460,50 189,-4 377,-7 565,-11 64,-2 131,-2 189,25 59,27 106,90 92,153 -17,76 -106,108 -182,128 -85,22 -171,44 -257,67 -108,27 -218,56 -329,54 -112,-1 -228,-35 -306,-115 -77,-81 -106,-213 -47,-308 6,-11 18,-22 29,-16 11,5 -6,25 -9,13"/>
  </g>
 </g>
</svg>
