<?xml version="1.0" encoding="UTF-8"?>
<!DOCTYPE svg PUBLIC "-//W3C//DTD SVG 1.1//EN" "http://www.w3.org/Graphics/SVG/1.1/DTD/svg11.dtd">
<!-- Creator: CorelDRAW X8 -->
<svg xmlns="http://www.w3.org/2000/svg" xml:space="preserve" width="20cm" height="20cm" version="1.1" style="shape-rendering:geometricPrecision; text-rendering:geometricPrecision; image-rendering:optimizeQuality; fill-rule:evenodd; clip-rule:evenodd"
viewBox="0 0 20000 20000"
 xmlns:xlink="http://www.w3.org/1999/xlink">
 <defs>
  <style type="text/css">
   <![CDATA[
    .str0 {stroke:black;stroke-width:35.28}
    .fil0 {fill:none;fill-rule:nonzero}
   ]]>
  </style>
 </defs>
 <g id="Layer_x0020_1">
  <metadata id="CorelCorpID_0Corel-Layer"/>
  <g id="_2613965195440">
   <path class="fil0 str0" d="M8309 9183c43,-96 131,-165 225,-213 283,-143 628,-108 922,13 293,120 547,317 806,501 258,183 532,360 841,429"/>
   <path class="fil0 str0" d="M11612 10603c205,-43 316,-264 376,-465 93,-310 135,-649 30,-955 -175,-511 -716,-810 -1246,-915 -530,-104 -1078,-61 -1613,-138 -367,-53 -737,-161 -1101,-94 -301,56 -567,228 -806,418 -204,163 -402,352 -490,597 -52,147 -63,306 -60,463 6,352 101,745 403,925 -37,-37 -104,-39 -143,-3"/>
   <path class="fil0 str0" d="M8325 7097c-547,183 -1038,531 -1393,986 -150,193 -276,404 -440,584 -193,213 -439,384 -574,637 -90,170 -123,364 -135,556 -51,861 342,1737 1020,2270 260,205 555,360 861,485 1224,500 2610,523 3899,229 382,-87 762,-203 1097,-407 335,-204 622,-504 752,-874 87,-248 99,-516 94,-780 -14,-680 -163,-1397 -629,-1893 -399,-423 -1015,-677 -1212,-1224 -151,-418 -10,-914 -221,-1306 -123,-229 -351,-386 -595,-476 -244,-89 -505,-118 -763,-146 -61,-7 -133,-9 -172,38 -53,65 2,161 61,220 170,165 389,271 564,430 306,275 458,711 390,1116"/>
   <path class="fil0 str0" d="M8289 9209c-43,98 -45,213 -6,312 38,97 112,175 186,248 446,444 999,829 1627,876"/>
   <path class="fil0 str0" d="M9027 9743c-1,48 7,100 38,138 24,29 58,46 93,60 168,70 388,78 505,-62 35,-42 57,-95 70,-149 129,-566 -691,-505 -706,13z"/>
   <path class="fil0 str0" d="M8795 9307c-46,-34 -114,-33 -159,2 -46,35 -63,102 -40,155 69,47 168,48 238,1 13,-54 -4,-114 -43,-152"/>
  </g>
 </g>
</svg>
