<?xml version="1.0" encoding="UTF-8"?>
<!DOCTYPE svg PUBLIC "-//W3C//DTD SVG 1.1//EN" "http://www.w3.org/Graphics/SVG/1.1/DTD/svg11.dtd">
<!-- Creator: CorelDRAW X8 -->
<svg xmlns="http://www.w3.org/2000/svg" xml:space="preserve" width="20cm" height="20cm" version="1.1" style="shape-rendering:geometricPrecision; text-rendering:geometricPrecision; image-rendering:optimizeQuality; fill-rule:evenodd; clip-rule:evenodd"
viewBox="0 0 20000 20000"
 xmlns:xlink="http://www.w3.org/1999/xlink">
 <defs>
  <style type="text/css">
   <![CDATA[
    .str0 {stroke:black;stroke-width:35.28}
    .fil0 {fill:none;fill-rule:nonzero}
   ]]>
  </style>
 </defs>
 <g id="Layer_x0020_1">
  <metadata id="CorelCorpID_0Corel-Layer"/>
  <path class="fil0 str0" d="M11171 5855c-7,56 -10,117 21,165 41,63 125,78 200,88l626 82c67,8 141,20 185,72 88,102 -24,271 -157,290 -134,19 -260,-53 -379,-116 -351,-184 -751,-300 -1144,-248 -392,52 -773,296 -916,666 -143,370 11,850 374,1010 362,160 869,16 1110,329 74,96 104,217 119,337 105,837 -465,1619 -1135,2131 -258,196 -538,369 -849,458 -248,72 -515,90 -741,215 -314,171 -500,549 -446,903 46,298 242,598 131,878 -95,239 -382,345 -640,351 -578,13 -1145,-370 -1349,-911 -53,-140 -83,-291 -64,-440 21,-162 99,-311 173,-458 213,-426 399,-887 372,-1363 -27,-475 -322,-965 -785,-1079 -52,50 -22,143 34,190 55,47 128,68 185,113 107,84 137,232 155,367 40,318 50,645 -35,954 -131,472 -475,867 -573,1347 -114,550 134,1142 568,1498 434,356 1029,486 1585,410 416,-58 827,-233 1103,-549 277,-316 395,-784 235,-1172 -49,-117 -122,-234 -106,-360 18,-139 143,-243 277,-288 133,-44 276,-42 416,-58 839,-91 1481,-771 1996,-1438 249,-322 497,-680 502,-1086 6,-396 -220,-752 -438,-1083 -104,-158 -210,-317 -348,-447 -208,-194 -486,-311 -770,-325 -25,-62 40,-131 107,-137 67,-6 130,30 188,65 307,184 632,383 990,378 540,-7 1001,-571 899,-1102 -102,-531 -738,-885 -1243,-692 -103,-71 -79,-240 5,-333 84,-93 207,-140 309,-213 81,-58 150,-133 200,-219 75,-127 53,-321 -132,-306 -122,10 -293,189 -377,270 -235,225 -396,531 -438,856z"/>
 </g>
</svg>
