<?xml version="1.0" encoding="UTF-8"?>
<!DOCTYPE svg PUBLIC "-//W3C//DTD SVG 1.1//EN" "http://www.w3.org/Graphics/SVG/1.1/DTD/svg11.dtd">
<!-- Creator: CorelDRAW X8 -->
<svg xmlns="http://www.w3.org/2000/svg" xml:space="preserve" width="20cm" height="20cm" version="1.1" style="shape-rendering:geometricPrecision; text-rendering:geometricPrecision; image-rendering:optimizeQuality; fill-rule:evenodd; clip-rule:evenodd"
viewBox="0 0 20000 20000"
 xmlns:xlink="http://www.w3.org/1999/xlink">
 <defs>
  <style type="text/css">
   <![CDATA[
    .str0 {stroke:black;stroke-width:35.28}
    .fil0 {fill:none;fill-rule:nonzero}
   ]]>
  </style>
 </defs>
 <g id="Layer_x0020_1">
  <metadata id="CorelCorpID_0Corel-Layer"/>
  <g id="_2614248231744">
   <path class="fil0 str0" d="M9926 6639c-696,-41 -1425,110 -2073,-146 -340,-135 -628,-373 -948,-552 -130,-72 -272,-137 -420,-131 -122,6 -237,58 -347,110 -401,186 -801,373 -1202,559 -124,58 -272,170 -221,297 26,63 93,97 157,121 384,146 808,129 1217,169 409,40 847,162 1089,494 -47,120 -94,239 -141,358 -318,-33 -648,61 -902,257 -50,39 -103,84 -167,87 -71,3 -132,-45 -191,-85 -196,-135 -441,-198 -678,-175 90,112 263,83 404,59 142,-24 331,-1 364,138 39,167 -183,262 -353,284 -170,23 -392,113 -357,281 234,-64 468,-128 702,-191 -223,213 -394,481 -494,773 163,-172 326,-345 488,-518 19,-20 42,-42 69,-42 59,-1 72,82 64,140 -18,149 -37,297 -56,445 235,-128 80,-504 192,-748 110,-240 429,-271 691,-306 262,-35 582,-191 548,-453 553,541 1287,895 2055,992 268,34 552,40 785,178 233,138 380,468 218,685 -126,167 -375,188 -576,129 -201,-59 -379,-180 -576,-250 -198,-69 -443,-75 -592,71 34,102 171,109 279,108 250,-2 500,53 726,161 55,26 116,66 117,127 0,47 -37,85 -74,113 -357,275 -945,173 -1217,532 58,73 173,47 260,14 339,-128 677,-256 1015,-384 64,131 1,290 -91,403 -92,113 -212,202 -291,324 -39,61 -67,141 -30,203 55,93 204,64 280,-13 220,-224 94,-645 310,-872 25,216 50,433 74,650 11,92 55,213 147,200 32,-4 59,-25 80,-49 190,-209 56,-534 -21,-805 -11,-42 -22,-87 -7,-128 19,-55 75,-86 125,-118 274,-174 433,-514 392,-836 308,63 523,339 672,615 269,501 416,1081 331,1644 -80,530 -371,1026 -794,1356 -424,329 -976,489 -1510,436 -373,-37 -728,-171 -1085,-283 -991,-312 -2033,-461 -3071,-439 -494,10 -1025,75 -1391,407 1413,-477 2956,-128 4400,244 778,200 1572,408 2374,351 801,-57 1627,-430 2012,-1136 153,-279 229,-594 275,-909 164,-1122 -43,-2295 -583,-3292 -111,-206 -240,-421 -220,-654 498,-31 954,411 1443,316 98,-19 196,-64 252,-147 56,-82 54,-208 -23,-271 -274,297 -795,315 -1090,37 -29,-27 -58,-63 -52,-103 4,-32 31,-57 56,-78 251,-213 543,-423 625,-742 12,-48 17,-106 -17,-142 -66,-69 -176,10 -235,85 -188,239 -376,479 -564,718 -241,-307 253,-788 48,-1119 -331,293 -162,911 -496,1200 -34,-288 -67,-576 -101,-864 0,111 -27,698 -107,757 -82,61 -475,-234 -579,-284 -435,-210 -911,-335 -1393,-363z"/>
   <path class="fil0 str0" d="M6294 6317c63,-15 135,-28 186,11 29,21 45,55 54,89 39,151 -63,312 -202,383 -139,72 -303,72 -458,55 -30,-4 -61,-8 -85,-25 -48,-34 -54,-102 -46,-160 23,-169 1,-183 171,-242 124,-44 252,-79 380,-111z"/>
  </g>
 </g>
</svg>
