<?xml version="1.0" encoding="UTF-8"?>
<!DOCTYPE svg PUBLIC "-//W3C//DTD SVG 1.1//EN" "http://www.w3.org/Graphics/SVG/1.1/DTD/svg11.dtd">
<!-- Creator: CorelDRAW X8 -->
<svg xmlns="http://www.w3.org/2000/svg" xml:space="preserve" width="20cm" height="20cm" version="1.1" style="shape-rendering:geometricPrecision; text-rendering:geometricPrecision; image-rendering:optimizeQuality; fill-rule:evenodd; clip-rule:evenodd"
viewBox="0 0 20000 20000"
 xmlns:xlink="http://www.w3.org/1999/xlink">
 <defs>
  <style type="text/css">
   <![CDATA[
    .str0 {stroke:black;stroke-width:35.28}
    .fil0 {fill:none;fill-rule:nonzero}
   ]]>
  </style>
 </defs>
 <g id="Layer_x0020_1">
  <metadata id="CorelCorpID_0Corel-Layer"/>
  <g id="_2614249124992">
   <path class="fil0 str0" d="M6744 6251c469,-345 753,-915 1263,-1197 376,-207 823,-227 1252,-232 906,-8 1812,36 2712,133 264,29 530,62 780,153 397,143 729,421 1052,693 356,299 730,626 856,1074 82,291 49,601 3,899 -63,412 -153,827 -349,1194 -363,682 -1052,1128 -1751,1456 135,-36 165,180 241,297 76,118 234,143 367,191 371,133 619,547 562,937 223,14 445,27 668,41 -264,273 -788,208 -977,-121 76,264 118,538 123,813 2,80 -1,165 -46,232 -44,67 -145,102 -207,51 -45,-37 -53,-102 -58,-160l-67 -810c-70,256 -140,512 -210,769 -14,52 -37,112 -90,124 -89,19 -125,-112 -118,-204 20,-274 40,-548 60,-823 -176,280 -352,559 -527,839 -97,-96 -78,-260 -12,-379 65,-120 166,-217 227,-338 124,-246 61,-540 -4,-807 -47,-192 -135,-423 -332,-444 -82,-9 -164,25 -247,27 -148,3 -276,-93 -414,-148 -301,-119 -639,-34 -963,-25 -315,8 -628,-57 -943,-71 -314,-14 -650,32 -894,232 170,208 536,75 751,236 177,132 173,403 90,608 -82,205 -223,388 -268,604 -35,168 -11,342 -30,511 -33,292 -206,565 -455,720 75,-360 149,-721 223,-1082 -228,324 -457,649 -686,973 -109,-164 -7,-384 109,-543 115,-160 252,-341 206,-532 -190,247 -380,494 -570,741 -1,-427 377,-741 601,-1104 86,-139 152,-305 118,-465 -52,-236 -293,-372 -512,-474 -232,265 -400,585 -487,926 -44,171 -68,349 -143,509 -70,151 -183,278 -306,390 -370,336 -850,550 -1347,601 -75,8 -156,10 -218,-31 -57,-38 -86,-106 -110,-170 -238,-638 -228,-1405 179,-1951 234,-313 574,-527 865,-789 404,-362 716,-817 1129,-1169 610,-520 1431,-785 2230,-721 614,50 1203,284 1818,331 615,48 1322,-159 1579,-720 200,-436 70,-945 -76,-1402 -62,-195 -132,-396 -275,-542 -155,-157 -375,-228 -588,-284 -505,-132 -1024,-206 -1541,-280 -529,-76 -1059,-152 -1588,-228 -520,-75 -1105,-133 -1518,191 -266,208 -407,540 -657,767 -231,209 -536,313 -831,411 -320,107 -640,214 -959,321 -133,44 -313,71 -382,-50 -76,-137 722,-281 785,-298 319,-88 638,-202 907,-401z"/>
   <path class="fil0 str0" d="M6540 12367c-18,28 -35,57 -37,90 -3,32 13,68 43,79 18,6 38,3 56,-1 139,-26 275,-64 406,-114 43,-17 86,-35 117,-67 42,-43 58,-104 73,-163 31,-125 245,-825 -78,-564 -208,169 -437,513 -580,740z"/>
   <path class="fil0 str0" d="M5757 11644c-27,100 -54,202 -58,305 -4,104 19,212 82,295 29,4 55,-17 76,-38 164,-163 256,-417 227,-649 -10,-82 -34,-232 -152,-224 -118,8 -151,222 -175,311z"/>
   <path class="fil0 str0" d="M6787 12026c-18,-10 -36,-19 -54,-28 -38,99 -73,220 -6,302 37,46 96,66 153,81 87,22 200,27 246,-50 21,-36 21,-80 21,-122 -1,-62 -3,-128 -38,-179 -60,-85 -182,-89 -285,-84 -69,3 -160,28 -159,97"/>
   <path class="fil0 str0" d="M5998 11727c-68,-53 -167,-71 -240,-26 -73,44 -99,159 -39,220 41,40 104,47 161,48 41,0 85,-3 118,-28 34,-26 48,-75 34,-115 -15,-40 -57,-69 -99,-67"/>
   <path class="fil0 str0" d="M6705 11290c130,-404 408,-746 722,-1032 828,-752 1956,-1163 3073,-1121 624,23 1240,182 1863,160 624,-21 1298,-277 1571,-837 190,-389 153,-849 59,-1271 -75,-339 -187,-676 -390,-957 -269,-370 -681,-617 -1114,-764 -433,-148 -891,-204 -1346,-259 -823,-98 -1652,-193 -2480,-150"/>
   <path class="fil0 str0" d="M7906 10222c-83,45 -163,95 -239,149 -30,22 -60,45 -77,77 -18,32 -19,76 6,102 14,16 35,24 55,29 73,21 150,22 226,17 79,-5 159,-18 228,-57 68,-40 122,-112 121,-191 -2,-181 -203,-189 -320,-126z"/>
   <path class="fil0 str0" d="M8673 9779c-39,28 -81,71 -67,117 9,28 35,45 60,59 270,148 630,108 864,-93 35,-30 70,-69 75,-116 4,-38 -43,-96 -56,-127 -295,-79 -627,-15 -876,160z"/>
   <path class="fil0 str0" d="M10482 9437c-112,21 -243,68 -267,179 -16,75 28,152 89,197 62,45 138,64 213,79 141,29 291,46 424,-9 146,-62 281,-289 153,-431 -127,-140 -459,-44 -612,-15z"/>
   <path class="fil0 str0" d="M11663 9653c-16,18 -31,37 -38,60 -9,28 -3,60 8,88 52,125 200,179 334,193 130,14 285,-11 344,-127 75,-144 10,-389 -156,-435 -165,-45 -389,109 -492,221z"/>
   <path class="fil0 str0" d="M13431 9353c15,-23 0,-54 -24,-67 -23,-12 -52,-10 -78,-6 -77,12 -153,37 -222,74 -22,12 -44,26 -54,48 -22,48 22,100 67,127 82,49 181,70 276,57 28,-4 57,-11 78,-30 37,-35 34,-98 6,-141 -27,-43 -73,-70 -116,-96"/>
   <path class="fil0 str0" d="M8274 9086c-100,24 -193,71 -271,137 -33,28 -64,62 -69,105 -6,54 35,105 86,125 51,19 108,13 160,-1 85,-24 171,-76 197,-161 26,-84 -41,-194 -129,-180"/>
   <path class="fil0 str0" d="M9013 8846c-51,28 -106,70 -103,128 3,75 96,107 171,113 219,18 442,-17 644,-103 33,-14 69,-35 72,-70 11,-192 -160,-234 -300,-220 -170,18 -334,70 -484,152z"/>
   <path class="fil0 str0" d="M10686 8907c-13,99 556,345 577,88 22,-270 -564,-200 -577,-88z"/>
   <path class="fil0 str0" d="M12738 8905c-7,-36 -52,-46 -88,-48 -126,-4 -253,9 -375,38 -57,14 -125,47 -120,105 3,45 49,72 91,88 84,31 174,44 264,38 60,-4 122,-18 166,-58 45,-41 63,-114 27,-162"/>
   <path class="fil0 str0" d="M7376 9302c-62,-116 -131,-239 -248,-300 -116,-61 -294,-22 -327,106 -13,48 -3,100 -16,148 -21,77 -94,126 -164,162 -435,227 -963,241 -1376,505 -60,38 -122,92 -121,162 288,-4 542,-182 820,-256 34,-9 85,-4 85,31 0,19 -18,33 -34,43 -257,164 -601,259 -708,544 33,49 108,22 158,-10 222,-143 444,-285 667,-428 16,224 -342,306 -382,527 96,40 205,-6 287,-68 248,-188 372,-526 656,-653 91,-41 196,-56 294,-32"/>
   <path class="fil0 str0" d="M11554 8096c93,-121 81,-290 58,-441 -52,-335 -140,-665 -262,-982 -60,-157 -158,-332 -324,-349 -33,70 36,143 93,195 266,247 408,621 372,982 -2,23 -5,47 -18,67 -27,40 -87,45 -131,24 -43,-22 -73,-62 -102,-100 -204,-274 -408,-548 -612,-822 -94,-128 -217,-269 -376,-257 -36,2 -74,15 -96,44 -43,57 -2,139 45,193 127,146 299,245 445,373 192,167 340,383 426,622 -311,21 -605,-127 -888,-257 -284,-130 -599,-248 -900,-170 27,79 106,126 183,158 359,149 800,114 1096,366 -354,94 -789,-61 -1064,183 222,84 468,30 704,2 218,-25 438,-27 655,-5 102,10 209,28 286,95 151,133 98,540 294,610 107,38 165,-52 162,-156 -5,-158 -168,-216 -46,-375z"/>
   <path class="fil0 str0" d="M6306 12741c-15,-18 -38,-29 -62,-29 -40,57 12,151 82,147 69,-4 111,-103 64,-155"/>
   <path class="fil0 str0" d="M5805 12532c-57,-13 -99,71 -65,117 35,47 111,45 155,7 21,-18 37,-44 33,-71 -3,-27 -32,-50 -58,-41"/>
  </g>
 </g>
</svg>
