<?xml version="1.0" encoding="UTF-8"?>
<!DOCTYPE svg PUBLIC "-//W3C//DTD SVG 1.1//EN" "http://www.w3.org/Graphics/SVG/1.1/DTD/svg11.dtd">
<!-- Creator: CorelDRAW X8 -->
<svg xmlns="http://www.w3.org/2000/svg" xml:space="preserve" width="500px" height="500px" version="1.1" style="shape-rendering:geometricPrecision; text-rendering:geometricPrecision; image-rendering:optimizeQuality; fill-rule:evenodd; clip-rule:evenodd"
viewBox="0 0 500 500"
 xmlns:xlink="http://www.w3.org/1999/xlink">
 <defs>
  <style type="text/css">
   <![CDATA[
    .str0 {stroke:black;stroke-width:1.00006}
    .fil0 {fill:none;fill-rule:nonzero}
   ]]>
  </style>
 </defs>
 <g id="Layer_x0020_1">
  <metadata id="CorelCorpID_0Corel-Layer"/>
  <g id="_2779123523680">
   <path class="fil0 str0" d="M149 99c-8,6 -12,16 -9,26 -12,2 -23,6 -33,14 9,-4 19,-8 29,-7 4,0 7,1 11,2 6,2 13,4 16,9 3,6 1,12 -1,18 -5,22 -5,48 9,65 11,14 28,20 46,23 22,3 44,1 66,-5 12,-2 24,-6 34,-13 10,-6 19,-16 24,-27 1,-4 2,-9 5,-12 8,-12 27,-11 34,-23 -13,4 -26,8 -38,13 12,-7 24,-14 33,-24l-38 16c10,-7 19,-15 26,-25 -18,3 -30,23 -48,22 -11,0 -20,-8 -29,-13 -29,-17 -64,-12 -97,-17 0,-8 1,-16 -1,-24 -4,-17 -22,-31 -39,-18z"/>
   <path class="fil0 str0" d="M165 108c0,-1 0,-2 0,-3 -4,0 -9,1 -12,5 -3,4 -3,10 0,13 3,2 8,2 11,-1 5,-3 5,-11 1,-14"/>
   <path class="fil0 str0" d="M239 252c2,9 4,18 4,28 1,8 1,16 1,24 1,21 2,43 2,65 -16,2 -33,6 -49,11"/>
   <path class="fil0 str0" d="M235 366c-9,-2 -18,-3 -27,-2"/>
   <path class="fil0 str0" d="M254 251c7,5 13,10 20,15 1,1 2,1 3,2 0,2 0,3 -1,4 -6,30 -10,60 -13,89 -12,-4 -23,-8 -35,-11"/>
   <path class="fil0 str0" d="M261 368c0,-1 0,-1 0,-2 -5,4 -10,8 -14,12"/>
  </g>
 </g>
</svg>
