<?xml version="1.0" encoding="UTF-8"?>
<!DOCTYPE svg PUBLIC "-//W3C//DTD SVG 1.1//EN" "http://www.w3.org/Graphics/SVG/1.1/DTD/svg11.dtd">
<!-- Creator: CorelDRAW X8 -->
<svg xmlns="http://www.w3.org/2000/svg" xml:space="preserve" width="500px" height="500px" version="1.1" style="shape-rendering:geometricPrecision; text-rendering:geometricPrecision; image-rendering:optimizeQuality; fill-rule:evenodd; clip-rule:evenodd"
viewBox="0 0 500 500"
 xmlns:xlink="http://www.w3.org/1999/xlink">
 <defs>
  <style type="text/css">
   <![CDATA[
    .str0 {stroke:black;stroke-width:1.00006}
    .fil0 {fill:none;fill-rule:nonzero}
   ]]>
  </style>
 </defs>
 <g id="Layer_x0020_1">
  <metadata id="CorelCorpID_0Corel-Layer"/>
  <path class="fil0 str0" d="M364 20c-15,-14 -43,-8 -50,11 -3,5 -3,11 -6,16 -8,16 -13,12 -7,31 7,22 1,46 -5,68 -6,19 -13,21 -33,22 -53,3 -106,11 -158,23 4,-14 -19,-25 -33,-6 -9,13 -13,50 -15,66 -2,25 0,52 16,70 16,18 1,23 7,34 10,-12 20,-23 30,-34 14,3 30,0 43,-8 2,10 2,20 0,29 -24,39 -41,81 -53,124"/>
  <path class="fil0 str0" d="M174 305c-3,1 -1,-4 1,-5 11,-6 23,-11 36,-14 10,-3 16,0 19,11 16,46 -7,44 36,99 22,28 44,56 66,83"/>
  <path class="fil0 str0" d="M251 283c31,-18 52,-54 53,-90 0,-11 -1,-23 5,-33 2,-4 6,-8 10,-12 7,-10 10,-22 9,-35 0,-12 -4,-24 -7,-36 4,-2 8,-5 11,-9 7,3 15,4 22,4 20,22 41,42 64,59 -6,-16 -17,-30 -30,-40 -9,-7 -18,-12 -24,-22 33,4 64,7 97,9 -31,-17 -73,-8 -103,-29 1,-8 2,-17 2,-26"/>
  <path class="fil0 str0" d="M339 34c-3,-5 -12,-1 -8,7 4,9 18,5 16,-4 -1,-4 -5,-7 -9,-6"/>
 </g>
</svg>
