<?xml version="1.0" encoding="UTF-8"?>
<!DOCTYPE svg PUBLIC "-//W3C//DTD SVG 1.1//EN" "http://www.w3.org/Graphics/SVG/1.1/DTD/svg11.dtd">
<!-- Creator: CorelDRAW X8 -->
<svg xmlns="http://www.w3.org/2000/svg" xml:space="preserve" width="500px" height="500px" version="1.1" style="shape-rendering:geometricPrecision; text-rendering:geometricPrecision; image-rendering:optimizeQuality; fill-rule:evenodd; clip-rule:evenodd"
viewBox="0 0 500 500"
 xmlns:xlink="http://www.w3.org/1999/xlink">
 <defs>
  <style type="text/css">
   <![CDATA[
    .str0 {stroke:black;stroke-width:1.00006}
    .fil0 {fill:none;fill-rule:nonzero}
   ]]>
  </style>
 </defs>
 <g id="Layer_x0020_1">
  <metadata id="CorelCorpID_0Corel-Layer"/>
  <g id="_1909606181408">
   <path class="fil0 str0" d="M181 103c-9,-7 -22,-8 -32,-3 -7,3 -12,8 -19,9 -3,0 -6,-1 -9,-1 -13,-1 -25,1 -37,5 0,3 4,4 7,4 13,1 25,1 37,1 3,8 7,15 14,20 5,5 11,9 17,14 13,13 19,32 21,50 2,19 0,38 3,56 2,19 9,38 24,49 11,7 24,10 36,13 3,16 2,33 -3,48 -15,2 -29,5 -43,11 14,-2 27,-4 40,-6 -6,5 -12,10 -18,16 18,-12 41,-16 62,-11 -11,-5 -21,-9 -32,-14 5,-14 6,-28 3,-42 13,9 31,8 44,0 3,-2 5,-5 8,-6 2,0 5,-1 7,-1 40,-2 76,25 116,27 0,-6 -6,-10 -12,-12 -13,-6 -25,-12 -37,-18 -14,-6 -28,-13 -38,-24 -9,-9 -15,-22 -22,-33 -20,-29 -53,-46 -83,-65 -9,-6 -19,-13 -21,-23 -2,-13 3,-23 -7,-34 -8,-9 -16,-22 -26,-30z"/>
   <path class="fil0 str0" d="M212 303l11 22c5,10 10,20 13,31 -9,1 -18,3 -26,4 -8,1 -15,3 -21,6 -2,1 -3,2 -2,3 6,1 12,-1 18,-3 6,-2 13,-3 19,-4 3,-1 6,-1 8,2 -3,1 -6,2 -8,4 0,0 0,0 0,1 0,0 1,-1 0,-1"/>
   <path class="fil0 str0" d="M153 122c0,-1 2,-3 4,-3 6,0 13,-1 18,2 1,1 1,2 1,3 0,0 0,1 -1,1 -5,6 -13,8 -20,6 -1,-1 -3,-2 -3,-3 0,-1 1,-1 1,-2 1,-2 3,-4 4,-6 1,0 2,0 2,1"/>
  </g>
 </g>
</svg>
