<?xml version="1.0" encoding="UTF-8"?>
<!DOCTYPE svg PUBLIC "-//W3C//DTD SVG 1.1//EN" "http://www.w3.org/Graphics/SVG/1.1/DTD/svg11.dtd">
<!-- Creator: CorelDRAW X8 -->
<svg xmlns="http://www.w3.org/2000/svg" xml:space="preserve" width="500px" height="500px" version="1.1" style="shape-rendering:geometricPrecision; text-rendering:geometricPrecision; image-rendering:optimizeQuality; fill-rule:evenodd; clip-rule:evenodd"
viewBox="0 0 500 500"
 xmlns:xlink="http://www.w3.org/1999/xlink">
 <defs>
  <style type="text/css">
   <![CDATA[
    .str0 {stroke:black;stroke-width:1.00006}
    .fil0 {fill:none;fill-rule:nonzero}
   ]]>
  </style>
 </defs>
 <g id="Layer_x0020_1">
  <metadata id="CorelCorpID_0Corel-Layer"/>
  <g id="_1909777621520">
   <path class="fil0 str0" d="M257 99c7,-3 15,-2 21,1 7,3 12,8 17,13 5,5 10,9 14,15 3,6 5,13 3,19 -1,-3 -3,-7 -6,-9 4,10 5,21 5,32 -2,-6 -4,-11 -7,-16 -1,1 -3,2 -4,1 0,1 -1,3 -1,4 -1,1 -3,1 -5,2 -5,6 -3,16 2,24 5,7 12,12 15,20 4,8 4,18 3,28 -1,13 -2,27 -2,41 -1,4 -1,8 -3,12 -2,4 -5,7 -7,12 -1,4 0,8 1,12 3,12 5,23 8,35l-13 -17c-1,-2 -2,-3 -3,-4 -3,0 -5,1 -7,3 -1,2 -2,5 -2,7 -5,23 -14,46 -26,66 -4,0 -5,-5 -5,-9 2,-14 3,-28 4,-42 -3,20 -12,38 -26,54 4,-22 11,-43 20,-64 5,-11 10,-25 4,-35 -1,-3 -4,-5 -5,-8 -3,-6 -1,-13 -1,-20 0,-2 -1,-4 -2,-5 -1,-2 -3,-2 -5,-3 -8,-3 -12,-14 -9,-22 -4,10 -9,18 -17,25 -2,-12 0,-25 6,-36 2,-3 4,-7 4,-11 1,-8 -6,-14 -13,-18 0,6 -3,11 -8,14 6,-3 8,-11 6,-17 -2,-6 -8,-10 -13,-13 -3,-2 -6,-3 -9,-2 -3,0 -6,3 -5,6 -2,-5 2,-11 7,-13 5,-2 11,-1 16,0 6,2 11,5 16,9 6,6 12,13 21,13 -2,-13 -1,-26 3,-38 3,-9 7,-19 5,-29 0,-2 0,-4 -1,-5 -2,-2 -4,-3 -6,-4l-59 -26c24,3 48,9 71,18 -2,-1 -3,-1 -5,-2"/>
   <path class="fil0 str0" d="M257 102c0,2 -1,3 -1,5 0,0 0,1 0,1 -1,0 -2,0 -2,0 -16,-7 -33,-7 -51,-6 -1,0 -3,0 -3,2"/>
   <path class="fil0 str0" d="M267 113c0,-2 3,-4 5,-4 3,-1 5,0 8,1 4,3 9,7 8,12 -1,4 -5,6 -9,7 -4,1 -10,1 -13,-3 -3,-3 -3,-9 1,-12"/>
   <path class="fil0 str0" d="M271 116c0,-1 1,-3 3,-3 2,0 3,1 5,2 0,1 1,1 1,2 1,1 0,3 -1,4 -2,2 -4,2 -7,1 -2,-1 -3,-3 -3,-6 0,-1 2,-2 2,-1"/>
   <path class="fil0 str0" d="M249 183c-5,-1 -9,-2 -14,-3 -1,0 -1,-1 -2,-1 0,-1 0,-1 -1,-2 0,-4 -4,-8 -8,-9 -2,0 -4,0 -6,1 -1,1 -2,3 -2,5 -2,10 -4,20 -6,29 -1,4 -1,8 1,11 6,-9 7,-21 15,-28 0,-1 1,-1 2,-1 1,0 2,2 2,3 0,3 0,6 0,9 0,-2 2,-4 3,-7 4,-5 6,-12 5,-18 -1,-2 -1,-4 -3,-6 -1,-1 -3,-2 -5,-1"/>
  </g>
 </g>
</svg>
