<?xml version="1.0" encoding="UTF-8"?>
<!DOCTYPE svg PUBLIC "-//W3C//DTD SVG 1.1//EN" "http://www.w3.org/Graphics/SVG/1.1/DTD/svg11.dtd">
<!-- Creator: CorelDRAW X8 -->
<svg xmlns="http://www.w3.org/2000/svg" xml:space="preserve" width="500px" height="500px" version="1.1" style="shape-rendering:geometricPrecision; text-rendering:geometricPrecision; image-rendering:optimizeQuality; fill-rule:evenodd; clip-rule:evenodd"
viewBox="0 0 500 500"
 xmlns:xlink="http://www.w3.org/1999/xlink">
 <defs>
  <style type="text/css">
   <![CDATA[
    .str0 {stroke:black;stroke-width:1.00006}
    .fil0 {fill:none;fill-rule:nonzero}
   ]]>
  </style>
 </defs>
 <g id="Layer_x0020_1">
  <metadata id="CorelCorpID_0Corel-Layer"/>
  <g id="_2230126440624">
   <path class="fil0 str0" d="M199 143c-2,0 -4,-1 -5,-2 -8,-4 -17,-8 -25,-5 -8,4 -11,14 -11,23 -26,15 -52,31 -77,47 7,0 13,-3 19,-6 17,-9 34,-18 52,-27 4,-2 7,-4 12,-4 4,-1 8,1 11,5 -7,4 -12,9 -16,16 -1,2 -2,4 -2,6 0,3 2,5 3,7 9,15 4,36 14,49 7,9 18,12 27,19 2,2 5,4 8,5 3,2 7,1 11,1 17,-2 34,-4 50,-11 15,-7 29,-20 32,-36 13,-1 25,-6 34,-14 1,0 3,1 4,1"/>
   <path class="fil0 str0" d="M198 148c8,-7 17,-12 27,-14 27,-5 53,9 77,22 6,4 13,8 18,14 0,1 1,2 2,3 1,0 2,1 3,1 22,5 45,7 67,6 1,3 -3,5 -6,5 -13,2 -25,4 -38,5 12,0 25,1 37,2 2,1 6,2 5,5 0,2 -3,3 -5,3l-37 3c2,13 18,18 23,31 -14,1 -28,-6 -35,-17"/>
   <path class="fil0 str0" d="M178 151c-1,0 -2,-1 -3,-2 -2,-2 -6,-1 -7,2 -1,3 0,6 2,8 2,2 6,3 9,3 1,0 4,-1 5,-2 1,-2 0,-5 -1,-6 -2,-2 -4,-3 -6,-3"/>
   <path class="fil0 str0" d="M273 249c-1,-1 -3,-2 -4,-3 10,3 19,11 23,21 -1,14 -2,27 -5,41 -1,7 -2,14 -2,22 1,3 1,6 1,9 -2,4 -6,6 -9,7 -4,1 -8,1 -12,2 -8,1 -15,5 -20,10"/>
   <path class="fil0 str0" d="M279 348c1,-1 1,-2 0,-2 -6,6 -12,13 -17,20"/>
   <path class="fil0 str0" d="M283 345c0,-1 0,-1 0,-2 1,0 1,0 2,0 10,1 21,4 30,8"/>
   <path class="fil0 str0" d="M233 276c-1,6 0,12 1,19 0,1 0,2 0,3 -1,1 -1,2 -2,3 -3,4 -7,9 -11,13 -7,6 -14,11 -17,20 -12,-5 -27,-5 -40,-2 1,1 2,1 3,2"/>
   <path class="fil0 str0" d="M203 337c0,-1 1,-1 1,-1 1,0 1,0 1,1 5,7 9,14 10,23"/>
   <path class="fil0 str0" d="M204 335c6,-2 11,-3 17,-3 6,0 12,1 18,2"/>
   <path class="fil0 str0" d="M210 263c0,0 -1,0 -1,0"/>
  </g>
 </g>
</svg>
