<?xml version="1.0" encoding="UTF-8"?>
<!DOCTYPE svg PUBLIC "-//W3C//DTD SVG 1.1//EN" "http://www.w3.org/Graphics/SVG/1.1/DTD/svg11.dtd">
<!-- Creator: CorelDRAW X8 -->
<svg xmlns="http://www.w3.org/2000/svg" xml:space="preserve" width="500px" height="500px" version="1.1" style="shape-rendering:geometricPrecision; text-rendering:geometricPrecision; image-rendering:optimizeQuality; fill-rule:evenodd; clip-rule:evenodd"
viewBox="0 0 500 500"
 xmlns:xlink="http://www.w3.org/1999/xlink">
 <defs>
  <style type="text/css">
   <![CDATA[
    .str0 {stroke:black;stroke-width:1.00006}
    .fil0 {fill:none;fill-rule:nonzero}
   ]]>
  </style>
 </defs>
 <g id="Layer_x0020_1">
  <metadata id="CorelCorpID_0Corel-Layer"/>
  <path class="fil0 str0" d="M267 242c-12,-5 -18,-19 -22,-31 -6,-15 -10,-30 -14,-46 -4,-15 -7,-31 -17,-44 -7,-11 -19,-19 -30,-26 -33,-23 -68,-47 -107,-57 -3,-1 -6,-1 -7,1 -2,3 1,6 4,8 32,17 67,31 90,59 -35,-27 -76,-45 -119,-51 31,20 60,42 90,64 -26,-17 -53,-32 -81,-44 -3,-2 -7,-3 -10,0 -3,3 1,8 5,11 20,15 41,30 61,46 -29,-6 -59,-12 -87,-4 24,8 49,11 75,10 -19,0 -38,0 -57,-1 19,14 50,8 64,26 7,10 7,24 7,36 1,46 16,91 42,128 -20,8 -41,17 -62,25 -9,3 -19,7 -29,8 -16,0 -31,-8 -45,-17 2,10 8,20 17,25l-21 -15c-1,9 5,18 13,22 -7,-3 -14,-5 -22,-8 9,11 24,15 37,14 14,-2 27,-7 40,-11 42,-14 87,-14 131,-15 16,0 32,0 48,-4 16,-3 31,-11 41,-25 1,-2 3,-5 5,-7 11,-10 29,-1 43,-4 6,-2 11,-5 17,-6 5,-1 10,0 15,1 36,6 71,12 107,19 -30,-12 -62,-20 -94,-26 -4,0 -8,-1 -12,-3 -4,-2 -7,-6 -11,-9 -7,-7 -19,-12 -26,-5 -1,2 -3,4 -4,6 -9,9 -26,2 -38,8 -2,-13 -7,-26 -15,-37 -2,-3 -5,-5 -5,-9 -1,-6 3,-11 7,-15 18,-21 35,-44 38,-72 0,-6 0,-14 -3,-19 -3,-6 -9,-10 -15,-13 -23,-15 -51,-22 -79,-23"/>
 </g>
</svg>
