<?xml version="1.0" encoding="UTF-8"?>
<!DOCTYPE svg PUBLIC "-//W3C//DTD SVG 1.1//EN" "http://www.w3.org/Graphics/SVG/1.1/DTD/svg11.dtd">
<!-- Creator: CorelDRAW X8 -->
<svg xmlns="http://www.w3.org/2000/svg" xml:space="preserve" width="500px" height="500px" version="1.1" style="shape-rendering:geometricPrecision; text-rendering:geometricPrecision; image-rendering:optimizeQuality; fill-rule:evenodd; clip-rule:evenodd"
viewBox="0 0 500 500"
 xmlns:xlink="http://www.w3.org/1999/xlink">
 <defs>
  <style type="text/css">
   <![CDATA[
    .str0 {stroke:black;stroke-width:0.750048}
    .fil0 {fill:none}
   ]]>
  </style>
 </defs>
 <g id="Layer_x0020_1">
  <metadata id="CorelCorpID_0Corel-Layer"/>
  <path class="fil0 str0" d="M168 238c-6,13 -2,30 10,40 10,10 24,-1 26,-14 11,8 44,13 58,-14 13,-4 20,7 35,-14 12,-13 64,-28 64,-42 7,-15 10,-41 0,-63 -22,12 -14,24 -22,27 -29,3 -46,24 -71,32 -10,3 -27,14 -27,25 -6,-9 -17,-13 -28,-9 -10,4 -16,15 -15,21 -13,-5 -22,-4 -30,11z"/>
  <path class="fil0 str0" d="M251 251c20,13 68,5 71,11 -27,0 -48,14 -54,35"/>
  <path class="fil0 str0" d="M236 254c3,25 16,51 33,69"/>
  <path class="fil0 str0" d="M217 258c-8,24 -24,48 -47,60"/>
 </g>
</svg>
