<?xml version="1.0" encoding="UTF-8"?>
<!DOCTYPE svg PUBLIC "-//W3C//DTD SVG 1.1//EN" "http://www.w3.org/Graphics/SVG/1.1/DTD/svg11.dtd">
<!-- Creator: CorelDRAW X8 -->
<svg xmlns="http://www.w3.org/2000/svg" xml:space="preserve" width="500px" height="500px" version="1.1" style="shape-rendering:geometricPrecision; text-rendering:geometricPrecision; image-rendering:optimizeQuality; fill-rule:evenodd; clip-rule:evenodd"
viewBox="0 0 500 500"
 xmlns:xlink="http://www.w3.org/1999/xlink">
 <defs>
  <style type="text/css">
   <![CDATA[
    .str0 {stroke:black;stroke-width:1.00006}
    .fil0 {fill:none;fill-rule:nonzero}
   ]]>
  </style>
 </defs>
 <g id="Layer_x0020_1">
  <metadata id="CorelCorpID_0Corel-Layer"/>
  <path class="fil0 str0" d="M317 32c-3,11 -5,22 -7,33 -2,9 -3,19 4,24 7,4 19,2 21,9 -1,23 -3,46 -9,68 -1,3 -2,7 -4,9 -3,2 -7,1 -11,1 -57,-9 -114,-18 -171,-27 -9,-2 -19,-3 -27,0 -10,3 -17,12 -23,20 -6,8 -12,16 -18,23 -2,3 -4,6 -4,10 -1,3 1,7 3,10 5,11 11,22 17,33 7,14 15,30 11,45 -4,15 -16,26 -20,40 -3,11 0,23 2,34 4,22 5,44 7,66 0,3 0,7 -1,9 -3,6 -11,9 -10,14 7,2 13,3 20,4 -6,-31 -8,-63 -7,-95 0,-5 0,-9 1,-14 1,-6 4,-11 6,-16 7,-15 13,-29 20,-43 5,1 9,6 10,12 0,6 -2,11 -5,17 -5,11 -10,23 -15,35 -2,5 -5,10 -5,16 0,5 1,10 2,14 4,12 8,24 13,35 6,12 12,24 14,37 2,6 2,13 4,19 3,6 10,11 16,9 -1,-7 -1,-13 -2,-20 2,3 6,6 10,5 -14,-17 -27,-35 -35,-55 -8,-21 -8,-45 3,-63 32,-13 58,-39 70,-71 -2,7 -4,14 -3,22 40,13 83,17 124,12 -4,50 -11,100 -18,151 -1,8 -1,20 8,23 8,2 15,-10 9,-16 3,4 6,8 9,11 3,-1 1,-6 0,-9 -9,-16 -11,-36 -11,-54 0,-34 4,-69 12,-102 4,-3 10,0 12,3 2,4 3,9 3,14 1,53 3,106 4,159 4,5 12,2 17,-2l8 -6c-6,-39 -11,-77 -16,-116 -3,-22 -5,-46 2,-66 15,-1 33,-4 40,-17 3,-5 4,-10 5,-15 2,-14 5,-29 3,-43 -2,-17 -10,-32 -14,-48 -9,-32 -2,-68 -14,-100 22,-1 37,-26 36,-48 0,-6 0,-12 -2,-18 0,-2 -2,-4 -4,-4 -1,0 -2,1 -3,2 -18,19 -29,40 -41,63 -15,-2 -15,-5 -21,-18 -1,-3 -25,-28 -25,-25z"/>
  <path class="fil0 str0" d="M345 94c-1,1 -2,0 -1,-1 1,0 1,0 2,0 4,2 8,5 11,8 0,3 -2,5 -4,6 -3,1 -6,1 -8,-1 -2,-2 -2,-6 -2,-9"/>
  <path class="fil0 str0" d="M373 94c-1,0 -2,1 -3,3 -2,2 -4,7 -1,9 3,1 6,-2 6,-5 0,-2 -2,-5 -3,-7"/>
 </g>
</svg>
