<?xml version="1.0" encoding="UTF-8"?>
<!DOCTYPE svg PUBLIC "-//W3C//DTD SVG 1.1//EN" "http://www.w3.org/Graphics/SVG/1.1/DTD/svg11.dtd">
<!-- Creator: CorelDRAW X8 -->
<svg xmlns="http://www.w3.org/2000/svg" xml:space="preserve" width="500px" height="500px" version="1.1" style="shape-rendering:geometricPrecision; text-rendering:geometricPrecision; image-rendering:optimizeQuality; fill-rule:evenodd; clip-rule:evenodd"
viewBox="0 0 500 500"
 xmlns:xlink="http://www.w3.org/1999/xlink">
 <defs>
  <style type="text/css">
   <![CDATA[
    .str0 {stroke:black;stroke-width:1.00006}
    .fil0 {fill:none;fill-rule:nonzero}
   ]]>
  </style>
 </defs>
 <g id="Layer_x0020_1">
  <metadata id="CorelCorpID_0Corel-Layer"/>
  <path class="fil0 str0" d="M161 150c-6,-5 -7,-14 -10,-22 -3,-7 -9,-15 -17,-14 5,9 -3,20 -2,31 1,10 13,18 23,14 1,10 2,19 3,29 1,9 1,18 2,28 0,12 -2,24 0,36 2,12 7,24 17,31 0,37 -2,74 -8,111 4,2 7,-3 8,-6 1,-5 2,-11 2,-17 0,-4 -1,-8 -1,-12 1,-6 2,-11 3,-16 5,-19 5,-38 4,-57 4,-1 7,1 9,3 3,3 3,6 4,10 1,7 1,14 1,22 0,7 -1,15 0,23 1,9 4,17 5,26 2,11 1,22 -3,32 7,-1 9,-10 9,-18 1,-9 2,-18 2,-27 2,-25 3,-50 -3,-75 27,13 58,6 86,-4 13,13 22,29 25,47 1,3 2,7 1,10 -1,4 -2,7 -4,10 -8,14 -15,27 -22,41 5,1 8,-5 10,-10 5,-10 11,-19 19,-27 3,-4 7,-8 9,-13 1,-5 1,-11 0,-17 -2,-12 -5,-24 -7,-36 5,15 16,27 30,35 5,3 12,6 16,11 3,5 4,11 5,17 2,16 4,31 3,47 8,-9 7,-23 6,-35 0,-11 -1,-22 -1,-33 -1,-3 -1,-7 -3,-10 -2,-2 -5,-3 -8,-5 -16,-8 -26,-25 -36,-41 -1,-2 -3,-5 -3,-8 -1,-3 0,-6 1,-10 4,-15 5,-32 3,-48 -10,-2 -19,-4 -29,-6 -7,-2 -14,-4 -22,-3 -5,1 -10,3 -15,4 -10,3 -21,2 -32,1 -16,-1 -31,-4 -46,-9 -1,0 -2,0 -2,-1 -1,0 -1,-2 -2,-3 -2,-11 -4,-22 -7,-33 14,-6 18,-24 20,-39 1,-3 1,-7 -1,-10 -12,10 -21,24 -27,38 -1,-1 -3,-1 -5,-1 5,-16 8,-32 9,-48 -2,8 -4,17 -7,25 0,-6 -2,-12 -5,-18 -1,14 -1,27 0,40 -6,-2 -8,-10 -8,-17 0,-7 1,-14 -2,-20 -1,6 -2,11 -2,17 -3,-8 -7,-16 -12,-23 5,15 9,30 13,46"/>
  <path class="fil0 str0" d="M164 167c2,-1 4,-1 6,-2 2,0 4,0 5,1 1,1 1,3 2,4 0,2 1,5 1,8 0,-2 0,-3 -2,-4 -1,-1 -3,-1 -4,-1 -2,1 -3,2 -4,3 -1,1 -3,2 -4,1 0,0 -1,-1 -1,-1 -1,-3 -1,-5 0,-8"/>
  <path class="fil0 str0" d="M178 153c0,-1 -2,-1 -3,0 -2,1 -3,4 -3,7 2,0 4,0 6,-2 2,-2 2,-5 0,-6"/>
  <path class="fil0 str0" d="M159 153c3,1 4,4 5,6 -2,0 -4,0 -5,-1 -1,-1 -2,-3 -1,-4"/>
 </g>
</svg>
