<?xml version="1.0" encoding="UTF-8"?>
<!DOCTYPE svg PUBLIC "-//W3C//DTD SVG 1.1//EN" "http://www.w3.org/Graphics/SVG/1.1/DTD/svg11.dtd">
<!-- Creator: CorelDRAW X8 -->
<svg xmlns="http://www.w3.org/2000/svg" xml:space="preserve" width="500px" height="500px" version="1.1" style="shape-rendering:geometricPrecision; text-rendering:geometricPrecision; image-rendering:optimizeQuality; fill-rule:evenodd; clip-rule:evenodd"
viewBox="0 0 500 500"
 xmlns:xlink="http://www.w3.org/1999/xlink">
 <defs>
  <style type="text/css">
   <![CDATA[
    .str0 {stroke:black;stroke-width:1.00006}
    .fil0 {fill:none;fill-rule:nonzero}
   ]]>
  </style>
 </defs>
 <g id="Layer_x0020_1">
  <metadata id="CorelCorpID_0Corel-Layer"/>
  <path class="fil0 str0" d="M106 97c-5,-8 -11,-15 -16,-22 -3,-3 -7,-7 -10,-5 6,12 -2,26 -1,39 0,3 1,7 0,9 -1,2 -3,3 -4,5 -9,9 -13,23 -9,35 -9,10 -17,21 -24,31 -2,2 -3,5 -3,7 1,2 2,4 4,5 3,3 6,6 10,8 2,2 5,5 8,5 3,0 6,-1 8,-2 10,-5 19,-10 28,-14 9,32 36,58 69,65 3,1 7,2 9,4 2,3 2,6 2,9 1,19 0,37 -2,55 -1,12 -4,26 -14,31 -5,3 -11,3 -17,6 -5,2 -9,9 -6,14 -4,0 -7,4 -7,8 5,-3 11,-4 17,-2 -4,5 -7,11 -7,18l16 -8c0,3 0,5 0,8 6,-5 13,-9 20,-11 4,-1 8,-1 11,-3 3,-1 6,-4 7,-6 4,-6 3,-14 2,-20 -2,-10 -4,-21 -3,-31 1,-20 14,-40 10,-59 35,12 79,-5 97,-38 8,7 15,14 23,21 1,1 2,2 4,2 1,0 2,-2 1,-3"/>
  <path class="fil0 str0" d="M326 263c9,9 20,19 23,32 2,8 2,17 1,26l-4 40c-9,-2 -17,7 -15,15 3,-2 6,-3 9,-5 -5,4 -10,9 -14,14 4,2 10,2 13,-2l6 0c-2,1 -3,3 -5,4 9,-4 18,-7 26,-11 3,-1 8,-3 7,-7 0,-2 -1,-3 -2,-5 -7,-9 -4,-21 -1,-31 3,-15 4,-30 2,-45 18,16 29,41 27,65 -1,9 -4,19 -13,21 -3,1 -7,1 -11,1 -8,1 -15,7 -17,15 6,-2 12,-4 18,-5 -4,5 -7,10 -9,16 10,-3 20,-5 30,-6 11,-26 17,-54 19,-82 1,-5 1,-11 -1,-16 -2,-4 -7,-8 -10,-11 -20,-20 -22,-51 -23,-80 11,15 7,36 11,54 6,22 25,39 29,61 6,-14 9,-29 9,-45 0,-12 -2,-25 -4,-37 -5,-26 -10,-52 -11,-78 0,-7 1,-14 -3,-20 -3,-6 -9,-10 -15,-14 -12,-7 -23,-13 -36,-16 -11,-2 -21,-2 -32,-2 -42,2 -84,3 -125,5 -15,0 -30,0 -44,-5 -2,-13 -6,-26 -13,-38 -11,11 -18,27 -17,43 -4,-9 -13,-15 -23,-15"/>
  <path class="fil0 str0" d="M148 386l22 -17c2,-1 4,-2 5,-4 1,-2 2,-4 2,-6 7,-24 14,-49 12,-75"/>
  <path class="fil0 str0" d="M109 142c2,0 4,0 6,1 4,1 8,3 12,5 -8,-1 -13,8 -21,9 -19,3 -7,-14 3,-15z"/>
  <path class="fil0 str0" d="M71 152c3,-4 4,-8 3,-12 -2,2 -4,5 -6,8 0,1 0,2 0,3 0,1 1,1 2,1"/>
 </g>
</svg>
