<?xml version="1.0" encoding="UTF-8"?>
<!DOCTYPE svg PUBLIC "-//W3C//DTD SVG 1.1//EN" "http://www.w3.org/Graphics/SVG/1.1/DTD/svg11.dtd">
<!-- Creator: CorelDRAW X8 -->
<svg xmlns="http://www.w3.org/2000/svg" xml:space="preserve" width="500px" height="500px" version="1.1" style="shape-rendering:geometricPrecision; text-rendering:geometricPrecision; image-rendering:optimizeQuality; fill-rule:evenodd; clip-rule:evenodd"
viewBox="0 0 500 500"
 xmlns:xlink="http://www.w3.org/1999/xlink">
 <defs>
  <style type="text/css">
   <![CDATA[
    .str0 {stroke:black;stroke-width:1.00006}
    .fil0 {fill:none;fill-rule:nonzero}
   ]]>
  </style>
 </defs>
 <g id="Layer_x0020_1">
  <metadata id="CorelCorpID_0Corel-Layer"/>
  <path class="fil0 str0" d="M313 18c-17,10 -35,21 -53,31 -3,2 -7,4 -11,4 -3,0 -5,-2 -8,-2 -9,0 -13,11 -17,19 -6,12 -18,21 -24,33 -10,18 -5,40 -4,60 2,34 -4,67 -8,100 -8,69 -6,138 -3,207 0,3 0,6 1,8 4,8 15,8 24,6 -1,-9 4,-17 8,-26 6,-15 8,-31 10,-47 12,-100 12,-202 1,-303 -2,-10 -7,-23 -17,-22"/>
  <path class="fil0 str0" d="M329 152c2,11 1,23 1,34 -1,23 -2,47 -3,70 -2,67 -5,135 -19,200 -3,-3 -6,-8 -8,-12 -31,-56 -30,-123 -25,-187 2,-28 4,-55 4,-83 1,-25 -4,-50 -5,-75 0,-23 6,-29 23,-11 16,18 29,40 32,64z"/>
  <line class="fil0 str0" x1="205" y1="124" x2="205" y2= "128" />
  <path class="fil0 str0" d="M218 153c-2,-2 -5,0 -5,3 2,1 5,2 8,1 2,-1 1,-6 -2,-6"/>
  <path class="fil0 str0" d="M217 210c-3,-1 -6,2 -5,5"/>
  <path class="fil0 str0" d="M203 264c1,0 -1,-2 -2,-1 -1,1 0,3 0,4"/>
  <path class="fil0 str0" d="M223 277c-1,-1 -2,0 -1,1"/>
  <path class="fil0 str0" d="M212 325c-1,-1 -3,-2 -3,-4 -3,0 -5,4 -4,6"/>
  <path class="fil0 str0" d="M188 369c-1,-1 1,-3 2,-2 1,0 1,2 0,2"/>
  <path class="fil0 str0" d="M214 387c-1,2 -1,4 -2,6"/>
  <line class="fil0 str0" x1="196" y1="424" x2="198" y2= "424" />
  <path class="fil0 str0" d="M300 397c0,0 -1,-1 -1,-1 -1,1 -1,1 0,2 1,-1 2,-3 1,-4"/>
  <path class="fil0 str0" d="M298 330c0,-1 0,-3 -1,-4 -2,1 -3,3 -3,5"/>
  <path class="fil0 str0" d="M310 284c-1,-1 -3,0 -4,1"/>
  <path class="fil0 str0" d="M295 350c1,-2 -3,-5 -5,-3 -2,2 2,6 4,4"/>
  <path class="fil0 str0" d="M291 261c-2,2 -3,5 -4,7"/>
  <path class="fil0 str0" d="M309 239c0,-1 0,-1 0,0z"/>
  <path class="fil0 str0" d="M310 203c-1,-2 -5,-1 -4,1"/>
  <path class="fil0 str0" d="M292 214c-1,-1 -2,0 -2,1"/>
  <path class="fil0 str0" d="M296 173c-1,0 -2,1 -2,2"/>
  <path class="fil0 str0" d="M299 134c1,-1 -1,-2 -1,-1"/>
  <path class="fil0 str0" d="M292 101c-1,0 -2,1 -3,2 1,1 2,2 3,3"/>
  <path class="fil0 str0" d="M317 155c0,1 -1,-1 0,-1 1,0 1,1 1,1 1,4 2,7 2,10"/>
  <path class="fil0 str0" d="M251 59c12,-1 25,6 30,17"/>
 </g>
</svg>
