<?xml version="1.0" encoding="UTF-8"?>
<!DOCTYPE svg PUBLIC "-//W3C//DTD SVG 1.1//EN" "http://www.w3.org/Graphics/SVG/1.1/DTD/svg11.dtd">
<!-- Creator: CorelDRAW X8 -->
<svg xmlns="http://www.w3.org/2000/svg" xml:space="preserve" width="500px" height="500px" version="1.1" style="shape-rendering:geometricPrecision; text-rendering:geometricPrecision; image-rendering:optimizeQuality; fill-rule:evenodd; clip-rule:evenodd"
viewBox="0 0 500 500"
 xmlns:xlink="http://www.w3.org/1999/xlink">
 <defs>
  <style type="text/css">
   <![CDATA[
    .str0 {stroke:black;stroke-width:1.00006}
    .fil0 {fill:none;fill-rule:nonzero}
   ]]>
  </style>
 </defs>
 <g id="Layer_x0020_1">
  <metadata id="CorelCorpID_0Corel-Layer"/>
  <path class="fil0 str0" d="M217 34c-13,3 -24,13 -31,24 -8,12 -13,24 -20,36 -7,12 -16,23 -28,29 13,-7 26,-14 39,-21 -18,28 -25,63 -20,96 12,-39 24,-78 36,-117 11,18 13,41 9,61 -3,21 -12,40 -21,60 10,-15 19,-29 28,-43 5,24 7,48 7,73 0,12 -1,24 3,35 7,28 36,47 42,75 -16,-7 -33,-11 -51,-11 -6,0 -13,0 -19,4 -6,5 -7,14 -8,21 -4,28 -8,56 -12,84 8,-10 12,-22 14,-35 1,-9 0,-19 2,-29 2,-9 6,-19 15,-23 10,-6 23,-2 35,3 11,5 23,11 34,8 -7,30 -18,59 -33,86 3,-7 6,-14 13,-19 6,-4 17,-3 19,4 1,-16 5,-32 12,-46 14,18 20,42 15,65 5,-5 7,-12 11,-17 3,-6 9,-12 15,-12 7,0 14,8 10,14 -12,-26 -29,-50 -50,-70 14,-5 32,6 34,21 1,-16 -10,-32 -25,-37 -4,-2 -9,-2 -11,-6 -4,-5 -1,-13 4,-16 5,-3 12,-4 18,-4 -8,-26 -12,-53 -13,-80 0,-4 0,-9 3,-13 3,-5 10,-7 16,-6 7,1 12,5 16,10 16,17 23,41 18,63 8,-14 9,-31 4,-46 -6,-15 -18,-28 -33,-34 -15,-5 -34,-3 -41,11 -8,17 5,35 6,53 -16,-6 -28,-22 -28,-40 -1,-17 10,-34 26,-41 -4,-7 -9,-14 -13,-21 18,-11 43,-10 60,3 -9,-8 -19,-15 -31,-17 -11,-2 -24,1 -32,10 -7,9 -7,25 1,32 -6,4 -13,8 -20,12 -4,-15 -8,-31 -7,-46 1,-16 9,-32 22,-39 4,11 3,23 -3,33 2,-7 7,-11 11,-17 5,-5 8,-12 5,-18 -4,-6 -13,-7 -19,-3 -6,3 -10,10 -13,16 -3,-12 4,-25 15,-30 11,-6 24,-4 35,1 11,5 20,14 28,23 16,20 27,46 20,70 12,-27 5,-61 -16,-82 -20,-21 -54,-28 -81,-18 3,-10 6,-22 13,-30 8,-8 22,-11 30,-4 -13,-6 -27,-9 -41,-10 2,-7 10,-12 17,-12 8,-1 16,1 23,3 -21,-6 -43,-6 -64,0 -7,-6 -1,-19 8,-21 7,-2 14,2 21,0 -8,-6 -19,-8 -29,-5z"/>
 </g>
</svg>
