<?xml version="1.0" encoding="UTF-8"?>
<!DOCTYPE svg PUBLIC "-//W3C//DTD SVG 1.1//EN" "http://www.w3.org/Graphics/SVG/1.1/DTD/svg11.dtd">
<!-- Creator: CorelDRAW X8 -->
<svg xmlns="http://www.w3.org/2000/svg" xml:space="preserve" width="500px" height="500px" version="1.1" style="shape-rendering:geometricPrecision; text-rendering:geometricPrecision; image-rendering:optimizeQuality; fill-rule:evenodd; clip-rule:evenodd"
viewBox="0 0 500 500"
 xmlns:xlink="http://www.w3.org/1999/xlink">
 <defs>
  <style type="text/css">
   <![CDATA[
    .str0 {stroke:black;stroke-width:1.00006}
    .fil0 {fill:none;fill-rule:nonzero}
   ]]>
  </style>
 </defs>
 <g id="Layer_x0020_1">
  <metadata id="CorelCorpID_0Corel-Layer"/>
  <path class="fil0 str0" d="M66 138c-7,-3 -15,3 -17,10 -3,10 4,22 14,24 10,3 22,-4 24,-15 2,-10 -6,-21 -16,-23"/>
  <path class="fil0 str0" d="M68 157c-8,9 -7,25 3,33 9,8 25,6 32,-4 17,-24 -15,-52 -35,-29z"/>
  <path class="fil0 str0" d="M83 186c-6,8 -4,20 2,28 7,7 17,11 27,13 6,1 14,0 19,-4 23,-23 -25,-66 -48,-37z"/>
  <path class="fil0 str0" d="M102 228c-2,8 0,16 5,22 5,7 12,11 20,14 9,3 19,5 28,2 27,-8 28,-43 10,-61 -16,-15 -57,4 -63,23z"/>
  <path class="fil0 str0" d="M157 249c-5,3 -9,8 -10,14 -1,8 5,15 11,21 5,6 11,12 17,16 7,4 15,6 23,5 10,-1 19,-9 24,-18 6,-10 8,-22 6,-33 -10,-35 -51,-22 -71,-5z"/>
  <path class="fil0 str0" d="M228 267c-13,5 -25,12 -36,21 -8,7 -15,15 -15,25 1,7 6,14 12,18 6,4 13,6 21,8 9,2 19,5 29,3 13,-3 23,-17 26,-31 1,-12 -2,-28 -8,-39 -6,-12 -17,-10 -29,-5z"/>
  <path class="fil0 str0" d="M228 333c-4,11 -2,24 6,32 7,6 17,8 27,9 9,2 19,3 27,-2 11,-5 15,-19 16,-32 1,-17 -5,-39 -26,-37 -19,1 -42,11 -50,30z"/>
  <path class="fil0 str0" d="M306 312c-8,3 -14,10 -19,17 -6,7 -11,16 -10,26 1,10 9,20 19,24 9,4 21,4 31,1 9,-2 19,-6 25,-13 7,-7 10,-17 7,-26 -5,-14 -39,-35 -53,-29z"/>
  <path class="fil0 str0" d="M371 304c-3,1 -6,2 -9,4 -7,4 -13,9 -17,16 -5,6 -8,13 -8,21 1,10 10,19 20,22 10,4 21,3 32,1 6,-2 12,-4 16,-8 7,-8 5,-20 0,-29 -6,-11 -21,-28 -34,-27z"/>
  <path class="fil0 str0" d="M380 327c-2,4 -2,9 -1,14 2,6 8,11 13,14 12,7 28,8 41,2 23,-12 27,-48 3,-61 -22,-12 -51,10 -56,31z"/>
 </g>
</svg>
