<?xml version="1.0" encoding="UTF-8"?>
<!DOCTYPE svg PUBLIC "-//W3C//DTD SVG 1.1//EN" "http://www.w3.org/Graphics/SVG/1.1/DTD/svg11.dtd">
<!-- Creator: CorelDRAW X8 -->
<svg xmlns="http://www.w3.org/2000/svg" xml:space="preserve" width="500px" height="500px" version="1.1" style="shape-rendering:geometricPrecision; text-rendering:geometricPrecision; image-rendering:optimizeQuality; fill-rule:evenodd; clip-rule:evenodd"
viewBox="0 0 500 500"
 xmlns:xlink="http://www.w3.org/1999/xlink">
 <defs>
  <style type="text/css">
   <![CDATA[
    .str0 {stroke:black;stroke-width:1.00006}
    .fil0 {fill:none;fill-rule:nonzero}
   ]]>
  </style>
 </defs>
 <g id="Layer_x0020_1">
  <metadata id="CorelCorpID_0Corel-Layer"/>
  <path class="fil0 str0" d="M176 58c0,-2 -1,-3 -1,-5 7,5 10,14 11,23 1,9 0,18 2,26 3,21 19,37 37,47 19,9 40,12 60,16 9,1 19,2 27,-2 5,-3 8,-7 11,-11 10,-13 20,-26 30,-39 7,-9 14,-18 18,-28 5,-10 7,-22 3,-33 3,6 5,11 7,16 3,-6 13,-3 16,4 2,6 -1,13 -3,19 -9,27 -9,56 -13,84 -5,29 -14,57 -23,84 -7,21 -14,42 -24,61 -13,20 -29,38 -46,56 -10,10 -19,20 -29,30 -3,3 -6,6 -10,8 -11,4 -22,-5 -31,-13 -21,-19 -48,-33 -76,-40 8,-8 6,-21 2,-31 -4,-11 -9,-21 -8,-32 2,-14 15,-24 22,-38 8,-17 5,-39 14,-56 5,-9 14,-16 16,-27 2,-13 -8,-26 -17,-37 -16,-22 -28,-48 -34,-75"/>
  <path class="fil0 str0" d="M366 106c-7,10 -14,20 -15,32 0,4 1,9 3,12 2,4 7,6 11,6 7,-1 10,-9 12,-16 3,-14 5,-28 5,-42 1,-22 -10,0 -16,8z"/>
  <path class="fil0 str0" d="M291 189c3,5 5,10 8,15 4,6 7,13 14,16 6,4 15,3 22,-1 7,-4 11,-11 14,-19 3,-9 2,-52 -14,-43 -6,3 -12,15 -18,20 -8,6 -17,10 -26,12z"/>
  <path class="fil0 str0" d="M359 201c-3,11 -12,19 -22,26 -10,6 -20,11 -27,21 -7,8 -9,21 -1,28 6,6 17,4 24,-1 7,-5 11,-13 14,-21 7,-17 12,-36 16,-54 2,-6 4,-15 0,-20 -5,5 -3,14 -4,21z"/>
  <path class="fil0 str0" d="M272 222c-3,5 -5,10 -8,16 -1,2 -2,6 -1,8 2,3 6,4 9,4 5,0 11,0 16,0 4,1 9,1 13,-2 19,-13 -14,-55 -29,-26z"/>
  <path class="fil0 str0" d="M306 295c-8,2 -13,8 -18,14 -6,7 -13,13 -19,20 -3,3 -5,6 -7,9 -1,4 -1,8 1,11 4,4 10,4 15,3 15,-4 29,-14 38,-27 7,-12 14,-37 -10,-30z"/>
  <path class="fil0 str0" d="M243 274c-5,3 -10,6 -12,11 -5,8 1,20 9,24 9,5 19,4 29,1 8,-3 15,-8 21,-13 3,-2 6,-5 7,-8 4,-9 -1,-30 -11,-32 -11,-3 -34,12 -43,17z"/>
  <path class="fil0 str0" d="M200 327c-3,9 3,20 11,24 15,6 42,-10 34,-28 -8,-16 -39,-12 -45,4z"/>
  <path class="fil0 str0" d="M233 363c-8,1 -15,-2 -23,-1 -3,0 -6,1 -7,3 -2,4 1,9 5,12 4,3 8,7 13,10 4,4 9,7 15,9 6,1 13,0 19,-3 6,-3 12,-7 17,-11 2,-1 4,-3 5,-5 2,-2 2,-5 1,-7 -1,-2 -3,-2 -4,-3 -5,-3 -16,-12 -23,-12 -6,1 -11,8 -18,8z"/>
  <path class="fil0 str0" d="M168 114c1,3 3,5 5,7 3,1 6,2 8,0 0,-8 0,-16 0,-24 0,-8 -4,-28 -17,-20 -11,6 -1,30 4,37z"/>
  <path class="fil0 str0" d="M221 186c3,2 6,4 10,3 4,-1 6,-7 5,-11 -2,-9 -8,-15 -15,-21 -10,-8 -23,-19 -36,-22 2,20 21,40 36,51z"/>
  <path class="fil0 str0" d="M261 175c-6,2 -12,3 -16,8 -7,6 -6,17 -11,25 -3,4 -7,8 -10,12 -3,4 -4,10 -2,15 3,5 9,6 15,4 5,-1 9,-5 13,-9 10,-10 20,-21 29,-33 14,-17 1,-27 -18,-22z"/>
  <path class="fil0 str0" d="M179 213c-5,9 -11,18 -12,28 -1,10 5,22 15,24 7,1 15,-3 20,-9 5,-6 8,-13 10,-21 2,-9 4,-18 3,-27 -1,-7 -7,-21 -16,-21 -8,-1 -16,19 -20,26z"/>
  <path class="fil0 str0" d="M194 273c-2,3 -3,6 -4,10 0,3 2,7 5,9 4,2 9,0 14,-2 8,-5 16,-9 22,-16 11,-11 12,-23 -5,-21 -13,2 -25,10 -32,20z"/>
  <path class="fil0 str0" d="M143 295c-4,13 1,28 12,37 7,6 19,8 26,2 6,-5 7,-13 7,-21 -1,-11 -3,-37 -16,-42 -12,-4 -26,14 -29,24z"/>
  <path class="fil0 str0" d="M186 349c-4,-2 -8,-4 -13,-4 -4,-1 -9,1 -10,6 -2,5 2,11 7,13 6,2 13,2 17,-2 5,-4 4,-13 -1,-15"/>
 </g>
</svg>
