<?xml version="1.0" encoding="UTF-8"?>
<!DOCTYPE svg PUBLIC "-//W3C//DTD SVG 1.1//EN" "http://www.w3.org/Graphics/SVG/1.1/DTD/svg11.dtd">
<!-- Creator: CorelDRAW X8 -->
<svg xmlns="http://www.w3.org/2000/svg" xml:space="preserve" width="500px" height="500px" version="1.1" style="shape-rendering:geometricPrecision; text-rendering:geometricPrecision; image-rendering:optimizeQuality; fill-rule:evenodd; clip-rule:evenodd"
viewBox="0 0 500 500"
 xmlns:xlink="http://www.w3.org/1999/xlink">
 <defs>
  <style type="text/css">
   <![CDATA[
    .str0 {stroke:black;stroke-width:1.00006}
    .fil0 {fill:none;fill-rule:nonzero}
   ]]>
  </style>
 </defs>
 <g id="Layer_x0020_1">
  <metadata id="CorelCorpID_0Corel-Layer"/>
  <path class="fil0 str0" d="M195 148c-9,4 -11,14 -16,21 -5,6 -12,8 -19,12 -9,4 -18,9 -24,18 -6,8 -8,20 -3,28 5,9 16,13 24,20 10,8 15,20 20,32 7,15 13,31 15,48 1,11 0,22 6,31 9,12 26,14 41,14 8,0 16,-1 22,-7 4,-4 4,-10 7,-15 7,-18 30,-27 35,-46 3,-14 -4,-30 4,-41 5,-6 13,-9 21,-10 8,-1 16,-1 23,-5 13,-6 20,-23 19,-37 -1,-15 -9,-29 -16,-42 -8,-13 -16,-26 -19,-41"/>
  <path class="fil0 str0" d="M190 321c5,1 7,6 10,10 6,6 15,8 24,7 8,-1 16,-4 25,-5 8,-1 18,1 23,7"/>
  <path class="fil0 str0" d="M202 341c-3,-1 -7,1 -7,4 -1,3 2,6 5,6 3,1 6,-2 7,-5 0,-3 -2,-6 -5,-7"/>
  <path class="fil0 str0" d="M223 343c0,-1 -1,-2 -2,-2 -2,0 -3,1 -3,2 -4,3 -5,9 -2,12 3,4 9,3 11,-1 3,-4 0,-9 -4,-10"/>
  <path class="fil0 str0" d="M210 356c0,-1 0,-2 0,-2 -4,0 -7,2 -8,5 -1,4 1,8 4,9 4,1 8,-3 8,-6 0,-4 -2,-8 -6,-9"/>
  <path class="fil0 str0" d="M244 339c-1,-2 -4,-3 -6,-2 -2,0 -4,2 -6,4 -3,4 -4,10 0,14 3,3 8,2 12,-1 2,-2 4,-6 4,-9 -1,-4 -3,-7 -6,-9"/>
  <path class="fil0 str0" d="M249 353c-3,2 -6,5 -6,8 -1,4 2,8 6,8 2,1 5,-1 6,-3 1,-2 1,-5 1,-8 -1,-2 -2,-4 -4,-5 -3,-1 -5,-1 -7,1"/>
  <path class="fil0 str0" d="M266 339c2,3 3,8 0,11 -3,3 -8,3 -11,1 -3,-2 -4,-8 -2,-11 2,-3 7,-5 11,-3"/>
  <path class="fil0 str0" d="M232 358c-2,-3 -8,-3 -10,1 -2,3 0,8 3,10 4,2 9,1 11,-3 2,-3 -1,-9 -5,-9"/>
 </g>
</svg>
