<?xml version="1.0" encoding="UTF-8"?>
<!DOCTYPE svg PUBLIC "-//W3C//DTD SVG 1.1//EN" "http://www.w3.org/Graphics/SVG/1.1/DTD/svg11.dtd">
<!-- Creator: CorelDRAW X8 -->
<svg xmlns="http://www.w3.org/2000/svg" xml:space="preserve" width="500px" height="500px" version="1.1" style="shape-rendering:geometricPrecision; text-rendering:geometricPrecision; image-rendering:optimizeQuality; fill-rule:evenodd; clip-rule:evenodd"
viewBox="0 0 500 500"
 xmlns:xlink="http://www.w3.org/1999/xlink">
 <defs>
  <style type="text/css">
   <![CDATA[
    .str0 {stroke:black;stroke-width:1.00006}
    .fil0 {fill:none;fill-rule:nonzero}
   ]]>
  </style>
 </defs>
 <g id="Layer_x0020_1">
  <metadata id="CorelCorpID_0Corel-Layer"/>
  <path class="fil0 str0" d="M213 70c8,-6 20,-11 28,-5 4,4 5,9 6,13 3,11 6,23 13,32 7,8 20,13 30,8 -2,9 -4,19 -6,29 -2,11 -5,23 -7,34 4,-9 14,-12 23,-13 10,0 20,1 28,-3 10,-5 15,-14 20,-23 1,-1 1,-1 1,-2 5,-8 10,-17 11,-27 2,-9 1,-20 -6,-27 -1,-1 -2,-2 -4,-2 -5,-2 -9,6 -14,8 -4,2 -10,0 -13,-4 -4,-3 -6,-8 -8,-12 -4,-8 -9,-15 -16,-20 -3,-3 -7,-6 -12,-7 -16,-2 -27,25 -43,20"/>
  <path class="fil0 str0" d="M212 79c-4,-6 -7,-12 -11,-17 -8,6 -16,13 -22,21 -21,28 -15,72 12,94 16,12 36,17 49,32 -6,-1 -13,-2 -19,-3 5,19 2,39 -4,57 -6,18 -15,36 -23,53 -11,28 -20,57 -26,87 0,2 -1,5 0,8 2,4 7,6 12,8 11,3 25,6 34,-1 5,-4 8,-10 10,-16 26,-55 53,-114 49,-176 -1,-4 -1,-9 -4,-13l84 14c4,1 8,2 11,0 5,-2 7,-7 9,-12 3,-9 7,-18 10,-26 7,-19 14,-38 11,-58 -4,-21 -21,-40 -42,-45"/>
 </g>
</svg>
