<?xml version="1.0" encoding="UTF-8"?>
<!DOCTYPE svg PUBLIC "-//W3C//DTD SVG 1.1//EN" "http://www.w3.org/Graphics/SVG/1.1/DTD/svg11.dtd">
<!-- Creator: CorelDRAW X8 -->
<svg xmlns="http://www.w3.org/2000/svg" xml:space="preserve" width="500px" height="500px" version="1.1" style="shape-rendering:geometricPrecision; text-rendering:geometricPrecision; image-rendering:optimizeQuality; fill-rule:evenodd; clip-rule:evenodd"
viewBox="0 0 500 500"
 xmlns:xlink="http://www.w3.org/1999/xlink">
 <defs>
  <style type="text/css">
   <![CDATA[
    .str0 {stroke:black;stroke-width:1.00006}
    .fil0 {fill:none;fill-rule:nonzero}
   ]]>
  </style>
 </defs>
 <g id="Layer_x0020_1">
  <metadata id="CorelCorpID_0Corel-Layer"/>
  <path class="fil0 str0" d="M115 146c-2,7 -2,16 -2,24 2,22 3,43 9,64 5,20 15,39 24,57 6,10 11,20 18,29 7,8 17,14 26,21 51,36 105,68 162,95 1,-6 -9,-8 -15,-9 -29,-2 -51,-24 -72,-43 -18,-15 -37,-29 -57,-41 -14,-8 -29,-16 -39,-29 -10,-12 -15,-31 -5,-44 3,-6 9,-10 12,-16 4,-8 2,-18 1,-27 -2,-19 4,-37 7,-56 3,-18 5,-38 -4,-55 -4,-6 -10,-13 -18,-15 -10,-3 -10,0 -16,6 -10,10 -26,25 -31,39z"/>
  <path class="fil0 str0" d="M151 306c-9,10 -19,19 -28,29"/>
  <path class="fil0 str0" d="M143 286c-9,1 -18,3 -27,6 -3,0 -6,2 -5,5"/>
  <path class="fil0 str0" d="M134 265c-14,0 -27,-1 -40,-1"/>
  <path class="fil0 str0" d="M123 234c-1,1 1,1 1,0 -1,-1 -1,-1 -2,-1 -12,0 -25,0 -37,0"/>
  <path class="fil0 str0" d="M113 208c2,-2 -1,-4 -4,-4 -12,0 -25,4 -35,-2 0,-1 1,-2 2,-3"/>
  <path class="fil0 str0" d="M113 173c1,0 1,0 1,0 -12,1 -23,-1 -34,-5"/>
  <path class="fil0 str0" d="M116 144c-11,-3 -20,-6 -30,-10"/>
  <path class="fil0 str0" d="M132 121c-10,-4 -21,-8 -30,-14"/>
  <path class="fil0 str0" d="M147 106c-9,-7 -12,-20 -8,-31"/>
  <path class="fil0 str0" d="M171 107c8,-11 17,-22 27,-32"/>
  <path class="fil0 str0" d="M187 127c-1,-1 -3,0 -3,1 15,-8 30,-15 46,-22"/>
  <path class="fil0 str0" d="M191 148c13,-2 26,-4 39,-6"/>
  <path class="fil0 str0" d="M183 178c0,-1 -1,0 -1,1 0,1 1,1 2,1 12,1 25,3 38,5"/>
  <path class="fil0 str0" d="M184 207c10,4 21,4 31,2 1,0 2,-1 2,0 1,1 -1,1 -1,1"/>
  <path class="fil0 str0" d="M179 238c0,0 0,0 0,0 13,-1 25,-1 38,-2"/>
  <path class="fil0 str0" d="M178 252c8,4 16,8 24,14 3,2 8,5 11,3"/>
  <path class="fil0 str0" d="M164 271c12,5 25,8 37,11"/>
  <path class="fil0 str0" d="M172 302c0,-1 -2,-1 -1,0 0,1 1,1 2,0 10,-1 20,-3 31,-5"/>
  <path class="fil0 str0" d="M358 316c2,-51 2,-102 1,-152 -1,-12 -1,-23 -8,-33 -3,-5 -9,-10 -12,-15 -11,-17 -3,-40 11,-54 8,-9 20,-17 32,-18 12,-2 26,3 33,13 5,7 6,16 6,24 -1,17 -8,33 -22,41 -14,9 -35,5 -43,-9 8,-4 16,4 25,5 8,2 16,-3 21,-9 5,-7 8,-15 8,-24 1,-6 0,-13 -3,-18 -5,-8 -15,-12 -25,-10 -9,1 -17,6 -25,12 -10,9 -19,23 -14,36 4,10 15,15 24,21 11,7 20,18 25,31 8,19 8,42 6,63 -4,47 -13,94 -17,141 -2,26 -2,53 0,79 1,7 6,19 -2,24 -5,3 -12,-1 -15,-5 -12,-13 -8,-53 -9,-70 0,-24 2,-49 3,-73z"/>
 </g>
</svg>
