<?xml version="1.0" encoding="UTF-8"?>
<!DOCTYPE svg PUBLIC "-//W3C//DTD SVG 1.1//EN" "http://www.w3.org/Graphics/SVG/1.1/DTD/svg11.dtd">
<!-- Creator: CorelDRAW X8 -->
<svg xmlns="http://www.w3.org/2000/svg" xml:space="preserve" width="500px" height="500px" version="1.1" style="shape-rendering:geometricPrecision; text-rendering:geometricPrecision; image-rendering:optimizeQuality; fill-rule:evenodd; clip-rule:evenodd"
viewBox="0 0 500 500"
 xmlns:xlink="http://www.w3.org/1999/xlink">
 <defs>
  <style type="text/css">
   <![CDATA[
    .str0 {stroke:black;stroke-width:1.00006}
    .fil0 {fill:none;fill-rule:nonzero}
   ]]>
  </style>
 </defs>
 <g id="Layer_x0020_1">
  <metadata id="CorelCorpID_0Corel-Layer"/>
  <path class="fil0 str0" d="M246 194c-12,-7 -27,-1 -38,7 -5,4 -8,7 -11,12 -2,4 -3,8 -3,12 -3,24 7,48 26,63 -5,-19 2,-40 11,-57 1,-3 3,-6 5,-8 3,-1 6,-2 8,1 2,1 2,3 2,4 3,15 5,29 8,44 -2,-12 0,-24 5,-35 1,-4 4,-7 7,-9 6,-3 13,0 18,4 8,7 12,17 11,27 -1,18 -15,32 -29,43 12,3 24,0 34,-7 10,-6 17,-17 22,-27 3,-8 5,-17 4,-25 -2,-17 -17,-30 -34,-34 6,-5 14,-3 21,0 14,8 24,24 25,40 2,-15 5,-31 1,-46 -1,-7 -4,-13 -9,-16 -6,-5 -14,-5 -21,-4 -15,2 -28,8 -39,18 0,-6 0,-12 0,-19l-6 0 -1 -21c0,-2 0,-5 1,-7 3,-7 11,-9 14,-15 1,-2 1,-5 -1,-7 -1,-2 -5,-2 -7,0 -3,1 -4,4 -6,6 0,-4 0,-8 -2,-11 -2,-4 -6,-6 -9,-6 -7,1 -8,11 -4,16 1,1 2,2 3,3 0,2 0,3 0,5 1,23 1,47 1,70"/>
 </g>
</svg>
