<?xml version="1.0" encoding="UTF-8"?>
<!DOCTYPE svg PUBLIC "-//W3C//DTD SVG 1.1//EN" "http://www.w3.org/Graphics/SVG/1.1/DTD/svg11.dtd">
<!-- Creator: CorelDRAW X8 -->
<svg xmlns="http://www.w3.org/2000/svg" xml:space="preserve" width="500px" height="500px" version="1.1" style="shape-rendering:geometricPrecision; text-rendering:geometricPrecision; image-rendering:optimizeQuality; fill-rule:evenodd; clip-rule:evenodd"
viewBox="0 0 500 500"
 xmlns:xlink="http://www.w3.org/1999/xlink">
 <defs>
  <style type="text/css">
   <![CDATA[
    .str0 {stroke:black;stroke-width:1.00006}
    .fil0 {fill:none;fill-rule:nonzero}
   ]]>
  </style>
 </defs>
 <g id="Layer_x0020_1">
  <metadata id="CorelCorpID_0Corel-Layer"/>
  <path class="fil0 str0" d="M226 127c0,2 0,3 2,4 2,2 4,0 6,-2 9,-13 14,-29 17,-44 1,-10 9,-39 -2,-45 -9,8 -14,29 -17,41 -4,15 -6,31 -6,46z"/>
  <path class="fil0 str0" d="M193 111c0,5 -1,9 0,14 1,3 3,6 6,7 2,0 4,-1 6,-3 1,-2 2,-4 3,-7 4,-13 7,-27 9,-42 2,-8 7,-28 -1,-34 -12,16 -20,44 -23,65z"/>
  <path class="fil0 str0" d="M151 154c2,9 6,19 12,26 3,3 7,6 11,3 2,-1 2,-5 2,-8 0,-25 -6,-51 -18,-74 -2,-3 -6,-13 -10,-10 -3,1 -2,17 -2,20 -1,14 1,29 5,43z"/>
  <path class="fil0 str0" d="M228 191c42,-38 83,-75 125,-112"/>
  <path class="fil0 str0" d="M235 200c58,-36 113,-78 165,-123"/>
  <path class="fil0 str0" d="M195 211c-38,-26 -88,-34 -122,-66"/>
  <path class="fil0 str0" d="M205 236c-44,-18 -89,-36 -133,-54 -3,-1 -5,-2 -8,-4"/>
  <path class="fil0 str0" d="M229 233c78,-50 154,-101 230,-155"/>
  <path class="fil0 str0" d="M235 249c0,1 -1,0 -1,0 0,-1 1,-2 1,-2 72,-39 141,-80 209,-124"/>
  <path class="fil0 str0" d="M245 261c72,-31 144,-65 213,-102"/>
  <path class="fil0 str0" d="M250 283c66,-21 131,-49 193,-83 -3,-1 -7,0 -9,2"/>
  <path class="fil0 str0" d="M253 306c64,-20 129,-40 193,-60"/>
  <path class="fil0 str0" d="M246 327c63,-10 126,-23 188,-40"/>
  <path class="fil0 str0" d="M262 349c60,-12 119,-23 180,-31"/>
  <path class="fil0 str0" d="M255 386c62,-8 123,-18 183,-32"/>
  <path class="fil0 str0" d="M251 414c51,-5 102,-8 153,-8"/>
  <path class="fil0 str0" d="M212 252c-39,-6 -77,-19 -112,-39 -3,-2 -7,-3 -9,0"/>
  <path class="fil0 str0" d="M219 267c-48,-3 -95,-10 -142,-22"/>
  <path class="fil0 str0" d="M228 291c-46,-2 -92,-10 -137,-22"/>
  <path class="fil0 str0" d="M228 310c-51,0 -103,-1 -154,-3 2,-1 3,-1 5,-1"/>
  <path class="fil0 str0" d="M230 329c-46,9 -93,16 -139,21"/>
  <path class="fil0 str0" d="M231 354c-45,5 -89,13 -133,24"/>
  <path class="fil0 str0" d="M237 374c-46,7 -91,15 -136,25"/>
  <path class="fil0 str0" d="M235 401c-51,8 -102,18 -152,31"/>
  <path class="fil0 str0" d="M246 428c-5,-1 -11,1 -16,2 -26,7 -52,14 -78,21 -2,0 -5,-1 -4,-2"/>
  <path class="fil0 str0" d="M203 154c1,10 2,19 3,29 1,12 2,25 4,37 3,15 8,30 12,44 11,40 19,80 24,120 1,10 2,20 3,30 2,15 5,30 9,45"/>
 </g>
</svg>
