<?xml version="1.0" encoding="UTF-8"?>
<!DOCTYPE svg PUBLIC "-//W3C//DTD SVG 1.1//EN" "http://www.w3.org/Graphics/SVG/1.1/DTD/svg11.dtd">
<!-- Creator: CorelDRAW X8 -->
<svg xmlns="http://www.w3.org/2000/svg" xml:space="preserve" width="500px" height="500px" version="1.1" style="shape-rendering:geometricPrecision; text-rendering:geometricPrecision; image-rendering:optimizeQuality; fill-rule:evenodd; clip-rule:evenodd"
viewBox="0 0 500 500"
 xmlns:xlink="http://www.w3.org/1999/xlink">
 <defs>
  <style type="text/css">
   <![CDATA[
    .str0 {stroke:black;stroke-width:1.00006}
    .fil0 {fill:none;fill-rule:nonzero}
   ]]>
  </style>
 </defs>
 <g id="Layer_x0020_1">
  <metadata id="CorelCorpID_0Corel-Layer"/>
  <path class="fil0 str0" d="M160 349c-37,-62 -75,-127 -85,-199 -4,-30 -3,-61 3,-91 2,-9 5,-18 13,-21 31,92 56,186 76,282 8,-93 16,-187 39,-277 2,-8 4,-15 9,-21 5,-6 13,-10 20,-8 3,9 2,19 1,29 -13,90 -34,178 -63,264 35,-36 53,-86 76,-131 25,-48 56,-92 94,-130 4,15 -7,31 -18,43 -56,70 -107,145 -151,223 74,-54 137,-124 214,-174 15,-10 30,-19 47,-22 3,8 -1,17 -7,24 -27,37 -67,61 -104,88 -26,20 -50,41 -76,60 -21,14 -42,27 -64,39 37,-12 69,-33 104,-50 34,-17 71,-31 109,-29 1,3 -3,6 -6,7 -29,13 -58,27 -87,40 -47,22 -95,44 -145,59 31,15 65,23 98,34 33,10 66,25 90,49 -70,-6 -139,-26 -201,-59"/>
 </g>
</svg>
