<?xml version="1.0" encoding="UTF-8"?>
<!DOCTYPE svg PUBLIC "-//W3C//DTD SVG 1.1//EN" "http://www.w3.org/Graphics/SVG/1.1/DTD/svg11.dtd">
<!-- Creator: CorelDRAW X8 -->
<svg xmlns="http://www.w3.org/2000/svg" xml:space="preserve" width="500px" height="500px" version="1.1" style="shape-rendering:geometricPrecision; text-rendering:geometricPrecision; image-rendering:optimizeQuality; fill-rule:evenodd; clip-rule:evenodd"
viewBox="0 0 500 500"
 xmlns:xlink="http://www.w3.org/1999/xlink">
 <defs>
  <style type="text/css">
   <![CDATA[
    .str0 {stroke:black;stroke-width:1.00006}
    .fil0 {fill:none;fill-rule:nonzero}
   ]]>
  </style>
 </defs>
 <g id="Layer_x0020_1">
  <metadata id="CorelCorpID_0Corel-Layer"/>
  <path class="fil0 str0" d="M182 207c-9,21 -16,45 -9,67 3,9 7,17 12,24 4,7 9,14 15,20 11,11 28,16 44,18 18,2 39,0 52,-12 12,-10 17,-26 20,-41 6,-28 7,-58 2,-86 -2,-9 -5,-18 -11,-25 -6,-9 -17,-14 -27,-16 -11,-2 -22,-2 -33,0 1,31 2,63 3,94 0,10 0,20 -3,29 -4,0 -7,-3 -8,-6 -2,-4 -2,-7 -2,-11 1,-17 1,-35 2,-52 0,-17 3,-36 1,-53 -30,-9 -48,29 -58,50z"/>
 </g>
</svg>
