<?xml version="1.0" encoding="UTF-8"?>
<!DOCTYPE svg PUBLIC "-//W3C//DTD SVG 1.1//EN" "http://www.w3.org/Graphics/SVG/1.1/DTD/svg11.dtd">
<!-- Creator: CorelDRAW X8 -->
<svg xmlns="http://www.w3.org/2000/svg" xml:space="preserve" width="500px" height="500px" version="1.1" style="shape-rendering:geometricPrecision; text-rendering:geometricPrecision; image-rendering:optimizeQuality; fill-rule:evenodd; clip-rule:evenodd"
viewBox="0 0 500 500"
 xmlns:xlink="http://www.w3.org/1999/xlink">
 <defs>
  <style type="text/css">
   <![CDATA[
    .str0 {stroke:black;stroke-width:1.00006}
    .fil0 {fill:none;fill-rule:nonzero}
   ]]>
  </style>
 </defs>
 <g id="Layer_x0020_1">
  <metadata id="CorelCorpID_0Corel-Layer"/>
  <path class="fil0 str0" d="M214 81c-5,10 -7,22 -8,34 -5,35 -10,70 -14,105 -1,4 -1,9 1,13 4,9 16,10 26,8 -9,61 -18,121 -27,181 -1,5 -2,10 -1,15 1,16 16,28 30,38 3,-3 0,-8 -3,-11 -16,-18 -14,-46 -11,-70 6,-50 12,-101 18,-152 9,2 18,3 28,3 8,0 17,-1 22,-7 3,-4 5,-10 6,-15 6,-30 10,-61 13,-93 2,-16 3,-33 -6,-47 -8,-11 -20,-17 -27,-28 -2,-4 -4,-9 -5,-14 -2,-4 -2,-8 -6,-11 -6,7 -11,18 -17,25 -7,8 -14,16 -19,26z"/>
  <path class="fil0 str0" d="M229 133c-16,-1 -31,-11 -42,-23 -10,-12 -17,-28 -23,-43 -11,7 -22,13 -34,16 13,-20 34,-33 57,-35 -6,10 -15,18 -26,22"/>
 </g>
</svg>
