<?xml version="1.0" encoding="UTF-8"?>
<!DOCTYPE svg PUBLIC "-//W3C//DTD SVG 1.1//EN" "http://www.w3.org/Graphics/SVG/1.1/DTD/svg11.dtd">
<!-- Creator: CorelDRAW X8 -->
<svg xmlns="http://www.w3.org/2000/svg" xml:space="preserve" width="500px" height="500px" version="1.1" style="shape-rendering:geometricPrecision; text-rendering:geometricPrecision; image-rendering:optimizeQuality; fill-rule:evenodd; clip-rule:evenodd"
viewBox="0 0 500 500"
 xmlns:xlink="http://www.w3.org/1999/xlink">
 <defs>
  <style type="text/css">
   <![CDATA[
    .str0 {stroke:black;stroke-width:1.00006}
    .fil0 {fill:none;fill-rule:nonzero}
   ]]>
  </style>
 </defs>
 <g id="Layer_x0020_1">
  <metadata id="CorelCorpID_0Corel-Layer"/>
  <path class="fil0 str0" d="M192 129c-12,17 -24,35 -32,55 -11,28 -11,60 -5,91 5,30 17,59 30,87 6,13 13,27 19,41 5,8 10,17 18,22 6,3 14,3 21,4 9,0 19,1 27,-4 8,-4 13,-15 8,-23 14,7 32,5 44,-4 2,-2 3,-3 4,-5 4,-7 -3,-16 -9,-22 -33,-29 -53,-69 -71,-109 -15,-30 -29,-62 -27,-95 2,-27 16,-53 16,-80 0,-21 -10,-6 -17,4 -9,13 -18,25 -26,38z"/>
  <line class="fil0 str0" x1="269" y1="404" x2="272" y2= "404" />
  <path class="fil0 str0" d="M281 400c-9,1 -18,-4 -23,-12 -6,-7 -9,-16 -12,-24 -16,-54 -29,-108 -38,-163 -3,-18 -5,-36 -2,-53 2,-9 5,-17 8,-26 5,-13 9,-26 14,-39 1,-2 3,-3 3,-1"/>
 </g>
</svg>
