<?xml version="1.0" encoding="UTF-8"?>
<!DOCTYPE svg PUBLIC "-//W3C//DTD SVG 1.1//EN" "http://www.w3.org/Graphics/SVG/1.1/DTD/svg11.dtd">
<!-- Creator: CorelDRAW X8 -->
<svg xmlns="http://www.w3.org/2000/svg" xml:space="preserve" width="500px" height="500px" version="1.1" style="shape-rendering:geometricPrecision; text-rendering:geometricPrecision; image-rendering:optimizeQuality; fill-rule:evenodd; clip-rule:evenodd"
viewBox="0 0 500 500"
 xmlns:xlink="http://www.w3.org/1999/xlink">
 <defs>
  <style type="text/css">
   <![CDATA[
    .str0 {stroke:black;stroke-width:1.00006}
    .fil0 {fill:none;fill-rule:nonzero}
   ]]>
  </style>
 </defs>
 <g id="Layer_x0020_1">
  <metadata id="CorelCorpID_0Corel-Layer"/>
  <path class="fil0 str0" d="M157 261c-17,-37 -27,-78 -18,-117 6,-25 19,-48 26,-73 6,21 8,43 5,64 14,-23 28,-47 50,-63 0,34 0,69 -12,101 -6,15 -15,28 -21,43 -6,15 -10,32 -6,47 3,13 12,24 20,35 7,-24 15,-48 22,-72 1,-5 2,-9 2,-13 0,-4 -2,-8 -4,-12 -2,-10 -1,-20 1,-29 3,-19 6,-37 11,-55 3,-15 8,-31 19,-42 5,12 8,25 10,39 6,31 4,65 -13,92 7,-16 14,-32 22,-48 9,-15 19,-29 29,-44 11,-16 23,-34 41,-43 3,-2 7,-3 10,-1 3,2 3,6 3,9 -1,31 -16,59 -32,85 -26,43 -55,83 -88,121 -11,14 -24,29 -28,46 -4,17 0,35 6,52 0,1 0,2 1,3 2,2 4,2 6,2 5,-1 9,-1 14,-1 4,0 9,0 12,2 4,1 7,6 6,10 -3,7 -15,5 -22,9 4,10 12,18 22,21 -18,8 -39,9 -58,5 -9,-3 -19,-7 -24,-15 -5,-7 -5,-16 -5,-25 0,-25 2,-49 7,-73 2,-11 7,-20 1,-31 -5,-9 -11,-19 -15,-29z"/>
 </g>
</svg>
