<?xml version="1.0" encoding="UTF-8"?>
<!DOCTYPE svg PUBLIC "-//W3C//DTD SVG 1.1//EN" "http://www.w3.org/Graphics/SVG/1.1/DTD/svg11.dtd">
<!-- Creator: CorelDRAW X8 -->
<svg xmlns="http://www.w3.org/2000/svg" xml:space="preserve" width="500px" height="500px" version="1.1" style="shape-rendering:geometricPrecision; text-rendering:geometricPrecision; image-rendering:optimizeQuality; fill-rule:evenodd; clip-rule:evenodd"
viewBox="0 0 500 500"
 xmlns:xlink="http://www.w3.org/1999/xlink">
 <defs>
  <style type="text/css">
   <![CDATA[
    .str0 {stroke:black;stroke-width:1.00006}
    .fil0 {fill:none;fill-rule:nonzero}
   ]]>
  </style>
 </defs>
 <g id="Layer_x0020_1">
  <metadata id="CorelCorpID_0Corel-Layer"/>
  <path class="fil0 str0" d="M306 123c14,28 13,63 -4,90 22,-8 45,-14 68,-18 15,-2 31,-4 43,5 16,11 18,33 17,51 -1,12 -3,24 -12,31 -8,7 -20,8 -28,14 -5,4 -8,10 -13,14 -4,4 -12,6 -17,2 -1,-1 -2,-2 -2,-4 -1,-5 5,-8 10,-9 21,-7 37,-25 43,-46 3,-12 2,-27 -7,-35 -10,-11 -27,-9 -42,-6 -23,6 -45,14 -65,26 12,3 17,18 14,31 -2,12 -8,24 -8,37 0,19 15,36 32,45 21,10 46,11 68,3 22,-8 40,-25 50,-46 4,-9 6,-19 4,-28 -4,-16 -19,-27 -35,-29 -16,-2 -32,2 -48,8 -5,2 -11,4 -17,2 -11,-3 -14,-17 -14,-28 3,-56 45,-107 99,-119 -9,19 -29,30 -44,45 -18,16 -30,38 -36,61 -1,5 -2,9 0,13 4,8 15,8 23,7 28,-2 58,1 77,21 23,23 19,64 -3,89 -21,24 -55,34 -88,34 -14,0 -28,-1 -41,-8 -26,-13 -39,-44 -49,-72 -6,13 -13,27 -10,41 2,9 8,16 14,23 12,13 24,27 39,35 15,9 34,13 51,7 -3,11 -16,17 -28,17 -12,-1 -23,-6 -33,-12 -20,-10 -41,-21 -56,-39 -9,-10 -16,-23 -19,-37 -1,-5 -3,-11 -8,-13 -4,-1 -7,0 -10,1 -11,5 -21,11 -30,19 -6,6 -12,12 -19,17 -10,6 -23,8 -35,8 -17,0 -35,-4 -51,-10 -6,-2 -11,-5 -17,-5 -16,0 -27,16 -42,21 7,-19 30,-26 50,-25 20,1 40,8 59,6 37,-4 64,-37 99,-47 6,-2 14,-4 16,-10 1,-3 0,-6 0,-9 -2,-12 -3,-24 -5,-36 -1,-4 -2,-8 -4,-12 -5,-5 -13,-4 -20,-2 -26,10 -36,40 -57,58 -30,25 -80,19 -106,-11 -4,-5 -7,-10 -8,-16 -1,-7 1,-14 7,-17 8,12 12,26 22,36 16,15 43,12 62,1 19,-10 34,-28 50,-43 16,-15 36,-28 58,-27 2,0 4,0 6,-1 1,-1 1,-2 2,-4 3,-13 4,-27 -2,-39 -6,-12 -20,-21 -32,-16 -13,4 -18,19 -24,31 -13,27 -37,48 -66,59 -5,1 -10,3 -15,1 -4,-1 -8,-7 -5,-12 15,5 32,-4 42,-16 11,-13 17,-28 25,-42 10,-19 27,-36 48,-39 26,-3 52,21 51,48 9,-17 9,-37 1,-54 -6,-11 -16,-20 -23,-32 -9,-16 -9,-37 -1,-54 5,-11 14,-20 25,-24 2,-1 4,-1 6,0 4,2 4,8 3,12 -4,15 -11,28 -7,43 3,7 7,14 11,20 2,5 11,14 11,19z"/>
 </g>
</svg>
