<?xml version="1.0" encoding="UTF-8"?>
<!DOCTYPE svg PUBLIC "-//W3C//DTD SVG 1.1//EN" "http://www.w3.org/Graphics/SVG/1.1/DTD/svg11.dtd">
<!-- Creator: CorelDRAW X8 -->
<svg xmlns="http://www.w3.org/2000/svg" xml:space="preserve" width="500px" height="500px" version="1.1" style="shape-rendering:geometricPrecision; text-rendering:geometricPrecision; image-rendering:optimizeQuality; fill-rule:evenodd; clip-rule:evenodd"
viewBox="0 0 500 500"
 xmlns:xlink="http://www.w3.org/1999/xlink">
 <defs>
  <style type="text/css">
   <![CDATA[
    .str0 {stroke:black;stroke-width:1.00006}
    .fil0 {fill:none;fill-rule:nonzero}
   ]]>
  </style>
 </defs>
 <g id="Layer_x0020_1">
  <metadata id="CorelCorpID_0Corel-Layer"/>
  <path class="fil0 str0" d="M354 421c9,-5 16,-14 19,-24 3,-10 4,-21 6,-31 6,-49 24,-95 41,-140 -16,15 -30,33 -42,52 -6,-28 12,-55 25,-81 17,-36 25,-77 23,-117 -25,31 -46,66 -61,102 2,-35 3,-73 -17,-103 -28,31 -32,76 -35,117 -1,23 -3,45 -4,68 -1,7 -1,15 -5,22 -21,-45 -43,-90 -64,-135 -11,-22 -22,-45 -42,-58 -5,4 -4,12 -3,18 4,18 7,36 11,54 -17,-23 -36,-44 -58,-62 3,16 -2,33 -2,49 0,32 19,61 39,86 21,24 44,48 57,77 -36,-12 -71,-28 -101,-51 -29,-24 -53,-55 -63,-92 -4,-12 -5,-24 -4,-36 2,-14 8,-27 14,-39 25,13 46,34 59,59"/>
  <path class="fil0 str0" d="M330 110c-9,-13 -20,-25 -33,-34 -3,-2 -7,-4 -10,-2 -3,1 -4,4 -5,7 -4,18 -7,35 -7,53 -6,-17 -12,-35 -18,-52 -3,-6 -6,-13 -11,-18 -13,17 -22,37 -26,58"/>
  <path class="fil0 str0" d="M171 299c1,-2 -2,-4 -4,-5 -19,-8 -40,-13 -60,-16 2,17 17,29 31,37 51,31 112,43 154,85 6,5 11,12 16,18 4,5 8,10 13,14 5,3 12,4 17,1 3,-2 5,-5 8,-8 3,-2 8,-4 11,-2"/>
 </g>
</svg>
