<?xml version="1.0" encoding="UTF-8"?>
<!DOCTYPE svg PUBLIC "-//W3C//DTD SVG 1.1//EN" "http://www.w3.org/Graphics/SVG/1.1/DTD/svg11.dtd">
<!-- Creator: CorelDRAW X8 -->
<svg xmlns="http://www.w3.org/2000/svg" xml:space="preserve" width="500px" height="500px" version="1.1" style="shape-rendering:geometricPrecision; text-rendering:geometricPrecision; image-rendering:optimizeQuality; fill-rule:evenodd; clip-rule:evenodd"
viewBox="0 0 500 500"
 xmlns:xlink="http://www.w3.org/1999/xlink">
 <defs>
  <style type="text/css">
   <![CDATA[
    .str0 {stroke:black;stroke-width:1.00006}
    .fil0 {fill:none;fill-rule:nonzero}
   ]]>
  </style>
 </defs>
 <g id="Layer_x0020_1">
  <metadata id="CorelCorpID_0Corel-Layer"/>
  <path class="fil0 str0" d="M270 363c-3,-9 -6,-19 -9,-29 -4,-11 -7,-23 -13,-34 -6,-10 -14,-20 -21,-30 -9,-12 -18,-25 -24,-39 -16,-35 -15,-75 -11,-114 15,9 29,17 44,26 13,7 27,15 37,26 16,16 25,37 30,59 10,36 10,76 -2,112 -5,12 -11,23 -18,34 -1,2 -6,11 -10,8 -1,-1 -2,-16 -3,-19z"/>
  <path class="fil0 str0" d="M274 382l5 -17c2,-9 4,-18 5,-27 4,-23 5,-48 -3,-70 -5,-13 -12,-25 -20,-37 -19,-29 -38,-57 -56,-86 -5,-8 -10,-17 -8,-25"/>
  <path class="fil0 str0" d="M219 136c1,-1 2,-2 3,-3 2,17 2,34 2,50"/>
  <path class="fil0 str0" d="M248 153c0,-1 0,-1 0,-2 0,11 -1,22 -2,33 -1,9 -2,19 0,29"/>
  <path class="fil0 str0" d="M275 171c1,1 1,-1 0,-1 0,1 -1,1 -1,2 -2,21 -5,43 -9,64 0,2 0,6 2,7"/>
  <path class="fil0 str0" d="M302 220c0,-1 -1,-1 -1,-2 -2,9 -4,18 -6,27 -2,6 -3,11 -5,16 -2,7 -6,13 -5,20"/>
  <path class="fil0 str0" d="M310 275c-1,0 -2,1 -2,2 -3,7 -5,15 -8,22 -4,7 -9,14 -15,17 -1,1 -2,1 -2,2 0,1 0,2 1,2"/>
  <path class="fil0 str0" d="M191 162c3,-1 5,2 8,3 7,4 16,2 22,6"/>
  <path class="fil0 str0" d="M237 196c-2,5 -8,6 -13,7 -6,1 -11,1 -17,0 -6,0 -12,-1 -16,-5"/>
  <path class="fil0 str0" d="M262 232c0,0 -1,-1 -1,-1 -1,0 -1,1 -1,1 -1,2 -3,4 -5,5 -8,3 -17,3 -26,4 -9,0 -18,0 -26,-4 0,0 0,0 0,-1 0,0 0,0 0,1"/>
  <path class="fil0 str0" d="M277 260c0,0 -1,1 -1,1 -2,2 -5,2 -8,3 -14,3 -29,4 -43,4"/>
  <path class="fil0 str0" d="M288 294c-13,9 -29,12 -44,9 1,0 1,1 2,1"/>
  <path class="fil0 str0" d="M289 348c0,-1 0,0 0,0 0,0 0,0 -1,0 -9,2 -19,-1 -26,-6"/>
 </g>
</svg>
