<?xml version="1.0" encoding="UTF-8"?>
<!DOCTYPE svg PUBLIC "-//W3C//DTD SVG 1.1//EN" "http://www.w3.org/Graphics/SVG/1.1/DTD/svg11.dtd">
<!-- Creator: CorelDRAW X8 -->
<svg xmlns="http://www.w3.org/2000/svg" xml:space="preserve" width="20cm" height="20cm" version="1.1" style="shape-rendering:geometricPrecision; text-rendering:geometricPrecision; image-rendering:optimizeQuality; fill-rule:evenodd; clip-rule:evenodd"
viewBox="0 0 20000 20000"
 xmlns:xlink="http://www.w3.org/1999/xlink">
 <defs>
  <style type="text/css">
   <![CDATA[
    .str0 {stroke:black;stroke-width:35.28}
    .fil0 {fill:none;fill-rule:nonzero}
   ]]>
  </style>
 </defs>
 <g id="Layer_x0020_1">
  <metadata id="CorelCorpID_0Corel-Layer"/>
  <g id="_2614249099168">
   <line class="fil0 str0" x1="12003" y1="7077" x2="11956" y2= "7077" />
   <path class="fil0 str0" d="M14941 7762c18,75 -47,143 -109,189 -749,563 -1847,481 -2582,1063 -26,21 -53,43 -68,73 -23,43 -19,94 -13,142 71,516 422,949 797,1311 442,427 937,798 1471,1102 -233,55 -489,1 -679,-143 -59,-44 -127,-100 -196,-77 -95,30 -91,166 -53,258 37,92 89,201 31,282 -407,-100 -352,-791 -732,-968l26 756c1,44 2,91 -20,129 -60,104 -235,54 -289,-53 -54,-107 -33,-234 -35,-354 -2,-223 -87,-436 -169,-643 -205,-513 -410,-1026 -615,-1538 -251,178 -503,356 -754,534 -86,60 -173,122 -237,206 -87,116 -122,263 -143,406 -71,496 4,1012 213,1467 89,193 206,381 378,506 264,192 669,262 758,576 -270,-329 -675,-544 -1099,-582 123,297 245,594 367,891 -189,46 -385,-92 -471,-268 -86,-175 -89,-378 -90,-573 -83,254 -166,508 -249,761 -110,20 -191,-117 -176,-228 16,-111 87,-206 125,-312 73,-206 12,-433 -42,-646 -160,-628 -250,-1273 -270,-1920 -640,294 -1206,746 -1635,1305 -65,86 -128,174 -190,262 -17,24 -35,52 -29,81 5,23 24,40 41,55 299,256 598,512 897,768 260,223 541,488 550,831 -257,-227 -513,-454 -769,-681 -84,153 5,338 66,502 61,164 66,397 -96,463 -216,-160 -165,-490 -251,-743 -128,-380 -566,-577 -725,-945 -180,-16 -307,198 -286,377 22,180 137,332 226,489 192,338 275,738 233,1124 -373,-321 -241,-1068 -699,-1247 7,282 14,564 21,847 -248,-146 -348,-498 -213,-752l-210 479c-170,-89 -162,-335 -107,-519 55,-184 130,-395 25,-555 -213,148 -480,215 -737,184 -612,143 -1260,129 -1865,-41 23,-1343 804,-2572 1773,-3503 221,-213 457,-418 618,-679 211,-343 276,-752 392,-1137 118,-396 293,-776 518,-1123 21,-33 46,-68 83,-81 92,-32 163,85 188,179 286,1100 -83,2344 -922,3110 -264,241 -569,436 -826,686 -257,249 -470,573 -478,931 528,-56 1044,-257 1450,-599 241,-205 440,-454 636,-702 370,-466 739,-931 1109,-1397 361,-455 757,-935 1313,-1104 524,-160 944,46 1450,128 382,62 733,-133 1108,-178 829,-100 1714,204 2266,838z"/>
   <path class="fil0 str0" d="M13325 7176c-34,-123 -193,-176 -314,-135 -121,42 -206,149 -271,260 -69,118 -123,255 -93,388 32,142 156,248 290,301 204,80 456,51 611,-104 154,-154 173,-437 15,-588 -88,-84 -218,-123 -286,-224"/>
   <path class="fil0 str0" d="M13432 6933c42,-263 315,-448 582,-451 62,0 126,8 184,33 161,70 238,258 255,432 14,139 -18,309 -147,362"/>
   <path class="fil0 str0" d="M12681 7669c-7,-37 29,-67 62,-84 221,-119 483,-160 730,-114 53,10 121,45 106,98 -7,27 -33,44 -57,56 -263,138 -587,155 -863,46"/>
   <path class="fil0 str0" d="M10975 7372c-178,83 -347,265 -292,453 16,55 48,102 82,147 78,104 166,204 281,265 225,121 535,51 687,-154 119,-160 159,-532 13,-697 -175,-198 -565,-111 -771,-14z"/>
   <path class="fil0 str0" d="M9160 8379c-6,36 -12,74 2,108 15,39 52,66 88,89 125,84 254,169 400,206 146,36 316,15 422,-93 62,-62 96,-146 128,-227 37,-93 74,-186 111,-280 116,-293 -192,-725 -515,-663 -373,71 -575,533 -636,860z"/>
   <path class="fil0 str0" d="M10605 8591c-78,20 -156,50 -216,104 -60,55 -96,131 -124,208 -50,138 -77,284 -78,431 0,55 4,113 34,159 36,53 100,79 162,94 317,78 667,-65 868,-323 426,-548 -140,-803 -646,-673z"/>
   <path class="fil0 str0" d="M8440 8912c-211,162 -304,444 -298,710 1,57 8,117 46,158 33,36 82,50 130,60 129,27 261,40 393,37 57,-2 117,-7 165,-38 48,-31 77,-83 105,-134 116,-213 456,-587 241,-804 -163,-165 -625,-146 -782,11z"/>
   <path class="fil0 str0" d="M9748 9381c-3,-27 -6,-54 -9,-81 -104,30 -211,61 -296,128 -85,67 -144,178 -118,283 32,133 180,201 315,226 100,18 231,6 265,-90 15,-44 4,-93 -7,-138 -28,-109 -55,-219 -83,-329 -6,-26 -15,-54 -38,-68 -22,-14 -61,2 -56,28"/>
   <path class="fil0 str0" d="M7731 10554c-41,71 -74,155 -51,234 31,111 154,164 263,202 111,40 229,80 344,54 94,-20 174,-83 249,-144 220,-180 654,-749 182,-860 -367,-86 -814,213 -987,514z"/>
   <path class="fil0 str0" d="M6822 10945c-25,42 -51,87 -46,135 10,114 165,145 279,125 191,-34 243,-112 294,-279 24,-81 74,-342 30,-417 -205,-352 -478,304 -557,436z"/>
   <path class="fil0 str0" d="M7088 11514c-17,13 -33,27 -40,46 -11,29 2,60 18,86 129,213 442,259 662,142 180,-96 373,-386 134,-520 -211,-119 -618,123 -774,246z"/>
   <path class="fil0 str0" d="M5694 11313c-63,112 -113,242 -81,367 25,99 99,178 180,240 165,126 385,194 584,136 199,-57 359,-262 325,-466 -34,-207 -99,-762 -351,-829 -254,-68 -555,370 -657,552z"/>
   <path class="fil0 str0" d="M4410 11926c8,134 112,250 237,300 125,50 267,44 398,13 83,-20 167,-51 223,-116 184,-212 -73,-630 -301,-704 -267,-87 -573,244 -557,507z"/>
   <path class="fil0 str0" d="M5298 10411c-25,-30 -73,-27 -111,-14 -123,41 -219,154 -239,283 -21,128 36,265 140,342 73,54 172,79 259,49 86,-30 151,-121 139,-211 -24,-165 -262,-232 -285,-397"/>
   <path class="fil0 str0" d="M5705 9685c-37,-14 -51,-61 -41,-99 9,-38 36,-69 62,-98 127,-142 256,-286 418,-386 28,-17 60,-33 92,-24 29,8 48,36 60,65 63,152 -28,324 -136,449 -122,139 -269,256 -433,342 -17,9 -38,18 -56,11 -14,-6 -23,-21 -29,-35 -45,-107 -1,-244 97,-305"/>
   <path class="fil0 str0" d="M7135 8226c-136,-12 -264,72 -357,173 -91,99 -162,229 -148,362 14,134 142,259 273,231 71,-15 128,-69 170,-128 64,-88 106,-197 93,-304 -13,-108 -91,-212 -197,-233"/>
   <path class="fil0 str0" d="M7508 7084c-96,-38 -211,-2 -287,68 -75,71 -117,171 -142,271 -18,73 -28,151 0,220 48,119 187,169 313,195 69,15 144,26 206,-7 89,-47 114,-161 130,-261 27,-180 36,-404 -118,-501"/>
   <path class="fil0 str0" d="M14879 7838c9,-30 -31,-51 -62,-54 -325,-41 -598,224 -897,358 -168,76 -351,110 -532,144 -462,86 -925,173 -1387,259"/>
  </g>
 </g>
</svg>
