<?xml version="1.0" encoding="UTF-8"?>
<!DOCTYPE svg PUBLIC "-//W3C//DTD SVG 1.1//EN" "http://www.w3.org/Graphics/SVG/1.1/DTD/svg11.dtd">
<!-- Creator: CorelDRAW X8 -->
<svg xmlns="http://www.w3.org/2000/svg" xml:space="preserve" width="20cm" height="20cm" version="1.1" style="shape-rendering:geometricPrecision; text-rendering:geometricPrecision; image-rendering:optimizeQuality; fill-rule:evenodd; clip-rule:evenodd"
viewBox="0 0 20000 20000"
 xmlns:xlink="http://www.w3.org/1999/xlink">
 <defs>
  <style type="text/css">
   <![CDATA[
    .str0 {stroke:black;stroke-width:35.28}
    .fil0 {fill:none;fill-rule:nonzero}
   ]]>
  </style>
 </defs>
 <g id="Layer_x0020_1">
  <metadata id="CorelCorpID_0Corel-Layer"/>
  <g id="_2614249104480">
   <path class="fil0 str0" d="M14422 7427c100,-153 64,-384 -87,-487 -150,-104 -391,-44 -463,124 -35,83 -47,197 -134,221 -33,9 -68,0 -101,-8l-814 -213c-254,-66 -527,-144 -686,-353 -82,154 -164,308 -246,463 -84,-79 -168,-158 -251,-236 -90,113 -141,256 -145,400 -246,57 -428,-377 -661,-281 -159,66 -146,318 -290,413 -139,92 -319,-18 -448,-123 -67,79 -104,181 -104,284 -125,-64 -250,-128 -375,-192 -44,76 -61,167 -45,254 -103,-47 -205,-93 -308,-139 -64,75 -108,168 -124,266 -182,-143 -500,-11 -527,218 -168,-175 -489,125 -693,-6 -155,-101 -122,-385 -296,-450 -108,21 -129,165 -132,276 -4,110 -52,255 -163,246 -64,-5 -111,-65 -174,-77 -58,-11 -115,21 -165,54 -377,244 -703,565 -952,938 -122,-132 -340,-65 -499,17 -731,374 -1398,873 -1964,1469 -39,41 -80,99 -54,149 24,47 88,52 140,44 345,-48 602,-330 904,-503 374,-213 840,-255 1246,-112 281,99 526,278 794,410 379,186 799,272 1217,334 523,76 1058,116 1576,13 265,-52 539,-154 699,-372 125,-170 164,-387 257,-577 94,-189 290,-364 495,-313 -29,204 -56,419 20,611 76,191 294,343 487,270 89,168 -25,371 -149,514 -125,143 -275,296 -266,486 3,88 43,174 31,261 -9,68 -47,127 -88,182 -212,283 -530,528 -558,880 449,-270 804,-695 988,-1186 126,217 -38,481 -181,687 -143,207 -261,513 -77,684 241,-357 402,-769 466,-1195 24,225 47,449 70,674 7,68 16,140 61,193 44,52 136,68 178,14 28,-39 21,-92 12,-139 -55,-283 -109,-566 -164,-849 183,237 413,498 712,487 -190,-269 -380,-538 -570,-806 -58,-82 -119,-173 -113,-273 5,-73 45,-138 71,-207 116,-312 -71,-648 -251,-928 429,43 861,65 1292,65 330,1 665,-12 977,-121 311,-108 599,-325 721,-632 76,134 215,217 329,322 291,266 413,703 302,1082 129,-68 186,-229 175,-374 -12,-146 -79,-280 -145,-410 132,153 317,260 516,296 -81,-201 -238,-371 -432,-468 210,25 419,50 629,75 -188,-178 -451,-248 -687,-354 -237,-107 -476,-288 -505,-545 227,-126 443,-295 553,-530 280,-600 -293,-969 -831,-917z"/>
   <path class="fil0 str0" d="M13628 7732c-51,135 -99,287 -47,422 64,166 265,246 441,223 88,-12 176,-47 231,-115 66,-81 76,-192 75,-295 -3,-198 -68,-555 -304,-620 -235,-65 -327,202 -396,385z"/>
   <path class="fil0 str0" d="M14037 7745c6,-23 3,-48 -8,-69 -100,37 -179,126 -203,229 -13,52 -12,109 15,155 28,45 85,74 135,58 99,-96 84,-281 -28,-359"/>
   <path class="fil0 str0" d="M15260 8258c19,-8 4,-41 -17,-41 -20,0 -36,17 -50,33 -253,287 -656,380 -1031,457 -495,102 -991,204 -1487,306"/>
  </g>
 </g>
</svg>
