<?xml version="1.0" encoding="UTF-8"?>
<!DOCTYPE svg PUBLIC "-//W3C//DTD SVG 1.1//EN" "http://www.w3.org/Graphics/SVG/1.1/DTD/svg11.dtd">
<!-- Creator: CorelDRAW X8 -->
<svg xmlns="http://www.w3.org/2000/svg" xml:space="preserve" width="500px" height="500px" version="1.1" style="shape-rendering:geometricPrecision; text-rendering:geometricPrecision; image-rendering:optimizeQuality; fill-rule:evenodd; clip-rule:evenodd"
viewBox="0 0 500 500"
 xmlns:xlink="http://www.w3.org/1999/xlink">
 <defs>
  <style type="text/css">
   <![CDATA[
    .str0 {stroke:black;stroke-width:0.750048}
    .fil0 {fill:none}
   ]]>
  </style>
 </defs>
 <g id="Layer_x0020_1">
  <metadata id="CorelCorpID_0Corel-Layer"/>
  <path class="fil0 str0" d="M179 132c-4,5 -5,12 -4,19 -7,-1 -17,3 -22,9 11,-6 20,-8 23,-8 4,5 10,8 16,9 1,31 6,69 36,87 14,10 35,7 49,-2 14,-8 25,-21 31,-36 2,-7 5,-10 11,-9 15,4 31,-2 38,-7 -8,-1 -37,5 -37,2 8,-3 14,1 33,-9 -17,-4 -32,4 -33,3 2,-3 18,-6 24,-12 -24,0 -29,10 -36,9 -5,0 -7,-1 -12,-9 -21,-21 -52,-31 -81,-25 -6,1 -6,-2 -6,-7 -2,-13 -19,-28 -30,-14l0 0z"/>
  <path class="fil0 str0" d="M188 137c-5,2 -6,9 -1,12 3,2 7,0 8,-3 0,-4 -2,-9 -6,-9"/>
  <path class="fil0 str0" d="M200 145c7,6 6,72 41,86 13,7 36,4 47,-5 5,-5 10,-12 10,-18"/>
  <path class="fil0 str0" d="M248 255c0,4 3,9 6,13 2,1 2,2 0,6 -3,7 -4,16 -5,25 -1,8 1,17 -3,25 -7,-2 -14,-1 -21,1"/>
  <path class="fil0 str0" d="M239 319c0,0 -9,-3 -15,-4"/>
  <path class="fil0 str0" d="M258 254c2,2 3,3 5,4 2,1 4,3 6,5 2,3 3,7 5,11 7,15 12,32 16,49 -3,2 -7,4 -10,8"/>
  <path class="fil0 str0" d="M283 320c-8,-1 -16,-1 -23,2"/>
 </g>
</svg>
