<?xml version="1.0" encoding="UTF-8"?>
<!DOCTYPE svg PUBLIC "-//W3C//DTD SVG 1.1//EN" "http://www.w3.org/Graphics/SVG/1.1/DTD/svg11.dtd">
<!-- Creator: CorelDRAW X8 -->
<svg xmlns="http://www.w3.org/2000/svg" xml:space="preserve" width="500px" height="500px" version="1.1" style="shape-rendering:geometricPrecision; text-rendering:geometricPrecision; image-rendering:optimizeQuality; fill-rule:evenodd; clip-rule:evenodd"
viewBox="0 0 500 500"
 xmlns:xlink="http://www.w3.org/1999/xlink">
 <defs>
  <style type="text/css">
   <![CDATA[
    .str0 {stroke:black;stroke-width:1.00006}
    .fil0 {fill:none;fill-rule:nonzero}
   ]]>
  </style>
 </defs>
 <g id="Layer_x0020_1">
  <metadata id="CorelCorpID_0Corel-Layer"/>
  <path class="fil0 str0" d="M150 136c-13,0 -34,12 -33,13 0,2 19,-8 28,-7 12,1 33,8 27,30 -6,22 -6,47 9,65 11,13 28,20 45,23 22,3 45,0 67,-5 23,-6 48,-16 57,-40 12,-32 28,-12 40,-35 -24,4 -37,15 -39,13 -1,-2 21,-10 34,-25l-38 17c-1,-3 27,-22 25,-25 -17,3 -30,23 -48,22 -10,0 -19,-8 -29,-14 -28,-16 -64,-11 -96,-16 0,-8 0,-16 -2,-24 -9,-40 -56,-23 -47,8z"/>
  <path class="fil0 str0" d="M175 116c-5,-1 -10,1 -12,5 -7,8 3,19 11,12 4,-3 5,-11 1,-14"/>
  <path class="fil0 str0" d="M249 263c2,9 3,18 4,27 1,8 1,16 1,24 1,22 1,43 2,65 -18,0 -34,4 -49,11"/>
  <path class="fil0 str0" d="M244 377c-9,-2 -18,-3 -27,-3"/>
  <path class="fil0 str0" d="M264 262c15,6 24,12 22,21 -8,26 -13,60 -13,89 -15,-3 -21,-12 -36,-12"/>
  <path class="fil0 str0" d="M271 377c-5,3 -10,8 -14,12"/>
 </g>
</svg>
