<?xml version="1.0" encoding="UTF-8"?>
<!DOCTYPE svg PUBLIC "-//W3C//DTD SVG 1.1//EN" "http://www.w3.org/Graphics/SVG/1.1/DTD/svg11.dtd">
<!-- Creator: CorelDRAW X8 -->
<svg xmlns="http://www.w3.org/2000/svg" xml:space="preserve" width="500px" height="500px" version="1.1" style="shape-rendering:geometricPrecision; text-rendering:geometricPrecision; image-rendering:optimizeQuality; fill-rule:evenodd; clip-rule:evenodd"
viewBox="0 0 500 500"
 xmlns:xlink="http://www.w3.org/1999/xlink">
 <defs>
  <style type="text/css">
   <![CDATA[
    .str0 {stroke:black;stroke-width:1.00006}
    .fil0 {fill:none;fill-rule:nonzero}
   ]]>
  </style>
 </defs>
 <g id="Layer_x0020_1">
  <metadata id="CorelCorpID_0Corel-Layer"/>
  <g id="_2779124107648">
   <path class="fil0 str0" d="M236 80c-6,-5 -16,-5 -22,-1 -7,5 -11,13 -9,21 -32,6 -62,19 -88,39 -4,4 -8,7 -10,13 -4,8 1,18 -1,27"/>
   <path class="fil0 str0" d="M209 108c4,6 11,9 18,8 1,0 3,0 4,1 1,0 2,2 2,4 1,12 -1,25 -6,36 -4,9 -10,17 -15,26 -4,9 -6,20 -8,31 -3,23 -3,49 8,70 5,8 10,16 19,19 5,2 11,3 16,3 10,0 21,1 31,1 17,0 35,-1 51,-9 14,-6 26,-18 41,-24 21,-10 46,-8 69,-15 4,-1 8,-5 6,-8 -18,-2 -37,-3 -55,-4 -6,-1 -13,-1 -19,-4 -6,-3 -10,-8 -15,-12 -17,-16 -38,-28 -60,-35 -13,-4 -26,-7 -38,-12 -4,-1 -8,-3 -11,-7 -3,-4 -2,-10 -1,-16l6 -46c0,-6 1,-12 0,-17 -1,-5 -5,-11 -10,-13"/>
   <path class="fil0 str0" d="M288 311c8,7 11,19 11,30 1,10 -1,21 -1,32 -2,19 -1,39 0,58 -9,3 -18,7 -27,12"/>
   <path class="fil0 str0" d="M297 437c-5,1 -9,5 -11,10"/>
   <path class="fil0 str0" d="M306 310c7,6 15,13 23,19 7,6 15,13 17,23 3,29 7,58 11,86 1,-2 -3,-3 -6,-2 -4,3 -9,5 -14,7"/>
   <path class="fil0 str0" d="M223 88c0,-1 -1,-2 -2,-1 -3,2 -7,6 -5,10 2,2 6,2 8,-1 2,-2 0,-6 -2,-7"/>
   <path class="fil0 str0" d="M227 177c1,26 3,52 15,75 12,23 36,41 62,38"/>
  </g>
 </g>
</svg>
