<?xml version="1.0" encoding="UTF-8"?>
<!DOCTYPE svg PUBLIC "-//W3C//DTD SVG 1.1//EN" "http://www.w3.org/Graphics/SVG/1.1/DTD/svg11.dtd">
<!-- Creator: CorelDRAW X8 -->
<svg xmlns="http://www.w3.org/2000/svg" xml:space="preserve" width="500px" height="500px" version="1.1" style="shape-rendering:geometricPrecision; text-rendering:geometricPrecision; image-rendering:optimizeQuality; fill-rule:evenodd; clip-rule:evenodd"
viewBox="0 0 500 500"
 xmlns:xlink="http://www.w3.org/1999/xlink">
 <defs>
  <style type="text/css">
   <![CDATA[
    .str0 {stroke:black;stroke-width:1.00006}
    .fil0 {fill:none;fill-rule:nonzero}
   ]]>
  </style>
 </defs>
 <g id="Layer_x0020_1">
  <metadata id="CorelCorpID_0Corel-Layer"/>
  <path class="fil0 str0" d="M183 83c-20,4 -39,13 -57,21 -28,13 -58,28 -73,55 24,-17 109,-74 139,-65 6,2 13,7 20,4 -2,7 -4,13 -7,20 -18,45 -72,110 -33,159 31,40 106,47 147,20 18,-13 20,-16 44,-17 34,-1 68,1 102,0 -17,-11 -33,-16 -57,-17 0,1 33,-2 50,-6 -13,-4 -27,-5 -40,-9 -27,-7 -51,-20 -76,-32 -9,-5 -9,-7 -14,-15 -19,-34 -67,-29 -99,-36 -17,-4 -20,-12 -12,-25 9,-14 15,-30 17,-46 6,-47 -47,-57 -51,-11z"/>
  <path class="fil0 str0" d="M248 316c8,7 12,16 13,25 0,7 -1,15 -2,22 -3,25 2,52 -4,77 0,2 0,4 -2,5 -1,2 -3,3 -4,3l-25 12"/>
  <path class="fil0 str0" d="M252 456c-1,-1 -3,0 -4,1 -4,4 -9,9 -14,13"/>
  <path class="fil0 str0" d="M245 440c-8,-1 -17,-1 -25,-1"/>
  <path class="fil0 str0" d="M274 312c5,5 11,10 16,16 4,3 7,7 9,11 1,4 0,8 -1,12 -4,24 -9,47 -13,71 -1,4 -2,9 -4,13 -3,4 -8,7 -14,8"/>
  <path class="fil0 str0" d="M195 69c-1,3 -1,9 1,11 2,2 10,1 12,0 8,-5 0,-19 -11,-14"/>
 </g>
</svg>
