<?xml version="1.0" encoding="UTF-8"?>
<!DOCTYPE svg PUBLIC "-//W3C//DTD SVG 1.1//EN" "http://www.w3.org/Graphics/SVG/1.1/DTD/svg11.dtd">
<!-- Creator: CorelDRAW X8 -->
<svg xmlns="http://www.w3.org/2000/svg" xml:space="preserve" width="500px" height="500px" version="1.1" style="shape-rendering:geometricPrecision; text-rendering:geometricPrecision; image-rendering:optimizeQuality; fill-rule:evenodd; clip-rule:evenodd"
viewBox="0 0 500 500"
 xmlns:xlink="http://www.w3.org/1999/xlink">
 <defs>
  <style type="text/css">
   <![CDATA[
    .str0 {stroke:black;stroke-width:0.750048}
    .fil0 {fill:none}
   ]]>
  </style>
 </defs>
 <g id="Layer_x0020_1">
  <metadata id="CorelCorpID_0Corel-Layer"/>
  <path class="fil0 str0" d="M213 42c-10,-1 -19,9 -23,17 -8,18 3,29 22,26 11,0 19,-10 19,-20 2,-11 -13,-25 -18,-23z"/>
  <path class="fil0 str0" d="M204 60c-5,4 -12,18 0,16 5,-1 9,-4 10,-8 1,-5 -2,-10 -6,-10"/>
  <path class="fil0 str0" d="M188 61c-24,14 -22,25 -24,25 -3,-11 -27,16 -26,16 0,3 13,-5 28,-9 0,3 -8,5 -16,19 12,-3 26,-24 39,-14 0,9 6,17 13,21 10,4 29,12 11,20 -36,16 -50,50 -48,87 2,48 25,128 75,146 14,5 47,4 62,-1 16,-5 28,-19 32,-35 6,6 5,16 3,25 -2,12 -5,25 -8,39 -12,52 -31,24 -45,27 -6,1 -8,10 -4,16 9,13 51,13 63,4 10,-8 4,-19 5,-20 18,25 41,7 40,-30 0,-6 -2,-9 -8,-4 -48,33 -22,-31 -24,-49 -1,-7 -5,-12 -4,-18 1,-15 7,-23 7,-46 0,-16 -1,-33 -8,-49 -14,-34 -76,-69 -109,-92 -7,-4 -7,-8 -5,-16 4,-15 9,-60 -6,-70"/>
  <path class="fil0 str0" d="M229 144c-28,31 -56,47 -40,92 20,54 43,73 98,95 8,3 17,6 27,5"/>
  <path class="fil0 str0" d="M179 237c12,52 48,153 122,120"/>
  <path class="fil0 str0" d="M225 371c6,8 9,19 13,28 -10,-4 -35,10 -44,16 16,4 31,-10 45,-4 -7,4 -13,10 -18,16 12,-5 23,-12 31,-15 0,6 7,10 10,9 -2,-7 -8,-16 -15,-19 -9,-6 -5,-13 -8,-24"/>
 </g>
</svg>
