<?xml version="1.0" encoding="UTF-8"?>
<!DOCTYPE svg PUBLIC "-//W3C//DTD SVG 1.1//EN" "http://www.w3.org/Graphics/SVG/1.1/DTD/svg11.dtd">
<!-- Creator: CorelDRAW X8 -->
<svg xmlns="http://www.w3.org/2000/svg" xml:space="preserve" width="500px" height="500px" version="1.1" style="shape-rendering:geometricPrecision; text-rendering:geometricPrecision; image-rendering:optimizeQuality; fill-rule:evenodd; clip-rule:evenodd"
viewBox="0 0 500 500"
 xmlns:xlink="http://www.w3.org/1999/xlink">
 <defs>
  <style type="text/css">
   <![CDATA[
    .str0 {stroke:black;stroke-width:0.750048}
    .fil0 {fill:none}
   ]]>
  </style>
 </defs>
 <g id="Layer_x0020_1">
  <metadata id="CorelCorpID_0Corel-Layer"/>
  <path class="fil0 str0" d="M218 41c-9,-1 -19,9 -23,17 -3,7 -7,18 3,22 6,3 12,5 18,4 11,0 19,-10 19,-20 1,-7 -10,-23 -17,-23l0 0z"/>
  <path class="fil0 str0" d="M209 59c-2,2 -3,4 -5,7 -3,5 -2,10 5,9 4,-1 8,-4 9,-8 1,-5 -2,-10 -6,-10"/>
  <path class="fil0 str0" d="M193 60c-23,17 -21,27 -23,27 -3,-10 -24,12 -26,14 9,-3 18,-6 27,-9 -6,5 -11,11 -15,18 11,-3 25,-23 38,-14 0,9 6,17 13,21 9,4 28,12 10,20 -35,15 -49,49 -47,85 2,47 25,124 74,142 14,5 46,4 60,-1 15,-5 27,-19 31,-34 6,5 5,15 3,24 -2,12 -5,25 -8,38 -12,51 -29,24 -43,27 -6,1 -8,10 -4,15 9,13 49,13 61,4 10,-7 4,-18 5,-19 17,24 40,6 39,-30 0,-6 -2,-8 -8,-4 -47,33 -22,-30 -24,-48 -1,-6 -4,-11 -3,-17 1,-15 6,-22 6,-44 0,-16 -1,-33 -7,-48 -14,-34 -74,-68 -106,-90 -7,-4 -7,-8 -5,-16 4,-15 9,-59 -6,-69"/>
  <path class="fil0 str0" d="M233 141c-27,31 -55,47 -39,91 19,53 42,70 96,92 8,3 16,6 25,5"/>
  <path class="fil0 str0" d="M184 233c12,51 47,148 120,116"/>
  <path class="fil0 str0" d="M229 363c6,8 9,18 13,27 -10,-4 -34,10 -43,16 15,4 30,-10 44,-4 -7,4 -13,10 -18,16 11,-5 22,-12 30,-14 0,5 7,9 10,8 -2,-7 -8,-16 -14,-19 -10,-6 -6,-13 -8,-23"/>
 </g>
</svg>
