<?xml version="1.0" encoding="UTF-8"?>
<!DOCTYPE svg PUBLIC "-//W3C//DTD SVG 1.1//EN" "http://www.w3.org/Graphics/SVG/1.1/DTD/svg11.dtd">
<!-- Creator: CorelDRAW X8 -->
<svg xmlns="http://www.w3.org/2000/svg" xml:space="preserve" width="500px" height="500px" version="1.1" style="shape-rendering:geometricPrecision; text-rendering:geometricPrecision; image-rendering:optimizeQuality; fill-rule:evenodd; clip-rule:evenodd"
viewBox="0 0 500 500"
 xmlns:xlink="http://www.w3.org/1999/xlink">
 <defs>
  <style type="text/css">
   <![CDATA[
    .str0 {stroke:black;stroke-width:0.750048}
    .fil0 {fill:none}
   ]]>
  </style>
 </defs>
 <g id="Layer_x0020_1">
  <metadata id="CorelCorpID_0Corel-Layer"/>
  <path class="fil0 str0" d="M133 81c-7,1 -16,10 -15,12 2,1 13,-8 23,-9 0,2 -13,8 -16,14 7,1 12,-8 19,-7 3,0 31,21 33,27 4,9 -7,16 -14,22 -34,28 -27,77 -20,115 4,23 9,73 17,91 15,39 142,45 146,-17 23,3 24,62 19,79 -5,17 -21,32 -38,30 -2,4 5,8 10,9 22,3 68,4 62,-30 37,21 84,2 96,-38 -22,-7 -44,8 -66,10 -6,1 -9,0 -12,-6 -11,-19 -14,-42 -26,-59 -3,-5 -6,-9 -7,-14 -7,-12 -5,-26 -5,-40 2,-67 -29,-111 -98,-121 -37,-5 -44,-14 -39,-53 2,-15 3,-33 -8,-42 -8,4 -5,21 -23,24 -7,1 -15,-3 -17,-10 -3,-18 18,-19 21,-23 -18,-2 -37,13 -42,36z"/>
  <path class="fil0 str0" d="M174 61c-14,-2 -9,12 -3,11 13,-3 12,-19 1,-13"/>
  <path class="fil0 str0" d="M205 373c-3,7 -6,13 -8,19 -19,-1 -39,6 -51,22 14,-1 26,-14 40,-16 6,-1 10,2 10,8 1,7 -1,14 0,24 0,7 7,7 10,2 3,-5 0,-22 0,-29 8,6 15,13 23,19 9,8 17,2 5,-9 -11,-10 -12,-24 -13,-39"/>
 </g>
</svg>
