<?xml version="1.0" encoding="UTF-8"?>
<!DOCTYPE svg PUBLIC "-//W3C//DTD SVG 1.1//EN" "http://www.w3.org/Graphics/SVG/1.1/DTD/svg11.dtd">
<!-- Creator: CorelDRAW X8 -->
<svg xmlns="http://www.w3.org/2000/svg" xml:space="preserve" width="500px" height="500px" version="1.1" style="shape-rendering:geometricPrecision; text-rendering:geometricPrecision; image-rendering:optimizeQuality; fill-rule:evenodd; clip-rule:evenodd"
viewBox="0 0 500 500"
 xmlns:xlink="http://www.w3.org/1999/xlink">
 <defs>
  <style type="text/css">
   <![CDATA[
    .str0 {stroke:black;stroke-width:0.750048}
    .fil0 {fill:none}
   ]]>
  </style>
 </defs>
 <g id="Layer_x0020_1">
  <metadata id="CorelCorpID_0Corel-Layer"/>
  <path class="fil0 str0" d="M416 94c-3,-15 -23,-21 -37,-15 -15,6 -25,19 -34,32 -10,14 -4,18 10,26 19,9 34,38 3,42 -29,3 -43,-16 -82,7 -7,-27 -19,-94 -32,-116 -10,-16 -22,-21 -39,-20 -62,3 -124,6 -186,8 0,4 3,7 6,8 10,3 46,-3 73,3 -19,2 -48,11 -67,23 21,6 88,-14 94,-9 -1,3 -29,8 -70,28 -18,7 -16,20 7,11 16,-4 52,-20 52,-18 1,3 -23,9 -59,33 -7,6 -4,12 6,9 11,-1 44,-16 44,-13 2,3 -22,8 -50,38 28,-7 57,-9 85,-7 8,0 10,2 16,8 20,27 38,57 50,88 -21,1 -42,5 -61,13 14,0 28,0 43,-1 -6,5 -13,10 -19,14 9,-1 18,-2 27,-4 0,3 0,5 0,8 23,-1 47,-4 70,-6 5,11 -11,18 -19,22 -50,20 -28,60 -56,100"/>
  <path class="fil0 str0" d="M314 274c-5,11 -11,23 -19,33 -11,16 -27,29 -30,49 -1,2 -1,4 -3,6 -1,1 -4,2 -6,3 -8,4 -11,13 -13,21 -4,13 -8,26 -12,40"/>
  <path class="fil0 str0" d="M321 289c13,-8 30,-10 42,-20 8,-7 13,-16 18,-25 8,-16 14,-34 11,-52 -1,-5 -3,-12 -1,-18 0,-3 2,-6 3,-8 5,-15 -8,-30 -23,-37 -3,-2 -6,-3 -7,-6 -5,-6 -1,-14 4,-18 7,-3 15,-3 21,-2 3,6 11,8 18,8 6,0 12,-3 19,-4 17,-2 35,8 51,5 -9,-5 -21,-5 -32,-6 -9,-1 -19,-3 -29,-6"/>
  <path class="fil0 str0" d="M407 91c-2,-6 -12,-2 -9,4 3,6 12,7 15,1 0,-3 -1,-5 -4,-6"/>
 </g>
</svg>
