<?xml version="1.0" encoding="utf-8"?>
<!-- Generator: Adobe Illustrator 19.0.0, SVG Export Plug-In . SVG Version: 6.00 Build 0)  -->
<svg version="1.1" id="Layer_1" xmlns="http://www.w3.org/2000/svg" xmlns:xlink="http://www.w3.org/1999/xlink" x="0px" y="0px"
	 viewBox="-55 147 500 500" style="enable-background:new -55 147 500 500;" xml:space="preserve">
<style type="text/css">
	.st0{fill:none;stroke:#000000;stroke-width:1.0001;}
</style>
<g id="Layer_x0020_1">
	<path class="st0" d="M302,158c-10-7-25-4-37,0"/>
	<path class="st0" d="M263,159c-11,5-15,18-14,30c2,22,23,43,18,66c-4,18-31,39-45,51c-27,25-28,19-59,27c-32,8-53,38-66,68
		c-14,29-23,19-36,38c-16,25-23,55-21,84c2-11,9-22,20-29c2,18,2,37-1,54c9-27,18-54,32-80c-1,17-2,33-2,50c-1,5,1,12,6,12
		c2-3,27-50,31-36c1-7,2-12,3-19c20,5,42,2,64,0c11-2,23-3,33-9c15-9,23-27,30-43c12-29,43-107,42-138c0-28-19-51-26-78
		c-3-13,6-16,17-19c7.4-1.9,14.8-7.1,14.3-13.5c-0.1-0.9,0.6-1.6,1.5-1.6c18.3-0.7,62.8,1.7,48.4-0.1c1.1,0.1-35.2-2.8-51.2-8.8"/>
	<path class="st0" d="M224,466c-12,51-25,102-38,153"/>
	<path class="st0" d="M202,466c-11,20-27,36-42,53c-7,7-7,11-5,21c4,22,7,44,8,66"/>
	<path class="st0" d="M185,618c20-1,40-4,60-7"/>
	<path class="st0" d="M185,620c9,6,18,12,27,17"/>
	<path class="st0" d="M164,607c6-2,12-4,17-6"/>
	<path class="st0" d="M290,162c-4.1-1-11,2-15,6s-1,8,4,9c4,1,8,0,12-2c1.5-0.8,1.9-1.5,1.5-2.7c-0.2-0.8-0.8-1.6-1.4-2.2
		c-1.9-1.7-4.5-3.3-7.1-4.2"/>
</g>
</svg>
