<?xml version="1.0" encoding="UTF-8"?>
<!DOCTYPE svg PUBLIC "-//W3C//DTD SVG 1.1//EN" "http://www.w3.org/Graphics/SVG/1.1/DTD/svg11.dtd">
<!-- Creator: CorelDRAW X8 -->
<svg xmlns="http://www.w3.org/2000/svg" xml:space="preserve" width="500px" height="500px" version="1.1" style="shape-rendering:geometricPrecision; text-rendering:geometricPrecision; image-rendering:optimizeQuality; fill-rule:evenodd; clip-rule:evenodd"
viewBox="0 0 500 500"
 xmlns:xlink="http://www.w3.org/1999/xlink">
 <defs>
  <style type="text/css">
   <![CDATA[
    .str0 {stroke:black;stroke-width:1.00006}
    .fil0 {fill:none;fill-rule:nonzero}
   ]]>
  </style>
 </defs>
 <g id="Layer_x0020_1">
  <metadata id="CorelCorpID_0Corel-Layer"/>
  <path class="fil0 str0" d="M167 116c-7,5 -12,13 -14,22 -18,8 -35,18 -50,30 13,-8 26,-14 40,-19 12,-4 27,-7 37,1 6,5 9,14 7,22 -1,5 -4,10 -7,15 -4,5 -7,10 -8,16 -6,20 3,41 17,54 15,14 35,20 55,22 14,1 29,0 43,-5 11,-3 21,-9 32,-15 12,-7 14,-10 23,-19 7,-7 16,-11 25,-16l26 -13c-14,-1 -28,0 -42,3 13,-6 25,-13 35,-22 -9,0 -18,3 -28,4 -26,4 -53,1 -77,-10 -15,-6 -29,-15 -45,-20 -10,-2 -20,-3 -31,-2 -3,0 -4,-1 -5,-3 -3,-9 -5,-19 -4,-29 0,-7 2,-16 -5,-20 -7,-3 -18,0 -24,4z"/>
  <path class="fil0 str0" d="M248 281c2,5 7,9 9,13 4,7 4,15 4,22 0,17 2,34 6,51 -10,3 -20,7 -30,12"/>
  <line class="fil0 str0" x1="255" y1="366" x2="230" y2= "367" />
  <path class="fil0 str0" d="M257 281c5,3 9,6 13,10 3,3 4,5 4,10 3,25 13,49 28,69 -11,4 -22,9 -32,14"/>
  <path class="fil0 str0" d="M292 367c-6,0 -13,0 -20,1"/>
  <path class="fil0 str0" d="M172 127c-2,-1 -4,-1 -6,0 -1,0 -3,2 -2,4 0,4 4,6 8,7 2,0 3,1 5,0 2,-1 4,-2 4,-4 0,-2 -1,-4 -3,-6 -3,-1 -6,-3 -9,-3"/>
  <path class="fil0 str0" d="M192 182c-2,1 -2,2 -1,3 4,4 29,14 35,11 0,0 -10,-20 -13,-22 -7,-3 -17,4 -21,8z"/>
  <path class="fil0 str0" d="M185 218c1,5 13,12 17,16 8,6 14,2 13,-8 0,-11 -5,-16 -15,-21 -9,-5 -15,8 -15,13z"/>
  <path class="fil0 str0" d="M265 221c15,3 15,-12 5,-22 -4,-4 -29,-25 -33,-11 -4,11 19,30 28,33z"/>
  <path class="fil0 str0" d="M235 245c2,2 4,4 6,3 4,0 0,-27 -6,-27 -12,-1 -3,21 0,24z"/>
  <path class="fil0 str0" d="M299 202c0,-1 1,-1 1,-2 -2,0 -4,-1 -7,-1 -9,-1 -13,7 -4,12 6,3 13,5 20,5 7,0 9,-5 3,-9 -4,-4 -9,-6 -14,-8"/>
  <path class="fil0 str0" d="M282 229c-2,1 -4,1 -5,3 0,2 1,3 2,4 3,3 7,4 11,4 7,1 14,1 21,1 10,-1 9,-10 1,-12 -9,-3 -21,-1 -30,0z"/>
  <path class="fil0 str0" d="M250 242c-1,5 0,12 4,15 3,3 8,3 12,3 4,0 10,0 10,-5 1,-2 0,-3 -1,-5 -3,-6 -8,-13 -14,-18 -9,-7 -10,1 -11,10z"/>
  <path class="fil0 str0" d="M213 260c6,2 13,4 19,5 14,3 -5,-24 -14,-24 -10,0 -26,11 -5,19z"/>
  <path class="fil0 str0" d="M332 210c-1,-1 -15,9 -15,13 -1,3 3,5 5,6 3,2 7,4 10,3 6,-2 8,-9 5,-14 -2,-5 -7,-7 -13,-8"/>
 </g>
</svg>
