<?xml version="1.0" encoding="UTF-8"?>
<!DOCTYPE svg PUBLIC "-//W3C//DTD SVG 1.1//EN" "http://www.w3.org/Graphics/SVG/1.1/DTD/svg11.dtd">
<!-- Creator: CorelDRAW X8 -->
<svg xmlns="http://www.w3.org/2000/svg" xml:space="preserve" width="500px" height="500px" version="1.1" style="shape-rendering:geometricPrecision; text-rendering:geometricPrecision; image-rendering:optimizeQuality; fill-rule:evenodd; clip-rule:evenodd"
viewBox="0 0 500 500"
 xmlns:xlink="http://www.w3.org/1999/xlink">
 <defs>
  <style type="text/css">
   <![CDATA[
    .str0 {stroke:black;stroke-width:0.750048}
    .fil0 {fill:none}
   ]]>
  </style>
 </defs>
 <g id="Layer_x0020_1">
  <metadata id="CorelCorpID_0Corel-Layer"/>
  <path class="fil0 str0" d="M285 103c13,2 16,18 15,30 22,7 43,19 60,35 -4,1 -40,-21 -59,-24 -6,-3 -32,11 -38,14 -2,1 -2,2 0,4 9,9 25,11 33,22 10,11 11,40 6,54 -6,16 -22,26 -38,32 -16,6 -33,8 -49,10 -24,3 -49,6 -73,5 -10,0 -20,0 -27,-7 17,-12 24,-31 35,-48 18,-26 44,-45 71,-62 7,-6 16,-12 25,-13 18,-3 4,-29 13,-42 6,-11 15,-12 26,-10z"/>
  <path class="fil0 str0" d="M285 122c5,-7 -12,-8 -14,3 -1,4 4,8 8,9 12,3 12,-6 9,-12"/>
  <path class="fil0 str0" d="M115 280c7,7 16,11 28,14 69,11 54,1 84,3 1,0 3,-4 2,-5 1,-1 2,5 4,6 -4,5 -4,10 -5,16 -1,15 -3,28 -5,42"/>
  <path class="fil0 str0" d="M203 280c-3,21 -7,41 -10,62"/>
  <path class="fil0 str0" d="M222 356c14,2 27,4 42,7"/>
  <path class="fil0 str0" d="M230 349c15,-3 28,-6 42,-9 1,0 1,0 1,0"/>
  <path class="fil0 str0" d="M230 341c3,-2 6,-3 9,-4 8,-4 17,-7 26,-11"/>
  <path class="fil0 str0" d="M239 294c7,-4 16,-8 24,-12 2,-2 5,-4 5,-8"/>
  <path class="fil0 str0" d="M193 345c1,-2 3,-3 5,-3 8,-2 17,-5 25,-10"/>
  <path class="fil0 str0" d="M190 340c9,-6 16,-12 22,-21"/>
 </g>
</svg>
