<?xml version="1.0" encoding="UTF-8"?>
<!DOCTYPE svg PUBLIC "-//W3C//DTD SVG 1.1//EN" "http://www.w3.org/Graphics/SVG/1.1/DTD/svg11.dtd">
<!-- Creator: CorelDRAW X8 -->
<svg xmlns="http://www.w3.org/2000/svg" xml:space="preserve" width="500px" height="500px" version="1.1" style="shape-rendering:geometricPrecision; text-rendering:geometricPrecision; image-rendering:optimizeQuality; fill-rule:evenodd; clip-rule:evenodd"
viewBox="0 0 500 500"
 xmlns:xlink="http://www.w3.org/1999/xlink">
 <defs>
  <style type="text/css">
   <![CDATA[
    .str0 {stroke:black;stroke-width:1.00006}
    .fil0 {fill:none;fill-rule:nonzero}
   ]]>
  </style>
 </defs>
 <g id="Layer_x0020_1">
  <metadata id="CorelCorpID_0Corel-Layer"/>
  <path class="fil0 str0" d="M188 94c-11,4 -19,14 -23,25 -15,3 -29,9 -41,19 9,-3 18,-6 28,-8 8,-1 6,1 11,4 5,3 11,2 16,4 9,4 11,26 8,35 -2,5 -6,10 -9,14 -13,15 -26,30 -32,48 -6,18 -4,40 9,54 8,8 20,12 31,15 31,6 64,1 92,-15 9,-6 18,-13 27,-20 15,-12 31,-24 46,-36 4,-3 4,-5 3,-9 -4,-16 -7,-25 -20,-34 -38,-25 -86,-14 -126,-1 -4,1 -7,1 -7,-4 1,-9 8,-15 12,-23 6,-15 1,-35 3,-50 3,-17 -14,-23 -28,-18z"/>
  <path class="fil0 str0" d="M329 248c-6,17 -11,35 -14,52 -1,7 0,7 3,12 7,12 0,54 -1,69 -1,10 -2,21 -8,29 -3,5 -9,9 -15,7 -6,-3 -6,-13 -12,-16 -3,4 -7,7 -10,11 -3,3 -6,4 -8,-1 -2,-5 -2,-10 -1,-16 -3,4 -6,7 -8,11 -4,-18 6,-35 15,-50 11,-17 29,-43 38,-63 5,-11 8,-23 7,-36"/>
  <path class="fil0 str0" d="M296 276c-26,32 -54,62 -84,90 -1,-5 1,-11 4,-15 3,-5 7,-8 11,-12 2,-4 -1,-5 -4,-3 -7,4 -14,7 -21,11 1,-5 4,-10 8,-13 -3,-1 -6,-2 -9,-3 -1,-4 4,-7 8,-9 12,-5 26,-9 34,-21"/>
  <path class="fil0 str0" d="M171 117c5,-4 11,-13 17,-4 3,5 7,15 -1,17 -8,2 -16,3 -24,3 -21,0 5,-12 8,-16z"/>
  <path class="fil0 str0" d="M201 105c-3,-3 -11,4 -11,9 1,5 11,12 15,9 7,-5 -3,-23 -8,-16"/>
 </g>
</svg>
