<?xml version="1.0" encoding="UTF-8"?>
<!DOCTYPE svg PUBLIC "-//W3C//DTD SVG 1.1//EN" "http://www.w3.org/Graphics/SVG/1.1/DTD/svg11.dtd">
<!-- Creator: CorelDRAW X8 -->
<svg xmlns="http://www.w3.org/2000/svg" xml:space="preserve" width="500px" height="500px" version="1.1" style="shape-rendering:geometricPrecision; text-rendering:geometricPrecision; image-rendering:optimizeQuality; fill-rule:evenodd; clip-rule:evenodd"
viewBox="0 0 500 500"
 xmlns:xlink="http://www.w3.org/1999/xlink">
 <defs>
  <style type="text/css">
   <![CDATA[
    .str0 {stroke:black;stroke-width:0.750048}
    .fil0 {fill:none}
   ]]>
  </style>
 </defs>
 <g id="Layer_x0020_1">
  <metadata id="CorelCorpID_0Corel-Layer"/>
  <path class="fil0 str0" d="M201 73c-19,-4 -38,9 -45,26 -14,2 -26,7 -37,12 -5,2 -10,6 -10,11 1,-1 11,-2 11,-2 19,-3 39,0 57,7 -1,-2 7,-3 2,-10 -5,-5 -9,-10 -13,-16 -2,-2 -3,-2 -6,-2 -2,1 -4,2 -6,2"/>
  <path class="fil0 str0" d="M178 128c7,9 25,0 31,10 2,2 2,5 2,8 1,22 -8,45 -27,60 -23,20 -40,32 -42,67 -1,20 7,32 22,45 28,22 69,26 102,11 24,-11 24,-12 51,-13 33,-2 65,-13 92,-29 -22,-7 -54,6 -58,4 0,-2 39,-8 69,-19 12,-4 11,-16 -2,-14 -16,-2 -33,1 -46,6 -10,-18 16,-1 45,-26 15,-10 -27,-14 -32,-17 -15,-8 -14,-14 -34,-20 -21,-7 -82,-18 -103,-7 -3,1 -6,4 -9,5 -6,2 -10,-2 -8,-9 2,-10 5,-20 8,-30 6,-23 12,-52 -4,-73 -8,-10 -20,-17 -34,-14"/>
  <path class="fil0 str0" d="M112 122c13,0 27,2 40,6 8,3 16,7 23,4 2,-1 1,-2 2,-4"/>
  <path class="fil0 str0" d="M173 98c1,-3 4,-6 7,-9 7,-6 13,-4 16,4 2,6 1,11 -6,11 -4,0 -10,0 -13,-1 -2,-1 -3,-3 -2,-5"/>
  <path class="fil0 str0" d="M185 364c1,4 7,9 10,10 -9,2 -20,5 -27,11 6,2 13,3 20,3 0,0 13,-1 19,0 -7,2 -12,5 -18,8 1,4 6,4 9,3 17,-3 33,-6 48,-9 5,-1 5,-4 5,-8 -1,-5 -1,-11 0,-16 0,-4 5,-10 5,-13 -1,-9 -10,-1 -12,3 -2,6 0,11 -6,13 -11,6 -42,-2 -53,-5l0 0z"/>
  <path class="fil0 str0" d="M316 344c1,1 1,2 1,4 2,4 6,4 2,9 -7,11 -15,21 -25,29 0,-6 0,-15 4,-20 -9,-4 -18,11 -27,8 5,-8 13,-15 18,-17 -1,-1 -8,1 -13,1 -4,0 -7,-3 -5,-8 1,-5 7,-8 11,-11 4,-4 7,-11 12,-14 11,-8 21,9 22,19l0 0z"/>
 </g>
</svg>
