<?xml version="1.0" encoding="UTF-8"?>
<!DOCTYPE svg PUBLIC "-//W3C//DTD SVG 1.1//EN" "http://www.w3.org/Graphics/SVG/1.1/DTD/svg11.dtd">
<!-- Creator: CorelDRAW X8 -->
<svg xmlns="http://www.w3.org/2000/svg" xml:space="preserve" width="500px" height="500px" version="1.1" style="shape-rendering:geometricPrecision; text-rendering:geometricPrecision; image-rendering:optimizeQuality; fill-rule:evenodd; clip-rule:evenodd"
viewBox="0 0 500 500"
 xmlns:xlink="http://www.w3.org/1999/xlink">
 <defs>
  <style type="text/css">
   <![CDATA[
    .str0 {stroke:black;stroke-width:1.00006}
    .fil0 {fill:none;fill-rule:nonzero}
   ]]>
  </style>
 </defs>
 <g id="Layer_x0020_1">
  <metadata id="CorelCorpID_0Corel-Layer"/>
  <path class="fil0 str0" d="M90 188c-6,4 -6,12 1,10 7,-3 15,-4 23,-5 16,-2 45,-2 61,3 10,3 22,9 32,4 5,-2 5,-8 1,-12 -10,-10 -26,-11 -24,-34 2,-27 -27,-7 -39,-1 -19,10 -38,22 -55,35z"/>
  <path class="fil0 str0" d="M93 198c2,6 8,6 13,5 18,-3 54,-3 72,5 9,4 15,11 23,16 13,9 24,-1 17,-11 -3,-5 -7,-7 -11,-10"/>
  <path class="fil0 str0" d="M182 140c6,-9 13,-12 22,-17 19,-11 41,-22 63,-20 12,0 24,5 35,11 14,8 18,14 23,29 5,15 9,30 12,45 4,17 6,28 1,45 -11,39 -34,49 -52,80 -7,11 -7,17 -4,29 2,11 4,22 6,33"/>
  <path class="fil0 str0" d="M211 229c17,5 32,13 46,24 12,9 1,30 -5,40 -10,15 -18,22 -26,40 -8,16 -13,34 -17,52"/>
  <path class="fil0 str0" d="M249 124c8,-1 18,1 23,8 15,21 2,38 -20,39 -12,1 -22,-7 -31,-16 -15,-16 14,-30 28,-31z"/>
  <path class="fil0 str0" d="M239 132c14,-4 31,1 31,19 0,11 -13,12 -22,12 -18,-1 -47,-21 -9,-31z"/>
 </g>
</svg>
