<?xml version="1.0" encoding="UTF-8"?>
<!DOCTYPE svg PUBLIC "-//W3C//DTD SVG 1.1//EN" "http://www.w3.org/Graphics/SVG/1.1/DTD/svg11.dtd">
<!-- Creator: CorelDRAW X8 -->
<svg xmlns="http://www.w3.org/2000/svg" xml:space="preserve" width="500px" height="500px" version="1.1" style="shape-rendering:geometricPrecision; text-rendering:geometricPrecision; image-rendering:optimizeQuality; fill-rule:evenodd; clip-rule:evenodd"
viewBox="0 0 500 500"
 xmlns:xlink="http://www.w3.org/1999/xlink">
 <defs>
  <style type="text/css">
   <![CDATA[
    .str0 {stroke:black;stroke-width:1.00006}
    .fil0 {fill:none;fill-rule:nonzero}
   ]]>
  </style>
 </defs>
 <g id="Layer_x0020_1">
  <metadata id="CorelCorpID_0Corel-Layer"/>
  <path class="fil0 str0" d="M288 142c0,-10 6,-19 14,-24 10,-6 24,-5 36,-3 12,3 20,6 23,19 3,10 1,22 -5,31 10,5 40,29 41,31 -7,7 -18,5 -26,0 -8,-5 -15,-12 -24,-15 -6,-1 -11,-1 -17,-2 -5,-1 -11,-3 -14,-8 -4,-8 3,-19 11,-19 8,0 14,5 20,11"/>
  <path class="fil0 str0" d="M352 142c0,-6 -7,-8 -11,-5 -5,2 -7,8 -5,12 6,12 22,2 13,-7"/>
  <path class="fil0 str0" d="M286 145c-2,-12 -14,-14 -25,-13 -22,1 -36,4 -55,13 -31,13 -61,27 -91,40 6,1 20,0 24,2 -10,3 -22,13 -25,14 6,2 10,18 35,18 13,-1 52,20 63,27 13,8 24,18 38,25 33,16 84,8 92,-34 3,-17 -3,-34 -10,-50"/>
  <path class="fil0 str0" d="M126 214c-6,1 -10,2 -16,3 -3,0 -4,2 -3,5 3,16 14,30 28,41 38,27 167,60 196,6"/>
  <path class="fil0 str0" d="M325 146c-19,0 -39,6 -55,17 -17,12 -9,25 8,29 17,3 35,1 50,-6"/>
  <path class="fil0 str0" d="M184 258c-10,8 -12,12 -15,24 -2,8 -4,16 -6,25 -1,6 -1,8 2,14 4,10 10,21 17,30 4,7 7,8 15,9 11,1 24,1 33,-5 -1,-1 -24,-5 -24,-5 0,-1 18,-6 19,-7 4,-1 3,-4 -1,-5 -12,-1 -23,-7 -30,-17 -7,-10 -9,-23 -6,-34 2,-7 6,-13 8,-20 7,-19 2,-21 -12,-9z"/>
  <path class="fil0 str0" d="M319 335c3,0 8,0 10,4 -21,5 -59,5 -82,6 -3,1 -7,-2 -3,-4 5,-3 10,-6 15,-9 -5,-3 -12,-3 -18,-3 1,-2 4,-2 6,-3 8,-3 4,-11 8,-15 5,-5 10,3 11,7 6,18 37,17 53,17z"/>
 </g>
</svg>
