<?xml version="1.0" encoding="UTF-8"?>
<!DOCTYPE svg PUBLIC "-//W3C//DTD SVG 1.1//EN" "http://www.w3.org/Graphics/SVG/1.1/DTD/svg11.dtd">
<!-- Creator: CorelDRAW X8 -->
<svg xmlns="http://www.w3.org/2000/svg" xml:space="preserve" width="500px" height="500px" version="1.1" style="shape-rendering:geometricPrecision; text-rendering:geometricPrecision; image-rendering:optimizeQuality; fill-rule:evenodd; clip-rule:evenodd"
viewBox="0 0 500 500"
 xmlns:xlink="http://www.w3.org/1999/xlink">
 <defs>
  <style type="text/css">
   <![CDATA[
    .str0 {stroke:black;stroke-width:1.00006}
    .fil0 {fill:none;fill-rule:nonzero}
   ]]>
  </style>
 </defs>
 <g id="Layer_x0020_1">
  <metadata id="CorelCorpID_0Corel-Layer"/>
  <path class="fil0 str0" d="M324 98c-11,1 -19,11 -22,21 -3,11 -2,28 0,33 0,0 6,-10 9,-10 3,-1 3,5 6,6 2,-3 7,-6 11,-6 -1,6 1,13 7,16 5,0 10,7 8,13 -5,20 -23,35 -41,47 -5,4 -11,8 -17,9 -6,2 -14,1 -18,-4 -7,-7 -5,-19 1,-27 5,-7 14,-13 20,-20 6,-8 10,-16 11,-26"/>
  <path class="fil0 str0" d="M322 164c-1,-4 -5,2 -5,4 -2,6 6,9 7,2 0,-3 -1,-6 -1,-8"/>
  <path class="fil0 str0" d="M334 137c2,3 5,5 8,5 9,0 17,-20 7,-24 -12,-6 -21,10 -15,19z"/>
  <path class="fil0 str0" d="M322 99c12,-10 30,-9 42,1 12,9 17,25 16,40 0,22 -10,25 -21,40 -16,21 -6,33 -11,50 -15,2 -34,-11 -43,-9 -6,2 -10,11 -1,14 12,6 28,9 34,7 6,-2 10,-10 6,-15"/>
  <path class="fil0 str0" d="M347 231c-4,5 -4,12 0,17 2,3 14,13 24,29 17,34 1,66 -47,85 -23,10 -40,13 -73,12 -48,-5 -101,-12 -132,-24 -13,-6 -24,-20 -4,-25 30,-4 41,-9 21,-12 -16,-3 -34,-8 -46,-19 -9,-7 1,-20 19,-33 8,-4 12,-12 11,-17 -20,0 -25,5 -28,3 -8,-6 14,-21 25,-23 41,-10 49,-44 71,-55 13,-6 30,-7 42,2 10,9 14,25 28,27"/>
 </g>
</svg>
