<?xml version="1.0" encoding="UTF-8"?>
<!DOCTYPE svg PUBLIC "-//W3C//DTD SVG 1.1//EN" "http://www.w3.org/Graphics/SVG/1.1/DTD/svg11.dtd">
<!-- Creator: CorelDRAW X8 -->
<svg xmlns="http://www.w3.org/2000/svg" xml:space="preserve" width="500px" height="500px" version="1.1" style="shape-rendering:geometricPrecision; text-rendering:geometricPrecision; image-rendering:optimizeQuality; fill-rule:evenodd; clip-rule:evenodd"
viewBox="0 0 500 500"
 xmlns:xlink="http://www.w3.org/1999/xlink">
 <defs>
  <style type="text/css">
   <![CDATA[
    .str0 {stroke:black;stroke-width:1.00006}
    .fil0 {fill:none;fill-rule:nonzero}
   ]]>
  </style>
 </defs>
 <g id="Layer_x0020_1">
  <metadata id="CorelCorpID_0Corel-Layer"/>
  <path class="fil0 str0" d="M391 283c1,-30 11,-44 14,-69 5,-29 7,-38 20,-61 11,-26 12,-55 13,-84 0,-7 0,-15 -2,-22 -2,-7 -8,-14 -15,-15 -6,27 -9,54 -10,81 -9,-2 -14,-10 -17,-18 -3,-8 -3,-16 -3,-25 -2,-25 -11,-54 -35,-63 4,27 10,52 17,78 -27,-6 -39,-46 -67,-49 10,20 21,39 33,56 -12,-1 -24,-4 -36,-9 -4,11 -3,25 3,35 -6,1 -11,3 -17,4 6,17 12,35 6,52 -2,4 -4,8 -6,12 -1,5 -2,10 -3,15 -5,31 -23,60 -48,79 -7,5 -10,5 -18,1 -32,-15 -65,-27 -100,-34 15,16 33,29 53,38 -1,1 -51,-6 -50,-6 17,18 47,9 69,22 -24,-5 -49,-2 -72,6 -1,3 5,6 9,6 0,-1 42,0 45,2 -20,2 -39,8 -57,17 19,3 65,2 66,0 -15,-2 -29,2 -40,11 29,13 64,-9 96,-4 -1,4 -29,25 -49,36 -7,3 -8,6 -11,10 -2,5 -3,11 1,14 -10,3 -18,11 -21,20 -39,9 -78,18 -116,27 -9,2 -18,5 -27,7 21,7 44,1 65,4 20,2 39,11 58,16 17,5 35,6 53,6 16,1 32,2 46,-4 26,-11 73,-91 124,-135"/>
  <path class="fil0 str0" d="M391 287c0,3 0,5 1,7 3,5 29,14 36,18 10,6 19,14 22,25 3,9 1,20 -2,28 -4,9 -10,17 -16,25 -2,-7 -1,-15 1,-22 1,-2 2,-4 1,-6 -1,-4 -5,-5 -8,-5 -23,-4 -45,-5 -68,-5"/>
  <path class="fil0 str0" d="M433 350c0,0 -23,-28 -29,-29"/>
  <path class="fil0 str0" d="M410 326c-2,6 -10,10 -9,16 1,9 27,12 28,6"/>
  <path class="fil0 str0" d="M417 336c-4,3 -8,6 -12,10"/>
 </g>
</svg>
