<?xml version="1.0" encoding="UTF-8"?>
<!DOCTYPE svg PUBLIC "-//W3C//DTD SVG 1.1//EN" "http://www.w3.org/Graphics/SVG/1.1/DTD/svg11.dtd">
<!-- Creator: CorelDRAW X8 -->
<svg xmlns="http://www.w3.org/2000/svg" xml:space="preserve" width="500px" height="500px" version="1.1" style="shape-rendering:geometricPrecision; text-rendering:geometricPrecision; image-rendering:optimizeQuality; fill-rule:evenodd; clip-rule:evenodd"
viewBox="0 0 500 500"
 xmlns:xlink="http://www.w3.org/1999/xlink">
 <defs>
  <style type="text/css">
   <![CDATA[
    .str0 {stroke:black;stroke-width:1.00006}
    .fil0 {fill:none;fill-rule:nonzero}
   ]]>
  </style>
 </defs>
 <g id="Layer_x0020_1">
  <metadata id="CorelCorpID_0Corel-Layer"/>
  <path class="fil0 str0" d="M122 68c-6,9 -11,19 -11,30 0,11 5,22 15,27 -2,-7 -4,-13 -3,-20 1,-6 7,-12 13,-12 14,1 28,2 42,3 4,5 0,11 -4,16 -11,15 -24,30 -39,43 -7,6 -15,13 -21,20 -22,25 -27,62 -16,92 11,31 37,56 68,66 7,3 9,12 8,19 -1,7 -4,15 -3,22 2,9 -7,17 -14,23 -8,7 -16,15 -13,25 11,2 18,-11 21,-22 1,-4 5,-5 8,-4 4,1 6,4 8,6 7,9 13,20 16,31 6,-4 8,-13 6,-20 -2,-7 -6,-14 -10,-20 -8,-15 -12,-33 -10,-50 7,4 12,12 13,20 1,10 16,14 22,6 30,31 70,52 112,64 41,12 103,19 128,18 1,-1 -39,-28 -53,-33 14,-1 45,6 45,6 -4,-13 -14,-24 -26,-29 -3,-2 19,1 26,3 -9,-14 -27,-19 -39,-30 -6,-5 -10,-11 -15,-16 -9,-9 -21,-14 -30,-23 -7,-6 -12,-15 -17,-23 -14,-23 -28,-46 -38,-70 -14,-31 -22,-65 -44,-90 -7,-8 -16,-15 -18,-26 -2,-6 0,-13 0,-20 0,-26 -23,-57 -48,-66 -28,-10 -63,12 -79,34z"/>
  <path class="fil0 str0" d="M135 76c12,-6 25,-10 38,-14 9,-2 19,-3 25,4 4,6 2,15 -3,19 -6,5 -14,5 -21,3 -7,-3 -13,-9 -11,-15 1,-4 4,-7 8,-8"/>
  <path class="fil0 str0" d="M181 72c0,-1 0,-3 0,-5 -3,0 -5,3 -5,6 0,2 2,5 4,6 2,1 4,2 5,1 2,-1 2,-3 1,-5 -1,-2 -2,-3 -4,-4"/>
  <path class="fil0 str0" d="M150 321c2,10 4,20 6,29 1,5 2,10 -1,15 -2,4 -8,5 -12,5 -5,0 -10,0 -14,1 -7,2 -12,8 -15,14 -4,7 -7,15 -4,23 2,1 5,-1 7,-3 3,-5 6,-10 10,-15 4,-5 10,-9 16,-10 6,-1 13,3 14,9 0,0 1,0 1,-1"/>
  <path class="fil0 str0" d="M143 167c0,-2 3,-3 5,-1 1,1 1,3 1,5 1,32 -12,64 -12,97 0,19 6,41 23,51 5,3 11,4 15,1 2,-1 4,-4 5,-6 19,-38 9,-83 -1,-124 11,3 17,17 19,28 9,42 8,88 32,123 6,9 16,17 25,12 6,-4 7,-13 7,-20 1,-36 -3,-72 -10,-107 6,9 8,21 10,32 5,27 14,53 29,76 3,6 7,12 12,15 5,4 13,6 19,2 6,-3 8,-11 9,-18 3,-23 -3,-46 -12,-67 -11,-27 -25,-52 -44,-74 3,12 5,28 -5,36 -8,6 -20,3 -27,-4 -7,-7 -11,-16 -13,-26 -4,-16 -5,-34 4,-47 -3,19 -9,42 -27,49 -15,5 -34,-4 -39,-20 -6,-15 1,-33 15,-42"/>
 </g>
</svg>
