<?xml version="1.0" encoding="UTF-8"?>
<!DOCTYPE svg PUBLIC "-//W3C//DTD SVG 1.1//EN" "http://www.w3.org/Graphics/SVG/1.1/DTD/svg11.dtd">
<!-- Creator: CorelDRAW X8 -->
<svg xmlns="http://www.w3.org/2000/svg" xml:space="preserve" width="500px" height="500px" version="1.1" style="shape-rendering:geometricPrecision; text-rendering:geometricPrecision; image-rendering:optimizeQuality; fill-rule:evenodd; clip-rule:evenodd"
viewBox="0 0 500 500"
 xmlns:xlink="http://www.w3.org/1999/xlink">
 <defs>
  <style type="text/css">
   <![CDATA[
    .str0 {stroke:black;stroke-width:0.750048}
    .fil0 {fill:none}
   ]]>
  </style>
 </defs>
 <g id="Layer_x0020_1">
  <metadata id="CorelCorpID_0Corel-Layer"/>
  <path class="fil0 str0" d="M366 87c16,-18 31,-37 52,-48 -3,18 -29,23 -33,40 26,-9 51,-20 77,-30 -14,23 -46,30 -58,55 20,-9 41,-15 64,-17 -14,17 -35,30 -53,42 10,0 21,-1 33,-1 3,0 9,1 9,6 -1,1 -2,2 -3,3 -6,3 -10,6 -14,10 7,1 15,3 23,4l-7 7c5,1 3,8 0,11 -11,11 -24,20 -37,25 2,5 6,6 11,7 4,1 8,5 7,9 -1,2 -2,3 -4,4 -4,2 -8,4 -12,6 0,4 1,6 2,9 -8,2 -17,6 -27,9 5,0 7,6 5,10 -3,3 -8,4 -11,5 -21,5 -40,10 -61,15 5,8 10,14 15,21 9,11 12,11 25,12 11,1 22,5 32,11 2,1 3,2 4,3 1,3 -2,5 -6,6 -3,1 -6,0 -9,1 -5,3 -7,8 -6,12 0,6 2,10 5,15 -6,-2 -12,-3 -18,-2 -6,3 -11,7 -11,13 0,3 1,6 -1,8 -2,2 -5,0 -7,-1 -2,-2 -4,-5 -6,-7 -5,-2 -11,3 -13,8 -2,4 -4,11 -8,13 -5,-3 -8,-8 -9,-13 -8,3 -13,9 -16,15 -8,0 -15,-6 -17,-13 -2,-7 0,-15 2,-23 3,-14 0,-29 -6,-41 -1,-2 -2,-4 -3,-4 -2,-2 -6,-2 -8,-1 -7,2 -14,6 -17,13 -3,4 -5,8 -8,12 -4,2 -10,0 -12,-4 1,-1 2,13 0,19 -2,6 -11,10 -15,5 0,6 -1,11 -3,16 -2,4 -9,6 -13,4 -3,-2 -6,-9 -10,-8 -2,1 -3,2 -4,4 -8,8 -16,16 -23,24 -2,-5 -6,-10 -9,-16 -7,10 -17,19 -27,26 0,-5 0,-12 0,-17 -9,4 -16,10 -22,15 -1,-5 -9,-6 -16,-5 -23,3 -45,7 -68,12 28,-26 69,-33 100,-57 -25,-6 -51,15 -75,7 15,-7 32,-16 33,-31 37,-31 76,-59 119,-83 6,-4 4,-7 1,-10 -5,-7 -2,-16 -5,-24 -4,-11 -15,-16 -29,-12 10,-13 40,-12 53,2 7,7 17,22 26,8 22,-16 44,-33 65,-49 10,-9 19,-22 27,-31l16 -18c2,-2 14,-13 14,-16l0 0z"/>
  <path class="fil0 str0" d="M202 188c-6,0 -7,10 0,12 2,0 5,-1 6,-4 2,-4 0,-7 -2,-8"/>
 </g>
</svg>
