<?xml version="1.0" encoding="UTF-8"?>
<!DOCTYPE svg PUBLIC "-//W3C//DTD SVG 1.1//EN" "http://www.w3.org/Graphics/SVG/1.1/DTD/svg11.dtd">
<!-- Creator: CorelDRAW X8 -->
<svg xmlns="http://www.w3.org/2000/svg" xml:space="preserve" width="500px" height="500px" version="1.1" style="shape-rendering:geometricPrecision; text-rendering:geometricPrecision; image-rendering:optimizeQuality; fill-rule:evenodd; clip-rule:evenodd"
viewBox="0 0 500 500"
 xmlns:xlink="http://www.w3.org/1999/xlink">
 <defs>
  <style type="text/css">
   <![CDATA[
    .str0 {stroke:black;stroke-width:1.00006}
    .fil0 {fill:none;fill-rule:nonzero}
   ]]>
  </style>
 </defs>
 <g id="Layer_x0020_1">
  <metadata id="CorelCorpID_0Corel-Layer"/>
  <g id="_1909841002832">
   <path class="fil0 str0" d="M193 37c-1,-6 -8,-10 -15,-10 -6,0 -12,3 -18,6 -6,4 -13,9 -17,15 -2,5 -3,11 -4,16l-3 19c-7,2 -10,12 -8,19 2,8 7,14 12,20 1,1 2,1 2,2 4,4 7,8 9,13 5,11 0,24 3,36 0,3 1,5 1,8 0,7 -8,11 -14,14 -3,-6 -11,-6 -16,-2 -5,4 -7,11 -7,17 -2,14 -1,28 5,41 7,16 23,30 26,48 1,7 0,13 1,19 4,16 21,23 36,28"/>
   <path class="fil0 str0" d="M191 39c7,1 13,4 18,9 15,15 11,40 15,61 12,12 22,27 29,43 1,4 3,9 7,12 3,3 8,4 13,6 14,4 25,15 35,26 8,7 15,14 22,21 10,11 21,22 25,37 3,14 -1,31 7,43 2,4 6,8 4,13 0,1 -1,2 -2,3 -3,6 5,13 12,17 29,15 51,41 62,72 -23,-5 -45,-15 -64,-28 -2,-1 -3,-2 -5,-1 -2,0 -3,2 -3,4 -5,21 9,41 23,58 -11,0 -22,-1 -33,-1 -1,3 -1,7 -1,10 -3,3 -6,1 -9,-2 -10,-11 -15,-25 -26,-35 -10,-10 -23,-15 -33,-25 -7,-7 -12,-17 -19,-24 -8,-7 -19,-12 -28,-7 -4,5 -5,12 -4,19"/>
   <path class="fil0 str0" d="M176 68c-4,3 -7,5 -9,9 -2,4 -3,9 0,12 1,2 3,4 6,5 7,3 16,3 23,-1 24,-13 1,-37 -20,-25z"/>
   <path class="fil0 str0" d="M139 64c0,-1 -1,-2 -1,-3 8,2 13,11 12,18 0,3 -1,5 -3,6 -2,2 -6,1 -9,-1 -2,-2 -3,-5 -3,-8 0,-5 2,-10 6,-14"/>
   <path class="fil0 str0" d="M149 93c0,-1 -1,-2 -1,-3 -3,10 -2,21 1,30 5,-8 5,-20 -1,-29"/>
   <path class="fil0 str0" d="M185 78c-3,-1 -8,3 -7,6 2,3 7,4 9,0 1,-3 -2,-7 -6,-6"/>
   <path class="fil0 str0" d="M143 75c-2,-1 -4,-2 -5,-1 -1,2 0,4 2,4 1,1 3,0 5,0 0,-2 0,-3 0,-4"/>
   <path class="fil0 str0" d="M190 192l4 -4c-5,2 -10,4 -14,7 -4,4 -7,9 -5,14 2,4 5,7 7,11 4,6 2,13 2,20 -1,16 5,32 11,47 4,13 9,25 18,35 9,10 22,16 35,13 3,-5 10,-7 16,-5 -2,3 0,7 2,9 3,3 6,4 9,7 2,2 3,6 5,9 4,7 14,9 23,8 13,-1 26,-4 38,-10l3 6"/>
   <path class="fil0 str0" d="M176 343c-1,5 -3,10 -4,15 -1,4 -2,9 -1,13 1,4 4,8 8,8 -3,13 -5,27 -5,41 -23,0 -46,5 -67,12 7,8 20,4 29,0 10,-5 22,-9 30,-2 -7,6 -14,12 -20,20 11,-3 21,-10 28,-18 1,6 3,11 4,17 4,-1 4,-6 4,-9 -1,-10 1,-20 2,-30 4,-16 7,-32 10,-48 0,-3 1,-6 2,-8 4,-5 13,-3 17,2 5,5 6,11 6,18 1,18 1,35 -1,53 -1,2 -1,4 -2,5 -1,2 -4,3 -6,4 -8,4 -15,9 -21,17 9,-5 19,-9 28,-13 2,-1 3,-2 5,-1 1,1 2,2 2,3 4,7 11,11 18,12 7,2 14,2 22,1 -11,-7 -22,-14 -33,-21 15,-3 30,-5 45,-5 -4,-8 -14,-11 -21,-17 -13,-9 -15,-27 -16,-43"/>
  </g>
 </g>
</svg>
