<?xml version="1.0" encoding="utf-8"?>
<!-- Generator: Adobe Illustrator 19.0.0, SVG Export Plug-In . SVG Version: 6.00 Build 0)  -->
<svg version="1.1" id="Layer_1" xmlns="http://www.w3.org/2000/svg" xmlns:xlink="http://www.w3.org/1999/xlink" x="0px" y="0px"
	 viewBox="-55 147 500 500" style="enable-background:new -55 147 500 500;" xml:space="preserve">
<style type="text/css">
	.st0{fill:none;stroke:#000000;stroke-width:1.0001;}
</style>
<g id="Layer_x0020_1">
	<g id="_1909601416320">
		<path class="st0" d="M66,307c-6.6,5.7-10.6,14.7-11,23.4c-0.2,4.9,1.1,9.1-1.3,13.8c-2.2,4.4-6.2,8.2-9.2,12.1
			C32,372.9,20.9,390.9,15,411l6,3c-2-11,5-22,12-30c4.4-6.3,9.3-12.3,14.5-18c4.4-4.9,10-12.8,16.5-15c4.5-2.3,10.1-0.4,14.8-0.1
			c4.6,0.2,9-0.5,13,2.2c3.9,2.6,6.2,7.3,8.8,11.1c3.3,4.8,6.6,9.7,9.8,14.6C121,395,129.8,415.9,148,425c12,7,26,6,40,5
			c12-2,24-4,35-8c19-8,34-23,45-41c10-17,16-37,19-57c2.4-14.3,2.2-28.9,1.8-43.3c-0.2-7,0.2-13.6,1.5-20.5
			c1.2-6.6,3.3-14-0.3-20.2c-6.9,2.9-9.8,11.3-12.2,17.7c-3.2,8.6-6.9,16.2-12.8,23.3c-1.5,1.5-9.4-0.7-11.2-1
			c-4.9-0.7-9.5-1-14.4-1c-17.3,0-34,1.2-51.2,3.7c-14.8,2.2-30.8,4.9-44.7,10.6c-7.3,3-20.3,12.2-28.5,8.7c-3-2-3-6-6-8
			c-5-4-13-2-18-1C82,296,73,300,66,307z"/>
		<path class="st0" d="M83,319c-7.9-2-15.1,3.5-17,11c0,7.9,9.2,12.4,16,9c8.3-2.1,9.7-18,0-18"/>
		<path class="st0" d="M187,416c10,5,21,12,22,23c0,8.9-4.3,19.1-6.4,27.7c-2.5,10.1-5,20.2-7.6,30.3c-26-7-54-8-80-3"/>
		<path class="st0" d="M183,502c-3-1-6,0-8,1c-15,7-29,13-43,19"/>
		<path class="st0" d="M167,525c0-1.8,5.8-4.9,7.1-5.9c2.8-2.2,5.6-4.4,8.4-6.6c5.2-4,10.8-7.8,15.5-12.5c1,0,1,0,2,1c8,1,15,2,23,3
			"/>
		<path class="st0" d="M246,384c6,1,12,2,18,3c2,1,5,2,7,4c1.6,3.2-0.2,7.9-0.5,11.4c-0.4,3.9-0.8,7.8-1.3,11.7
			c-0.9,7.4-2,14.7-3.2,22c-2.2,13.1-2.9,28.9-8.9,40.9c-7,9-23,8-30,18"/>
		<path class="st0" d="M262,478c1,1,1,0,1,0C262,478,262,478,262,478c-8.2,10.9-12.5,23.8-20,35"/>
		<path class="st0" d="M272,467c2,16,5,32-2,47"/>
		<path class="st0" d="M21,415c13-25,34-45,55-64"/>
		<path class="st0" d="M80,327c-1.7-1.7-5-4.4-9.1-1.3c-4.2,3.2-0.5,11.1,5.1,9.3c2,0,4-7,2-7"/>
		<path class="st0" d="M101,312c6,0,12,0,17,2"/>
		<path class="st0" d="M104,327c7,4,13,8,20,12"/>
		<path class="st0" d="M121,357c0,0,9,6,14,10"/>
		<path class="st0" d="M127,330c3.4-0.8,19.8,11.5,18,10"/>
		<line class="st0" x1="142" y1="313" x2="170" y2="312"/>
		<path class="st0" d="M158,350c9.4,0.8,13,2,20,5"/>
		<path class="st0" d="M167,330c9,0,17,0,25,1"/>
		<path class="st0" d="M184,301c9,0,17-2,25-4"/>
		<path class="st0" d="M208,315c10,0,20-1,31-1"/>
		<path class="st0" d="M195,338c3.6,0,7.1,0,10.7,0c3.6,0,6.7,1,10.3,1"/>
		<path class="st0" d="M170,367c8,0,16,2,22,6"/>
		<path class="st0" d="M204,360c0,0,18.7,0,28,0"/>
		<path class="st0" d="M236,341c2,0,4,0,6,0c5.9-2,12.1-2,18-4"/>
		<path class="st0" d="M249,317c6-1,12-3,18-4"/>
		<path class="st0" d="M247,298c6-1,12-1,19-2"/>
	</g>
</g>
</svg>
