<?xml version="1.0" encoding="utf-8"?>
<!-- Generator: Adobe Illustrator 19.0.0, SVG Export Plug-In . SVG Version: 6.00 Build 0)  -->
<svg version="1.1" id="Layer_1" xmlns="http://www.w3.org/2000/svg" xmlns:xlink="http://www.w3.org/1999/xlink" x="0px" y="0px"
	 viewBox="-55 147 500 500" style="enable-background:new -55 147 500 500;" xml:space="preserve">
<style type="text/css">
	.st0{fill:none;stroke:#000000;stroke-width:1.0001;}
</style>
<g id="Layer_x0020_1">
	<g id="_1909606962208">
		<path class="st0" d="M285,303.3c-24,3-53,19.7-63,42.7c-24-6-50-1-71,13c-2-3-6-4-9-6c-2-1-3-3-4-5c-15-18-36-32-59-37
			c-2,4,2,9,6,12c6,4,11,9,17,14c-8-1-17,1-23,6c14,12,27,24,41,36c6,5,12,11,17,18c-27,18-55,36-82,53c-3,2-6,4-8,8
			c32-8,63-17,93-29c4-1,7.1-3,11.1-2c0.8,0.3,1.5,0.6,2.2,1c21.1,11.8,43.3,22.6,66.6,30c3,9-1,19-7,25c13-2,27-1,41,2
			c5,0,10,2,13,6c2-4-3-8-8-10c-9-2-18-5-27-6c-1-5-2-9-3-13c5,0,11,4,12,10c22,1,43,4,64,9c-6-7-16-11-27-12c-5-1-10-2-15-4
			s-9-7-8-13l34-7c8-2,16-4,24-7c5-3,10-6,13-10s4-10,5-15c1-7,0-13-1-20c-2-9-6-17-7-26c-2-9,1-19,8-24c5.3,0,6.5,4.5,10.7,8.5
			c0.4,0.4,0.9,0.5,1-0.1c1-13-4.8-27.3-14.7-34.4C313,307,303,301.3,285,303.3z"/>
		<path class="st0" d="M262,466c10-3,20-6,31-4c1,0,3,0,4,2c1,1,1,2,1,3c1,2,1,4,2,6c-1,0-2,0-3,0c0-4-6-7-9-5"/>
		<path class="st0" d="M264,332c-3,4-6,8-6,12c1,4,4,7,7,8c3,2,7,2,10,2s5,0,7-1c2,0,4-1,5-3c5-4,8-10,7-16s-6-11-11-12
			C276,320,269,328,264,332z"/>
		<path class="st0" d="M238,359c15,3,31,2,46-2c6-2,11-4,16-7c4-3,8-6,13-9c9-4,20-3,28,4"/>
		<path class="st0" d="M137,397c4,6,10,11,16,15c35,22,78,33,120,29c11-1,24-4,31-13c2-3,3-7,4-10c3-11,2-23-2-33c-4-11-13-20-23-24
			"/>
	</g>
</g>
</svg>
