<?xml version="1.0" encoding="UTF-8"?>
<!DOCTYPE svg PUBLIC "-//W3C//DTD SVG 1.1//EN" "http://www.w3.org/Graphics/SVG/1.1/DTD/svg11.dtd">
<!-- Creator: CorelDRAW X8 -->
<svg xmlns="http://www.w3.org/2000/svg" xml:space="preserve" width="500px" height="500px" version="1.1" style="shape-rendering:geometricPrecision; text-rendering:geometricPrecision; image-rendering:optimizeQuality; fill-rule:evenodd; clip-rule:evenodd"
viewBox="0 0 500 500"
 xmlns:xlink="http://www.w3.org/1999/xlink">
 <defs>
  <style type="text/css">
   <![CDATA[
    .str0 {stroke:black;stroke-width:0.750048}
    .fil0 {fill:none}
   ]]>
  </style>
 </defs>
 <g id="Layer_x0020_1">
  <metadata id="CorelCorpID_0Corel-Layer"/>
  <path class="fil0 str0" d="M201 98c-8,-6 -19,-7 -28,-3 -6,3 -10,7 -16,8 -2,0 -5,-1 -8,-1 -11,-1 -21,1 -31,4 0,3 3,4 6,4 11,1 21,1 31,1 3,7 6,13 12,17 5,4 10,8 15,12 11,11 16,27 18,43 2,16 0,33 3,48 1,16 7,33 20,42 10,6 21,9 31,11 3,14 1,31 -2,41 -2,-1 -29,5 -37,10 7,1 32,-7 34,-5 -9,5 -17,12 -15,14 15,-11 35,-14 53,-10 1,-2 -13,-9 -28,-12 5,-12 6,-24 3,-36 11,8 27,7 38,0 2,-2 4,-4 7,-5 1,0 4,-1 6,-1 34,-2 65,21 99,23 0,-5 -5,-8 -10,-10 -11,-5 -21,-10 -32,-16 -12,-5 -24,-11 -32,-20 -8,-8 -13,-19 -19,-29 -18,-25 -46,-39 -72,-55 -7,-6 -16,-12 -18,-20 -1,-11 3,-20 -6,-29 -7,-8 -13,-19 -22,-26l0 0z"/>
  <path class="fil0 str0" d="M227 270c6,14 19,33 21,45 -2,2 -15,2 -22,4 -7,0 -13,2 -18,5 -2,1 -3,1 -2,2 7,4 36,-11 39,-4 -3,0 -6,2 -8,4"/>
  <path class="fil0 str0" d="M177 114c0,-1 2,-2 3,-2 6,0 12,-1 16,1 1,1 1,2 1,3 0,0 0,1 -1,1 -4,5 -11,7 -17,5 -1,-1 -3,-2 -3,-3 0,-1 1,-1 1,-1 1,-2 2,-4 3,-6 1,0 2,0 2,1"/>
 </g>
</svg>
