<?xml version="1.0" encoding="utf-8"?>
<!-- Generator: Adobe Illustrator 19.0.0, SVG Export Plug-In . SVG Version: 6.00 Build 0)  -->
<svg version="1.1" id="Layer_1" xmlns="http://www.w3.org/2000/svg" xmlns:xlink="http://www.w3.org/1999/xlink" x="0px" y="0px"
	 viewBox="-55 147 500 500" style="enable-background:new -55 147 500 500;" xml:space="preserve">
<style type="text/css">
	.st0{fill:none;stroke:#000000;stroke-width:1.0001;}
</style>
<g id="Layer_x0020_1">
	<g id="_1909842340688">
		<path class="st0" d="M243.9,307.6c0.2,0.4-0.4,0.8-0.7,0.5c-12.6-13-32.2-18.6-50.6-19.9c-0.3,0-0.4,0.4-0.1,0.5
			c14.2,3.8,27,11.1,37.6,20c0.8,0.7,0.1,2.1-0.9,1.7c-15.9-5.4-33.9-9.8-50.2-4.3c11,9,30,7,39,19c-3.4,3.4-17.6,3.2-19.9,8.9
			c-0.4,1-1.6,1.2-2.4,0.4c-5-5.2-11.7-7.9-17.8-11.3c-15.9-6.6-31.5-13.9-49.1-9.4c-15.5,4-28.6,14.6-38.9,26.4c-6-2-12-3-18-4
			c-3,3,1,8,4,10c9,5,18,11,28,17c-18-6-38-2-53,10c17,1,34-7,49-1c-17,2-35,7-52,13c17-1,34-1,50-2c1,9,2,18,7,25
			c2.5,5,7.5,7.9,11.6,11.4c4.9,4.3,9.6,8.9,14.4,13.3c8.9,8.2,18.1,16.9,29,22.3c17,8,38,5,56-3c6-3,12-6,17-11
			c8-6.4,13.2-17.1,18.4-25.7c6.1-10,10.8-20.9,13.8-32.3c2.6-10,5.2-20,7.8-30h36.5c1.2,0,1.4-1.6,0.4-2
			c-11.7-4.3-24.4-6.6-36.6-6.9c-0.4,0-0.4-0.6,0-0.7c15.5-2.7,31.5-1.6,46.5,1.8c0.8,0.2,1.2-1,0.4-1.3c-10-4.1-20.4-6.5-31.1-8.7
			c-14.1-2.8-17.9-14.9-24.4-26.1c-6.6-11.3-14.6-20.9-24.6-29.2c-4-3.3-7.6-6.2-12.3-8.3C224.6,270.2,237.1,292.5,243.9,307.6z"/>
		<path class="st0" d="M221.9,336.3c-0.9,4.9,1.1,8.7,5.1,11.7c5.5,3.7,18,7,24,3c7-5,5-14,0-19c-5-6-27.7,0.8-28.9,3.7
			C222,335.9,222,336.1,221.9,336.3z"/>
		<path class="st0" d="M118.4,355.3c0.1-0.8-0.8-1.4-1.5-1c-0.9,0.5-1.6,1.4-2.3,2.2c-0.9,1.1-0.7,2.7,0.5,3.4
			c4,2.3,8.3,4.3,12.6,6.2c1.3,0.6,1.1,2.4-0.3,2.7c-3.8,0.7-7.4,1.6-10.7,3.3c-0.8,0.4-1,1.3-0.6,2.1c1.3,2.3-0.2,6.2-1,8.7
			c0,0.1,0,0.2-0.1,0.2c-0.9,5,2,9.9,5,14.9c7,9,17,15,29,19c25.2,6.9,80.6,3.7,75.2,3.5c22.1,0.9-40.2,7.5-60.2,15.5
			c20,6,41,1,62-3"/>
		<path class="st0" d="M152,454c19,21,40.8,39.7,66.4,50.1c2.4,2.2-21.9-4.5-33.7-2.5c-0.8,0.1-1.2,1.2-0.7,1.8
			c2.4,2.5,17,0.5,21,1.5c2.9,0,26.8,10.5,37.8,15.2c1.2,0.5,2.3-0.9,1.5-2c-3.3-4-7.6-7.6-12.5-9.8c-1.2-0.6-0.8-2.4,0.6-2.4
			c8,0.3,18.3,8.6,21.6,12.3c0.7,0.8,2.1,0.5,2.4-0.5c1.3-5.1-9-11-15-13.7c-0.2-0.1-0.5-0.2-0.8-0.3c-6.9-1.9-14.7-2-21.6-5.9
			c-5.1-3.4-8.8-8.2-13.9-11.7c-4.3-3-9-5.4-13.6-8c-9.1-5.1-18.6-10.5-24.6-19.3"/>
		<path class="st0" d="M208,449c2.2,0.6,25,21,36,33c4-2,5.5-2.2,10.5-0.2L283,492"/>
		<path class="st0" d="M245,486c2-1,30.2,14,32.2,15"/>
		<path class="st0" d="M241,484c0,0,4,8,6,13"/>
	</g>
</g>
</svg>
