<?xml version="1.0" encoding="utf-8"?>
<!-- Generator: Adobe Illustrator 19.0.0, SVG Export Plug-In . SVG Version: 6.00 Build 0)  -->
<svg version="1.1" id="Layer_1" xmlns="http://www.w3.org/2000/svg" xmlns:xlink="http://www.w3.org/1999/xlink" x="0px" y="0px"
	 viewBox="-55 147 500 500" style="enable-background:new -55 147 500 500;" xml:space="preserve">
<style type="text/css">
	.st0{fill:none;stroke:#000000;stroke-width:1.0001;}
</style>
<g id="Layer_x0020_1">
	<g id="_1909137920416">
		<path class="st0" d="M198.2,288.8c-2.5,2.6,0.2,6.1-0.2,7.2l-5,3c1.3,2.5-0.2,4.7,6,14c-13.8,5.3-28.9,8.6-42.2,14.8
			c-11.3,5.2-17.4,14.7-24.7,24.6c-7.1,9.6-15.3,20.5-18.4,32.1c-2.3,8.2-6.9,22.9-7.6,31.7c-0.1,1,0.7,1.8,1.7,1.7
			c4.8-0.3,12.2-1.5,15.7,0.1c5.1,2.3,12,10.9,20.5,14.7c26.1,11.9,56.2,14,82.8,2c22.2-10.1,36.1-30.8,28.2-54.7
			c-4-12.1-13.3-24-15.8-36.3c-2.8-13.5,6.1-25.7,3.8-39.7c13.1,0,26.2-1.1,39-4c-12.3-2.8-25.1-2.1-37.7-2c-1.2,0-6.1-15.4-9.3-16
			C223,281,205.2,281.5,198.2,288.8z"/>
		<path class="st0" d="M174,433c-1.4,5.9,8.3,21.7,9,27c1,8-6,30-6,29"/>
		<path class="st0" d="M185,465c0,0,12,16.1,12,25"/>
		<path class="st0" d="M185,463c9,1,18,5,25,10"/>
		<path class="st0" d="M214,423c5,0,24.7,31.4,24.8,32.1c1.1,5.7,4.6,8.2,10.4,7.6c0.6-0.1,15.8,4.6,16.4,4.8"/>
		<path class="st0" d="M242,462c5.8,4,11,11,11,19"/>
		<path class="st0" d="M242.6,462.5c-3.7-3.9-27.4-8.5-32.6-8.5"/>
		<path class="st0" d="M218.6,312.1c-15.6-10.3,0.9-12.6,10-13c1.9-0.1,3.4,1.5,3.3,3.4C231.4,308.7,229,319,218.6,312.1z"/>
		<path class="st0" d="M209,328c-14.9,14.9-31.3,28-48,41"/>
		<path class="st0" d="M214,334c-14.1,14.1-32,48-32,48"/>
		<path class="st0" d="M225,341c-8,18-17.3,52.4-18,53"/>
		<path class="st0" d="M234,350c0,0-2.5,30.8-4,44"/>
	</g>
</g>
</svg>
