<?xml version="1.0" encoding="UTF-8"?>
<!DOCTYPE svg PUBLIC "-//W3C//DTD SVG 1.1//EN" "http://www.w3.org/Graphics/SVG/1.1/DTD/svg11.dtd">
<!-- Creator: CorelDRAW X8 -->
<svg xmlns="http://www.w3.org/2000/svg" xml:space="preserve" width="500px" height="500px" version="1.1" style="shape-rendering:geometricPrecision; text-rendering:geometricPrecision; image-rendering:optimizeQuality; fill-rule:evenodd; clip-rule:evenodd"
viewBox="0 0 500 500"
 xmlns:xlink="http://www.w3.org/1999/xlink">
 <defs>
  <style type="text/css">
   <![CDATA[
    .str0 {stroke:black;stroke-width:1.00006}
    .fil0 {fill:none;fill-rule:nonzero}
   ]]>
  </style>
 </defs>
 <g id="Layer_x0020_1">
  <metadata id="CorelCorpID_0Corel-Layer"/>
  <g id="_1909137920416">
   <path class="fil0 str0" d="M290 135c-12,-1 -23,1 -34,6 -2,0 -4,1 -4,3 -1,2 -1,4 1,5 -2,1 -3,2 -5,3 1,2 2,5 2,8 0,0 0,-1 0,-1 1,0 1,1 1,1 1,2 2,4 3,6 -13,5 -26,9 -40,14 -3,1 -6,2 -9,4 -4,3 -7,6 -9,10 -9,11 -18,23 -25,37 -2,4 -3,9 -4,13 0,3 0,6 0,8 -1,7 -6,12 -6,19l20 0c-2,2 1,6 4,8 7,3 14,7 21,10 23,9 48,9 70,1 8,-3 15,-6 21,-12 3,-3 6,-7 9,-10 2,-4 5,-7 6,-12 3,-7 1,-16 -2,-23 -3,-8 -6,-15 -9,-22 -4,-7 -8,-14 -8,-22 1,-5 3,-9 4,-14 1,-6 2,-12 1,-18 13,0 26,-1 39,-4 -13,-3 -26,-2 -40,-2 1,0 -2,-15 -7,-16z"/>
   <path class="fil0 str0" d="M229 286c-1,0 0,-1 1,-1 -1,10 5,19 8,28 1,2 1,3 1,5 0,1 -1,2 -2,3 -2,3 -3,7 -3,11 -1,4 -1,8 -2,12 0,-1 0,-1 0,-2"/>
   <path class="fil0 str0" d="M240 318c0,0 -1,0 -1,0 0,-1 1,-1 1,0 2,5 5,11 9,16 1,1 2,3 3,5 0,1 0,3 0,4"/>
   <path class="fil0 str0" d="M240 316c9,1 18,5 25,10"/>
   <path class="fil0 str0" d="M269 276c-1,0 0,0 1,0 11,11 21,24 27,38 11,2 22,4 33,7 -1,0 -2,0 -3,0"/>
   <path class="fil0 str0" d="M297 316c0,0 0,-1 0,-1 5,5 11,11 11,19"/>
   <path class="fil0 str0" d="M298 315c-2,0 -4,0 -6,-1 -2,-1 -3,-3 -4,-4 -3,-3 -7,-3 -11,-3 -4,0 -8,0 -12,0"/>
   <path class="fil0 str0" d="M287 152c0,4 0,8 -1,12 0,1 0,2 -2,3 0,0 -1,0 -2,0 -4,0 -8,-1 -11,-3 -3,-3 -4,-8 -1,-11 3,-3 13,-1 17,-1z"/>
   <path class="fil0 str0" d="M264 181c-2,2 -4,5 -6,7 -5,5 -10,9 -16,13 -9,7 -17,14 -26,21"/>
   <path class="fil0 str0" d="M269 187c-6,6 -11,14 -15,22 -6,9 -13,19 -20,27l3 -1"/>
   <path class="fil0 str0" d="M280 194c-8,18 -15,36 -22,55 2,0 3,-1 4,-2"/>
   <path class="fil0 str0" d="M289 203c0,0 0,-1 0,-1 0,15 1,30 -5,45 1,0 1,0 1,0"/>
  </g>
 </g>
</svg>
