<?xml version="1.0" encoding="utf-8"?>
<!-- Generator: Adobe Illustrator 19.0.0, SVG Export Plug-In . SVG Version: 6.00 Build 0)  -->
<svg version="1.1" id="Layer_1" xmlns="http://www.w3.org/2000/svg" xmlns:xlink="http://www.w3.org/1999/xlink" x="0px" y="0px"
	 viewBox="-55 147 500 500" style="enable-background:new -55 147 500 500;" xml:space="preserve">
<style type="text/css">
	.st0{fill:none;stroke:#000000;stroke-width:1.0001;}
</style>
<g id="Layer_x0020_1">
	<g id="_1909600552576">
		<path class="st0" d="M234,283c9.7-16.1,26.3-25.9,44.6-29c21.1-3.6,30.9,14.4,33.7,32.2c0,0.1,0.1,0.2,0.3,0.2
			c16.1,1.1,32.4-0.5,48.1,1.6c0.3,0,0.3,0.5,0,0.5c-21.1,1.2-42.2,5.1-62.3,11.9c-8.2,3.1-18.6,7.3-22.6,15.8
			c-4.4,9.4,1.3,16,10.4,17.5c20.8,3.4,44.4-5.6,62.9,8.2c-11.2-1.6-55.5-1.7-67.6,2.4c-1.1,0.4-2.1,1.2-2.6,2.3
			c-1.8,3.9,1.2,9,1.2,13.3"/>
		<path class="st0" d="M322,294.1c-8.4,3.2-15,10-18.2,18.5c-3.1,8.5,1,19.3,11.2,19.3"/>
		<path class="st0" d="M267.1,285.4c1.9,10,15.7,11.5,22.9,6.6c7-7,2-14-5-17C282,273,265.1,274.9,267.1,285.4z"/>
		<path class="st0" d="M235,282c-0.9,2.3-3.2,13.7-5,15c-0.5,0.4-8.5,0.7-12.9,1.5c-0.9,0.2-1.3,1.3-0.6,2l1.5,1.5
			c-9.2,0-30.2,8.9-29.4,20.8c0,0.8-0.4,1.5-1.2,1.6c-8.7,1.7-99.7,102.1-115.2,123.8c-0.7,1,0.4,2.2,1.5,1.6
			c9.7-5.5,33.1-21,28.4-15.3C69.1,459.7,39,487,14,522c34-21,68-42,104-57c-1,2,0,5,2,6c8,2.7,21.2-3.1,28.9-5.1
			c9.8-2.6,19.6-5.4,29.3-8.5c20.5-6.5,40.6-14,60.3-22.8c9.2-4.1,18.3-8.5,27.3-13.1c8.3-4.2,17.7-8.3,23-16.3
			c5.8-8.8,13.3-45.3-5.9-45.3"/>
		<path class="st0" d="M149,459c-0.8,3.6,7.4,16.8,11.4,18.5c6.3,2.8,12.6,5.5,19,8.2l34.9,16.6c2.5,1.1,3.9,3.9,3.1,6.5
			c-3,10.2-7.5,18.7-14.3,26.8c-0.2,0.2,0.1,0.5,0.3,0.3c9.5-8.2,18.2-17.5,19.9-29c0.8-5.7,8.6-6.9,10.9-1.6
			c1.4,3.1,2.1,6.8,2.5,10.1c0.1,1,1.7,1,1.7,0c0.3-4.9-1.6-9.7-5-13.7c-2.4-2.8-1.5-7,1.8-8.6c13-6.1,27.6-9.8,41.8-8.1"/>
		<path class="st0" d="M199,430c0.9,18-12.3,32.4-17.9,48.8c-0.9,2.5,2,4.7,4.2,3.1c5-3.7,10.6-6.7,16.4-8.9c4.4-1.7,9-2.9,13.6-3.6
			c4.1-0.6,10.5,0.7,14.1-0.5c2.9-1,3.8-5.6,5.8-8.7c2.2-3.6,4.9-6.9,8-9.7c6.1-5.6,13.7-9.8,21.8-11.4"/>
		<path class="st0" d="M38,510c-4.3,4.9-14.2,30.8-12,33c3.7,7.3,70-52.2,91.6-71.1c0.5-0.5,1.3,0.2,0.9,0.8
			c-11,15.4-50.8,66-33.5,70.3c5.2,2.6,71.2-66.5,84-82"/>
	</g>
</g>
</svg>
