<?xml version="1.0" encoding="utf-8"?>
<!-- Generator: Adobe Illustrator 19.0.0, SVG Export Plug-In . SVG Version: 6.00 Build 0)  -->
<svg version="1.1" id="Layer_1" xmlns="http://www.w3.org/2000/svg" xmlns:xlink="http://www.w3.org/1999/xlink" x="0px" y="0px"
	 viewBox="-55 147 500 500" style="enable-background:new -55 147 500 500;" xml:space="preserve">
<style type="text/css">
	.st0{fill:none;stroke:#000000;stroke-width:1.0001;}
</style>
<g id="Layer_x0020_1">
	<g id="_1909841735232">
		<path class="st0" d="M203,343c-5-12-17-21-30-22h-3c-0.6-0.3-1.1-0.6-1.6-0.9c-6.3-9.9-13.9-18.4-20.4-28.1c2,9,5,18,10,26
			c3,5,6,9,7,15c1,5-1,11-3,16c0,1-1,2-1,2c-2,1-3,0-4-2c-8-9-19-18-31-20c13,8,24,19,34,31c1,1,1,2,1,4c0,0,0,1,0,2
			c-4,8-12,13-15,20c-3,8-1,16,2,23c7.9,15.9,43.8,56.8,42.2,59.6c-0.2,0.3-0.3,0.5-0.4,0.8c-1.1,3.6-4.7,5.5-7.5,7.3
			c-0.2,0.1-0.4,0.3-0.6,0.5l-11.6,11.6c-0.1,0.1-0.2,0.2-0.2,0.3L155,507"/>
		<path class="st0" d="M202,344c2,4,2,10-1,14c10,4,19,11,24,20c6,9,10,19,12,29c2,6,3,12,2,18c-1,1-1,3-1,4c1,3,3,4,5,6
			c2.4,2.4,3.5,6.7,2.3,10.4c-0.5,1.5,0.3,3.2,1.8,3.9c6.5,3,11.7,7.4,16.9,11.7c6,5,11,10,17,15c7,6,14,13,17,21
			c-12-10-25-17-40-23c-4.1-1.8-9-3.2-13.7-5.1c-3.2-1.3-6,2.7-3.6,5.2c3.2,3.4,7.3,6.1,11.1,8.8c0.1,0.1,0.2,0.2,0.3,0.3
			c4.6,4,8.4,8.9,11.5,14c2.1,3.4-1.9,7.3-5.3,5.1l-0.1-0.1c-0.2-0.1-0.4-0.3-0.6-0.5L237,481c-1-1-3-2-4-2c-2,0-3,0-4,0
			c-0.9,0-1.8,0-2.7-0.8c-0.2-0.2-0.4-0.3-0.6-0.4c-17.9-7-32.8-21-46.7-35.9c-6-7-12-15-16-23c-4-9-7-18-6-28c2-9,7-17,11-25"/>
		<path class="st0" d="M173,334c-1-1-5,0-5,2c-1,3,0,5,2,7c3,1,5,1,8,1c0-1,1-1,2-1c0-1,0-1,0-2c0-2-1-5-2-6c-2-1-5-2-6,0"/>
		<path class="st0" d="M222.3,464.2c-10.9,0-47.2,6.6-62.6,11.5"/>
	</g>
</g>
</svg>
