<?xml version="1.0" encoding="UTF-8"?>
<!DOCTYPE svg PUBLIC "-//W3C//DTD SVG 1.1//EN" "http://www.w3.org/Graphics/SVG/1.1/DTD/svg11.dtd">
<!-- Creator: CorelDRAW X8 -->
<svg xmlns="http://www.w3.org/2000/svg" xml:space="preserve" width="500px" height="500px" version="1.1" style="shape-rendering:geometricPrecision; text-rendering:geometricPrecision; image-rendering:optimizeQuality; fill-rule:evenodd; clip-rule:evenodd"
viewBox="0 0 500 500"
 xmlns:xlink="http://www.w3.org/1999/xlink">
 <defs>
  <style type="text/css">
   <![CDATA[
    .str0 {stroke:black;stroke-width:0.750048}
    .fil0 {fill:none}
   ]]>
  </style>
 </defs>
 <g id="Layer_x0020_1">
  <metadata id="CorelCorpID_0Corel-Layer"/>
  <path class="fil0 str0" d="M191 169c8,-12 22,-19 37,-20 3,0 6,1 9,2 11,3 7,13 11,16 0,-4 6,-6 12,-5 12,3 24,13 30,25 6,12 8,25 7,39 3,0 5,3 5,6 4,0 11,6 15,13 -12,-4 -16,-10 -18,-9 0,4 14,14 19,23 -2,1 -15,-10 -21,-10 1,11 23,25 19,60 -14,-14 -27,-31 -38,-48 -1,-2 -2,-3 -5,-3 -4,0 -7,1 -10,3 0,3 0,7 -3,10 -2,3 -6,5 -9,7 -6,5 -13,9 -20,14 4,2 6,8 4,12"/>
  <path class="fil0 str0" d="M226 291c0,-1 -1,-2 -1,-2 -3,-2 -5,-3 -7,-5 -3,2 -3,6 -2,9 1,3 2,6 2,9"/>
  <path class="fil0 str0" d="M260 257c-9,2 -17,4 -24,7 -6,1 -12,4 -15,10 -6,-2 -10,-3 -15,-5 -3,0 -6,-1 -7,2 -1,0 -2,3 -2,4 0,5 1,11 3,16"/>
  <path class="fil0 str0" d="M206 292c0,-2 0,-5 0,-7 0,-2 0,-5 2,-5 1,-2 4,0 6,0"/>
  <path class="fil0 str0" d="M191 171c1,0 0,-1 -1,0 0,0 0,1 0,2 -6,2 -17,5 -18,8 9,-4 26,-4 31,-6 -1,6 -1,11 11,11 9,-1 12,1 20,1 4,-1 10,-8 10,-12 0,-1 -1,-6 -5,-2 0,-3 3,-2 2,-9 -6,3 -12,6 -18,8 -1,-3 -4,-5 -7,-6 -4,0 -7,3 -8,6 -1,0 -1,1 -1,3 1,2 5,3 7,3 2,0 5,-1 5,-3"/>
  <path class="fil0 str0" d="M172 183c7,1 16,2 23,1"/>
  <path class="fil0 str0" d="M194 187c0,3 0,6 2,9 1,3 2,5 3,8 3,7 0,16 1,25 0,8 6,15 12,20 6,5 14,8 21,10"/>
 </g>
</svg>
