<?xml version="1.0" encoding="UTF-8"?>
<!DOCTYPE svg PUBLIC "-//W3C//DTD SVG 1.1//EN" "http://www.w3.org/Graphics/SVG/1.1/DTD/svg11.dtd">
<!-- Creator: CorelDRAW X8 -->
<svg xmlns="http://www.w3.org/2000/svg" xml:space="preserve" width="500px" height="500px" version="1.1" style="shape-rendering:geometricPrecision; text-rendering:geometricPrecision; image-rendering:optimizeQuality; fill-rule:evenodd; clip-rule:evenodd"
viewBox="0 0 500 500"
 xmlns:xlink="http://www.w3.org/1999/xlink">
 <defs>
  <style type="text/css">
   <![CDATA[
    .str0 {stroke:black;stroke-width:1.00006}
    .fil0 {fill:none;fill-rule:nonzero}
   ]]>
  </style>
 </defs>
 <g id="Layer_x0020_1">
  <metadata id="CorelCorpID_0Corel-Layer"/>
  <g id="_1909841746912">
   <path class="fil0 str0" d="M207 124c-7,4 -12,10 -14,18 -10,0 -20,2 -29,5 -5,2 -10,6 -8,10 10,-8 24,-10 36,-7 -10,3 -21,7 -31,11 10,-2 20,-3 31,-3 2,7 6,14 10,20 -6,2 -10,8 -13,14 -2,7 -3,13 -6,19 -3,6 -7,11 -9,17 -1,5 -1,10 0,15 3,20 18,37 36,47 17,10 37,15 57,19 10,1 20,3 31,1 10,-2 20,-7 24,-17 0,-2 1,-4 2,-5 2,-1 4,-1 5,-1 6,1 13,1 19,1 0,-2 0,-4 0,-5 13,-1 25,9 35,18 2,-3 -1,-7 -3,-9 -10,-11 -22,-21 -33,-30 11,5 22,9 33,12 -8,-8 -19,-14 -30,-18 -4,-2 -9,-3 -12,-6 -2,-2 -4,-5 -6,-7 -7,-12 -14,-25 -23,-36 -9,-11 -21,-21 -34,-26 -9,-3 -18,-4 -26,-9 3,1 10,-24 10,-26 1,-6 2,-19 -2,-24 -8,-15 -40,-5 -50,2z"/>
   <path class="fil0 str0" d="M255 141c1,1 0,3 0,5 1,2 3,5 2,7 -1,2 -2,2 -3,3 -7,6 -20,21 -30,18 -7,-3 -14,-11 -14,-19 1,-8 7,-13 14,-15 6,-2 28,-9 31,1z"/>
   <path class="fil0 str0" d="M276 196c-9,-6 -21,-7 -31,-5 -11,2 -21,7 -29,14 -3,2 -5,5 -7,8 -2,5 0,11 3,16 3,4 8,7 13,10 16,9 34,15 52,16 9,1 18,1 27,3 8,2 16,6 24,10 3,-9 -3,-19 -9,-27 -11,-14 -22,-27 -34,-38"/>
   <path class="fil0 str0" d="M274 283c-1,0 -1,-1 0,-1 0,0 1,1 1,1 2,7 3,14 3,21 2,25 4,50 6,75"/>
   <path class="fil0 str0" d="M236 287c-1,0 -2,1 -2,1 0,1 1,2 1,2 2,6 -2,12 -6,17 -12,15 -22,32 -30,50"/>
   <path class="fil0 str0" d="M199 358c-6,0 -11,-2 -17,-3 -4,-1 -8,-1 -12,-1 -5,0 -11,1 -15,5 -4,3 -5,9 -3,14l1 -2"/>
   <path class="fil0 str0" d="M199 359c-7,3 -13,6 -19,10 -2,1 -4,2 -6,5 -1,2 -1,5 0,6"/>
   <path class="fil0 str0" d="M283 376c1,0 1,0 1,0 -10,-4 -20,-6 -30,-8 -5,0 -9,-1 -14,0 -3,1 -6,2 -8,3"/>
   <path class="fil0 str0" d="M284 371c-7,-3 -15,-3 -22,-1 -7,2 -14,5 -21,9"/>
   <path class="fil0 str0" d="M284 370c10,-6 22,-9 34,-8"/>
  </g>
 </g>
</svg>
