<?xml version="1.0" encoding="UTF-8"?>
<!DOCTYPE svg PUBLIC "-//W3C//DTD SVG 1.1//EN" "http://www.w3.org/Graphics/SVG/1.1/DTD/svg11.dtd">
<!-- Creator: CorelDRAW X8 -->
<svg xmlns="http://www.w3.org/2000/svg" xml:space="preserve" width="500px" height="500px" version="1.1" style="shape-rendering:geometricPrecision; text-rendering:geometricPrecision; image-rendering:optimizeQuality; fill-rule:evenodd; clip-rule:evenodd"
viewBox="0 0 500 500"
 xmlns:xlink="http://www.w3.org/1999/xlink">
 <defs>
  <style type="text/css">
   <![CDATA[
    .str0 {stroke:black;stroke-width:0.750048}
    .fil0 {fill:none}
   ]]>
  </style>
 </defs>
 <g id="Layer_x0020_1">
  <metadata id="CorelCorpID_0Corel-Layer"/>
  <path class="fil0 str0" d="M277 138c5,3 7,8 5,12 8,0 15,3 21,8 -8,-2 -15,-1 -23,1 0,4 -3,7 -2,10 2,2 3,5 4,8l2 20c1,10 3,22 -2,31 -4,9 -14,14 -23,16 -10,2 -19,2 -29,1 -5,0 -11,-1 -15,-3 -7,-3 -11,-10 -16,-16 -1,2 -4,3 -7,2 -2,-2 -3,-4 -2,-6 -23,8 -38,18 -56,35 -2,-6 3,-13 7,-17 13,-11 37,-17 42,-23 -10,1 -19,8 -30,8 6,-7 23,-14 24,-17 5,-3 6,-6 7,-10 2,-12 6,-23 14,-30 6,-6 39,-18 44,-23 2,-18 26,-16 35,-7z"/>
  <path class="fil0 str0" d="M298 159c-6,5 -13,7 -20,6"/>
  <path class="fil0 str0" d="M235 237c-2,1 -4,3 -4,6 1,2 4,2 6,2 6,3 -3,2 -3,6 6,1 11,3 16,4 5,2 11,4 12,9 2,2 1,5 0,8 0,1 -1,4 -2,4"/>
  <path class="fil0 str0" d="M253 259c2,-1 3,2 4,3 1,5 1,11 -3,15"/>
  <path class="fil0 str0" d="M249 258c-1,-1 -3,0 -4,0 -4,1 -8,3 -11,5 -3,2 -5,7 -3,10"/>
  <path class="fil0 str0" d="M259 148c2,-3 5,-3 8,-2 2,1 4,1 4,3 1,2 0,4 -1,6 -2,1 -4,2 -6,2 -3,1 -6,1 -7,-1 -1,-1 -1,-3 0,-5 0,-1 1,-2 2,-3"/>
  <path class="fil0 str0" d="M192 229c-1,0 -3,0 -3,1 -3,1 -4,3 -6,4 -7,9 -14,19 -21,29 -6,9 -12,19 -21,24 -2,1 -4,1 -6,0 0,0 0,-1 0,-2 -2,-9 -2,-20 0,-30"/>
 </g>
</svg>
