<?xml version="1.0" encoding="UTF-8"?>
<!DOCTYPE svg PUBLIC "-//W3C//DTD SVG 1.1//EN" "http://www.w3.org/Graphics/SVG/1.1/DTD/svg11.dtd">
<!-- Creator: CorelDRAW X8 -->
<svg xmlns="http://www.w3.org/2000/svg" xml:space="preserve" width="500px" height="500px" version="1.1" style="shape-rendering:geometricPrecision; text-rendering:geometricPrecision; image-rendering:optimizeQuality; fill-rule:evenodd; clip-rule:evenodd"
viewBox="0 0 500 500"
 xmlns:xlink="http://www.w3.org/1999/xlink">
 <defs>
  <style type="text/css">
   <![CDATA[
    .str0 {stroke:black;stroke-width:1.00006}
    .fil0 {fill:none}
   ]]>
  </style>
 </defs>
 <g id="Layer_x0020_1">
  <metadata id="CorelCorpID_0Corel-Layer"/>
  <path class="fil0 str0" d="M215 109c-11,-8 -24,0 -31,10 -2,2 -2,5 -4,7 -3,4 -3,3 -8,4 -7,1 -19,6 -19,7 3,1 21,0 22,1 -1,1 -21,0 -20,2 1,6 16,9 20,8 8,0 18,-5 19,-14 1,-4 -4,-5 -6,-4 -3,0 -6,2 -9,0"/>
  <path class="fil0 str0" d="M177 150c-3,4 -7,28 -8,30 -4,12 -11,21 -16,32 -8,22 16,38 31,50 18,15 39,25 63,27 21,1 52,2 61,-22 9,7 17,15 26,23 8,8 18,20 29,25 2,-16 -12,-27 -17,-40 15,10 28,22 39,35 7,-24 -20,-41 -31,-57 -7,-10 -9,-22 -13,-33 -4,-10 -11,-20 -19,-28 -16,-17 -38,-28 -58,-40 -11,-7 -20,-12 -26,-23 -6,-10 -14,-16 -23,-21"/>
  <path class="fil0 str0" d="M209 136c-1,-3 -10,0 -12,2 0,1 0,1 0,1 1,7 11,11 17,7 3,-3 -1,-10 -4,-10"/>
  <path class="fil0 str0" d="M224 274c-10,-1 -19,4 -27,8 -8,5 -11,3 -19,2 -18,-2 -27,9 -21,26"/>
  <path class="fil0 str0" d="M182 284c-11,5 -8,22 -5,31"/>
  <path class="fil0 str0" d="M190 287c0,6 1,13 2,19"/>
  <path class="fil0 str0" d="M258 279c0,-1 0,22 -5,26 -4,2 -28,6 -29,10"/>
  <path class="fil0 str0" d="M253 305c5,4 13,19 13,19"/>
  <path class="fil0 str0" d="M255 303c0,0 15,6 22,12"/>
  <path class="fil0 str0" d="M212 177c2,17 4,33 7,50"/>
  <path class="fil0 str0" d="M223 182c4,15 11,33 11,48"/>
  <path class="fil0 str0" d="M236 174c9,15 22,34 22,53"/>
  <path class="fil0 str0" d="M263 169c15,3 30,13 40,25"/>
  <path class="fil0 str0" d="M281 195c14,10 37,25 42,29"/>
  <path class="fil0 str0" d="M271 204c4,6 9,13 13,20 2,4 9,12 9,17"/>
  <path class="fil0 str0" d="M247 214l0 0c2,12 6,24 10,35"/>
  <path class="fil0 str0" d="M271 237c4,10 8,20 13,30"/>
  <path class="fil0 str0" d="M304 230c13,12 24,27 32,43"/>
  <path class="fil0 str0" d="M327 233c9,3 17,20 23,27"/>
 </g>
</svg>
