<?xml version="1.0" encoding="utf-8"?>
<!-- Generator: Adobe Illustrator 19.0.0, SVG Export Plug-In . SVG Version: 6.00 Build 0)  -->
<svg version="1.1" id="Layer_1" xmlns="http://www.w3.org/2000/svg" xmlns:xlink="http://www.w3.org/1999/xlink" x="0px" y="0px"
	 viewBox="-55 147 500 500" style="enable-background:new -55 147 500 500;" xml:space="preserve">
<style type="text/css">
	.st0{fill:none;stroke:#000000;stroke-width:1.0001;}
</style>
<g id="Layer_x0020_1">
	<g id="_1909733424112">
		<path class="st0" d="M126,164c-11,6-17,19-16,32c-43,20-83,44-121,72c27-15,54-30,82-44c23-12,47-23,72-22c4,1,7,1,10,3s5,7,5,11
			c2,14-5,27-15,37s-21,18-31,27c-18,17-29,39-37,62c-6,20-10,43,1,61c8,12,22,20,35,26c29,16,63,31,95,22c8-3,16-7,25-10
			c19-7,40-6,61-6c25,1,50,2,74,3c5.7,0,14.1-1.8,14.1-7.1c0-0.5-0.4-0.9-0.8-1.1c-4.1-1-8.4-2.3-12.7-3.6c-1.3-0.4-0.9-2.3,0.4-2.2
			c12.6,0.8,24.9,0.6,37.6-0.7c1.1-0.1,1.4-1.6,0.4-2.1c-8.3-4.5-17.3-8.2-26.5-10.9c-1.3-0.4-0.9-2.2,0.4-2.2
			c6.2,0.4,12.4,0.7,18.7,0.7c1,0,1.5-1.2,0.8-1.9C386.1,394,365.2,393.7,348,386c-13-5-23-14-34-21c-45-31-100-42-148-67
			c-4-2-9-5-10-10c-3-8,5-16,11-22c17-18,23-46,15-70C174,174,151,150,126,164z"/>
		<path class="st0" d="M132,182c-2-1-5,0-7,1c-1,1-1,3,0,4c0,0,0,0,1,0c5,1,10,1,14-2c-2-2-4-4-6-6"/>
		<path class="st0" d="M151,437c1,13,1,27,1,41c0,4,0,9-1,13c-1,5-5,8-8,12c-27,32-52,65-74,100"/>
		<path class="st0" d="M177,436c-2,0,34,23,51,35c9,7,17,14,25,22c4,5,8,11,12,17c18,26,34,54,48,83"/>
		<path class="st0" d="M306,597c-9,12-21,21-35,27"/>
		<path class="st0" d="M316,602c1,0,2-3,1-4c-6,6-9,14-11,22"/>
		<path class="st0" d="M322,593c0,0-1-1,0-1c0-1,1-1,1-1c10,1,20,3,30,5"/>
	</g>
</g>
</svg>
