<?xml version="1.0" encoding="utf-8"?>
<!-- Generator: Adobe Illustrator 19.0.0, SVG Export Plug-In . SVG Version: 6.00 Build 0)  -->
<svg version="1.1" id="Layer_1" xmlns="http://www.w3.org/2000/svg" xmlns:xlink="http://www.w3.org/1999/xlink" x="0px" y="0px"
	 viewBox="-55 147 500 500" style="enable-background:new -55 147 500 500;" xml:space="preserve">
<style type="text/css">
	.st0{fill:none;stroke:#000000;stroke-width:1.0001;}
</style>
<g id="Layer_x0020_1">
	<path class="st0" d="M243,203c0-7,4-13,9-19c13-16,33-27,54-29l1-1c3,3,5,8,5,13c-3-2-6-5-10-3c-1,1-2,3-3,5c-7,15-12,32-14,49
		c5,0,10,0,16,0c1,0,2,0,3-1c0-1,1-2,1-3c1-8,3-15,4-23c2-8,3-17-1-24"/>
	<path class="st0" d="M240,210c-4-3-11-3-16-1s-9,4-12,7s-4,8-3,13c2,7,10,10,18,11c5,1,11,1,15-3c4-3,5-8,5-12c0-5-2-9-4-14"/>
	<path class="st0" d="M200,227c-3,10,3,22,13,26c-6,4-10,9-13,15c-7,16,0,34-3,51c-2,13-10,25-17,36c-15,26-23,55-32,84c2,1,4,1,7,2
		c25-11,54-13,81-5c1,0,3,1,5,0c5-1,4-8,4-13c-7-36,17-70,18-107c1-21.7-6.8-43.4-4.1-65c0.1-0.6,0.5-1.1,1.1-1.3
		c6.7-2.2,13.2,2.6,17,7.4c7.6,8.3,15.1,16,23.1,24.1c1.3,1.4,3.5-0.4,2.5-2c-4.8-7.5-10.8-14.3-17.3-19.8c-1.2-1-0.4-2.9,1.1-2.8
		c5.8,0.4,12,0.5,18.2,0.5c1.1,0,1.9-1.2,1.5-2.2c-3.4-7.9-4.4-16.9-3.1-25c0.2-1.5,2.2-1.9,2.9-0.6c3,5,8,9.3,11.2,14.8
		c4,6,6,15,0,21c-2,2-6,3-8,7c-4,8,13,15,11,25c-1,10-20,9-21,19c-1,4,4,9,2,13c0,4-4,5-6,8c-8,7-10,18-11,29c-2,26-5,52-7,78"/>
	<path class="st0" d="M283,400c20-18,46-29,72-31c9-1,18-1,26,3c10,4,16,14,20,25c3,10,3,21,4,32c0,8-1,41.2-3,48.4"/>
	<path class="st0" d="M153,398c1,0,3-1,4-3c-7-12-15-24-28-29c-10-4-23-3-34,0c-26,7-49,23-64,44c-16,22-24,49-22,76"/>
	<path class="st0" d="M33,398c-5.7-3.8-10.5-7.6-15.2-12.2c-0.5-0.5-1.1-0.9-1.8-1.3c-3.5-2-6.1-4.7-7-7.5c-5-11,7-22,18-22
		c7.9,0.7,15.3,4.5,21.8,9.6c1.2,0.9,2.8-0.5,2-1.8c-5.9-9.6-11.1-19.7-15.8-29.8c-2-7-4-14-2-20c2.8-10.4,14.5-16.3,25.1-19.4
		c1.2-0.3,2.4,0.1,3.1,1c9.4,12.6,18.8,25.7,28.2,38.5c1.2,1.6-0.9,3.6-2.5,2.3c-18.6-15.6-30-39.1-30.9-63.4c0-5,0-10,2-14
		c3-9,12-15,20-20c5-4,13-8,19-5c3,2,5,5,7,8c8,13,14,28,19,43c8,20,15,39,22,59c-16-23-31-47-35-75c-3-28,9-60,35-70c5-2,10-3,14-1
		c8,2,13,9,17,16c7,15,12,30,15,46"/>
	<path class="st0" d="M9,478c-2-3-6-3-9-1s-5,5-6,8c-19,45-27,95-22,144c3,1,4-2,5-4c10.9-34.6,20.2-70.1,26.3-105.6
		c0.2-1.3-1.6-1.7-2-0.5C-5.3,536.6-11.2,554.4-12,573c-1,23,6,47,24,60c2,2,4,3,6,3c6,1,10-7,11-13c11-43,10.3-134.2,14-132
		c2.5,9,1,57,2,85c0,13,0,27,4,40c1,4,3,8,6,11c3,2,8,3,12,1c1-1,2-3,3-4c20.7-33.9,18.4-76.7,13.9-116.6c-0.1-1.1,1.4-1.4,1.7-0.4
		c5,14.9,6.9,30.3,10.4,45c4,18,11,35,25,46c0-22,0-45,1-67c0-22,0-45,5-66c5-22,16-42,33-56"/>
	<path class="st0" d="M281,415c20-8,42-7,61,1c20,9,36,24,48,41c27,40,34,93,16,138"/>
	<path class="st0" d="M115,550c11,13,23,24,38,33c5,3,10,6,16,7c4.6,0,9.8-1.8,12.8-4.8c0.4-0.4,1.1,0,0.9,0.6
		c-1.6,5.2-4.4,14.3-4.8,17.9c-0.1,0.9,0.3,1.8,1,2.4c2.2,1.7,5.6,0.9,9.1,0c14-4,27-10,40-17c-6,9-11,19-17,29c-1,3-3,6,0,9
		c1,1,2,1,4,2c12,2,24,1,36-4c12-4,22-12,32-22c27-27,45-67,36-105"/>
</g>
</svg>
