<?xml version="1.0" encoding="UTF-8"?>
<!DOCTYPE svg PUBLIC "-//W3C//DTD SVG 1.1//EN" "http://www.w3.org/Graphics/SVG/1.1/DTD/svg11.dtd">
<!-- Creator: CorelDRAW X8 -->
<svg xmlns="http://www.w3.org/2000/svg" xml:space="preserve" width="500px" height="500px" version="1.1" style="shape-rendering:geometricPrecision; text-rendering:geometricPrecision; image-rendering:optimizeQuality; fill-rule:evenodd; clip-rule:evenodd"
viewBox="0 0 500 500"
 xmlns:xlink="http://www.w3.org/1999/xlink">
 <defs>
  <style type="text/css">
   <![CDATA[
    .str0 {stroke:black;stroke-width:1.00006}
    .fil0 {fill:none;fill-rule:nonzero}
   ]]>
  </style>
 </defs>
 <g id="Layer_x0020_1">
  <metadata id="CorelCorpID_0Corel-Layer"/>
  <g id="_2229999042592">
   <path class="fil0 str0" d="M353 89c4,0 8,0 12,0 21,1 42,-14 61,-6 -13,2 -26,4 -37,10 -12,6 -22,16 -26,28 -2,5 -2,12 3,15 3,2 7,2 11,1 12,-2 24,-4 35,-7 -9,9 -24,10 -36,15 -14,5 -26,14 -34,27 -11,18 -12,40 -19,60 -8,24 -25,44 -41,63 -4,5 -8,10 -14,14 -4,3 -9,6 -15,9 -16,8 -34,15 -52,13 -10,-1 -20,-5 -29,-3 -5,1 -9,4 -14,6 -19,9 -40,16 -61,19 4,-7 8,-14 12,-21 -12,-4 -26,-2 -37,5 18,-18 37,-35 55,-52 5,-4 10,-9 13,-14 2,-4 3,-8 4,-13 16,-46 56,-83 103,-94 18,-5 38,-6 55,-12 4,-2 8,-4 10,-7 1,-2 2,-6 2,-9 1,-11 -1,-23 8,-32 8,-8 19,-15 31,-15z"/>
   <path class="fil0 str0" d="M339 104c0,-1 -2,-1 -3,0 -5,3 -9,10 -6,16 2,6 11,8 16,4 3,-2 3,-6 4,-9 0,-2 1,-5 0,-7 -1,-1 -2,-2 -3,-3 -4,-3 -10,-4 -15,-1"/>
   <path class="fil0 str0" d="M175 235c-3,-1 -6,2 -8,5 -4,6 -7,12 -9,19"/>
   <path class="fil0 str0" d="M154 293c7,-12 13,-24 18,-36"/>
   <path class="fil0 str0" d="M169 298c10,-9 17,-21 22,-34"/>
   <path class="fil0 str0" d="M182 257c7,-12 16,-22 27,-29"/>
   <path class="fil0 str0" d="M185 228c0,-2 1,-3 2,-4 11,-9 24,-16 37,-21"/>
   <path class="fil0 str0" d="M201 203c13,-8 27,-14 42,-17"/>
   <path class="fil0 str0" d="M222 220c11,-7 22,-12 35,-15"/>
   <path class="fil0 str0" d="M249 191c9,-3 18,-5 28,-7"/>
   <path class="fil0 str0" d="M257 173c10,-3 21,-5 32,-5"/>
   <path class="fil0 str0" d="M295 191c-9,10 -21,18 -33,24"/>
   <path class="fil0 str0" d="M253 227c-8,10 -18,17 -29,23"/>
   <path class="fil0 str0" d="M250 250c-6,9 -15,15 -25,20"/>
   <path class="fil0 str0" d="M214 284c-7,10 -16,18 -27,23"/>
   <path class="fil0 str0" d="M116 315c0,0 -1,-1 0,-1 6,-7 13,-12 20,-16"/>
   <path class="fil0 str0" d="M131 329c-1,1 -1,0 -1,0 0,-1 0,-1 1,-1 9,-6 19,-11 28,-16 2,-1 5,-3 6,-5"/>
   <path class="fil0 str0" d="M244 289c-3,11 -6,23 -7,35 0,1 -1,2 0,3 0,2 1,3 2,4 12,15 20,34 21,54"/>
   <path class="fil0 str0" d="M217 320c-2,2 -2,5 -3,7 -2,12 -7,23 -13,34 -4,8 -8,16 -12,25"/>
   <path class="fil0 str0" d="M261 385c8,1 14,5 20,8 2,1 4,3 4,5"/>
   <path class="fil0 str0" d="M260 386c3,6 5,13 6,20"/>
   <path class="fil0 str0" d="M260 384c-10,2 -19,5 -28,8"/>
  </g>
 </g>
</svg>
