<?xml version="1.0" encoding="utf-8"?>
<!-- Generator: Adobe Illustrator 19.0.0, SVG Export Plug-In . SVG Version: 6.00 Build 0)  -->
<svg version="1.1" id="Layer_1" xmlns="http://www.w3.org/2000/svg" xmlns:xlink="http://www.w3.org/1999/xlink" x="0px" y="0px"
	 viewBox="-55 147 500 500" style="enable-background:new -55 147 500 500;" xml:space="preserve">
<style type="text/css">
	.st0{fill:none;stroke:#000000;stroke-width:1.0001;}
</style>
<g id="Layer_x0020_1">
	<g id="_2230126440624">
		<path class="st0" d="M144,290c-2,0-4-1-5-2c-8-4-17-8-25-5c-8,4-11,14-11,23c-26,15-52,31-77,47c7,0,13-3,19-6c17-9,34-18,52-27
			c4-2,7-4,12-4c4-1,8,1,11,5c-7,4-12,9-16,16c-1,2-2,4-2,6c0,3,2,5,3,7c9,15,4,36,14,49c7,9,18,12,27,19c2,2,5,4,8,5c3,2,7,1,11,1
			c17-2,34-4,50-11c14.8-6.9,28.7-19.7,31.9-35.5c0.1-0.3,0.3-0.5,0.6-0.5c12.7-1.1,24.4-6,33.3-13.8c0.2-0.1,0.4-0.2,0.6-0.2
			c1.1,0.2,2.8,1,3.7,1"/>
		<path class="st0" d="M143,295c8-7,17-12,27-14c27-5,53,9,77,22c0,0,0,0,0.1,0c5.9,4,22.1,18,23,18c21.8,5,44.6,7,66.4,6
			c0.4,0,0.7,0.3,0.7,0.6c0.3,2.6-3.4,4.4-6.1,4.4c-9.2,1.4-17.9,2.8-26.8,3.9c-0.8,0.1-0.8,1.3,0,1.4c8.6,0.4,17.4,1,25.7,1.7
			c0.1,0,0.2,0,0.2,0.1c2,1,5.9,2,4.9,4.9c0,2-3,3-5,3l-36.2,2.9c-0.4,0-0.7,0.4-0.6,0.8c2.4,12.2,17.2,17.3,22.5,29.3
			c0.2,0.4-0.1,0.9-0.6,1c-13.7,0.6-27.2-6.3-34-17.1"/>
		<path class="st0" d="M123,298c-1,0-2-1-3-2c-2-2-6-1-7,2s0,6,2,8s6,3,9,3c1,0,4-1,5-2c1-2,0-5-1-6c-2-2-4-3-6-3"/>
		<path class="st0" d="M218,396c-1-1,15,8,19,18c-1,14-2,27-5,41c-1,7-2,14-2,22c1,3,1,6,1,9c-2,4-6,6-9,7c-4,1-8,1-12,2
			c-8,1-15,5-20,10"/>
		<path class="st0" d="M224,495c1-1,1-2,0-2c-6,6-12,13-17,20"/>
		<path class="st0" d="M228,492c0-1,0-1,0-2c1,0,1,0,2,0c10,1,21,4,30,8"/>
		<path class="st0" d="M178,423c-1,6,0,12,1,19c0,1,0,2,0,3c-1,1-1,2-2,3c-3,4-7,9-11,13c-7,6-14,11-17,20c-12-5-27-5-40-2
			c1,1,2,1,3,2"/>
		<path class="st0" d="M148,484c0-1,1-1,1-1c1,0,1,0,1,1c5,7,9,14,10,23"/>
		<path class="st0" d="M149,482c6-2,11-3,17-3s12,1,18,2"/>
	</g>
</g>
</svg>
