<?xml version="1.0" encoding="utf-8"?>
<!-- Generator: Adobe Illustrator 19.0.0, SVG Export Plug-In . SVG Version: 6.00 Build 0)  -->
<svg version="1.1" id="Layer_1" xmlns="http://www.w3.org/2000/svg" xmlns:xlink="http://www.w3.org/1999/xlink" x="0px" y="0px"
	 viewBox="-55 147 500 500" style="enable-background:new -55 147 500 500;" xml:space="preserve">
<style type="text/css">
	.st0{fill:none;stroke:#000000;stroke-width:1.0001;}
</style>
<g id="Layer_x0020_1">
	<path class="st0" d="M212,389c-20-8.3-26.2-41-31.4-59.4c-6.9-24.6-10.2-51.2-28.7-70.4c-11-11.4-128-91-136.9-73.3
		c-5.1,7.6,39,25.9,44.9,29.1c14.3,7.9,28.3,16.8,40,28.1c1.1,1.1-0.3,2.8-1.6,2c-30.9-21.5-65.9-36.3-102.5-42.3
		c-1.4-0.2-2,1.6-0.9,2.3c27,17.7,51.8,36.5,77.9,55.7c0.2,0.2,0,0.5-0.3,0.4c-5.9-1.9-24.8-15.3-38.1-22.3
		c-8.3-4.4-31.2-20.6-40.4-18.7c-17.3,3.7,11.7,21.3,16.5,25c14.4,10.7,28.9,21.3,43,32.5c0.4,0.3,0.1,0.9-0.4,0.8
		c-26.8-5.5-54.3-10.8-80.3-4.9c-1.4,0.3-1.5,2.3-0.1,2.7c20.8,6,43.7,4.5,64.4,8.2c0.6,0.1,0.6,0.9,0,0.9
		c-15.3,1.1-30.7-0.3-46.1-1.3c-1.4-0.1-1.9,1.8-0.7,2.5c13.9,7.7,30.9,7.1,45.4,13.1c20.1,8.4,20.7,26.9,21.3,46.1
		c1.4,45.7,15.6,90.5,42,128c-23.4,9.4-46.4,20-70.4,27.9c-24.6,8.1-43,2.5-64.3-11c-0.5-0.3-1.1,0.1-1,0.7
		c2,8.5,8.5,15.5,14.5,21.4c0.2,0.2-0.1,0.5-0.3,0.3C-27,510-37,502.9-40.1,500.7c-0.4-0.3-1,0-1,0.5c-0.3,6.6,3.1,13.2,8.2,17.6
		c0.5,0.5,0,1.3-0.6,1.1c-4.5-1.7-9.1-3.1-14.1-4.9c-0.6-0.2-1.2,0.6-0.7,1c27.5,29.5,82.1-3,113.8-8.1c46.2-7.5,95,0.6,140.5-9.8
		c20-4.6,30.1-13.8,43.1-28.5c13.2-14.8,32-3.7,48.7-8.6c11.1-3.2,17.4-5.7,29.1-3.9c11.2,1.7,22.4,3.7,33.5,5.7
		c23.2,4,46.3,8.1,69.3,12.5c0.5,0.1,0.7-0.6,0.2-0.7c-16.9-6.5-34.3-11.8-51.8-16.2c-16.6-4.1-39.8-4.2-54-13.8
		c-11.6-7.9-20.2-20.8-34.3-9.9c-6.2,4.9-7,8.2-15.8,9.4c-8.4,1.2-17.2-0.9-25.2,3.1c-1.7-11.3-5.7-22.5-11.8-32.2
		c-5.8-9.2-11.2-13.3-5.1-24.5c5.4-9.8,15.7-18.4,22.1-27.7c7.2-10.5,13.2-21.8,16.8-34.1c7.3-25.5-0.5-38.7-22.7-51
		c-21.7-12.1-46.7-17.6-71.4-18.5"/>
</g>
</svg>
