<?xml version="1.0" encoding="utf-8"?>
<!-- Generator: Adobe Illustrator 19.0.0, SVG Export Plug-In . SVG Version: 6.00 Build 0)  -->
<svg version="1.1" id="Layer_1" xmlns="http://www.w3.org/2000/svg" xmlns:xlink="http://www.w3.org/1999/xlink" x="0px" y="0px"
	 viewBox="-55 147 500 500" style="enable-background:new -55 147 500 500;" xml:space="preserve">
<style type="text/css">
	.st0{fill:none;stroke:#000000;stroke-width:1.0001;}
</style>
<g id="Layer_x0020_1">
	<g id="_2230130679216">
		<path class="st0" d="M158,176c0-2,0-4,0-6c-8,0-16,0-24,2c-7,3-14,10-14,18c0,2,0,5-1,7c-1,3-4,5-6,7c-44,30-85,61-125,95l151-82
			c4,18-4,35-11,52c-10,22-20,45-28,68c-2,7-3,16,3,18s13-3,18,1c4,3,1,10-3,14c-3.9,3.9-7.8,9.7-4.3,14.6c0.2,0.2,0.5,0.3,0.8,0.2
			c15.2-5.7,31.3-11.4,47.4-17.1c0.6-0.2,1.2,0.5,0.8,1c-3.2,4.6-5.4,10.5-4.8,15.7c0,0.3,0.3,0.6,0.7,0.6
			c28.8,1.1,57.6,13.1,77.4,34c7-4,16-2,24,1c14.1,4.4,27.4,9.6,40.6,16.2c3.2,1.6,4.7,5.1,4.7,8.7C304.7,487.5,294.8,529,290,571
			c-1,6-2,14-8,16"/>
		<path class="st0" d="M172,399c0.8-2.5-0.4-5-2-6.3c-0.4-0.4-1.1-0.1-1.1,0.5c-1.8,21.3-6.6,92.4-7.4,93.7
			c-21.8,37-56,68.7-84.5,103.1"/>
		<path class="st0" d="M78,593c0-2-4-3-7-3c-20,4-41,8-61,12c1,1,2,1,3,1"/>
		<path class="st0" d="M77,592c-8,10-16,19-23,28c-1,1-1,1-1,2s1,1,1,0"/>
		<path class="st0" d="M78,591c0,0,0,0,1,0l25,20c3,3,7,5,10,3"/>
		<path class="st0" d="M281,590c-18,5-35,11-52,17l3,2"/>
		<path class="st0" d="M278,592l-2,35"/>
		<path class="st0" d="M280,592c16,5,33,8,50,9"/>
		<path class="st0" d="M173,291c16-7,33-13,49-20c23-9,49-21,58-44c6-14,4-30,5-45c1-7,2-14,6-19c4-6,11-9,18-7c3,1,6,3,8,5
			c32,29,65,58,81,98c16,39,13,84,8,126c-3.8,34-9.3,69.7-28.4,98.8c-1.2,1.9-4.1,1.2-4.3-1c-1.8-17.3,2.8-35.1,0.3-52.8
			c-0.1-0.9-1.3-1.1-1.8-0.4c-4.7,7.8-14.2,24.1-15.1,23.9c-1.6-0.4-4-10-8.3-12.7c-0.6-0.4-5.7,9.8-6.6,9.3
			c-3-1.9,1.2-29.5,6.7-43.5c0.3-0.8-0.5-1.6-1.3-1.3c-3,1.2-7.1,0.5-10.3-1.2c-2-1.1-3.6-2.9-4.3-5.1c-1.6-4.6-1.8-10.1-2.6-15
			c-2-13-8-26-11-39c-9-38,2-81-18-115"/>
		<path class="st0" d="M141,188c-4-3-12,1-12,6c-1,6,5,11,11,9c5-2,7-9,3-13c-1-1-2-2-2-1c-1,0,0,2,1,1"/>
		<path class="st0" d="M114,268C78,323-27,450.9-27,452.8c0,0.1,0,0.2,0.1,0.3c2.1,3.9,7,5.8,10.9,4.8c5,0,11-6,11-6l76.7-66.3
			c0.6-0.5,1.5,0.3,1,0.9C53.8,413.1,35.4,439.8,26,471c-1,4-2,8,2,10c3,1,6-2,8-5c13.5-21.7,27.1-42.5,40.6-64
			c0.4-0.7,1.5-0.1,1.2,0.6C68.9,433.9,59.9,454.5,51,476c0,0,0,0,0,0.1c-2,6-3,14.8,2.9,16.9c0.1,0,0.2,0,0.3,0
			c4.9-0.1,42.9-62,55.9-91"/>
	</g>
</g>
</svg>
