<?xml version="1.0" encoding="UTF-8"?>
<!DOCTYPE svg PUBLIC "-//W3C//DTD SVG 1.1//EN" "http://www.w3.org/Graphics/SVG/1.1/DTD/svg11.dtd">
<!-- Creator: CorelDRAW X8 -->
<svg xmlns="http://www.w3.org/2000/svg" xml:space="preserve" width="500px" height="500px" version="1.1" style="shape-rendering:geometricPrecision; text-rendering:geometricPrecision; image-rendering:optimizeQuality; fill-rule:evenodd; clip-rule:evenodd"
viewBox="0 0 500 500"
 xmlns:xlink="http://www.w3.org/1999/xlink">
 <defs>
  <style type="text/css">
   <![CDATA[
    .str0 {stroke:black;stroke-width:1.00006}
    .fil0 {fill:none;fill-rule:nonzero}
   ]]>
  </style>
 </defs>
 <g id="Layer_x0020_1">
  <metadata id="CorelCorpID_0Corel-Layer"/>
  <g id="_2230130679216">
   <path class="fil0 str0" d="M213 29c0,-2 0,-4 0,-6 -8,0 -16,0 -24,2 -7,3 -14,10 -14,18 0,2 0,5 -1,7 -1,3 -4,5 -6,7 -44,30 -85,61 -125,95l151 -82c4,18 -4,35 -11,52 -10,22 -20,45 -28,68 -2,7 -3,16 3,18 6,2 13,-3 18,1 4,3 1,10 -3,14 -4,4 -8,10 -4,15 16,-6 33,-12 50,-18 -4,5 -7,12 -6,18 29,1 58,13 78,34 7,-4 16,-2 24,1 16,5 31,11 46,19 -5,44 -11,88 -16,132 -1,6 -2,14 -8,16"/>
   <path class="fil0 str0" d="M227 252c1,-3 -1,-6 -3,-7 -2,22 -1,44 1,67 -1,-1 -3,1 -2,3 0,2 1,3 2,5 2,6 -2,13 -7,18 -28,35 -57,70 -86,105"/>
   <path class="fil0 str0" d="M133 446c0,-2 -4,-3 -7,-3 -20,4 -41,8 -61,12 1,1 2,1 3,1"/>
   <path class="fil0 str0" d="M132 445c-8,10 -16,19 -23,28 -1,1 -1,1 -1,2 0,1 1,1 1,0"/>
   <path class="fil0 str0" d="M133 444c0,0 0,0 1,0l25 20c3,3 7,5 10,3"/>
   <path class="fil0 str0" d="M336 443c-18,5 -35,11 -52,17l3 2"/>
   <path class="fil0 str0" d="M333 445c0,0 0,-1 0,-1 -1,0 -1,1 -1,2l-1 34c0,-1 0,-1 1,-2"/>
   <path class="fil0 str0" d="M335 445c16,5 33,8 50,9"/>
   <path class="fil0 str0" d="M228 144c16,-7 33,-13 49,-20 23,-9 49,-21 58,-44 6,-14 4,-30 5,-45 1,-7 2,-14 6,-19 4,-6 11,-9 18,-7 3,1 6,3 8,5 32,29 65,58 81,98 16,39 13,84 8,126 -4,36 -10,74 -32,104 -2,-21 -2,-42 0,-63 -6,10 -12,20 -17,31 0,-7 -4,-14 -10,-17 0,5 -2,9 -5,13 -1,-17 1,-34 8,-50 -3,5 -12,3 -16,-1 -3,-5 -3,-12 -4,-18 -2,-13 -8,-26 -11,-39 -9,-38 2,-81 -18,-115"/>
   <path class="fil0 str0" d="M196 41c-4,-3 -12,1 -12,6 -1,6 5,11 11,9 5,-2 7,-9 3,-13 -1,-1 -2,-2 -2,-1 -1,0 0,2 1,1"/>
   <path class="fil0 str0" d="M169 121c-36,55 -77,106 -123,154 -7,7 -14,15 -17,25 -1,2 -1,4 -1,6 2,4 7,6 11,5 5,0 8,-3 11,-6l81 -70c-20,28 -40,56 -50,89 -1,4 -2,8 2,10 3,1 6,-2 8,-5 15,-24 30,-47 45,-71 -10,24 -20,47 -30,71 -2,6 -3,15 3,17 5,0 8,-4 11,-7 17,-27 32,-55 45,-84"/>
  </g>
 </g>
</svg>
