<?xml version="1.0" encoding="utf-8"?>
<!-- Generator: Adobe Illustrator 19.0.0, SVG Export Plug-In . SVG Version: 6.00 Build 0)  -->
<svg version="1.1" id="Layer_1" xmlns="http://www.w3.org/2000/svg" xmlns:xlink="http://www.w3.org/1999/xlink" x="0px" y="0px"
	 viewBox="-55 147 500 500" style="enable-background:new -55 147 500 500;" xml:space="preserve">
<style type="text/css">
	.st0{fill:none;stroke:#000000;stroke-width:1.0001;}
</style>
<g id="Layer_x0020_1">
	<g id="_2230108703808">
		<path class="st0" d="M84,204c-2,2-4,3-5,4c-1,2-2,4-2,6c-3,9-5,18-7,27c5-8,13-14,22-17c0,5,6,7,11,8c14,4,23,20,25,35
			c3,15,0,30,1,45c0,10,2,20,3,30c5,35,7,70,5,105c-16-1-33,1-48,6c-4,2-8,4-11,7s-4,8-2,11c0-8,11-10,19-10c21,0,43,1,64,1
			c6,11,18,20,31,23c7-4,15,5,19,12c19.9,35.9,39.9,71.8,60.8,107.7c0.1,0.2,8.2-1.8,8.2-1.9c6.5-33.7,7.8-69.1,5.5-102.9
			c0-0.4,0.5-0.5,0.6-0.1c3.7,19,11.5,36.8,19.5,55.2c0.1,0.3,0.6,0.3,0.7,0c5.6-19.4,2.8-58.2,1.9-60.4c0,0,0-0.1,0-0.1
			C305.8,492.6,289,457,289,457c-1-2,6-33,4-43c-8-40-19-82-44-115c-16-19-36-34-55-49c4-13,2-29-7-40c-5-7-13-12-22-15
			c-4-1-8-1-12-2c-3-2-2-4-8-5C126,184,100,195,84,204z"/>
		<path class="st0" d="M128,205c-5-4-13-6-19-3s-8,12-3,16c2,3,6,3,10,2c3,0,6-2,9-4c1-1,2-2,3-3c0-1,0-2-1-3c-1-4-3-8-5-11"/>
	</g>
</g>
</svg>
