<?xml version="1.0" encoding="UTF-8"?>
<!DOCTYPE svg PUBLIC "-//W3C//DTD SVG 1.1//EN" "http://www.w3.org/Graphics/SVG/1.1/DTD/svg11.dtd">
<!-- Creator: CorelDRAW X8 -->
<svg xmlns="http://www.w3.org/2000/svg" xml:space="preserve" width="500px" height="500px" version="1.1" style="shape-rendering:geometricPrecision; text-rendering:geometricPrecision; image-rendering:optimizeQuality; fill-rule:evenodd; clip-rule:evenodd"
viewBox="0 0 500 500"
 xmlns:xlink="http://www.w3.org/1999/xlink">
 <defs>
  <style type="text/css">
   <![CDATA[
    .str0 {stroke:black;stroke-width:0.562678}
    .fil0 {fill:none}
   ]]>
  </style>
 </defs>
 <g id="Layer_x0020_1">
  <metadata id="CorelCorpID_0Corel-Layer"/>
  <g id="_2731467240112">
   <path class="fil0 str0" d="M317 158c1,-6 6,-12 9,-18 5,-8 10,-17 14,-26 5,-8 9,-20 5,-30 -2,-5 -6,-8 -11,-11 -32,-26 -64,-52 -103,-64 17,15 36,31 54,46 -16,-5 -31,-12 -45,-18 -16,-6 -34,-7 -48,-1 20,16 51,14 65,35 -22,-6 -44,-11 -67,-11 -6,0 -13,2 -13,8 0,3 4,5 7,7 12,9 38,22 38,23 -14,-3 -33,-3 -39,3 -3,2 -2,7 1,9 3,3 8,4 9,7 7,5 10,15 9,23 -2,9 -5,16 -6,25 -6,22 -1,45 3,67 -25,-4 -50,-10 -73,-14 -17,-3 -33,-6 -48,1 13,9 31,16 45,15 0,3 -13,5 -7,19 1,5 6,3 4,13 0,20 -4,49 -11,64 32,1 46,-37 94,-45 5,11 6,21 8,35 2,0 4,4 4,7 0,3 -2,6 -2,10 2,2 3,3 5,4 9,9 14,18 17,28 3,10 0,22 -6,31 5,7 3,16 -1,24 -3,8 -10,14 -16,18 -15,13 -28,26 -38,44 25,-2 44,-27 66,-35 -3,13 -9,26 -15,39 19,-3 26,-29 45,-32 -3,7 -4,14 -7,23 9,3 16,-4 22,-11 7,-8 16,-15 23,-11 22,-21 32,-54 41,-84 4,-7 6,-16 6,-25 0,-13 -6,-22 -12,-33 -10,-19 -19,-41 -25,-63 8,-7 18,-13 28,-13 12,0 22,9 20,20 8,-4 9,-13 8,-20 -3,-7 -8,-13 -15,-18 -10,-7 -30,-8 -36,-18 -8,-11 -9,-35 -6,-47l0 0 0 0z"/>
   <path class="fil0 str0" d="M350 228c-1,-2 -1,-2 -1,-3 -4,-2 -9,0 -10,4 -2,5 6,8 8,6 3,-3 2,-7 0,-12"/>
  </g>
 </g>
</svg>
