<?xml version="1.0" encoding="UTF-8"?>
<!DOCTYPE svg PUBLIC "-//W3C//DTD SVG 1.1//EN" "http://www.w3.org/Graphics/SVG/1.1/DTD/svg11.dtd">
<!-- Creator: CorelDRAW X8 -->
<svg xmlns="http://www.w3.org/2000/svg" xml:space="preserve" width="500px" height="500px" version="1.1" style="shape-rendering:geometricPrecision; text-rendering:geometricPrecision; image-rendering:optimizeQuality; fill-rule:evenodd; clip-rule:evenodd"
viewBox="0 0 500 500"
 xmlns:xlink="http://www.w3.org/1999/xlink">
 <defs>
  <style type="text/css">
   <![CDATA[
    .str0 {stroke:black;stroke-width:1.00006}
    .fil0 {fill:none}
   ]]>
  </style>
 </defs>
 <g id="Layer_x0020_1">
  <metadata id="CorelCorpID_0Corel-Layer"/>
  <path class="fil0 str0" d="M149 73c3,-3 -2,-8 -7,-9 -49,-16 -92,35 -77,51 4,2 2,-12 14,-12 6,3 23,11 41,8 23,0 22,38 27,52 10,40 51,67 90,64 0,7 -14,58 -1,63 -8,42 -20,52 -27,51 -19,-7 -45,-8 -50,15"/>
  <path class="fil0 str0" d="M221 345c11,5 41,0 35,24"/>
  <path class="fil0 str0" d="M247 293c42,0 25,-31 41,-57 21,-2 46,3 63,19 29,24 44,89 84,119 3,-3 -4,-47 -14,-63 -6,-10 -41,-47 -37,-50 6,0 42,48 50,53 8,8 1,-21 -6,-28 -11,-35 -53,-54 -50,-62 8,10 35,15 56,9 -8,-17 -41,-20 -45,-27 -8,-9 -15,-25 -27,-37 -16,-19 -35,-37 -54,-53 -29,-23 -43,-28 -80,-28 -15,0 -32,0 -49,3 -16,0 -11,-17 -21,-18"/>
  <path class="fil0 str0" d="M100 81c10,-2 20,-2 30,-1 -2,10 -13,16 -24,14 -3,-1 -5,-2 -7,-4 -1,-3 -1,-6 1,-8"/>
 </g>
</svg>
