<?xml version="1.0" encoding="UTF-8"?>
<!DOCTYPE svg PUBLIC "-//W3C//DTD SVG 1.1//EN" "http://www.w3.org/Graphics/SVG/1.1/DTD/svg11.dtd">
<!-- Creator: CorelDRAW X8 -->
<svg xmlns="http://www.w3.org/2000/svg" xml:space="preserve" width="500px" height="500px" version="1.1" style="shape-rendering:geometricPrecision; text-rendering:geometricPrecision; image-rendering:optimizeQuality; fill-rule:evenodd; clip-rule:evenodd"
viewBox="0 0 500 500"
 xmlns:xlink="http://www.w3.org/1999/xlink">
 <defs>
  <style type="text/css">
   <![CDATA[
    .str0 {stroke:black;stroke-width:0.750048}
    .fil0 {fill:none}
   ]]>
  </style>
 </defs>
 <g id="Layer_x0020_1">
  <metadata id="CorelCorpID_0Corel-Layer"/>
  <path class="fil0 str0" d="M337 41c0,-3 -5,-7 -9,-8 -4,-1 -8,0 -12,1 -17,5 -34,12 -39,28 -1,3 -2,7 -3,10 -3,5 -11,6 -15,10 -10,9 -10,23 -5,39 3,-2 2,-16 4,-19 14,-5 34,-7 46,-5 1,14 -11,44 -27,55 -35,23 -47,20 -75,63 -15,22 -24,46 -35,70 -5,12 -10,25 -15,37 -5,11 -10,21 -9,33 0,22 -22,3 -27,32 11,-11 25,-21 38,-26 -15,21 -20,46 -33,69 -2,4 -4,10 0,14 4,4 26,3 34,6 8,-24 32,-41 41,-66 1,-2 2,-6 5,-7 1,0 3,0 5,0 1,0 3,-2 5,-3 12,-10 22,-23 28,-37 3,2 6,3 9,4 0,3 0,6 1,9 8,-1 19,-1 24,7 3,9 0,25 -7,32 -7,-2 -15,-3 -22,-1 -2,8 11,6 15,9 -6,4 -46,12 -34,15"/>
  <path class="fil0 str0" d="M338 39c25,6 43,32 40,58 -3,22 -32,56 -30,66 1,7 6,11 9,15 10,16 6,35 1,52 -10,38 -21,77 -47,105 -3,5 -4,2 -4,10 -2,14 -30,22 -24,38 19,-4 39,-3 42,0 4,4 0,12 5,14"/>
  <path class="fil0 str0" d="M285 393c13,-3 35,10 31,18"/>
  <path class="fil0 str0" d="M291 65c-1,-1 -1,-2 -1,-3 5,-3 9,-6 14,-8 1,0 4,-1 5,0 2,1 2,3 2,4 1,4 1,8 1,12 0,1 0,2 0,3 -1,1 -2,1 -3,1 -4,1 -8,1 -11,0 -4,-1 -7,-5 -7,-9"/>
  <path class="fil0 str0" d="M299 61c-1,-1 -2,-1 -3,-2 -1,3 0,5 3,7 1,2 5,2 8,1 1,-3 -1,-6 -4,-7"/>
 </g>
</svg>
