<?xml version="1.0" encoding="UTF-8"?>
<!DOCTYPE svg PUBLIC "-//W3C//DTD SVG 1.1//EN" "http://www.w3.org/Graphics/SVG/1.1/DTD/svg11.dtd">
<!-- Creator: CorelDRAW X8 -->
<svg xmlns="http://www.w3.org/2000/svg" xml:space="preserve" width="500px" height="500px" version="1.1" style="shape-rendering:geometricPrecision; text-rendering:geometricPrecision; image-rendering:optimizeQuality; fill-rule:evenodd; clip-rule:evenodd"
viewBox="0 0 500 500"
 xmlns:xlink="http://www.w3.org/1999/xlink">
 <defs>
  <style type="text/css">
   <![CDATA[
    .str0 {stroke:black;stroke-width:1.00006}
    .fil0 {fill:none;fill-rule:nonzero}
   ]]>
  </style>
 </defs>
 <g id="Layer_x0020_1">
  <metadata id="CorelCorpID_0Corel-Layer"/>
  <g id="_2230130675120">
   <path class="fil0 str0" d="M332 33c0,-4 -5,-8 -9,-9 -4,-1 -9,0 -13,1 -17,5 -35,13 -40,29 -1,4 -2,8 -4,11 -3,5 -9,7 -14,10 -11,10 -9,27 -6,41 1,-6 1,-13 2,-19 16,-5 33,-7 50,-6 -5,21 -10,44 -28,57 -6,4 -14,7 -20,10 -25,13 -44,33 -59,56 -15,23 -25,48 -36,73 -5,13 -11,26 -16,39 -5,11 -10,22 -9,34 0,2 1,4 0,7 0,4 -3,8 -6,11 -10,0 -19,7 -22,16 11,-12 24,-21 39,-28 -11,24 -23,48 -34,72 -2,5 -4,11 0,15 2,2 5,2 8,3 9,1 18,2 27,3 9,-25 34,-43 43,-69 1,-2 2,-6 5,-7 1,0 3,0 5,0 2,0 4,-2 6,-3 12,-10 23,-24 29,-39 3,2 6,3 9,4 0,4 0,7 1,10 9,-1 20,-1 25,7 1,3 2,6 1,10 0,8 -3,17 -8,24 -7,-3 -16,-4 -23,-1 -1,4 3,7 6,7 3,1 7,0 10,-1 -12,1 -23,5 -33,12 -3,1 -6,6 -3,7"/>
   <path class="fil0 str0" d="M332 33c-1,0 -2,-1 -1,-1 0,-1 1,-1 2,-1 26,6 45,33 42,60 -3,22 -19,41 -28,61 -1,3 -3,6 -3,8 1,7 6,11 9,16 10,16 6,36 1,54 -10,39 -22,80 -49,109 -1,2 -3,3 -3,5 -1,2 -1,4 -1,6 -1,8 -9,13 -15,18 -6,5 -13,13 -10,21 13,-1 25,-1 37,-1 3,0 5,0 6,1 5,4 1,13 6,15"/>
   <path class="fil0 str0" d="M278 400c11,-3 25,2 31,13 1,1 2,4 1,6"/>
   <path class="fil0 str0" d="M284 58c-1,-1 -1,-2 -1,-3 5,-4 9,-7 15,-9 1,0 4,-1 5,0 2,1 2,3 2,4 1,5 1,9 1,13 0,1 0,2 0,3 -1,1 -2,1 -3,1 -4,1 -8,1 -12,0 -4,-1 -7,-5 -7,-9 1,0 1,1 2,1"/>
   <path class="fil0 str0" d="M292 53c-1,-1 -2,-1 -3,-2 -1,3 0,6 3,8 2,2 6,2 9,1 1,-3 -1,-7 -4,-8"/>
  </g>
 </g>
</svg>
