<?xml version="1.0" encoding="UTF-8"?>
<!DOCTYPE svg PUBLIC "-//W3C//DTD SVG 1.1//EN" "http://www.w3.org/Graphics/SVG/1.1/DTD/svg11.dtd">
<!-- Creator: CorelDRAW X8 -->
<svg xmlns="http://www.w3.org/2000/svg" xml:space="preserve" width="500px" height="500px" version="1.1" style="shape-rendering:geometricPrecision; text-rendering:geometricPrecision; image-rendering:optimizeQuality; fill-rule:evenodd; clip-rule:evenodd"
viewBox="0 0 500 500"
 xmlns:xlink="http://www.w3.org/1999/xlink">
 <defs>
  <style type="text/css">
   <![CDATA[
    .str0 {stroke:black;stroke-width:0.750048}
    .fil0 {fill:none}
   ]]>
  </style>
 </defs>
 <g id="Layer_x0020_1">
  <metadata id="CorelCorpID_0Corel-Layer"/>
  <path class="fil0 str0" d="M42 55c-8,-1 -16,3 -20,9 -3,6 -3,16 1,22 0,-12 14,-18 24,-16 10,2 19,11 26,19 5,26 5,54 0,80 -8,-8 -22,-1 -31,7 -12,8 -23,17 -25,31 -1,6 0,13 2,19 3,15 8,30 13,46 5,9 9,18 16,25 17,14 42,9 62,17 3,18 7,35 13,51 3,8 8,18 18,18 10,-6 17,-18 18,-31 1,-12 -2,-25 -6,-36 14,4 31,-7 42,1 4,3 7,7 10,12 10,20 14,43 13,65 12,2 24,-5 30,-15 8,-9 10,-22 11,-33 2,-11 2,-21 2,-33 19,1 37,-3 55,-9 12,-5 23,-11 36,-14 10,-1 22,3 32,4 36,6 62,5 108,-2 -25,-14 -62,-31 -78,-34 23,-5 46,-5 68,0 -2,-9 -11,-18 -19,-22 -9,-4 -29,-3 -29,-5 17,-4 31,-14 43,-26 -25,-3 -51,0 -74,9 -9,-11 -26,-6 -39,-11 -4,-1 -8,-5 -11,-9 -42,-33 -96,-52 -150,-51 -27,3 -51,5 -67,-12 -5,-20 -1,-46 -9,-54l20 -8c-22,-9 -1,-25 -5,-42 -5,5 -26,-2 -29,-3 -9,-4 -16,-5 -25,-4 -20,3 -38,16 -46,35l0 0z"/>
  <path class="fil0 str0" d="M141 379c-4,21 0,35 1,53"/>
  <path class="fil0 str0" d="M144 436c-28,0 -40,6 -59,14 -5,0 -7,11 -6,19"/>
  <path class="fil0 str0" d="M140 446c-17,11 -35,39 -25,39"/>
  <path class="fil0 str0" d="M154 446c4,0 14,16 14,26"/>
  <path class="fil0 str0" d="M237 392c-1,16 -1,33 -2,49 0,2 1,4 2,3"/>
  <path class="fil0 str0" d="M243 445c20,1 51,9 37,23"/>
  <path class="fil0 str0" d="M245 455c7,8 8,18 6,30"/>
  <path class="fil0 str0" d="M227 454c-11,-2 -29,6 -28,12"/>
  <path class="fil0 str0" d="M79 49c-2,-4 -8,-4 -11,-1 -3,3 -3,9 0,13 2,4 6,6 10,7 5,2 12,2 14,-2 2,-3 2,-7 0,-10 -1,-3 -4,-6 -7,-9 -2,-1 -5,-2 -6,-1"/>
 </g>
</svg>
