<?xml version="1.0" encoding="UTF-8"?>
<!DOCTYPE svg PUBLIC "-//W3C//DTD SVG 1.1//EN" "http://www.w3.org/Graphics/SVG/1.1/DTD/svg11.dtd">
<!-- Creator: CorelDRAW X8 -->
<svg xmlns="http://www.w3.org/2000/svg" xml:space="preserve" width="500px" height="500px" version="1.1" style="shape-rendering:geometricPrecision; text-rendering:geometricPrecision; image-rendering:optimizeQuality; fill-rule:evenodd; clip-rule:evenodd"
viewBox="0 0 500 500"
 xmlns:xlink="http://www.w3.org/1999/xlink">
 <defs>
  <style type="text/css">
   <![CDATA[
    .str0 {stroke:black;stroke-width:1.00006}
    .fil0 {fill:none}
   ]]>
  </style>
 </defs>
 <g id="Layer_x0020_1">
  <metadata id="CorelCorpID_0Corel-Layer"/>
  <path class="fil0 str0" d="M420 71c3,-1 3,-4 3,-6 -1,-2 -1,-2 -2,-3 -8,-6 -23,-8 -28,1"/>
  <path class="fil0 str0" d="M389 63c-14,6 -24,19 -28,33 -1,4 -1,7 -1,10 0,1 0,1 0,1 2,6 0,10 -8,9 -6,5 -14,7 -21,12 -12,10 -19,15 -34,20 -18,5 -31,19 -46,30 -14,11 -28,20 -39,35 -12,14 -21,30 -33,44 -26,31 -56,61 -83,92 5,2 18,-15 51,-25 -16,27 -80,39 -109,81 41,-2 118,-46 128,-45l-85 59c10,-1 75,-27 111,-48 17,-9 31,-14 50,-19 11,-3 30,-21 41,-19 1,0 2,1 2,2 -1,3 5,7 6,8 3,8 3,58 3,76 0,1 0,1 1,2l17 2c1,0 1,0 2,0 11,-15 11,-33 16,-50 4,-17 13,-22 25,-33 7,-7 9,-17 17,-23 5,-5 13,-6 18,-11 13,-11 16,-29 27,-41 12,-16 28,-21 36,-41 6,-15 12,-37 7,-53 -6,-18 -18,-26 -20,-46 -2,-19 3,-44 -14,-57"/>
  <path class="fil0 str0" d="M334 364c-2,21 -4,40 -3,61 15,-2 31,0 45,3 1,1 2,1 2,2 2,4 3,7 4,11 0,3 -3,5 -5,3 -22,-11 -54,-15 -75,1 -1,0 -1,-1 -1,-1 1,-4 0,-9 -3,-11 -9,-9 -40,10 -46,3 -1,-1 -1,-2 0,-2 4,-2 17,-9 22,-15"/>
  <path class="fil0 str0" d="M395 122c1,0 1,0 1,0 15,4 45,-10 30,-29 -12,-14 -34,7 -36,21 0,1 3,5 5,8z"/>
  <path class="fil0 str0" d="M365 89c0,0 2,-1 3,-1 3,7 4,16 4,25 0,1 -1,2 -1,2 -4,0 -7,-2 -10,-5"/>
  <path class="fil0 str0" d="M376 111c-7,0 -7,31 -8,36 6,-6 15,-14 19,-22 0,-3 0,-6 -2,-6"/>
  <path class="fil0 str0" d="M392 191c-3,9 -7,19 -13,27"/>
  <path class="fil0 str0" d="M412 189c-4,9 -15,23 -15,33"/>
  <path class="fil0 str0" d="M437 191c-8,12 -17,25 -26,36"/>
  <path class="fil0 str0" d="M420 236c-6,10 -15,21 -23,29"/>
  <path class="fil0 str0" d="M393 247c-4,8 -10,15 -14,22"/>
  <path class="fil0 str0" d="M379 238c-6,0 -16,23 -18,27"/>
  <path class="fil0 str0" d="M356 254c0,0 -23,24 -25,26"/>
  <path class="fil0 str0" d="M346 291c-1,0 -9,8 -14,14"/>
  <path class="fil0 str0" d="M365 295c-2,3 -20,20 -16,24"/>
  <path class="fil0 str0" d="M383 290c-6,4 -11,11 -16,16"/>
  <path class="fil0 str0" d="M368 277c-5,2 -11,6 -12,11"/>
 </g>
</svg>
