<?xml version="1.0" encoding="UTF-8"?>
<!DOCTYPE svg PUBLIC "-//W3C//DTD SVG 1.1//EN" "http://www.w3.org/Graphics/SVG/1.1/DTD/svg11.dtd">
<!-- Creator: CorelDRAW X8 -->
<svg xmlns="http://www.w3.org/2000/svg" xml:space="preserve" width="500px" height="500px" version="1.1" style="shape-rendering:geometricPrecision; text-rendering:geometricPrecision; image-rendering:optimizeQuality; fill-rule:evenodd; clip-rule:evenodd"
viewBox="0 0 500 500"
 xmlns:xlink="http://www.w3.org/1999/xlink">
 <defs>
  <style type="text/css">
   <![CDATA[
    .str0 {stroke:black;stroke-width:0.750048}
    .fil0 {fill:none}
   ]]>
  </style>
 </defs>
 <g id="Layer_x0020_1">
  <metadata id="CorelCorpID_0Corel-Layer"/>
  <path class="fil0 str0" d="M234 99c-20,-10 -45,-10 -65,0 -2,1 -4,2 -6,4 -1,3 -1,6 -2,9 0,8 -1,17 1,24 1,9 9,17 15,18 -16,11 -15,28 -21,47 0,7 3,13 4,20 4,27 -8,56 -4,82 0,5 1,8 5,9 15,-9 11,-34 13,-40 4,4 -5,22 13,23 4,0 9,-3 13,-3 0,-3 1,-5 3,-6"/>
  <path class="fil0 str0" d="M218 154c-5,1 -8,7 -9,12 -2,5 -2,11 -2,16 0,9 -2,17 -3,26 -2,17 2,33 3,50 2,13 0,26 2,40 1,23 8,46 14,68 4,17 9,25 27,33 -7,-7 -11,-24 -11,-33 3,6 12,18 23,21 1,-3 2,-7 0,-11 4,1 15,2 19,-4 2,-1 3,-3 4,-5 21,-42 32,-91 29,-138 -1,-24 -4,-47 2,-68 4,2 2,7 2,11 -1,7 2,14 8,17 10,3 20,7 30,9 11,2 23,2 31,-4l-20 -11c7,1 16,-2 20,-8 -17,1 -28,-18 -44,-23 -5,-1 -9,-1 -13,-1 -35,-2 -68,-19 -91,-47"/>
  <path class="fil0 str0" d="M191 116c-3,-8 -11,-9 -17,-3 -1,4 -1,8 2,12 2,5 9,7 14,4 5,-3 6,-12 1,-16"/>
  <path class="fil0 str0" d="M222 116c0,-4 -2,-4 -5,-4 -6,2 -13,7 -13,14 3,8 16,10 22,3 4,-4 3,-12 -2,-14"/>
  <path class="fil0 str0" d="M186 117c-2,0 -4,2 -5,4 0,3 2,5 4,5 2,-1 2,-5 1,-6"/>
  <path class="fil0 str0" d="M216 124c-1,-2 -2,-2 -3,-2 -2,0 -2,3 -2,5 1,0 5,1 6,0 1,-1 1,-5 0,-6"/>
  <path class="fil0 str0" d="M197 128c-2,3 -4,12 -2,17 3,-3 5,-10 3,-14"/>
 </g>
</svg>
