<?xml version="1.0" encoding="utf-8"?>
<!-- Generator: Adobe Illustrator 19.0.0, SVG Export Plug-In . SVG Version: 6.00 Build 0)  -->
<svg version="1.1" id="Layer_1" xmlns="http://www.w3.org/2000/svg" xmlns:xlink="http://www.w3.org/1999/xlink" x="0px" y="0px"
	 viewBox="-55 147 500 500" style="enable-background:new -55 147 500 500;" xml:space="preserve">
<style type="text/css">
	.st0{fill:none;stroke:#000000;stroke-width:1.0001;}
</style>
<g id="Layer_x0020_1">
	<g id="_2230130682960">
		<path class="st0" d="M160,247c-10,12-7,29-3,44c-13,1-18-16-29-23s-27-1-39,6c-42.4,27.6-71.2,71.8-92.1,117.1
			c-0.2,0.5,0.4,0.9,0.7,0.5c5.6-5.3,27-30.5,31.4-31.7c4.6-2.3-21.2,34.3-22.8,40c-0.1,0.5,0.4,0.8,0.8,0.5l29.4-24.5
			c0.4-0.3,1,0.2,0.7,0.6c-4,6-7.3,12.1-9,18.9c-0.1,0.3,0.1,0.6,0.4,0.6c4.6-0.2,32.1-18.5,43.5-25.1c5-4,10-8,16-9c5-2,10-1,16-1
			c21,1,43,5,63,13c2,4-1,8-4,11c-28,26.1-53.3,53.1-76.9,82.6c-1.2,1.6,0.5,3.7,2.3,2.9c6.1-2.8,11.9-5.3,18.1-7.3
			c1.5-0.5,2.8,0.9,2.4,2.4c-2,6.1-3.5,12.7-4.4,19.4c-0.2,1.4,1.2,2.5,2.5,2c8.5-3.3,16.5-7.2,23.7-11.8c1.3-0.8,3,0.2,2.8,1.8
			c-0.6,5.6-1,11.1-0.2,16.2c0.2,1.4,1.8,2,2.9,1.2c2.6-1.8,5.6-4.1,8.6-6.3c0.1-0.1,0.1-0.1,0.2-0.1c1.9-1,3.8-2.8,6.6-2
			c0.2,0,0.3,0.1,0.5,0.2c3,1.8,3,7.6,4.9,9.9c0.7,0.9,2,0.9,2.8,0.1c2.6-2.5,5.3-4.7,8.3-6.7c1.1-0.8,2.7-0.1,2.9,1.2
			c0.4,2.9,3.5,5.3,7,5.3c2.6,0,5.1-1.2,7.4-3.2c1-0.8,2.6-0.4,2.9,0.8c1,3.1,4.1,5.8,7.3,5.4c0.2,0,0.4-0.1,0.6-0.2
			c2.7-1.5,4.9-4.8,5.6-7.9c0.3-1.4,1.9-1.9,3-1.1c4.7,3.7,11.1,5.6,17.1,5.3c1.1,0,1.9-1,1.8-2.1c-2.2-23.3-9.1-45.7-18.8-67.1
			c-6-13-13-25-15-39c8-1,16-5,22-10c3,3,8,4,12,3c4-2,7-4,11-6c6-3,12-3,18-4c14-2,29-4,43-6c12-2,24-4,36-2c5,1,11,3,16,0
			c2-1,3-3,6-4s7,1,10,2c14,7,29,13,43,19c-6-17-25-24-40-32c-34-16-61-44-85-73c-4-4-7-8-13-9c-7-1-13,4-18,9c-17,15-38,26-60,31
			c1-10,2-20,3-31c1-7,5-22,2-29C191,231,167,238,160,247z"/>
		<path class="st0" d="M158,260c0-1,1-2,2-1c4,2,9,5,10,10c1,1,0,3-1,4c-1,0-1,0-2,0c-6,0-11-4-13-9c1,0,2-1,3-1"/>
		<path class="st0" d="M171,280c2,4,4,7,7,9c1-4,1-8,0-12"/>
		<path class="st0" d="M191,264c-2,0-5,0-7,2s-2,5-1,7c2,2,5,3,7,1s2-5,0-7"/>
	</g>
</g>
</svg>
