<?xml version="1.0" encoding="UTF-8"?>
<!DOCTYPE svg PUBLIC "-//W3C//DTD SVG 1.1//EN" "http://www.w3.org/Graphics/SVG/1.1/DTD/svg11.dtd">
<!-- Creator: CorelDRAW X8 -->
<svg xmlns="http://www.w3.org/2000/svg" xml:space="preserve" width="500px" height="500px" version="1.1" style="shape-rendering:geometricPrecision; text-rendering:geometricPrecision; image-rendering:optimizeQuality; fill-rule:evenodd; clip-rule:evenodd"
viewBox="0 0 500 500"
 xmlns:xlink="http://www.w3.org/1999/xlink">
 <defs>
  <style type="text/css">
   <![CDATA[
    .str0 {stroke:black;stroke-width:1.00006}
    .fil0 {fill:none;fill-rule:nonzero}
   ]]>
  </style>
 </defs>
 <g id="Layer_x0020_1">
  <metadata id="CorelCorpID_0Corel-Layer"/>
  <path class="fil0 str0" d="M78 79c-9,-15 -25,-25 -42,-29 3,19 9,37 19,54 0,9 6,17 9,25 2,7 1,14 2,21 3,18 12,34 25,46 12,13 27,23 42,32 8,4 16,10 16,18 1,5 -1,9 -2,13 -9,23 -15,47 -18,72 -1,7 -2,15 -7,20 -4,3 -9,5 -13,8 -3,3 -5,9 -1,12 5,4 13,-4 19,-2 2,0 4,1 6,0 0,0 1,-1 1,-2 18,-38 27,-79 29,-121 20,-2 41,-3 62,-5 17,-1 35,-2 53,-1 2,0 5,0 8,2 1,1 2,2 3,3 22,34 33,75 30,116 -1,17 -5,34 -17,47 -2,2 -5,5 -6,8 -1,3 0,7 4,8 1,-4 4,-8 7,-11 4,10 17,14 26,9 3,-13 -2,-27 -2,-40 -1,-14 2,-27 6,-40l9 -34c1,-4 2,-8 4,-12 2,-4 4,-8 7,-11 17,-25 29,-52 37,-81 0,2 -1,4 -2,6 1,-3 3,-6 4,-8"/>
  <path class="fil0 str0" d="M179 243c19,27 30,60 31,93 0,6 0,11 -3,15 -2,4 -6,7 -5,12 -3,-3 -8,-4 -11,-3 -4,1 -7,3 -11,2 -3,-1 -5,-5 -3,-8 2,-3 6,-4 9,-1 -2,-3 -2,-6 0,-8 2,-3 5,-4 7,-6 1,0 2,-1 2,-2 1,-1 0,-2 0,-4 -6,-14 -11,-28 -17,-43 -3,-10 -7,-20 -15,-28"/>
  <path class="fil0 str0" d="M75 76c9,-4 19,-5 29,-3 0,-17 10,-35 25,-44 19,12 25,41 13,61 -1,1 -3,3 -3,6 -1,8 13,12 14,21 42,4 84,8 126,13 42,4 85,9 125,24 5,2 10,5 14,9 4,5 6,11 7,18 3,18 5,37 6,56 1,10 1,20 2,30 2,9 5,18 7,26 17,52 28,104 36,157 0,3 0,7 -1,9 -2,4 -9,5 -13,3 -18,-6 -20,-34 -38,-41 -9,-4 -20,-2 -28,-7 -13,-8 -11,-27 -16,-41 -4,-11 -13,-21 -14,-33 -1,-13 9,-24 14,-36 10,-27 -4,-58 9,-83"/>
  <path class="fil0 str0" d="M102 104c0,-4 3,-8 6,-10 4,-2 8,-3 12,-4 1,0 1,0 2,1 1,0 2,1 2,2 1,3 0,6 -2,8 -2,2 -5,4 -7,5 -2,1 -4,2 -6,2 -3,0 -5,-1 -6,-3"/>
  <path class="fil0 str0" d="M73 104c-4,-2 -9,-5 -12,-2 -3,2 -3,7 -1,10 3,2 7,3 11,1 1,0 2,-1 2,-2 2,-3 0,-6 -2,-9"/>
  <path class="fil0 str0" d="M77 100c-3,11 -9,21 -16,30 -4,5 -9,10 -8,16 0,2 1,4 2,6 2,4 5,9 10,9 1,0 2,0 4,-1 18,-5 36,-13 51,-24"/>
 </g>
</svg>
