<?xml version="1.0" encoding="UTF-8"?>
<!DOCTYPE svg PUBLIC "-//W3C//DTD SVG 1.1//EN" "http://www.w3.org/Graphics/SVG/1.1/DTD/svg11.dtd">
<!-- Creator: CorelDRAW X8 -->
<svg xmlns="http://www.w3.org/2000/svg" xml:space="preserve" width="500px" height="500px" version="1.1" style="shape-rendering:geometricPrecision; text-rendering:geometricPrecision; image-rendering:optimizeQuality; fill-rule:evenodd; clip-rule:evenodd"
viewBox="0 0 500 500"
 xmlns:xlink="http://www.w3.org/1999/xlink">
 <defs>
  <style type="text/css">
   <![CDATA[
    .str0 {stroke:black;stroke-width:1.00006}
    .fil0 {fill:none;fill-rule:nonzero}
   ]]>
  </style>
 </defs>
 <g id="Layer_x0020_1">
  <metadata id="CorelCorpID_0Corel-Layer"/>
  <path class="fil0 str0" d="M230 215c6,-5 1,-15 -5,-20 -6,-4 -14,-7 -17,-15 9,4 17,8 26,12 1,0 3,1 5,1 3,0 5,-2 8,-3 8,-4 17,-5 25,-2 -2,-7 1,-15 8,-18 -3,13 2,28 13,36 2,-3 7,-5 11,-3 3,-14 16,-23 29,-30 32,-18 64,-35 98,-51 11,-6 24,-11 37,-11 -4,5 -11,7 -18,9 -14,7 -24,24 -22,40 -5,-4 -12,-1 -16,4 -4,4 -5,11 -5,16 -4,27 -8,54 -6,81 -8,-3 -16,-4 -24,-4 -4,1 -9,2 -12,4 -5,4 -7,10 -9,16 -4,14 -8,29 -9,44 -1,8 -2,17 -5,25 -4,8 -11,15 -20,14 0,10 0,20 0,29 -11,-11 -25,-19 -40,-23 -4,-1 -8,-2 -11,-4 -1,-1 -2,-3 -3,-5 -4,-6 -8,-13 -12,-19 -3,6 -6,13 -9,19 -4,-3 -4,-10 -1,-15 2,-5 5,-10 4,-15 0,-3 -2,-5 -4,-7 -9,-11 -20,-20 -32,-27 -6,-4 -12,-7 -19,-7 -13,-1 -25,6 -34,15 -8,10 -13,22 -19,33 -6,-21 -14,-43 -30,-58 -21,-19 -52,-22 -80,-18 7,-2 13,-7 19,-10 7,-3 13,-6 20,-9 11,-5 22,-11 33,-16 10,-4 21,-4 32,-5 15,-2 29,-3 44,-3 17,-1 33,-1 50,0z"/>
  <path class="fil0 str0" d="M240 206c0,-1 0,-2 0,-3 2,2 5,2 7,3 2,2 3,6 2,9 -5,-1 -9,-5 -10,-10"/>
  <path class="fil0 str0" d="M272 199c0,0 -1,0 -1,1 -3,3 -2,8 0,11 0,0 1,1 1,1 1,0 2,-1 3,-2 1,-3 1,-7 -1,-10 0,-1 -1,-1 -1,-1"/>
  <path class="fil0 str0" d="M271 222c-1,-3 -3,-5 -6,-6 -3,-2 -6,-4 -9,-4 -3,6 -6,13 -4,19 0,1 0,1 0,1 1,0 1,-1 0,0"/>
  <path class="fil0 str0" d="M252 222c-1,0 -1,-1 0,0 1,2 2,4 4,5 0,-5 -2,-9 -4,-13"/>
  <path class="fil0 str0" d="M262 215c0,3 1,7 2,10 2,-2 3,-5 3,-7"/>
 </g>
</svg>
