<?xml version="1.0" encoding="UTF-8"?>
<!DOCTYPE svg PUBLIC "-//W3C//DTD SVG 1.1//EN" "http://www.w3.org/Graphics/SVG/1.1/DTD/svg11.dtd">
<!-- Creator: CorelDRAW X8 -->
<svg xmlns="http://www.w3.org/2000/svg" xml:space="preserve" width="500px" height="500px" version="1.1" style="shape-rendering:geometricPrecision; text-rendering:geometricPrecision; image-rendering:optimizeQuality; fill-rule:evenodd; clip-rule:evenodd"
viewBox="0 0 500 500"
 xmlns:xlink="http://www.w3.org/1999/xlink">
 <defs>
  <style type="text/css">
   <![CDATA[
    .str0 {stroke:black;stroke-width:1.00006}
    .fil0 {fill:none;fill-rule:nonzero}
   ]]>
  </style>
 </defs>
 <g id="Layer_x0020_1">
  <metadata id="CorelCorpID_0Corel-Layer"/>
  <path class="fil0 str0" d="M110 161c-4,4 -8,8 -9,13 -2,6 0,11 2,17 4,12 8,24 15,35 10,16 25,28 42,37 7,4 14,7 21,9 -3,15 -7,30 -12,45 -9,-1 -19,6 -22,15 5,1 10,1 15,2 3,0 5,0 8,-1 8,-1 12,-10 15,-18 4,-12 9,-25 13,-37 3,22 5,47 -7,65 -2,2 -3,5 -2,7 2,-1 4,-2 6,-3 1,2 2,4 1,7 5,-1 9,-3 11,-6 2,-3 2,-6 3,-8 2,-21 5,-41 7,-61 26,4 52,2 77,-6 4,12 11,22 20,30 -10,15 -22,29 -36,42 -7,-2 -15,2 -18,8 4,0 7,-1 10,-1 0,1 2,4 4,3l1 6c10,-3 17,-12 24,-20 6,-6 13,-12 18,-19 5,-8 9,-18 9,-28 2,15 1,30 -3,44 -2,1 -5,2 -7,3 -1,2 -2,6 0,8l6 -4c-1,3 1,6 4,7 3,1 6,0 9,-1 5,-16 4,-32 3,-48 0,-15 -1,-30 -2,-45 2,7 3,14 4,20 2,-1 4,-2 6,-3 -1,6 5,12 8,18 2,6 1,13 -1,19 -3,10 -5,19 -8,28 -1,4 -1,10 2,11 2,1 4,1 5,1 21,-4 37,-22 44,-42 3,-9 5,-19 3,-28 -1,-5 -3,-10 -4,-15 -2,-8 -1,-16 -2,-24 -1,-20 -8,-39 -15,-58 -4,-8 -7,-16 -12,-22 -6,-7 -13,-12 -21,-15 -14,-7 -30,-9 -45,-9 -7,0 -15,1 -22,2 -26,3 -52,5 -79,5 -10,0 -17,-2 -26,-4 -10,-2 -22,-1 -32,2 -12,4 -22,9 -31,17z"/>
  <path class="fil0 str0" d="M105 183c-2,-2 -2,-6 -1,-9 1,-2 3,-5 4,-8 2,-2 4,-5 5,-8 4,0 8,1 11,3 2,1 3,4 4,6 2,4 4,8 6,12 2,0 5,-1 4,-3"/>
  <path class="fil0 str0" d="M159 174c2,-12 12,-22 24,-24 2,0 4,0 6,1 2,2 2,6 2,9 0,4 1,8 1,11 0,4 0,8 -2,11"/>
  <path class="fil0 str0" d="M107 196c6,-1 11,-4 15,-7 5,-2 12,-3 16,-1 5,3 7,9 8,14 0,1 1,1 1,1 0,0 0,-1 0,0"/>
  <path class="fil0 str0" d="M156 201c0,-4 2,-8 5,-11 3,-2 7,-3 11,-4 11,-1 24,2 31,12 0,0 0,-1 1,-1"/>
  <path class="fil0 str0" d="M137 221c-1,1 -1,3 -1,5 1,3 5,4 8,5 6,1 11,1 16,-1 6,-1 11,-5 13,-10"/>
  <path class="fil0 str0" d="M148 219c1,-1 3,-1 4,-1 2,0 5,1 6,2 1,2 -1,5 -3,6 -2,1 -5,2 -7,1 -2,-2 -2,-5 0,-6"/>
  <path class="fil0 str0" d="M129 198c0,-1 -1,-2 -3,-2 -1,0 -2,2 -2,3 0,2 0,3 1,4 1,1 2,2 2,2 3,1 7,-1 7,-4 0,-3 -4,-5 -7,-5"/>
  <path class="fil0 str0" d="M173 195c-3,-1 -6,0 -7,3 0,1 -1,1 -1,2 0,3 3,5 6,4 3,-1 3,-5 1,-7"/>
  <path class="fil0 str0" d="M348 212c2,-1 4,2 4,4 0,2 -1,4 -2,6 -6,8 -13,19 -14,29 5,-12 9,-25 12,-39z"/>
  <path class="fil0 str0" d="M150 328c-2,-1 -4,-1 -6,-2 2,-5 9,-9 14,-7"/>
  <line class="fil0 str0" x1="189" y1="347" x2="188" y2= "347" />
  <path class="fil0 str0" d="M188 347c-2,-2 -4,-4 -3,-6 1,-1 2,-2 3,-2 2,-2 5,-3 8,-5"/>
 </g>
</svg>
