<?xml version="1.0" encoding="utf-8"?>
<!-- Generator: Adobe Illustrator 23.0.1, SVG Export Plug-In . SVG Version: 6.00 Build 0)  -->
<svg version="1.1" id="Layer_1" xmlns="http://www.w3.org/2000/svg" xmlns:xlink="http://www.w3.org/1999/xlink" x="0px" y="0px"
	 viewBox="0 0 253.6 190.2" style="enable-background:new 0 0 253.6 190.2;" xml:space="preserve">
<style type="text/css">
	.st0{fill:none;stroke:#000000;}
</style>
<g id="Layer_x0020_1">
	<g id="_2614249094432">
		<path class="st0" d="M240.8,74.6c-6.7-11.9-18.7-20.6-32-23.7c-7.2-1.7-14.2-1.1-21.6-0.7c-4,0.2-8.1,0.3-12-0.7
			c-4.5-1.2-8.1-3.9-12.3-5.8c-14.9-6.8-31.5-1-46.6,2.1c-7.5,1.5-14.6,3.1-18.5-5c-3-6.2-3.8-13.3-5.8-19.9
			c-1.7-5.9-4.4-11.7-9.6-15.3C76,1.2,67.2,0.6,59.6,0.5C44,0.3,25.8,4,13.2,13.8C0.4,23.7-0.8,42,1.3,56.9
			c2.3,16.5,9.6,31.9,17.9,46.2c4.5,7.7,10.5,15.1,13.8,23.4c3.5,8.6,2.3,18-0.5,26.6c-5,15.2-15.5,28.5-29.2,36.7
			c16.5,0.5,32.4-8,42.6-20.8c12-15.1,12.7-33.4,8.7-51.6c-3.9-17.5-16-40,1.7-53.5c3.4-2.6,8.3-6.8,12.9-6
			c4.1,0.8,7.5,4.8,10.6,7.3c5.8,4.7,16.3,10.3,22.4,2.8c2.5,10.4,4,22.9,11.7,30.9c11.4,11.9,30,10.4,44.6,7.1
			c18.8-4.3,36-9.1,54.9-2.5c9,3.1,16.1,9.7,24.8,12.9c7.7,2.8,13.8-2,14.9-9.7c1.3-9.4-5.5-17.1-8.6-25.5c-1.3-3.6-1.8-8.5-5.1-11
			c-2.3-1.8-7.4-2.2-8.3,1.4"/>
		<path class="st0" d="M236,92c4.2-6.3-7-8.6-10.8-7.8c-5.2,1.2-9.8,6.8-6,11.9c3,4.1,10.9,5.9,15.6,4.3c4.5-1.6,8-10.8,0.8-10.9"/>
		<path class="st0" d="M195.9,61.5c2.5-3.5-0.8-10.2-0.6-14.2c0.3-5.3,2.1-10.7,3.9-15.7c1.6-4.5,3.6-8.6,6.9-12
			c2.8-2.9,7-5.3,7.7-9.6"/>
		<path class="st0" d="M225.9,16.1c4,0,1,4.7-0.1,5.7c-2.7,2.3-7.3,4.9-10.6,2.5c2-1.2,3.9-2.9,5.8-4.4
			C221.8,19.3,224.7,16.1,225.9,16.1z"/>
		<path class="st0" d="M208.8,40.6c8.6-5.2,18.6-8.1,28.7-8.1"/>
		<path class="st0" d="M193.7,102.5c-7.2,17.6,12.8,25,19.9,37.5"/>
		<path class="st0" d="M193.9,127.1c3.1,10.3,14.7,15.8,19.5,25.4"/>
		<path class="st0" d="M185.8,125.9c-2.3,7.8-3.6,16-3.8,24.1"/>
		<path class="st0" d="M123.1,52.2c5.4-5.5,4.3-13.9,5.2-21c1.1-8.5,5.8-13.7,12.5-18.6"/>
		<path class="st0" d="M134.5,50c0.8-8.6,3.2-17.1,7.1-24.9"/>
		<path class="st0" d="M142.5,47.5c3.2-5.4,7.1-10.5,11.5-15"/>
		<path class="st0" d="M122.8,103.2c-7.5,0.8-13.5,7.5-19.8,11c-7.1,4-14.9,6.9-23,8.4"/>
		<path class="st0" d="M123.5,106.1c-2,5.6-2.1,11-2.7,16.8c-0.5,4.6-1.9,10.2-6.7,12"/>
		<path class="st0" d="M134.9,108c0-0.6-0.1-1.2-0.1-1.8c4.7,10.8,3.9,23.9-2.2,34"/>
	</g>
</g>
</svg>
