<?xml version="1.0" encoding="UTF-8"?>
<!DOCTYPE svg PUBLIC "-//W3C//DTD SVG 1.1//EN" "http://www.w3.org/Graphics/SVG/1.1/DTD/svg11.dtd">
<!-- Creator: CorelDRAW X8 -->
<svg xmlns="http://www.w3.org/2000/svg" xml:space="preserve" width="20cm" height="20cm" version="1.1" style="shape-rendering:geometricPrecision; text-rendering:geometricPrecision; image-rendering:optimizeQuality; fill-rule:evenodd; clip-rule:evenodd"
viewBox="0 0 20000 20000"
 xmlns:xlink="http://www.w3.org/1999/xlink">
 <defs>
  <style type="text/css">
   <![CDATA[
    .str0 {stroke:black;stroke-width:35.28}
    .fil0 {fill:none;fill-rule:nonzero}
   ]]>
  </style>
 </defs>
 <g id="Layer_x0020_1">
  <metadata id="CorelCorpID_0Corel-Layer"/>
  <g id="_2614249142592">
   <path class="fil0 str0" d="M4655 10774c-377,-2 -760,166 -985,470 -117,158 -180,402 -39,539 164,159 430,42 641,-45 599,-248 1324,-163 1849,217 164,119 309,264 485,364 178,102 381,153 585,173 486,48 1024,-107 1300,-509 251,-365 239,-841 288,-1280 50,-440 227,-935 646,-1078 407,-139 857,142 1078,512 220,370 276,810 374,1229 50,214 117,434 269,592 222,230 569,275 888,295 450,30 969,7 1253,-342 113,-138 172,-311 221,-482 171,-590 239,-1252 -46,-1795 -385,-732 -1268,-1019 -2065,-1239 -646,-179 -1293,-357 -1940,-536 -220,-61 -467,-144 -559,-353 -95,-215 24,-468 188,-636 359,-370 912,-493 1426,-452 514,42 1003,225 1492,389 251,85 512,166 777,151 271,-15 527,-128 769,-250 466,-233 966,-590 985,-1111 -309,631 -963,1060 -1657,1167 -218,34 -441,38 -657,-2 -252,-47 -488,-154 -726,-247 -594,-232 -1236,-390 -1868,-305 -632,84 -1252,447 -1517,1027 -72,157 -116,336 -70,502 41,146 147,266 262,365 377,322 870,475 1357,569 487,94 985,138 1460,279 476,142 940,399 1205,818 266,419 278,1021 -66,1378 -68,71 -156,133 -254,130 -73,-3 -141,-41 -196,-89 -460,-393 -175,-1189 -489,-1706 -237,-392 -744,-510 -1200,-560 -359,-39 -726,-57 -1080,17 -355,74 -698,249 -916,538 -418,555 -277,1346 -515,1998 -40,108 -99,222 -205,268 -64,28 -138,27 -208,22 -504,-33 -921,-234 -1332,-510 -353,-237 -772,-478 -1208,-482z"/>
   <path class="fil0 str0" d="M4377 11176c-33,-78 -146,-96 -218,-51 -71,45 -106,132 -118,216 -5,36 -6,74 5,108 33,97 152,136 254,130 114,-5 227,-50 315,-123 20,-17 39,-36 47,-61 14,-42 -7,-87 -31,-125 -68,-109 -186,-212 -312,-184"/>
  </g>
 </g>
</svg>
