<?xml version="1.0" encoding="UTF-8"?>
<!DOCTYPE svg PUBLIC "-//W3C//DTD SVG 1.1//EN" "http://www.w3.org/Graphics/SVG/1.1/DTD/svg11.dtd">
<!-- Creator: CorelDRAW X8 -->
<svg xmlns="http://www.w3.org/2000/svg" xml:space="preserve" width="500px" height="500px" version="1.1" style="shape-rendering:geometricPrecision; text-rendering:geometricPrecision; image-rendering:optimizeQuality; fill-rule:evenodd; clip-rule:evenodd"
viewBox="0 0 500 500"
 xmlns:xlink="http://www.w3.org/1999/xlink">
 <defs>
  <style type="text/css">
   <![CDATA[
    .str0 {stroke:black;stroke-width:1.00006}
    .fil0 {fill:none;fill-rule:nonzero}
   ]]>
  </style>
 </defs>
 <g id="Layer_x0020_1">
  <metadata id="CorelCorpID_0Corel-Layer"/>
  <g id="_2779339963200">
   <path class="fil0 str0" d="M102 49c-8,10 -9,24 -7,37 -16,0 -31,7 -42,19 13,-7 28,-13 43,-16 8,9 20,16 33,17 3,19 6,39 8,58 2,10 3,20 6,29 6,21 18,39 31,57 7,10 15,19 25,27 28,19 67,12 96,-5 27,-17 49,-42 61,-71 3,-7 6,-15 14,-17 2,-1 5,0 8,0 25,2 51,-2 73,-13 -24,1 -48,2 -72,3 22,-1 45,-7 65,-17 -22,-1 -44,1 -65,6 17,-2 33,-10 46,-23 -17,4 -35,8 -51,14 -6,2 -12,4 -19,3 -10,-1 -17,-10 -24,-17 -39,-41 -101,-61 -157,-49 -3,0 -6,1 -9,0 -4,-3 -4,-9 -5,-14 -2,-27 -36,-56 -58,-28z"/>
   <path class="fil0 str0" d="M120 59c-3,0 -5,3 -7,6 -3,6 -1,14 5,18 6,3 15,0 16,-7 1,-4 -2,-8 -5,-12 -2,-3 -5,-5 -9,-5"/>
   <path class="fil0 str0" d="M145 74c8,8 8,20 8,31 1,28 14,55 26,81 11,22 23,46 45,57 16,8 35,8 53,5 14,-2 27,-7 39,-15 11,-9 19,-22 20,-36"/>
   <path class="fil0 str0" d="M238 292c1,0 1,-3 -1,-3 1,9 5,18 12,25 1,1 2,2 3,4 1,2 0,5 -1,8 -6,16 -9,33 -10,50 -1,16 0,33 -7,48 -13,-2 -28,-1 -41,2"/>
   <path class="fil0 str0" d="M221 416c-10,-3 -20,-5 -30,-8 0,0 -1,-1 -1,-1 0,-1 1,-1 1,0"/>
   <path class="fil0 str0" d="M258 289c3,2 6,4 9,7 4,3 8,6 11,10 5,6 8,13 11,21 12,31 22,63 31,96 -7,3 -14,8 -20,14"/>
   <path class="fil0 str0" d="M305 418c-14,-2 -30,-1 -45,2"/>
  </g>
 </g>
</svg>
