<?xml version="1.0" encoding="UTF-8"?>
<!DOCTYPE svg PUBLIC "-//W3C//DTD SVG 1.1//EN" "http://www.w3.org/Graphics/SVG/1.1/DTD/svg11.dtd">
<!-- Creator: CorelDRAW X8 -->
<svg xmlns="http://www.w3.org/2000/svg" xml:space="preserve" width="500px" height="500px" version="1.1" style="shape-rendering:geometricPrecision; text-rendering:geometricPrecision; image-rendering:optimizeQuality; fill-rule:evenodd; clip-rule:evenodd"
viewBox="0 0 500 500"
 xmlns:xlink="http://www.w3.org/1999/xlink">
 <defs>
  <style type="text/css">
   <![CDATA[
    .str0 {stroke:black;stroke-width:1.00006}
    .fil0 {fill:none;fill-rule:nonzero}
   ]]>
  </style>
 </defs>
 <g id="Layer_x0020_1">
  <metadata id="CorelCorpID_0Corel-Layer"/>
  <path class="fil0 str0" d="M22 69c19,-13 47,-16 68,-4 21,12 31,41 20,62 -6,-7 -15,-9 -24,-12 -20,-4 -40,-9 -60,-14 14,16 34,26 54,27 -2,15 -10,29 -20,40 10,-3 19,-5 29,-8 -1,6 -2,12 -4,18 5,-3 10,-5 14,-8 1,7 1,13 1,19 2,-1 4,-1 6,-2 4,2 2,8 0,12 -15,24 -35,45 -45,72 -13,37 -5,96 13,130 23,45 53,58 100,66 71,12 104,11 175,-3 40,-8 1,-54 -14,-69 66,-49 158,-107 154,-202 -1,-21 -14,-39 -34,-19 -12,12 -23,25 -34,39 10,-28 19,-60 3,-84 -14,-22 -35,-17 -51,0 -11,16 -21,31 -29,35 5,-12 9,-25 7,-48 -13,-55 -48,6 -61,24 8,-31 -2,-63 -33,-24 -13,16 -24,34 -33,53 -11,-19 -35,-29 -56,-24 8,-32 21,-79 -4,-107 -9,-10 -23,-15 -37,-13 -19,1 -31,18 -49,20 -12,2 -21,2 -32,7 -10,4 -25,16 -24,17z"/>
  <path class="fil0 str0" d="M137 55c-4,-2 -9,-2 -14,-1 -19,4 -21,20 -5,26 9,3 19,1 26,-5 8,-6 5,-11 0,-17 -3,-3 -7,-6 -10,-3"/>
  <path class="fil0 str0" d="M28 71c14,-1 28,-2 42,-2 19,0 -5,34 -10,39"/>
 </g>
</svg>
