<?xml version="1.0" encoding="UTF-8"?>
<!DOCTYPE svg PUBLIC "-//W3C//DTD SVG 1.1//EN" "http://www.w3.org/Graphics/SVG/1.1/DTD/svg11.dtd">
<!-- Creator: CorelDRAW X8 -->
<svg xmlns="http://www.w3.org/2000/svg" xml:space="preserve" width="500px" height="500px" version="1.1" style="shape-rendering:geometricPrecision; text-rendering:geometricPrecision; image-rendering:optimizeQuality; fill-rule:evenodd; clip-rule:evenodd"
viewBox="0 0 500 500"
 xmlns:xlink="http://www.w3.org/1999/xlink">
 <defs>
  <style type="text/css">
   <![CDATA[
    .str0 {stroke:black;stroke-width:1.00006}
    .fil0 {fill:none;fill-rule:nonzero}
   ]]>
  </style>
 </defs>
 <g id="Layer_x0020_1">
  <metadata id="CorelCorpID_0Corel-Layer"/>
  <path class="fil0 str0" d="M139 46c-8,7 -13,16 -18,26 -6,2 -11,6 -15,11 8,-3 15,-6 23,-9 0,0 -13,8 -16,15 7,1 12,-9 19,-8 3,0 32,22 34,28 4,9 -7,16 -14,22 -35,29 -28,79 -21,118 4,23 10,74 18,93 15,39 145,45 149,-18 23,3 24,64 19,81 -5,17 -21,32 -39,30 -2,5 5,9 11,10 22,3 69,4 63,-31 38,21 85,2 98,-39 -23,-7 -45,8 -68,10 -6,1 -9,0 -12,-6 -11,-19 -14,-42 -26,-60 -3,-5 -6,-9 -8,-14 -7,-12 -5,-27 -5,-41 2,-68 -29,-113 -100,-123 -37,-5 -44,-15 -39,-54 2,-16 3,-34 -9,-43 -4,2 -5,7 -7,12 -3,6 -9,11 -16,12 -7,1 -15,-3 -17,-10 -1,-6 2,-13 7,-16 4,-3 11,-4 14,-7 -9,-1 -19,5 -25,11z"/>
  <path class="fil0 str0" d="M163 51c-3,0 -5,0 -7,1 -5,4 -2,11 4,10 4,-1 13,-8 9,-12 -1,-3 -5,-2 -8,-1"/>
  <path class="fil0 str0" d="M195 369c-3,7 -6,13 -8,20 -20,-2 -40,6 -53,22 15,-1 27,-14 41,-16 6,-1 10,2 11,8 1,7 -2,14 -1,24 1,7 8,7 11,2 3,-5 0,-22 0,-29 8,6 15,13 23,19 9,8 18,2 5,-9 -11,-10 -12,-25 -13,-40"/>
 </g>
</svg>
