<?xml version="1.0" encoding="UTF-8"?>
<!DOCTYPE svg PUBLIC "-//W3C//DTD SVG 1.1//EN" "http://www.w3.org/Graphics/SVG/1.1/DTD/svg11.dtd">
<!-- Creator: CorelDRAW X8 -->
<svg xmlns="http://www.w3.org/2000/svg" xml:space="preserve" width="500px" height="500px" version="1.1" style="shape-rendering:geometricPrecision; text-rendering:geometricPrecision; image-rendering:optimizeQuality; fill-rule:evenodd; clip-rule:evenodd"
viewBox="0 0 500 500"
 xmlns:xlink="http://www.w3.org/1999/xlink">
 <defs>
  <style type="text/css">
   <![CDATA[
    .str0 {stroke:black;stroke-width:1.00006}
    .fil0 {fill:none;fill-rule:nonzero}
   ]]>
  </style>
 </defs>
 <g id="Layer_x0020_1">
  <metadata id="CorelCorpID_0Corel-Layer"/>
  <g id="_1909606962208">
   <path class="fil0 str0" d="M332 157c-24,3 -45,19 -55,42 -24,-6 -50,-1 -71,13 -2,-3 -6,-4 -9,-6 -2,-1 -3,-3 -4,-5 -15,-18 -36,-32 -59,-37 -2,4 2,9 6,12 6,4 11,9 17,14 -8,-1 -17,1 -23,6 14,12 27,24 41,36 6,5 12,11 17,18 -27,18 -55,36 -82,53 -3,2 -6,4 -8,8 32,-8 63,-17 93,-29 4,-1 7,-3 11,-2 2,1 4,2 6,3 20,11 41,21 63,28 3,9 -1,19 -7,25 13,-2 27,-1 41,2 5,0 10,2 13,6 2,-4 -3,-8 -8,-10 -9,-2 -18,-5 -27,-6 -1,-5 -2,-9 -3,-13 5,0 11,4 12,10 22,1 43,4 64,9 -6,-7 -16,-11 -27,-12 -5,-1 -10,-2 -15,-4 -5,-2 -9,-7 -8,-13l34 -7c8,-2 16,-4 24,-7 5,-3 10,-6 13,-10 3,-4 4,-10 5,-15 1,-7 0,-13 -1,-20 -2,-9 -6,-17 -7,-26 -2,-9 1,-19 8,-24 7,0 12,7 11,13 3,-14 -3,-31 -14,-39 -15,-10 -33,-15 -51,-13z"/>
   <path class="fil0 str0" d="M317 319c10,-3 20,-6 31,-4 1,0 3,0 4,2 1,1 1,2 1,3 1,2 1,4 2,6 -1,0 -2,0 -3,0 0,-4 -6,-7 -9,-5"/>
   <path class="fil0 str0" d="M319 185c-3,4 -6,8 -6,12 1,4 4,7 7,8 3,2 7,2 10,2 3,0 5,0 7,-1 2,0 4,-1 5,-3 5,-4 8,-10 7,-16 -1,-6 -6,-11 -11,-12 -7,-2 -14,6 -19,10z"/>
   <path class="fil0 str0" d="M293 212c15,3 31,2 46,-2 6,-2 11,-4 16,-7 4,-3 8,-6 13,-9 9,-4 20,-3 28,4"/>
   <path class="fil0 str0" d="M192 250c4,6 10,11 16,15 35,22 78,33 120,29 11,-1 24,-4 31,-13 2,-3 3,-7 4,-10 3,-11 2,-23 -2,-33 -4,-11 -13,-20 -23,-24"/>
  </g>
 </g>
</svg>
