<?xml version="1.0" encoding="UTF-8"?>
<!DOCTYPE svg PUBLIC "-//W3C//DTD SVG 1.1//EN" "http://www.w3.org/Graphics/SVG/1.1/DTD/svg11.dtd">
<!-- Creator: CorelDRAW X8 -->
<svg xmlns="http://www.w3.org/2000/svg" xml:space="preserve" width="500px" height="500px" version="1.1" style="shape-rendering:geometricPrecision; text-rendering:geometricPrecision; image-rendering:optimizeQuality; fill-rule:evenodd; clip-rule:evenodd"
viewBox="0 0 500 500"
 xmlns:xlink="http://www.w3.org/1999/xlink">
 <defs>
  <style type="text/css">
   <![CDATA[
    .str0 {stroke:black;stroke-width:1.00006}
    .fil0 {fill:none;fill-rule:nonzero}
   ]]>
  </style>
 </defs>
 <g id="Layer_x0020_1">
  <metadata id="CorelCorpID_0Corel-Layer"/>
  <g id="_1909600552576">
   <path class="fil0 str0" d="M289 136c9,-15 24,-25 41,-28 6,-2 12,-2 18,0 12,5 17,19 19,32 17,0 34,1 51,2 -22,1 -44,5 -65,12 -8,3 -16,6 -21,13 -3,4 -4,11 -1,15 3,4 9,5 14,5 10,1 20,-1 30,0 11,0 21,2 29,8 -21,-3 -42,-2 -64,1 -1,0 -3,1 -5,2 -4,4 0,10 0,15"/>
   <path class="fil0 str0" d="M378 147c-8,3 -14,9 -18,16 -1,2 -1,3 -2,4 -1,4 -1,9 1,12 3,4 7,6 11,6"/>
   <path class="fil0 str0" d="M340 128c-3,-2 -7,-3 -11,-2 -3,1 -6,5 -7,8 -1,4 1,8 3,10 3,2 6,3 9,4 4,0 8,-1 11,-3 7,-7 2,-14 -5,-17z"/>
   <path class="fil0 str0" d="M290 135c-2,5 -4,10 -5,15 -5,-1 -10,0 -15,2 1,1 2,2 3,3 -7,0 -13,3 -19,7 -6,3 -12,9 -10,16 -1,-2 -4,-1 -5,0 -18,13 -33,30 -48,47 -20,23 -39,46 -59,68 -3,4 -6,8 -7,12 11,-6 22,-13 31,-21 -33,25 -62,56 -87,91 34,-21 68,-42 104,-57 -1,2 0,5 2,6 3,1 5,0 8,0 49,-11 97,-28 141,-51 7,-3 13,-7 18,-12 6,-8 8,-17 8,-26 0,-5 0,-10 -2,-14 -2,-4 -6,-8 -10,-8"/>
   <path class="fil0 str0" d="M204 312c0,0 0,1 0,1 -3,3 -5,7 -3,10 1,2 2,2 4,3 23,10 46,20 69,30 -3,13 -9,25 -18,35 12,-10 24,-23 23,-38 4,-2 10,1 12,6 2,5 1,10 1,15 4,-9 0,-21 -9,-25 15,-9 32,-13 49,-11"/>
   <path class="fil0 str0" d="M254 283c1,21 -17,37 -20,57 14,-13 33,-20 52,-18 5,-15 19,-27 34,-30"/>
   <path class="fil0 str0" d="M93 363c-7,8 -11,19 -12,30 0,1 -1,2 0,3 1,2 3,3 5,2 2,0 4,-2 5,-3 28,-25 57,-49 85,-73 -12,22 -34,39 -40,64 -1,4 0,9 4,10 2,1 5,-1 7,-3 28,-24 54,-51 77,-79"/>
  </g>
 </g>
</svg>
