<?xml version="1.0" encoding="UTF-8"?>
<!DOCTYPE svg PUBLIC "-//W3C//DTD SVG 1.1//EN" "http://www.w3.org/Graphics/SVG/1.1/DTD/svg11.dtd">
<!-- Creator: CorelDRAW X8 -->
<svg xmlns="http://www.w3.org/2000/svg" xml:space="preserve" width="500px" height="500px" version="1.1" style="shape-rendering:geometricPrecision; text-rendering:geometricPrecision; image-rendering:optimizeQuality; fill-rule:evenodd; clip-rule:evenodd"
viewBox="0 0 500 500"
 xmlns:xlink="http://www.w3.org/1999/xlink">
 <defs>
  <style type="text/css">
   <![CDATA[
    .str0 {stroke:black;stroke-width:1.00006}
    .fil0 {fill:none;fill-rule:nonzero}
   ]]>
  </style>
 </defs>
 <g id="Layer_x0020_1">
  <metadata id="CorelCorpID_0Corel-Layer"/>
  <g id="_1909777651856">
   <path class="fil0 str0" d="M160 168c11,-16 30,-26 50,-27 4,0 8,1 12,2 8,4 13,13 14,22 1,-6 9,-8 16,-7 17,4 32,17 40,33 8,16 11,34 10,52 4,0 7,5 6,8 7,5 14,11 20,18 -8,-4 -16,-7 -24,-12 9,11 17,21 26,31 -9,-6 -18,-10 -28,-14 3,9 9,16 13,24 10,17 14,37 12,56 -19,-19 -36,-41 -50,-64 -1,-1 -2,-2 -3,-3 -1,-1 -3,-1 -4,-1 -5,0 -10,2 -14,4 1,4 0,10 -3,14 -3,3 -8,6 -12,9 -9,6 -18,12 -27,18 5,3 8,11 5,16"/>
   <path class="fil0 str0" d="M207 330c0,-1 -1,-2 -1,-3 -4,-2 -7,-4 -10,-6 -3,3 -3,8 -2,12 1,4 2,8 2,12"/>
   <path class="fil0 str0" d="M252 285c-11,2 -22,5 -32,9 -8,2 -16,6 -20,14 -7,-3 -13,-5 -19,-7 -4,0 -8,-1 -10,2 -1,1 -2,4 -2,6 0,7 1,14 3,21"/>
   <path class="fil0 str0" d="M181 332c0,-3 -1,-7 -1,-10 0,-3 0,-6 3,-7 2,-2 6,1 8,0"/>
   <path class="fil0 str0" d="M161 170c1,0 -1,-1 -2,0 0,0 0,2 0,3 -8,2 -16,6 -24,10 14,-4 28,-6 42,-8 0,4 0,9 3,12 3,2 7,3 11,3 7,0 14,1 21,1 2,0 4,0 6,0 4,-1 7,-5 10,-8 1,-2 3,-4 3,-7 0,-2 -3,-5 -5,-3 1,-4 2,-8 1,-12 -8,4 -16,8 -24,11 -1,-4 -5,-7 -9,-8 -5,0 -9,3 -11,7 -1,1 -1,2 -1,4 1,3 6,4 9,4 3,0 7,-1 7,-4"/>
   <path class="fil0 str0" d="M132 187c0,-2 2,-1 3,-1 10,2 21,3 31,2"/>
   <path class="fil0 str0" d="M164 191c0,5 1,9 3,13 1,3 3,6 4,10 4,10 0,22 1,33 1,11 8,20 16,27 9,7 19,11 29,14"/>
  </g>
 </g>
</svg>
