<?xml version="1.0" encoding="UTF-8"?>
<!DOCTYPE svg PUBLIC "-//W3C//DTD SVG 1.1//EN" "http://www.w3.org/Graphics/SVG/1.1/DTD/svg11.dtd">
<!-- Creator: CorelDRAW X8 -->
<svg xmlns="http://www.w3.org/2000/svg" xml:space="preserve" width="500px" height="500px" version="1.1" style="shape-rendering:geometricPrecision; text-rendering:geometricPrecision; image-rendering:optimizeQuality; fill-rule:evenodd; clip-rule:evenodd"
viewBox="0 0 500 500"
 xmlns:xlink="http://www.w3.org/1999/xlink">
 <defs>
  <style type="text/css">
   <![CDATA[
    .str0 {stroke:black;stroke-width:1.00006}
    .fil0 {fill:none;fill-rule:nonzero}
   ]]>
  </style>
 </defs>
 <g id="Layer_x0020_1">
  <metadata id="CorelCorpID_0Corel-Layer"/>
  <g id="_2230108703808">
   <path class="fil0 str0" d="M139 57c-2,2 -4,3 -5,4 -1,2 -2,4 -2,6 -3,9 -5,18 -7,27 5,-8 13,-14 22,-17 0,5 6,7 11,8 14,4 23,20 25,35 3,15 0,30 1,45 0,10 2,20 3,30 5,35 7,70 5,105 -16,-1 -33,1 -48,6 -4,2 -8,4 -11,7 -3,3 -4,8 -2,11 0,-8 11,-10 19,-10 21,0 43,1 64,1 6,11 18,20 31,23 7,-4 15,5 19,12 20,36 40,72 61,108 2,-1 5,-1 8,-2 7,-36 8,-74 5,-110 3,22 12,42 21,63 6,-20 6,-41 0,-61 -5,-13 -12,-24 -15,-38 -1,-2 -1,-4 -1,-6 1,-3 3,-5 4,-8 5,-8 3,-19 1,-29 -8,-40 -19,-82 -44,-115 -16,-19 -36,-34 -55,-49 4,-13 2,-29 -7,-40 -5,-7 -13,-12 -22,-15 -4,-1 -8,-1 -12,-2 -3,-2 -2,-4 -8,-5 -19,-4 -45,7 -61,16z"/>
   <path class="fil0 str0" d="M183 58c-5,-4 -13,-6 -19,-3 -6,3 -8,12 -3,16 2,3 6,3 10,2 3,0 6,-2 9,-4 1,-1 2,-2 3,-3 0,-1 0,-2 -1,-3 -1,-4 -3,-8 -5,-11"/>
  </g>
 </g>
</svg>
