<?xml version="1.0" encoding="UTF-8"?>
<!DOCTYPE svg PUBLIC "-//W3C//DTD SVG 1.1//EN" "http://www.w3.org/Graphics/SVG/1.1/DTD/svg11.dtd">
<!-- Creator: CorelDRAW X8 -->
<svg xmlns="http://www.w3.org/2000/svg" xml:space="preserve" width="500px" height="500px" version="1.1" style="shape-rendering:geometricPrecision; text-rendering:geometricPrecision; image-rendering:optimizeQuality; fill-rule:evenodd; clip-rule:evenodd"
viewBox="0 0 500 500"
 xmlns:xlink="http://www.w3.org/1999/xlink">
 <defs>
  <style type="text/css">
   <![CDATA[
    .str0 {stroke:black;stroke-width:1.00006}
    .fil0 {fill:none;fill-rule:nonzero}
   ]]>
  </style>
 </defs>
 <g id="Layer_x0020_1">
  <metadata id="CorelCorpID_0Corel-Layer"/>
  <g id="_2229743662448">
   <path class="fil0 str0" d="M59 50c-7,-1 -15,3 -19,9 -3,6 -3,15 1,21 0,-11 13,-17 23,-15 10,2 18,10 25,18 5,25 5,52 0,77 -8,-8 -21,-1 -30,6 -11,8 -22,17 -24,30 -1,6 0,12 2,18 3,15 8,29 13,44 4,9 8,18 15,24 16,14 40,9 59,17 3,17 7,33 13,48 3,8 8,18 17,18 10,-6 16,-18 17,-30 1,-12 -2,-24 -5,-35 13,4 29,-6 40,1 4,3 7,7 9,12 10,19 14,41 13,62 11,2 23,-5 29,-14 7,-9 9,-21 10,-32 2,-10 2,-20 2,-31 18,1 36,-3 53,-9 11,-5 22,-11 34,-13 10,-1 21,2 31,3 34,6 69,2 103,-2 -24,-12 -49,-23 -74,-32 22,-5 44,-5 65,0 -2,-9 -10,-16 -18,-20 -9,-4 -19,-5 -28,-6 16,-4 30,-13 41,-25 -24,-3 -49,0 -71,9 -8,-11 -25,-6 -37,-11 -4,-1 -8,-5 -11,-8 -40,-32 -92,-50 -143,-49 -23,1 -49,4 -65,-12 -1,-9 -1,-18 -2,-28 0,-8 -1,-18 -6,-24l19 -7c-8,-1 -10,-11 -8,-18 2,-8 5,-15 3,-22 2,4 -25,-2 -28,-3 -8,-4 -15,-5 -24,-4 -19,3 -36,15 -44,33z"/>
   <path class="fil0 str0" d="M154 361c0,18 0,36 1,54"/>
   <path class="fil0 str0" d="M157 418c0,-1 0,-2 0,-3 -19,3 -38,7 -56,14 -1,0 -2,0 -2,0 -1,1 -1,2 -1,3 -2,5 -3,10 -4,15"/>
   <path class="fil0 str0" d="M154 431c0,-2 -1,-4 -1,-6 -11,8 -20,20 -25,33 -1,1 -1,4 1,4"/>
   <path class="fil0 str0" d="M167 425c0,0 -1,-1 -2,-1 8,6 13,16 15,26"/>
   <path class="fil0 str0" d="M246 373c-1,16 -1,32 -2,47 0,2 1,4 2,3"/>
   <path class="fil0 str0" d="M252 424c10,1 20,3 29,8 3,1 6,3 7,6 2,3 1,6 -1,8"/>
   <path class="fil0 str0" d="M254 434c4,9 6,19 6,29"/>
   <path class="fil0 str0" d="M237 433c-8,1 -16,4 -23,9 -1,0 -1,3 0,2"/>
   <path class="fil0 str0" d="M95 45c-2,-4 -8,-4 -11,-1 -3,3 -3,8 0,12 2,4 6,6 10,7 5,2 11,2 13,-2 2,-3 2,-7 0,-10 -1,-3 -4,-5 -7,-8 -1,-1 -4,-2 -5,-1"/>
  </g>
 </g>
</svg>
