<?xml version="1.0" encoding="UTF-8"?>
<!DOCTYPE svg PUBLIC "-//W3C//DTD SVG 1.1//EN" "http://www.w3.org/Graphics/SVG/1.1/DTD/svg11.dtd">
<!-- Creator: CorelDRAW X8 -->
<svg xmlns="http://www.w3.org/2000/svg" xml:space="preserve" width="500px" height="500px" version="1.1" style="shape-rendering:geometricPrecision; text-rendering:geometricPrecision; image-rendering:optimizeQuality; fill-rule:evenodd; clip-rule:evenodd"
viewBox="0 0 500 500"
 xmlns:xlink="http://www.w3.org/1999/xlink">
 <defs>
  <style type="text/css">
   <![CDATA[
    .str0 {stroke:black;stroke-width:1.00006}
    .fil0 {fill:none;fill-rule:nonzero}
   ]]>
  </style>
 </defs>
 <g id="Layer_x0020_1">
  <metadata id="CorelCorpID_0Corel-Layer"/>
  <g id="_2230130324720">
   <path class="fil0 str0" d="M229 107c-19,-9 -42,-9 -61,0 -2,1 -4,2 -6,4 -1,3 -1,5 -2,8 0,8 -1,16 1,23 1,8 6,15 14,17 -9,3 -12,14 -14,23 -1,4 -2,8 -3,12 -1,3 -2,6 -2,9 0,6 2,12 3,19 4,25 -7,52 -3,77 0,4 1,7 4,8 8,-10 13,-24 13,-37 2,5 0,11 2,15 2,4 6,6 10,6 4,0 8,-2 12,-3 0,-2 1,-4 3,-5"/>
   <path class="fil0 str0" d="M214 159c-5,1 -8,6 -9,11 -1,5 -1,10 -1,15 0,8 -2,16 -3,24 -2,16 2,31 3,47 1,13 0,25 1,38 1,22 8,43 14,64 1,5 2,9 4,13 5,8 13,13 21,18 -6,-10 -9,-20 -10,-31 5,8 11,17 21,20 1,-4 1,-7 0,-11 6,1 14,2 18,-3 2,-1 3,-3 4,-5 20,-40 30,-86 27,-130 -1,-22 -4,-44 2,-64 4,2 2,7 2,11 -1,6 2,13 7,16 10,2 19,6 29,8 10,2 21,2 29,-4l-19 -10c7,1 15,-2 19,-8 -16,1 -27,-17 -42,-21 -4,-1 -8,-1 -12,-1 -33,-2 -64,-18 -85,-44"/>
   <path class="fil0 str0" d="M190 123c-2,-5 -7,-6 -12,-6 -1,0 -3,0 -4,1 0,0 0,1 -1,2 -1,4 -1,8 1,11 2,5 9,7 14,4 4,-3 5,-11 1,-15"/>
   <path class="fil0 str0" d="M218 123c0,-1 0,-2 -1,-3 -1,0 -2,0 -3,0 -3,1 -6,2 -9,4 -2,2 -4,5 -4,8 1,3 4,5 6,6 5,2 11,1 14,-3 4,-4 2,-11 -2,-13"/>
   <path class="fil0 str0" d="M179 129c2,-2 3,-3 5,-5 -2,0 -4,2 -5,4 0,2 2,4 4,4 2,-1 2,-4 1,-5"/>
   <path class="fil0 str0" d="M212 130c-1,-1 -2,-1 -3,-1 -1,0 -1,1 -2,2 0,1 0,1 0,2 0,0 1,0 1,0 2,0 4,1 5,0 1,-1 1,-4 0,-5"/>
   <path class="fil0 str0" d="M195 135c0,1 1,0 0,0 0,0 -1,0 -1,1 -1,4 -2,9 -2,14 3,-3 4,-9 2,-13"/>
  </g>
 </g>
</svg>
