<?xml version="1.0" encoding="UTF-8"?>
<!DOCTYPE svg PUBLIC "-//W3C//DTD SVG 1.1//EN" "http://www.w3.org/Graphics/SVG/1.1/DTD/svg11.dtd">
<!-- Creator: CorelDRAW X8 -->
<svg xmlns="http://www.w3.org/2000/svg" xml:space="preserve" width="500px" height="500px" version="1.1" style="shape-rendering:geometricPrecision; text-rendering:geometricPrecision; image-rendering:optimizeQuality; fill-rule:evenodd; clip-rule:evenodd"
viewBox="0 0 500 500"
 xmlns:xlink="http://www.w3.org/1999/xlink">
 <defs>
  <style type="text/css">
   <![CDATA[
    .str0 {stroke:black;stroke-width:1.00006}
    .fil0 {fill:none;fill-rule:nonzero}
   ]]>
  </style>
 </defs>
 <g id="Layer_x0020_1">
  <metadata id="CorelCorpID_0Corel-Layer"/>
  <g id="_2230130682960">
   <path class="fil0 str0" d="M215 100c-10,12 -7,29 -3,44 -13,1 -18,-16 -29,-23 -11,-7 -27,-1 -39,6 -43,28 -72,73 -93,119 10,-11 21,-23 33,-33 -11,12 -19,26 -23,41 11,-9 22,-18 33,-27 -5,7 -9,14 -11,22 2,2 6,0 8,-2 12,-8 24,-16 36,-23 5,-4 10,-8 16,-9 5,-2 10,-1 16,-1 21,1 43,5 63,13 2,4 -1,8 -4,11 -30,28 -57,57 -82,89 10,-5 19,-9 29,-12 -3,8 -5,17 -6,26 11,-4 21,-9 30,-15 -1,8 -2,16 0,23 3,-2 7,-5 11,-8 2,-1 4,-3 7,-2 4,2 3,11 7,11 4,-4 8,-7 13,-10 -3,4 1,9 6,9 4,0 8,-3 11,-7 -3,4 2,11 7,10 4,-2 7,-8 6,-12 5,6 14,9 22,8 -2,-24 -9,-47 -19,-69 -6,-13 -13,-25 -15,-39 8,-1 16,-5 22,-10 3,3 8,4 12,3 4,-2 7,-4 11,-6 6,-3 12,-3 18,-4 14,-2 29,-4 43,-6 12,-2 24,-4 36,-2 5,1 11,3 16,0 2,-1 3,-3 6,-4 3,-1 7,1 10,2 14,7 29,13 43,19 -6,-17 -25,-24 -40,-32 -34,-16 -61,-44 -85,-73 -4,-4 -7,-8 -13,-9 -7,-1 -13,4 -18,9 -17,15 -38,26 -60,31 1,-10 2,-20 3,-31 1,-7 5,-22 2,-29 -5,-14 -29,-7 -36,2z"/>
   <path class="fil0 str0" d="M213 113c0,-1 1,-2 2,-1 4,2 9,5 10,10 1,1 0,3 -1,4 -1,0 -1,0 -2,0 -6,0 -11,-4 -13,-9 1,0 2,-1 3,-1"/>
   <path class="fil0 str0" d="M226 133c2,4 4,7 7,9 1,-4 1,-8 0,-12"/>
   <path class="fil0 str0" d="M246 117c-2,0 -5,0 -7,2 -2,2 -2,5 -1,7 2,2 5,3 7,1 2,-2 2,-5 0,-7"/>
  </g>
 </g>
</svg>
