<?xml version="1.0" encoding="UTF-8"?>
<!DOCTYPE svg PUBLIC "-//W3C//DTD SVG 1.1//EN" "http://www.w3.org/Graphics/SVG/1.1/DTD/svg11.dtd">
<!-- Creator: CorelDRAW X8 -->
<svg xmlns="http://www.w3.org/2000/svg" xml:space="preserve" width="500px" height="500px" version="1.1" style="shape-rendering:geometricPrecision; text-rendering:geometricPrecision; image-rendering:optimizeQuality; fill-rule:evenodd; clip-rule:evenodd"
viewBox="0 0 500 500"
 xmlns:xlink="http://www.w3.org/1999/xlink">
 <defs>
  <style type="text/css">
   <![CDATA[
    .str0 {stroke:black;stroke-width:1.00006}
    .fil0 {fill:none;fill-rule:nonzero}
   ]]>
  </style>
 </defs>
 <g id="Layer_x0020_1">
  <metadata id="CorelCorpID_0Corel-Layer"/>
  <path class="fil0 str0" d="M160 132c-6,6 -10,14 -14,21 -9,17 -18,34 -19,53 0,4 1,9 -1,13 -2,7 -8,11 -13,16 -4,6 -7,13 -9,20 -12,37 -8,78 -4,117 1,7 1,14 5,20 5,7 13,11 20,14 12,5 24,9 37,7 5,-1 10,-3 13,-7 4,-5 3,-14 0,-20 -3,-6 -9,-12 -13,-17 -12,-17 -15,-39 -17,-60 -2,-13 -4,-26 -5,-38 -1,-10 -3,-19 0,-28 1,-5 2,-12 -3,-14 12,2 24,1 35,-4 4,11 -12,21 -10,32 1,1 1,2 2,3 1,2 4,2 6,2 28,3 56,12 81,25 -1,-9 -11,-14 -19,-18 8,5 17,8 26,9 -1,-2 -2,-3 -3,-5 0,-2 1,-4 3,-4 -11,-6 -21,-14 -29,-23 28,-6 57,-12 81,-28 5,9 7,20 4,30 -1,1 0,3 1,4 2,1 4,1 6,1 9,0 19,3 26,10 1,-6 -1,-11 -4,-16 3,5 7,9 12,11 2,-3 1,-7 -1,-9 -2,-3 -5,-5 -8,-6 -10,-7 -18,-18 -21,-30 10,4 18,10 26,17 -1,-8 -6,-15 -12,-19 6,8 15,13 25,17 -1,-7 -4,-14 -8,-19 4,5 10,8 16,9 -5,-11 -16,-20 -28,-22 -1,-5 -1,-12 4,-14 2,-1 4,0 6,0 21,0 40,-21 37,-42 -1,-3 -2,-7 -5,-10 -2,-2 -4,-3 -6,-4 -8,-3 -16,-6 -24,-7 -4,-1 -8,-2 -12,-2 -5,-1 -11,-2 -17,-3 -6,0 -12,-1 -19,-1 -6,1 -13,2 -20,4 -12,2 -28,5 -40,2 -10,-2 -17,-6 -28,-6 -21,-1 -44,3 -60,19z"/>
  <path class="fil0 str0" d="M352 135c1,-1 0,-2 -1,-3 -1,-1 -3,-1 -4,0 -3,2 -4,6 -2,8 2,3 5,4 8,2 2,-1 3,-4 2,-6 0,-2 -3,-4 -5,-3"/>
  <path class="fil0 str0" d="M333 128c0,0 0,-1 0,-1 -4,-2 -9,-4 -13,-5 -5,0 -10,2 -13,6 -2,3 -2,8 1,11 3,3 8,3 11,1"/>
  <path class="fil0 str0" d="M381 143c-1,0 -1,3 0,3 2,1 3,-1 3,-3 0,-1 -2,-2 -3,-2"/>
 </g>
</svg>
