<?xml version="1.0" encoding="UTF-8"?>
<!DOCTYPE svg PUBLIC "-//W3C//DTD SVG 1.1//EN" "http://www.w3.org/Graphics/SVG/1.1/DTD/svg11.dtd">
<!-- Creator: CorelDRAW X8 -->
<svg xmlns="http://www.w3.org/2000/svg" xml:space="preserve" width="500px" height="500px" version="1.1" style="shape-rendering:geometricPrecision; text-rendering:geometricPrecision; image-rendering:optimizeQuality; fill-rule:evenodd; clip-rule:evenodd"
viewBox="0 0 500 500"
 xmlns:xlink="http://www.w3.org/1999/xlink">
 <defs>
  <style type="text/css">
   <![CDATA[
    .str0 {stroke:black;stroke-width:1.00006}
    .fil0 {fill:none;fill-rule:nonzero}
   ]]>
  </style>
 </defs>
 <g id="Layer_x0020_1">
  <metadata id="CorelCorpID_0Corel-Layer"/>
  <path class="fil0 str0" d="M17 228c-3,2 -6,5 -7,9 0,2 2,5 4,6 6,7 16,8 25,6 8,-2 17,-5 25,-7 27,-6 53,5 78,15 3,5 7,10 8,16 1,6 -1,13 -5,16 -2,1 -3,2 -4,3 0,2 1,4 3,3 -5,-2 -10,0 -12,5 5,0 10,0 14,0 0,2 0,4 0,6 14,-5 12,-28 23,-38 4,-3 9,-4 14,-5 12,-3 24,-6 36,-5 11,1 21,5 29,12 -4,14 -14,25 -27,30 6,2 11,2 17,0 -3,3 -4,6 -2,9 9,-3 18,-9 27,-14 2,-1 4,-3 6,-4 3,-2 7,-4 10,-7 14,-11 23,-27 25,-45 -1,4 2,7 4,9 8,5 15,10 22,15 10,7 21,14 33,18 12,4 25,5 36,-2 10,-5 16,-15 24,-22 12,-10 28,-15 42,-22 14,-7 28,-19 30,-35 -20,11 -39,23 -58,35 -23,13 -49,28 -74,20 -19,-5 -33,-21 -42,-37 -10,-17 -17,-35 -29,-50 -11,-16 -29,-28 -48,-27 -14,0 -27,8 -38,15 -13,8 -25,16 -38,24 -1,1 -3,2 -4,2 -7,5 -14,9 -22,12 -7,3 -15,5 -23,6 -7,1 -14,1 -21,1 -12,1 -28,-1 -40,2 -14,3 -29,17 -41,25z"/>
  <path class="fil0 str0" d="M132 257c0,0 0,0 0,0 2,7 3,14 5,21 -7,1 -13,7 -17,12 4,2 9,1 12,-3 1,2 -1,4 -3,4 4,-1 8,-2 12,-5"/>
  <path class="fil0 str0" d="M307 250c0,0 0,0 0,0 4,5 6,12 6,18 0,5 -1,10 -5,12 -1,1 -3,2 -5,3 -9,4 -19,8 -30,8 -2,0 -4,-1 -5,1"/>
  <path class="fil0 str0" d="M39 224c4,-4 11,-5 16,-3 -3,4 -9,5 -14,2"/>
  <path class="fil0 str0" d="M65 210c-1,0 0,-1 1,-2 2,0 5,-1 7,-1 2,0 4,0 6,1 2,2 2,5 0,7 -1,2 -4,3 -6,4"/>
  <path class="fil0 str0" d="M11 236c2,0 5,0 6,3 1,1 -2,4 -3,3"/>
  <path class="fil0 str0" d="M29 241c5,10 11,20 17,30"/>
  <path class="fil0 str0" d="M35 244c7,8 14,15 20,23"/>
  <path class="fil0 str0" d="M41 241c0,-1 1,-2 2,-3 7,6 14,13 22,19"/>
  <path class="fil0 str0" d="M14 249c0,-1 0,-1 1,-2 -5,5 -9,12 -11,19"/>
  <path class="fil0 str0" d="M24 252c1,-1 0,-2 0,-1 -1,0 -1,0 -2,1 -2,3 -3,8 -4,12"/>
 </g>
</svg>
