<?xml version="1.0" encoding="UTF-8"?>
<!DOCTYPE svg PUBLIC "-//W3C//DTD SVG 1.1//EN" "http://www.w3.org/Graphics/SVG/1.1/DTD/svg11.dtd">
<!-- Creator: CorelDRAW X8 -->
<svg xmlns="http://www.w3.org/2000/svg" xml:space="preserve" width="500px" height="500px" version="1.1" style="shape-rendering:geometricPrecision; text-rendering:geometricPrecision; image-rendering:optimizeQuality; fill-rule:evenodd; clip-rule:evenodd"
viewBox="0 0 500 500"
 xmlns:xlink="http://www.w3.org/1999/xlink">
 <defs>
  <style type="text/css">
   <![CDATA[
    .str0 {stroke:black;stroke-width:1.00006}
    .fil0 {fill:none;fill-rule:nonzero}
   ]]>
  </style>
 </defs>
 <g id="Layer_x0020_1">
  <metadata id="CorelCorpID_0Corel-Layer"/>
  <path class="fil0 str0" d="M406 264c1,4 4,7 7,11 5,6 6,15 9,22 3,9 8,16 13,23 24,40 25,90 25,137 -12,-14 -24,-28 -37,-42 -6,-7 -14,-15 -24,-16 -14,-3 -27,6 -38,15 -2,-19 -6,-40 -21,-51 -18,-13 -42,-6 -62,1 7,-9 -2,-22 -10,-30 -8,-8 -18,-16 -29,-15 -26,1 -31,47 -57,48 -9,-11 -10,-27 -10,-42 0,-24 2,-49 7,-73 1,-5 3,-11 2,-16 -1,-4 -3,-7 -5,-11 -12,-22 -37,-40 -62,-35 16,-12 17,-37 7,-54 -10,-17 -28,-28 -46,-36 13,-23 0,-57 -25,-66 38,0 76,4 113,13 7,2 14,4 18,10 3,5 3,11 3,16 1,31 1,62 2,93 3,-4 5,-7 8,-11 3,7 3,15 -1,22 8,4 15,10 21,15 0,-8 13,-10 17,-4 5,7 0,16 -6,20 2,-1 13,9 14,10 4,4 8,13 12,15 7,3 20,-4 28,-3 13,1 27,8 39,11 14,4 28,8 41,11 16,4 32,8 47,12z"/>
  <path class="fil0 str0" d="M207 205c0,0 1,-1 1,-1 -2,1 -4,3 -6,4 -2,1 -3,3 -2,4 0,1 2,2 3,1 4,-1 6,-5 5,-9"/>
  <path class="fil0 str0" d="M185 208c1,2 2,5 2,8 0,3 -2,6 -4,7 -3,-3 -7,-6 -10,-9 -2,-3 -5,-6 -4,-9 4,-10 12,-4 16,3z"/>
 </g>
</svg>
