<?xml version="1.0" encoding="UTF-8"?>
<!DOCTYPE svg PUBLIC "-//W3C//DTD SVG 1.1//EN" "http://www.w3.org/Graphics/SVG/1.1/DTD/svg11.dtd">
<!-- Creator: CorelDRAW X8 -->
<svg xmlns="http://www.w3.org/2000/svg" xml:space="preserve" width="500px" height="500px" version="1.1" style="shape-rendering:geometricPrecision; text-rendering:geometricPrecision; image-rendering:optimizeQuality; fill-rule:evenodd; clip-rule:evenodd"
viewBox="0 0 500 500"
 xmlns:xlink="http://www.w3.org/1999/xlink">
 <defs>
  <style type="text/css">
   <![CDATA[
    .str0 {stroke:black;stroke-width:1.00006}
    .fil0 {fill:none;fill-rule:nonzero}
   ]]>
  </style>
 </defs>
 <g id="Layer_x0020_1">
  <metadata id="CorelCorpID_0Corel-Layer"/>
  <path class="fil0 str0" d="M285 111c-2,-2 -4,-3 -7,-5 -18,-8 -38,-14 -58,-12 -20,1 -40,10 -53,25 -4,-4 -9,-2 -13,1 -5,2 -10,4 -14,0 -12,6 -23,13 -33,22 11,-1 23,-2 34,-3 -3,6 1,13 0,19 0,3 -1,6 -2,9 -8,21 -15,43 -23,64 10,0 20,7 24,16 2,6 2,12 2,18 -1,16 -7,32 -15,47 11,1 16,12 19,22 4,17 5,33 3,50 7,2 14,0 19,-4 6,-4 10,-10 13,-15 20,-32 32,-67 34,-104 7,4 15,5 22,3 -5,-3 -10,-5 -15,-7 -1,0 -2,-1 -3,-2 -1,-1 -1,-3 -1,-5 2,-12 4,-23 3,-35 -1,-12 -5,-23 -9,-35 12,-10 23,-22 34,-35"/>
  <path class="fil0 str0" d="M221 179c1,-2 4,-2 7,-1 17,5 35,5 53,2 6,-1 13,-3 18,-7 5,-3 9,-9 9,-16 0,-8 -7,-15 -8,-23 -1,-7 1,-13 2,-20 0,-6 -1,-14 -7,-17 -1,7 -1,14 0,21 -7,-4 -18,-3 -24,3 -5,-5 -11,-9 -17,-12 -5,3 -4,11 -2,17 4,11 10,22 17,31 1,-1 2,-3 1,-5"/>
  <path class="fil0 str0" d="M277 145c0,-3 -1,-5 -3,-6 -1,-2 -4,-2 -6,-1 -1,1 -1,3 -1,4 0,1 1,3 3,4 1,1 3,1 5,0 1,-1 1,-4 -1,-5"/>
  <path class="fil0 str0" d="M304 141c17,7 33,18 45,32 6,9 12,18 17,27 10,15 20,31 27,48 20,42 26,89 30,136 1,4 1,9 -3,12 -5,-2 -9,-6 -12,-11 -2,-5 -4,-11 -7,-15 -5,-8 -13,-14 -21,-17 -9,-3 -18,-4 -27,-5 9,-13 16,-30 13,-46 -1,-6 -4,-13 -8,-18 -12,-20 -36,-34 -59,-28 6,-16 3,-34 -6,-48 -10,-14 -26,-24 -43,-25 -2,0 -4,2 -3,4"/>
  <path class="fil0 str0" d="M282 165c9,1 17,-1 25,-6 -1,-1 0,-2 1,-3"/>
  <path class="fil0 str0" d="M299 152c-1,0 0,-1 0,-1 0,0 0,0 1,1 0,2 1,5 2,7 0,0 0,1 -1,1 0,0 0,-1 0,0"/>
 </g>
</svg>
