<?xml version="1.0" encoding="UTF-8"?>
<!DOCTYPE svg PUBLIC "-//W3C//DTD SVG 1.1//EN" "http://www.w3.org/Graphics/SVG/1.1/DTD/svg11.dtd">
<!-- Creator: CorelDRAW X8 -->
<svg xmlns="http://www.w3.org/2000/svg" xml:space="preserve" width="500px" height="500px" version="1.1" style="shape-rendering:geometricPrecision; text-rendering:geometricPrecision; image-rendering:optimizeQuality; fill-rule:evenodd; clip-rule:evenodd"
viewBox="0 0 500 500"
 xmlns:xlink="http://www.w3.org/1999/xlink">
 <defs>
  <style type="text/css">
   <![CDATA[
    .str0 {stroke:black;stroke-width:1.00006}
    .fil0 {fill:none;fill-rule:nonzero}
   ]]>
  </style>
 </defs>
 <g id="Layer_x0020_1">
  <metadata id="CorelCorpID_0Corel-Layer"/>
  <path class="fil0 str0" d="M126 31c-15,4 -25,20 -21,35 -18,-1 -36,6 -48,19 -7,7 -12,18 -7,27 3,4 7,6 11,8 12,5 25,6 37,2 0,8 3,16 8,22 2,-6 2,-12 1,-18 5,5 12,7 18,6 -1,-5 -4,-10 -7,-14 12,0 25,0 33,-9 8,-9 5,-25 -4,-33 -9,-8 -23,-9 -35,-6 2,-12 7,-27 20,-28 5,0 10,3 14,6 9,6 17,14 24,23 2,3 4,6 5,10 0,3 0,7 -1,10 -3,23 -7,47 -10,70 -17,-2 -36,-1 -50,9 -15,9 -23,29 -15,45 8,16 30,20 48,16 0,5 3,10 8,13 1,-5 0,-9 -1,-13 0,5 5,10 11,10 -1,-3 -2,-7 -3,-11 11,1 21,1 31,-2 10,-3 19,-10 22,-20 3,-11 -3,-23 -12,-31 -9,-7 -20,-11 -31,-14 -4,-25 -1,-51 9,-74 26,14 47,37 62,62 15,25 26,53 37,80 -23,11 -45,24 -66,40 -10,-17 -35,-23 -51,-12 -16,11 -20,37 -8,52 -4,3 -8,6 -12,10 5,-2 10,-4 15,-6 -2,4 -3,9 -2,14 4,-4 8,-8 11,-12 16,12 36,19 56,18 3,0 6,-1 8,-2 3,-3 4,-7 5,-11 1,-16 -5,-33 -18,-44 21,-14 43,-26 66,-37 9,28 18,56 27,84 -13,-2 -28,-4 -38,4 -11,8 -12,24 -12,38 -16,-5 -33,5 -42,19 -4,5 -7,10 -7,16 0,13 14,25 26,21 0,5 -1,11 -2,16 4,-4 7,-9 8,-14 1,5 2,9 2,13 3,-3 5,-7 7,-10 7,2 14,4 22,4 7,-1 15,-5 17,-12 4,-9 -1,-19 -7,-26 -6,-7 -14,-13 -18,-22 -6,-12 -1,-28 10,-35 11,-7 27,-5 36,5 2,26 14,50 14,76 0,18 -5,34 -9,51l6 -1c5,-16 11,-32 11,-48 0,-14 -3,-27 -6,-40 -6,-25 -12,-49 -18,-74 -1,-3 -1,-6 -1,-8 2,-3 5,-5 8,-7 18,-8 39,-11 59,-6 -14,-4 -30,6 -33,20 -4,15 5,30 17,37 3,2 6,3 10,3 10,0 14,-13 15,-24 -2,8 5,17 13,17 -1,-6 -2,-12 -5,-17 3,4 9,3 13,-1 3,-3 4,-8 4,-13 1,-14 -1,-30 -11,-41 -9,-11 -29,-14 -38,-3 -3,3 -6,8 -10,9 -3,2 -7,1 -10,1 -9,0 -19,2 -27,6 -2,1 -4,2 -6,2 -4,-1 -6,-6 -6,-11 -4,-21 -11,-42 -22,-61 -4,-7 -8,-13 -11,-21 -2,-7 -2,-16 2,-23 5,-6 14,-9 21,-6 8,3 11,13 8,20 -10,8 -15,23 -9,35 6,12 25,15 33,5 -2,6 0,13 6,15 -1,-4 -2,-9 -2,-13 3,5 11,4 15,0 4,-4 5,-11 6,-16 1,-11 1,-23 -7,-30 -9,-7 -22,-3 -32,2 -9,-9 -2,-28 -12,-35 -5,-3 -12,-2 -17,1 -5,4 -8,9 -12,14 -1,2 -3,5 -5,8 -22,-35 -48,-67 -78,-95 13,-9 28,-14 44,-13 -4,12 -4,26 1,38 2,6 6,12 12,13 11,3 20,-10 23,-21 3,7 7,15 12,21 -2,-7 -4,-14 -6,-21 12,-3 24,-9 35,-16 7,-4 15,-11 17,-19 3,-11 -5,-22 -15,-27 -10,-5 -21,-4 -32,-1 -17,4 -32,14 -44,27 -17,1 -34,6 -49,14 -2,1 -5,3 -7,3 -3,-1 -4,-2 -6,-4 -14,-13 -23,-38 -46,-33z"/>
 </g>
</svg>
