<?xml version="1.0" encoding="UTF-8"?>
<!DOCTYPE svg PUBLIC "-//W3C//DTD SVG 1.1//EN" "http://www.w3.org/Graphics/SVG/1.1/DTD/svg11.dtd">
<!-- Creator: CorelDRAW X8 -->
<svg xmlns="http://www.w3.org/2000/svg" xml:space="preserve" width="500px" height="500px" version="1.1" style="shape-rendering:geometricPrecision; text-rendering:geometricPrecision; image-rendering:optimizeQuality; fill-rule:evenodd; clip-rule:evenodd"
viewBox="0 0 500 500"
 xmlns:xlink="http://www.w3.org/1999/xlink">
 <defs>
  <style type="text/css">
   <![CDATA[
    .str0 {stroke:black;stroke-width:1.00006}
    .fil0 {fill:none;fill-rule:nonzero}
   ]]>
  </style>
 </defs>
 <g id="Layer_x0020_1">
  <metadata id="CorelCorpID_0Corel-Layer"/>
  <path class="fil0 str0" d="M252 73l-29 1c8,-5 19,3 20,12 1,9 -6,17 -14,22 -8,4 -17,5 -27,5 13,5 25,9 38,13 -13,3 -24,12 -30,23 7,-2 16,4 16,12 -7,-2 -13,4 -14,11 -2,7 1,14 1,21 2,15 -4,30 -15,40 6,-7 15,-12 24,-13 -8,12 -13,26 -16,40 4,0 8,0 11,-1 0,10 -2,20 -7,29 4,-2 8,-4 11,-5 -11,30 -6,65 7,95 14,30 35,56 56,81 -16,-32 -32,-63 -43,-97 -9,-25 -16,-54 -6,-79 3,8 6,16 10,25 -1,-9 -2,-18 -3,-27 0,-18 -1,-36 -1,-54 4,6 8,12 13,18 1,-6 -1,-12 -3,-17 -2,-6 -4,-12 -3,-17 1,-6 8,-11 13,-8 -1,-13 -1,-25 -2,-38 3,2 7,3 10,5 0,-8 1,-15 1,-23 2,2 5,4 7,5 -4,-8 -5,-16 -4,-25l8 2c-2,-10 -1,-21 2,-31 2,2 4,4 6,5 4,-20 9,-40 13,-61 2,-5 -13,4 -13,4 -5,1 -10,1 -15,3 -10,4 -19,13 -22,24z"/>
 </g>
</svg>
