<?xml version="1.0" encoding="UTF-8"?>
<!DOCTYPE svg PUBLIC "-//W3C//DTD SVG 1.1//EN" "http://www.w3.org/Graphics/SVG/1.1/DTD/svg11.dtd">
<!-- Creator: CorelDRAW X8 -->
<svg xmlns="http://www.w3.org/2000/svg" xml:space="preserve" width="500px" height="500px" version="1.1" style="shape-rendering:geometricPrecision; text-rendering:geometricPrecision; image-rendering:optimizeQuality; fill-rule:evenodd; clip-rule:evenodd"
viewBox="0 0 500 500"
 xmlns:xlink="http://www.w3.org/1999/xlink">
 <defs>
  <style type="text/css">
   <![CDATA[
    .str0 {stroke:black;stroke-width:1.00006}
    .fil0 {fill:none;fill-rule:nonzero}
   ]]>
  </style>
 </defs>
 <g id="Layer_x0020_1">
  <metadata id="CorelCorpID_0Corel-Layer"/>
  <path class="fil0 str0" d="M349 57c0,-1 -1,-2 -1,-2 -6,10 -12,22 -16,34"/>
  <path class="fil0 str0" d="M350 69c-7,8 -13,17 -16,26"/>
  <path class="fil0 str0" d="M350 95c-10,6 -18,15 -24,25"/>
  <path class="fil0 str0" d="M325 72c-4,13 -7,26 -9,40"/>
  <path class="fil0 str0" d="M306 94c-1,0 -1,-1 -1,-2 0,11 0,22 2,32"/>
  <path class="fil0 str0" d="M313 138c6,-8 16,-13 26,-14"/>
  <path class="fil0 str0" d="M310 145c5,-5 12,-8 19,-8"/>
  <path class="fil0 str0" d="M291 127c0,-1 -1,-2 -2,-3 1,5 1,10 1,15"/>
  <path class="fil0 str0" d="M287 173c13,-7 27,-11 41,-11"/>
  <path class="fil0 str0" d="M285 190c10,-5 20,-8 31,-8"/>
  <path class="fil0 str0" d="M280 145c0,-1 0,-2 0,-3 2,5 3,9 5,14"/>
  <path class="fil0 str0" d="M294 153c0,-4 4,-8 9,-9"/>
  <path class="fil0 str0" d="M305 157c9,-6 20,-9 30,-8"/>
  <path class="fil0 str0" d="M271 159c2,11 3,21 4,32"/>
  <path class="fil0 str0" d="M261 186c0,10 1,20 3,30"/>
  <path class="fil0 str0" d="M260 237c12,-12 28,-20 44,-23"/>
  <path class="fil0 str0" d="M274 211c12,-7 25,-11 39,-11"/>
  <path class="fil0 str0" d="M276 246c10,-7 22,-11 34,-12"/>
  <path class="fil0 str0" d="M253 231c-1,-9 -3,-19 -4,-28 3,13 5,27 8,40"/>
  <path class="fil0 str0" d="M257 267c4,-7 12,-12 19,-14"/>
  <path class="fil0 str0" d="M256 276c6,-5 15,-8 23,-7"/>
  <path class="fil0 str0" d="M248 263c-2,-5 -5,-11 -7,-16"/>
  <path class="fil0 str0" d="M258 251c0,-2 2,-5 5,-4"/>
  <path class="fil0 str0" d="M248 298c10,-4 20,-7 31,-11"/>
  <path class="fil0 str0" d="M228 250c4,17 6,35 5,53"/>
  <path class="fil0 str0" d="M223 328c17,-12 38,-19 58,-19"/>
  <path class="fil0 str0" d="M211 345c14,-10 31,-17 48,-20"/>
  <path class="fil0 str0" d="M213 290c0,-1 0,-2 0,-4 4,8 6,18 7,27"/>
  <path class="fil0 str0" d="M222 365c8,-15 25,-26 42,-25"/>
  <path class="fil0 str0" d="M199 375c3,-2 7,-5 10,-7"/>
  <path class="fil0 str0" d="M197 326c0,-1 0,-1 -1,-2 4,7 6,15 6,23"/>
  <path class="fil0 str0" d="M199 362c3,-3 7,-5 12,-5"/>
  <path class="fil0 str0" d="M205 389c-1,0 -1,1 -2,1 16,-13 36,-20 56,-20"/>
  <path class="fil0 str0" d="M193 410c12,-9 27,-14 43,-16"/>
  <path class="fil0 str0" d="M178 368c5,10 10,19 15,29"/>
  <path class="fil0 str0" d="M193 424c9,-9 23,-12 35,-9"/>
  <path class="fil0 str0" d="M180 427c-7,-4 -15,-7 -22,-10"/>
  <path class="fil0 str0" d="M177 447c-8,-5 -19,-5 -27,-1"/>
  <line class="fil0 str0" x1="183" y1="441" x2="186" y2= "465" />
  <path class="fil0 str0" d="M202 435c1,-1 0,-2 0,-3 4,12 5,26 2,40"/>
  <path class="fil0 str0" d="M219 429c7,8 9,19 5,28"/>
  <path class="fil0 str0" d="M183 409c-9,-3 -18,-4 -27,-2"/>
  <path class="fil0 str0" d="M218 388c0,0 0,-1 0,-2 14,-2 28,-3 42,-3"/>
  <path class="fil0 str0" d="M210 319c-7,-6 -17,-8 -26,-6"/>
  <path class="fil0 str0" d="M260 304c12,-6 27,-9 40,-7"/>
  <path class="fil0 str0" d="M222 280c-4,-5 -9,-10 -13,-14"/>
  <path class="fil0 str0" d="M271 279c15,-7 32,-10 48,-7"/>
  <path class="fil0 str0" d="M284 258c10,-3 21,-5 32,-6"/>
  <path class="fil0 str0" d="M246 239c-7,-9 -19,-15 -31,-14"/>
  <path class="fil0 str0" d="M283 233c-1,-1 -1,-1 -1,-2 17,-11 37,-16 57,-14"/>
  <path class="fil0 str0" d="M310 193c9,-4 19,-3 27,1"/>
  <path class="fil0 str0" d="M322 176c0,-1 0,-2 0,-3 6,1 12,2 18,5"/>
  <path class="fil0 str0" d="M333 158c8,-1 17,2 23,7"/>
  <path class="fil0 str0" d="M340 146c9,-3 20,-1 28,4"/>
  <path class="fil0 str0" d="M336 137c11,-5 24,-6 37,-4"/>
  <path class="fil0 str0" d="M342 121c12,-6 25,-11 39,-13"/>
  <path class="fil0 str0" d="M350 106c8,-5 18,-9 28,-10"/>
  <path class="fil0 str0" d="M378 73c1,-1 1,-2 1,-4 -11,5 -20,12 -27,20"/>
  <path class="fil0 str0" d="M322 48c0,-1 0,-3 -2,-3 -4,11 -9,22 -13,33"/>
  <path class="fil0 str0" d="M270 99c1,-1 1,-2 1,-3 -2,16 -3,31 -1,47"/>
  <path class="fil0 str0" d="M258 160c1,6 2,12 3,17"/>
  <path class="fil0 str0" d="M242 179c3,3 5,8 4,12"/>
  <path class="fil0 str0" d="M230 202c2,4 4,9 6,13"/>
  <path class="fil0 str0" d="M230 239c-3,-3 -8,-2 -12,0 -13,5 -23,13 -31,23"/>
  <path class="fil0 str0" d="M199 294c-9,-3 -20,1 -25,9"/>
  <path class="fil0 str0" d="M190 340c-5,-2 -12,-2 -17,2"/>
  <path class="fil0 str0" d="M184 368c-2,-7 -8,-12 -15,-12"/>
  <path class="fil0 str0" d="M167 393c-7,-7 -19,-7 -28,-2"/>
 </g>
</svg>
