<?xml version="1.0" encoding="UTF-8"?>
<!DOCTYPE svg PUBLIC "-//W3C//DTD SVG 1.1//EN" "http://www.w3.org/Graphics/SVG/1.1/DTD/svg11.dtd">
<!-- Creator: CorelDRAW X8 -->
<svg xmlns="http://www.w3.org/2000/svg" xml:space="preserve" width="500px" height="500px" version="1.1" style="shape-rendering:geometricPrecision; text-rendering:geometricPrecision; image-rendering:optimizeQuality; fill-rule:evenodd; clip-rule:evenodd"
viewBox="0 0 500 500"
 xmlns:xlink="http://www.w3.org/1999/xlink">
 <defs>
  <style type="text/css">
   <![CDATA[
    .str0 {stroke:black;stroke-width:1.00006}
    .fil0 {fill:none;fill-rule:nonzero}
   ]]>
  </style>
 </defs>
 <g id="Layer_x0020_1">
  <metadata id="CorelCorpID_0Corel-Layer"/>
  <path class="fil0 str0" d="M147 369c3,-12 6,-24 12,-35 5,-12 14,-22 25,-28 11,-6 24,-7 37,-8 14,-1 28,-2 41,-1 14,1 27,5 39,13"/>
  <path class="fil0 str0" d="M180 311c-10,-32 -29,-61 -54,-83"/>
  <path class="fil0 str0" d="M190 302c2,-17 6,-35 13,-51 7,-16 18,-31 32,-40 15,-9 32,-13 49,-14 16,-2 32,-1 47,3 16,4 31,12 40,25"/>
  <path class="fil0 str0" d="M221 223c-8,-22 -28,-39 -51,-45"/>
  <path class="fil0 str0" d="M245 205c-9,-15 -2,-35 9,-49 20,-25 52,-37 84,-45 10,-2 21,-5 32,-5 12,1 23,4 31,12"/>
  <path class="fil0 str0" d="M326 117c6,-25 21,-48 41,-64"/>
  <path class="fil0 str0" d="M157 339c18,-4 38,-2 55,6"/>
  <path class="fil0 str0" d="M177 338c0,-1 -1,-1 -1,0 2,5 3,11 6,16"/>
  <path class="fil0 str0" d="M192 339c6,-6 11,-11 16,-17"/>
  <path class="fil0 str0" d="M201 344c1,3 1,5 1,8"/>
  <path class="fil0 str0" d="M228 298c14,13 26,29 35,46"/>
  <path class="fil0 str0" d="M249 322c-5,1 -9,6 -10,12"/>
  <path class="fil0 str0" d="M249 321c0,0 -1,-1 0,-2 0,0 1,0 2,0 6,-1 11,-1 16,-1"/>
  <path class="fil0 str0" d="M257 337c-5,3 -7,9 -6,15"/>
  <path class="fil0 str0" d="M263 337c-1,-1 -2,-1 -3,-2 6,-1 12,-1 18,-1"/>
  <path class="fil0 str0" d="M241 295c14,-29 43,-50 74,-56"/>
  <path class="fil0 str0" d="M283 252c7,8 14,17 20,26"/>
  <path class="fil0 str0" d="M292 265c0,0 0,-1 0,-2l-10 17"/>
  <path class="fil0 str0" d="M298 274c5,-4 11,-7 17,-8"/>
  <path class="fil0 str0" d="M286 260c1,-4 4,-6 8,-5"/>
  <path class="fil0 str0" d="M259 267c-3,-6 -6,-11 -9,-17"/>
  <path class="fil0 str0" d="M166 322c-13,-21 -34,-36 -58,-43"/>
  <path class="fil0 str0" d="M136 263c-3,8 -5,17 -4,26"/>
  <path class="fil0 str0" d="M120 295c0,0 -1,0 -1,-1 5,-1 11,-2 16,-3"/>
  <path class="fil0 str0" d="M199 257c-7,-12 -20,-21 -34,-23"/>
  <path class="fil0 str0" d="M182 239c1,-7 3,-14 6,-21"/>
  <path class="fil0 str0" d="M181 240c-7,3 -13,7 -18,12"/>
  <path class="fil0 str0" d="M206 242c10,1 20,7 26,15"/>
  <path class="fil0 str0" d="M222 249c3,-5 8,-8 13,-8"/>
  <path class="fil0 str0" d="M222 251c-2,5 -3,10 -2,15"/>
  <path class="fil0 str0" d="M248 168c23,-11 50,-13 74,-6"/>
  <path class="fil0 str0" d="M288 161c0,7 1,14 2,22"/>
  <path class="fil0 str0" d="M268 162c-2,5 -1,10 2,14"/>
  <path class="fil0 str0" d="M279 157c3,-2 5,-5 6,-8"/>
  <path class="fil0 str0" d="M275 137c-5,-16 -21,-29 -38,-31"/>
  <path class="fil0 str0" d="M262 119c-1,1 -2,1 -2,2 4,-6 8,-12 11,-17"/>
  <path class="fil0 str0" d="M254 113c0,-1 0,-2 -1,-2 -5,3 -10,6 -14,10"/>
  <path class="fil0 str0" d="M313 198c11,-20 27,-37 46,-49"/>
  <path class="fil0 str0" d="M333 168c9,4 17,10 24,17"/>
  <path class="fil0 str0" d="M345 162c-2,-6 -5,-13 -9,-18"/>
  <path class="fil0 str0" d="M335 95c11,-3 22,-4 34,-2"/>
  <path class="fil0 str0" d="M355 93c2,-4 3,-9 5,-14"/>
  <path class="fil0 str0" d="M345 79c-7,-5 -15,-7 -23,-6"/>
  <path class="fil0 str0" d="M330 75c-2,-3 1,-8 5,-10"/>
  <path class="fil0 str0" d="M366 108c0,-1 0,-2 0,-2 3,20 11,40 23,57"/>
  <path class="fil0 str0" d="M378 143c0,-1 0,-2 0,-2 4,-2 9,-2 14,-2"/>
  <path class="fil0 str0" d="M366 124c-5,1 -10,4 -14,7"/>
  <path class="fil0 str0" d="M380 105c-1,-1 -3,0 -3,1 11,-5 21,-11 31,-16l-1 1"/>
  <path class="fil0 str0" d="M398 98c3,2 7,5 10,7"/>
  <path class="fil0 str0" d="M349 205l1 -2c2,16 3,31 2,46"/>
  <path class="fil0 str0" d="M351 234c-6,-1 -13,1 -18,4"/>
  <path class="fil0 str0" d="M353 220c-5,0 -9,2 -13,4"/>
  <path class="fil0 str0" d="M352 229c6,-1 14,1 18,6"/>
  <path class="fil0 str0" d="M206 199c5,-17 12,-34 19,-50"/>
  <path class="fil0 str0" d="M220 164c-5,-4 -10,-7 -16,-9"/>
  <path class="fil0 str0" d="M213 180c6,0 12,1 18,2"/>
  <path class="fil0 str0" d="M193 188c-15,3 -29,12 -39,25"/>
  <path class="fil0 str0" d="M164 202c-5,-1 -10,-5 -13,-9"/>
 </g>
</svg>
