<?xml version="1.0" encoding="UTF-8"?>
<!DOCTYPE svg PUBLIC "-//W3C//DTD SVG 1.1//EN" "http://www.w3.org/Graphics/SVG/1.1/DTD/svg11.dtd">
<!-- Creator: CorelDRAW X8 -->
<svg xmlns="http://www.w3.org/2000/svg" xml:space="preserve" width="500px" height="500px" version="1.1" style="shape-rendering:geometricPrecision; text-rendering:geometricPrecision; image-rendering:optimizeQuality; fill-rule:evenodd; clip-rule:evenodd"
viewBox="0 0 500 500"
 xmlns:xlink="http://www.w3.org/1999/xlink">
 <defs>
  <style type="text/css">
   <![CDATA[
    .str0 {stroke:black;stroke-width:1.00006}
    .fil0 {fill:none;fill-rule:nonzero}
   ]]>
  </style>
 </defs>
 <g id="Layer_x0020_1">
  <metadata id="CorelCorpID_0Corel-Layer"/>
  <path class="fil0 str0" d="M337 251c15,-41 5,-88 -15,-127 -19,-36 -50,-69 -90,-74 -15,-2 -31,0 -46,0 -16,0 -32,-3 -44,-13 11,20 28,36 48,47 -10,1 -20,8 -24,18 -4,10 -2,22 5,30 9,9 24,12 34,20 18,15 16,44 8,66 -7,22 -19,45 -15,68 4,20 19,36 36,44 18,9 38,11 58,10 0,36 1,71 1,107 7,2 15,-4 17,-11 2,-8 1,-15 0,-23 -5,-29 -3,-60 6,-88 4,-11 4,-20 5,-31 2,-16 11,-29 16,-43z"/>
 </g>
</svg>
