<?xml version="1.0" encoding="UTF-8"?>
<!DOCTYPE svg PUBLIC "-//W3C//DTD SVG 1.1//EN" "http://www.w3.org/Graphics/SVG/1.1/DTD/svg11.dtd">
<!-- Creator: CorelDRAW X8 -->
<svg xmlns="http://www.w3.org/2000/svg" xml:space="preserve" width="500px" height="500px" version="1.1" style="shape-rendering:geometricPrecision; text-rendering:geometricPrecision; image-rendering:optimizeQuality; fill-rule:evenodd; clip-rule:evenodd"
viewBox="0 0 500 500"
 xmlns:xlink="http://www.w3.org/1999/xlink">
 <defs>
  <style type="text/css">
   <![CDATA[
    .str0 {stroke:black;stroke-width:1.00006}
    .fil0 {fill:none;fill-rule:nonzero}
   ]]>
  </style>
 </defs>
 <g id="Layer_x0020_1">
  <metadata id="CorelCorpID_0Corel-Layer"/>
  <path class="fil0 str0" d="M226 76c-9,-15 -30,-20 -48,-17 -18,4 -33,15 -48,27 -14,11 -29,23 -46,28 8,4 16,6 25,6 6,0 13,0 19,0 16,0 32,3 48,2 16,-1 33,-8 40,-22 3,-4 4,-9 6,-14 2,-4 6,-9 11,-9 3,-1 5,0 8,1 3,1 6,2 8,5 2,4 2,10 1,15 -3,32 -1,65 7,97 13,-15 36,-18 50,-33 8,-8 12,-19 16,-29 5,-16 9,-32 12,-48 2,18 5,35 7,53 2,11 4,22 9,31 5,11 14,19 23,27 6,5 11,11 18,14 7,4 14,6 21,7 8,3 16,5 25,7 -15,-27 -5,-62 -15,-91 -6,-18 -20,-33 -37,-41 -17,-8 -37,-10 -55,-5"/>
  <path class="fil0 str0" d="M253 199c-2,-1 -3,-1 -5,-2 -3,28 -3,56 -2,84 0,1 0,3 1,4 1,2 5,1 7,1 31,-9 61,-18 91,-27 1,25 6,49 18,71 12,22 30,40 52,51 1,-26 16,-52 8,-76 -5,-14 -17,-25 -30,-31 -13,-6 -28,-9 -42,-11"/>
  <path class="fil0 str0" d="M244 262c-12,-10 -20,-24 -24,-39 -5,-15 -7,-31 -8,-46 -20,-10 -40,-19 -61,-24 -21,-5 -44,-6 -64,2 9,15 19,31 35,41 11,8 26,11 40,13 10,1 21,2 31,-3 10,-4 17,-15 15,-25"/>
  <path class="fil0 str0" d="M246 319c-3,-8 -12,-10 -20,-9 -8,0 -17,2 -23,-3 -3,-2 -5,-4 -8,-6 -9,-7 -21,-2 -30,5 -23,18 -33,48 -55,67 -7,6 -14,11 -21,15 -13,8 -25,16 -37,23 31,-1 61,-3 92,-4 13,-1 26,-2 38,-7 16,-7 28,-21 32,-38 4,-17 0,-36 -12,-49"/>
  <path class="fil0 str0" d="M247 322c-1,-1 -2,-1 -3,-2 3,22 7,44 10,66 3,-52 18,-104 41,-150 3,30 -9,60 -2,90 2,10 7,19 12,28 9,15 22,29 36,40 -2,-33 -3,-66 -5,-100 -1,-10 -1,-20 -5,-30 -6,-14 -19,-24 -34,-26"/>
 </g>
</svg>
