<?xml version="1.0" encoding="UTF-8"?>
<!DOCTYPE svg PUBLIC "-//W3C//DTD SVG 1.1//EN" "http://www.w3.org/Graphics/SVG/1.1/DTD/svg11.dtd">
<!-- Creator: CorelDRAW X8 -->
<svg xmlns="http://www.w3.org/2000/svg" xml:space="preserve" width="500px" height="500px" version="1.1" style="shape-rendering:geometricPrecision; text-rendering:geometricPrecision; image-rendering:optimizeQuality; fill-rule:evenodd; clip-rule:evenodd"
viewBox="0 0 500 500"
 xmlns:xlink="http://www.w3.org/1999/xlink">
 <defs>
  <style type="text/css">
   <![CDATA[
    .str0 {stroke:black;stroke-width:1.00006}
    .fil0 {fill:none;fill-rule:nonzero}
   ]]>
  </style>
 </defs>
 <g id="Layer_x0020_1">
  <metadata id="CorelCorpID_0Corel-Layer"/>
  <path class="fil0 str0" d="M216 466c7,-43 13,-86 27,-128 5,-16 11,-32 12,-48 1,-14 -1,-27 -5,-40 -1,-4 -2,-8 -5,-11 -6,-7 -18,-6 -28,-4 -3,6 -6,11 -10,15 4,-1 7,5 5,9 -2,4 -7,5 -12,4 -2,-1 -4,-2 -4,-4 0,-1 1,-3 1,-4 6,-8 12,-17 17,-26 -2,-8 -10,-14 -18,-13 -14,2 -20,24 -33,21 -7,-2 -10,-12 -5,-18 5,-5 16,-1 17,6 7,-6 14,-10 23,-13 0,-6 -1,-12 -2,-17 -11,-2 -23,-4 -34,-6 -6,0 -12,-1 -17,-5 -5,-4 -7,-11 -3,-16 2,-2 6,-3 8,-1 1,0 1,2 2,3 8,14 26,16 42,17 0,-9 1,-18 5,-26 -8,-2 -16,-3 -24,-6 -7,-3 -15,-8 -17,-16 -2,-8 4,-18 12,-17 0,7 -1,14 -4,20 9,9 21,14 33,14 7,-9 13,-22 7,-31 -3,-4 -8,-6 -12,-8 -9,-4 -19,-9 -28,-13 -3,-1 -6,-3 -6,-6 0,-1 1,-3 2,-4 7,-7 14,-12 23,-16 2,4 0,9 -1,13 -2,8 2,16 8,22 7,5 14,7 22,10 5,-5 11,-8 18,-10 -5,-12 -13,-22 -24,-30 -2,-1 -5,-3 -6,-6 -3,-7 6,-13 14,-15 1,0 3,0 4,1 2,1 1,5 -1,8 -3,4 -5,9 -8,14 8,8 17,17 26,25 3,-3 7,-5 11,-7 -3,-7 -1,-16 0,-24 0,-8 -3,-18 -11,-20 6,-8 17,-11 26,-8 2,5 -2,9 -5,12 -9,10 -11,26 -5,38 11,-4 24,-5 36,-3 -1,-10 -1,-19 1,-28 -6,-4 -9,-14 -4,-19 4,-6 14,-7 19,-2 0,4 -4,7 -7,10 -9,11 -1,28 -6,41 9,3 17,7 24,14 7,-11 15,-20 24,-29 -8,-4 -6,-19 2,-21 9,-2 17,11 11,18 -2,2 -5,4 -8,6 -6,3 -11,9 -16,14 -7,7 -15,18 -11,28 1,4 5,8 4,12 9,-7 20,-12 31,-15 -4,-7 5,-17 13,-14 7,2 9,14 3,20 -3,2 -6,3 -10,3 -3,0 -5,-1 -8,-1 -11,-1 -17,16 -28,16 2,8 1,17 -3,24 10,1 20,3 30,6 0,-6 5,-12 12,-12 6,0 11,7 10,13 -1,6 -8,10 -14,8 -1,-1 -1,-3 -2,-5 -12,2 -25,1 -37,-2 -4,13 -11,25 -22,33 12,2 25,4 37,8 -1,8 -7,15 -14,18 -4,-4 -6,-11 -5,-17 -7,2 -16,1 -23,-2 -3,6 -9,11 -16,13 4,4 8,10 10,17 4,-1 9,-1 14,0 1,6 -5,13 -12,13 -2,0 -4,-1 -5,-3 -1,-1 -1,-3 -2,-5 -2,-12 -15,-20 -27,-18 4,10 8,20 9,31 6,36 -13,70 -24,104 -12,36 -14,75 -17,113"/>
 </g>
</svg>
