<?xml version="1.0" encoding="UTF-8"?>
<!DOCTYPE svg PUBLIC "-//W3C//DTD SVG 1.1//EN" "http://www.w3.org/Graphics/SVG/1.1/DTD/svg11.dtd">
<!-- Creator: CorelDRAW X8 -->
<svg xmlns="http://www.w3.org/2000/svg" xml:space="preserve" width="500px" height="500px" version="1.1" style="shape-rendering:geometricPrecision; text-rendering:geometricPrecision; image-rendering:optimizeQuality; fill-rule:evenodd; clip-rule:evenodd"
viewBox="0 0 500 500"
 xmlns:xlink="http://www.w3.org/1999/xlink">
 <defs>
  <style type="text/css">
   <![CDATA[
    .str0 {stroke:black;stroke-width:1.00006}
    .fil0 {fill:none;fill-rule:nonzero}
   ]]>
  </style>
 </defs>
 <g id="Layer_x0020_1">
  <metadata id="CorelCorpID_0Corel-Layer"/>
  <path class="fil0 str0" d="M111 132c8,26 23,51 44,69 -11,-33 -22,-68 -31,-102 5,22 15,43 28,61 -4,-16 -2,-32 4,-47 5,11 12,21 19,31 0,-12 0,-23 -2,-35l12 25c1,-25 -7,-50 -22,-71 16,10 28,27 35,44 7,18 11,37 15,55 -3,-25 -2,-51 3,-76 10,21 19,42 25,64 -2,-17 -3,-35 -2,-52 10,15 17,31 21,48 1,-15 4,-30 11,-44 1,17 4,34 9,50 6,-27 18,-52 34,-74 -7,39 -14,78 -19,118 14,-36 29,-72 44,-108 -10,45 -19,89 -29,133 28,-33 55,-67 82,-101 -6,35 -34,62 -40,97 13,-23 32,-43 54,-58 -17,26 -35,52 -53,78 21,-8 40,-20 57,-34 2,6 -3,12 -7,17 -16,18 -34,36 -52,51 13,-5 27,-10 41,-14 2,7 -4,13 -10,17 -10,8 -20,16 -30,23 12,-6 26,-10 40,-13 -19,26 -59,35 -70,66 39,-5 78,-19 112,-40 5,-4 13,-7 16,-2 -33,35 -83,53 -131,47 14,9 29,16 45,22 -19,1 -37,1 -56,1 4,4 8,8 10,12 2,5 1,11 -3,15 3,0 5,2 5,5 -7,2 -11,10 -8,17 -8,-4 -18,0 -26,3 -23,6 -47,6 -70,0 7,-7 13,-14 20,-21 -5,-3 -11,-1 -16,0 -18,6 -37,12 -56,17l57 -25c5,-2 12,-8 9,-13 -16,4 -33,6 -50,5 2,-7 12,-8 19,-8 8,1 17,-1 19,-8 -9,-6 -21,-4 -31,-4 -11,1 -24,-3 -26,-13 13,-5 24,-17 27,-31 9,3 18,6 27,8 1,-12 -13,-19 -24,-21 -12,-2 -25,-2 -34,-11 9,-8 23,-6 34,-1 11,5 21,13 33,14 2,0 -10,-13 -11,-14 -5,-4 -10,-8 -15,-13 -10,-10 -20,-21 -28,-34 -17,-24 -30,-51 -41,-78 -7,-16 -13,-31 -18,-47z"/>
 </g>
</svg>
