<?xml version="1.0" encoding="UTF-8"?>
<!DOCTYPE svg PUBLIC "-//W3C//DTD SVG 1.1//EN" "http://www.w3.org/Graphics/SVG/1.1/DTD/svg11.dtd">
<!-- Creator: CorelDRAW X8 -->
<svg xmlns="http://www.w3.org/2000/svg" xml:space="preserve" width="500px" height="500px" version="1.1" style="shape-rendering:geometricPrecision; text-rendering:geometricPrecision; image-rendering:optimizeQuality; fill-rule:evenodd; clip-rule:evenodd"
viewBox="0 0 500 500"
 xmlns:xlink="http://www.w3.org/1999/xlink">
 <defs>
  <style type="text/css">
   <![CDATA[
    .str0 {stroke:black;stroke-width:1.00006}
    .fil0 {fill:none;fill-rule:nonzero}
   ]]>
  </style>
 </defs>
 <g id="Layer_x0020_1">
  <metadata id="CorelCorpID_0Corel-Layer"/>
  <path class="fil0 str0" d="M183 216c1,1 2,2 2,3"/>
  <path class="fil0 str0" d="M240 22c1,0 0,-2 -1,-1 -1,0 -1,1 -1,2 -3,11 -3,23 -2,34 -2,-4 0,-9 4,-12 3,-2 8,-3 12,-3 0,-6 -2,-12 -5,-18 1,8 1,16 0,24 0,2 0,4 -1,5 -1,2 -4,2 -6,3 -17,4 -36,8 -53,1 3,6 9,11 15,15 16,9 34,12 52,9 18,-4 34,-14 45,-29 4,-5 7,-11 6,-18 -22,8 -43,16 -65,24"/>
  <path class="fil0 str0" d="M186 101c2,5 7,7 12,9 14,6 29,11 44,11 9,0 17,-3 26,-5 8,-2 17,-5 25,-7 8,-2 17,-4 24,-9 7,-5 12,-13 12,-21 0,-2 -65,13 -71,15 -24,4 -48,7 -72,7z"/>
  <path class="fil0 str0" d="M185 145c9,10 23,12 36,13 17,1 35,1 52,0 17,0 33,-2 48,-9 15,-7 28,-20 31,-37 -1,5 -42,13 -47,14 -16,3 -31,3 -47,4 -24,0 -50,6 -73,15z"/>
  <path class="fil0 str0" d="M262 176c-28,3 -57,9 -84,19 14,-1 27,5 41,9 40,12 83,-2 123,-16 12,-4 24,-9 30,-20 -42,-2 -84,2 -125,11"/>
  <path class="fil0 str0" d="M291 224c-21,-3 -42,4 -62,10 -19,7 -39,14 -59,21 15,-1 30,3 45,6 52,10 108,7 155,-16 7,-4 14,-9 14,-17 -37,-2 -74,-3 -111,-3"/>
  <path class="fil0 str0" d="M250 294c-29,12 -57,24 -84,37 42,1 84,9 126,10 42,1 87,-6 119,-33 1,0 2,-1 2,-2 0,-2 -2,-3 -4,-3 -10,-1 -19,-1 -28,-3 -24,-3 -47,-10 -70,-10 -22,0 -41,-4 -61,4z"/>
  <path class="fil0 str0" d="M169 391c16,-3 32,-1 48,1 25,3 50,6 76,9 22,2 44,5 67,4 22,-2 44,-8 63,-21 1,-1 2,-2 2,-3 0,-2 -3,-4 -5,-4 -33,-8 -68,-6 -101,-12 -14,-3 -24,-13 -38,-9 -18,5 -35,11 -52,16 -20,6 -40,13 -60,19z"/>
  <path class="fil0 str0" d="M207 435c15,14 38,14 58,15 23,1 46,4 69,3 23,0 47,-4 66,-15 -1,0 -19,-9 -22,-10 -8,-3 -16,-5 -25,-7 -14,-2 -29,-4 -43,-4 -34,-2 -71,7 -103,18z"/>
  <path class="fil0 str0" d="M245 35c5,26 15,52 22,78 33,123 -2,255 19,381"/>
 </g>
</svg>
