<?xml version="1.0" encoding="UTF-8"?>
<!DOCTYPE svg PUBLIC "-//W3C//DTD SVG 1.1//EN" "http://www.w3.org/Graphics/SVG/1.1/DTD/svg11.dtd">
<!-- Creator: CorelDRAW X8 -->
<svg xmlns="http://www.w3.org/2000/svg" xml:space="preserve" width="500px" height="500px" version="1.1" style="shape-rendering:geometricPrecision; text-rendering:geometricPrecision; image-rendering:optimizeQuality; fill-rule:evenodd; clip-rule:evenodd"
viewBox="0 0 500 500"
 xmlns:xlink="http://www.w3.org/1999/xlink">
 <defs>
  <style type="text/css">
   <![CDATA[
    .str0 {stroke:black;stroke-width:1.00006}
    .fil0 {fill:none;fill-rule:nonzero}
   ]]>
  </style>
 </defs>
 <g id="Layer_x0020_1">
  <metadata id="CorelCorpID_0Corel-Layer"/>
  <path class="fil0 str0" d="M260 209c-58,79 -127,151 -204,212 -6,4 -13,9 -20,9"/>
  <path class="fil0 str0" d="M227 104c0,-2 -1,-3 -1,-5 -9,26 -2,55 9,80 3,8 8,16 17,17"/>
  <path class="fil0 str0" d="M261 202c7,-2 14,-2 20,-2 11,0 22,2 33,3 30,3 60,-3 87,-18 7,-4 14,-8 20,-15 5,-7 8,-15 6,-24"/>
  <path class="fil0 str0" d="M260 207c5,1 9,4 13,6 29,15 59,28 90,37 14,4 27,7 41,5 18,-2 34,-14 48,-25"/>
  <path class="fil0 str0" d="M281 193c-1,-7 -1,-15 0,-22 3,-21 18,-39 32,-56 1,-1 3,-1 3,0"/>
  <path class="fil0 str0" d="M290 188c2,-1 3,-3 5,-4 22,-20 48,-35 77,-44"/>
  <line class="fil0 str0" x1="217" y1="90" x2="217" y2= "94" />
  <path class="fil0 str0" d="M232 86c-1,2 -1,4 -1,6"/>
  <path class="fil0 str0" d="M238 105c2,-2 6,-3 10,-3"/>
  <path class="fil0 str0" d="M205 109l-2 -2c-1,0 -1,1 -2,1"/>
  <path class="fil0 str0" d="M232 121c0,-2 2,-3 3,-2"/>
  <path class="fil0 str0" d="M301 97c0,-1 -1,-1 -2,-1 0,1 0,2 0,2 0,4 0,9 3,10"/>
  <path class="fil0 str0" d="M329 96c0,-1 -1,-1 -2,-2 1,0 3,0 4,0"/>
  <path class="fil0 str0" d="M322 121c0,0 -1,-2 0,-2 3,0 6,1 9,1"/>
  <path class="fil0 str0" d="M316 134c0,0 0,0 0,-1 0,0 1,0 1,0 2,1 4,1 6,2"/>
  <path class="fil0 str0" d="M368 113c0,-1 -1,-2 -2,-3 -1,6 -2,11 -4,16"/>
  <path class="fil0 str0" d="M381 125c-1,0 -2,-1 -2,-1 3,0 6,0 9,0"/>
  <path class="fil0 str0" d="M382 141l-1 -2c3,0 5,0 7,2"/>
  <path class="fil0 str0" d="M366 158c0,0 0,0 -1,0 0,0 1,1 1,1 2,1 4,3 6,4"/>
  <path class="fil0 str0" d="M408 136c0,-1 -1,-1 -1,-1 -1,4 0,8 2,11"/>
  <path class="fil0 str0" d="M437 130c1,0 3,0 4,1"/>
  <path class="fil0 str0" d="M439 154c-1,0 -2,-1 -2,-2l10 0"/>
  <path class="fil0 str0" d="M434 174c-1,0 -1,1 -1,1 3,1 7,2 10,3"/>
  <path class="fil0 str0" d="M447 197c0,-1 -2,0 -3,2 -1,4 -2,9 -3,13"/>
  <path class="fil0 str0" d="M468 210c0,0 0,-1 0,-1 0,0 1,0 2,0 2,0 4,1 6,2"/>
  <path class="fil0 str0" d="M457 234c0,-1 0,-3 0,-4 3,0 7,1 10,3"/>
  <path class="fil0 str0" d="M445 256c0,-1 0,-2 0,-3 5,3 9,6 12,11"/>
  <path class="fil0 str0" d="M429 275c4,2 8,6 11,9"/>
 </g>
</svg>
