<?xml version="1.0" encoding="UTF-8"?>
<!DOCTYPE svg PUBLIC "-//W3C//DTD SVG 1.1//EN" "http://www.w3.org/Graphics/SVG/1.1/DTD/svg11.dtd">
<!-- Creator: CorelDRAW X8 -->
<svg xmlns="http://www.w3.org/2000/svg" xml:space="preserve" width="500px" height="500px" version="1.1" style="shape-rendering:geometricPrecision; text-rendering:geometricPrecision; image-rendering:optimizeQuality; fill-rule:evenodd; clip-rule:evenodd"
viewBox="0 0 500 500"
 xmlns:xlink="http://www.w3.org/1999/xlink">
 <defs>
  <style type="text/css">
   <![CDATA[
    .str0 {stroke:black;stroke-width:1.00006}
    .fil0 {fill:none;fill-rule:nonzero}
   ]]>
  </style>
 </defs>
 <g id="Layer_x0020_1">
  <metadata id="CorelCorpID_0Corel-Layer"/>
  <path class="fil0 str0" d="M263 120c-30,-1 -61,5 -87,18 -27,14 -50,37 -60,65 -11,28 -10,61 7,86 11,18 28,31 47,38 19,8 40,9 60,7 37,-4 73,-24 92,-55 15,-23 20,-51 15,-78 -2,-17 -9,-35 -20,-48 -8,-9 -17,-16 -27,-20 -5,-2 -12,-2 -16,-5 -4,-4 -3,-7 -11,-8z"/>
  <path class="fil0 str0" d="M190 218c-17,-1 -33,4 -46,13 11,8 26,13 40,13 -3,12 -2,25 2,37 11,-7 18,-19 20,-32 15,1 29,1 44,1 -2,-9 -9,-15 -16,-20 -8,-4 -17,-7 -25,-9 6,-5 8,-13 7,-21 -1,-4 -3,-11 -6,-15 -4,-6 -5,-3 -8,3 -2,3 -13,30 -12,30z"/>
 </g>
</svg>
