<?xml version="1.0" encoding="UTF-8"?>
<!DOCTYPE svg PUBLIC "-//W3C//DTD SVG 1.1//EN" "http://www.w3.org/Graphics/SVG/1.1/DTD/svg11.dtd">
<!-- Creator: CorelDRAW X8 -->
<svg xmlns="http://www.w3.org/2000/svg" xml:space="preserve" width="500px" height="500px" version="1.1" style="shape-rendering:geometricPrecision; text-rendering:geometricPrecision; image-rendering:optimizeQuality; fill-rule:evenodd; clip-rule:evenodd"
viewBox="0 0 500 500"
 xmlns:xlink="http://www.w3.org/1999/xlink">
 <defs>
  <style type="text/css">
   <![CDATA[
    .str0 {stroke:black;stroke-width:1.00006}
    .fil0 {fill:none;fill-rule:nonzero}
   ]]>
  </style>
 </defs>
 <g id="Layer_x0020_1">
  <metadata id="CorelCorpID_0Corel-Layer"/>
  <path class="fil0 str0" d="M229 175c-7,7 -12,18 -9,28 1,7 7,13 13,17 7,4 14,5 22,7 10,2 21,2 31,0 10,-2 20,-8 25,-16 12,-19 -2,-46 -21,-54 -18,-8 -48,6 -61,18z"/>
  <path class="fil0 str0" d="M135 264c-1,-5 1,-9 2,-14 14,-40 28,-80 41,-120 14,11 18,29 20,46 2,13 3,25 4,37"/>
  <path class="fil0 str0" d="M266 191c1,-5 4,-10 6,-15 12,-21 24,-42 36,-63 16,15 20,38 22,60 2,18 2,37 -2,54 -6,21 -19,40 -32,58 -9,13 -19,26 -29,38 -2,3 -5,5 -7,4"/>
  <path class="fil0 str0" d="M266 245c-25,6 -49,18 -64,38 -15,21 -20,50 -7,72 10,19 31,30 52,33 23,4 46,-1 65,-14 19,-13 32,-33 36,-56 1,-4 1,-9 0,-14 -1,-11 -6,-21 -13,-30 -9,-10 -20,-18 -33,-22 -5,-2 -11,-2 -16,-4 -7,-4 -12,-4 -20,-3z"/>
  <path class="fil0 str0" d="M142 210c-5,1 -10,3 -14,6 -8,6 -15,13 -19,21 -5,8 -7,18 -4,28 4,16 22,26 38,25 17,0 32,-10 43,-23 5,-6 9,-13 11,-21 2,-7 1,-16 -3,-23 -6,-8 -15,-11 -25,-12 -4,0 -9,1 -13,1 -5,-1 -9,-3 -14,-2z"/>
 </g>
</svg>
