<?xml version="1.0" encoding="UTF-8"?>
<!DOCTYPE svg PUBLIC "-//W3C//DTD SVG 1.1//EN" "http://www.w3.org/Graphics/SVG/1.1/DTD/svg11.dtd">
<!-- Creator: CorelDRAW X8 -->
<svg xmlns="http://www.w3.org/2000/svg" xml:space="preserve" width="500px" height="500px" version="1.1" style="shape-rendering:geometricPrecision; text-rendering:geometricPrecision; image-rendering:optimizeQuality; fill-rule:evenodd; clip-rule:evenodd"
viewBox="0 0 500 500"
 xmlns:xlink="http://www.w3.org/1999/xlink">
 <defs>
  <style type="text/css">
   <![CDATA[
    .str0 {stroke:black;stroke-width:1.00006}
    .fil0 {fill:none;fill-rule:nonzero}
   ]]>
  </style>
 </defs>
 <g id="Layer_x0020_1">
  <metadata id="CorelCorpID_0Corel-Layer"/>
  <path class="fil0 str0" d="M199 286c-16,10 -30,24 -45,36 -23,18 -50,34 -61,60 61,0 118,-34 157,-81 31,-36 -33,-25 -51,-15z"/>
  <path class="fil0 str0" d="M249 169c-4,-15 -5,-30 -7,-46 -6,-32 -19,-61 -33,-91 -10,49 -16,98 -19,147 -1,13 -1,25 2,38 3,12 11,23 23,28 9,4 20,3 28,8 -28,-23 -73,-1 -105,-18 -17,-9 -27,-27 -35,-45 -11,-27 -18,-56 -22,-85 -1,52 -3,105 7,156 2,13 6,27 13,37 11,15 28,23 46,26 18,2 36,0 54,-2 -22,6 -34,32 -35,55 -2,34 11,68 35,91 -2,-14 7,-27 14,-39 16,-28 18,-62 20,-95 12,30 26,62 51,82 34,29 81,32 125,34 -11,-56 -52,-101 -91,-143 46,-10 93,-11 140,-11 -13,-33 -45,-57 -79,-64 -19,-4 -35,-1 -54,3 -18,4 -28,1 -42,-11 -17,-15 -30,-33 -36,-55z"/>
 </g>
</svg>
