<?xml version="1.0" encoding="UTF-8"?>
<!DOCTYPE svg PUBLIC "-//W3C//DTD SVG 1.1//EN" "http://www.w3.org/Graphics/SVG/1.1/DTD/svg11.dtd">
<!-- Creator: CorelDRAW X8 -->
<svg xmlns="http://www.w3.org/2000/svg" xml:space="preserve" width="500px" height="500px" version="1.1" style="shape-rendering:geometricPrecision; text-rendering:geometricPrecision; image-rendering:optimizeQuality; fill-rule:evenodd; clip-rule:evenodd"
viewBox="0 0 500 500"
 xmlns:xlink="http://www.w3.org/1999/xlink">
 <defs>
  <style type="text/css">
   <![CDATA[
    .str0 {stroke:black;stroke-width:1.00006}
    .fil0 {fill:none;fill-rule:nonzero}
   ]]>
  </style>
 </defs>
 <g id="Layer_x0020_1">
  <metadata id="CorelCorpID_0Corel-Layer"/>
  <path class="fil0 str0" d="M226 51c4,1 7,3 10,6 -7,5 -17,7 -26,5 8,8 20,13 31,14 -6,3 -13,5 -20,8 4,2 8,4 11,6 -11,5 -24,5 -35,3 10,6 21,11 32,17 -10,-1 -20,1 -29,3 10,4 19,9 27,15 -10,3 -19,5 -29,7 2,3 7,4 11,6 4,1 7,7 4,10 -1,1 -2,1 -3,2 -5,1 -9,2 -14,1 4,5 8,10 10,16 -8,2 -16,4 -25,5 3,3 5,5 8,8 -12,2 -24,1 -34,-5 14,11 29,21 45,30 -14,0 -29,0 -43,1 11,7 22,14 33,22 -19,3 -40,-5 -51,-21 10,26 34,46 61,50 -18,6 -37,9 -56,11 13,-1 26,1 38,3 3,1 6,2 7,4 1,3 -1,7 -3,9 -15,17 -37,27 -60,27 19,9 42,-4 63,-2 -23,27 -62,35 -98,38 40,13 85,9 122,-11 -18,17 -41,30 -65,34 35,-3 72,-13 96,-40 20,26 55,36 87,44 -18,-13 -35,-29 -48,-46 19,10 39,21 61,18 -9,-13 -18,-26 -28,-38 23,10 49,15 75,14 -21,-12 -42,-24 -63,-36 17,6 35,8 53,6 2,-2 -2,-5 -4,-7 -13,-7 -27,-10 -40,-16 -14,-6 -26,-15 -32,-28 15,6 29,13 44,14 -18,-15 -35,-34 -49,-54 12,4 23,7 35,9 -13,-12 -26,-24 -38,-35 4,-1 8,-2 13,-3 1,-15 -21,-20 -24,-34 5,-2 10,-3 16,-5 -6,-6 -12,-13 -18,-19 2,-5 0,-12 -4,-16l4 -4c-1,-5 -4,-9 -7,-13 4,1 8,-3 8,-8 1,-4 -1,-8 -3,-12l-5 -12c-4,-9 -9,-27 -21,-19 -8,4 -18,22 -30,18z"/>
  <path class="fil0 str0" d="M258 89c-13,74 -8,150 -14,225 -4,51 -13,102 -10,153"/>
 </g>
</svg>
