<?xml version="1.0" encoding="UTF-8"?>
<!DOCTYPE svg PUBLIC "-//W3C//DTD SVG 1.1//EN" "http://www.w3.org/Graphics/SVG/1.1/DTD/svg11.dtd">
<!-- Creator: CorelDRAW X8 -->
<svg xmlns="http://www.w3.org/2000/svg" xml:space="preserve" width="500px" height="500px" version="1.1" style="shape-rendering:geometricPrecision; text-rendering:geometricPrecision; image-rendering:optimizeQuality; fill-rule:evenodd; clip-rule:evenodd"
viewBox="0 0 500 500"
 xmlns:xlink="http://www.w3.org/1999/xlink">
 <defs>
  <style type="text/css">
   <![CDATA[
    .str0 {stroke:black;stroke-width:1.00006}
    .fil0 {fill:none;fill-rule:nonzero}
   ]]>
  </style>
 </defs>
 <g id="Layer_x0020_1">
  <metadata id="CorelCorpID_0Corel-Layer"/>
  <path class="fil0 str0" d="M201 79c-7,-13 -17,-25 -28,-35 -4,5 -5,13 -3,19 3,6 9,10 15,10 5,0 9,-2 14,0 8,2 9,14 9,22 -3,52 -11,105 -6,157 -13,-9 -26,-17 -33,-30 -8,-11 -10,-25 -14,-38 -7,-22 -19,-42 -34,-58 -12,4 -22,12 -30,21 -1,2 -3,4 -2,6 1,1 2,2 3,3 13,4 25,-6 35,-14"/>
  <path class="fil0 str0" d="M254 255c1,-4 5,-7 9,-10 26,-18 42,-47 51,-78 8,-30 9,-63 9,-94 0,-2 0,-4 1,-5 2,-2 4,-3 6,-3 10,-1 20,1 30,3 1,1 3,1 4,2 2,3 0,7 -3,10 -8,8 -20,11 -31,8 -3,0 -7,-1 -8,2"/>
  <path class="fil0 str0" d="M266 263c-1,1 -1,-1 -1,-1 1,-1 2,-1 3,-1 11,2 23,4 34,4 7,0 14,0 21,-3 8,-4 12,-12 16,-20 8,-17 15,-34 19,-51 2,11 10,22 21,27 1,-9 -1,-18 -7,-25 -2,-2 -5,-5 -9,-5 -3,-1 -7,1 -9,4"/>
  <path class="fil0 str0" d="M208 252c-1,-19 2,-40 9,-58 4,-8 8,-16 14,-22 7,-6 16,-9 25,-6 -4,-26 -2,-54 6,-79 13,19 -1,46 6,67 3,9 9,16 11,24 1,7 -2,14 -4,20 -7,20 -15,40 -25,59"/>
  <path class="fil0 str0" d="M191 265c-13,-11 -34,-8 -45,4 -5,7 -8,17 -10,26 -11,46 -17,95 -7,141 1,-20 14,-38 27,-54 12,-16 24,-35 22,-55 -1,34 -1,68 1,101 1,11 4,25 14,27 5,1 9,-1 13,-3 18,-10 28,-31 32,-51 4,-20 4,-41 8,-62 15,-6 31,5 42,17 9,9 16,20 20,32 7,25 -3,51 -13,75 18,-10 33,-26 38,-46 1,-5 1,-10 2,-16 3,-14 11,-27 8,-41 3,-2 8,-1 10,2 3,3 4,7 5,11 4,18 7,35 9,53 11,-13 20,-27 22,-43 2,-18 -5,-35 -15,-50 -22,-33 -60,-57 -100,-62"/>
 </g>
</svg>
