<?xml version="1.0" encoding="UTF-8"?>
<!DOCTYPE svg PUBLIC "-//W3C//DTD SVG 1.1//EN" "http://www.w3.org/Graphics/SVG/1.1/DTD/svg11.dtd">
<!-- Creator: CorelDRAW X8 -->
<svg xmlns="http://www.w3.org/2000/svg" xml:space="preserve" width="500px" height="500px" version="1.1" style="shape-rendering:geometricPrecision; text-rendering:geometricPrecision; image-rendering:optimizeQuality; fill-rule:evenodd; clip-rule:evenodd"
viewBox="0 0 500 500"
 xmlns:xlink="http://www.w3.org/1999/xlink">
 <defs>
  <style type="text/css">
   <![CDATA[
    .str0 {stroke:black;stroke-width:1.00006}
    .fil0 {fill:none;fill-rule:nonzero}
   ]]>
  </style>
 </defs>
 <g id="Layer_x0020_1">
  <metadata id="CorelCorpID_0Corel-Layer"/>
  <path class="fil0 str0" d="M162 84c-3,5 -6,11 -7,17 -1,15 11,30 26,32 15,3 30,-7 37,-20 5,-9 5,-22 -3,-29 -7,-6 -21,-8 -30,-10 -9,-2 -16,2 -23,10z"/>
  <path class="fil0 str0" d="M237 151c1,6 3,10 6,15 9,13 28,20 44,16 3,-1 5,-2 8,-4 3,-2 5,-6 6,-9 7,-16 14,-58 -13,-58 -20,0 -53,17 -51,40z"/>
  <path class="fil0 str0" d="M185 209c-8,6 -17,16 -16,26 1,8 7,14 14,17 7,4 15,4 22,5 5,0 11,0 15,-4 3,-3 4,-8 4,-13 1,-7 0,-14 -3,-20 -6,-10 -26,-18 -36,-11z"/>
  <path class="fil0 str0" d="M262 296c10,8 22,14 35,13 36,-2 30,-48 4,-61 -26,-13 -66,25 -39,48z"/>
  <path class="fil0 str0" d="M216 354c-7,4 -13,10 -17,17 -4,7 -6,16 -4,23 3,9 11,16 19,20 16,8 35,11 52,8 5,0 11,-2 15,-6 3,-3 5,-7 6,-10 4,-13 1,-26 -3,-38 -3,-8 -4,-19 -8,-26 -11,-19 -48,3 -60,12z"/>
  <path class="fil0 str0" d="M227 348c1,0 1,-2 0,-3 16,26 32,52 42,81"/>
  <path class="fil0 str0" d="M176 219c0,-2 3,-4 6,-4 3,1 5,3 6,5 10,9 18,19 25,30"/>
  <path class="fil0 str0" d="M247 177c1,-3 4,-5 7,-7 12,-8 25,-15 38,-20"/>
  <path class="fil0 str0" d="M184 101c5,10 10,21 17,30"/>
  <path class="fil0 str0" d="M269 307c15,-13 31,-24 48,-34"/>
  <path class="fil0 str0" d="M225 24c31,107 18,222 -7,330"/>
  <path class="fil0 str0" d="M219 421c0,-1 0,-2 0,-3 -6,19 -10,39 -12,58 0,3 -1,5 -1,8"/>
  <line class="fil0 str0" x1="256" y1="100" x2="256" y2= "97" />
  <path class="fil0 str0" d="M252 101c-1,1 -2,0 -2,-1 0,-1 1,-1 2,-2 42,-25 87,-44 133,-58"/>
  <path class="fil0 str0" d="M248 108c0,-3 4,-4 7,-5 21,-3 43,-6 64,-9"/>
  <path class="fil0 str0" d="M250 96c5,-1 7,-7 8,-13 3,-13 5,-27 7,-41 -1,1 -2,1 -3,2"/>
  <path class="fil0 str0" d="M232 71c1,-1 1,-2 1,-3 -8,-1 -15,-5 -22,-10 -3,-2 -6,-4 -10,-4"/>
  <path class="fil0 str0" d="M236 216c-42,-31 -97,-37 -149,-40 -4,-1 -10,1 -9,5"/>
  <path class="fil0 str0" d="M222 312c-2,-3 -6,-4 -10,-3 -4,0 -7,2 -10,4 -15,9 -31,16 -48,20"/>
  <path class="fil0 str0" d="M242 256c4,-8 11,-14 18,-20 20,-17 40,-34 59,-50"/>
  <path class="fil0 str0" d="M199 421c-15,-16 -40,-15 -59,-26"/>
 </g>
</svg>
