<?xml version="1.0" encoding="UTF-8"?>
<!DOCTYPE svg PUBLIC "-//W3C//DTD SVG 1.1//EN" "http://www.w3.org/Graphics/SVG/1.1/DTD/svg11.dtd">
<!-- Creator: CorelDRAW X8 -->
<svg xmlns="http://www.w3.org/2000/svg" xml:space="preserve" width="500px" height="500px" version="1.1" style="shape-rendering:geometricPrecision; text-rendering:geometricPrecision; image-rendering:optimizeQuality; fill-rule:evenodd; clip-rule:evenodd"
viewBox="0 0 500 500"
 xmlns:xlink="http://www.w3.org/1999/xlink">
 <defs>
  <style type="text/css">
   <![CDATA[
    .str0 {stroke:black;stroke-width:1.00006}
    .fil0 {fill:none;fill-rule:nonzero}
   ]]>
  </style>
 </defs>
 <g id="Layer_x0020_1">
  <metadata id="CorelCorpID_0Corel-Layer"/>
  <path class="fil0 str0" d="M146 25c0,0 0,-1 -1,-1 -3,13 -6,27 -6,41"/>
  <path class="fil0 str0" d="M130 31c-1,0 -2,0 -3,1 0,2 0,3 0,4 0,11 1,22 2,33"/>
  <path class="fil0 str0" d="M108 52c3,12 8,24 14,35"/>
  <path class="fil0 str0" d="M159 39c-2,0 -3,2 -3,4 -3,13 -6,26 -9,40"/>
  <path class="fil0 str0" d="M175 48c-1,17 -9,33 -21,45"/>
  <path class="fil0 str0" d="M111 80c1,14 6,27 13,38"/>
  <path class="fil0 str0" d="M136 100c0,0 -1,-1 -1,0 -1,0 -1,1 -1,1 0,10 1,19 5,28"/>
  <path class="fil0 str0" d="M164 105c-3,0 -5,3 -5,6 -2,10 -5,19 -7,29"/>
  <path class="fil0 str0" d="M176 113c-3,14 -10,27 -21,37"/>
  <path class="fil0 str0" d="M133 136c0,9 1,18 5,26"/>
  <path class="fil0 str0" d="M111 130c-1,0 -2,1 -2,1 0,1 0,2 1,3 5,9 10,18 15,26"/>
  <path class="fil0 str0" d="M100 162c7,8 16,15 25,20"/>
  <path class="fil0 str0" d="M139 178c0,0 -2,0 -2,1 0,1 0,2 1,3 4,7 9,13 15,18"/>
  <path class="fil0 str0" d="M177 164c-2,-1 -4,2 -5,4 -3,6 -5,12 -6,18"/>
  <path class="fil0 str0" d="M187 188c-2,-2 -3,0 -4,2 -3,8 -7,16 -10,24"/>
  <path class="fil0 str0" d="M129 194c-2,0 -2,2 -2,4 4,9 9,17 17,22"/>
  <path class="fil0 str0" d="M101 205c0,-1 -1,0 -1,1 6,9 14,18 23,26"/>
  <path class="fil0 str0" d="M162 234c-1,-1 -3,0 -4,1 -1,1 -1,2 -1,4 -1,6 -1,12 -2,18"/>
  <path class="fil0 str0" d="M198 230c-2,0 -4,1 -5,3l-25 27"/>
  <path class="fil0 str0" d="M137 246c0,9 2,17 7,24"/>
  <path class="fil0 str0" d="M112 256c4,10 11,19 21,23"/>
  <path class="fil0 str0" d="M100 286c7,7 16,13 26,17"/>
  <path class="fil0 str0" d="M144 286c-2,-1 -3,1 -4,2 0,2 0,3 1,5 3,7 7,13 12,18"/>
  <path class="fil0 str0" d="M168 279c-1,-1 -4,0 -5,2 -2,2 -2,4 -2,7 0,8 1,17 2,25"/>
  <path class="fil0 str0" d="M193 275c-2,0 -2,3 -3,4 -4,12 -7,24 -11,36"/>
  <path class="fil0 str0" d="M150 330c-2,8 -3,15 -3,23"/>
  <path class="fil0 str0" d="M121 323c-1,-1 -2,2 -2,3 3,12 7,23 12,34"/>
  <path class="fil0 str0" d="M137 376c6,8 15,13 24,14"/>
  <path class="fil0 str0" d="M165 342c-2,0 -2,2 -2,4 -1,8 1,16 6,22"/>
  <path class="fil0 str0" d="M185 343c-1,0 -2,0 -3,0 0,11 1,21 4,31"/>
  <path class="fil0 str0" d="M166 394c7,6 14,11 23,15"/>
  <path class="fil0 str0" d="M165 415c10,6 21,9 33,10"/>
  <path class="fil0 str0" d="M201 391c0,0 -1,-1 -1,0 -1,0 0,1 1,2 5,5 11,11 17,16"/>
  <path class="fil0 str0" d="M208 427c0,-1 -1,-1 -1,-1 -1,0 -1,1 -1,2 -1,9 -1,19 -2,29"/>
  <path class="fil0 str0" d="M226 429c-3,11 -6,22 -8,33"/>
  <path class="fil0 str0" d="M237 429c1,0 -1,-1 -1,0 -1,0 -1,1 -1,2 0,11 0,22 -1,33"/>
  <path class="fil0 str0" d="M252 425c-1,-1 -1,0 -2,0 0,1 1,1 1,2 6,9 14,18 23,25"/>
  <path class="fil0 str0" d="M267 412c9,7 20,12 31,15"/>
  <path class="fil0 str0" d="M240 399c-7,-9 -11,-20 -12,-31"/>
  <path class="fil0 str0" d="M250 374c-1,-3 1,-6 3,-9 4,-6 9,-12 13,-18"/>
  <path class="fil0 str0" d="M239 356c-1,1 -2,0 -3,0 -1,-1 -1,-3 -1,-4 1,-11 1,-23 1,-35"/>
  <path class="fil0 str0" d="M214 332c-1,1 -2,2 -4,2 -1,-7 -2,-14 -4,-21"/>
  <path class="fil0 str0" d="M256 336c-1,1 -2,-1 -1,-2 4,-13 9,-25 14,-36"/>
  <path class="fil0 str0" d="M246 312c4,-13 8,-25 12,-38"/>
  <path class="fil0 str0" d="M228 296c-4,0 -5,-5 -5,-8 0,-6 1,-13 2,-19"/>
  <path class="fil0 str0" d="M276 276c-2,1 -3,-1 -3,-2 0,-1 0,-2 1,-3l6 -20"/>
  <path class="fil0 str0" d="M250 263c-1,0 -2,0 -3,1 3,-9 4,-19 3,-28"/>
  <path class="fil0 str0" d="M240 241c-8,-3 -14,-11 -15,-20"/>
  <path class="fil0 str0" d="M257 231c3,-7 6,-14 9,-20"/>
  <path class="fil0 str0" d="M261 249c9,-9 17,-17 26,-26"/>
  <path class="fil0 str0" d="M245 220c-3,-2 -5,-6 -6,-10 -3,-7 -7,-13 -11,-18"/>
  <path class="fil0 str0" d="M276 206c9,-8 18,-17 24,-27"/>
  <path class="fil0 str0" d="M253 205c0,1 -2,1 -3,0 0,-1 0,-2 1,-3 3,-8 6,-16 9,-24"/>
  <path class="fil0 str0" d="M275 187c0,-2 2,-4 3,-6 6,-5 11,-10 17,-15"/>
  <path class="fil0 str0" d="M242 186c-2,0 -3,-1 -5,-1 6,-9 6,-21 2,-31"/>
  <path class="fil0 str0" d="M266 162c-1,0 -2,-1 -2,-2 7,-8 13,-16 19,-24"/>
  <path class="fil0 str0" d="M281 167c-1,1 -1,-1 0,-2l23 -18"/>
  <path class="fil0 str0" d="M248 155c-7,-8 -4,-21 -7,-32"/>
  <path class="fil0 str0" d="M262 132c-1,0 -3,0 -4,0 0,-11 -1,-22 -2,-33"/>
  <path class="fil0 str0" d="M289 128c3,-10 8,-18 15,-25"/>
  <path class="fil0 str0" d="M302 146c-1,-3 1,-5 2,-8l11 -20"/>
  <path class="fil0 str0" d="M271 117c-2,-4 1,-8 3,-12 5,-9 11,-19 16,-28"/>
  <path class="fil0 str0" d="M261 77c0,0 0,-1 0,-2 10,-10 20,-21 28,-32"/>
  <path class="fil0 str0" d="M299 87c-2,0 -2,-2 -1,-3 8,-7 15,-13 24,-19"/>
  <path class="fil0 str0" d="M314 101c1,-3 4,-6 7,-8 8,-5 12,-13 13,-22"/>
  <path class="fil0 str0" d="M300 62l-2 -1c10,-6 19,-14 26,-23"/>
  <path class="fil0 str0" d="M332 47c0,-1 -1,-2 -2,-3 6,-3 11,-8 14,-14"/>
  <path class="fil0 str0" d="M307 36c-1,-1 -2,-1 -2,-2 6,-3 11,-8 16,-13"/>
  <path class="fil0 str0" d="M282 293c1,-2 3,-4 4,-6 6,-8 11,-16 15,-25"/>
  <path class="fil0 str0" d="M289 303c-2,-1 0,-4 1,-5 8,-4 15,-8 23,-12"/>
  <path class="fil0 str0" d="M286 317c-1,0 -3,-1 -4,-1 9,2 18,5 27,8"/>
  <path class="fil0 str0" d="M317 310c1,0 0,0 0,0 -1,-1 0,-1 1,-2 7,-3 15,-6 22,-9"/>
  <path class="fil0 str0" d="M319 293c3,-8 10,-14 18,-15"/>
  <path class="fil0 str0" d="M304 276c-2,0 -3,0 -4,0 6,-2 12,-7 16,-13"/>
  <path class="fil0 str0" d="M316 252c3,-10 7,-20 11,-30"/>
  <path class="fil0 str0" d="M332 263c8,-7 16,-16 21,-26"/>
  <path class="fil0 str0" d="M350 278c9,-3 17,-9 23,-16"/>
  <path class="fil0 str0" d="M352 298c-1,-1 0,-2 1,-3 8,-4 17,-9 25,-13"/>
  <path class="fil0 str0" d="M331 318c-2,-2 1,-3 3,-3 8,-1 16,-1 24,-2"/>
  <path class="fil0 str0" d="M362 256c3,-10 9,-19 17,-25"/>
  <path class="fil0 str0" d="M349 225c0,-3 1,-6 2,-8 4,-8 8,-16 12,-25"/>
  <path class="fil0 str0" d="M380 211c-1,-8 1,-15 5,-21"/>
  <path class="fil0 str0" d="M388 245c-1,-1 -1,-1 -1,-2 9,-5 16,-13 19,-23"/>
  <path class="fil0 str0" d="M384 273c1,-2 2,-3 3,-4 7,-4 13,-9 20,-14"/>
  <path class="fil0 str0" d="M393 218c5,-9 11,-17 17,-25"/>
  <path class="fil0 str0" d="M394 188c4,-6 6,-15 3,-23"/>
  <path class="fil0 str0" d="M371 193c2,-10 4,-21 5,-31"/>
  <path class="fil0 str0" d="M417 173c2,-10 -1,-20 -8,-27"/>
  <path class="fil0 str0" d="M391 165c-2,-1 -2,-3 -2,-4 0,-11 4,-21 10,-29"/>
  <path class="fil0 str0" d="M424 150c0,-9 -1,-18 -2,-27"/>
  <path class="fil0 str0" d="M410 128c-1,1 -2,1 -2,0 -1,-1 -1,-2 -1,-3 1,-3 1,-7 2,-10"/>
  <path class="fil0 str0" d="M378 143c-2,0 -2,-4 -1,-7 5,-12 11,-24 21,-32"/>
  <path class="fil0 str0" d="M429 121c3,-9 3,-19 0,-27"/>
  <path class="fil0 str0" d="M435 158c0,-9 1,-18 2,-27"/>
  <path class="fil0 str0" d="M417 203c1,0 -1,1 -1,0 0,0 0,-1 1,-1 5,-7 9,-14 10,-22"/>
  <path class="fil0 str0" d="M417 228c6,-6 10,-14 12,-22"/>
  <path class="fil0 str0" d="M413 245c5,3 12,-1 16,-5 4,-5 7,-11 12,-15"/>
  <path class="fil0 str0" d="M434 203c6,-4 9,-11 8,-18 0,-9 -4,-17 -1,-25"/>
  <path class="fil0 str0" d="M450 149c3,-12 3,-24 -1,-36"/>
  <path class="fil0 str0" d="M441 93c-2,-7 -4,-14 -8,-20"/>
  <path class="fil0 str0" d="M410 104c-2,-1 -2,-3 -2,-5 1,-7 2,-15 3,-22"/>
  <path class="fil0 str0" d="M420 77c-1,0 -2,-1 -2,-2 0,-5 0,-10 0,-15"/>
  <path class="fil0 str0" d="M397 86c-1,-1 -1,-3 -1,-4 2,-9 6,-18 12,-25"/>
  <path class="fil0 str0" d="M433 58c-2,-10 -4,-20 -4,-29"/>
  <path class="fil0 str0" d="M250 415c-1,-7 1,-14 5,-20 4,-6 9,-11 14,-16"/>
 </g>
</svg>
