<?xml version="1.0" encoding="UTF-8"?>
<!DOCTYPE svg PUBLIC "-//W3C//DTD SVG 1.1//EN" "http://www.w3.org/Graphics/SVG/1.1/DTD/svg11.dtd">
<!-- Creator: CorelDRAW X8 -->
<svg xmlns="http://www.w3.org/2000/svg" xml:space="preserve" width="500px" height="500px" version="1.1" style="shape-rendering:geometricPrecision; text-rendering:geometricPrecision; image-rendering:optimizeQuality; fill-rule:evenodd; clip-rule:evenodd"
viewBox="0 0 500 500"
 xmlns:xlink="http://www.w3.org/1999/xlink">
 <defs>
  <style type="text/css">
   <![CDATA[
    .str0 {stroke:black;stroke-width:1.00006}
    .fil0 {fill:none;fill-rule:nonzero}
   ]]>
  </style>
 </defs>
 <g id="Layer_x0020_1">
  <metadata id="CorelCorpID_0Corel-Layer"/>
  <path class="fil0 str0" d="M265 109c-6,1 -12,5 -16,11 -12,15 -16,35 -19,55 -4,-5 -11,-7 -18,-10 -10,-4 -20,-10 -29,-17 -3,8 -3,18 1,25 5,8 13,13 21,15 5,1 12,0 15,4 0,4 -3,7 -6,8 -4,0 -8,0 -11,0 -13,0 -25,8 -33,18 -7,11 -11,23 -14,36 -4,22 -4,47 8,66 15,-10 28,-23 39,-37 3,21 -7,40 -11,61 -2,14 -2,29 0,43 13,-22 43,-32 52,-56 4,-11 4,-22 4,-34 10,9 9,25 17,36 5,6 13,12 11,19 10,-12 20,-25 24,-40 5,-18 0,-38 -5,-56 -5,-17 -10,-35 -24,-45 7,2 15,4 22,7 5,1 10,3 15,3 10,0 18,-5 25,-11 7,-7 12,-15 16,-23 -5,-1 -12,-3 -18,-2 -4,1 -8,4 -12,6 -14,5 -30,0 -44,-5 9,-14 16,-29 21,-44 2,-4 3,-7 3,-11 -1,-4 -3,-8 -6,-9 -6,-2 -11,3 -15,-2 -4,-5 -4,-11 -13,-11z"/>
  <path class="fil0 str0" d="M259 138c-2,2 -3,5 -4,7 -3,7 -7,13 -12,18 -1,0 -1,1 -1,2 -1,1 0,2 1,3 2,3 5,6 7,9 1,0 1,1 2,1 1,0 2,0 3,-1 2,-2 5,-4 9,-4 2,0 4,0 5,-1 3,-1 4,-5 4,-9 0,-5 -3,-39 -14,-25z"/>
  <path class="fil0 str0" d="M224 215c-2,1 -4,1 -7,2 -16,4 -29,18 -31,35 6,-1 13,0 19,4 7,5 9,15 9,24 0,9 -1,19 2,27 10,-9 20,-19 30,-28 1,-2 3,-3 5,-4 2,0 4,1 6,2 5,2 10,7 14,12 7,-9 5,-23 0,-33 -6,-11 -13,-21 -13,-32 -1,-11 4,-21 2,-32 0,-1 0,-2 -1,-3 -1,-1 -3,-1 -4,0 -6,0 -17,10 -18,0 -9,5 -4,20 -13,26z"/>
 </g>
</svg>
