<?xml version="1.0" encoding="UTF-8"?>
<!DOCTYPE svg PUBLIC "-//W3C//DTD SVG 1.1//EN" "http://www.w3.org/Graphics/SVG/1.1/DTD/svg11.dtd">
<!-- Creator: CorelDRAW X8 -->
<svg xmlns="http://www.w3.org/2000/svg" xml:space="preserve" width="500px" height="500px" version="1.1" style="shape-rendering:geometricPrecision; text-rendering:geometricPrecision; image-rendering:optimizeQuality; fill-rule:evenodd; clip-rule:evenodd"
viewBox="0 0 500 500"
 xmlns:xlink="http://www.w3.org/1999/xlink">
 <defs>
  <style type="text/css">
   <![CDATA[
    .str0 {stroke:black;stroke-width:1.00006}
    .fil0 {fill:none;fill-rule:nonzero}
   ]]>
  </style>
 </defs>
 <g id="Layer_x0020_1">
  <metadata id="CorelCorpID_0Corel-Layer"/>
  <path class="fil0 str0" d="M190 107c-1,-10 -1,-20 -2,-30 -3,-18 -11,-36 -19,-52 -1,-3 -3,-6 -6,-8 -2,-1 -7,0 -7,3 -1,2 1,4 2,5 9,14 17,30 18,46 2,17 -3,34 -2,50 1,20 10,39 20,57 2,4 4,8 4,13 0,3 -2,7 -4,10 -9,16 -21,33 -15,51 -2,-3 -7,-3 -10,0 -3,2 -4,6 -7,8 -3,2 -7,2 -10,2 -12,0 -23,-3 -34,-4 -12,-1 -25,1 -32,10 -4,5 -5,11 -7,16 -4,16 -9,32 -13,48 -3,11 -6,24 2,33 7,8 22,11 23,22 0,3 -1,6 -1,9 -1,6 0,11 2,17 3,12 6,24 15,33 9,9 23,12 36,13 14,1 27,-1 40,2 11,2 21,6 32,8 11,3 24,3 36,3 4,0 7,0 11,-1 8,-3 10,-13 13,-22 5,-16 14,-31 20,-48 9,-24 10,-52 1,-76 -8,-24 -29,-45 -54,-51 8,-11 17,-21 21,-34 4,-13 2,-28 -8,-37 -4,-3 -8,-6 -8,-10 15,-7 30,-15 45,-22 46,-22 95,-47 116,-94 8,-17 12,-38 10,-57 -13,10 -20,25 -28,38 -21,34 -52,62 -87,80 -23,13 -51,22 -65,45 0,-7 5,-12 9,-18 3,-6 3,-15 -4,-17 5,-4 4,-13 -1,-17 -5,-3 -13,-1 -16,4 -3,6 1,14 7,16 -3,4 -10,19 -15,20 -5,1 -12,-14 -14,-19 -7,-14 -12,-29 -14,-45z"/>
  <path class="fil0 str0" d="M209 213c-5,7 -7,16 -10,24 -9,24 -32,39 -54,53 5,19 9,39 10,59 0,8 1,17 4,25 3,8 11,14 19,14 10,-1 16,-10 24,-13 15,-6 35,5 46,-6 7,-7 7,-18 5,-28 -3,-13 -8,-26 -14,-38 -7,-13 -16,-26 -15,-40 0,-9 4,-18 7,-27 3,-7 6,-21 0,-27 -6,-6 -17,-2 -22,4z"/>
 </g>
</svg>
