<?xml version="1.0" encoding="UTF-8"?>
<!DOCTYPE svg PUBLIC "-//W3C//DTD SVG 1.1//EN" "http://www.w3.org/Graphics/SVG/1.1/DTD/svg11.dtd">
<!-- Creator: CorelDRAW X8 -->
<svg xmlns="http://www.w3.org/2000/svg" xml:space="preserve" width="500px" height="500px" version="1.1" style="shape-rendering:geometricPrecision; text-rendering:geometricPrecision; image-rendering:optimizeQuality; fill-rule:evenodd; clip-rule:evenodd"
viewBox="0 0 500 500"
 xmlns:xlink="http://www.w3.org/1999/xlink">
 <defs>
  <style type="text/css">
   <![CDATA[
    .str0 {stroke:black;stroke-width:1.00006}
    .fil0 {fill:none;fill-rule:nonzero}
   ]]>
  </style>
 </defs>
 <g id="Layer_x0020_1">
  <metadata id="CorelCorpID_0Corel-Layer"/>
  <path class="fil0 str0" d="M241 62c-20,5 -42,4 -62,-3 4,8 14,11 24,13 9,2 20,3 25,11 -25,0 -50,11 -67,29 -4,5 -8,11 -8,18 24,-12 49,-25 75,-22 -22,12 -42,27 -61,44 15,-1 30,-1 45,-5 14,-4 28,-12 35,-25 2,7 -4,14 -9,20 -15,17 -30,33 -45,50 22,-5 38,-24 51,-42 -1,22 -4,43 -9,65 -1,5 -3,11 -8,13 -5,3 -11,1 -16,-2 -23,-9 -49,-18 -73,-11 -18,5 -32,18 -46,30 -17,14 -35,27 -54,39 32,-15 66,-26 101,-33 22,-4 45,-7 66,-2 3,1 5,1 7,3 3,3 4,9 1,13 -2,5 -5,8 -9,11 -25,23 -45,52 -65,80 17,-14 34,-28 48,-45 12,-13 22,-27 37,-34 9,22 -8,47 -6,71 0,3 0,6 -1,9 -1,1 -2,2 -4,3 -28,18 -63,24 -97,27 -33,4 -68,5 -100,16 51,-1 101,-2 151,-3 10,0 21,-1 28,-8 3,-4 5,-9 8,-12 3,-4 9,-7 13,-4 6,4 3,14 -1,20 -4,9 -6,18 -6,27 -33,1 -65,13 -90,34 9,6 22,1 33,-3 16,-6 33,-7 49,-3 5,1 10,3 13,0 2,-2 3,-4 4,-6 3,-7 6,-15 8,-22 2,10 3,21 1,31"/>
  <path class="fil0 str0" d="M241 65c9,-17 18,-35 27,-52 -7,14 -8,30 -4,45 -4,1 -6,6 -4,10 15,2 30,4 45,4 2,-10 1,-20 -3,-29 -4,-8 -9,-19 -3,-25 5,-5 13,-3 18,0 4,3 8,8 5,12 -1,2 -3,3 -4,4 -7,5 -8,14 -8,22 1,7 3,15 2,23 5,-4 13,-2 19,0 19,5 40,13 46,31 -5,0 -9,-4 -13,-7 -16,-8 -38,7 -55,-1 20,11 38,24 51,42 12,18 19,41 14,63 -7,-16 -16,-31 -26,-45 -12,-17 -28,-34 -49,-33 2,20 13,40 28,53 -23,-3 -39,-23 -52,-42 0,15 -1,31 -1,46 -11,-10 -18,-25 -18,-40 -5,31 -10,62 -16,93 31,-2 62,-7 92,-4 31,3 62,18 76,45 7,15 9,32 4,48 -9,-20 -19,-40 -37,-53 -20,-15 -47,-18 -72,-16 -23,1 -47,6 -66,-7 1,9 2,17 4,25 34,16 64,38 89,66 -33,-15 -64,-34 -92,-56 -5,20 -7,41 -8,62 0,2 0,5 2,7 1,1 3,1 5,1 58,8 116,12 174,13 -29,6 -59,12 -89,16 -30,3 -62,5 -88,-9 -3,16 -2,32 3,47 24,-10 50,-13 76,-8 11,2 22,5 34,7 27,4 54,-3 80,-9 -20,8 -41,15 -62,21 -18,6 -37,11 -56,11 -24,0 -48,-6 -71,-13 -3,15 -5,31 -6,46"/>
 </g>
</svg>
