<?xml version="1.0" encoding="UTF-8"?>
<!DOCTYPE svg PUBLIC "-//W3C//DTD SVG 1.1//EN" "http://www.w3.org/Graphics/SVG/1.1/DTD/svg11.dtd">
<!-- Creator: CorelDRAW X8 -->
<svg xmlns="http://www.w3.org/2000/svg" xml:space="preserve" width="500px" height="500px" version="1.1" style="shape-rendering:geometricPrecision; text-rendering:geometricPrecision; image-rendering:optimizeQuality; fill-rule:evenodd; clip-rule:evenodd"
viewBox="0 0 500 500"
 xmlns:xlink="http://www.w3.org/1999/xlink">
 <defs>
  <style type="text/css">
   <![CDATA[
    .str0 {stroke:black;stroke-width:1.00006}
    .fil0 {fill:none;fill-rule:nonzero}
   ]]>
  </style>
 </defs>
 <g id="Layer_x0020_1">
  <metadata id="CorelCorpID_0Corel-Layer"/>
  <path class="fil0 str0" d="M201 116c-10,-11 -17,-24 -21,-38 -3,-13 -6,-28 -18,-33 -2,19 3,37 13,53 -25,-12 -51,-24 -77,-36 -4,14 0,31 8,44 8,13 20,24 32,33 -30,-6 -63,7 -82,32 29,-6 58,-11 88,-16 -14,11 -27,22 -40,34 10,5 22,2 33,-1 15,-5 30,-9 45,-14 6,-2 13,-4 18,-8 5,-3 9,-10 9,-16 24,6 45,20 64,35 70,55 125,127 160,209"/>
  <path class="fil0 str0" d="M472 375c-22,-18 -36,-44 -51,-69 -22,-35 -46,-69 -72,-101 -16,-20 -33,-40 -56,-51 -30,-16 -65,-17 -94,-33"/>
 </g>
</svg>
