<?xml version="1.0" encoding="UTF-8"?>
<!DOCTYPE svg PUBLIC "-//W3C//DTD SVG 1.1//EN" "http://www.w3.org/Graphics/SVG/1.1/DTD/svg11.dtd">
<!-- Creator: CorelDRAW X8 -->
<svg xmlns="http://www.w3.org/2000/svg" xml:space="preserve" width="500px" height="500px" version="1.1" style="shape-rendering:geometricPrecision; text-rendering:geometricPrecision; image-rendering:optimizeQuality; fill-rule:evenodd; clip-rule:evenodd"
viewBox="0 0 500 500"
 xmlns:xlink="http://www.w3.org/1999/xlink">
 <defs>
  <style type="text/css">
   <![CDATA[
    .str0 {stroke:black;stroke-width:1.00006}
    .fil0 {fill:none;fill-rule:nonzero}
   ]]>
  </style>
 </defs>
 <g id="Layer_x0020_1">
  <metadata id="CorelCorpID_0Corel-Layer"/>
  <path class="fil0 str0" d="M225 214c-15,-17 -16,-41 -16,-63 0,-22 2,-44 4,-66 1,-9 3,-19 10,-24 1,-1 2,-2 4,-2 3,0 5,4 6,7 6,18 1,39 -2,59 -6,30 -8,61 -6,91 9,-6 13,-17 16,-27l9 -33c4,-12 7,-24 8,-37 0,-14 -4,-28 -7,-42 -2,-5 -3,-11 -7,-14 -3,-4 -10,-5 -14,-2"/>
  <path class="fil0 str0" d="M246 69c6,-9 22,-6 28,2 7,9 7,21 6,32 -2,32 -11,63 -27,91 -6,11 -15,23 -28,25"/>
  <path class="fil0 str0" d="M224 228c-32,-16 -58,-46 -67,-81 -4,-13 -6,-26 -7,-38 -1,-11 -3,-21 -2,-32 0,-13 3,-27 6,-41 2,-6 4,-13 9,-17 12,17 15,39 15,59 0,21 -2,42 2,62 4,20 14,41 32,50"/>
  <path class="fil0 str0" d="M303 200c18,-9 36,-18 51,-32 24,-22 38,-53 51,-84 5,-11 10,-23 10,-36 -11,23 -28,42 -45,59 -22,23 -46,43 -71,62 -8,6 -68,39 -39,50 11,4 33,-14 43,-19z"/>
  <path class="fil0 str0" d="M232 243c-1,0 0,-1 0,-1 1,0 1,1 1,2 6,25 9,51 8,77 -8,-20 -26,-35 -44,-48 -17,-13 -36,-24 -50,-41 -11,-15 -18,-31 -26,-48 -4,-8 -8,-16 -17,-20 -8,17 -1,36 7,52 13,26 29,51 51,71 21,19 49,33 78,34"/>
  <path class="fil0 str0" d="M250 218c-10,22 -5,46 -3,70 3,27 2,55 -1,82 3,-14 10,-27 17,-39 30,-50 68,-96 112,-134 -8,18 -15,35 -23,53 -8,19 -17,39 -28,57 -17,27 -40,51 -66,70"/>
  <path class="fil0 str0" d="M234 339c-1,0 -3,-1 -4,-2 -1,28 -1,55 -2,83 0,16 -1,32 -8,47"/>
 </g>
</svg>
