<?xml version="1.0" encoding="UTF-8"?>
<!DOCTYPE svg PUBLIC "-//W3C//DTD SVG 1.1//EN" "http://www.w3.org/Graphics/SVG/1.1/DTD/svg11.dtd">
<!-- Creator: CorelDRAW X8 -->
<svg xmlns="http://www.w3.org/2000/svg" xml:space="preserve" width="500px" height="500px" version="1.1" style="shape-rendering:geometricPrecision; text-rendering:geometricPrecision; image-rendering:optimizeQuality; fill-rule:evenodd; clip-rule:evenodd"
viewBox="0 0 500 500"
 xmlns:xlink="http://www.w3.org/1999/xlink">
 <defs>
  <style type="text/css">
   <![CDATA[
    .str0 {stroke:black;stroke-width:0.750048}
    .fil0 {fill:none}
   ]]>
  </style>
 </defs>
 <g id="Layer_x0020_1">
  <metadata id="CorelCorpID_0Corel-Layer"/>
  <path class="fil0 str0" d="M220 180c-7,-2 -20,2 -16,12 -6,5 -9,13 -8,17 -9,4 -11,28 -9,36 1,10 12,35 18,44 17,20 34,0 40,-18 0,-5 12,-35 -4,-59 -2,-3 2,-7 -11,-18 2,-8 -5,-14 -13,-12"/>
  <path class="fil0 str0" d="M190 218c-20,-1 -27,7 -31,3"/>
  <path class="fil0 str0" d="M242 216c12,-7 21,9 31,3"/>
  <path class="fil0 str0" d="M201 198c-9,-7 -20,-6 -21,-8"/>
  <path class="fil0 str0" d="M234 197c3,-6 12,-7 13,-12"/>
  <path class="fil0 str0" d="M208 184c-10,-14 -26,-25 -43,-28"/>
  <path class="fil0 str0" d="M225 182c5,-1 1,-9 3,-13 3,-5 10,-8 13,-15"/>
  <path class="fil0 str0" d="M191 258c-31,-3 -15,23 -18,27"/>
  <path class="fil0 str0" d="M247 261c5,-1 13,1 17,4 7,5 4,20 10,29"/>
  <path class="fil0 str0" d="M196 210c3,-2 16,0 18,2 17,17 2,73 4,84"/>
  <path class="fil0 str0" d="M215 211c9,0 15,-6 22,-6"/>
  <path class="fil0 str0" d="M204 194c5,-2 20,-2 24,0"/>
 </g>
</svg>
