<?xml version="1.0" encoding="UTF-8"?>
<!DOCTYPE svg PUBLIC "-//W3C//DTD SVG 1.1//EN" "http://www.w3.org/Graphics/SVG/1.1/DTD/svg11.dtd">
<!-- Creator: CorelDRAW X8 -->
<svg xmlns="http://www.w3.org/2000/svg" xml:space="preserve" width="500px" height="500px" version="1.1" style="shape-rendering:geometricPrecision; text-rendering:geometricPrecision; image-rendering:optimizeQuality; fill-rule:evenodd; clip-rule:evenodd"
viewBox="0 0 500 500"
 xmlns:xlink="http://www.w3.org/1999/xlink">
 <defs>
  <style type="text/css">
   <![CDATA[
    .str0 {stroke:black;stroke-width:0.750048}
    .fil0 {fill:none}
   ]]>
  </style>
 </defs>
 <g id="Layer_x0020_1">
  <metadata id="CorelCorpID_0Corel-Layer"/>
  <path class="fil0 str0" d="M180 186c-24,3 -18,32 -10,43 1,2 4,-1 5,1 -1,4 0,8 3,10 0,-3 4,-4 7,-3 0,-2 -2,-7 -2,-8 5,5 14,6 21,4 -1,6 11,10 25,6 -3,20 21,27 32,37 12,11 19,43 23,45 40,9 54,-19 54,-47 0,-30 -6,-53 -34,-70 -13,-7 -27,-12 -43,-11 3,-2 1,-11 -7,-11 -1,-4 73,-10 82,-29 -7,-12 -28,3 -28,-1 12,-12 36,-46 7,-53 -21,0 -40,15 -54,31 -12,14 -24,40 -22,50 -3,-1 -5,-17 -36,-15 -15,3 -23,14 -23,21z"/>
  <path class="fil0 str0" d="M172 199c-26,-22 -45,-60 -49,-48"/>
  <path class="fil0 str0" d="M168 209c-20,-15 -46,-8 -64,6"/>
  <path class="fil0 str0" d="M200 240c-8,31 -36,51 -68,51"/>
  <path class="fil0 str0" d="M222 246c-4,16 -11,13 -16,26 6,15 7,33 1,45"/>
  <path class="fil0 str0" d="M243 228c5,-2 12,-2 17,1 3,12 -4,25 -4,32 -2,11 4,21 9,29"/>
  <path class="fil0 str0" d="M243 260c2,9 -7,26 0,54 5,18 -3,25 12,42"/>
  <path class="fil0 str0" d="M285 267c0,-8 8,-19 14,-16 33,32 -4,52 67,79"/>
  <path class="fil0 str0" d="M175 209c0,1 0,3 1,4 1,2 2,2 4,3 1,0 3,0 4,0 2,1 5,1 7,0 1,-1 1,-2 2,-3 2,-6 -4,-12 -9,-15 -8,-3 -8,5 -9,11l0 0z"/>
 </g>
</svg>
