<?xml version="1.0" encoding="UTF-8"?>
<!DOCTYPE svg PUBLIC "-//W3C//DTD SVG 1.1//EN" "http://www.w3.org/Graphics/SVG/1.1/DTD/svg11.dtd">
<!-- Creator: CorelDRAW X8 -->
<svg xmlns="http://www.w3.org/2000/svg" xml:space="preserve" width="500px" height="500px" version="1.1" style="shape-rendering:geometricPrecision; text-rendering:geometricPrecision; image-rendering:optimizeQuality; fill-rule:evenodd; clip-rule:evenodd"
viewBox="0 0 500 500"
 xmlns:xlink="http://www.w3.org/1999/xlink">
 <defs>
  <style type="text/css">
   <![CDATA[
    .str0 {stroke:black;stroke-width:1.00006}
    .fil0 {fill:none;fill-rule:nonzero}
   ]]>
  </style>
 </defs>
 <g id="Layer_x0020_1">
  <metadata id="CorelCorpID_0Corel-Layer"/>
  <g id="_2779181642800">
   <path class="fil0 str0" d="M398 281c-24,-27 -52,-54 -86,-66 -3,-1 -6,-3 -7,-6 -1,-2 0,-5 1,-7 13,-26 33,-49 43,-77 1,-4 3,-10 1,-14 -3,-11 -18,-12 -29,-11 -34,4 -66,15 -96,31 -17,-39 -12,-84 -7,-126 -10,11 -11,28 -13,43 -1,15 -5,29 -11,43 0,2 -1,4 -3,6 -4,2 -9,1 -12,-2 -3,-3 -5,-7 -6,-11 -10,-24 -27,-45 -48,-60 15,28 29,56 42,85 -17,-5 -32,-17 -47,-26 -15,-9 -33,-17 -51,-15 26,17 51,34 76,51 2,1 4,2 4,4 1,5 -6,5 -11,4 -37,-10 -75,-23 -113,-16 30,6 59,13 88,21 4,1 8,3 11,5 3,3 4,8 1,11 -36,-2 -74,0 -110,7 47,9 95,10 141,1 7,-2 14,-3 21,-2 7,1 14,4 16,11 -12,11 -31,9 -48,13 -29,9 -43,40 -55,68 -1,3 -2,5 -1,8 1,4 4,6 7,7 30,16 66,16 100,15 19,-1 42,-4 51,-21 6,12 -7,26 -9,39 -1,6 1,11 2,16 13,37 50,60 69,93 7,12 12,25 20,37 20,28 55,41 89,49 9,2 19,4 29,2 26,-5 27,-27 17,-46 -8,-16 -13,-27 -13,-45 0,-49 -19,-83 -53,-119z"/>
   <path class="fil0 str0" d="M264 191c-1,3 -1,6 -2,9 -3,6 -10,9 -16,10 -6,1 -13,0 -19,1 -11,0 -22,4 -32,5 -11,2 -23,2 -32,-5 -1,-1 -2,-2 -2,-4 0,-1 2,-2 3,-2 11,-6 24,-8 35,-13 13,-7 23,-21 26,-36 18,0 37,-11 54,-10 2,12 -13,31 -15,45z"/>
   <path class="fil0 str0" d="M415 432c5,8 10,19 4,27 -3,3 -6,5 -11,5 -5,0 -11,-2 -16,-4 -6,-4 -11,-9 -14,-15 -11,-23 25,-27 37,-13z"/>
   <path class="fil0 str0" d="M432 402c9,-1 15,9 18,17 2,6 4,13 0,17 -3,3 -8,3 -12,1 -4,-2 -6,-5 -8,-9 -4,-5 -6,-13 -4,-19 2,-6 9,-12 16,-11"/>
  </g>
 </g>
</svg>
