<?xml version="1.0" encoding="UTF-8"?>
<!DOCTYPE svg PUBLIC "-//W3C//DTD SVG 1.1//EN" "http://www.w3.org/Graphics/SVG/1.1/DTD/svg11.dtd">
<!-- Creator: CorelDRAW X8 -->
<svg xmlns="http://www.w3.org/2000/svg" xml:space="preserve" width="500px" height="500px" version="1.1" style="shape-rendering:geometricPrecision; text-rendering:geometricPrecision; image-rendering:optimizeQuality; fill-rule:evenodd; clip-rule:evenodd"
viewBox="0 0 500 500"
 xmlns:xlink="http://www.w3.org/1999/xlink">
 <defs>
  <style type="text/css">
   <![CDATA[
    .str0 {stroke:black;stroke-width:1.00006}
    .fil0 {fill:none;fill-rule:nonzero}
   ]]>
  </style>
 </defs>
 <g id="Layer_x0020_1">
  <metadata id="CorelCorpID_0Corel-Layer"/>
  <g id="_2779391035312">
   <path class="fil0 str0" d="M181 241c13,-14 28,-28 45,-35 2,0 4,-1 4,-2 1,-1 0,-3 -1,-4 -6,-14 -17,-26 -22,-40 -1,-3 -1,-5 0,-8 1,-5 9,-6 15,-5 17,2 34,8 50,16 9,-20 6,-44 3,-66 6,6 6,15 7,23 1,7 3,15 6,22 0,1 1,2 2,3 2,1 4,1 6,-1 1,-2 2,-4 3,-6 5,-12 14,-23 25,-31 -8,15 -15,29 -22,44 9,-2 17,-8 25,-13 8,-5 17,-9 26,-8 -13,9 -26,18 -40,26 -1,1 -2,2 -2,3 0,2 4,3 6,2 19,-6 39,-12 59,-8 -15,3 -31,6 -46,11 -2,0 -4,1 -5,2 -2,2 -3,4 -1,6 19,-1 38,0 57,3 -24,5 -49,6 -73,1 -4,-1 -8,-2 -11,-1 -4,0 -7,2 -9,6 7,6 17,4 25,7 15,4 23,20 29,35 1,1 1,3 1,4 -1,2 -2,3 -4,4 -16,8 -34,8 -52,8 -10,-1 -22,-2 -26,-12 -4,7 3,14 4,21 0,3 0,6 -1,8 -7,20 -26,31 -36,49 -4,6 -6,13 -10,19 -11,15 -29,22 -47,25 -5,2 -10,3 -15,2 -13,-3 -14,-14 -9,-24 5,-9 7,-14 7,-24 0,-26 10,-43 27,-62z"/>
   <path class="fil0 str0" d="M251 194c1,2 1,3 2,5 1,3 4,5 8,5 3,1 7,0 10,0 6,1 11,3 17,3 5,1 11,1 16,-2 1,-1 1,-1 1,-2 0,-1 -1,-1 -1,-2 -6,-3 -13,-3 -19,-6 -7,-4 -12,-11 -13,-19 -10,0 -20,-6 -28,-5 -1,6 6,16 7,23z"/>
   <path class="fil0 str0" d="M173 320c-3,4 -5,10 -2,14 1,1 3,2 5,2 3,1 6,0 9,-2 3,-2 6,-4 7,-7 6,-13 -13,-15 -19,-7z"/>
   <path class="fil0 str0" d="M164 304c-5,0 -8,5 -10,9 -1,3 -1,7 1,9 1,1 4,1 6,1 2,-1 3,-3 4,-5 2,-3 3,-7 2,-10 -1,-4 -5,-6 -8,-6"/>
  </g>
 </g>
</svg>
