<?xml version="1.0" encoding="UTF-8"?>
<!DOCTYPE svg PUBLIC "-//W3C//DTD SVG 1.1//EN" "http://www.w3.org/Graphics/SVG/1.1/DTD/svg11.dtd">
<!-- Creator: CorelDRAW X8 -->
<svg xmlns="http://www.w3.org/2000/svg" xml:space="preserve" width="500px" height="500px" version="1.1" style="shape-rendering:geometricPrecision; text-rendering:geometricPrecision; image-rendering:optimizeQuality; fill-rule:evenodd; clip-rule:evenodd"
viewBox="0 0 500 500"
 xmlns:xlink="http://www.w3.org/1999/xlink">
 <defs>
  <style type="text/css">
   <![CDATA[
    .str0 {stroke:black;stroke-width:1.00006}
    .fil0 {fill:none}
   ]]>
  </style>
 </defs>
 <g id="Layer_x0020_1">
  <metadata id="CorelCorpID_0Corel-Layer"/>
  <path class="fil0 str0" d="M121 250c11,6 53,16 66,17 -2,-2 1,-7 5,-5 6,2 11,33 9,39 -14,12 -32,20 -46,26 -13,2 -32,0 -45,1 -11,0 -23,1 -28,11 1,2 18,-7 43,-7 0,1 -33,11 -53,31 1,2 37,-19 56,-25 0,3 -46,33 -40,41 24,-14 46,-35 74,-41 11,-3 23,-2 34,-5 7,-2 14,-6 16,-12 4,-9 0,-14 4,-54 3,5 12,6 18,5 16,-1 31,-3 46,-8 12,-3 26,-9 30,-22 5,9 -21,35 -1,88 10,16 18,5 60,-6 28,-12 19,-31 34,-37 5,9 6,23 2,29 -2,-1 -1,-3 -4,-3 -15,46 -100,66 -107,121 4,0 34,-42 80,-73 -3,27 -35,29 -45,68 4,0 31,-24 46,-51l3 24c7,-5 11,-31 18,-47 9,-31 31,-49 14,-86 -3,-9 -9,-11 -18,-11 -35,6 -56,32 -58,32 0,-1 18,-22 19,-50 2,-11 1,-24 -9,-27 18,-20 9,-63 -9,-79 22,0 40,7 68,5 34,0 -22,-91 -75,-94 -2,3 31,15 45,40 -20,5 -35,-37 -68,-25 9,9 36,13 45,28 -21,-7 -43,-15 -64,-11 28,24 47,6 83,42 -29,-1 -59,2 -60,5 -10,23 17,50 9,73 -4,11 -15,4 -20,-2 -17,-20 -45,-30 -70,-27 -20,0 -11,-14 -17,-39 -10,0 -20,-6 -27,-12 -8,-7 -62,-31 -79,-24 2,3 52,9 53,14 -3,4 -55,-5 -66,4 15,4 47,-1 47,0 3,4 -36,10 -40,16 10,4 29,2 41,-4 16,-7 26,-3 34,2 9,5 30,11 30,24 0,9 -9,18 -17,21 -7,4 -17,5 -25,7 -38,15 -84,47 -41,73z"/>
  <path class="fil0 str0" d="M137 227c-1,-1 2,-2 3,-2 12,0 23,3 33,9 4,4 -11,16 -20,15 -9,-2 -17,-16 -17,-25"/>
  <path class="fil0 str0" d="M140 204c12,-1 30,-8 26,-17 -11,-2 -23,2 -30,11 -1,1 -2,5 -1,7"/>
 </g>
</svg>
