<?xml version="1.0" encoding="UTF-8"?>
<!DOCTYPE svg PUBLIC "-//W3C//DTD SVG 1.1//EN" "http://www.w3.org/Graphics/SVG/1.1/DTD/svg11.dtd">
<!-- Creator: CorelDRAW X8 -->
<svg xmlns="http://www.w3.org/2000/svg" xml:space="preserve" width="500px" height="500px" version="1.1" style="shape-rendering:geometricPrecision; text-rendering:geometricPrecision; image-rendering:optimizeQuality; fill-rule:evenodd; clip-rule:evenodd"
viewBox="0 0 500 500"
 xmlns:xlink="http://www.w3.org/1999/xlink">
 <defs>
  <style type="text/css">
   <![CDATA[
    .str0 {stroke:black;stroke-width:0.750048}
    .fil0 {fill:none}
   ]]>
  </style>
 </defs>
 <g id="Layer_x0020_1">
  <metadata id="CorelCorpID_0Corel-Layer"/>
  <path class="fil0 str0" d="M184 146c-33,-17 -71,13 -82,48 -4,12 -3,26 3,38 1,1 3,3 3,6 0,6 -21,17 -29,24 -14,18 0,23 4,37 7,17 -12,43 -16,65 -6,18 10,19 14,12 5,-5 9,-16 9,-39 0,-8 3,-18 11,-18 14,-2 10,32 20,45 8,8 23,8 27,-1 5,-12 -11,-35 -22,-44 -3,-3 -4,-7 2,-7 13,-3 33,27 57,13 0,-8 -14,-23 -28,-24 8,-3 19,-1 25,6 10,10 7,27 8,42 0,7 3,9 9,11 32,8 65,3 98,-2 5,-6 -8,-9 -12,-9 -23,-1 -62,8 -66,4 26,-13 61,-9 84,-28 -18,0 -37,0 -55,-1 -19,0 -21,-14 -16,-30 32,11 68,13 101,4 6,-1 13,-1 11,7 -1,11 -9,21 -20,26 -11,2 -9,5 -13,15 -5,12 -51,31 -59,41 45,9 74,-36 85,-32 -9,14 -33,22 -20,31 27,13 36,-8 37,-29 6,-21 37,-38 19,-56 -5,-5 -5,-13 -1,-18 10,-16 -11,-27 7,-38 20,-23 61,-63 23,-89 -20,-13 -14,-15 -3,-32 10,-14 2,-34 -11,-46 -6,-5 -13,-8 -19,-8 -5,0 -9,2 -12,3 -14,7 -27,15 -39,24 -3,3 -30,-3 -36,-3 -12,1 -24,5 -36,8 -18,5 -35,-14 -53,3 -8,5 -25,16 -9,41z"/>
  <path class="fil0 str0" d="M191 120c-10,10 2,31 14,41 8,5 18,7 26,2 10,-6 19,-25 11,-36 -14,-16 -37,-26 -51,-7z"/>
  <path class="fil0 str0" d="M355 126c56,7 30,-54 8,-46 -15,5 -31,41 -8,46z"/>
  <path class="fil0 str0" d="M194 215c15,-14 84,-47 119,-54 31,-7 65,-5 95,4"/>
 </g>
</svg>
