<?xml version="1.0" encoding="UTF-8"?>
<!DOCTYPE svg PUBLIC "-//W3C//DTD SVG 1.1//EN" "http://www.w3.org/Graphics/SVG/1.1/DTD/svg11.dtd">
<!-- Creator: CorelDRAW X8 -->
<svg xmlns="http://www.w3.org/2000/svg" xml:space="preserve" width="500px" height="500px" version="1.1" style="shape-rendering:geometricPrecision; text-rendering:geometricPrecision; image-rendering:optimizeQuality; fill-rule:evenodd; clip-rule:evenodd"
viewBox="0 0 500 500"
 xmlns:xlink="http://www.w3.org/1999/xlink">
 <defs>
  <style type="text/css">
   <![CDATA[
    .str0 {stroke:black;stroke-width:1.00006}
    .fil0 {fill:none}
   ]]>
  </style>
 </defs>
 <g id="Layer_x0020_1">
  <metadata id="CorelCorpID_0Corel-Layer"/>
  <path class="fil0 str0" d="M217 112c11,-6 28,-5 34,7 5,10 -1,19 3,29 2,3 13,10 15,13 5,6 8,14 14,20 8,9 17,21 28,19 9,-1 20,5 25,14 4,10 8,12 8,29"/>
  <path class="fil0 str0" d="M215 113c1,0 1,0 2,-1"/>
  <path class="fil0 str0" d="M187 122c11,3 19,-5 28,-9"/>
  <path class="fil0 str0" d="M176 117c5,1 8,5 11,5"/>
  <path class="fil0 str0" d="M146 123c11,-8 19,-8 31,-6"/>
  <path class="fil0 str0" d="M145 124c-28,14 36,90 50,102 6,5 13,9 13,18 0,2 -12,21 -14,23 -10,11 -96,35 -78,42 6,3 41,-26 36,-1 -1,5 -58,35 -35,32 10,-1 20,-14 31,-17 21,-5 9,2 3,15 -13,26 7,18 15,-1 7,-16 1,-24 17,-35 6,-4 12,-6 18,-11 5,-5 12,-24 17,-25 11,-4 15,18 15,27 0,11 -12,12 0,23 5,4 13,3 19,4 25,1 54,-9 75,-20"/>
  <path class="fil0 str0" d="M272 334c29,-8 84,15 108,-7 5,-5 27,-33 -15,-65 -34,-27 -86,-12 -94,-8"/>
  <path class="fil0 str0" d="M266 336c2,-1 4,-2 6,-2"/>
  <path class="fil0 str0" d="M233 324c-16,5 -41,13 -52,26 -9,9 -9,13 4,11 6,0 65,-44 43,-16 -3,4 -22,13 -17,22 4,7 33,-26 39,-21 2,2 -17,34 1,20 9,-7 4,-23 15,-30"/>
  <path class="fil0 str0" d="M357 248c27,-11 43,-47 10,-62 -12,-5 -32,3 -41,-4 -11,-7 -8,-34 -13,-45 -2,-4 -8,-22 -16,-10 -5,7 27,37 14,43 -8,3 -24,-27 -30,-19 -9,11 25,20 20,33"/>
  <path class="fil0 str0" d="M181 153c-2,4 -5,4 -5,12"/>
  <path class="fil0 str0" d="M227 179c0,-20 -31,-52 -46,-26"/>
  <path class="fil0 str0" d="M224 191c3,-4 3,-8 3,-12"/>
  <path class="fil0 str0" d="M210 196c5,0 11,-1 14,-5"/>
  <path class="fil0 str0" d="M209 196c0,0 1,0 1,0"/>
  <path class="fil0 str0" d="M190 193c6,3 13,4 19,3"/>
  <path class="fil0 str0" d="M176 178c3,6 8,11 14,15"/>
  <path class="fil0 str0" d="M176 165c0,3 -1,10 0,13"/>
  <path class="fil0 str0" d="M213 185c-10,-1 -31,-3 -27,-17 6,-20 26,4 30,12"/>
  <path class="fil0 str0" d="M216 180c1,2 -1,5 -3,5"/>
 </g>
</svg>
