<?xml version="1.0" encoding="UTF-8"?>
<!DOCTYPE svg PUBLIC "-//W3C//DTD SVG 1.1//EN" "http://www.w3.org/Graphics/SVG/1.1/DTD/svg11.dtd">
<!-- Creator: CorelDRAW X8 -->
<svg xmlns="http://www.w3.org/2000/svg" xml:space="preserve" width="500px" height="500px" version="1.1" style="shape-rendering:geometricPrecision; text-rendering:geometricPrecision; image-rendering:optimizeQuality; fill-rule:evenodd; clip-rule:evenodd"
viewBox="0 0 500 500"
 xmlns:xlink="http://www.w3.org/1999/xlink">
 <defs>
  <style type="text/css">
   <![CDATA[
    .str0 {stroke:black;stroke-width:0.750048}
    .fil0 {fill:none}
   ]]>
  </style>
 </defs>
 <g id="Layer_x0020_1">
  <metadata id="CorelCorpID_0Corel-Layer"/>
  <path class="fil0 str0" d="M306 212c14,4 10,8 21,17 6,7 18,11 21,20 2,9 -5,18 -12,24 -18,15 -41,30 -64,27 -24,-5 -38,-14 -40,-12 3,7 31,9 30,33 0,20 -44,10 -54,5 -23,-9 -48,-29 -45,-56 2,-8 3,-10 10,-10 10,0 23,3 26,6 0,-6 -9,-9 -6,-14 0,-4 -4,-5 -2,-9 3,-4 4,-2 6,-3 -3,-8 -1,-14 10,-17 -13,-4 -32,5 -37,-14 8,-41 73,-45 110,-44 6,0 9,3 9,9 -6,27 -26,23 -36,32 9,6 15,-6 53,6z"/>
  <path class="fil0 str0" d="M311 223c-4,-1 -9,-1 -12,2 -1,1 -3,2 -3,3 -1,3 1,4 2,6 2,1 3,1 6,2 3,0 6,1 9,1 12,-1 7,-12 -2,-14l0 0z"/>
  <path class="fil0 str0" d="M296 278c0,1 0,1 0,2 0,2 2,2 2,3 9,5 30,-4 24,-16 -5,-12 -24,3 -26,11l0 0z"/>
 </g>
</svg>
