<?xml version="1.0" encoding="UTF-8"?>
<!DOCTYPE svg PUBLIC "-//W3C//DTD SVG 1.1//EN" "http://www.w3.org/Graphics/SVG/1.1/DTD/svg11.dtd">
<!-- Creator: CorelDRAW X8 -->
<svg xmlns="http://www.w3.org/2000/svg" xml:space="preserve" width="500px" height="500px" version="1.1" style="shape-rendering:geometricPrecision; text-rendering:geometricPrecision; image-rendering:optimizeQuality; fill-rule:evenodd; clip-rule:evenodd"
viewBox="0 0 500 500"
 xmlns:xlink="http://www.w3.org/1999/xlink">
 <defs>
  <style type="text/css">
   <![CDATA[
    .str0 {stroke:black;stroke-width:1.00006}
    .fil0 {fill:none;fill-rule:nonzero}
   ]]>
  </style>
 </defs>
 <g id="Layer_x0020_1">
  <metadata id="CorelCorpID_0Corel-Layer"/>
  <g id="_1818553913952">
   <path class="fil0 str0" d="M158 216c19,-21 42,-37 68,-49 5,-2 9,-4 14,-4 9,1 16,6 23,9 16,5 32,-1 47,-7 -3,-7 0,-16 7,-20 7,-4 16,-3 22,2 7,5 9,13 9,21 10,-3 21,-6 31,-3 10,3 19,14 16,24 -1,4 -3,6 -5,9 -18,25 -37,49 -57,71 -2,2 -4,4 -7,5 -3,2 -7,2 -11,3 -8,2 -13,7 -21,10 -8,2 -17,-1 -25,0 -1,1 -3,1 -3,2 -1,1 -1,2 -1,3 0,3 0,6 0,9 0,2 0,4 2,5 1,2 4,2 6,3 24,1 47,5 70,11 0,4 -5,6 -9,5 -19,-1 -37,-8 -55,-5 0,0 -1,0 -2,0 -2,2 -2,5 0,7 2,2 4,2 7,3 14,3 27,10 38,19 -9,4 -20,1 -29,-4 -9,-4 -18,-10 -28,-10 0,5 2,9 5,12 1,2 -1,3 -2,4 -13,4 -26,5 -39,6 -22,1 -43,1 -65,1 -13,-1 -26,-1 -37,-7 -12,-5 -22,-16 -22,-28 -1,-8 2,-15 6,-21 5,-9 12,-17 20,-22 16,-11 37,-12 56,-8 18,5 36,14 52,24"/>
   <path class="fil0 str0" d="M175 183c0,0 1,-1 0,-2 0,0 -1,0 -2,0 -20,8 -37,21 -50,38 -5,7 -9,14 -10,23 0,11 9,22 20,24"/>
   <path class="fil0 str0" d="M318 194c-6,5 -11,11 -12,18 -1,2 0,4 0,6 1,3 4,5 6,6 8,5 17,8 27,8 2,0 3,-1 5,-1 2,-1 3,-3 4,-4 7,-9 11,-29 3,-38 -9,-9 -25,-1 -33,5z"/>
   <path class="fil0 str0" d="M324 209c-2,1 -3,3 -4,5 -1,2 0,4 1,5 1,1 3,2 4,2 4,0 7,-3 10,-6 3,-3 11,-11 6,-15 -5,-5 -14,6 -17,9z"/>
  </g>
 </g>
</svg>
