<?xml version="1.0" encoding="UTF-8"?>
<!DOCTYPE svg PUBLIC "-//W3C//DTD SVG 1.1//EN" "http://www.w3.org/Graphics/SVG/1.1/DTD/svg11.dtd">
<!-- Creator: CorelDRAW X8 -->
<svg xmlns="http://www.w3.org/2000/svg" xml:space="preserve" width="500px" height="500px" version="1.1" style="shape-rendering:geometricPrecision; text-rendering:geometricPrecision; image-rendering:optimizeQuality; fill-rule:evenodd; clip-rule:evenodd"
viewBox="0 0 500 500"
 xmlns:xlink="http://www.w3.org/1999/xlink">
 <defs>
  <style type="text/css">
   <![CDATA[
    .str0 {stroke:black;stroke-width:1.00006}
    .fil0 {fill:none}
   ]]>
  </style>
 </defs>
 <g id="Layer_x0020_1">
  <metadata id="CorelCorpID_0Corel-Layer"/>
  <line class="fil0 str0" x1="349" y1="103" x2="347" y2= "103" />
  <path class="fil0 str0" d="M474 132c1,3 -2,6 -5,8 -32,24 -78,21 -110,46 -1,1 -2,1 -3,3 -1,2 0,4 0,6 3,22 18,40 34,56 23,26 63,42 64,47 -6,5 -25,2 -34,-12 -10,-6 -12,1 -7,10 2,4 4,12 1,15 -17,-4 -15,-33 -31,-41l1 32c0,2 0,4 -1,6 -2,4 -10,2 -12,-2 -2,-5 -1,-10 -1,-16 -1,-9 -4,-18 -8,-27 -8,-22 -17,-44 -26,-66 -11,8 -21,16 -32,23 -11,8 -13,11 -16,26 -3,24 -1,66 27,83 16,3 24,11 30,26 -7,1 -29,-20 -47,-25 13,17 18,37 16,38 -8,2 -16,-4 -20,-11 -6,-12 -2,-25 -4,-25 -2,0 -5,25 -11,33 -4,1 -8,-5 -7,-10 4,-18 12,-17 3,-41 -8,-22 -15,-61 -11,-82 -27,13 -51,32 -70,56 -4,5 -12,12 -7,17 30,33 64,41 61,67 -4,1 -19,-10 -32,-28 -6,12 14,34 -2,41 -9,-7 -7,-21 -10,-31 -6,-17 -25,-25 -31,-41 -8,0 -13,9 -13,16 1,8 6,15 10,21 8,15 13,48 10,48 -11,-4 -10,-45 -30,-53 -1,-1 3,35 1,36 -10,-6 -6,-35 -9,-32l-9 20c-3,0 -7,-14 -5,-22 3,-7 6,-16 2,-23 1,-2 -21,9 -32,8 -26,6 -54,5 -79,-2 1,-58 34,-110 75,-150 10,-9 20,-18 27,-29 9,-14 11,-32 16,-48 5,-17 13,-33 22,-48 1,-1 2,-3 4,-4 4,-1 7,4 8,8 12,47 -4,100 -39,133 -12,10 -25,18 -36,29 -11,11 -20,25 -20,40 22,-3 45,-11 62,-26 10,-9 19,-19 27,-30 16,-20 32,-39 47,-59 16,-20 33,-40 56,-47 23,-7 41,2 62,5 16,3 31,-6 47,-8 36,-4 74,9 97,36z"/>
  <path class="fil0 str0" d="M405 107c-1,-5 -8,-7 -13,-6 -5,2 -9,7 -12,12 -3,5 -5,10 -4,16 2,6 7,11 13,13 8,3 19,2 26,-4 6,-7 7,-19 0,-26 -3,-3 -9,-5 -12,-9"/>
  <path class="fil0 str0" d="M410 97c2,-11 13,-19 25,-19 2,0 5,0 7,1 7,3 11,11 11,18 1,6 0,14 -6,16"/>
  <path class="fil0 str0" d="M378 128c-1,-1 1,-3 2,-3 10,-5 21,-7 31,-5 3,0 6,2 5,4 0,1 -1,2 -2,2 -12,6 -25,7 -37,2"/>
  <path class="fil0 str0" d="M305 116c-8,3 -15,11 -13,19 1,2 3,4 4,6 3,5 7,9 12,11 10,6 23,3 29,-6 5,-7 7,-23 1,-30 -8,-8 -24,-5 -33,0z"/>
  <path class="fil0 str0" d="M227 159c0,1 0,3 1,4 0,2 2,3 3,4 6,4 11,7 17,9 7,1 14,0 18,-4 3,-3 4,-6 6,-10 1,-4 3,-8 5,-12 5,-12 -9,-31 -22,-28 -16,3 -25,23 -28,37z"/>
  <path class="fil0 str0" d="M289 168c-3,0 -7,2 -9,4 -3,2 -4,6 -5,9 -3,6 -4,12 -4,18 0,3 0,5 2,7 1,2 4,3 7,4 13,3 28,-3 37,-14 18,-23 -6,-34 -28,-28z"/>
  <path class="fil0 str0" d="M197 181c-9,7 -13,19 -13,31 0,2 0,5 2,6 1,2 4,2 6,3 5,1 11,2 16,1 3,0 5,0 7,-1 2,-2 4,-4 5,-6 5,-9 19,-25 10,-34 -7,-7 -27,-6 -33,0z"/>
  <path class="fil0 str0" d="M253 201c-1,-1 -1,-2 -1,-3 -4,1 -9,2 -12,5 -4,3 -7,8 -6,12 2,6 8,9 14,10 4,1 10,0 11,-4 1,-2 0,-4 0,-6 -1,-4 -2,-9 -4,-14 0,-1 0,-2 -1,-3 -1,0 -3,0 -3,2"/>
  <path class="fil0 str0" d="M167 251c-2,3 -4,7 -3,10 2,5 7,7 12,9 4,2 9,3 14,2 4,-1 8,-3 11,-6 9,-8 28,-32 8,-37 -16,-3 -35,9 -42,22z"/>
  <path class="fil0 str0" d="M128 268c-1,2 -2,4 -2,6 0,5 7,6 12,5 8,-1 10,-5 12,-12 1,-3 3,-14 1,-18 -8,-15 -20,13 -23,19z"/>
  <path class="fil0 str0" d="M139 292c-1,1 -1,1 -2,2 0,1 0,3 1,4 6,9 19,11 28,6 8,-4 16,-17 6,-22 -9,-5 -26,5 -33,10z"/>
  <path class="fil0 str0" d="M80 284c-3,4 -5,10 -4,15 1,5 4,8 8,11 7,5 16,8 25,5 8,-2 15,-11 14,-20 -2,-8 -5,-32 -15,-35 -11,-3 -24,16 -28,24z"/>
  <path class="fil0 str0" d="M25 310c0,6 5,11 10,13 5,2 11,2 17,0 3,-1 7,-2 9,-5 8,-9 -3,-27 -12,-30 -12,-3 -25,11 -24,22z"/>
  <path class="fil0 str0" d="M63 245c-1,-1 -3,-1 -5,0 -5,1 -9,6 -10,12 -1,5 1,11 6,14 3,3 7,4 11,2 3,-1 6,-5 6,-9 -1,-7 -11,-10 -12,-17"/>
  <path class="fil0 str0" d="M80 214c-1,0 -2,-2 -2,-4 1,-2 2,-3 3,-4 5,-6 11,-12 18,-17 1,0 2,-1 4,-1 1,1 2,2 2,3 3,7 -1,14 -6,19 -5,6 -11,11 -18,15 -1,0 -2,1 -2,0 -1,0 -1,-1 -2,-1 -2,-5 0,-11 5,-13"/>
  <path class="fil0 str0" d="M141 152c-6,-1 -11,3 -15,7 -4,5 -7,10 -6,16 0,6 6,11 11,10 3,-1 6,-3 7,-6 3,-4 5,-8 4,-13 0,-4 -3,-9 -8,-10"/>
  <path class="fil0 str0" d="M157 103c-4,-1 -9,0 -12,3 -3,3 -5,7 -6,12 -1,3 -2,6 0,9 2,5 8,7 13,8 3,1 6,2 9,0 4,-2 5,-7 5,-11 2,-8 2,-17 -5,-21"/>
  <path class="fil0 str0" d="M471 135c1,-1 -1,-2 -2,-2 -14,-2 -26,10 -38,15 -8,4 -15,5 -23,7 -20,3 -40,7 -59,11"/>
 </g>
</svg>
