<?xml version="1.0" encoding="UTF-8"?>
<!DOCTYPE svg PUBLIC "-//W3C//DTD SVG 1.1//EN" "http://www.w3.org/Graphics/SVG/1.1/DTD/svg11.dtd">
<!-- Creator: CorelDRAW X8 -->
<svg xmlns="http://www.w3.org/2000/svg" xml:space="preserve" width="500px" height="500px" version="1.1" style="shape-rendering:geometricPrecision; text-rendering:geometricPrecision; image-rendering:optimizeQuality; fill-rule:evenodd; clip-rule:evenodd"
viewBox="0 0 500 500"
 xmlns:xlink="http://www.w3.org/1999/xlink">
 <defs>
  <style type="text/css">
   <![CDATA[
    .str0 {stroke:black;stroke-width:0.750048}
    .fil0 {fill:none}
   ]]>
  </style>
 </defs>
 <g id="Layer_x0020_1">
  <metadata id="CorelCorpID_0Corel-Layer"/>
  <path class="fil0 str0" d="M411 146c4,-6 2,-13 -3,-17 -6,-4 -14,-2 -16,4 -2,4 -2,7 -5,8 -2,0 -3,0 -4,-1l-29 -7c-10,-2 -20,-5 -25,-13 -6,6 -6,17 -9,18 -4,-1 -5,-8 -9,-9 -7,4 -3,12 -6,14 -9,2 -14,-13 -23,-10 -6,3 -6,11 -11,15 -5,3 -12,-1 -15,-5 -3,3 -4,7 -4,11 -6,-6 -10,-9 -14,-8 -2,3 2,8 -2,10 -4,1 -6,-5 -11,-5 -3,2 -1,7 -4,10 -7,-6 -18,-1 -19,8 -7,-7 -19,4 -25,-1 -6,-3 -5,-14 -11,-16 -8,0 -1,19 -11,19 -4,0 -3,-6 -12,-1 -18,9 -29,19 -34,34 -4,-5 -12,-2 -18,1 -26,12 -50,31 -71,52 -4,5 -2,7 3,7 13,-2 22,-12 33,-18 13,-7 30,-9 45,-4 29,11 32,22 72,27 19,3 38,4 57,0 10,-1 20,-5 26,-13 3,-7 5,-14 8,-21 4,-7 11,-13 18,-11 -1,7 -2,15 1,21 3,7 11,13 17,10 4,7 -1,14 -5,19 -4,6 -9,10 -9,17 0,4 1,7 1,10 0,3 -2,5 -3,7 -8,9 -20,18 -21,31 17,-10 30,-24 36,-43 4,9 -2,18 -6,25 -5,8 -10,19 -3,25 3,-3 15,-29 16,-43 3,4 1,25 5,31 14,15 -1,-32 1,-35 3,0 5,14 26,17 -4,-6 -24,-29 -26,-36 6,-13 9,-28 -5,-43 17,3 65,3 82,-2 11,-4 21,-12 25,-23 1,5 7,11 14,14 8,5 13,23 9,37 5,-3 7,-9 6,-14 0,-5 -4,-12 -3,-15 3,1 4,8 17,11 -3,-7 -9,-14 -16,-17 4,-1 13,4 23,3 -11,-15 -41,-13 -43,-32 9,-3 16,-11 20,-20 10,-21 -10,-35 -30,-33l0 0z"/>
  <path class="fil0 str0" d="M383 157c-2,5 -4,11 -2,16 2,5 10,8 16,7 3,0 6,-2 8,-4 2,-2 3,-6 2,-10 0,-7 -2,-21 -10,-23 -9,-2 -12,7 -14,14l0 0z"/>
  <path class="fil0 str0" d="M398 158c0,-1 0,-2 -1,-3 -3,2 -6,5 -7,9 -1,2 -1,4 0,5 1,2 4,3 5,3 4,-4 4,-11 -1,-14"/>
  <path class="fil0 str0" d="M439 175c-18,22 -50,17 -91,29"/>
 </g>
</svg>
