<?xml version="1.0" encoding="UTF-8"?>
<!DOCTYPE svg PUBLIC "-//W3C//DTD SVG 1.1//EN" "http://www.w3.org/Graphics/SVG/1.1/DTD/svg11.dtd">
<!-- Creator: CorelDRAW X8 -->
<svg xmlns="http://www.w3.org/2000/svg" xml:space="preserve" width="500px" height="500px" version="1.1" style="shape-rendering:geometricPrecision; text-rendering:geometricPrecision; image-rendering:optimizeQuality; fill-rule:evenodd; clip-rule:evenodd"
viewBox="0 0 500 500"
 xmlns:xlink="http://www.w3.org/1999/xlink">
 <defs>
  <style type="text/css">
   <![CDATA[
    .str0 {stroke:black;stroke-width:1.00006}
    .fil0 {fill:none}
   ]]>
  </style>
 </defs>
 <g id="Layer_x0020_1">
  <metadata id="CorelCorpID_0Corel-Layer"/>
  <path class="fil0 str0" d="M353 209c-11,-18 -30,-25 -50,-24 -22,0 -38,-12 -61,-7 -22,4 -29,8 -36,-15 -7,-22 -19,-29 -43,-27 -17,1 -39,7 -47,24 -9,19 -2,43 6,61 8,18 27,36 24,57 -2,19 -15,37 -31,47 42,0 59,-41 50,-78 -5,-17 -16,-43 9,-52 14,-5 27,21 40,8 5,26 17,44 47,40 18,-2 34,-10 52,-7 8,1 16,4 23,7 7,4 13,11 21,9 12,-3 6,-19 3,-27 -1,-3 -14,-31 -19,-18"/>
  <path class="fil0 str0" d="M348 227c4,-9 -24,-12 -17,3 7,18 28,-6 16,-6"/>
  <path class="fil0 str0" d="M308 196c1,-3 -2,-11 -1,-14 0,-4 2,-9 3,-14 3,-8 14,-15 16,-23"/>
  <path class="fil0 str0" d="M338 151l0 0c4,0 -5,15 -11,8 1,0 11,-8 11,-8z"/>
  <path class="fil0 str0" d="M321 175c3,-4 18,-8 28,-8"/>
  <path class="fil0 str0" d="M305 237c-4,20 12,24 20,38"/>
  <path class="fil0 str0" d="M306 262c3,10 14,16 19,25"/>
  <path class="fil0 str0" d="M298 261c-5,9 -6,16 -4,24"/>
  <path class="fil0 str0" d="M235 187c11,-12 1,-28 18,-39"/>
  <path class="fil0 str0" d="M246 185c-1,-4 2,-21 7,-25"/>
  <path class="fil0 str0" d="M254 182c3,-1 5,-10 12,-15"/>
  <path class="fil0 str0" d="M235 238c-16,3 -27,16 -43,19"/>
  <path class="fil0 str0" d="M235 241c-3,8 0,26 -9,29"/>
  <path class="fil0 str0" d="M247 241c5,9 3,24 -3,34"/>
 </g>
</svg>
