<?xml version="1.0" encoding="UTF-8"?>
<!DOCTYPE svg PUBLIC "-//W3C//DTD SVG 1.1//EN" "http://www.w3.org/Graphics/SVG/1.1/DTD/svg11.dtd">
<!-- Creator: CorelDRAW X8 -->
<svg xmlns="http://www.w3.org/2000/svg" xml:space="preserve" width="500px" height="500px" version="1.1" style="shape-rendering:geometricPrecision; text-rendering:geometricPrecision; image-rendering:optimizeQuality; fill-rule:evenodd; clip-rule:evenodd"
viewBox="0 0 500 500"
 xmlns:xlink="http://www.w3.org/1999/xlink">
 <defs>
  <style type="text/css">
   <![CDATA[
    .str0 {stroke:black;stroke-width:1.00006}
    .fil0 {fill:none;fill-rule:nonzero}
   ]]>
  </style>
 </defs>
 <g id="Layer_x0020_1">
  <metadata id="CorelCorpID_0Corel-Layer"/>
  <g id="_1818639375200">
   <path class="fil0 str0" d="M356 152c-10,-4 -22,-8 -33,-12 -12,-3 -24,-7 -36,-11 -8,-3 -17,-6 -26,-7 -33,-6 -67,8 -97,25 -3,-4 -9,-5 -15,-6 -12,-3 -23,-5 -35,-4 -12,1 -24,6 -31,16 -3,4 -5,8 -9,11 -4,3 -9,3 -14,4 -15,5 -21,27 -10,39 -11,6 -20,15 -26,25 -2,5 -4,10 -4,15 -1,8 4,16 9,22 22,31 62,47 99,41l-9 35c-8,-5 -16,-10 -25,-15 -9,-6 -19,-12 -30,-15 -11,-3 -24,-2 -33,5 -5,3 -8,11 -4,14 6,6 16,-5 24,-3 7,2 7,14 2,19 -5,6 -12,9 -18,15 -1,1 -2,3 -3,5 0,6 7,9 12,8 6,-1 10,-5 15,-9 4,-3 11,-5 15,-2 6,3 5,11 2,17 -3,6 -8,10 -11,15 -4,5 -6,12 -2,17 3,6 12,5 18,2 5,-3 9,-9 13,-14 4,-5 9,-10 16,-11 7,-1 13,3 20,3 7,0 15,-4 19,-11 5,-6 7,-13 9,-21 3,-15 3,-31 1,-46 9,11 19,22 28,32 5,5 9,10 15,13 7,5 16,6 25,7 36,2 73,-7 104,-28 -2,8 -2,15 -3,23 0,6 0,13 3,19 4,6 12,9 19,11 13,4 27,5 39,1 13,-4 24,-12 30,-24 7,-14 5,-31 6,-47 1,-18 5,-37 -6,-51"/>
   <path class="fil0 str0" d="M369 336c-7,-13 -10,-28 -10,-43 -1,-20 2,-41 13,-57 11,-16 33,-26 52,-19 17,6 27,24 33,42 9,26 14,54 14,81 0,9 -1,18 -3,27 -4,11 -12,21 -17,32 -5,10 -8,21 -14,30 -6,10 -15,17 -24,23 -18,12 -37,21 -58,22 -7,0 -14,-1 -17,-7 -1,-5 3,-11 7,-13 5,-3 11,-3 16,-4 11,-1 22,-5 31,-11 4,-2 8,-6 8,-10 -1,-2 -2,-4 -3,-5 -6,-8 -17,-9 -27,-7 -9,2 -18,8 -27,12 -10,4 -21,7 -32,8 -2,0 -5,0 -8,-1 -6,-4 -4,-14 2,-18 6,-4 14,-4 21,-5 7,0 15,-3 18,-9"/>
   <path class="fil0 str0" d="M355 152c-6,-4 -6,-13 -8,-20 -2,-10 -8,-18 -10,-27 -3,-17 7,-33 22,-41 14,-8 32,-8 47,-3 27,9 49,34 54,62 -2,1 -4,1 -6,1"/>
   <path class="fil0 str0" d="M370 89c13,25 29,48 48,68 6,6 13,12 21,16 8,3 18,4 25,-1 8,-6 11,-16 14,-25 1,-7 3,-14 4,-21 3,-29 -16,-60 -43,-71 -7,-3 -14,-5 -21,-8 -6,-3 -13,-8 -15,-15 -5,-1 -9,4 -9,9 -1,5 1,10 3,14 -18,-11 -38,-22 -59,-21 -3,0 -6,1 -7,3 2,12 23,10 26,21 -12,5 -25,-3 -36,2 -2,1 -4,2 -4,3 -2,3 0,7 3,9 3,2 7,2 10,2"/>
   <path class="fil0 str0" d="M62 236c0,8 6,14 13,16 7,3 14,3 21,2 9,0 18,0 27,0 3,0 6,0 9,1 2,1 5,4 4,7 -1,4 -5,5 -9,6 -4,1 -8,2 -12,3 -5,2 -10,3 -15,3 -5,0 -11,-2 -14,-5 -4,-4 -5,-10 -3,-15 1,0 1,-1 2,-1 0,1 0,2 -1,1"/>
  </g>
 </g>
</svg>
