<?xml version="1.0" encoding="UTF-8"?>
<!DOCTYPE svg PUBLIC "-//W3C//DTD SVG 1.1//EN" "http://www.w3.org/Graphics/SVG/1.1/DTD/svg11.dtd">
<!-- Creator: CorelDRAW X8 -->
<svg xmlns="http://www.w3.org/2000/svg" xml:space="preserve" width="20cm" height="20cm" version="1.1" style="shape-rendering:geometricPrecision; text-rendering:geometricPrecision; image-rendering:optimizeQuality; fill-rule:evenodd; clip-rule:evenodd"
viewBox="0 0 20000 20000"
 xmlns:xlink="http://www.w3.org/1999/xlink">
 <defs>
  <style type="text/css">
   <![CDATA[
    .str0 {stroke:black;stroke-width:35.28}
    .fil0 {fill:none;fill-rule:nonzero}
   ]]>
  </style>
 </defs>
 <g id="Layer_x0020_1">
  <metadata id="CorelCorpID_0Corel-Layer"/>
  <g id="_2614251374096">
   <path class="fil0 str0" d="M6841 6105c-212,-199 -298,-542 -571,-642 -273,-100 -578,130 -666,407 -89,278 -24,578 42,862 -377,93 -687,415 -767,795 -16,75 -23,156 6,228 26,67 81,119 136,168 574,508 1301,842 2061,949 82,11 185,38 198,121 5,34 -8,69 -23,100 -76,163 -190,350 -103,508 52,95 162,140 264,177 569,205 1162,344 1763,414 -541,411 -992,940 -1312,1540 -666,-191 -1370,-250 -2058,-172 -255,28 -532,90 -684,295 126,209 438,135 672,67 420,-123 870,-140 1298,-51 -70,202 -317,264 -523,319 -414,109 -804,304 -1140,569 -77,61 -154,131 -180,225 -26,95 26,216 123,228 45,5 89,-13 131,-32 683,-308 1277,-862 2021,-955 -184,264 -368,528 -552,792 410,-336 920,-548 1447,-603 321,-33 654,-11 959,-117 198,-70 375,-191 540,-320 337,-266 640,-575 898,-917 -53,68 -15,169 36,239 217,294 647,386 988,255 342,-130 589,-449 691,-800 16,170 -133,305 -253,427 -121,122 -227,316 -125,454 59,79 165,104 262,118 231,34 467,40 699,19 -590,391 -1214,822 -1469,1483 197,2 351,-161 487,-304 248,-262 523,-500 818,-709 120,-86 284,-167 406,-85 82,56 108,164 113,263 18,346 -136,707 -9,1029 13,32 29,65 58,84 57,38 139,7 178,-49 40,-55 48,-126 56,-194 31,-292 62,-584 93,-876 3,-34 10,-72 38,-91 64,-42 126,54 142,128 39,182 77,364 116,546 221,-321 70,-765 -148,-1087 -45,-67 -95,-137 -96,-218 -1,-76 42,-145 79,-211 302,-542 275,-1199 240,-1817 -41,-720 -108,-1503 -600,-2030 -52,-56 -110,-110 -183,-134 -154,-52 -326,46 -416,181 -91,135 -123,300 -165,458 -61,225 -147,443 -256,649 -20,36 -47,77 -89,79 -47,1 -78,-50 -93,-95 -113,-338 47,-703 38,-1060 -7,-290 -133,-576 -342,-777 -185,-178 -424,-286 -658,-391 -689,-310 -1383,-589 -2151,-549 -307,15 -449,-162 -726,-264 -276,-102 -581,-126 -871,-75 -327,57 -638,208 -868,449z"/>
   <path class="fil0 str0" d="M6135 9553c-53,51 -107,103 -175,130 -67,26 -143,25 -214,13 -210,-37 -392,-163 -581,-262 -190,-99 -414,-174 -614,-100 -18,7 -35,15 -47,29 -29,33 -13,87 20,116 33,28 78,37 120,46 215,46 424,115 625,204 150,68 318,187 299,350 -15,127 -136,209 -241,280 -210,140 -405,301 -582,480 -43,44 -87,91 -105,149 -18,59 -2,132 51,163 53,30 120,9 175,-18 320,-159 525,-485 823,-683 59,-38 137,-71 194,-31 35,25 49,70 52,112 9,125 -53,242 -92,361 -39,119 -48,267 45,351 24,22 58,38 88,26 31,-12 44,-48 53,-80 63,-218 107,-441 132,-667 12,-113 22,-235 97,-321 43,-48 101,-80 154,-117 178,-126 295,-335 309,-553 6,-96 -36,-340 -170,-352 -109,-9 -337,296 -416,374z"/>
   <path class="fil0 str0" d="M4916 7809c13,-36 26,-72 39,-108 -13,99 85,175 172,223 787,427 1708,498 2585,675 264,53 525,116 784,189"/>
   <path class="fil0 str0" d="M7160 6595c-51,6 -100,21 -147,40 -396,155 -692,539 -742,961 -12,101 -8,212 57,290 83,101 231,110 361,107 230,-5 459,-22 687,-51 200,-26 417,-72 541,-230 43,-55 71,-120 92,-186 193,-606 -284,-992 -849,-931z"/>
   <path class="fil0 str0" d="M7214 6990c253,-54 545,13 705,216 -110,252 -378,399 -644,466 -46,12 -92,22 -138,25 -167,10 -599,-110 -534,-339 54,-188 443,-332 611,-368z"/>
  </g>
 </g>
</svg>
