<?xml version="1.0" encoding="UTF-8"?>
<!DOCTYPE svg PUBLIC "-//W3C//DTD SVG 1.1//EN" "http://www.w3.org/Graphics/SVG/1.1/DTD/svg11.dtd">
<!-- Creator: CorelDRAW X8 -->
<svg xmlns="http://www.w3.org/2000/svg" xml:space="preserve" width="20cm" height="20cm" version="1.1" style="shape-rendering:geometricPrecision; text-rendering:geometricPrecision; image-rendering:optimizeQuality; fill-rule:evenodd; clip-rule:evenodd"
viewBox="0 0 20000 20000"
 xmlns:xlink="http://www.w3.org/1999/xlink">
 <defs>
  <style type="text/css">
   <![CDATA[
    .str0 {stroke:black;stroke-width:35.28}
    .fil0 {fill:none;fill-rule:nonzero}
   ]]>
  </style>
 </defs>
 <g id="Layer_x0020_1">
  <metadata id="CorelCorpID_0Corel-Layer"/>
  <g id="_2614249104000">
   <path class="fil0 str0" d="M6817 7252c-144,331 -254,676 -328,1029 -26,123 -49,249 -111,359 -55,97 -139,175 -214,257 -228,251 -391,560 -469,890 -13,53 -22,114 9,160 26,36 72,53 115,63 256,61 539,-8 737,-179 -462,216 -857,575 -1118,1014 -65,110 -111,273 -6,345 99,68 228,-17 316,-98 288,-265 576,-530 864,-795 -267,290 -481,627 -630,991 -37,90 -65,206 5,273 92,87 240,-2 328,-93 287,-298 527,-641 707,-1013 108,302 365,533 651,679 287,145 604,216 918,285 -295,143 -413,500 -461,824 -48,325 -62,674 -253,941 151,279 303,559 454,838 69,127 197,275 326,211 65,-385 -110,-766 -281,-1118 384,199 779,376 1183,530 248,94 537,176 768,44 -23,-261 -275,-443 -524,-527 -248,-84 -519,-109 -747,-239 451,63 904,104 1359,124 86,4 205,-23 201,-110 -2,-48 -46,-83 -86,-110 -206,-136 -426,-250 -655,-339 -146,-57 -298,-104 -426,-193 -128,-89 -232,-231 -230,-387 2,-112 59,-225 28,-333 -1,49 58,73 106,84 1003,214 2098,-60 2881,-721 142,164 60,435 -107,574 -167,139 -389,185 -597,246 -208,62 -426,157 -531,347 -10,18 -19,40 -15,61 11,56 92,54 146,38 350,-103 700,-205 1049,-308l-672 920c-42,58 -87,120 -96,192 -9,71 31,155 103,167 72,13 135,-48 182,-105 245,-299 452,-630 612,-982 148,90 173,295 146,466 -26,171 -88,343 -56,513 11,61 48,131 111,134 22,2 44,-6 64,-14 257,-110 387,-399 433,-674 46,-275 33,-561 114,-828 98,-324 332,-605 367,-943 38,-361 -162,-700 -353,-1009 -40,-65 -84,-132 -152,-166 -156,-78 -331,60 -504,80 150,-298 56,-654 -40,-973 -61,-203 -122,-406 -183,-608 -45,-151 -93,-306 -198,-423 -133,-148 -335,-210 -531,-243 -409,-67 -837,-33 -1231,-161 -190,-62 -366,-159 -552,-231 -288,-113 -599,-165 -908,-152 -41,2 -85,5 -119,28 -46,30 -65,86 -81,138 -55,191 -89,388 -103,586 6,-94 -500,-205 -571,-216 -173,-27 -279,-21 -400,-154 -107,-117 -183,-294 -363,-314 -201,-22 -313,170 -381,328z"/>
   <path class="fil0 str0" d="M9554 9669c-12,67 -18,136 1,200 39,134 176,216 309,259 162,53 337,69 506,47 79,-11 166,-36 202,-106 14,-27 19,-58 23,-89 16,-122 27,-244 31,-367 16,-447 -991,-392 -1072,56z"/>
   <path class="fil0 str0" d="M11865 9241c-50,46 -102,95 -132,157 -61,129 -1,301 126,368 126,67 298,23 382,-93 30,-42 49,-90 68,-138 42,-104 83,-212 85,-324 1,-92 -43,-311 -157,-307 -91,3 -303,273 -372,337z"/>
   <path class="fil0 str0" d="M10285 9572c47,15 94,35 128,71 34,35 52,89 36,135 -26,70 -113,92 -187,103 -149,23 -542,136 -542,-129 0,-244 411,-227 565,-180z"/>
   <path class="fil0 str0" d="M12068 9278c84,-31 176,-21 264,-11 14,1 30,4 35,17 5,12 -3,24 -10,35 -70,94 -156,179 -263,228 -343,157 -261,-183 -26,-269z"/>
   <path class="fil0 str0" d="M8488 10659c195,120 443,73 672,79 282,8 553,105 830,157 566,106 1151,26 1710,-108 212,-51 428,-112 602,-244 174,-131 299,-349 264,-564"/>
  </g>
 </g>
</svg>
