<?xml version="1.0" encoding="utf-8"?>
<!-- Generator: Adobe Illustrator 19.0.0, SVG Export Plug-In . SVG Version: 6.00 Build 0)  -->
<svg version="1.1" id="Layer_1" xmlns="http://www.w3.org/2000/svg" xmlns:xlink="http://www.w3.org/1999/xlink" x="0px" y="0px"
	 viewBox="-55 147 500 500" style="enable-background:new -55 147 500 500;" xml:space="preserve">
<style type="text/css">
	.st0{fill:none;stroke:#000000;stroke-width:1.0001;}
</style>
<g id="Layer_x0020_1">
	<g id="_1818680871088">
		<path class="st0" d="M37.6,403.7C35.6,408.7,1,468,4,472c5,4,13-1,18-6c16-16,29-34,39-55c5,17,19,29,35,37c15,8,33,12,50,16
			c-16,8-23,27-25,45c-3,17-4,36-14,51c8,15,16,30,25,45c3,7,10,15,17,12c4-21-6-42-15-61c21,11,42,20,64,29c14,5,30,9,42,2
			c-1-14-15-24-28-29c-14-4-29-5-41-12c24,3,49,5,74,6c4,0,11-1,11-6c0-2-3-4-5-6c-11-7-23-13-36-18c-7-3-16-6-23-11
			c-7-4-12-12-12-21c0-6-0.9-20.2,1-18c0.7,0.3,3.7,4.1,6,5c55,11,114-3,157-39c7,9,3,23-6,31c-9,7-21,10-33,13c-11,4-23,9-28,19
			c-1,1-2,2-1,3c0,3,5,3,8,2c19-5,38-11,57-16l-37,50c-2,3-5,6-5,10c-1,4,2,9,5,9c4,1,8-2,10-6c14-16,25-34,34-53c8,5,9,16,8,25
			c-2,10-5,19-4,28c1,4,3,7,7,8c1,0,2-1,3-1c14-6,21-22,24-37c2-15,1-30,6-45c5-17,18-33,20-51c2-20-9-38-20-55c-2-3-4-7-8-9
			c-8-4-18,4-27,5c8-17,3-36-2-53c-4-11-7-22-10-33c-3-8-5-17-11-23c-7-8-18-12-29-13c-22-4-45-2-67-9c-10-3-20-9-30-13
			c-15-6-32-9-49-8c-2,0-5,0-6,2c-3,1-4,4-5,7c-2.4,8-6.3,17.7-5.3,25.4c0.3,2.4-2.4,3.2-4.7,2.9c-9.2-1.1-23.7-7.7-25.9-8.4
			c-10-1-16-1-22-8s-10-16-20-17c-11-1-17,9-21,18c-7,18-13,36-17,55c-2,7-3,14-6,20c-3,5-8,9-12,14c-12,14-21,30-25,48
			c-1,3-2,6,0,9c1,2,4,3,6,3c14,4,36.7-10.9,39.2-8.7C37,382.3-11,409-25,433c-4,6-6,15-1,18c6,4,13-1,17-5c16-14,32-29,47-43"/>
		<path class="st0" d="M198,369c-1,3-1,7,0,11c2,7,10,11,17,14c9,3,18,3,27,2c5,0,9-2,11-5c1-2,1-4,2-5c0-7,1-14,1-20
			C257,342,202,345,198,369z"/>
		<path class="st0" d="M324,346c-3,2-6,5-8,8c-3,7,0,16,7,20s16,1,21-5c2-2,3-5,4-7c2-6,4-12,4-18c0-5-2-17-8-17
			C339,327,327,342,324,346z"/>
		<path class="st0" d="M238,364c2,0,5,1,7,3s3,5,2,8c-2,4-6,5-11,5c-8,2-29,8-29-7C207,360,229,361,238,364z"/>
		<path class="st0" d="M335,348c4-2,9-2,14-1c1,0,2,0,2,1s0,1-1,2c-4,5-8,10-14,12C317,371,322,352,335,348z"/>
		<path class="st0" d="M140,423c11,6,24,4,37,4c15,0,30,6,45,8c30,6,62,2,93-5c11-3,23-7,32-14c10-7,17-19,15-30"/>
	</g>
</g>
</svg>
