<?xml version="1.0" encoding="UTF-8"?>
<!DOCTYPE svg PUBLIC "-//W3C//DTD SVG 1.1//EN" "http://www.w3.org/Graphics/SVG/1.1/DTD/svg11.dtd">
<!-- Creator: CorelDRAW X8 -->
<svg xmlns="http://www.w3.org/2000/svg" xml:space="preserve" width="500px" height="500px" version="1.1" style="shape-rendering:geometricPrecision; text-rendering:geometricPrecision; image-rendering:optimizeQuality; fill-rule:evenodd; clip-rule:evenodd"
viewBox="0 0 500 500"
 xmlns:xlink="http://www.w3.org/1999/xlink">
 <defs>
  <style type="text/css">
   <![CDATA[
    .str0 {stroke:black;stroke-width:1.00006}
    .fil0 {fill:none;fill-rule:nonzero}
   ]]>
  </style>
 </defs>
 <g id="Layer_x0020_1">
  <metadata id="CorelCorpID_0Corel-Layer"/>
  <g id="_1783423147264">
   <path class="fil0 str0" d="M43 60c-1,2 -2,3 -2,4 -1,6 5,10 11,11 21,3 42,-9 64,-9 13,0 25,4 35,12 7,5 12,11 18,16 31,24 77,21 110,0 13,-8 24,-18 39,-24 16,-6 34,-5 51,0 16,4 33,11 41,26 8,17 2,38 -8,54 -27,43 -86,63 -133,45 -24,-8 -43,-24 -65,-37 -22,-12 -47,-21 -71,-14 -21,6 -37,23 -50,41 -14,21 -27,43 -33,68 -5,24 -3,51 11,72 18,27 51,38 82,47 20,5 40,9 61,8 40,-1 78,-22 118,-24 16,-1 36,4 40,19 4,12 -3,24 -12,32 -24,24 -59,35 -93,35 -34,0 -68,-10 -100,-22 -25,-9 -50,-19 -76,-18 -26,1 -54,17 -60,42 0,2 0,5 2,5 1,1 2,1 3,0 11,-4 16,-17 25,-25 11,-9 28,-8 42,-5 45,8 86,26 130,39 43,13 89,21 133,10 21,-5 43,-16 55,-35 19,-30 8,-73 -19,-96 -27,-23 -66,-30 -101,-26 -29,3 -57,12 -87,16 -29,3 -60,0 -83,-18 -8,-6 -15,-14 -18,-23 -6,-17 -1,-36 7,-51 13,-23 36,-42 62,-43 19,-1 36,7 52,15 22,10 44,20 65,31 22,10 44,20 68,25 23,4 49,2 69,-12 24,-17 35,-47 43,-76 6,-24 11,-48 9,-72 -2,-24 -12,-48 -32,-62 -16,-11 -35,-14 -54,-14 -40,-1 -80,11 -113,35 -18,13 -37,30 -60,30 -28,0 -48,-25 -69,-39 -10,-6 -20,-16 -32,-19 -13,-3 -27,-3 -40,1 -14,4 -27,13 -35,25z"/>
   <path class="fil0 str0" d="M62 57c-2,4 -1,10 3,13 4,2 8,2 13,1 5,-2 10,-4 13,-8 13,-13 -21,-23 -29,-6z"/>
  </g>
 </g>
</svg>
