<?xml version="1.0" encoding="UTF-8"?>
<!DOCTYPE svg PUBLIC "-//W3C//DTD SVG 1.1//EN" "http://www.w3.org/Graphics/SVG/1.1/DTD/svg11.dtd">
<!-- Creator: CorelDRAW X8 -->
<svg xmlns="http://www.w3.org/2000/svg" xml:space="preserve" width="500px" height="500px" version="1.1" style="shape-rendering:geometricPrecision; text-rendering:geometricPrecision; image-rendering:optimizeQuality; fill-rule:evenodd; clip-rule:evenodd"
viewBox="0 0 500 500"
 xmlns:xlink="http://www.w3.org/1999/xlink">
 <defs>
  <style type="text/css">
   <![CDATA[
    .str0 {stroke:black;stroke-width:1.00006}
    .fil0 {fill:none;fill-rule:nonzero}
   ]]>
  </style>
 </defs>
 <g id="Layer_x0020_1">
  <metadata id="CorelCorpID_0Corel-Layer"/>
  <g id="_1783423138912">
   <path class="fil0 str0" d="M71 320c-15,0 -31,7 -40,19 -4,7 -7,17 -1,22 6,7 17,2 26,-2 24,-10 54,-6 75,9 7,5 13,11 20,15 7,4 15,6 24,7 19,2 41,-4 53,-21 10,-14 9,-34 11,-52 2,-18 9,-38 27,-44 16,-5 34,6 43,21 9,15 12,33 16,50 2,9 4,18 11,24 9,10 23,12 36,12 18,2 39,1 51,-14 4,-5 7,-12 9,-19 7,-24 9,-51 -2,-73 -16,-30 -52,-42 -84,-51 -26,-7 -53,-14 -79,-21 -9,-3 -19,-6 -23,-15 -4,-9 1,-19 8,-26 14,-15 37,-20 58,-18 21,2 41,9 61,16 10,3 20,6 31,6 11,-1 22,-5 31,-10 19,-10 40,-24 41,-45 -13,25 -40,43 -68,47 -9,1 -18,2 -27,0 -10,-2 -19,-6 -29,-10 -24,-10 -50,-16 -76,-13 -26,4 -51,19 -62,42 -3,7 -5,14 -3,21 2,6 6,11 11,15 15,13 35,19 55,23 20,4 40,5 60,11 19,6 38,16 49,33 10,17 11,42 -3,56 -3,3 -7,6 -10,6 -3,0 -6,-2 -8,-4 -19,-16 -8,-48 -20,-69 -10,-16 -31,-21 -49,-23 -15,-2 -30,-2 -44,1 -15,3 -29,10 -37,21 -17,23 -12,55 -21,82 -2,4 -4,9 -9,11 -2,1 -5,1 -8,1 -21,-2 -38,-10 -54,-21 -15,-10 -32,-20 -50,-20z"/>
   <path class="fil0 str0" d="M60 337c-1,-4 -6,-4 -9,-2 -3,1 -4,5 -5,8 0,2 0,3 1,5 1,4 6,5 10,5 5,0 9,-2 13,-5 1,-1 1,-1 2,-2 0,-2 -1,-4 -2,-6 -2,-4 -7,-8 -12,-7"/>
  </g>
 </g>
</svg>
