<?xml version="1.0" encoding="UTF-8"?>
<!DOCTYPE svg PUBLIC "-//W3C//DTD SVG 1.1//EN" "http://www.w3.org/Graphics/SVG/1.1/DTD/svg11.dtd">
<!-- Creator: CorelDRAW X8 -->
<svg xmlns="http://www.w3.org/2000/svg" xml:space="preserve" width="500px" height="500px" version="1.1" style="shape-rendering:geometricPrecision; text-rendering:geometricPrecision; image-rendering:optimizeQuality; fill-rule:evenodd; clip-rule:evenodd"
viewBox="0 0 500 500"
 xmlns:xlink="http://www.w3.org/1999/xlink">
 <defs>
  <style type="text/css">
   <![CDATA[
    .str0 {stroke:black;stroke-width:1.00006}
    .fil0 {fill:none;fill-rule:nonzero}
   ]]>
  </style>
 </defs>
 <g id="Layer_x0020_1">
  <metadata id="CorelCorpID_0Corel-Layer"/>
  <path class="fil0 str0" d="M207 197c5,-10 24,-9 33,-5 16,7 29,22 46,26"/>
  <path class="fil0 str0" d="M301 238c13,-3 15,-30 11,-41 -11,-32 -55,-26 -81,-29 -24,-4 -33,-8 -54,9 -11,9 -15,15 -15,30 0,10 3,21 11,26"/>
  <path class="fil0 str0" d="M208 138c-31,11 -34,25 -52,45 -6,6 -13,11 -16,18 -14,25 4,64 25,80 38,30 123,34 166,9 18,-12 24,-26 24,-47 -2,-67 -42,-58 -53,-89 -4,-11 0,-26 -6,-37 -3,-6 -10,-11 -17,-13 -3,-1 -23,-6 -26,-3 -4,5 14,15 18,18 8,8 12,20 11,32"/>
  <path class="fil0 str0" d="M207 197c-1,3 -2,7 0,10 5,14 36,31 51,32"/>
  <path class="fil0 str0" d="M228 213c-1,8 14,9 18,4 12,-14 -18,-24 -18,-4z"/>
  <path class="fil0 str0" d="M221 201c-1,-1 -3,-1 -4,0 -2,1 -3,3 -2,5 2,1 5,1 7,-1 1,-1 0,-3 -1,-4"/>
 </g>
</svg>
