<?xml version="1.0" encoding="UTF-8"?>
<!DOCTYPE svg PUBLIC "-//W3C//DTD SVG 1.1//EN" "http://www.w3.org/Graphics/SVG/1.1/DTD/svg11.dtd">
<!-- Creator: CorelDRAW X8 -->
<svg xmlns="http://www.w3.org/2000/svg" xml:space="preserve" width="500px" height="500px" version="1.1" style="shape-rendering:geometricPrecision; text-rendering:geometricPrecision; image-rendering:optimizeQuality; fill-rule:evenodd; clip-rule:evenodd"
viewBox="0 0 500 500"
 xmlns:xlink="http://www.w3.org/1999/xlink">
 <defs>
  <style type="text/css">
   <![CDATA[
    .str0 {stroke:black;stroke-width:1.00006}
    .fil0 {fill:none;fill-rule:nonzero}
   ]]>
  </style>
 </defs>
 <g id="Layer_x0020_1">
  <metadata id="CorelCorpID_0Corel-Layer"/>
  <path class="fil0 str0" d="M376 74c-1,3 -1,6 1,8 2,3 6,4 9,5l30 3c3,1 6,1 9,4 4,5 -2,13 -8,14 -6,0 -12,-3 -18,-6 -17,-9 -35,-14 -54,-12 -19,3 -37,14 -44,32 -6,17 1,40 18,48 17,7 41,1 53,15 3,5 5,11 5,16 5,40 -22,77 -53,101 -13,10 -26,18 -41,22 -11,3 -24,4 -35,10 -15,8 -23,26 -21,43 2,14 12,28 6,42 -4,11 -18,16 -30,16 -27,1 -54,-17 -64,-43 -3,-6 -4,-14 -3,-21 1,-7 5,-14 8,-21 10,-21 19,-42 18,-65 -1,-23 -15,-46 -37,-51 -3,2 -1,7 1,9 3,2 6,3 9,5 5,4 6,11 7,18 2,15 3,30 -1,45 -7,22 -23,41 -28,64 -5,26 7,54 27,71 21,17 49,23 76,19 19,-3 39,-11 52,-26 13,-15 19,-37 11,-55 -2,-6 -6,-12 -5,-18 1,-6 7,-11 13,-13 6,-2 13,-2 20,-3 40,-4 70,-36 94,-68 12,-15 24,-32 24,-52 1,-18 -10,-35 -21,-51 -4,-7 -9,-15 -16,-21 -10,-9 -23,-15 -37,-16 -1,-3 2,-6 6,-6 3,0 6,1 8,3 15,9 30,18 47,18 26,0 48,-27 43,-52 -5,-25 -35,-42 -59,-33 -5,-3 -4,-11 0,-16 4,-4 10,-7 15,-10 4,-3 7,-6 9,-10 4,-6 3,-16 -6,-15 -6,1 -14,9 -18,13 -11,11 -18,25 -20,40z"/>
 </g>
</svg>
