<?xml version="1.0" encoding="UTF-8"?>
<!DOCTYPE svg PUBLIC "-//W3C//DTD SVG 1.1//EN" "http://www.w3.org/Graphics/SVG/1.1/DTD/svg11.dtd">
<!-- Creator: CorelDRAW X8 -->
<svg xmlns="http://www.w3.org/2000/svg" xml:space="preserve" width="500px" height="500px" version="1.1" style="shape-rendering:geometricPrecision; text-rendering:geometricPrecision; image-rendering:optimizeQuality; fill-rule:evenodd; clip-rule:evenodd"
viewBox="0 0 500 500"
 xmlns:xlink="http://www.w3.org/1999/xlink">
 <defs>
  <style type="text/css">
   <![CDATA[
    .str0 {stroke:black;stroke-width:0.750048}
    .fil0 {fill:none}
   ]]>
  </style>
 </defs>
 <g id="Layer_x0020_1">
  <metadata id="CorelCorpID_0Corel-Layer"/>
  <path class="fil0 str0" d="M281 140c-24,-2 -50,4 -72,-5 -12,-5 -23,-13 -33,-19 -13,-7 -14,-6 -27,-1 -14,7 -27,13 -41,20 -3,1 -8,3 -9,5 -2,3 0,7 6,9 13,5 28,4 42,6 15,1 30,6 38,17 -2,5 -3,8 -5,13 -11,-2 -22,2 -31,9 -7,1 -8,5 -13,0 -7,-5 -15,-8 -23,-6 4,10 28,6 14,16 -6,1 -13,4 -13,10 5,2 23,-8 25,-7 -14,13 -17,23 -17,27 3,1 12,-7 15,-16 4,-4 7,-1 7,2 -3,3 -6,11 -3,15 9,-4 3,-17 7,-26 4,-8 15,-9 24,-11 9,0 20,-6 20,-15 18,18 44,31 71,34 10,2 19,2 28,7 17,10 9,35 -13,28 -7,-2 -12,-8 -19,-11 -6,-2 -16,-1 -22,5 1,3 9,4 13,4 8,0 14,2 22,6 6,2 5,4 1,8 -12,9 -32,6 -42,18 3,3 6,2 9,0 12,-4 24,-9 36,-13 2,4 -1,10 -4,13 -3,4 -7,8 -10,12 -3,9 2,12 9,7 8,-8 3,-22 11,-31 3,5 -1,22 8,30 9,-2 4,-24 1,-30 0,-4 -1,-5 5,-8 10,-6 15,-18 13,-29 11,2 18,12 24,21 9,18 15,38 12,58 -3,18 -14,35 -28,47 -15,11 -35,16 -53,15 -13,-2 -25,-6 -38,-10 -34,-11 -70,-16 -106,-16 -18,1 -36,3 -49,15 43,-16 103,-5 153,9 28,6 55,14 83,12 28,-3 56,-15 70,-40 5,-10 8,-20 10,-32 5,-39 -2,-80 -21,-114 -3,-7 -8,-15 -7,-23 14,-1 33,14 50,11 7,0 14,-10 7,-15 -9,11 -27,12 -37,2 -8,-8 15,-12 22,-32 0,-9 -4,-8 -9,-3 -7,9 -13,17 -20,26 -8,-11 9,-28 2,-39 -11,10 -11,38 -19,40 4,-23 0,-28 -4,-31 -4,2 1,28 -2,29 -2,3 -16,-8 -19,-10 -16,-8 -33,-12 -49,-13l0 0z"/>
  <path class="fil0 str0" d="M154 129c2,0 5,-1 7,0 1,1 1,2 1,3 2,6 -2,12 -6,14 -6,2 -11,2 -16,1 -2,0 -2,0 -3,0 -2,-1 -2,-4 -2,-6 1,-6 0,-6 6,-8 4,-1 9,-3 13,-4z"/>
 </g>
</svg>
