<?xml version="1.0" encoding="UTF-8"?>
<!DOCTYPE svg PUBLIC "-//W3C//DTD SVG 1.1//EN" "http://www.w3.org/Graphics/SVG/1.1/DTD/svg11.dtd">
<!-- Creator: CorelDRAW X8 -->
<svg xmlns="http://www.w3.org/2000/svg" xml:space="preserve" width="500px" height="500px" version="1.1" style="shape-rendering:geometricPrecision; text-rendering:geometricPrecision; image-rendering:optimizeQuality; fill-rule:evenodd; clip-rule:evenodd"
viewBox="0 0 500 500"
 xmlns:xlink="http://www.w3.org/1999/xlink">
 <defs>
  <style type="text/css">
   <![CDATA[
    .str0 {stroke:black;stroke-width:0.750048}
    .fil0 {fill:none}
   ]]>
  </style>
 </defs>
 <g id="Layer_x0020_1">
  <metadata id="CorelCorpID_0Corel-Layer"/>
  <path class="fil0 str0" d="M150 129c17,-12 27,-32 46,-43 13,-7 28,-8 43,-8 32,0 64,1 96,5 8,1 18,2 27,6 14,4 26,15 37,24 12,11 25,22 30,37 3,11 1,21 0,32 -2,15 -6,29 -13,42 -22,39 -61,49 -60,51 4,0 5,7 7,10 3,5 7,6 13,7 13,5 22,19 20,33 1,2 11,-1 24,2 -10,9 -29,8 -35,-4 -2,0 4,19 4,28 0,3 0,5 0,8 -4,5 -9,0 -11,-6l-2 -26c-4,0 -4,22 -7,27 -3,8 -7,4 -7,-3 0,-16 4,-29 2,-29 -3,1 -8,17 -19,29 -3,-2 -2,-8 0,-13 2,-4 7,-8 9,-12 4,-9 -1,-21 -1,-28 -2,-7 -5,-15 -12,-15 -3,-1 -6,0 -9,0 -5,0 -9,-3 -14,-5 -10,-4 -22,-1 -34,-1 -11,0 -22,-1 -33,-2 -11,-1 -23,1 -31,8 5,7 18,2 26,8 6,5 6,14 3,22 -3,7 -7,13 -9,21 -2,6 -1,12 -2,18 -1,10 -7,19 -15,25 2,-13 5,-25 7,-38 -7,11 -15,23 -24,34 -3,-5 0,-13 4,-19 4,-5 9,-11 7,-18 -7,8 -13,17 -20,26 0,-15 13,-26 21,-39 4,-5 6,-11 5,-17 -2,-8 -11,-13 -19,-16 -8,9 -14,20 -16,33 -2,6 -3,12 -5,17 -3,5 -7,10 -11,14 -13,12 -30,19 -48,21 -2,1 -5,1 -8,-1 -1,-2 -2,-4 -3,-6 -9,-23 -8,-50 6,-69 9,-10 20,-18 31,-28 13,-12 25,-28 40,-41 20,-18 50,-27 78,-25 21,2 42,10 63,12 22,1 47,-6 56,-26 7,-14 2,-33 -3,-48 -2,-7 -4,-14 -9,-19 -6,-7 -13,-8 -21,-11 -18,-4 -36,-7 -54,-9 -18,-3 -37,-6 -56,-8 -18,-3 -39,-6 -54,6 -8,8 -14,19 -22,27 -8,8 -19,11 -30,14 -11,4 -22,8 -34,12 -4,2 -10,2 -13,-2 -2,-5 25,-10 28,-10 11,-4 23,-7 31,-14l0 0z"/>
  <path class="fil0 str0" d="M143 343c0,1 0,2 0,4 0,1 0,2 0,3 1,0 2,0 3,0 4,-1 10,-3 14,-5 2,-1 3,-1 4,-2 2,-1 2,-4 3,-6 1,-4 9,-29 -3,-20 -8,6 -15,19 -21,26z"/>
  <path class="fil0 str0" d="M116 318c-1,4 -2,7 -2,11 0,3 1,7 3,10 1,0 2,-1 3,-2 5,-5 9,-14 8,-22 -1,-3 -2,-8 -5,-8 -5,0 -6,8 -7,11l0 0z"/>
  <path class="fil0 str0" d="M152 331c-1,0 -1,-1 -2,-1 -1,4 -2,8 0,11 1,2 4,2 6,3 2,0 7,1 8,-2 1,-1 1,-3 1,-4 0,-2 0,-5 -2,-7 -1,-2 -6,-2 -9,-2 -3,0 -6,1 -6,3"/>
  <path class="fil0 str0" d="M124 321c-1,-2 -5,-3 -8,-1 -2,2 -3,5 -1,8 1,2 3,2 6,2 1,0 2,0 3,-1 2,-1 2,-3 2,-5 -1,-1 -3,-2 -3,-2"/>
  <path class="fil0 str0" d="M150 305c4,-14 13,-26 25,-35 29,-27 68,-41 108,-40 21,0 43,7 66,6 21,-1 45,-10 54,-30 7,-14 6,-29 2,-44 -3,-12 -6,-25 -13,-34 -10,-13 -24,-22 -39,-27 -16,-5 -31,-7 -48,-9 -29,-3 -58,-7 -87,-5"/>
  <path class="fil0 str0" d="M191 268c-2,2 -5,3 -8,5 0,1 -2,2 -2,3 -1,1 -1,2 0,4 0,0 1,0 2,1 2,1 5,1 7,0 3,0 6,0 8,-2 3,-2 5,-3 5,-7 0,-6 -7,-6 -12,-4z"/>
  <path class="fil0 str0" d="M218 252c-1,1 -2,3 -2,5 0,0 1,1 2,1 10,5 23,5 31,-2 0,-2 2,-3 2,-5 0,-1 -2,-3 -2,-4 -10,-3 -22,-1 -31,5z"/>
  <path class="fil0 str0" d="M283 241c-5,0 -9,2 -10,6 -1,3 1,5 3,7 2,2 5,2 7,3 6,0 11,1 15,0 5,-3 10,-11 5,-16 -4,-5 -15,-2 -20,0l0 0z"/>
  <path class="fil0 str0" d="M323 248c0,1 0,2 0,2 -1,1 0,2 0,3 1,4 6,6 12,7 4,1 9,0 11,-4 3,-6 1,-14 -5,-16 -5,-2 -14,4 -18,8l0 0z"/>
  <path class="fil0 str0" d="M386 237c0,0 0,-1 -1,-2 -1,0 -2,0 -3,0 -3,1 -6,2 -7,2 -1,1 -2,1 -3,2 0,2 1,4 3,4 2,2 6,3 9,3 1,-1 3,-1 3,-2 2,-1 2,-3 1,-4 -1,-2 -3,-3 -5,-3"/>
  <path class="fil0 str0" d="M204 228c-3,1 -7,2 -9,5 -1,1 -2,2 -2,4 -1,1 1,3 3,4 1,1 3,1 5,0 3,-1 6,-3 7,-5 2,-4 -1,-7 -5,-7"/>
  <path class="fil0 str0" d="M230 220c-1,1 -3,2 -3,4 0,3 3,4 6,4 8,1 16,0 23,-4 0,0 2,-1 2,-2 0,-6 -6,-8 -10,-8 -6,1 -12,3 -18,6l0 0z"/>
  <path class="fil0 str0" d="M289 222c0,3 20,12 20,3 1,-9 -20,-7 -20,-3z"/>
  <path class="fil0 str0" d="M362 222c-1,-1 -2,-2 -4,-2 -4,0 -9,0 -13,2 -2,0 -4,1 -4,3 0,2 2,3 3,3 3,2 6,2 10,2 2,0 3,-1 5,-2 2,-2 3,-5 1,-6"/>
  <path class="fil0 str0" d="M173 236c-3,-5 -4,-9 -9,-11 -4,-2 -10,-1 -11,4 -2,5 2,5 -7,11 -15,8 -32,7 -47,16 -3,2 -5,5 -5,7 11,0 19,-6 29,-9 0,0 3,0 3,2 -8,8 -20,4 -26,20 5,4 16,-10 29,-15 1,8 -13,10 -14,18 3,2 8,0 10,-2 9,-7 13,-19 24,-23 2,-2 7,-2 9,-1"/>
  <path class="fil0 str0" d="M302 131c-2,3 1,5 2,7 10,9 15,22 13,34 0,8 -6,3 -8,0 -7,-9 -14,-19 -22,-29 -10,-16 -22,-8 -15,0 9,12 36,27 30,34 -10,1 -24,-4 -31,-8 -9,-6 -21,-9 -31,-6 1,2 4,4 7,5 12,5 28,4 38,13 -13,3 -28,-2 -37,6 3,5 16,2 24,0 8,-2 28,-2 33,3 5,5 4,20 11,22 4,1 6,-2 6,-6 0,-5 -6,-7 -2,-13 9,-14 -3,-62 -18,-62z"/>
  <path class="fil0 str0" d="M136 356c-1,0 -2,0 -3,0 -1,1 1,5 3,5 2,0 4,-4 2,-5"/>
  <path class="fil0 str0" d="M117 350c-1,-1 -3,1 -1,3 0,2 3,2 5,1 1,-1 2,-2 1,-3 0,-1 -1,-1 -2,-1"/>
 </g>
</svg>
