<?xml version="1.0" encoding="UTF-8"?>
<!DOCTYPE svg PUBLIC "-//W3C//DTD SVG 1.1//EN" "http://www.w3.org/Graphics/SVG/1.1/DTD/svg11.dtd">
<!-- Creator: CorelDRAW X8 -->
<svg xmlns="http://www.w3.org/2000/svg" xml:space="preserve" width="500px" height="500px" version="1.1" style="shape-rendering:geometricPrecision; text-rendering:geometricPrecision; image-rendering:optimizeQuality; fill-rule:evenodd; clip-rule:evenodd"
viewBox="0 0 500 500"
 xmlns:xlink="http://www.w3.org/1999/xlink">
 <defs>
  <style type="text/css">
   <![CDATA[
    .str0 {stroke:black;stroke-width:1.00006}
    .fil0 {fill:none;fill-rule:nonzero}
   ]]>
  </style>
 </defs>
 <g id="Layer_x0020_1">
  <metadata id="CorelCorpID_0Corel-Layer"/>
  <g id="_1818553916128">
   <path class="fil0 str0" d="M377 196c-4,2 -7,-5 -11,-7 -2,-2 -4,-3 -7,-3 -27,-6 -55,-6 -82,1 -7,1 -14,3 -19,8 -5,6 -7,14 -8,21 -4,33 5,67 -8,97 -6,13 -15,24 -26,31 -12,7 -26,10 -39,7 -8,-2 -15,-5 -22,-9 -18,-10 -33,-27 -39,-47 -2,-5 -3,-10 -2,-15 0,-6 2,-12 4,-18 7,-15 16,-30 31,-40 23,-15 55,-11 80,2"/>
   <path class="fil0 str0" d="M376 201c18,2 29,24 22,41 -7,17 -27,25 -45,20 -9,-3 -18,-10 -27,-15 -8,-5 -19,-10 -29,-7 -15,3 -23,20 -26,35 -4,19 -3,38 -10,56 -13,37 -51,60 -90,67 -39,6 -84,-4 -108,-36 -14,-18 -19,-42 -18,-66 2,-23 11,-45 23,-65 13,-23 32,-44 55,-57 35,-19 82,-18 112,9"/>
   <path class="fil0 str0" d="M288 268c6,9 14,16 23,21 9,6 20,9 30,12 25,6 51,9 74,-3 18,-9 30,-27 41,-45 5,-8 10,-17 13,-27 6,-22 0,-46 -13,-64 -14,-18 -36,-29 -58,-32 -8,0 -17,0 -24,3 -6,3 -11,8 -15,13 -6,6 -10,13 -15,20"/>
   <path class="fil0 str0" d="M403 241c9,3 20,-2 23,-11 1,-3 2,-6 2,-9 0,-13 -1,-25 -6,-36 -5,-11 -14,-20 -26,-23 -3,-1 -6,-1 -9,-1 -8,2 -12,10 -16,17"/>
   <path class="fil0 str0" d="M312 303c-1,0 -1,-1 0,-1 1,0 1,1 1,1 -1,9 6,17 12,23 18,18 39,33 61,43 16,7 33,12 50,11 4,0 8,-2 9,-6 0,-2 -2,-4 -4,-5 -3,-1 -5,-1 -8,-1 -30,-1 -56,-19 -80,-37 -8,-6 -16,-14 -13,-23"/>
   <path class="fil0 str0" d="M340 234c5,1 10,2 15,3 5,1 11,2 16,4 2,0 3,1 4,2 1,3 -2,6 -5,7 -6,2 -13,3 -19,1 -6,-1 -13,-4 -18,-7 -3,-1 -14,-7 -13,-11 1,-4 17,0 20,1z"/>
   <path class="fil0 str0" d="M376 198c0,-2 -3,-2 -5,-2 -4,0 -8,0 -12,1 -2,0 -4,1 -5,2 0,2 1,3 2,4 1,0 3,0 4,0 6,0 12,0 17,-1 0,-1 0,-2 0,-3"/>
  </g>
 </g>
</svg>
