<?xml version="1.0" encoding="UTF-8"?>
<!DOCTYPE svg PUBLIC "-//W3C//DTD SVG 1.1//EN" "http://www.w3.org/Graphics/SVG/1.1/DTD/svg11.dtd">
<!-- Creator: CorelDRAW X8 -->
<svg xmlns="http://www.w3.org/2000/svg" xml:space="preserve" width="500px" height="500px" version="1.1" style="shape-rendering:geometricPrecision; text-rendering:geometricPrecision; image-rendering:optimizeQuality; fill-rule:evenodd; clip-rule:evenodd"
viewBox="0 0 500 500"
 xmlns:xlink="http://www.w3.org/1999/xlink">
 <defs>
  <style type="text/css">
   <![CDATA[
    .str0 {stroke:black;stroke-width:1.00006}
    .fil0 {fill:none;fill-rule:nonzero}
   ]]>
  </style>
 </defs>
 <g id="Layer_x0020_1">
  <metadata id="CorelCorpID_0Corel-Layer"/>
  <path class="fil0 str0" d="M223 41c-9,-1 -19,9 -23,17 -3,7 -7,18 3,22 6,3 12,5 18,4 11,0 19,-10 19,-20 1,-7 -10,-23 -17,-23z"/>
  <path class="fil0 str0" d="M214 59c-2,2 -3,4 -5,7 -3,5 -2,10 5,9 4,-1 8,-4 9,-8 1,-5 -2,-10 -6,-10"/>
  <path class="fil0 str0" d="M198 60c-10,8 -17,16 -23,27 0,-3 -3,-3 -5,-2 -8,4 -15,9 -21,16 9,-3 18,-6 27,-9 -6,5 -11,11 -15,18 11,-3 25,-23 38,-14 0,9 6,17 13,21 9,4 28,12 10,20 -35,15 -49,49 -47,85 2,47 25,125 74,143 14,5 46,4 61,-1 15,-5 27,-19 31,-34 6,5 5,15 3,24 -2,12 -5,25 -8,38 -12,51 -30,24 -44,27 -6,1 -8,10 -4,15 9,13 50,13 62,4 5,-5 8,-13 5,-19 25,28 40,-2 39,-30 0,-6 -2,-8 -8,-4 -47,33 -22,-30 -24,-48 -1,-6 -4,-11 -3,-17 1,-15 6,-23 6,-45 0,-16 -1,-33 -7,-48 -14,-34 -75,-68 -107,-90 -7,-4 -7,-8 -5,-16 4,-15 9,-59 -6,-69"/>
  <path class="fil0 str0" d="M238 141c-27,31 -55,47 -39,91 19,53 42,71 96,93 8,3 17,6 26,5"/>
  <path class="fil0 str0" d="M189 233c12,51 47,149 120,117"/>
  <path class="fil0 str0" d="M234 364c6,8 9,18 13,27 -10,-4 -34,10 -43,16 15,4 30,-10 44,-4 -7,5 -13,10 -18,16 12,-6 19,-10 32,-15 0,4 5,5 8,9 -2,-8 -8,-14 -14,-19 -5,-3 -6,-4 -6,-9 -1,-5 -1,-10 -2,-14"/>
 </g>
</svg>
