<?xml version="1.0" encoding="UTF-8"?>
<!DOCTYPE svg PUBLIC "-//W3C//DTD SVG 1.1//EN" "http://www.w3.org/Graphics/SVG/1.1/DTD/svg11.dtd">
<!-- Creator: CorelDRAW X8 -->
<svg xmlns="http://www.w3.org/2000/svg" xml:space="preserve" width="500px" height="500px" version="1.1" style="shape-rendering:geometricPrecision; text-rendering:geometricPrecision; image-rendering:optimizeQuality; fill-rule:evenodd; clip-rule:evenodd"
viewBox="0 0 500 500"
 xmlns:xlink="http://www.w3.org/1999/xlink">
 <defs>
  <style type="text/css">
   <![CDATA[
    .str0 {stroke:black;stroke-width:1.00006}
    .fil0 {fill:none;fill-rule:nonzero}
   ]]>
  </style>
 </defs>
 <g id="Layer_x0020_1">
  <metadata id="CorelCorpID_0Corel-Layer"/>
  <path class="fil0 str0" d="M427 46c-14,-8 -33,1 -47,9 -19,11 -22,21 -4,34 7,5 13,11 17,19 9,15 5,29 -13,31 -36,4 -74,1 -105,18 -44,-39 -19,-77 -39,-107 -12,-20 -39,-24 -62,-23 -46,2 -92,15 -132,38 -10,6 -20,12 -25,22 27,-13 55,-23 84,-30 -33,13 -65,31 -94,53 4,5 12,3 18,1 27,-10 53,-19 80,-29 -28,13 -55,28 -82,45 28,-2 53,-12 78,-22 -15,7 -30,17 -44,28 25,-5 50,-9 75,-14 7,-2 10,0 13,6 16,35 33,70 49,106 -14,2 -28,7 -40,16l35 -5c-7,5 -15,10 -22,15 7,0 14,-1 21,-2l-3 12c23,5 48,5 71,1 -15,21 -19,29 -21,54l-6 75"/>
  <path class="fil0 str0" d="M279 270c13,-9 28,-15 43,-21 19,-8 39,-16 55,-29 15,-12 26,-29 35,-46 8,-14 14,-30 11,-46 -3,-18 -17,-33 -34,-43 -5,-3 -11,-11 -2,-14 7,-2 14,1 21,2 7,1 16,-1 19,-7 2,-4 2,-6 7,-5 19,4 54,10 57,10 -18,-15 -55,-9 -62,-16 -2,-2 -2,-4 -1,-6"/>
  <path class="fil0 str0" d="M278 271c-20,12 -40,23 -60,35 -32,18 99,36 122,80"/>
  <path class="fil0 str0" d="M418 55c-1,-1 -2,-2 -2,-3 -5,-3 -12,-2 -15,4 -2,5 2,12 8,11 6,0 10,-7 6,-12"/>
 </g>
</svg>
