<?xml version="1.0" encoding="UTF-8"?>
<!DOCTYPE svg PUBLIC "-//W3C//DTD SVG 1.1//EN" "http://www.w3.org/Graphics/SVG/1.1/DTD/svg11.dtd">
<!-- Creator: CorelDRAW X8 -->
<svg xmlns="http://www.w3.org/2000/svg" xml:space="preserve" width="500px" height="500px" version="1.1" style="shape-rendering:geometricPrecision; text-rendering:geometricPrecision; image-rendering:optimizeQuality; fill-rule:evenodd; clip-rule:evenodd"
viewBox="0 0 500 500"
 xmlns:xlink="http://www.w3.org/1999/xlink">
 <defs>
  <style type="text/css">
   <![CDATA[
    .str0 {stroke:black;stroke-width:1.00006}
    .fil0 {fill:none;fill-rule:nonzero}
   ]]>
  </style>
 </defs>
 <g id="Layer_x0020_1">
  <metadata id="CorelCorpID_0Corel-Layer"/>
  <path class="fil0 str0" d="M424 88c-3,-16 -24,-22 -39,-16 -15,6 -26,20 -35,33 -11,15 -4,19 10,27 20,10 35,40 3,44 -30,3 -45,-17 -85,7 -7,-28 -20,-97 -34,-120 -10,-17 -22,-22 -40,-21 -65,3 -129,6 -194,8 0,4 3,7 6,8 11,4 48,-3 76,4 -24,4 -48,12 -69,23 9,3 19,1 29,0 23,-3 46,-6 69,-9 -24,10 -49,20 -73,29 -19,8 -17,21 7,12 18,-6 36,-13 54,-19 -21,10 -43,19 -61,34 -8,7 -4,13 6,10 15,-5 31,-9 46,-14 -18,12 -36,24 -52,40 29,-7 59,-10 88,-8 9,1 11,3 17,9 21,28 39,59 52,91 -22,1 -44,6 -64,14 15,0 30,0 45,-1 -6,5 -13,10 -20,15 10,-2 19,-3 28,-5 0,3 0,6 0,9 24,-1 49,-4 73,-7 6,12 -11,19 -19,23 -52,21 -30,63 -59,105"/>
  <path class="fil0 str0" d="M317 275c-5,12 -11,24 -19,34 -12,17 -28,31 -32,51 -1,3 -1,5 -3,7 -1,1 -4,2 -6,3 -8,4 -11,13 -14,22 -4,13 -8,27 -12,41"/>
  <path class="fil0 str0" d="M325 291c13,-9 31,-11 43,-21 9,-7 14,-17 19,-26 8,-17 15,-36 12,-54 -1,-6 -3,-13 -1,-19 0,-3 2,-6 3,-8 5,-16 -9,-32 -24,-39 -3,-2 -6,-3 -8,-6 -5,-6 -1,-15 5,-19 7,-3 15,-3 22,-2 3,6 11,8 18,8 6,0 13,-3 20,-4 18,-2 36,8 53,5 -9,-5 -22,-5 -33,-6 -10,-1 -20,-3 -30,-6"/>
  <path class="fil0 str0" d="M414 84c-2,-6 -12,-2 -9,5 3,6 12,7 15,1 1,-3 -1,-6 -4,-7"/>
 </g>
</svg>
