<?xml version="1.0" encoding="UTF-8"?>
<!DOCTYPE svg PUBLIC "-//W3C//DTD SVG 1.1//EN" "http://www.w3.org/Graphics/SVG/1.1/DTD/svg11.dtd">
<!-- Creator: CorelDRAW X8 -->
<svg xmlns="http://www.w3.org/2000/svg" xml:space="preserve" width="500px" height="500px" version="1.1" style="shape-rendering:geometricPrecision; text-rendering:geometricPrecision; image-rendering:optimizeQuality; fill-rule:evenodd; clip-rule:evenodd"
viewBox="0 0 500 500"
 xmlns:xlink="http://www.w3.org/1999/xlink">
 <defs>
  <style type="text/css">
   <![CDATA[
    .str0 {stroke:black;stroke-width:1.00006}
    .fil0 {fill:none;fill-rule:nonzero}
   ]]>
  </style>
 </defs>
 <g id="Layer_x0020_1">
  <metadata id="CorelCorpID_0Corel-Layer"/>
  <path class="fil0 str0" d="M357 11c-10,-7 -25,-4 -37,0"/>
  <path class="fil0 str0" d="M318 12c-11,5 -15,18 -14,30 2,22 23,43 18,66 -4,18 -31,39 -45,51 -27,25 -28,19 -59,27 -32,8 -53,38 -66,68 -14,29 -23,19 -36,38 -16,25 -23,55 -21,84 2,-11 9,-22 20,-29 2,18 2,37 -1,54 9,-27 18,-54 32,-80 -1,17 -2,33 -2,50 -1,5 1,12 6,12 2,-3 27,-50 31,-36 1,-7 2,-12 3,-19 20,5 42,2 64,0 11,-2 23,-3 33,-9 15,-9 23,-27 30,-43 12,-29 43,-107 42,-138 0,-28 -19,-51 -26,-78 -3,-13 6,-16 17,-19 8,-2 16,-8 14,-15 17,-1 36,0 51,0 -1,0 -36,-3 -52,-9"/>
  <path class="fil0 str0" d="M279 319c-12,51 -25,102 -38,153"/>
  <path class="fil0 str0" d="M257 319c-11,20 -27,36 -42,53 -7,7 -7,11 -5,21 4,22 7,44 8,66"/>
  <path class="fil0 str0" d="M240 471c20,-1 40,-4 60,-7"/>
  <path class="fil0 str0" d="M240 473c9,6 18,12 27,17"/>
  <path class="fil0 str0" d="M219 460c6,-2 12,-4 17,-6"/>
  <path class="fil0 str0" d="M345 15c-5,0 -11,2 -15,6 -4,4 -1,8 4,9 4,1 8,0 12,-2 2,-1 2,-2 1,-4 -2,-2 -5,-4 -8,-5"/>
 </g>
</svg>
