<?xml version="1.0" encoding="UTF-8"?>
<!DOCTYPE svg PUBLIC "-//W3C//DTD SVG 1.1//EN" "http://www.w3.org/Graphics/SVG/1.1/DTD/svg11.dtd">
<!-- Creator: CorelDRAW X8 -->
<svg xmlns="http://www.w3.org/2000/svg" xml:space="preserve" width="500px" height="500px" version="1.1" style="shape-rendering:geometricPrecision; text-rendering:geometricPrecision; image-rendering:optimizeQuality; fill-rule:evenodd; clip-rule:evenodd"
viewBox="0 0 500 500"
 xmlns:xlink="http://www.w3.org/1999/xlink">
 <defs>
  <style type="text/css">
   <![CDATA[
    .str0 {stroke:black;stroke-width:1.00006}
    .fil0 {fill:none;fill-rule:nonzero}
   ]]>
  </style>
 </defs>
 <g id="Layer_x0020_1">
  <metadata id="CorelCorpID_0Corel-Layer"/>
  <path class="fil0 str0" d="M297 119c14,2 16,19 16,31 22,9 44,21 63,36 -11,-7 -39,-17 -60,-25 -4,-1 -5,-1 -9,1 -11,5 -22,9 -33,14 -2,1 -2,2 0,4 10,10 26,12 35,23 10,12 11,42 6,56 -6,17 -23,28 -40,34 -16,6 -34,8 -51,10 -25,3 -51,7 -76,6 -10,0 -21,-1 -28,-8 17,-12 25,-32 36,-50 19,-27 46,-47 74,-65 8,-6 17,-12 27,-13 6,-1 8,-3 9,-10 1,-9 -1,-25 5,-33 5,-9 16,-11 26,-11z"/>
  <path class="fil0 str0" d="M297 139c2,-1 3,-2 4,-2 -4,-2 -7,-3 -11,-2 -3,0 -7,3 -7,6 -1,5 4,9 8,10 12,3 14,-6 8,-15"/>
  <path class="fil0 str0" d="M120 303c7,8 18,12 29,15 22,6 45,7 67,4 7,-1 14,-2 21,-1 0,-2 2,-3 2,-5 1,2 2,4 4,6 -4,5 -4,11 -5,17 -1,15 -3,29 -6,44"/>
  <path class="fil0 str0" d="M212 303c-4,22 -8,43 -11,65"/>
  <path class="fil0 str0" d="M231 383c15,2 29,4 44,7"/>
  <path class="fil0 str0" d="M240 375c15,-3 29,-6 44,-9 1,0 1,0 1,0"/>
  <path class="fil0 str0" d="M240 367c3,-2 6,-3 9,-4 9,-4 18,-8 27,-12"/>
  <path class="fil0 str0" d="M249 318c8,-4 17,-8 25,-13 2,-2 5,-4 5,-8"/>
  <path class="fil0 str0" d="M201 371c1,-2 3,-3 5,-3 9,-2 18,-5 27,-10"/>
  <path class="fil0 str0" d="M198 366c9,-6 17,-13 23,-22"/>
 </g>
</svg>
