<?xml version="1.0" encoding="UTF-8"?>
<!DOCTYPE svg PUBLIC "-//W3C//DTD SVG 1.1//EN" "http://www.w3.org/Graphics/SVG/1.1/DTD/svg11.dtd">
<!-- Creator: CorelDRAW X8 -->
<svg xmlns="http://www.w3.org/2000/svg" xml:space="preserve" width="500px" height="500px" version="1.1" style="shape-rendering:geometricPrecision; text-rendering:geometricPrecision; image-rendering:optimizeQuality; fill-rule:evenodd; clip-rule:evenodd"
viewBox="0 0 500 500"
 xmlns:xlink="http://www.w3.org/1999/xlink">
 <defs>
  <style type="text/css">
   <![CDATA[
    .str0 {stroke:black;stroke-width:1.00006}
    .fil0 {fill:none;fill-rule:nonzero}
   ]]>
  </style>
 </defs>
 <g id="Layer_x0020_1">
  <metadata id="CorelCorpID_0Corel-Layer"/>
  <path class="fil0 str0" d="M294 135c-14,4 -25,15 -30,28 -18,6 -34,16 -47,30 -1,2 -3,3 -4,4 -3,2 -6,3 -9,4 -11,4 -18,13 -28,19 -9,4 -22,7 -24,17 11,-2 23,-5 34,-8 -6,3 -10,9 -12,16 -2,6 -2,7 -6,12 -7,8 -14,15 -22,21 -5,5 -10,8 -15,13 -6,7 -11,16 -14,24 -7,14 -12,29 -16,44 10,-9 17,-21 25,-33 13,-22 30,-42 48,-60 1,10 25,-4 28,-7 0,5 6,8 11,10 13,3 27,6 40,7 13,0 27,-2 39,-10 12,-8 21,-21 26,-36 5,-14 7,-29 8,-44 15,0 17,-18 17,-29 6,2 12,4 17,8 1,-4 -2,-9 -6,-11 -4,-2 -8,-2 -12,-4 -8,-5 -8,-12 -18,-15 -10,-3 -20,-4 -30,0z"/>
  <path class="fil0 str0" d="M313 152c1,-1 0,-2 -1,-2 -7,-1 -15,4 -16,11 0,3 1,4 3,6 4,2 9,3 13,2 5,-1 10,-4 9,-10 -1,-4 -6,-6 -10,-7"/>
  <path class="fil0 str0" d="M268 292c5,8 3,19 -4,26 3,-1 6,-2 9,-4 2,-2 4,-5 4,-8 0,-6 -7,-9 -11,-13 11,-2 21,5 29,13 1,2 3,4 5,2 0,-1 1,-2 0,-2 0,-7 -4,-13 -10,-16 -6,-4 -13,-4 -20,-3 0,-4 -2,-8 -5,-10 -3,-3 -6,-5 -10,-6 -10,-5 -16,-1 -5,5 7,4 15,8 18,16z"/>
  <path class="fil0 str0" d="M299 271c6,-4 23,-10 30,-4 3,3 4,8 2,12 -1,4 -4,7 -8,7 1,-5 -1,-12 -1,-12 0,-1 -1,3 -3,6 -1,4 -2,7 -5,8 -2,-3 -2,-7 -2,-11 0,-2 -2,-3 -4,-3 -2,1 -3,2 -4,3 -5,5 -7,3 -12,-1 -6,-5 -9,-3 -15,-5 -6,-1 -9,-8 3,-7 3,0 19,7 19,7z"/>
  <path class="fil0 str0" d="M278 161c-9,4 -15,15 -3,18 3,1 7,1 10,1 10,-2 56,-9 52,-24 -6,-18 -48,0 -59,5z"/>
  <path class="fil0 str0" d="M291 194c2,-1 4,-1 5,0 2,0 3,2 4,3 2,4 4,8 6,13 -6,2 -10,7 -12,12 -2,2 -3,5 -5,7 -2,1 -5,2 -7,2 -29,3 -57,14 -86,21 -7,1 -16,3 -22,-2 5,-8 11,-15 16,-23 1,-1 1,-2 1,-3 0,-2 -3,-3 -6,-2 -2,1 -5,2 -7,1 -1,-1 20,-13 22,-14 8,-3 18,-2 26,-3 22,-3 44,-7 65,-12z"/>
 </g>
</svg>
