<?xml version="1.0" encoding="UTF-8"?>
<!DOCTYPE svg PUBLIC "-//W3C//DTD SVG 1.1//EN" "http://www.w3.org/Graphics/SVG/1.1/DTD/svg11.dtd">
<!-- Creator: CorelDRAW X8 -->
<svg xmlns="http://www.w3.org/2000/svg" xml:space="preserve" width="500px" height="500px" version="1.1" style="shape-rendering:geometricPrecision; text-rendering:geometricPrecision; image-rendering:optimizeQuality; fill-rule:evenodd; clip-rule:evenodd"
viewBox="0 0 500 500"
 xmlns:xlink="http://www.w3.org/1999/xlink">
 <defs>
  <style type="text/css">
   <![CDATA[
    .str0 {stroke:black;stroke-width:0.750048}
    .fil0 {fill:none}
   ]]>
  </style>
 </defs>
 <g id="Layer_x0020_1">
  <metadata id="CorelCorpID_0Corel-Layer"/>
  <path class="fil0 str0" d="M186 115c-6,4 -12,16 -10,25 -1,1 -25,8 -24,9 -16,7 -2,16 -1,7 0,-1 32,-6 39,-3 2,-4 -13,-24 0,-29 15,-8 34,-5 48,4 -1,8 -46,-4 -44,30 0,0 -14,0 -14,0 -4,7 22,8 26,9 3,0 8,3 7,6 -15,5 -52,28 -65,51 -6,14 -6,30 -2,41 5,12 17,21 30,28 42,22 119,15 154,4 19,-5 39,-13 59,-16 -6,-8 -14,-6 -14,-8 -1,-1 12,-5 14,-3 -4,-14 -42,-38 -63,-44 -48,-15 -88,-21 -116,-25 -23,-2 34,-42 39,-51 14,-25 -5,-38 -29,-38 -1,0 -24,-4 -34,3l0 0z"/>
  <path class="fil0 str0" d="M199 128c0,-1 -3,-2 -3,-2 -4,0 -5,4 -2,7 5,3 9,-2 7,-5"/>
  <path class="fil0 str0" d="M245 289c0,-1 -12,51 -13,51 -1,-1 -34,-7 -45,-6 -1,2 22,6 21,7 1,2 -36,16 -35,17 9,6 21,-5 30,-1 1,2 -17,13 -16,15 0,1 47,-21 49,-23 8,-6 15,-48 20,-58"/>
  <path class="fil0 str0" d="M285 293c0,0 16,30 13,43 -3,10 -43,30 -43,30 -1,-1 4,-7 6,-8 0,-1 16,-8 6,-11 -5,-2 -37,0 12,-13 -4,-4 -11,-2 -14,-7 0,-1 19,-5 19,-6 6,-2 -1,-19 -1,-21"/>
 </g>
</svg>
