<?xml version="1.0" encoding="UTF-8"?>
<!DOCTYPE svg PUBLIC "-//W3C//DTD SVG 1.1//EN" "http://www.w3.org/Graphics/SVG/1.1/DTD/svg11.dtd">
<!-- Creator: CorelDRAW X8 -->
<svg xmlns="http://www.w3.org/2000/svg" xml:space="preserve" width="500px" height="500px" version="1.1" style="shape-rendering:geometricPrecision; text-rendering:geometricPrecision; image-rendering:optimizeQuality; fill-rule:evenodd; clip-rule:evenodd"
viewBox="0 0 500 500"
 xmlns:xlink="http://www.w3.org/1999/xlink">
 <defs>
  <style type="text/css">
   <![CDATA[
    .str0 {stroke:black;stroke-width:0.750048}
    .fil0 {fill:none}
   ]]>
  </style>
 </defs>
 <g id="Layer_x0020_1">
  <metadata id="CorelCorpID_0Corel-Layer"/>
  <path class="fil0 str0" d="M158 74c-28,16 -31,87 -17,114 10,19 33,47 66,74 10,11 12,15 11,30 -1,-1 -9,84 -9,84 0,5 -1,6 -6,6 -21,1 -42,6 -61,15 17,0 35,-1 52,-3 7,-3 16,-3 20,3 10,-5 25,-2 33,7 2,-4 2,-7 4,-10 -9,-3 -17,-5 -24,-7 -9,-32 -8,-65 4,-95 43,16 57,-8 72,11 14,20 26,42 40,62 15,19 33,37 54,47 -2,-12 -6,-22 -15,-30 10,-6 25,5 31,-5 5,-8 -10,-21 -9,-25 8,2 12,-5 13,-10 1,-24 -30,-31 -69,-60 -5,-3 -6,-5 -4,-10 7,-10 16,-18 28,-23 5,0 20,-7 20,-15 3,-26 -102,-74 -122,-81 -19,-8 -25,-8 -36,-15 -18,-13 -16,-30 -30,-52 -15,-22 -31,-21 -46,-12l0 0z"/>
  <path class="fil0 str0" d="M251 300c-3,3 11,33 17,36 -2,2 -19,-5 -28,1 -9,6 13,10 12,21 -4,8 12,26 11,32 -9,-7 -48,-15 -59,-2"/>
  <path class="fil0 str0" d="M138 108c-1,7 4,13 8,16 3,-5 2,-14 -2,-19 -1,-1 -6,-3 -6,0 5,-4 12,-6 19,-6 -2,-3 -1,-7 1,-9 6,-5 31,-10 37,-4 4,4 4,16 0,21 -5,4 -17,8 -24,5 -8,-1 -11,-5 -12,-13"/>
  <path class="fil0 str0" d="M178 89c0,-2 -1,-3 -3,-3 -5,1 -11,7 -9,13 1,5 9,6 15,6 1,0 2,-1 4,-1 3,-1 2,-7 1,-9 -3,-5 -5,-8 -8,-11"/>
 </g>
</svg>
