<?xml version="1.0" encoding="UTF-8"?>
<!DOCTYPE svg PUBLIC "-//W3C//DTD SVG 1.1//EN" "http://www.w3.org/Graphics/SVG/1.1/DTD/svg11.dtd">
<!-- Creator: CorelDRAW X8 -->
<svg xmlns="http://www.w3.org/2000/svg" xml:space="preserve" width="500px" height="500px" version="1.1" style="shape-rendering:geometricPrecision; text-rendering:geometricPrecision; image-rendering:optimizeQuality; fill-rule:evenodd; clip-rule:evenodd"
viewBox="0 0 500 500"
 xmlns:xlink="http://www.w3.org/1999/xlink">
 <defs>
  <style type="text/css">
   <![CDATA[
    .str0 {stroke:black;stroke-width:1.00006}
    .fil0 {fill:none;fill-rule:nonzero}
   ]]>
  </style>
 </defs>
 <g id="Layer_x0020_1">
  <metadata id="CorelCorpID_0Corel-Layer"/>
  <g id="_1909601416320">
   <path class="fil0 str0" d="M170 152c-9,3 -18,7 -25,14 -7,6 -11,16 -11,25 0,3 1,6 0,9 -1,3 -2,5 -4,7 -15,19 -29,39 -36,63 2,1 4,2 6,3 -2,-11 5,-22 12,-30 7,-10 15,-19 24,-28 2,-2 4,-4 7,-5 2,-1 5,-1 8,-1 4,1 9,1 13,1 2,0 4,0 6,2 2,0 3,2 4,3 8,12 16,23 23,35 8,13 16,27 30,34 12,7 26,6 40,5 12,-2 24,-4 35,-8 19,-8 34,-23 45,-41 10,-17 16,-37 19,-57 2,-12 2,-23 2,-35 0,-9 -1,-18 1,-27 1,-7 4,-15 0,-22 -7,3 -10,12 -13,20 -2,7 -7,15 -12,21 -1,1 -16,-2 -19,-2 -6,0 -13,0 -20,0 -13,0 -26,2 -40,4 -13,2 -26,5 -39,9 -7,2 -25,13 -32,10 -3,-2 -3,-6 -6,-8 -5,-4 -13,-2 -18,-1z"/>
   <path class="fil0 str0" d="M162 178c-4,-1 -8,0 -11,2 -3,2 -5,5 -6,9 0,2 1,4 1,5 1,1 2,2 3,3 3,2 8,3 12,1 4,-1 7,-5 7,-9 0,-4 -3,-9 -7,-9"/>
   <path class="fil0 str0" d="M266 275c10,5 21,12 22,23 0,3 -1,6 -2,10 -4,16 -8,32 -12,48 -26,-7 -54,-8 -80,-3"/>
   <path class="fil0 str0" d="M262 361c-3,-1 -6,0 -8,1 -15,7 -29,13 -43,19"/>
   <path class="fil0 str0" d="M246 384c0,-1 1,-2 2,-2 9,-7 18,-14 27,-21 1,-1 1,-1 2,-2 1,0 1,0 2,1 8,1 15,2 23,3"/>
   <path class="fil0 str0" d="M325 243c6,1 12,2 18,3 2,1 5,2 7,4 1,2 1,4 0,6 -2,23 -6,45 -10,67 -1,5 -2,9 -4,13 -7,9 -23,8 -30,18"/>
   <path class="fil0 str0" d="M341 337c1,1 1,0 1,0 -1,0 -1,0 -1,0 -6,8 -11,17 -15,26 -1,3 -3,6 -5,9"/>
   <path class="fil0 str0" d="M351 326c2,16 5,32 -2,47"/>
   <path class="fil0 str0" d="M100 274c13,-25 34,-45 55,-64"/>
   <path class="fil0 str0" d="M159 186c-2,-2 -5,-3 -8,-2 -2,1 -4,4 -4,7 1,3 5,4 8,3 2,0 4,-1 4,-3 1,-2 0,-4 -2,-4"/>
   <path class="fil0 str0" d="M180 171c6,0 12,0 17,2"/>
   <path class="fil0 str0" d="M183 186c7,4 13,8 20,12"/>
   <path class="fil0 str0" d="M200 216c0,0 0,-1 -1,-1 5,4 10,7 15,11"/>
   <path class="fil0 str0" d="M206 189c1,-1 2,0 3,0 5,4 10,7 15,10"/>
   <line class="fil0 str0" x1="221" y1="172" x2="249" y2= "171" />
   <path class="fil0 str0" d="M237 209c-1,0 -2,0 -2,0 7,1 15,2 22,5"/>
   <path class="fil0 str0" d="M246 189c9,0 17,0 25,1"/>
   <path class="fil0 str0" d="M263 160c9,0 17,-2 25,-4"/>
   <path class="fil0 str0" d="M287 174c10,0 20,-1 31,-1"/>
   <path class="fil0 str0" d="M274 197c5,0 10,0 15,0 2,1 4,1 6,1"/>
   <path class="fil0 str0" d="M249 226c8,0 16,2 22,6"/>
   <path class="fil0 str0" d="M283 219c0,0 0,0 0,-1 0,0 0,0 1,0 9,0 18,1 27,1"/>
   <path class="fil0 str0" d="M315 200c2,0 4,0 6,0 3,-1 5,-1 8,-2 3,0 7,-1 10,-2"/>
   <path class="fil0 str0" d="M328 176c6,-1 12,-3 18,-4"/>
   <path class="fil0 str0" d="M324 158c0,-1 1,-1 2,-1 6,-1 12,-1 19,-2"/>
  </g>
 </g>
</svg>
