<?xml version="1.0" encoding="UTF-8"?>
<!DOCTYPE svg PUBLIC "-//W3C//DTD SVG 1.1//EN" "http://www.w3.org/Graphics/SVG/1.1/DTD/svg11.dtd">
<!-- Creator: CorelDRAW X8 -->
<svg xmlns="http://www.w3.org/2000/svg" xml:space="preserve" width="500px" height="500px" version="1.1" style="shape-rendering:geometricPrecision; text-rendering:geometricPrecision; image-rendering:optimizeQuality; fill-rule:evenodd; clip-rule:evenodd"
viewBox="0 0 500 500"
 xmlns:xlink="http://www.w3.org/1999/xlink">
 <defs>
  <style type="text/css">
   <![CDATA[
    .str0 {stroke:black;stroke-width:1.00006}
    .fil0 {fill:none;fill-rule:nonzero}
   ]]>
  </style>
 </defs>
 <g id="Layer_x0020_1">
  <metadata id="CorelCorpID_0Corel-Layer"/>
  <g id="_1909842340688">
   <path class="fil0 str0" d="M272 119c12,13 21,28 28,44 -13,-15 -35,-21 -55,-22 17,4 32,13 44,24 -17,-6 -37,-12 -55,-6 11,9 30,7 39,19 -3,3 -8,3 -12,4 -4,1 -9,4 -8,8 -5,-7 -13,-10 -20,-14 -12,-5 -24,-11 -37,-11 -20,0 -38,13 -51,28 -6,-2 -12,-3 -18,-4 -3,3 1,8 4,10 9,5 18,11 28,17 -18,-6 -38,-2 -53,10 17,1 34,-7 49,-1 -17,2 -35,7 -52,13 17,-1 34,-1 50,-2 1,9 2,18 7,25 2,4 6,7 10,10 8,7 15,14 23,21 7,6 14,12 22,16 17,8 38,5 56,-3 6,-3 12,-6 17,-11 5,-4 8,-10 12,-15 5,-9 11,-17 15,-27 3,-7 5,-15 7,-23l6 -23c14,0 28,0 42,0 -14,-6 -30,-9 -45,-9 19,-4 39,-2 57,3 -10,-5 -22,-9 -34,-11 -4,-1 -9,-1 -13,-4 -4,-3 -7,-7 -9,-11 -6,-12 -13,-24 -22,-33 -5,-5 -10,-9 -15,-13 -3,-3 -15,-6 -17,-9z"/>
   <path class="fil0 str0" d="M285 181c-3,2 -7,5 -8,8 -1,5 1,9 5,12 3,2 8,3 12,4 4,1 9,1 12,-1 7,-5 5,-14 0,-19 -5,-6 -14,-7 -21,-4z"/>
   <path class="fil0 str0" d="M172 210c1,0 2,-2 1,-3 -1,0 -2,1 -3,2 -1,1 -2,2 -3,2 6,4 13,7 20,10 -6,1 -12,2 -17,5 3,2 1,7 0,10 -1,5 2,10 5,15 7,9 17,15 29,19 11,3 23,4 34,4 15,1 30,0 45,-1 -22,2 -44,8 -64,16 20,6 41,1 62,-3"/>
   <path class="fil0 str0" d="M199 302c2,-2 4,-4 5,-5 -3,2 0,7 3,10 19,21 41,38 66,50 -11,-5 -24,-5 -35,-2 2,4 7,4 10,4 4,-1 8,-2 12,-1 2,0 4,1 6,2 12,5 24,10 36,15 -5,-8 -14,-15 -24,-16 7,0 13,-1 19,1 6,2 12,7 13,13 1,-8 -7,-13 -14,-16 -7,-2 -15,-2 -22,-6 -3,-2 -6,-5 -9,-8 -13,-11 -33,-16 -43,-31"/>
   <path class="fil0 str0" d="M268 307c-1,-1 -3,-3 -5,-5 13,10 25,21 36,33 4,-2 9,-1 14,1l25 9"/>
   <path class="fil0 str0" d="M300 339c2,-1 3,0 5,1 8,5 17,11 24,18 -1,0 -3,-1 -4,-1"/>
   <path class="fil0 str0" d="M296 337c0,0 0,-1 0,-1 2,4 4,9 6,14"/>
  </g>
 </g>
</svg>
