<?xml version="1.0" encoding="UTF-8"?>
<!DOCTYPE svg PUBLIC "-//W3C//DTD SVG 1.1//EN" "http://www.w3.org/Graphics/SVG/1.1/DTD/svg11.dtd">
<!-- Creator: CorelDRAW X8 -->
<svg xmlns="http://www.w3.org/2000/svg" xml:space="preserve" width="500px" height="500px" version="1.1" style="shape-rendering:geometricPrecision; text-rendering:geometricPrecision; image-rendering:optimizeQuality; fill-rule:evenodd; clip-rule:evenodd"
viewBox="0 0 500 500"
 xmlns:xlink="http://www.w3.org/1999/xlink">
 <defs>
  <style type="text/css">
   <![CDATA[
    .str0 {stroke:black;stroke-width:1.00006}
    .fil0 {fill:none;fill-rule:nonzero}
   ]]>
  </style>
 </defs>
 <g id="Layer_x0020_1">
  <metadata id="CorelCorpID_0Corel-Layer"/>
  <g id="_1909841735232">
   <path class="fil0 str0" d="M258 196c-5,-12 -17,-21 -30,-22 -1,0 -2,0 -3,0 -1,-1 -2,-2 -3,-3 -6,-9 -13,-17 -19,-26 2,9 5,18 10,26 3,5 6,9 7,15 1,5 -1,11 -3,16 0,1 -1,2 -1,2 -2,1 -3,0 -4,-2 -8,-9 -19,-18 -31,-20 13,8 24,19 34,31 1,1 1,2 1,4 0,0 0,1 0,2 -4,8 -12,13 -15,20 -3,8 -1,16 2,23 8,16 22,29 35,41 2,3 5,5 6,9 2,3 3,7 1,10 -1,4 -5,6 -8,8 -4,4 -8,8 -12,12 -5,6 -10,12 -15,18"/>
   <path class="fil0 str0" d="M257 197c2,4 2,10 -1,14 10,4 19,11 24,20 6,9 10,19 12,29 2,6 3,12 2,18 -1,1 -1,3 -1,4 1,3 3,4 5,6 3,3 4,9 1,13 8,3 14,8 20,13 6,5 11,10 17,15 7,6 14,13 17,21 -12,-10 -25,-17 -40,-23 -7,-3 -16,-5 -23,-10 2,9 10,14 17,19 7,6 12,14 16,22 -3,2 -7,-1 -10,-3 -7,-7 -14,-14 -21,-21 -1,-1 -3,-2 -4,-2 -2,0 -3,0 -4,0 -1,0 -2,0 -3,-1 -18,-7 -33,-21 -47,-36 -6,-7 -12,-15 -16,-23 -4,-9 -7,-18 -6,-28 2,-9 7,-17 11,-25"/>
   <path class="fil0 str0" d="M228 187c-1,-1 -5,0 -5,2 -1,3 0,5 2,7 3,1 5,1 8,1 0,-1 1,-1 2,-1 0,-1 0,-1 0,-2 0,-2 -1,-5 -2,-6 -2,-1 -5,-2 -6,0"/>
   <path class="fil0 str0" d="M276 318c-1,0 1,0 0,0 0,-1 0,-1 -1,-1 -5,1 -10,2 -15,3 -15,2 -31,4 -46,9 -1,1 -3,2 -4,3 -1,1 -2,4 0,5"/>
  </g>
 </g>
</svg>
