<?xml version="1.0" encoding="UTF-8"?>
<!DOCTYPE svg PUBLIC "-//W3C//DTD SVG 1.1//EN" "http://www.w3.org/Graphics/SVG/1.1/DTD/svg11.dtd">
<!-- Creator: CorelDRAW X8 -->
<svg xmlns="http://www.w3.org/2000/svg" xml:space="preserve" width="500px" height="500px" version="1.1" style="shape-rendering:geometricPrecision; text-rendering:geometricPrecision; image-rendering:optimizeQuality; fill-rule:evenodd; clip-rule:evenodd"
viewBox="0 0 500 500"
 xmlns:xlink="http://www.w3.org/1999/xlink">
 <defs>
  <style type="text/css">
   <![CDATA[
    .str0 {stroke:black;stroke-width:1.00006}
    .fil0 {fill:none;fill-rule:nonzero}
   ]]>
  </style>
 </defs>
 <g id="Layer_x0020_1">
  <metadata id="CorelCorpID_0Corel-Layer"/>
  <g id="_1909841758176">
   <path class="fil0 str0" d="M307 135c7,1 13,3 18,8 6,4 9,11 7,17 10,0 20,3 27,10 -10,-2 -20,-1 -30,2 0,5 -2,9 -3,13 3,2 4,6 5,10l3 27c2,14 4,29 -2,42 -6,11 -19,18 -31,21 -13,3 -26,2 -39,1 -7,0 -14,-1 -20,-4 -9,-4 -15,-13 -21,-21 -2,3 -6,4 -9,2 -3,-2 -4,-6 -3,-9 -26,13 -51,29 -75,46 -2,-8 4,-15 10,-20 9,-8 20,-14 30,-19 9,-3 19,-6 26,-12 -13,4 -27,8 -41,11 9,-8 19,-15 29,-21 2,-2 5,-3 6,-5 3,-3 5,-7 6,-11 3,-15 9,-30 20,-40 5,-5 12,-8 18,-12 14,-6 28,-13 42,-19 -1,1 1,-9 2,-10 1,-2 3,-5 5,-6 6,-3 14,-2 20,-1z"/>
   <path class="fil0 str0" d="M361 173c0,1 1,0 0,0 0,-1 -1,-1 -1,0 -3,1 -6,2 -9,2 -8,2 -16,3 -25,4"/>
   <path class="fil0 str0" d="M267 278c1,0 2,-1 2,-2 -3,1 -5,4 -6,8 3,1 6,2 9,2 2,1 3,2 2,3 0,0 -1,0 -1,0 -3,1 -5,3 -5,5 7,2 14,4 21,6 7,2 14,5 16,11 2,3 1,7 0,11 0,2 -1,5 -3,5"/>
   <path class="fil0 str0" d="M293 305c2,-1 4,2 5,4 2,7 1,15 -4,20"/>
   <path class="fil0 str0" d="M288 304c-2,-2 -4,-1 -6,0 -5,1 -10,3 -14,6 -4,3 -7,9 -5,14"/>
   <path class="fil0 str0" d="M301 157c2,-4 7,-4 11,-3 2,1 5,2 5,4 1,3 0,6 -2,8 -2,2 -5,3 -8,3 -3,1 -7,1 -9,-2 -1,-1 -1,-4 0,-6 0,-1 2,-3 3,-4"/>
   <path class="fil0 str0" d="M211 265c-1,0 -3,0 -4,1 -3,1 -5,4 -7,6 -10,12 -19,25 -28,38 -8,12 -16,25 -29,32 -2,1 -5,2 -7,0 -1,0 -1,-1 -1,-2 -2,-13 -2,-27 0,-40"/>
  </g>
 </g>
</svg>
