<?xml version="1.0" encoding="UTF-8"?>
<!DOCTYPE svg PUBLIC "-//W3C//DTD SVG 1.1//EN" "http://www.w3.org/Graphics/SVG/1.1/DTD/svg11.dtd">
<!-- Creator: CorelDRAW X8 -->
<svg xmlns="http://www.w3.org/2000/svg" xml:space="preserve" width="500px" height="500px" version="1.1" style="shape-rendering:geometricPrecision; text-rendering:geometricPrecision; image-rendering:optimizeQuality; fill-rule:evenodd; clip-rule:evenodd"
viewBox="0 0 500 500"
 xmlns:xlink="http://www.w3.org/1999/xlink">
 <defs>
  <style type="text/css">
   <![CDATA[
    .str0 {stroke:black;stroke-width:1.00006}
    .fil0 {fill:none;fill-rule:nonzero}
   ]]>
  </style>
 </defs>
 <g id="Layer_x0020_1">
  <metadata id="CorelCorpID_0Corel-Layer"/>
  <g id="_1909606538688">
   <path class="fil0 str0" d="M144 243c0,0 -1,0 -2,0 1,0 1,0 1,0"/>
   <path class="fil0 str0" d="M213 123c0,1 0,0 0,0 0,-1 0,-1 1,0 -7,-5 -16,-4 -23,1 -7,5 -11,12 -14,19 -9,0 -18,3 -26,8 7,1 15,1 22,1 -7,1 -14,1 -20,1 0,2 2,3 3,4 4,2 7,4 11,5 5,1 11,0 16,-2 5,-2 10,-7 10,-13 -1,-1 -1,-3 -2,-3 -4,-3 -10,3 -13,0"/>
   <path class="fil0 str0" d="M175 164c-1,0 0,-1 0,-1 1,0 1,1 1,2 -1,6 -3,13 -5,19 -3,8 -5,16 -9,23 -5,10 -13,19 -12,30 0,11 10,20 18,27 17,15 34,29 55,35 12,4 26,4 40,4 8,0 17,-1 25,-4 8,-4 15,-10 18,-18 4,3 8,7 12,10 1,1 1,2 2,2 12,11 23,21 35,31 2,2 4,4 6,5 1,-7 -2,-14 -5,-21 -4,-6 -9,-12 -12,-19 15,10 28,22 39,35 4,-12 -3,-25 -11,-35 -8,-10 -19,-18 -24,-30 -3,-7 -5,-14 -7,-21 -7,-19 -21,-35 -37,-46 -16,-12 -34,-21 -51,-32 -5,-2 -9,-5 -12,-9 -2,-3 -4,-7 -6,-11 -5,-8 -13,-14 -23,-17"/>
   <path class="fil0 str0" d="M208 150c0,-1 -1,-2 -1,-2 -1,0 -2,0 -3,0 -3,1 -7,2 -8,5 0,3 1,5 3,7 3,1 5,1 8,1 2,0 4,0 5,-1 2,0 3,-2 3,-4 0,-1 -1,-2 -2,-3 0,-1 -1,-2 -2,-3 -1,-1 -2,-1 -2,0"/>
   <path class="fil0 str0" d="M222 288c-9,-1 -18,3 -27,8 -3,2 -6,4 -10,4 -2,0 -5,-1 -7,-2 -5,-1 -9,0 -14,1 -2,0 -5,1 -6,2 -2,1 -2,3 -3,4 -2,6 -2,13 0,19"/>
   <path class="fil0 str0" d="M180 298c-4,2 -6,6 -7,11 -1,4 0,8 1,12 0,3 0,5 1,8"/>
   <path class="fil0 str0" d="M188 301c0,6 1,13 2,19"/>
   <path class="fil0 str0" d="M256 293c0,-1 0,-2 0,-2 -1,9 -2,18 -3,26 0,1 0,1 0,1 -1,1 -2,1 -2,1 -9,1 -17,4 -25,7 -2,1 -3,1 -4,3"/>
   <path class="fil0 str0" d="M253 320c-1,-1 -1,-1 -2,-1 6,5 10,12 13,19 0,1 0,1 0,1 1,0 0,-1 0,-1"/>
   <path class="fil0 str0" d="M253 317c0,0 0,0 0,1 0,0 0,0 0,0 4,2 8,3 12,4 4,2 7,4 10,7"/>
   <path class="fil0 str0" d="M210 191c2,17 4,33 7,50 0,-1 0,-1 0,-2"/>
   <path class="fil0 str0" d="M221 196c3,9 5,18 7,26 2,8 4,15 4,22"/>
   <path class="fil0 str0" d="M234 188c7,11 13,22 18,34 2,6 4,13 4,19"/>
   <path class="fil0 str0" d="M261 183c15,3 30,13 40,25"/>
   <path class="fil0 str0" d="M279 209c9,6 18,12 27,17 6,4 12,8 17,12 -1,1 -1,1 -2,0"/>
   <path class="fil0 str0" d="M269 218c8,11 15,22 21,34 1,1 1,2 1,3"/>
   <path class="fil0 str0" d="M245 228c0,0 0,-1 0,0 0,0 0,0 0,0 2,12 6,24 10,35"/>
   <path class="fil0 str0" d="M269 251c4,10 8,20 13,30"/>
   <path class="fil0 str0" d="M302 244c13,12 24,27 32,43"/>
   <path class="fil0 str0" d="M325 247c4,1 6,4 8,6 5,7 10,14 15,21"/>
  </g>
 </g>
</svg>
