<?xml version="1.0" encoding="UTF-8"?>
<!DOCTYPE svg PUBLIC "-//W3C//DTD SVG 1.1//EN" "http://www.w3.org/Graphics/SVG/1.1/DTD/svg11.dtd">
<!-- Creator: CorelDRAW X8 -->
<svg xmlns="http://www.w3.org/2000/svg" xml:space="preserve" width="500px" height="500px" version="1.1" style="shape-rendering:geometricPrecision; text-rendering:geometricPrecision; image-rendering:optimizeQuality; fill-rule:evenodd; clip-rule:evenodd"
viewBox="0 0 500 500"
 xmlns:xlink="http://www.w3.org/1999/xlink">
 <defs>
  <style type="text/css">
   <![CDATA[
    .str0 {stroke:black;stroke-width:1.00006}
    .fil0 {fill:none;fill-rule:nonzero}
   ]]>
  </style>
 </defs>
 <g id="Layer_x0020_1">
  <metadata id="CorelCorpID_0Corel-Layer"/>
  <g id="_1909733424112">
   <path class="fil0 str0" d="M181 17c-11,6 -17,19 -16,32 -43,20 -83,44 -121,72 27,-15 54,-30 82,-44 23,-12 47,-23 72,-22 4,1 7,1 10,3 3,2 5,7 5,11 2,14 -5,27 -15,37 -10,10 -21,18 -31,27 -18,17 -29,39 -37,62 -6,20 -10,43 1,61 8,12 22,20 35,26 29,16 63,31 95,22 8,-3 16,-7 25,-10 19,-7 40,-6 61,-6 25,1 50,2 74,3 6,0 15,-2 14,-8 -8,-2 -17,-5 -25,-7 18,2 35,2 53,0 -14,-8 -30,-14 -46,-16 13,1 25,2 38,2 -12,-15 -34,-15 -52,-23 -13,-5 -23,-14 -34,-21 -45,-31 -100,-42 -148,-67 -4,-2 -9,-5 -10,-10 -3,-8 5,-16 11,-22 17,-18 23,-46 15,-70 -8,-22 -31,-46 -56,-32z"/>
   <path class="fil0 str0" d="M187 35c-2,-1 -5,0 -7,1 -1,1 -1,3 0,4 0,0 0,0 1,0 5,1 10,1 14,-2 -2,-2 -4,-4 -6,-6"/>
   <path class="fil0 str0" d="M206 290c1,13 1,27 1,41 0,4 0,9 -1,13 -1,5 -5,8 -8,12 -27,32 -52,65 -74,100"/>
   <path class="fil0 str0" d="M232 289c-2,0 -2,-2 -1,-3 17,13 35,26 52,38 9,7 17,14 25,22 4,5 8,11 12,17 18,26 34,54 48,83"/>
   <path class="fil0 str0" d="M361 450c-9,12 -21,21 -35,27"/>
   <path class="fil0 str0" d="M371 455c1,0 2,-3 1,-4 -6,6 -9,14 -11,22"/>
   <path class="fil0 str0" d="M377 446c0,0 -1,-1 0,-1 0,-1 1,-1 1,-1 10,1 20,3 30,5"/>
  </g>
 </g>
</svg>
