<?xml version="1.0" encoding="UTF-8"?>
<!DOCTYPE svg PUBLIC "-//W3C//DTD SVG 1.1//EN" "http://www.w3.org/Graphics/SVG/1.1/DTD/svg11.dtd">
<!-- Creator: CorelDRAW X8 -->
<svg xmlns="http://www.w3.org/2000/svg" xml:space="preserve" width="500px" height="500px" version="1.1" style="shape-rendering:geometricPrecision; text-rendering:geometricPrecision; image-rendering:optimizeQuality; fill-rule:evenodd; clip-rule:evenodd"
viewBox="0 0 500 500"
 xmlns:xlink="http://www.w3.org/1999/xlink">
 <defs>
  <style type="text/css">
   <![CDATA[
    .str0 {stroke:black;stroke-width:1.00006}
    .fil0 {fill:none;fill-rule:nonzero}
   ]]>
  </style>
 </defs>
 <g id="Layer_x0020_1">
  <metadata id="CorelCorpID_0Corel-Layer"/>
  <path class="fil0 str0" d="M298 56c0,-7 4,-13 9,-19 13,-16 33,-27 54,-29 0,0 1,-1 1,-1 3,3 5,8 5,13 -3,-2 -6,-5 -10,-3 -1,1 -2,3 -3,5 -7,15 -12,32 -14,49 5,0 10,0 16,0 1,0 2,0 3,-1 0,-1 1,-2 1,-3 1,-8 3,-15 4,-23 2,-8 3,-17 -1,-24"/>
  <path class="fil0 str0" d="M295 63c-4,-3 -11,-3 -16,-1 -5,2 -9,4 -12,7 -3,3 -4,8 -3,13 2,7 10,10 18,11 5,1 11,1 15,-3 4,-3 5,-8 5,-12 0,-5 -2,-9 -4,-14"/>
  <path class="fil0 str0" d="M255 80c-3,10 3,22 13,26 -6,4 -10,9 -13,15 -7,16 0,34 -3,51 -2,13 -10,25 -17,36 -15,26 -23,55 -32,84 2,1 4,1 7,2 25,-11 54,-13 81,-5 1,0 3,1 5,0 5,-1 4,-8 4,-13 -7,-36 17,-70 18,-107 1,-22 -7,-44 -4,-66 7,-3 14,2 18,7 10,11 20,21 31,32 -6,-13 -16,-25 -27,-33 8,1 17,1 26,1 -5,-10 -6,-22 -3,-32 2,7 9,12 13,19 4,6 6,15 0,21 -2,2 -6,3 -8,7 -4,8 13,15 11,25 -1,10 -20,9 -21,19 -1,4 4,9 2,13 0,4 -4,5 -6,8 -8,7 -10,18 -11,29 -2,26 -5,52 -7,78"/>
  <path class="fil0 str0" d="M338 253c20,-18 46,-29 72,-31 9,-1 18,-1 26,3 10,4 16,14 20,25 3,10 3,21 4,32 0,8 0,16 0,25 1,7 1,15 -3,21 -1,0 -3,0 -4,0"/>
  <path class="fil0 str0" d="M208 251c1,0 3,-1 4,-3 -7,-12 -15,-24 -28,-29 -10,-4 -23,-3 -34,0 -26,7 -49,23 -64,44 -16,22 -24,49 -22,76"/>
  <path class="fil0 str0" d="M88 251c-6,-4 -11,-8 -16,-13 -4,-2 -7,-5 -8,-8 -5,-11 7,-22 18,-22 11,1 21,8 29,16 -8,-12 -15,-25 -21,-38 -2,-7 -4,-14 -2,-20 3,-11 16,-17 27,-20 12,16 24,33 36,49 -24,-15 -39,-42 -40,-70 0,-5 0,-10 2,-14 3,-9 12,-15 20,-20 5,-4 13,-8 19,-5 3,2 5,5 7,8 8,13 14,28 19,43 8,20 15,39 22,59 -16,-23 -31,-47 -35,-75 -3,-28 9,-60 35,-70 5,-2 10,-3 14,-1 8,2 13,9 17,16 7,15 12,30 15,46"/>
  <path class="fil0 str0" d="M64 331c-2,-3 -6,-3 -9,-1 -3,2 -5,5 -6,8 -19,45 -27,95 -22,144 3,1 4,-2 5,-4 12,-38 22,-77 28,-116 -8,21 -16,42 -17,64 -1,23 6,47 24,60 2,2 4,3 6,3 6,1 10,-7 11,-13 11,-43 18,-87 14,-132 1,29 1,57 2,85 0,13 0,27 4,40 1,4 3,8 6,11 3,2 8,3 12,1 1,-1 2,-3 3,-4 22,-36 18,-82 13,-124 7,17 9,35 13,52 4,18 11,35 25,46 0,-22 0,-45 1,-67 0,-22 0,-45 5,-66 5,-22 16,-42 33,-56"/>
  <path class="fil0 str0" d="M336 268c20,-8 42,-7 61,1 20,9 36,24 48,41 27,40 34,93 16,138"/>
  <path class="fil0 str0" d="M170 403c11,13 23,24 38,33 5,3 10,6 16,7 6,0 13,-3 15,-8l-6 17c0,2 -1,4 0,6 2,3 6,2 10,1 14,-4 27,-10 40,-17 -6,9 -11,19 -17,29 -1,3 -3,6 0,9 1,1 2,1 4,2 12,2 24,1 36,-4 12,-4 22,-12 32,-22 27,-27 45,-67 36,-105"/>
 </g>
</svg>
