<?xml version="1.0" encoding="UTF-8"?>
<!DOCTYPE svg PUBLIC "-//W3C//DTD SVG 1.1//EN" "http://www.w3.org/Graphics/SVG/1.1/DTD/svg11.dtd">
<!-- Creator: CorelDRAW X8 -->
<svg xmlns="http://www.w3.org/2000/svg" xml:space="preserve" width="500px" height="500px" version="1.1" style="shape-rendering:geometricPrecision; text-rendering:geometricPrecision; image-rendering:optimizeQuality; fill-rule:evenodd; clip-rule:evenodd"
viewBox="0 0 500 500"
 xmlns:xlink="http://www.w3.org/1999/xlink">
 <defs>
  <style type="text/css">
   <![CDATA[
    .str0 {stroke:black;stroke-width:1.00006}
    .fil0 {fill:none;fill-rule:nonzero}
   ]]>
  </style>
 </defs>
 <g id="Layer_x0020_1">
  <metadata id="CorelCorpID_0Corel-Layer"/>
  <g id="_2230008892688">
   <path class="fil0 str0" d="M336 205c-1,-1 -2,0 -3,1 1,0 2,1 2,1"/>
   <path class="fil0 str0" d="M329 162c1,-6 5,-11 8,-16 5,-8 10,-16 14,-25 4,-8 8,-18 4,-27 -2,-4 -6,-7 -10,-10 -29,-24 -58,-48 -94,-58 16,13 33,27 49,41 -15,-4 -28,-11 -42,-16 -14,-5 -30,-7 -43,-1 18,14 46,13 59,32 -20,-6 -40,-10 -61,-10 -5,0 -12,1 -12,7 0,3 4,5 7,7 11,7 22,14 34,21 -11,-1 -21,-1 -31,1 -1,0 -3,0 -4,1 -3,2 -2,7 1,9 2,2 6,4 8,6 7,4 9,13 8,21 -1,8 -4,15 -6,23 -5,20 -1,41 3,61 -22,-4 -45,-9 -67,-13 -15,-3 -30,-5 -43,2 12,8 26,13 41,13 -5,4 -10,11 -7,17 1,2 2,3 3,5 1,2 1,5 1,7l-1 10c-2,16 -3,33 -9,49 13,1 24,-9 35,-17 15,-12 33,-20 51,-24 4,10 6,20 7,31 3,0 4,4 4,7 0,3 -2,6 -1,9 1,2 2,3 4,5 7,7 13,15 15,25 3,9 1,20 -5,28 4,6 3,15 -1,22 -3,7 -10,12 -15,17 -13,11 -25,24 -35,39 23,-1 40,-23 61,-32 -3,13 -8,25 -14,36 17,-2 24,-26 41,-29 -2,7 -4,14 -6,21 8,3 15,-4 20,-10 6,-7 14,-13 21,-9 20,-21 30,-50 38,-78 3,-7 5,-15 5,-23 0,-11 -6,-20 -11,-30 -9,-18 -17,-37 -23,-57 7,-7 16,-13 26,-13 10,1 20,9 19,19 6,-4 8,-12 6,-18 -2,-7 -7,-12 -13,-16 -9,-7 -28,-9 -34,-18 -6,-9 -7,-32 -5,-42z"/>
   <path class="fil0 str0" d="M360 225c-1,-1 -1,-1 -2,-2 -3,-2 -8,0 -9,4 -1,4 5,7 8,5 3,-2 2,-7 0,-11"/>
  </g>
 </g>
</svg>
