<?xml version="1.0" encoding="UTF-8"?>
<!DOCTYPE svg PUBLIC "-//W3C//DTD SVG 1.1//EN" "http://www.w3.org/Graphics/SVG/1.1/DTD/svg11.dtd">
<!-- Creator: CorelDRAW X8 -->
<svg xmlns="http://www.w3.org/2000/svg" xml:space="preserve" width="500px" height="500px" version="1.1" style="shape-rendering:geometricPrecision; text-rendering:geometricPrecision; image-rendering:optimizeQuality; fill-rule:evenodd; clip-rule:evenodd"
viewBox="0 0 500 500"
 xmlns:xlink="http://www.w3.org/1999/xlink">
 <defs>
  <style type="text/css">
   <![CDATA[
    .str0 {stroke:black;stroke-width:1.00006}
    .fil0 {fill:none;fill-rule:nonzero}
   ]]>
  </style>
 </defs>
 <g id="Layer_x0020_1">
  <metadata id="CorelCorpID_0Corel-Layer"/>
  <g id="_2230007452272">
   <path class="fil0 str0" d="M158 103c3,-3 -2,-7 -6,-8 -15,-5 -32,-2 -45,7 -13,9 -22,24 -23,40 -2,-6 5,-12 11,-12 6,-1 12,2 18,3 6,0 12,-1 17,1 10,2 17,11 20,21 3,9 3,19 6,29 9,35 46,60 81,57 -1,18 -2,36 -3,54 0,-1 2,-2 3,-1 0,1 0,2 -1,3 -7,16 -14,31 -21,46 -9,-2 -18,-5 -28,-3 -9,1 -18,7 -20,16"/>
   <path class="fil0 str0" d="M222 347c5,2 11,2 16,3 5,0 11,2 14,6 3,4 3,8 2,12"/>
   <path class="fil0 str0" d="M247 303c-1,0 -2,-2 -1,-3 1,0 3,0 4,1 11,2 20,-9 23,-20 3,-10 3,-22 9,-32 20,1 42,3 57,17 6,5 10,13 15,20 8,13 16,27 24,40 10,18 21,36 39,48 -7,-38 -24,-75 -50,-104 14,18 30,35 48,51 3,-9 -2,-19 -7,-27 -5,-9 -11,-18 -16,-28 -8,-13 -18,-28 -34,-30 18,9 36,18 55,13 -6,-13 -22,-17 -34,-24 -2,-1 -5,-2 -6,-4 -2,-2 -3,-5 -5,-7 -5,-9 -11,-17 -19,-25 -15,-17 -32,-33 -49,-47 -11,-9 -22,-17 -35,-21 -11,-4 -24,-4 -36,-4 -14,0 -29,0 -44,2 -2,0 -4,0 -6,-1 -6,-2 -6,-14 -13,-15"/>
   <path class="fil0 str0" d="M114 110c9,-2 18,-2 27,-1 -2,9 -12,15 -22,13 -2,-1 -4,-2 -6,-4 -1,-2 -1,-5 1,-7"/>
  </g>
 </g>
</svg>
