<?xml version="1.0" encoding="UTF-8"?>
<!DOCTYPE svg PUBLIC "-//W3C//DTD SVG 1.1//EN" "http://www.w3.org/Graphics/SVG/1.1/DTD/svg11.dtd">
<!-- Creator: CorelDRAW X8 -->
<svg xmlns="http://www.w3.org/2000/svg" xml:space="preserve" width="500px" height="500px" version="1.1" style="shape-rendering:geometricPrecision; text-rendering:geometricPrecision; image-rendering:optimizeQuality; fill-rule:evenodd; clip-rule:evenodd"
viewBox="0 0 500 500"
 xmlns:xlink="http://www.w3.org/1999/xlink">
 <defs>
  <style type="text/css">
   <![CDATA[
    .str0 {stroke:black;stroke-width:1.00006}
    .fil0 {fill:none;fill-rule:nonzero}
   ]]>
  </style>
 </defs>
 <g id="Layer_x0020_1">
  <metadata id="CorelCorpID_0Corel-Layer"/>
  <g id="_2230130312912">
   <path class="fil0 str0" d="M348 106c2,-1 2,-4 1,-6 -2,-2 -4,-3 -6,-3 -5,-2 -12,-2 -15,3"/>
   <path class="fil0 str0" d="M325 100c-14,6 -23,22 -21,37 -10,3 -18,8 -25,14 -3,4 -6,7 -11,9 -3,1 -7,1 -10,2 -6,1 -12,5 -17,9 -7,6 -15,12 -23,18 -6,4 -12,9 -18,15 -5,7 -10,14 -15,21 -6,9 -14,18 -21,26 -17,19 -35,38 -52,57 11,-8 24,-14 37,-18 -6,12 -19,20 -31,27 -17,9 -33,20 -48,32 9,0 18,-3 27,-7 22,-8 44,-17 66,-26l-62 43c22,-7 45,-14 66,-26 15,-8 29,-19 46,-22 5,-1 11,-1 15,-4 8,-4 15,-13 22,-10 -2,2 2,5 4,7 2,3 2,6 2,9 0,15 0,31 0,47l14 2c13,-16 7,-43 23,-56 4,-2 8,-4 10,-8 1,-2 2,-4 3,-6 4,-8 13,-10 20,-15 10,-8 12,-23 21,-32 5,-6 12,-9 17,-14 5,-5 7,-12 10,-19 3,-12 7,-27 1,-38 -3,-4 -6,-7 -8,-11 -5,-9 -5,-20 -5,-31 0,-10 -2,-22 -10,-28"/>
   <path class="fil0 str0" d="M285 319c-1,15 -3,29 -2,44 11,-1 23,0 34,3 2,4 3,9 4,14 -6,-4 -14,-6 -22,-8 -4,-1 -8,-2 -12,-3 -10,0 -20,3 -27,10 3,-2 2,-8 -1,-10 -3,-3 -7,-3 -11,-3 -8,0 -16,1 -23,4 6,-2 12,-6 17,-11"/>
   <path class="fil0 str0" d="M326 137c0,1 0,2 1,3 0,2 2,2 3,3 7,2 15,1 20,-4 6,-6 5,-19 -4,-20 -9,-1 -19,10 -20,18z"/>
   <path class="fil0 str0" d="M308 119c0,0 1,-1 2,-1 2,6 3,13 3,20 -3,0 -6,-1 -8,-4"/>
   <path class="fil0 str0" d="M316 136c0,0 0,-1 0,-1 -1,0 -1,0 -1,1 -4,3 -3,9 -3,14 0,4 -1,7 -2,11 4,-4 7,-8 11,-12 1,-1 2,-2 3,-4 0,-2 0,-4 -2,-4"/>
   <path class="fil0 str0" d="M327 193c-2,7 -5,14 -9,20"/>
   <path class="fil0 str0" d="M342 192c-2,4 -5,9 -7,14 -2,4 -4,7 -4,10"/>
   <path class="fil0 str0" d="M360 193c-6,9 -12,18 -19,26"/>
   <path class="fil0 str0" d="M348 226c-5,7 -11,15 -17,21"/>
   <path class="fil0 str0" d="M329 234c1,0 0,-1 0,0 0,0 -1,0 -1,0 -3,6 -7,11 -10,16"/>
   <path class="fil0 str0" d="M318 227c-1,0 -3,2 -3,3 -4,6 -7,11 -10,17"/>
   <path class="fil0 str0" d="M301 239c0,-1 -1,-1 -2,0 -5,6 -10,13 -16,19"/>
   <path class="fil0 str0" d="M294 266c0,-1 0,-1 0,-2 -3,4 -7,8 -10,12"/>
   <path class="fil0 str0" d="M308 269c-4,5 -8,9 -11,13 -1,1 -2,3 -1,4"/>
   <path class="fil0 str0" d="M321 265c0,0 0,0 0,0 -1,0 -1,0 -1,0 -4,4 -7,8 -11,12"/>
   <path class="fil0 str0" d="M310 256c-4,1 -8,4 -9,8"/>
  </g>
 </g>
</svg>
